<svg xmlns="http://www.w3.org/2000/svg" width="20.385" height="20.385" viewBox="0 0 20.385 20.385">
    <g data-name="그룹 2566" style="opacity:.6">
        <path data-name="패스 2056" d="M20.385 10.193A10.193 10.193 0 1 1 10.193 0a10.2 10.2 0 0 1 10.192 10.193zm-19.367 0a9.174 9.174 0 1 0 9.174-9.174 9.184 9.184 0 0 0-9.174 9.174zm0 0" transform="rotate(90 10.193 10.193)" style="fill:#555"/>
        <path data-name="패스 2057" d="M3.737.146 6.6 3.01a.509.509 0 0 1-.719.719l-2-2v7.632a.511.511 0 1 1-1.023 0V1.738l-2 2a.509.509 0 0 1-.708-.724L3.014.15a.517.517 0 0 1 .723 0zm0 0" transform="rotate(90 4.155 10.972)" style="fill:#555"/>
    </g>
</svg>
