<svg xmlns="http://www.w3.org/2000/svg" width="24" height="24" viewBox="0 0 24 24">
    <path data-name="사각형 1232" style="fill:none" d="M0 0h24v24H0z"/>
    <path data-name="합치기 45" d="m-5961.042-10775.744-5.657-5.656a.5.5 0 0 1-.112-.172 7.743 7.743 0 0 1-5.393 2.166 7.732 7.732 0 0 1-5.51-2.284 7.741 7.741 0 0 1-2.284-5.514 7.74 7.74 0 0 1 2.284-5.513 7.747 7.747 0 0 1 5.513-2.284 7.731 7.731 0 0 1 5.51 2.284 7.735 7.735 0 0 1 2.284 5.513 7.739 7.739 0 0 1-1.791 4.973.5.5 0 0 1 .206.124l5.657 5.656a.5.5 0 0 1 0 .707.5.5 0 0 1-.352.146.5.5 0 0 1-.355-.146zm-15.965-16.266a6.753 6.753 0 0 0-1.991 4.806 6.753 6.753 0 0 0 1.991 4.807 6.741 6.741 0 0 0 4.8 1.991 6.752 6.752 0 0 0 4.806-1.991 6.741 6.741 0 0 0 1.991-4.807 6.74 6.74 0 0 0-1.991-4.806 6.746 6.746 0 0 0-4.8-1.991 6.752 6.752 0 0 0-4.807 1.991z" transform="translate(5982.467 10797.29)" style="stroke:transparent;stroke-miterlimit:10"/>
</svg>
