<svg xmlns="http://www.w3.org/2000/svg" width="24" height="24" viewBox="0 0 24 24">
    <path data-name="icon_search_delete_bk" d="M656.875 1901.875a9 9 0 1 0 9 9 9 9 0 0 0-9-9zm4.773 12.977a.563.563 0 0 1-.4.96.557.557 0 0 1-.4-.165l-3.978-3.977-3.978 3.977a.561.561 0 0 1-.8 0 .563.563 0 0 1 0-.8l3.978-3.977-3.97-3.97a.562.562 0 0 1 .8-.8l3.978 3.977 3.978-3.977a.562.562 0 1 1 .8.8l-3.978 3.977z" transform="translate(-644.874 -1898.875)" style="opacity:.2"/>
    <path data-name="사각형 1620" style="fill:none" d="M0 0h24v24H0z"/>
</svg>
