<svg id="icon_listview_bk" xmlns="http://www.w3.org/2000/svg" width="32" height="32" viewBox="0 0 32 32">
  <rect id="사각형_1309" data-name="사각형 1309" width="32" height="32" fill="none"/>
  <g id="그룹_2797" data-name="그룹 2797" transform="translate(4.778 5.333)">
    <g id="그룹_1683" data-name="그룹 1683" transform="translate(7.777 1.911)">
      <g id="그룹_1678" data-name="그룹 1678" transform="translate(0 16)">
        <g id="그룹_1677" data-name="그룹 1677">
          <path id="패스_1232" data-name="패스 1232" d="M1595.6,1677.333h-13.539a.676.676,0,0,1,0-1.333H1595.6a.676.676,0,0,1,0,1.333Z" transform="translate(-1581.5 -1676)"/>
        </g>
      </g>
      <g id="그룹_1680" data-name="그룹 1680" transform="translate(0 8)">
        <g id="그룹_1679" data-name="그룹 1679">
          <path id="패스_1233" data-name="패스 1233" d="M1595.6,1669.333h-13.539a.676.676,0,0,1,0-1.333H1595.6a.676.676,0,0,1,0,1.333Z" transform="translate(-1581.5 -1668)"/>
        </g>
      </g>
      <g id="그룹_1682" data-name="그룹 1682" transform="translate(0 0)">
        <g id="그룹_1681" data-name="그룹 1681">
          <path id="패스_1234" data-name="패스 1234" d="M1595.6,1661.333h-13.539a.676.676,0,0,1,0-1.333H1595.6a.676.676,0,0,1,0,1.333Z" transform="translate(-1581.5 -1660)"/>
        </g>
      </g>
    </g>
    <g id="그룹_1687" data-name="그룹 1687" transform="translate(0)">
      <g id="그룹_1684" data-name="그룹 1684">
        <path id="패스_1235" data-name="패스 1235" d="M1578.334,1664.9a2.667,2.667,0,1,1,2.667-2.667A2.67,2.67,0,0,1,1578.334,1664.9Zm0-4a1.333,1.333,0,1,0,1.333,1.333A1.335,1.335,0,0,0,1578.334,1660.9Z" transform="translate(-1575.667 -1659.566)"/>
      </g>
      <g id="그룹_1685" data-name="그룹 1685" transform="translate(0 8)">
        <path id="패스_1236" data-name="패스 1236" d="M1578.334,1671.9a2.667,2.667,0,1,1,2.667-2.667A2.67,2.67,0,0,1,1578.334,1671.9Zm0-4a1.333,1.333,0,1,0,1.333,1.333A1.335,1.335,0,0,0,1578.334,1667.9Z" transform="translate(-1575.667 -1666.566)"/>
      </g>
      <g id="그룹_1686" data-name="그룹 1686" transform="translate(0 16)">
        <path id="패스_1237" data-name="패스 1237" d="M1578.334,1678.9a2.667,2.667,0,1,1,2.667-2.667A2.67,2.67,0,0,1,1578.334,1678.9Zm0-4a1.333,1.333,0,1,0,1.333,1.333A1.335,1.335,0,0,0,1578.334,1674.9Z" transform="translate(-1575.667 -1673.566)"/>
      </g>
    </g>
  </g>
</svg>
