<svg xmlns="http://www.w3.org/2000/svg" width="21" height="13.69" viewBox="0 0 21 13.69">
    <g data-name="그룹 2905" style="opacity:.7">
        <path data-name="패스 2141" d="M10.474 13.69a.33.33 0 0 1-.331-.33V1.908A1.913 1.913 0 0 1 12.056 0h7.589a.331.331 0 0 1 .331.33v11.452a.331.331 0 0 1-.331.33h-7.589a1.251 1.251 0 0 0-1.251 1.248.33.33 0 0 1-.331.33zM12.056.66a1.251 1.251 0 0 0-1.251 1.248v10.008a1.908 1.908 0 0 1 1.251-.466h7.256V.66z"/>
        <path data-name="패스 2142" d="M20.669 13.69h-10.2a.33.33 0 1 1 0-.66h9.864V2.338h-.693a.33.33 0 1 1 0-.66h1.024a.33.33 0 0 1 .331.33v11.355a.33.33 0 0 1-.326.327z"/>
        <path data-name="패스 2143" d="M10.527 13.69a.33.33 0 0 1-.331-.33 1.251 1.251 0 0 0-1.251-1.248h-7.59a.33.33 0 0 1-.331-.33V.33A.33.33 0 0 1 1.355 0h7.589a1.913 1.913 0 0 1 1.913 1.908V13.36a.33.33 0 0 1-.33.33zm-8.845-2.239h7.259a1.907 1.907 0 0 1 1.251.466V1.908A1.251 1.251 0 0 0 8.941.66H1.682z"/>
        <path data-name="패스 2144" d="M10.526 13.69H.326a.33.33 0 0 1-.331-.33V2.005a.33.33 0 0 1 .331-.33h1.031a.33.33 0 1 1 0 .66H.664V13.03h9.864a.33.33 0 1 1 0 .66z"/>
        <path data-name="패스 2146" d="M17.681 4.881h-4.746a.331.331 0 0 1 0-.662h4.746a.331.331 0 0 1 0 .662z"/>
        <path data-name="패스 2151" d="M8.28 4.881H3.534a.331.331 0 0 1 0-.662H8.28a.331.331 0 0 1 0 .662z"/>
        <path data-name="패스 2147" d="M17.645 8.429h-4.756a.331.331 0 0 1 0-.662h4.755a.331.331 0 0 1 0 .662z"/>
        <path data-name="패스 2149" d="M8.244 8.429H3.488a.331.331 0 0 1 0-.662h4.755a.331.331 0 0 1 0 .662z"/>
        <path data-name="패스 2148" d="M17.645 6.575h-4.756a.331.331 0 0 1 0-.662h4.755a.331.331 0 0 1 0 .662z"/>
        <path data-name="패스 2150" d="M8.244 6.575H3.488a.331.331 0 0 1 0-.662h4.755a.331.331 0 0 1 0 .662z"/>
    </g>
</svg>
