<svg id="icon_imgview_bk" xmlns="http://www.w3.org/2000/svg" width="32" height="32" viewBox="0 0 32 32">
  <rect id="사각형_1283" data-name="사각형 1283" width="32" height="32" fill="none"/>
  <g id="그룹_1831" data-name="그룹 1831" transform="translate(5.333 5.333)">
    <g id="그룹_1827" data-name="그룹 1827">
      <path id="패스_1409" data-name="패스 1409" d="M1616.333,1666.417a2.916,2.916,0,0,1-2.917,2.917h-3.5a2.916,2.916,0,0,1-2.917-2.917v-3.5a2.916,2.916,0,0,1,2.917-2.917h3.5a2.916,2.916,0,0,1,2.917,2.917Zm-1.167-3.5a1.751,1.751,0,0,0-1.75-1.75h-3.5a1.751,1.751,0,0,0-1.75,1.75v3.5a1.751,1.751,0,0,0,1.75,1.75h3.5a1.751,1.751,0,0,0,1.75-1.75Z" transform="translate(-1607 -1660)"/>
    </g>
    <g id="그룹_1828" data-name="그룹 1828" transform="translate(12)">
      <path id="패스_1410" data-name="패스 1410" d="M1626.333,1666.417a2.916,2.916,0,0,1-2.917,2.917h-3.5a2.916,2.916,0,0,1-2.917-2.917v-3.5a2.916,2.916,0,0,1,2.917-2.917h3.5a2.916,2.916,0,0,1,2.917,2.917Zm-1.167-3.5a1.751,1.751,0,0,0-1.75-1.75h-3.5a1.751,1.751,0,0,0-1.75,1.75v3.5a1.751,1.751,0,0,0,1.75,1.75h3.5a1.751,1.751,0,0,0,1.75-1.75Z" transform="translate(-1617 -1660)"/>
    </g>
    <g id="그룹_1829" data-name="그룹 1829" transform="translate(0 12)">
      <path id="패스_1411" data-name="패스 1411" d="M1616.333,1676.417a2.916,2.916,0,0,1-2.917,2.917h-3.5a2.916,2.916,0,0,1-2.917-2.917v-3.5a2.916,2.916,0,0,1,2.917-2.917h3.5a2.916,2.916,0,0,1,2.917,2.917Zm-1.167-3.5a1.751,1.751,0,0,0-1.75-1.75h-3.5a1.751,1.751,0,0,0-1.75,1.75v3.5a1.751,1.751,0,0,0,1.75,1.75h3.5a1.751,1.751,0,0,0,1.75-1.75Z" transform="translate(-1607 -1670)"/>
    </g>
    <g id="그룹_1830" data-name="그룹 1830" transform="translate(12 12)">
      <path id="패스_1412" data-name="패스 1412" d="M1626.333,1676.417a2.916,2.916,0,0,1-2.917,2.917h-3.5a2.916,2.916,0,0,1-2.917-2.917v-3.5a2.916,2.916,0,0,1,2.917-2.917h3.5a2.916,2.916,0,0,1,2.917,2.917Zm-1.167-3.5a1.751,1.751,0,0,0-1.75-1.75h-3.5a1.751,1.751,0,0,0-1.75,1.75v3.5a1.751,1.751,0,0,0,1.75,1.75h3.5a1.751,1.751,0,0,0,1.75-1.75Z" transform="translate(-1617 -1670)"/>
    </g>
  </g>
</svg>
