<svg xmlns="http://www.w3.org/2000/svg" width="42" height="31.432" viewBox="0 0 42 31.432">
  <g id="그룹_2949" data-name="그룹 2949" transform="translate(-108 -277.89)">
    <path id="패스_2083" data-name="패스 2083" d="M116.248,330.338h-7.677a.571.571,0,0,1-.572-.571v-27.7a.571.571,0,0,1,.572-.571h7.677a.571.571,0,0,1,.572.571v27.7a.571.571,0,0,1-.572.571Zm-7.1-1.141h6.533V302.641h-6.533Zm0,0" transform="translate(0 -21.016)" fill="#414141"/>
    <path id="패스_2084" data-name="패스 2084" d="M116.248,350.581h-7.677a.572.572,0,0,1,0-1.143h7.677a.572.572,0,0,1,0,1.143Zm0,0" transform="translate(0 -63.699)" fill="#414141"/>
    <path id="패스_2085" data-name="패스 2085" d="M116.248,382.639h-7.677a.572.572,0,1,1,0-1.143h7.677a.572.572,0,1,1,0,1.143Zm0,0" transform="translate(0 -92.242)" fill="#414141"/>
    <path id="패스_2086" data-name="패스 2086" d="M133.048,483.522H130.1a.571.571,0,0,1,0-1.143h2.946a.571.571,0,1,1,0,1.143Zm0,0" transform="translate(-19.165 -182.059)" fill="#414141"/>
    <path id="패스_2087" data-name="패스 2087" d="M328.515,323.367a.573.573,0,0,1-.531-.359l-10.355-25.7a.571.571,0,0,1,.316-.742l7.121-2.859a.569.569,0,0,1,.438.006.562.562,0,0,1,.305.312l10.355,25.7a.57.57,0,0,1-.318.742l-7.121,2.859a.553.553,0,0,1-.209.041ZM318.9,297.416l9.928,24.638,6.06-2.435-9.928-24.638Zm0,0" transform="translate(-186.206 -14.044)" fill="#414141"/>
    <path id="패스_2088" data-name="패스 2088" d="M336.046,342.147a.572.572,0,0,1-.215-1.1l7.124-2.864a.571.571,0,0,1,.427,1.059l-7.124,2.866a.592.592,0,0,1-.212.041Zm0,0" transform="translate(-202.215 -53.642)" fill="#414141"/>
    <path id="패스_2089" data-name="패스 2089" d="M348.013,371.9a.572.572,0,0,1-.215-1.1l7.122-2.864a.571.571,0,0,1,.427,1.059l-7.121,2.864a.547.547,0,0,1-.212.043Zm0,0" transform="translate(-212.854 -80.132)" fill="#414141"/>
    <path id="패스_2090" data-name="패스 2090" d="M408.66,472.7a.572.572,0,0,1-.215-1.1l2.063-.83a.571.571,0,1,1,.427,1.059l-2.063.83a.528.528,0,0,1-.212.044Zm0,0" transform="translate(-266.761 -171.689)" fill="#414141"/>
    <path id="패스_2091" data-name="패스 2091" d="M186.111,333.858h-7.677a.572.572,0,0,1,0-1.143h7.677a.572.572,0,0,1,0,1.143Zm0,0" transform="translate(-62.104 -48.811)" fill="#414141"/>
    <path id="패스_2092" data-name="패스 2092" d="M202.911,481.143h-2.946a.572.572,0,0,1,0-1.143h2.946a.572.572,0,1,1,0,1.143Zm0,0" transform="translate(-81.257 -179.941)" fill="#414141"/>
    <path id="패스_2093" data-name="패스 2093" d="M202.911,511.713h-2.946a.572.572,0,0,1,0-1.143h2.946a.572.572,0,1,1,0,1.143Zm0,0" transform="translate(-81.257 -207.166)" fill="#414141"/>
    <path id="패스_2094" data-name="패스 2094" d="M202.911,374.395h-2.946a.571.571,0,0,1-.571-.572v-7.81a.572.572,0,0,1,.571-.572h2.946a.572.572,0,0,1,.572.572v7.81a.572.572,0,0,1-.572.572Zm-2.374-1.144h1.8v-6.667h-1.8Zm0,0" transform="translate(-81.257 -77.953)" fill="#414141"/>
    <path id="패스_2095" data-name="패스 2095" d="M255.974,309.322H248.3a.571.571,0,0,1-.572-.571V278.461a.571.571,0,0,1,.572-.571h7.677a.571.571,0,0,1,.572.571v30.293a.571.571,0,0,1-.572.568Zm-7.105-1.142H255.4V279.032h-6.533Zm0,0" transform="translate(-124.208 0)" fill="#414141"/>
    <path id="패스_2096" data-name="패스 2096" d="M255.974,325.412H248.3a.572.572,0,1,1,0-1.143h7.677a.572.572,0,1,1,0,1.143Zm0,0" transform="translate(-124.208 -41.283)" fill="#414141"/>
    <path id="패스_2097" data-name="패스 2097" d="M255.974,357.467H248.3a.572.572,0,0,1,0-1.143h7.677a.572.572,0,0,1,0,1.143Zm0,0" transform="translate(-124.208 -69.831)" fill="#414141"/>
    <path id="패스_2098" data-name="패스 2098" d="M186.111,555.166h-7.677a.572.572,0,1,1,0-1.143h7.677a.572.572,0,1,1,0,1.143Zm0,0" transform="translate(-62.104 -245.844)" fill="#414141"/>
    <path id="패스_2099" data-name="패스 2099" d="M272.774,476.139h-2.946a.572.572,0,0,1,0-1.143h2.946a.572.572,0,1,1,0,1.143Zm0,0" transform="translate(-143.372 -175.486)" fill="#414141"/>
    <path id="패스_2100" data-name="패스 2100" d="M272.774,506.709h-2.946a.572.572,0,0,1,0-1.143h2.946a.572.572,0,1,1,0,1.143Zm0,0" transform="translate(-143.372 -202.702)" fill="#414141"/>
    <path id="패스_2101" data-name="패스 2101" d="M270.993,408.973a2.083,2.083,0,1,1,2.082-2.083,2.084,2.084,0,0,1-2.082,2.083Zm0-3.022a.939.939,0,1,0,.939.939.941.941,0,0,0-.939-.939Zm0,0" transform="translate(-143.063 -112.999)" fill="#414141"/>
  </g>
</svg>
