<svg xmlns="http://www.w3.org/2000/svg" width="16" height="13" viewBox="0 0 16 13">
    <defs>
        <clipPath id="oi6ehlr7ga">
            <path data-name="사각형 1915" style="fill:#363636" d="M0 0h16v13H0z"/>
        </clipPath>
    </defs>
    <g data-name="그룹 2520">
        <g data-name="그룹 2519">
            <g data-name="그룹 2518" style="clip-path:url(#oi6ehlr7ga)">
                <path data-name="패스 2001" d="M799.121 422.991a.733.733 0 0 1-.733.733h-8.793a.733.733 0 0 1-.733-.733 4.4 4.4 0 0 1 4.4-4.4h1.466a4.4 4.4 0 0 1 4.4 4.4zM793.991 412a2.931 2.931 0 1 0 2.931 2.931 2.931 2.931 0 0 0-2.931-2.931zm-6.595 0a2.931 2.931 0 1 0 2.931 2.931A2.931 2.931 0 0 0 787.4 412zm0 10.991a5.818 5.818 0 0 1 1.722-4.14 3.98 3.98 0 0 0-1.4-.257h-.645a4.082 4.082 0 0 0-4.073 4.075v.322a.733.733 0 0 0 .733.733h3.8a2.2 2.2 0 0 1-.132-.733zm0 0" transform="translate(-783 -411.259)" style="fill:#363636"/>
            </g>
        </g>
    </g>
</svg>
