<svg xmlns="http://www.w3.org/2000/svg" width="36" height="36" viewBox="0 0 36 36">
    <path data-name="사각형 1499" style="fill:none" d="M0 0h36v36H0z"/>
    <g data-name="그룹 1875">
        <g data-name="그룹 1872">
            <path data-name="패스 1407" d="M718.62 2035.344a.5.5 0 0 0 .353-.854l-6.266-6.266 6.266-6.267a.5.5 0 0 0-.707-.707l-6.62 6.62a.5.5 0 0 0 0 .707l6.62 6.62a.5.5 0 0 0 .354.147z" transform="rotate(180 368.56 1023.172)" style="fill:#999"/>
        </g>
        <g data-name="그룹 1873">
            <path data-name="패스 1407" d="M718.62 2035.344a.5.5 0 0 0 .353-.854l-6.266-6.266 6.266-6.267a.5.5 0 0 0-.707-.707l-6.62 6.62a.5.5 0 0 0 0 .707l6.62 6.62a.5.5 0 0 0 .354.147z" transform="rotate(180 364.56 1023.172)" style="fill:#999"/>
        </g>
    </g>
</svg>
