<svg id="icon_audiobook" xmlns="http://www.w3.org/2000/svg" width="35" height="18" viewBox="0 0 35 18">
  <g id="iconAudiobook">
    <rect id="사각형_1215" data-name="사각형 1215" width="35" height="18" rx="9" fill="#f2279c" opacity="0.764"/>
    <g id="그룹_2572" data-name="그룹 2572" transform="translate(11.419 3.027)">
      <path id="패스_2062" data-name="패스 2062" d="M116.872,195.172v-1.018a5.287,5.287,0,0,0-1.509-3.722,5.076,5.076,0,0,0-7.287,0,5.288,5.288,0,0,0-1.509,3.722v1.018a1,1,0,0,0-.929,1v1.577a1,1,0,0,0,.985,1.006h.57a1.131,1.131,0,0,0,2.261-.08v-3.429a1.146,1.146,0,0,0-1.132-1.157,1.1,1.1,0,0,0-.33.05,3.728,3.728,0,1,1,7.454,0,1.1,1.1,0,0,0-.33-.05,1.146,1.146,0,0,0-1.132,1.157v3.429a1.132,1.132,0,0,0,2.261.08h.57a1,1,0,0,0,.985-1.006v-1.577a1,1,0,0,0-.929-1Zm0,0" transform="translate(-105.638 -188.89)" fill="#fff"/>
    </g>
  </g>
</svg>
