<svg xmlns="http://www.w3.org/2000/svg" width="160" height="30" viewBox="0 0 160 30">
    <path data-name="사각형 1630" style="fill:none" d="M0 0h160v30H0z"/>
    <g data-name="그룹 1734">
        <g data-name="그룹 1731">
            <path data-name="패스 1289" d="M59.846 40.518a10.179 10.179 0 1 1 10.18-10.179 10.192 10.192 0 0 1-10.18 10.179zm0-16.216a6.036 6.036 0 1 0 6.041 6.037 6.044 6.044 0 0 0-6.041-6.039z" transform="translate(-16.236 -12.708)" style="fill:#26c6da"/>
        </g>
        <g data-name="그룹 1732">
            <path data-name="패스 1290" d="M103.456 40.52a10.178 10.178 0 1 1 10.179-10.178 10.192 10.192 0 0 1-10.179 10.178zm0-16.215a6.036 6.036 0 1 0 6.04 6.037 6.044 6.044 0 0 0-6.04-6.042z" transform="translate(-37.65 -12.71)" style="fill:#26c6da"/>
        </g>
        <g data-name="그룹 1733">
            <path data-name="패스 1291" d="M219.934 40.521h-4.142V30.344a10.189 10.189 0 0 1 10.179-10.177v4.141a6.042 6.042 0 0 0-6.037 6.036z" transform="translate(-97.811 -12.712)" style="fill:#26c6da"/>
        </g>
        <path data-name="패스 1292" d="M258.372 34.7c0-.039.006 0 .006 0h-.011a6.075 6.075 0 0 0-6.085-6.082l-6.136-.048a2.025 2.025 0 0 1 0-4.049h6.864a2.014 2.014 0 0 1 1.621.921l3.39-2.318a6.075 6.075 0 0 0-5.012-2.674h-6.864a6.455 6.455 0 0 0-6.074 6.107h-.011l.006.254c.001.039-.006-.254-.006.254h.012a6.118 6.118 0 0 0 6.081 5.728l6.139-.129a2.037 2.037 0 0 1 0 4.072h-6.864a2.13 2.13 0 0 1-1.623-1.019l-3.388 2.369a6.122 6.122 0 0 0 5.011 2.722h6.864a6.1 6.1 0 0 0 6.073-6.107h.012s-.004.037-.005-.001z" transform="translate(-109.729 -12.85)" style="fill:#26c6da"/>
        <path data-name="패스 1293" d="M15.659 14.787a9.991 9.991 0 0 0-6.2 2.055V9.449h-3.85l-.015 16.213a10.312 10.312 0 0 0 10.153 9.575 10.225 10.225 0 0 0-.088-20.45zM15.747 31a6.036 6.036 0 1 1 6.039-6.035A6.043 6.043 0 0 1 15.747 31z" transform="translate(5.406 -7.449)" style="fill:#26c6da"/>
        <path data-name="패스 1294" d="M191.617 30.113a10.176 10.176 0 1 0-2.314 6.464l-3.2-2.631a6.037 6.037 0 0 1-10.393-1.929l15.7-.008a12.018 12.018 0 0 0 .207-1.896zm-10.176-5.645a5.666 5.666 0 0 1 5.63 3.871h-11.262a5.666 5.666 0 0 1 5.632-3.871z" transform="translate(-75.944 -12.597)" style="fill:#26c6da"/>
        <path data-name="패스 1295" d="M155.121 16.556h-4.927l-7.927 10.351V10.449H138.2V35.9h4.072v-2.3l3.921-5.2 4.172 7.5h4.453l-5.985-10.952z" transform="translate(-59.708 -7.94)" style="fill:#26c6da"/>
    </g>
</svg>
