<svg xmlns="http://www.w3.org/2000/svg" width="28" height="28" viewBox="0 0 28 28">
    <defs>
        <linearGradient id="rujfjdbqma" x1=".655" y1=".038" x2=".464" y2=".63" gradientUnits="objectBoundingBox">
            <stop offset="0" stop-color="#617aba"/>
            <stop offset=".119" stop-color="#4c6db1"/>
            <stop offset=".306" stop-color="#315da7"/>
            <stop offset=".473" stop-color="#2054a1"/>
            <stop offset=".6" stop-color="#1b519f"/>
        </linearGradient>
        <linearGradient id="3uyw39ewbb" x1=".138" y1=".132" x2=".748" y2=".904" gradientUnits="objectBoundingBox">
            <stop offset="0" stop-color="#e680af"/>
            <stop offset=".061" stop-color="#e36ba4"/>
            <stop offset=".191" stop-color="#de4691"/>
            <stop offset=".312" stop-color="#db2b84"/>
            <stop offset=".419" stop-color="#d91a7b"/>
            <stop offset=".5" stop-color="#d91579"/>
        </linearGradient>
        <linearGradient id="cruovvmccc" x1=".926" y1=".241" x2=".194" y2=".608" gradientUnits="objectBoundingBox">
            <stop offset="0" stop-color="#617aba"/>
            <stop offset=".069" stop-color="#4c6db1"/>
            <stop offset=".179" stop-color="#315da7"/>
            <stop offset=".276" stop-color="#2054a1"/>
            <stop offset=".35" stop-color="#1b519f"/>
        </linearGradient>
        <linearGradient id="x6mocve8gd" x1=".136" y1="-.264" x2=".697" y2=".686" gradientUnits="objectBoundingBox">
            <stop offset="0" stop-color="#ffd078"/>
            <stop offset=".092" stop-color="#fec356"/>
            <stop offset=".212" stop-color="#fdb631"/>
            <stop offset=".325" stop-color="#fcac16"/>
            <stop offset=".424" stop-color="#fca605"/>
            <stop offset=".5" stop-color="#fca400"/>
        </linearGradient>
    </defs>
    <path data-name="사각형 1581" style="fill:none" d="M0 0h28v28H0z"/>
    <g data-name="그룹 1792">
        <g data-name="그룹 1790">
            <g data-name="그룹 1789">
                <g data-name="그룹 1782">
                    <g data-name="그룹 1781">
                        <g data-name="그룹 1776">
                            <g data-name="그룹 1775">
                                <g data-name="그룹 1774">
                                    <g data-name="그룹 1773">
                                        <path data-name="패스 1346" d="M419.465 457.839v5.124h-.865v-5.124z" transform="translate(-409.192 -438.899)" style="fill:#1b519f"/>
                                    </g>
                                </g>
                            </g>
                        </g>
                        <g data-name="그룹 1780">
                            <g data-name="그룹 1779">
                                <g data-name="그룹 1778">
                                    <g data-name="그룹 1777">
                                        <path data-name="패스 1347" d="M429.99 459.452v3.511h-.868v-3.511z" transform="translate(-409.192 -438.899)" style="fill:#1b519f"/>
                                    </g>
                                </g>
                            </g>
                        </g>
                    </g>
                </g>
                <path data-name="패스 1348" d="M415.858 459.281a4.641 4.641 0 0 0-1.343.267c.005.026.275.61.28.647a2.992 2.992 0 0 1 1.172-.236c.821 0 .84.344.84.79a2.212 2.212 0 0 0-.992-.188c-.813 0-1.592.384-1.592 1.2a1.385 1.385 0 0 0 1.54 1.325h.243c.74 0 1.646-.336 1.646-1.286v-.954c-.001-.616-.092-1.565-1.794-1.565zm.948 2.543c0 .42-.439.592-.9.592h-.082c-.516 0-.784-.291-.735-.657.044-.339.323-.519.826-.519a2.088 2.088 0 0 1 .887.18z" transform="translate(-409.192 -438.899)" style="fill:#1b519f"/>
                <path data-name="패스 1349" d="M421.91 459.281a4.645 4.645 0 0 0-1.344.267c.005.026.275.61.281.647a2.979 2.979 0 0 1 1.171-.236c.821 0 .841.344.841.79a2.222 2.222 0 0 0-.992-.188c-.813 0-1.594.384-1.594 1.2a1.386 1.386 0 0 0 1.541 1.325h.244c.738 0 1.646-.336 1.646-1.286v-.954c-.004-.616-.093-1.565-1.794-1.565zm.949 2.543c0 .42-.439.592-.9.592h-.082c-.516 0-.782-.291-.735-.657.044-.339.324-.519.829-.519a2.092 2.092 0 0 1 .886.18z" transform="translate(-409.192 -438.899)" style="fill:#1b519f"/>
                <g data-name="그룹 1785">
                    <g data-name="그룹 1784">
                        <g data-name="그룹 1783">
                            <path data-name="패스 1350" d="M429.035 458.414a.525.525 0 1 1 .525.527.528.528 0 0 1-.525-.527z" transform="translate(-409.192 -438.899)" style="fill:#1b519f"/>
                        </g>
                    </g>
                </g>
                <path data-name="패스 1351" d="M428.073 457.839v3.556a1.6 1.6 0 0 1-1.726 1.705h-.078a1.627 1.627 0 0 1-1.685-1.716v-.422a1.57 1.57 0 0 1 1.544-1.67 1.352 1.352 0 0 1 1.081.35v-1.8zm-2.627 3.056v.5c0 .629.325 1.029.882 1.029.471 0 .851-.293.882-.972v-.409c-.031-.685-.285-1.076-.882-1.076-.469-.003-.851.25-.882.928z" transform="translate(-409.192 -438.899)" style="fill:#1b519f"/>
                <g data-name="그룹 1788">
                    <g data-name="그룹 1787">
                        <g data-name="그룹 1786">
                            <path data-name="패스 1352" d="M431.045 459.9a3.011 3.011 0 0 1 1.706-.622c1.086 0 1.659.468 1.659 1.5v2.186h-.829v-2.1c0-.591-.217-.9-.837-.9a1.6 1.6 0 0 0-.87.332v2.663h-.829z" transform="translate(-409.192 -438.899)" style="fill:#1b519f"/>
                        </g>
                    </g>
                </g>
            </g>
        </g>
        <g data-name="그룹 1791">
            <path data-name="패스 1353" d="M409.192 448.392a15.171 15.171 0 0 1 8.859 1.748 19.217 19.217 0 0 0-1.534-2.552c-1.917-.305-6.217-1.125-7.325.804z" transform="translate(-409.192 -439.139)" style="fill:#fca400"/>
            <path data-name="패스 1354" d="m424.943 454.673-.111-.349-.091-.266c-.036-.105-.071-.21-.109-.315-.03-.086-.061-.17-.093-.256-.048-.132-.1-.264-.146-.395-.017-.041-.035-.081-.051-.122a4.005 4.005 0 0 1-.889-.161 9.344 9.344 0 0 1-2.221-1.14l-.458-.284a32.19 32.19 0 0 0-2.608-1.474c-.1-.052-.209-.1-.313-.15.066.126.134.251.2.379a32.743 32.743 0 0 1 2.589 1.462 16.937 16.937 0 0 0 2.261 1.281 6.888 6.888 0 0 0-1.357 1.675.245.245 0 0 0-.05.135c0 .435 1.6.8 3.126.8.189 0 .379 0 .568-.016a34.132 34.132 0 0 0-.17-.579z" transform="translate(-409.192 -439.139)" style="fill:#1b519f"/>
            <path data-name="패스 1355" d="m420.912 447.761.224-.048-.022.006.14-.032c-.066-.073-.125-.149-.191-.219l-.2.041a8.5 8.5 0 0 1-3.555.173 6.7 6.7 0 0 1-.789-.094c.068.094.131.192.2.289a5.263 5.263 0 0 0 .566.06 8.821 8.821 0 0 0 3.627-.176z" transform="translate(-409.192 -439.139)" style="fill:#1b519f"/>
            <path data-name="패스 1356" d="M427.4 451.918a5.423 5.423 0 0 1-2.945 1.057c-.037 0-.073 0-.109-.005.014.041.03.082.047.122s.037.092.054.139c.033.086.063.172.094.256s.063.17.093.256c.038.1.073.21.109.315l.091.266.111.349.075.23c.059.194.115.386.17.579 1.331-.076 2.557-.408 2.557-.789a.236.236 0 0 0-.049-.135 6.832 6.832 0 0 0-1.421-1.733 12.844 12.844 0 0 0 1.259-.688c.206-.123.875-.482 1.614-.863l-.2-.185c-.709.368-1.341.704-1.55.829z" transform="translate(-409.192 -439.139)" style="fill:#d91579"/>
            <path data-name="패스 1357" d="m423.56 446.962.19-.068c-.093-.057-.182-.117-.276-.172a23.832 23.832 0 0 1-2.411.746c.066.07.126.146.191.219.477-.111 1.246-.354 2.306-.725z" transform="translate(-409.192 -439.139)" style="fill:#d91579"/>
            <path data-name="패스 1358" d="M434.891 443.577a2.892 2.892 0 0 0-3.624.431 2.261 2.261 0 0 0-.279 2.72 2.1 2.1 0 0 0 2.415.89 1.329 1.329 0 0 0 .786-2.027 1.031 1.031 0 0 0-1.345-.262.5.5 0 0 0-.2.625.4.4 0 0 0 .356.218.584.584 0 0 0 .21-.056c.364-.13.528.431.227.6a.7.7 0 0 1-.192.08 1.379 1.379 0 0 1-1.553-.547 1.439 1.439 0 0 1 .2-1.653 1.983 1.983 0 0 1 2.462-.191 2.046 2.046 0 0 1 .777 2.723c-.454 1.056-1.807 1.36-3.139 1.361a6.1 6.1 0 0 1-.694-.039c.147.094.291.193.435.289.089.005.176.009.259.009 1.781-.006 2.948-.528 3.374-1.518a2.293 2.293 0 0 0-.878-3.044 2.226 2.226 0 0 0-2.787.241 1.693 1.693 0 0 0-.23 1.961 1.645 1.645 0 0 0 1.836.656.982.982 0 0 0 .253-.107.559.559 0 0 0 .285-.5.664.664 0 0 0-.058-.27.519.519 0 0 0-.668-.287l-.05.016a.278.278 0 0 1-.074.025.144.144 0 0 1-.129-.082c-.064-.122.05-.247.119-.3a.781.781 0 0 1 .993.211.921.921 0 0 1 .132.875 1.162 1.162 0 0 1-.781.748 1.852 1.852 0 0 1-2.134-.781 2.021 2.021 0 0 1 .255-2.413 2.657 2.657 0 0 1 3.311-.375 2.855 2.855 0 0 1 1.144 3.675 3.025 3.025 0 0 1-1.587 1.53 10.421 10.421 0 0 1-1.312.412l-.175.046-.034.009c.089.064.182.126.272.193a10.285 10.285 0 0 0 1.346-.424 3.29 3.29 0 0 0 1.724-1.665 3.123 3.123 0 0 0-1.248-4.003z" transform="translate(-409.192 -439.139)" style="fill:#1b519f"/>
            <path data-name="패스 1359" d="M432.538 449.544a9.584 9.584 0 0 0-1.29.417c-.561.235-1.737.839-2.218 1.088-.026.012-.053.027-.079.04l.2.185c.831-.428 1.75-.889 2.2-1.078a12.329 12.329 0 0 1 1.73-.529c-.09-.067-.183-.129-.272-.193-.093.026-.182.046-.271.07z" transform="translate(-409.192 -439.139)" style="fill:#fca400"/>
            <path data-name="패스 1360" d="M424.549 446.606a29.559 29.559 0 0 0 6.73 2.094c.107.013.211.021.312.028.051 0 .1.005.15.008-.144-.1-.288-.2-.435-.289a29.357 29.357 0 0 1-6.75-2.115c-.277.1-.662.241-1.082.39.094.055.183.115.276.172z" transform="translate(-409.192 -439.139)" style="fill:#fca400"/>
            <path data-name="패스 1361" d="m420.774 451.385.458.284a9.344 9.344 0 0 0 2.221 1.14 4.005 4.005 0 0 0 .889.161c-.035-.092-.073-.183-.11-.275a14.434 14.434 0 0 0-.321-.747 19.702 19.702 0 0 0-.233-.509c-.038-.081-.079-.158-.118-.238-.079-.159-.158-.318-.241-.474-.046-.089-.1-.176-.144-.265a16.432 16.432 0 0 0-.242-.431c-.058-.1-.121-.2-.181-.3-.077-.127-.155-.255-.237-.38s-.151-.224-.227-.335-.146-.216-.223-.321c-.1-.134-.2-.262-.3-.393-.062-.078-.12-.159-.184-.236-.107-.131-.219-.257-.33-.382l-.14.032.022-.006-.224.048a8.821 8.821 0 0 1-3.632.176 5.263 5.263 0 0 1-.566-.06 19.01 19.01 0 0 1 1.139 1.884l.313.15a32.642 32.642 0 0 1 2.611 1.477z" transform="translate(-409.192 -439.139)" style="fill:url(#rujfjdbqma)"/>
            <path data-name="패스 1362" d="M423.56 446.962c-1.057.371-1.829.614-2.306.725.111.125.224.251.33.382.064.077.122.158.184.236.1.131.2.259.3.393.077.105.149.214.223.321s.154.221.227.335.16.253.237.38c.06.1.123.2.181.3.083.142.163.286.242.431.048.089.1.176.144.265.083.156.162.315.241.474.039.08.08.157.118.238.08.167.157.338.233.509.032.072.065.144.1.217.078.176.15.352.221.53l.058.139.053.136c.036 0 .072.005.109.005a5.423 5.423 0 0 0 2.945-1.057 44.52 44.52 0 0 1 1.551-.829 32.617 32.617 0 0 0-5.2-4.195z" transform="translate(-409.192 -439.139)" style="fill:url(#3uyw39ewbb)"/>
            <path data-name="패스 1363" d="m432.839 449.465.175-.046a10.421 10.421 0 0 0 1.312-.412 3.025 3.025 0 0 0 1.587-1.53 2.855 2.855 0 0 0-1.144-3.675 2.657 2.657 0 0 0-3.311.375 2.021 2.021 0 0 0-.255 2.413 1.852 1.852 0 0 0 2.134.781 1.162 1.162 0 0 0 .781-.748.921.921 0 0 0-.132-.875.781.781 0 0 0-.993-.211c-.069.051-.183.176-.119.3a.144.144 0 0 0 .129.082.278.278 0 0 0 .074-.025l.05-.016a.519.519 0 0 1 .668.287.664.664 0 0 1 .058.27.559.559 0 0 1-.285.5.982.982 0 0 1-.253.107 1.645 1.645 0 0 1-1.836-.656 1.693 1.693 0 0 1 .23-1.961 2.226 2.226 0 0 1 2.787-.241 2.293 2.293 0 0 1 .878 3.044c-.426.99-1.593 1.512-3.374 1.518-.083 0-.17 0-.259-.009q.537.359 1.064.738z" transform="translate(-409.192 -439.139)" style="fill:url(#cruovvmccc)"/>
            <path data-name="패스 1364" d="M432.538 449.544c.089-.024.178-.048.267-.07q-.526-.379-1.064-.738c-.049 0-.1 0-.15-.008q.469.412.947.816z" transform="translate(-409.192 -439.139)" style="fill:#fca400"/>
            <path data-name="패스 1365" d="M431.741 448.736c-.049 0-.1 0-.15-.008a6.113 6.113 0 0 1-.312-.028 29.559 29.559 0 0 1-6.73-2.094l-.8.288a32.617 32.617 0 0 1 5.2 4.195c.026-.013.053-.028.079-.04.481-.249 1.657-.853 2.218-1.088a9.584 9.584 0 0 1 1.29-.417c.089-.024.178-.048.267-.07q-.524-.379-1.062-.738z" transform="translate(-409.192 -439.139)" style="fill:url(#x6mocve8gd)"/>
            <path data-name="패스 1366" d="M424.556 444.258a.651.651 0 0 0-.652.651.861.861 0 1 0 1.3 0 .653.653 0 0 0-.648-.651z" transform="translate(-409.192 -439.139)" style="fill:#fca400"/>
        </g>
    </g>
</svg>
