<svg xmlns="http://www.w3.org/2000/svg" width="108" height="20" viewBox="0 0 108 20">
    <g style="opacity:.431">
        <path data-name="사각형 1630" style="fill:none" d="M0 0h108v20H0z"/>
        <g data-name="그룹 1734">
            <g data-name="그룹 1731">
                <path data-name="패스 1289" d="M56.479 33.785a6.813 6.813 0 1 1 6.813-6.813 6.821 6.821 0 0 1-6.813 6.813zm0-10.853a4.04 4.04 0 1 0 4.043 4.041 4.045 4.045 0 0 0-4.043-4.042z" transform="translate(-26.835 -15.212)" style="fill:#919296"/>
            </g>
            <g data-name="그룹 1732">
                <path data-name="패스 1290" d="M100.089 33.787a6.812 6.812 0 1 1 6.812-6.812 6.821 6.821 0 0 1-6.812 6.812zm0-10.852a4.04 4.04 0 1 0 4.042 4.04 4.045 4.045 0 0 0-4.042-4.04z" transform="translate(-55.589 -15.214)" style="fill:#919296"/>
            </g>
            <g data-name="그룹 1733">
                <path data-name="패스 1291" d="M218.564 33.79h-2.772v-6.811a6.819 6.819 0 0 1 6.813-6.812v2.772a4.044 4.044 0 0 0-4.041 4.04z" transform="translate(-136.372 -15.217)" style="fill:#919296"/>
            </g>
            <path data-name="패스 1292" d="M252.316 29.986c0-.026 0 0 0 0h-.007a4.066 4.066 0 0 0-4.072-4.071l-4.107-.032a1.356 1.356 0 0 1 0-2.71h4.594a1.348 1.348 0 0 1 1.085.616l2.269-1.552a4.066 4.066 0 0 0-3.354-1.79h-4.594a4.32 4.32 0 0 0-4.065 4.088h-.008v.34h.008a4.094 4.094 0 0 0 4.07 3.834l4.109-.087a1.363 1.363 0 0 1 0 2.725h-4.594a1.425 1.425 0 0 1-1.086-.682l-2.264 1.587a4.1 4.1 0 0 0 3.354 1.822h4.594a4.079 4.079 0 0 0 4.065-4.088h.008s-.004.026-.005 0z" transform="translate(-152.374 -15.402)" style="fill:#919296"/>
            <path data-name="패스 1293" d="M12.33 13.022A6.687 6.687 0 0 0 8.183 14.4V9.449H5.6L5.594 20.3a6.9 6.9 0 0 0 6.8 6.409 6.844 6.844 0 0 0-.059-13.687zm.059 10.852a4.04 4.04 0 1 1 4.042-4.039 4.045 4.045 0 0 1-4.042 4.039z" transform="translate(2.225 -8.15)" style="fill:#919296"/>
            <path data-name="패스 1294" d="M184.884 26.746a6.811 6.811 0 1 0-1.549 4.326l-2.135-1.761a4.041 4.041 0 0 1-6.956-1.291l10.511-.005a8.045 8.045 0 0 0 .129-1.269zm-6.811-3.778a3.792 3.792 0 0 1 3.768 2.591H174.3a3.792 3.792 0 0 1 3.773-2.591z" transform="translate(-107.009 -15.063)" style="fill:#919296"/>
            <path data-name="패스 1295" d="M149.523 14.537h-3.3l-5.306 6.927V10.449H138.2v17.032h2.725v-1.54l2.624-3.479 2.792 5.019h2.98l-4.006-7.33z" transform="translate(-85.208 -8.809)" style="fill:#919296"/>
        </g>
    </g>
</svg>
