<svg xmlns="http://www.w3.org/2000/svg" xmlns:xlink="http://www.w3.org/1999/xlink" width="15" height="14" viewBox="0 0 15 14">
  <defs>
    <clipPath id="clip-path">
      <rect id="사각형_2028" data-name="사각형 2028" width="15" height="14" transform="translate(-0.073)" fill="gray"/>
    </clipPath>
  </defs>
  <g id="그룹_2948" data-name="그룹 2948" transform="translate(0.073)">
    <g id="그룹_2554" data-name="그룹 2554" transform="translate(0 0)">
      <g id="그룹_2553" data-name="그룹 2553" clip-path="url(#clip-path)">
        <path id="패스_2044" data-name="패스 2044" d="M127.694,245.89a6.694,6.694,0,1,0,6.694,6.694,6.7,6.7,0,0,0-6.694-6.694Zm0,12.171a5.477,5.477,0,1,1,5.477-5.477,5.483,5.483,0,0,1-5.477,5.477Zm0,0" transform="translate(-120.156 -245.778)" fill="gray"/>
      </g>
    </g>
    <path id="패스_2045" data-name="패스 2045" d="M190.8,312.35l-.991-2.11a.608.608,0,0,0-1.1,0l-.991,2.11-2.2.337a.608.608,0,0,0-.343,1.026l1.611,1.651L186.4,317.7a.609.609,0,0,0,.895.631l1.962-1.085,1.962,1.085a.6.6,0,0,0,.294.076.609.609,0,0,0,.6-.707l-.382-2.339,1.611-1.651a.608.608,0,0,0-.343-1.026Zm-.152,2.384a.609.609,0,0,0-.165.523l.229,1.405-1.16-.641a.607.607,0,0,0-.588,0l-1.16.641.229-1.405a.609.609,0,0,0-.165-.523l-1-1.023,1.352-.207a.608.608,0,0,0,.459-.343l.578-1.23.578,1.23a.608.608,0,0,0,.459.343l1.352.207Zm0,0" transform="translate(-181.72 -307.344)" fill="gray"/>
  </g>
</svg>
