<svg id="그룹_10387" data-name="그룹 10387" xmlns="http://www.w3.org/2000/svg" xmlns:xlink="http://www.w3.org/1999/xlink" width="96.858" height="34.108" viewBox="0 0 96.858 34.108">
  <defs>
    <clipPath id="clip-path">
      <rect id="사각형_3070" data-name="사각형 3070" width="96.858" height="34.108" fill="none"/>
    </clipPath>
  </defs>
  <g id="그룹_10386" data-name="그룹 10386" clip-path="url(#clip-path)">
    <path id="패스_50851" data-name="패스 50851" d="M189.907,34.081a3.6,3.6,0,0,1,.658-.045c.658,0,1.105.2,1.105.733,0,.447-.394.764-1.168.764h-.595Zm-1.032,4.673a10.558,10.558,0,0,0,1.332.077,3.445,3.445,0,0,0,2.157-.5,1.422,1.422,0,0,0,.563-1.143,1.394,1.394,0,0,0-1.143-1.354v-.02a1.26,1.26,0,0,0,.94-1.168A1.157,1.157,0,0,0,192.1,33.6a2.981,2.981,0,0,0-1.647-.333,9.792,9.792,0,0,0-1.582.12Zm1.032-2.475h.577c.749,0,1.346.24,1.346.873,0,.69-.636.9-1.31.9a3.919,3.919,0,0,1-.613-.03Z" transform="translate(-131.466 -32.883)" fill="#3e62ad"/>
    <path id="패스_50852" data-name="패스 50852" d="M192.271,35.646A1.034,1.034,0,0,1,193.3,34.7a.892.892,0,0,1,.928.944Zm2.9.729a1.887,1.887,0,0,0,.039-.412,1.8,1.8,0,0,0-1.848-1.952,2.032,2.032,0,0,0-2.081,2.122,1.961,1.961,0,0,0,2.185,2.012,3.933,3.933,0,0,0,1.507-.272l-.158-.707a3.388,3.388,0,0,1-1.214.2c-.7,0-1.3-.337-1.328-.995Z" transform="translate(-129.131 -32.165)" fill="#3e62ad"/>
    <path id="패스_50853" data-name="패스 50853" d="M195.1,33.545v1.024h1.009v.78H195.1v1.635c0,.483.108.768.544.768a1.348,1.348,0,0,0,.427-.049l.022.786a2.332,2.332,0,0,1-.778.114,1.227,1.227,0,0,1-.91-.351,1.626,1.626,0,0,1-.317-1.119V35.35h-.593v-.78h.593v-.751Z" transform="translate(-126.985 -32.617)" fill="#3e62ad"/>
    <path id="패스_50854" data-name="패스 50854" d="M196.63,33.545v1.024h1.009v.78H196.63v1.635c0,.483.108.768.544.768a1.348,1.348,0,0,0,.428-.049l.02.786a2.318,2.318,0,0,1-.776.114,1.227,1.227,0,0,1-.91-.351,1.626,1.626,0,0,1-.319-1.119V35.35h-.591v-.78h.591v-.751Z" transform="translate(-125.5 -32.617)" fill="#3e62ad"/>
    <path id="패스_50855" data-name="패스 50855" d="M197.6,35.646a1.034,1.034,0,0,1,1.028-.944.892.892,0,0,1,.928.944Zm2.9.729a1.889,1.889,0,0,0,.039-.412,1.8,1.8,0,0,0-1.848-1.952,2.032,2.032,0,0,0-2.08,2.122,1.961,1.961,0,0,0,2.185,2.012,3.914,3.914,0,0,0,1.505-.272l-.154-.707a3.415,3.415,0,0,1-1.216.2c-.7,0-1.3-.337-1.328-.995Z" transform="translate(-123.964 -32.165)" fill="#3e62ad"/>
    <path id="패스_50856" data-name="패스 50856" d="M199.056,35.431c0-.581-.008-.961-.032-1.318h.9l.033.8h.03a1.257,1.257,0,0,1,1.17-.9.936.936,0,0,1,.252.026V35a1.694,1.694,0,0,0-.337-.033.917.917,0,0,0-.96.78,1.541,1.541,0,0,0-.024.274v2.029h-1.04Z" transform="translate(-121.619 -32.162)" fill="#3e62ad"/>
    <rect id="사각형_3069" data-name="사각형 3069" width="1.042" height="5.794" transform="translate(82.338 0.097)" fill="#3e62ad"/>
    <path id="패스_50857" data-name="패스 50857" d="M202.694,34.927h1.04v3.938h-1.04Zm.512-.611a.618.618,0,1,1,.008,0Z" transform="translate(-118.145 -32.977)" fill="#3e62ad"/>
    <path id="패스_50858" data-name="패스 50858" d="M204.083,38.964V35.806h-.54v-.78h.54v-.16a1.906,1.906,0,0,1,.51-1.4,1.6,1.6,0,0,1,1.084-.39,2.118,2.118,0,0,1,.654.1l-.057.8a1.286,1.286,0,0,0-.453-.075c-.526,0-.705.426-.705.928v.2h.914v.78h-.906v3.158Z" transform="translate(-117.235 -33.075)" fill="#3e62ad"/>
    <path id="패스_50859" data-name="패스 50859" d="M205.96,35.646a1.034,1.034,0,0,1,1.028-.944.892.892,0,0,1,.928.944Zm2.9.729a2.021,2.021,0,0,0,.039-.412,1.8,1.8,0,0,0-1.848-1.952,2.032,2.032,0,0,0-2.08,2.122,1.961,1.961,0,0,0,2.185,2.012,3.914,3.914,0,0,0,1.505-.272l-.156-.707a3.4,3.4,0,0,1-1.214.2c-.7,0-1.3-.337-1.328-.995Z" transform="translate(-115.85 -32.165)" fill="#3e62ad"/>
    <path id="패스_50860" data-name="패스 50860" d="M159.735,49.953s73.171-11.135,96.858,1.686l-1.131,1.348S238.1,41.667,160.72,55.157Z" transform="translate(-159.737 -21.049)" fill="#6fba2c"/>
    <path id="패스_50861" data-name="패스 50861" d="M190.424,39.9a6.856,6.856,0,0,1,.691,6.813,6.994,6.994,0,0,1-.713,1.273c-.2.227.211-.311.713-1.273a7,7,0,0,0,.432-1.669,5.686,5.686,0,0,1-.849,1.621,7.1,7.1,0,0,0,.353-2.226,4.316,4.316,0,0,0-1.424-3.552l-.01-.006a.927.927,0,0,0,.232-.268c.047-.124-.451-.5-.607-.861-.03-.1.183-.16.331-.272-.363-.227-.319-.351-.087-.449l-.175-.1c.045-.045.189-.175.191-.175-.934-.642-2.136-1.32-3.119-1.119a4.223,4.223,0,0,0-.794.207,1.533,1.533,0,0,1-.506-.051c-.165.169-.126.355-.183.532-.743-.179-2.522.093-2.207.688-.567.211-.534.544-1.019.877a7.832,7.832,0,0,0-1.844,1.962,9.614,9.614,0,0,0-.758,1.3l-.227.495a6.884,6.884,0,0,0-.146,5.233,5.349,5.349,0,0,0,4.259,2.9,8.193,8.193,0,0,0,5.249-1A8.761,8.761,0,0,0,191.4,47c1.287-2.855.581-5.9-.365-6.785-.207-.112-.412-.217-.611-.309m-3.19,6.714c-1.062,1.223-1.951.958-2.189.851l-.154.246c.39.674,1.759.065,2.423-.644a2.791,2.791,0,0,1-.443.426,4.224,4.224,0,0,0,1.034-.493,5.292,5.292,0,0,1-.333.522,3.19,3.19,0,0,1-2.681,1.458h-.006a1.189,1.189,0,0,0,.006-.355c-.022-.132-.331-.2-.437-.433-.022-.073.063-.229.1-.4-.156-.008-.138-.193-.061-.351l-.063-.03.061-.231c-.3-.282-.323-.705-.53-.6-.051,0-.167.106-.232.142-.037.02,0-.079.006-.093-.128.1-.264.232-.4.343.026-.264.325-.351-.3-.24.041-.14-.3-.089-.3-.333a3,3,0,0,1,.089-1.115,2.862,2.862,0,0,1,.236-.611,1.009,1.009,0,0,1,.118-.207c1.06-1.572,1.907-1.359,3.672-1.509.776-.142,1.155.433,1.176,1.4a3.562,3.562,0,0,1-.8,2.26m.252.248c.238-.244.349-.475.491-.627.1-.146-.059.227-.491.627" transform="translate(-141.78 -28.676)" fill="#ee7800"/>
    <path id="패스_50862" data-name="패스 50862" d="M179.551,39.682a3.67,3.67,0,0,0,1.332.024l.1-.171-.154-.424c-.615-1.091-1.314-2.327-2.553-2.614l-.169-.041-.016.173c-.006.079-.008.154-.008.229a4.674,4.674,0,0,0,.818,2.317s.089.27.648.508" transform="translate(-141.934 -29.794)" fill="#ee7800"/>
    <path id="패스_50863" data-name="패스 50863" d="M181.658,38.422s.039.028.057,0a.531.531,0,0,0,.122-.211l.089.089a1.854,1.854,0,0,0,1.641-1.568,1.772,1.772,0,0,0-1.724-1.637l-.122.051-.057.1a13.593,13.593,0,0,0-.138,2.242,2.951,2.951,0,0,0,.132.93" transform="translate(-138.604 -31.112)" fill="#ee7800"/>
    <path id="패스_50864" data-name="패스 50864" d="M186.719,36.487l-.1-.024-.093.032a5.107,5.107,0,0,0-1.612,2.774.282.282,0,0,0,.148.032c.071-.008.171-.053.183-.1a2.268,2.268,0,0,0,2.108-1.162,1.062,1.062,0,0,0,.065-.366,1.537,1.537,0,0,0-.7-1.186" transform="translate(-135.311 -29.786)" fill="#ee7800"/>
    <path id="패스_50865" data-name="패스 50865" d="M204.693,46.485a2.627,2.627,0,0,1-1.529,2.209,9.822,9.822,0,0,1-2.973,1.127,9.715,9.715,0,0,1-2,.317,4.15,4.15,0,0,1-1.285-.2q-.836-.26-.835-.737,0-.3,1.011-.65,1.747-.591,1.891-.664,1.011-.464,1.011-1.011t-1.458-1.417a22.7,22.7,0,0,1-2.715-1.775,3.546,3.546,0,0,1-1.458-2.7q0-2.858,3.94-2.859a17.2,17.2,0,0,1,2.959.418q2.861.579,2.861,1.373c0,.3-.366.495-1.1.591-.684.079-1.363.16-2.035.246-.733.136-1.1.39-1.1.766q0,.461,1.235,1.225a27.115,27.115,0,0,1,2.323,1.531,2.957,2.957,0,0,1,1.253,2.211" transform="translate(-126.154 -28.174)" fill="#231815"/>
    <path id="패스_50866" data-name="패스 50866" d="M184.293,34.088a.818.818,0,0,0-.6-.266q-.919.038-3.05,1.968-1.953,1.788-3.932,3.58-2.34,1.939-3.761,2-1.286.053-3.858-1.716l-4.4-3.3q-2.414-1.8-3.308-1.765-.736.033-.7,1.028.056,1.342,2.459,4.139,3.842,4.5,4.51,5.424a20.208,20.208,0,0,1,2.882,5.491q.485,1.534,1.147,4.246.358,1.723.719,3.446.863,3.124,1.915,3.079,1.655-.068,2.417-5.2.39-3.331.782-6.636a19.665,19.665,0,0,1,2.341-5.2q2.66-4.424,3.7-6.571.337-.751.713-1.872a5.6,5.6,0,0,0,.315-1.3.861.861,0,0,0-.3-.567" transform="translate(-158.814 -32.348)" fill="#231815"/>
    <path id="패스_50867" data-name="패스 50867" d="M168.32,38.928l-.012-.3c1.838-1.137,2.2-3.209-.173-4.21-2.715.869-3.213,5.2.185,4.51" transform="translate(-153.723 -31.77)" fill="#231815"/>
    <path id="패스_50868" data-name="패스 50868" d="M209.48,47.281c-1.677-.065-2.055,1.549-3.615,2.25-2.126.954-3.469.211-4.565-1.318-1.393-1.939-1.283-9.22.952-9.618,3.452-.615.433,8.107,4.673,6.3,2.737-1.166,1.939-6.833,4.969-6.748,2.358.065,1.882,6.439,1.763,8.777-.093,1.836.134,2.591-1.767,2.741-1.365.108-1.446-.855-1.909-1.787,0,0-.225-.583-.5-.595" transform="translate(-120.298 -28.154)" fill="#231815"/>
    <path id="패스_50869" data-name="패스 50869" d="M177.005,47.984A1.13,1.13,0,0,1,176,47.251a7.532,7.532,0,0,0,5.093-2.626c1.31-1.681,1.889-5.554-.889-6.374l-.372-.167c-2.932.008-6.058,1.024-7.694,3.334a4.849,4.849,0,0,0-.94,2.874,6.489,6.489,0,0,0,3.544,6.1c1.931.762,8.623.579,8.464-3.814-1.718-.116-1.767,2.128-6.2,1.407m2.153-6.655.169.1c.282,1.107-1.781,3.452-3.123,2.266-1.464-1.29,1.807-2.817,2.953-2.364" transform="translate(-148.662 -28.213)" fill="#231815"/>
    <path id="패스_50870" data-name="패스 50870" d="M199.492,40.155a3.839,3.839,0,0,0-1.643-1.558l0-.01a5.09,5.09,0,0,0-3.708-.231,6,6,0,0,0-1.785.942,5.788,5.788,0,0,0-1.117,1.245c-.031-.142-.061-.28-.085-.408l0-.006v0c-.189-1.007-.248-1.606-1.844-1.759-1.779-.169-2.313.686-2.579,2.534-.337,2.352.189,8.913,2.374,9.207a1.69,1.69,0,0,0,1.785-1.086l0,0c.016-.024.03-.053.045-.081.039-.077.079-.158.116-.24a8.511,8.511,0,0,0,.451-2.017,11.073,11.073,0,0,1,.406-2.577l-.008-.059a2.652,2.652,0,0,1,1.08-1.389c1.816-1.056,2.983.646,3.146,2.368.333,1.844-.1,5.2,1.974,4.916,2.181-.294,2.786-7.489,1.391-9.79" transform="translate(-133.635 -28.184)" fill="#231815"/>
  </g>
</svg>
