<svg id="그룹_10375" data-name="그룹 10375" xmlns="http://www.w3.org/2000/svg" xmlns:xlink="http://www.w3.org/1999/xlink" width="123.84" height="14.873" viewBox="0 0 123.84 14.873">
  <defs>
    <clipPath id="clip-path">
      <rect id="사각형_3055" data-name="사각형 3055" width="123.84" height="14.873" fill="none"/>
    </clipPath>
  </defs>
  <g id="그룹_10374" data-name="그룹 10374" clip-path="url(#clip-path)">
    <path id="패스_50744" data-name="패스 50744" d="M238.912,7.058c-3.184.465-5.907,2.228-6.632,5.221-.016.148-.081.536.225.684.175.083.489-.006.883-.331,1.344-1.115,1.249-.363,1.249,1.334s-.313,1.85-1.2,1.235c-.384-.268-.755-.577-1-.544-.2.026-.264.339-.209.66a7.157,7.157,0,0,0,6.679,5.4c4.3.38,6.831-3.058,6.831-6.829s-2.136-7.516-6.831-6.833m-.327,9.033a2.206,2.206,0,0,1-2.2-2.2,2.455,2.455,0,0,1,2.27-2.309,2.009,2.009,0,0,1,2.415,2.226,2.334,2.334,0,0,1-2.482,2.283" transform="translate(-219.733 -6.374)" fill="#005cb9"/>
    <path id="패스_50745" data-name="패스 50745" d="M251.824,7.878c0-1.028-4.579-1.174-6.85-.627s-3.178,1.616-3.4,3.31c-.1.759-.219,1.714-.219,1.714-.219.579-1.838.471-1.838,1.476,0,.766,1.619.749,1.838,1.448,0,0,.1.794.219,2.043.164,1.657.894,2.676,2.934,3.148,2.264.528,6.506.451,6.506-.266,0-1.308-6.3-2.977-6.537-4.618-.093-.684.408-1.062,1.387-1.062,1.182,0,3.422,2.3,4.189-.77.867-3.454-3.158-.4-4.189-.4-.8,0-1.346-.361-1.346-.969,0-1.645,7.307-2.938,7.307-4.423" transform="translate(-212.649 -6.412)" fill="#005cb9"/>
    <path id="패스_50746" data-name="패스 50746" d="M260.242,9.909v.473c0,1.574-.688,2.532-1.513,2.532s-1.111-.751-1.078-1.606-.034-1.505-.694-1.505c-.788,0-1.328.812-2.2,1.848a3.735,3.735,0,0,1-2.108,1.5c-.562,0-.827-.477-.827-1.539s-.1-1.472-.69-1.472-1.153.569-1.844,1.462-1.121,1.537-1.846,1.537a1.534,1.534,0,0,1-1.464-.993,18.141,18.141,0,0,0-.126,3.5c.071,1.093.378,1.8,1.1,1.8s1.153-.65,1.844-1.541,1.253-1.46,1.846-1.46.689.41.689,1.472.266,1.541.827,1.541a3.738,3.738,0,0,0,2.108-1.509c.875-1.034,1.417-1.846,2.2-1.846.66,0,.725.65.693,1.505s0,1.608.824,1.608,1.742-1.287,2-2.839a29.7,29.7,0,0,0,.258-4.464" transform="translate(-206.539 -3.632)" fill="#002f87"/>
    <path id="패스_50747" data-name="패스 50747" d="M247.359,15.743c.725,0,1.153-.65,1.846-1.539s1.251-1.462,1.844-1.462.69.412.69,1.472.266,1.539.827,1.539a3.725,3.725,0,0,0,2.108-1.505c.877-1.034,1.417-1.846,2.207-1.846.658,0,.723.65.692,1.505s.254,1.606,1.078,1.606,1.513-.956,1.513-2.53V12.51c-.006-.871-.041-1.675-.106-2.264-.122-1.123-.207-2.871-1.736-3.1-2.423-.359-3.806,3.227-5.731,3.312-1.373.061-.977-2.443-2.776-2.242a3.433,3.433,0,0,0-2.354,1.842,12.038,12.038,0,0,0-1.564,4.689,1.534,1.534,0,0,0,1.464.993" transform="translate(-206.46 -6.231)" fill="#005cb9"/>
    <path id="패스_50748" data-name="패스 50748" d="M237.676,18.57a1.831,1.831,0,0,0-.894-1.316l-1.1-.634c-1.168-.634-2.938-1.6-2.938-2.394,0-1.091,1.584-2.447,3.152-3.306a2.616,2.616,0,0,0,1.56-1.887c0-.037,0-.081,0-.12a1.749,1.749,0,0,0-.784-1.379,2.754,2.754,0,0,0-2.212-.408A2.465,2.465,0,0,0,232.7,8.51a10.24,10.24,0,0,1-3.087,4.25,7.021,7.021,0,0,1,.711-2.5,7.137,7.137,0,0,0,.428-1.172,3.751,3.751,0,0,0,.091-.764,1.307,1.307,0,0,0-.319-.944,2.457,2.457,0,0,0-1.86-.512c-1.458,0-2.786,1.062-2.786,2.23L226,11.948l.1,2.281-.1,5.077c0,1.267,1.464,1.415,2.569,1.415,1.194,0,1.99-.5,2.185-1.383a1.3,1.3,0,0,0,.028-.276,4.341,4.341,0,0,0-.388-1.44,7.922,7.922,0,0,1-.494-1.669l0-.077a2.039,2.039,0,0,1,.311.106,6.425,6.425,0,0,1,2.888,2.681,3.225,3.225,0,0,0,2.242,1.738,2.091,2.091,0,0,0,1.683-.5,1.715,1.715,0,0,0,.666-1.249.641.641,0,0,0,0-.087" transform="translate(-225.879 -6.479)" fill="#005cb9"/>
    <path id="패스_50749" data-name="패스 50749" d="M230.638,9.962a.669.669,0,1,0,.668.668.668.668,0,0,0-.668-.668" transform="translate(-221.91 -3.478)" fill="#005cb9"/>
    <path id="패스_50750" data-name="패스 50750" d="M294.684,14.124a2.809,2.809,0,0,0-2.033.822,2.739,2.739,0,0,0,0,3.938,2.926,2.926,0,0,0,4.074,0,2.734,2.734,0,0,0,0-3.938,2.818,2.818,0,0,0-2.041-.822m.863,3.844a1.114,1.114,0,0,1-.863.4,1.077,1.077,0,0,1-.845-.4,1.722,1.722,0,0,1,0-2.1,1.077,1.077,0,0,1,.845-.4,1.114,1.114,0,0,1,.863.4,1.694,1.694,0,0,1,0,2.1m8.781-3.621a2.716,2.716,0,0,0-1.982.814,2.684,2.684,0,0,0,0,3.858,2.87,2.87,0,0,0,3.98,0,2.688,2.688,0,0,0,0-3.858,2.738,2.738,0,0,0-2-.814m.824,3.722a1.061,1.061,0,0,1-.824.386,1.046,1.046,0,0,1-.8-.388,1.391,1.391,0,0,1-.362-.977,1.411,1.411,0,0,1,.362-.975,1.048,1.048,0,0,1,.8-.39,1.067,1.067,0,0,1,.824.386,1.529,1.529,0,0,1,0,1.958M264.274,7.943h-.323a.607.607,0,0,0-.595.55c0,.207,0,.435,0,.694v2.6h-.632l0-3.233a.621.621,0,0,0-.619-.615h-.305a.614.614,0,0,0-.607.615v1.489h-2.153V8.9a.61.61,0,0,0-.587-.585h-.516a.607.607,0,0,0-.585.585v1.147h-1.732a.484.484,0,0,0-.463.465v.41a.484.484,0,0,0,.463.465h.433a2.825,2.825,0,0,0-.26.544,2.839,2.839,0,0,0,.6,2.739,2.412,2.412,0,0,0,3.6,0,2.716,2.716,0,0,0,.731-1.9,2.911,2.911,0,0,0-.118-.835,2.488,2.488,0,0,0-.26-.546h.847v8.424a.619.619,0,0,0,.607.617h.305a.627.627,0,0,0,.619-.617l0-1.476V13.146h.632v6.035c0,.258,0,.489,0,.7a.614.614,0,0,0,.595.552h.323a.616.616,0,0,0,.6-.577V8.52a.612.612,0,0,0-.6-.577m-5.452,5.822a.677.677,0,0,1-1.212-.012,1.741,1.741,0,0,1-.276-.985,1.665,1.665,0,0,1,.276-.971.742.742,0,0,1,.621-.374.729.729,0,0,1,.591.38,1.733,1.733,0,0,1,.276.989,1.7,1.7,0,0,1-.276.973M297.57,7.943h-.437a.614.614,0,0,0-.6.579V9.74h-.528v.053L296,9.74h-.81a.482.482,0,0,0-.459.471v.343a.486.486,0,0,0,.459.475h1.348v.826h-.528v.057l-.01-.055h-.81a.487.487,0,0,0-.459.473v.341a.486.486,0,0,0,.459.477h1.348v1.076a.612.612,0,0,0,.6.579h.437a.611.611,0,0,0,.6-.579v-5.7a.612.612,0,0,0-.6-.579m-25.809,6.18a2.8,2.8,0,0,0-2.027.822,2.734,2.734,0,0,0,0,3.938,2.909,2.909,0,0,0,4.061,0,2.734,2.734,0,0,0,0-3.938,2.8,2.8,0,0,0-2.033-.822m.859,3.844a1.113,1.113,0,0,1-1.712,0,1.708,1.708,0,0,1,0-2.1,1.113,1.113,0,0,1,1.712,0,1.708,1.708,0,0,1,0,2.1m-1.5-4.791a2.894,2.894,0,0,0-2.069-4.937,2.9,2.9,0,0,0-2.894,2.892,2.9,2.9,0,0,0,2.894,2.894,2.826,2.826,0,0,0,2.069-.849m-2.928-.94a1.778,1.778,0,0,1,0-2.213,1.09,1.09,0,0,1,.859-.443,1.107,1.107,0,0,1,.879.443,1.65,1.65,0,0,1,.382,1.107,1.671,1.671,0,0,1-.384,1.105,1.06,1.06,0,0,1-1.736,0M286.364,18.1h-4.949c-.032-.01-.045-.067-.045-.067V16.622a.615.615,0,0,0-.613-.615h-.437a.615.615,0,0,0-.611.615v1.706a1.162,1.162,0,0,0,.258.837,1.056,1.056,0,0,0,.8.284h5.6a.5.5,0,0,0,.479-.5V18.6a.5.5,0,0,0-.479-.5M276.117,9.37h-1.038V8.554a.591.591,0,0,0-.579-.609l-.441,0a.616.616,0,0,0-.617.6v5.609a.619.619,0,0,0,.617.6l.441-.008a.589.589,0,0,0,.579-.607V12.774h1.038a.462.462,0,0,0,.447-.449v-.388a.462.462,0,0,0-.447-.449h-.479v0h-.56v-.827h1.038a.463.463,0,0,0,.447-.449V9.817a.462.462,0,0,0-.447-.447m11.622,1.545h-1.03V8.522a.608.608,0,0,0-.6-.579h-.431a.611.611,0,0,0-.6.579v5.41a1.843,1.843,0,0,1-.516.207,4.525,4.525,0,0,1-.932.081h-1.612v-.453a2.4,2.4,0,0,0,1.1-.774,2.251,2.251,0,0,0,.368-2.049s-.11-.236-.2-.41h.652a.486.486,0,0,0,.459-.477V9.718a.48.48,0,0,0-.459-.475h-.248v0h-1.673V8.42a.612.612,0,0,0-.6-.6h-.487a.612.612,0,0,0-.6.6v.822H278.3v0h-.11a.48.48,0,0,0-.457.475v.339a.486.486,0,0,0,.457.477h.847c-.081.171-.189.41-.189.41a2.052,2.052,0,0,0-.108.672,2.138,2.138,0,0,0,.457,1.355,2.4,2.4,0,0,0,1.07.782v.467H277.87a.5.5,0,0,0-.471.493v.357a.494.494,0,0,0,.471.493h5.3l1.263-.057a2.121,2.121,0,0,0,.642-.207v.93a.614.614,0,0,0,.6.579h.431a.611.611,0,0,0,.6-.579V12.266h1.03a.492.492,0,0,0,.471-.469v-.412a.491.491,0,0,0-.471-.471m-6.005,1.458a.669.669,0,0,1-.573.288.683.683,0,0,1-.575-.3,1.225,1.225,0,0,1-.236-.745,1.279,1.279,0,0,1,.236-.753.682.682,0,0,1,.575-.3.664.664,0,0,1,.573.305,1.4,1.4,0,0,1,.227.774,1.222,1.222,0,0,1-.227.733m39.106-1.395h-1.013V8.55a.614.614,0,0,0-.6-.607h-.433a.614.614,0,0,0-.6.607v4.169a2.173,2.173,0,0,1-.548.244,3.72,3.72,0,0,1-.995.108h-3.9l-.071-.03-.026-.1V10.175H316a.508.508,0,0,0,.479-.5V9.318a.5.5,0,0,0-.479-.5h-4.372a.615.615,0,0,0-.613.615v3.332a1.782,1.782,0,0,0,.374,1.239,1.467,1.467,0,0,0,1.131.414h3.666a7.977,7.977,0,0,0,1.326-.083,2.248,2.248,0,0,0,.676-.258V15h1.635V12.329h1.013a.487.487,0,0,0,.469-.471v-.41a.488.488,0,0,0-.469-.471M309.033,12.75H308.7v0h-4.015v-1.6a.621.621,0,0,0-.617-.621h-.443a.621.621,0,0,0-.617.621v.575h0v1.028h-2.786v0h-.6a.485.485,0,0,0-.469.469v.41a.487.487,0,0,0,.469.471h9.408a.489.489,0,0,0,.469-.471v-.41a.488.488,0,0,0-.469-.469M319.547,18.1h-4.935c-.032-.01-.045-.067-.045-.067V15.922h0a.613.613,0,0,0-.611-.615h-.437a.615.615,0,0,0-.613.615v2.406a1.172,1.172,0,0,0,.26.837,1.05,1.05,0,0,0,.8.284h5.583a.5.5,0,0,0,.479-.5V18.6a.5.5,0,0,0-.479-.5M294.14,11.683a5.062,5.062,0,0,0,.481-2.272V9.017a.607.607,0,0,0-.6-.579h-4.128a.507.507,0,0,0-.479.5v.359a.511.511,0,0,0,.479.5H292.8v.028a3.451,3.451,0,0,1-.268,1.344,3.978,3.978,0,0,1-.739,1.143,4.59,4.59,0,0,1-1.273.971,5.3,5.3,0,0,1-1.631.524.185.185,0,0,0-.152.126l.01.13.707.918.081-.012a6.829,6.829,0,0,0,1.651-.493,5.881,5.881,0,0,0,1.754-1.151,5.755,5.755,0,0,0,1.2-1.639" transform="translate(-197.467 -5.557)" fill="#004a98"/>
    <path id="패스_50751" data-name="패스 50751" d="M287.155,11.47v2.425a.616.616,0,0,0,.6.609h.431a.615.615,0,0,0,.6-.609V9.728" transform="translate(-166.43 -3.705)" fill="#004a98"/>
    <path id="패스_50752" data-name="패스 50752" d="M285.783,11.939a2.315,2.315,0,0,0,.294-.784,6.951,6.951,0,0,0,.085-.879V8.682a.611.611,0,0,0-.6-.577H279.4v0h-.849a.509.509,0,0,0-.479.5v.357a.506.506,0,0,0,.479.5h5.873l.093.01,0,.014c0,.032.008.095.008.095v.565l-.041.894a2.221,2.221,0,0,1-.321.9c-.065.124,0,.177.11.177h1.269a.346.346,0,0,0,.24-.177" transform="translate(-175.238 -5.283)" fill="#004a98"/>
  </g>
</svg>
