<svg id="그룹_10403" data-name="그룹 10403" xmlns="http://www.w3.org/2000/svg" xmlns:xlink="http://www.w3.org/1999/xlink" width="115.326" height="22.005" viewBox="0 0 115.326 22.005">
  <defs>
    <clipPath id="clip-path">
      <rect id="사각형_3085" data-name="사각형 3085" width="115.326" height="22.005" fill="none"/>
    </clipPath>
  </defs>
  <g id="그룹_10402" data-name="그룹 10402" clip-path="url(#clip-path)">
    <path id="패스_50903" data-name="패스 50903" d="M76.793,78.726l-.278-.406.278-.4a9.309,9.309,0,0,0,1.017-8.576l-4.726-1.322a2.313,2.313,0,0,0-2.906,1.5l-3.5,12.521a2.316,2.316,0,0,0,1.708,2.79l9.376,2.626a9.337,9.337,0,0,0-.963-8.726" transform="translate(-66.339 -66.952)" fill="#1a8cca"/>
    <path id="패스_50904" data-name="패스 50904" d="M80.924,71.027,72.647,68.71a8.018,8.018,0,0,1,.006,8.846,8.084,8.084,0,0,1-.244,9.215l3.81,1.066a2.314,2.314,0,0,0,2.906-1.5l3.5-12.522a2.314,2.314,0,0,0-1.706-2.79" transform="translate(-60.698 -66.188)" fill="#065299"/>
    <rect id="사각형_3082" data-name="사각형 3082" width="0.983" height="6.75" transform="translate(4.063 7.979)" fill="#fff"/>
    <path id="패스_50905" data-name="패스 50905" d="M73.119,73.905l-.68-.461c-.341-.232-.9-.611-1.237-.843l-.682-.461c-.339-.232-.619-.041-.619.42v3.533c0,.463.28.652.619.42l.682-.461c.339-.232.9-.611,1.237-.841l.68-.463a.474.474,0,0,0,0-.841" transform="translate(-63.13 -62.957)" fill="#fff"/>
    <path id="패스_50906" data-name="패스 50906" d="M72.207,73.653l-.435-.3c-.221-.148-.577-.392-.8-.54l-.435-.3c-.219-.148-.4-.026-.4.27v2.27c0,.3.181.42.4.27l.435-.3.8-.542.435-.3a.306.306,0,0,0,0-.542" transform="translate(-62.902 -62.555)" fill="#e55018"/>
    <path id="패스_50907" data-name="패스 50907" d="M77.552,71.964l-.788-.652L73.681,75.04l3.085,3.688.784-.656-2.54-3.036Z" transform="translate(-59.464 -63.663)" fill="#fff"/>
    <rect id="사각형_3083" data-name="사각형 3083" width="0.5" height="3.826" transform="translate(25.591 0.485)" fill="#065299"/>
    <path id="패스_50908" data-name="패스 50908" d="M81.881,71.5h-1.59V67.666h1.631a1.282,1.282,0,0,1,.794.244.864.864,0,0,1,.359.725.889.889,0,0,1-.5.814,1.223,1.223,0,0,1,.479.376.935.935,0,0,1,.187.569.984.984,0,0,1-.114.465,1.128,1.128,0,0,1-.526.491,1.684,1.684,0,0,1-.715.152m-.047-3.375H80.791v1.149H81.83a.784.784,0,0,0,.485-.156.529.529,0,0,0,.229-.443.474.474,0,0,0-.229-.418.865.865,0,0,0-.481-.132m.047,1.6h-1.09v1.312h1.08a.942.942,0,0,0,.563-.165.578.578,0,0,0,.264-.5.559.559,0,0,0-.26-.489.949.949,0,0,0-.558-.158" transform="translate(-53.051 -67.201)" fill="#065299"/>
    <path id="패스_50909" data-name="패스 50909" d="M85.5,71.5h-.6l-1.58-1.8-.546.558V71.5h-.5V67.676h.5v1.9l1.834-1.9h.64l-1.572,1.653Z" transform="translate(-51.139 -67.191)" fill="#065299"/>
    <path id="패스_50910" data-name="패스 50910" d="M86.75,67.986a3.995,3.995,0,0,1-2.13,3.4l-.392-.315A3.875,3.875,0,0,0,85.526,70a3.049,3.049,0,0,0,.625-1.554H84.5v-.461Zm1.523,4.24h-.52V67.45h.52Z" transform="translate(-49.232 -67.41)" fill="#065299"/>
    <path id="패스_50911" data-name="패스 50911" d="M90.858,69.987h-.522V68.9h-.995a1.03,1.03,0,0,1-.443.684,1.424,1.424,0,0,1-1.621-.051,1,1,0,0,1-.392-.826.991.991,0,0,1,.565-.934,1.379,1.379,0,0,1,1.1-.1,1.049,1.049,0,0,1,.772.776h1.011v-.991h.522Zm-2.039-1.292a.552.552,0,0,0-.219-.459.84.84,0,0,0-.958,0,.553.553,0,0,0-.221.459.575.575,0,0,0,.221.469.751.751,0,0,0,.477.158.762.762,0,0,0,.481-.158.573.573,0,0,0,.219-.469m2.033,3.471H87.574V70.221h.516v.51h2.24v-.51h.522Zm-.522-.995H88.088v.546H90.33Z" transform="translate(-46.655 -67.408)" fill="#065299"/>
    <path id="패스_50912" data-name="패스 50912" d="M94.017,70.363H89.428V69.9h4.589Zm-.554-1.882a.866.866,0,0,1-.542.774,2.5,2.5,0,0,1-1.2.262,2.542,2.542,0,0,1-1.206-.262.866.866,0,0,1-.548-.774.881.881,0,0,1,.548-.788,2.566,2.566,0,0,1,1.206-.26,2.527,2.527,0,0,1,1.2.26.881.881,0,0,1,.542.788m.1,3.653H90.017V70.778h.522v.9h3.022Zm-.64-3.649c0-.2-.124-.349-.374-.465a2.289,2.289,0,0,0-1.649,0c-.246.114-.37.268-.37.459s.126.335.374.449a2.168,2.168,0,0,0,.831.144,2.115,2.115,0,0,0,.818-.144c.246-.108.37-.254.37-.439" transform="translate(-44.187 -67.427)" fill="#065299"/>
    <path id="패스_50913" data-name="패스 50913" d="M94.482,68.618H92.151V68.2h2.331Zm-.122.975a.66.66,0,0,1-.327.575,1.46,1.46,0,0,1-1.444-.008.651.651,0,0,1-.329-.571.637.637,0,0,1,.329-.563,1.349,1.349,0,0,1,.731-.187,1.282,1.282,0,0,1,.713.187.641.641,0,0,1,.327.567m-.447-1.675H92.7V67.5h1.21Zm2.415,3.511c0,.282-.185.5-.554.672a3,3,0,0,1-1.22.223,3.07,3.07,0,0,1-1.231-.223c-.372-.171-.558-.4-.558-.69,0-.274.185-.495.558-.656a3.439,3.439,0,0,1,2.445,0c.37.167.56.392.56.674m-2.477-1.836a.3.3,0,0,0-.16-.27.728.728,0,0,0-.372-.1.744.744,0,0,0-.382.1.311.311,0,0,0,0,.544.744.744,0,0,0,.382.1.728.728,0,0,0,.372-.1.3.3,0,0,0,.16-.274m1.885,1.828c0-.148-.122-.266-.368-.353a2.529,2.529,0,0,0-.818-.116,2.645,2.645,0,0,0-.835.116c-.256.087-.382.2-.382.349s.126.266.374.355a3.021,3.021,0,0,0,1.653.006c.252-.087.376-.207.376-.357m.595-.989h-.491V69.14h-.536v1.186h-.491V67.535h.491v1.109h.536V67.45h.491Z" transform="translate(-41.545 -67.41)" fill="#065299"/>
    <path id="패스_50914" data-name="패스 50914" d="M100.631,69.722H96.042v-.453h3.28a11.3,11.3,0,0,0,.209-1.263H96.57v-.457h3.56a8.527,8.527,0,0,1-.276,1.72h.776Zm-.595,2.35h-3.4V70.254h3.4ZM99.5,70.707H97.167v.912H99.5Z" transform="translate(-37.77 -67.314)" fill="#065299"/>
    <path id="패스_50915" data-name="패스 50915" d="M103.275,70.066h-1.18v.611q.712.239.713.745c0,.294-.191.52-.567.69a3.6,3.6,0,0,1-2.514,0c-.382-.171-.571-.4-.571-.69,0-.339.24-.591.729-.751v-.6H98.69v-.451h4.585Zm-.528-1.7q0,.434-.554.688a2.862,2.862,0,0,1-1.21.231,2.788,2.788,0,0,1-1.21-.236c-.366-.167-.548-.4-.548-.686s.181-.524.548-.693a3.238,3.238,0,0,1,2.419,0q.553.254.554.7m-.534,3.06c0-.152-.13-.276-.39-.37a2.663,2.663,0,0,0-.849-.12,2.633,2.633,0,0,0-.847.12q-.378.136-.378.366c0,.152.128.274.386.363a2.5,2.5,0,0,0,.849.126,2.611,2.611,0,0,0,.843-.118c.258-.093.386-.215.386-.366m-.032-3.064c0-.162-.126-.29-.38-.388a2.316,2.316,0,0,0-.827-.13,2.244,2.244,0,0,0-.814.13c-.244.093-.366.219-.366.38s.124.284.37.376a2.358,2.358,0,0,0,.82.126,2.385,2.385,0,0,0,.822-.126c.252-.093.376-.217.376-.368m-.615,2.2v-.491h-1.158v.491a4.559,4.559,0,0,1,1.158,0" transform="translate(-35.201 -67.43)" fill="#065299"/>
    <path id="패스_50916" data-name="패스 50916" d="M105.924,71.206h-4.589v-.459h3.14a19.435,19.435,0,0,0,.333-2.512h-2.987v-.459h3.56a10.234,10.234,0,0,1-.136,1.491c-.077.493-.154.987-.234,1.48h.912Z" transform="translate(-32.635 -67.094)" fill="#065299"/>
    <path id="패스_50917" data-name="패스 50917" d="M108.574,70.1h-2.031v.489h-.558V70.1h-2.014v-.437h4.6Zm-.546-.782h-3.446v-1.1h2.8v-.315h-2.8v-.4h3.353v1.1H105.13v.313h2.9Zm-.051,2.794h-3.395V70.432h.528v.406h2.339v-.406h.528Zm-.528-.869h-2.341v.443h2.341Z" transform="translate(-30.076 -67.356)" fill="#065299"/>
    <rect id="사각형_3084" data-name="사각형 3084" width="1.527" height="11.661" transform="translate(25.589 8.255)" fill="#065299"/>
    <path id="패스_50918" data-name="패스 50918" d="M86.85,83.282H82V71.587h4.973a3.918,3.918,0,0,1,2.415.749,2.632,2.632,0,0,1,1.1,2.213,2.7,2.7,0,0,1-1.541,2.48,3.613,3.613,0,0,1,1.46,1.147,2.855,2.855,0,0,1,.573,1.736,3.012,3.012,0,0,1-.351,1.413,3.375,3.375,0,0,1-1.606,1.5,5,5,0,0,1-2.175.463M86.706,73H83.53V76.5h3.16a2.347,2.347,0,0,0,1.478-.477,1.586,1.586,0,0,0,.7-1.35,1.445,1.445,0,0,0-.7-1.271,2.587,2.587,0,0,0-1.462-.4m.144,4.876H83.53v4.005h3.286a2.867,2.867,0,0,0,1.716-.51,1.75,1.75,0,0,0,.812-1.525,1.708,1.708,0,0,0-.794-1.493,2.951,2.951,0,0,0-1.7-.477" transform="translate(-51.39 -63.397)" fill="#065299"/>
    <path id="패스_50919" data-name="패스 50919" d="M97.861,83.281H96.019l-4.813-5.5-1.671,1.7v3.8H88.012V71.62h1.523V77.4l5.591-5.784h1.956l-4.8,5.036Z" transform="translate(-45.56 -63.365)" fill="#065299"/>
    <path id="패스_50920" data-name="패스 50920" d="M102.3,79.425a7.132,7.132,0,0,1-2.138-1.509A8.094,8.094,0,0,1,98.551,75.8a7.315,7.315,0,0,1-1.5,2.281,7.856,7.856,0,0,1-2.2,1.675l-1.111-1.064a7.152,7.152,0,0,0,2.924-2.526,6.473,6.473,0,0,0,1.064-3.639v-1.19h1.671v1.19a6.119,6.119,0,0,0,1.03,3.5,5.868,5.868,0,0,0,2.845,2.24q-.192.239-.969,1.16m4.543,5.721H96.549V80.615h1.588v3.146h8.706Zm-.286-3.686h-1.59V70.943h1.59Z" transform="translate(-40.007 -64.022)" fill="#065299"/>
    <path id="패스_50921" data-name="패스 50921" d="M115.765,79.283h-13.98V77.9h3.732V76.024q-2.157-.745-2.159-2.319,0-1.336,1.685-2.128a10.314,10.314,0,0,1,7.467,0q1.7.795,1.7,2.144,0,1.56-2.146,2.3V77.9h3.7Zm-1.428,3.749c0,.889-.579,1.59-1.732,2.1a10.808,10.808,0,0,1-7.66,0q-1.747-.777-1.746-2.1,0-1.3,1.746-2.082a10.865,10.865,0,0,1,7.66,0q1.729.78,1.732,2.082m-1.813,0c0-.467-.4-.841-1.19-1.127a8.024,8.024,0,0,0-2.591-.366,7.873,7.873,0,0,0-2.575.366q-1.158.411-1.158,1.111t1.176,1.111a7.719,7.719,0,0,0,2.591.382,7.856,7.856,0,0,0,2.571-.366c.786-.274,1.176-.644,1.176-1.111m0-9.311q0-.762-1.19-1.206a7.27,7.27,0,0,0-2.607-.416,7,7,0,0,0-2.526.4q-1.144.429-1.145,1.174c0,.489.392.883,1.174,1.178a7.593,7.593,0,0,0,2.561.382,7.7,7.7,0,0,0,2.571-.382c.774-.278,1.16-.652,1.16-1.129M110.46,77.9V76.359a9.775,9.775,0,0,1-3.336,0V77.9Z" transform="translate(-32.198 -64.085)" fill="#065299"/>
    <path id="패스_50922" data-name="패스 50922" d="M118.439,79.1a7.13,7.13,0,0,1-3.67-2.78,7.429,7.429,0,0,1-3.653,3.178L110,78.339a8.129,8.129,0,0,0,2.843-1.923,4.721,4.721,0,0,0,1.1-3.194h-3.02v-1.4h7.627v1.4h-3.016q0,3.428,3.732,4.624c-.126.189-.4.607-.826,1.253M123,82.866a2.418,2.418,0,0,1-1.653,2.161,9.486,9.486,0,0,1-7.294,0,2.419,2.419,0,0,1-1.667-2.161,2.457,2.457,0,0,1,1.667-2.193,9.463,9.463,0,0,1,7.294,0A2.456,2.456,0,0,1,123,82.866m-1.734.016c0-.508-.374-.912-1.127-1.208a6.466,6.466,0,0,0-2.461-.412,6.689,6.689,0,0,0-2.465.4q-1.111.446-1.111,1.19c0,.51.374.912,1.127,1.208a6.935,6.935,0,0,0,2.494.4,6.5,6.5,0,0,0,2.431-.4q1.111-.429,1.111-1.174m1.574-3.146h-1.59v-4h-2.811V74.286h2.811V70.935h1.59Z" transform="translate(-24.225 -64.029)" fill="#065299"/>
    <path id="패스_50923" data-name="패스 50923" d="M131.878,83.245H117.913V81.864h6.149v-2.78H119.82v-7.69h1.586V73.9H128.4v-2.51H130v7.69h-4.289v2.78h6.163Zm-3.479-7.96h-6.992V77.7H128.4Z" transform="translate(-16.551 -63.584)" fill="#065299"/>
  </g>
</svg>
