<svg id="그룹_10483" data-name="그룹 10483" xmlns="http://www.w3.org/2000/svg" xmlns:xlink="http://www.w3.org/1999/xlink" width="22.286" height="30" viewBox="0 0 22.286 30">
  <defs>
    <clipPath id="clip-path">
      <rect id="사각형_3038" data-name="사각형 3038" width="22.286" height="30" fill="none"/>
    </clipPath>
  </defs>
  <g id="그룹_10342" data-name="그룹 10342" transform="translate(0 0)" clip-path="url(#clip-path)">
    <path id="패스_50690" data-name="패스 50690" d="M10.918,17.318A2.374,2.374,0,1,1,6.172,17.2L6.544,2.735a2.374,2.374,0,1,1,4.746.122Z" transform="translate(3.9 0.266)" fill="#fff"/>
    <path id="패스_50691" data-name="패스 50691" d="M9.182,1.377A1.676,1.676,0,0,0,7.5,3.019L7.126,17.48a1.686,1.686,0,0,0,1.642,1.728h.044A1.676,1.676,0,0,0,10.5,17.566l.372-14.461A1.689,1.689,0,0,0,9.226,1.377Zm-.37,19.208-.08,0a3.06,3.06,0,0,1-2.982-3.14L6.122,2.983A3.044,3.044,0,0,1,9.182,0l.08,0a3.063,3.063,0,0,1,2.982,3.14L11.872,17.6a3.044,3.044,0,0,1-3.06,2.983" transform="translate(3.633 0)" fill="#31bacd"/>
    <path id="패스_50692" data-name="패스 50692" d="M8.324,16.742a2.374,2.374,0,0,1-4.739.294L2.748,3.506a2.373,2.373,0,0,1,4.738-.294Z" transform="translate(1.734 0.623)" fill="#fff"/>
    <path id="패스_50693" data-name="패스 50693" d="M5.386,1.941c-.036,0-.07,0-.106,0A1.689,1.689,0,0,0,3.7,3.731L4.54,17.26A1.685,1.685,0,0,0,7.9,17.053L7.065,3.523A1.688,1.688,0,0,0,5.386,1.941m.834,18.278a3.068,3.068,0,0,1-3.055-2.872L2.327,3.816a3.062,3.062,0,1,1,6.112-.379l.839,13.529A3.065,3.065,0,0,1,6.41,20.212c-.064,0-.127.007-.191.007" transform="translate(1.467 0.356)" fill="#31bacd"/>
    <path id="패스_50694" data-name="패스 50694" d="M14.961,15.716,16.585,4.188a2.374,2.374,0,0,1,4.747,0L19.5,20.757a7.408,7.408,0,0,1-7.409,7.407H7.831A7.408,7.408,0,0,1,.422,20.757V14.918" transform="translate(0.267 1.147)" fill="#fff"/>
    <path id="패스_50695" data-name="패스 50695" d="M12.359,29.12H8.1a8.107,8.107,0,0,1-8.1-8.1V15.185a.689.689,0,0,1,1.377,0v5.839A6.727,6.727,0,0,0,8.1,27.742h4.261a6.727,6.727,0,0,0,6.72-6.719c0-.026,0-.051,0-.077L20.91,4.42a1.686,1.686,0,0,0-3.372.034.636.636,0,0,1-.007.1L15.908,16.079a.688.688,0,1,1-1.363-.193L16.163,4.4a3.062,3.062,0,0,1,6.123.051.578.578,0,0,1,0,.075L20.455,21.061a8.1,8.1,0,0,1-8.1,8.059" transform="translate(0 0.88)" fill="#31bacd"/>
    <path id="패스_50696" data-name="패스 50696" d="M5.169,12.425a2.374,2.374,0,0,1-4.747,0V9.611a2.374,2.374,0,1,1,4.747,0Z" transform="translate(0.267 4.573)" fill="#fff"/>
    <path id="패스_50697" data-name="패스 50697" d="M3.063,8.192A1.688,1.688,0,0,0,1.377,9.878v2.813a1.686,1.686,0,0,0,3.372,0V9.878A1.688,1.688,0,0,0,3.063,8.192m0,7.561A3.065,3.065,0,0,1,0,12.692V9.878a3.062,3.062,0,1,1,6.123,0v2.813a3.065,3.065,0,0,1-3.062,3.062" transform="translate(0.001 4.307)" fill="#31bacd"/>
    <path id="패스_50698" data-name="패스 50698" d="M14.627,10.075a7.253,7.253,0,0,0-3.649-.968H7.022a2.286,2.286,0,1,0,0,4.573h3.164a10.361,10.361,0,0,0-1.955,4.7" transform="translate(2.993 5.755)" fill="#fff"/>
    <path id="패스_50699" data-name="패스 50699" d="M8.5,19.338a.671.671,0,0,1-.127-.011.69.69,0,0,1-.55-.8,12.926,12.926,0,0,1,1.353-3.889H7.29a2.974,2.974,0,1,1,0-5.948h3.956a7.872,7.872,0,0,1,4.049,1.1.688.688,0,0,1-.8,1.12,6.322,6.322,0,0,0-3.243-.839H7.29a1.6,1.6,0,0,0,0,3.2h3.164A.687.687,0,0,1,10.97,14.4a9.94,9.94,0,0,0-1.8,4.375.689.689,0,0,1-.676.561" transform="translate(2.727 5.488)" fill="#31bacd"/>
  </g>
</svg>
