<svg id="그룹_10411" data-name="그룹 10411" xmlns="http://www.w3.org/2000/svg" xmlns:xlink="http://www.w3.org/1999/xlink" width="59.484" height="32.973" viewBox="0 0 59.484 32.973">
  <defs>
    <clipPath id="clip-path">
      <rect id="사각형_3092" data-name="사각형 3092" width="59.484" height="32.973" fill="none"/>
    </clipPath>
  </defs>
  <g id="그룹_10410" data-name="그룹 10410" clip-path="url(#clip-path)">
    <path id="패스_50932" data-name="패스 50932" d="M284.824,76.131a1.488,1.488,0,0,0-1.093.455,1.544,1.544,0,0,0-.455,1.143,1.585,1.585,0,0,0,.455,1.156,1.477,1.477,0,0,0,1.093.467,1.515,1.515,0,0,0,1.105-.467,1.573,1.573,0,0,0,.469-1.156,1.577,1.577,0,0,0-1.574-1.6" transform="translate(-277.768 -53.503)" fill="#ac1e2a"/>
    <path id="패스_50933" data-name="패스 50933" d="M291.8,64.646h-9.943a1.379,1.379,0,0,0-1.375,1.377V96.242a1.382,1.382,0,0,0,1.375,1.379H291.8a1.384,1.384,0,0,0,1.377-1.379V66.023a1.381,1.381,0,0,0-1.377-1.377M283.248,81.1h2.861V78.343h2.214V73.425H283.9V70.891h7.032V79.3h-2.214V81.1h2.865V83.6h-8.33Zm8.074,9.386a4.084,4.084,0,0,1-3.787,2.5,3.994,3.994,0,0,1-1.6-.321,4.077,4.077,0,0,1-2.163-2.175,4.063,4.063,0,0,1-.317-1.612,4,4,0,0,1,.317-1.584,4.1,4.1,0,0,1,.873-1.3,4.156,4.156,0,0,1,1.29-.871,3.961,3.961,0,0,1,1.6-.321,4.045,4.045,0,0,1,1.612.321,4.1,4.1,0,0,1,1.3.871,4.128,4.128,0,0,1,.873,4.5" transform="translate(-280.48 -64.646)" fill="#ac1e2a"/>
    <path id="패스_50934" data-name="패스 50934" d="M289.954,71.286a4.063,4.063,0,0,1,1.612-.319,4.06,4.06,0,0,1,3.489,1.943V72.44h2.705V69.763h2.607V85.035a3.875,3.875,0,0,1,.727.3V66.023a1.384,1.384,0,0,0-1.379-1.377h-9.942a1.382,1.382,0,0,0-1.377,1.377v6.4a3.114,3.114,0,0,1,.244-.264,4.254,4.254,0,0,1,1.314-.873" transform="translate(-272.8 -64.646)" fill="#ac1e2a"/>
    <path id="패스_50935" data-name="패스 50935" d="M294.586,76.131a1.488,1.488,0,0,0-1.093.455,1.544,1.544,0,0,0-.455,1.143,1.585,1.585,0,0,0,.455,1.156,1.477,1.477,0,0,0,1.093.467,1.515,1.515,0,0,0,1.105-.467,1.574,1.574,0,0,0,.469-1.156,1.578,1.578,0,0,0-1.574-1.6" transform="translate(-268.297 -53.503)" fill="#ac1e2a"/>
    <path id="패스_50936" data-name="패스 50936" d="M294.226,69.851h-2.09l.024.2a3.08,3.08,0,0,1-.036.491c-.024.148-.053.3-.085.443h2.187Z" transform="translate(-269.266 -59.596)" fill="#ac1e2a"/>
    <path id="패스_50937" data-name="패스 50937" d="M290.779,69.114a1.508,1.508,0,0,0-1.105.467,1.6,1.6,0,0,0-.469,1.18,1.558,1.558,0,0,0,.469,1.155,1.542,1.542,0,0,0,2.211,0,1.566,1.566,0,0,0,.469-1.155,1.605,1.605,0,0,0-.469-1.18,1.508,1.508,0,0,0-1.105-.467" transform="translate(-272.015 -60.311)" fill="#ac1e2a"/>
    <path id="패스_50938" data-name="패스 50938" d="M299.088,86.742a3.977,3.977,0,0,1-1.6-.321,4.072,4.072,0,0,1-2.165-2.175,4.06,4.06,0,0,1-.317-1.61,3.91,3.91,0,0,1,.76-2.386,4.041,4.041,0,0,1,1.992-1.45V72.255h-2.705V71.073a4.336,4.336,0,0,1-1.474,1.391,3.939,3.939,0,0,1-2.018.528,4.061,4.061,0,0,1-1.61-.319,4.125,4.125,0,0,1-1.318-.885c-.085-.085-.164-.177-.24-.268V90.006a1.381,1.381,0,0,0,1.377,1.379h9.942a1.384,1.384,0,0,0,1.379-1.379V86.228c-.128.069-.258.136-.394.193a4.085,4.085,0,0,1-1.612.321" transform="translate(-272.8 -58.41)" fill="#ac1e2a"/>
    <path id="패스_50939" data-name="패스 50939" d="M299.39,73.063h1.131v2.754h.786V73.063h.91l-1.377-2.975Z" transform="translate(-262.134 -59.366)" fill="#ac1e2a"/>
    <path id="패스_50940" data-name="패스 50940" d="M307.633,64.647h-9.944a1.381,1.381,0,0,0-1.377,1.377V96.243a1.382,1.382,0,0,0,1.377,1.377h9.944a1.381,1.381,0,0,0,1.377-1.377V66.024a1.38,1.38,0,0,0-1.377-1.377m.65,18.957h-8.862V81.1h1.8V79.547l-1.746-.812,4.35-8.434,4.328,8.411-1.623.786v1.6h1.752Z" transform="translate(-265.12 -64.645)" fill="#ac1e2a"/>
    <rect id="사각형_3090" data-name="사각형 3090" width="1.21" height="3.32" transform="translate(49.733 8.803)" fill="#ac1e2a"/>
    <path id="패스_50941" data-name="패스 50941" d="M314.92,92.977a3.971,3.971,0,0,1-1.6-.321,4.09,4.09,0,0,1-1.292-.873,4.091,4.091,0,0,1-1.192-2.912,3.91,3.91,0,0,1,.76-2.386,4.05,4.05,0,0,1,1.992-1.45V69.763H316.2V85.035a3.957,3.957,0,0,1,.727.3V66.025a1.383,1.383,0,0,0-1.377-1.379H305.6a1.381,1.381,0,0,0-1.375,1.379v4.868h7.516v2.555h-1.2v3.32h1.222V79.3h-7.54v16.94a1.381,1.381,0,0,0,1.375,1.379h9.944a1.383,1.383,0,0,0,1.377-1.379V92.463a4.24,4.24,0,0,1-.392.193,4.107,4.107,0,0,1-1.612.321" transform="translate(-257.44 -64.646)" fill="#ac1e2a"/>
    <path id="패스_50942" data-name="패스 50942" d="M310.419,76.131a1.5,1.5,0,0,0-1.1.455,1.544,1.544,0,0,0-.455,1.143,1.585,1.585,0,0,0,.455,1.156,1.484,1.484,0,0,0,1.1.467,1.511,1.511,0,0,0,1.1-.467,1.566,1.566,0,0,0,.469-1.156,1.578,1.578,0,0,0-1.572-1.6" transform="translate(-252.938 -53.503)" fill="#ac1e2a"/>
    <rect id="사각형_3091" data-name="사각형 3091" width="0.757" height="3.32" transform="translate(46.788 8.803)" fill="#ac1e2a"/>
    <path id="패스_50943" data-name="패스 50943" d="M290.215,78.02h-2.861V76.225h2.211V67.817h-7.032V70.35h4.427v4.916h-2.215V78.02h-2.861v2.508h8.33Z" transform="translate(-279.117 -61.57)" fill="#fff"/>
    <path id="패스_50944" data-name="패스 50944" d="M288.985,76.062a4.091,4.091,0,0,0-2.912-1.192,3.979,3.979,0,0,0-1.6.319,4.137,4.137,0,0,0-1.29.873,4.077,4.077,0,0,0-.873,1.3,4,4,0,0,0-.321,1.586,4.077,4.077,0,0,0,.321,1.61,4.025,4.025,0,0,0,.873,1.3,4.137,4.137,0,0,0,1.29.873,3.98,3.98,0,0,0,1.6.321,4.072,4.072,0,0,0,4.1-4.106,4,4,0,0,0-.317-1.586,4.148,4.148,0,0,0-.875-1.3m-1.807,4.045a1.514,1.514,0,0,1-1.105.467,1.474,1.474,0,0,1-1.1-.467,1.588,1.588,0,0,1-.455-1.155,1.553,1.553,0,0,1,.455-1.145,1.5,1.5,0,0,1,1.1-.455,1.574,1.574,0,0,1,1.572,1.6,1.567,1.567,0,0,1-.467,1.155" transform="translate(-279.016 -54.727)" fill="#fff"/>
    <path id="패스_50945" data-name="패스 50945" d="M300.367,82.515V67.242h-2.608v2.679h-2.7v.467a4.06,4.06,0,0,0-1.464-1.413,4,4,0,0,0-2.029-.53,4.069,4.069,0,0,0-1.61.321,4.217,4.217,0,0,0-1.316.873c-.085.083-.164.171-.24.262v5.335c.077.091.156.181.24.268a4.182,4.182,0,0,0,1.316.885,4.067,4.067,0,0,0,1.61.317,3.938,3.938,0,0,0,2.017-.526,4.416,4.416,0,0,0,1.476-1.391v1.18h2.7v6.545a4.031,4.031,0,0,0-1.99,1.452A3.913,3.913,0,0,0,295,86.353a4.077,4.077,0,0,0,.321,1.61,4.025,4.025,0,0,0,.873,1.3,4.137,4.137,0,0,0,1.29.873,3.98,3.98,0,0,0,1.6.321,4.06,4.06,0,0,0,1.608-.321,4.326,4.326,0,0,0,.4-.193V82.812a4.056,4.056,0,0,0-.725-.3m-7.7-8.783a1.539,1.539,0,0,1-2.213,0,1.557,1.557,0,0,1-.467-1.155,1.6,1.6,0,0,1,.467-1.18,1.544,1.544,0,0,1,2.213,0,1.6,1.6,0,0,1,.467,1.18,1.564,1.564,0,0,1-.467,1.155m2.9-.221c.031-.146.061-.294.085-.441a2.89,2.89,0,0,0,.038-.493l-.026-.2h2.09v1.131Zm4.622,14a1.514,1.514,0,0,1-1.105.467,1.474,1.474,0,0,1-1.1-.467,1.589,1.589,0,0,1-.455-1.155,1.553,1.553,0,0,1,.455-1.145,1.5,1.5,0,0,1,1.1-.455,1.574,1.574,0,0,1,1.572,1.6,1.567,1.567,0,0,1-.467,1.155" transform="translate(-272.8 -62.127)" fill="#fff"/>
    <path id="패스_50946" data-name="패스 50946" d="M305,76.714l1.621-.788L302.3,67.517l-4.352,8.434,1.746.812v1.549h-1.8V80.82h8.86V78.312H305Zm-2.238-1.156v2.754h-.788V75.557h-1.129l1.45-2.975,1.375,2.975Z" transform="translate(-263.589 -61.86)" fill="#fff"/>
    <path id="패스_50947" data-name="패스 50947" d="M311.771,73.693h-1.223v-3.32h1.2V67.816h-7.52v2.557h.759v3.32h-.759v2.532h7.544Zm-3.387,0h-1.21v-3.32h1.21Z" transform="translate(-257.441 -61.57)" fill="#fff"/>
    <path id="패스_50948" data-name="패스 50948" d="M312.944,82.515V67.242h-2.607V82.515a4.027,4.027,0,0,0-1.992,1.452,3.912,3.912,0,0,0-.762,2.386,4.075,4.075,0,0,0,.319,1.61,4.025,4.025,0,0,0,.873,1.3,4.136,4.136,0,0,0,1.29.873,3.987,3.987,0,0,0,1.6.321,4.076,4.076,0,0,0,1.61-.321c.136-.057.266-.124.394-.193V82.812a4,4,0,0,0-.725-.3m-.173,4.992a1.514,1.514,0,0,1-1.105.467,1.474,1.474,0,0,1-1.1-.467,1.587,1.587,0,0,1-.453-1.155,1.552,1.552,0,0,1,.453-1.145,1.5,1.5,0,0,1,1.1-.455,1.574,1.574,0,0,1,1.572,1.6,1.567,1.567,0,0,1-.467,1.155" transform="translate(-254.185 -62.127)" fill="#fff"/>
  </g>
</svg>
