<svg id="그룹_10371" data-name="그룹 10371" xmlns="http://www.w3.org/2000/svg" xmlns:xlink="http://www.w3.org/1999/xlink" width="129.358" height="27.358" viewBox="0 0 129.358 27.358">
  <defs>
    <clipPath id="clip-path">
      <rect id="사각형_3053" data-name="사각형 3053" width="129.358" height="27.358" fill="none"/>
    </clipPath>
  </defs>
  <g id="그룹_10370" data-name="그룹 10370" clip-path="url(#clip-path)">
    <path id="패스_50731" data-name="패스 50731" d="M106.48,9.341v-1.2h6.466v1.2h-2.754l2.869,3.5-.985.808-2.313-2.892-2.285,3.083-1.011-.81,2.855-3.688Zm8.789,7.339a2.492,2.492,0,0,1-.232,1.068,2.8,2.8,0,0,1-1.554,1.478,2.926,2.926,0,0,1-1.129.221,2.973,2.973,0,0,1-1.137-.221,3.036,3.036,0,0,1-.948-.6,2.917,2.917,0,0,1-.625-.877,2.549,2.549,0,0,1,0-2.136,2.942,2.942,0,0,1,.625-.877,3.072,3.072,0,0,1,.948-.6,3.01,3.01,0,0,1,1.137-.221,2.963,2.963,0,0,1,1.129.221,2.8,2.8,0,0,1,1.554,1.478,2.492,2.492,0,0,1,.232,1.068m-1.363-.012a1.466,1.466,0,0,0-.467-1.088,1.521,1.521,0,0,0-1.1-.453,1.5,1.5,0,0,0-1.091.453,1.518,1.518,0,0,0,0,2.179,1.509,1.509,0,0,0,1.091.449,1.534,1.534,0,0,0,1.1-.449,1.453,1.453,0,0,0,.467-1.091m1.933-2.88h-1.389V7.814h1.389V9.948h1.616v1.377h-1.616Z" transform="translate(-47.171 0.682)" fill="#595857"/>
    <path id="패스_50732" data-name="패스 50732" d="M118.811,12.538a2.9,2.9,0,0,1-.258,1.212,3.329,3.329,0,0,1-.7,1,3.333,3.333,0,0,1-4.61,0,3.166,3.166,0,0,1-.713-1,2.873,2.873,0,0,1-.26-1.212,2.929,2.929,0,0,1,.26-1.22,2.987,2.987,0,0,1,.713-.991,3.286,3.286,0,0,1,2.3-.922,3.276,3.276,0,0,1,1.277.246,3.241,3.241,0,0,1,1.036.676,3.131,3.131,0,0,1,.7.991,2.959,2.959,0,0,1,.258,1.22m-1.377,0a1.757,1.757,0,0,0-.152-.733,2.081,2.081,0,0,0-.4-.607,2.121,2.121,0,0,0-.607-.4,1.827,1.827,0,0,0-1.458,0,1.942,1.942,0,0,0-.6.4,1.92,1.92,0,0,0-.41.607,1.9,1.9,0,0,0,0,1.458,1.957,1.957,0,0,0,1.011,1.011,1.9,1.9,0,0,0,1.458,0,1.9,1.9,0,0,0,1.011-1.011,1.766,1.766,0,0,0,.152-.725m4.547-4.724h1.352V19.079h-1.352V13.143h-1.212v5.873h-1.3V7.826h1.3v4.118h1.212Z" transform="translate(-41.542 0.682)" fill="#595857"/>
    <path id="패스_50733" data-name="패스 50733" d="M124.993,10.971a2.851,2.851,0,0,1-.252,1.188,3.322,3.322,0,0,1-.684.985,3.405,3.405,0,0,1-1.017.662,3.231,3.231,0,0,1-2.475,0,3.406,3.406,0,0,1-1.017-.662,3.137,3.137,0,0,1-.69-.985,2.984,2.984,0,0,1,0-2.374,3.136,3.136,0,0,1,.69-.985,3.411,3.411,0,0,1,1.017-.664,3.231,3.231,0,0,1,2.475,0,3.411,3.411,0,0,1,1.017.664,3.322,3.322,0,0,1,.684.985,2.848,2.848,0,0,1,.252,1.186m-5.735,7.883V15.089h1.389v2.526h7.845v1.239Zm4.4-7.869a1.7,1.7,0,0,0-.152-.715,2.308,2.308,0,0,0-.39-.6,2.361,2.361,0,0,0-.6-.392,1.67,1.67,0,0,0-.707-.152,1.7,1.7,0,0,0-.7.152,2.314,2.314,0,0,0-.6.392,2.366,2.366,0,0,0-.392.6,1.725,1.725,0,0,0-.152.715,1.676,1.676,0,0,0,.152.707,2.2,2.2,0,0,0,.392.581,2.058,2.058,0,0,0,.6.4,1.722,1.722,0,0,0,.7.146,1.7,1.7,0,0,0,.707-.146,2.093,2.093,0,0,0,.6-.4,2.149,2.149,0,0,0,.39-.581,1.647,1.647,0,0,0,.152-.707m3.336-3.172h1.4v7.213h-1.4Z" transform="translate(-35.386 0.681)" fill="#595857"/>
    <path id="패스_50734" data-name="패스 50734" d="M125.385,13.931V8.109h8.69V9.332h-7.3v3.373H134.1v1.225h-3.674v2.792h4.484V17.96H124.551V16.723h4.47V13.931Z" transform="translate(-29.625 0.968)" fill="#595857"/>
    <path id="패스_50735" data-name="패스 50735" d="M134.092,7.889,137.78,17l-1.251.542-2.437-6.175-2.425,6.263-1.263-.556Zm5.052,5.028h-2.211V11.679h2.211V7.814h1.4V19.079h-1.4Z" transform="translate(-23.947 0.682)" fill="#595857"/>
    <path id="패스_50736" data-name="패스 50736" d="M143.75,13.333v1.225h-7.313V13.333h2.285V10.819h1.389v2.514Zm-2.01-1.074V9.265h-4.8V8.042h6.177V12.26Zm-4.51,6.632V15.5h1.4v2.147h7.579v1.239Zm8.779-3.676h-1.4v-7.4h1.4v3.032h1.44V12.12h-1.44Z" transform="translate(-18.094 0.681)" fill="#595857"/>
    <path id="패스_50737" data-name="패스 50737" d="M97.488,16.557a4.933,4.933,0,0,0-7.016,1.472,4.935,4.935,0,0,1-8.923-1.357h0l-.014-.051a.438.438,0,0,0-.018-.063,6.372,6.372,0,0,1-.252-1.96c0-4.425,4.539-9.35,11.078-9.35a12.468,12.468,0,0,1,11.512,7.93c-.016-.051-.032-.1-.049-.152A14.1,14.1,0,0,0,76.37,17.6c0,6.959,5.018,12.917,11.981,12.917a11.325,11.325,0,0,0,11-7.4,5.435,5.435,0,0,0-1.86-6.555" transform="translate(-76.37 -3.501)" fill="#003668"/>
    <path id="패스_50738" data-name="패스 50738" d="M101.531,12.592a12.431,12.431,0,0,0-11.6-8.2c-6.539,0-11.076,4.925-11.076,9.35a6.312,6.312,0,0,0,.252,1.96,4.137,4.137,0,0,1-.13-1c0-4.608,4.614-7.8,9.356-7.8A11.625,11.625,0,0,1,99.957,18.516,12.813,12.813,0,0,1,92.852,30l0,0a14.1,14.1,0,0,0,9.3-13.259,13.96,13.96,0,0,0-.621-4.149" transform="translate(-73.96 -2.642)" fill="#e6002d"/>
  </g>
  <path id="패스_51013" data-name="패스 51013" d="M99.083,15.065V13.424h-4.47V12.185H104.97v1.239h-4.484v1.641h3.651v3.929h-1.4v-2.7H95.32V15.065Zm5.028-7.136v3.359h-1.4V9.166H95.421V7.929Z" transform="translate(-58.671 0.793)" fill="#595857"/>
  <path id="패스_51014" data-name="패스 51014" d="M106.886,13.889h-6.074V10.453h4.559V9.33h-4.559V8.142h5.948V11.59H102.2v1.137h4.685Zm-5.444.593h1.377v.936h6.074v-.936h1.377v4.372h-8.828Zm7.451,2.073h-6.076v1.137h6.076Zm-.024-8.742h1.4V14.1h-1.4Z" transform="translate(-52.657 0.681)" fill="#595857"/>
</svg>
