<svg id="그룹_10401" data-name="그룹 10401" xmlns="http://www.w3.org/2000/svg" xmlns:xlink="http://www.w3.org/1999/xlink" width="104.173" height="28.587" viewBox="0 0 104.173 28.587">
  <defs>
    <clipPath id="clip-path">
      <rect id="사각형_3081" data-name="사각형 3081" width="104.173" height="28.587" fill="none"/>
    </clipPath>
  </defs>
  <g id="그룹_10400" data-name="그룹 10400" clip-path="url(#clip-path)">
    <path id="패스_50896" data-name="패스 50896" d="M17.918,76.724a5.087,5.087,0,0,0-.366-1.243,6.122,6.122,0,0,0-2.463-2.855,5.544,5.544,0,0,0-5.714.039A4.97,4.97,0,0,0,7.5,74.677a5.956,5.956,0,0,0-.359.883,6.2,6.2,0,0,0,.394,4.819,2.4,2.4,0,0,0,1.153,1,1.681,1.681,0,0,0,1.493-.112,1.593,1.593,0,0,0,.558-1.675,4.327,4.327,0,0,1,.059-2.329,1.672,1.672,0,0,1,.412-.664,1.546,1.546,0,0,1,.394-.272,1.629,1.629,0,0,1,.985-.158,1.879,1.879,0,0,1,1.324,1.08,4.387,4.387,0,0,1,.359,1.726,25.878,25.878,0,0,1-1.151,7.727c-.067.254-.134.51-.211.762-.053.193-.154.445-.032.634a.51.51,0,0,0,.231.175.868.868,0,0,0,.95-.335,13.8,13.8,0,0,0,3.146-5.5,16.822,16.822,0,0,0,.6-2.3,10.024,10.024,0,0,0,.118-3.418" transform="translate(2.741 -59.847)" fill="#009091"/>
    <path id="패스_50897" data-name="패스 50897" d="M33.381,68.59a.655.655,0,0,0-.711-.632,3.493,3.493,0,0,0-1.064.339,42.975,42.975,0,0,1-21.158,2c-1.2-.171-2.413-.416-3.617-.6-.755-.12-1.5-.29-2.262-.349a2.736,2.736,0,0,0-1.98.38,2.09,2.09,0,0,0-.25,2.478A5.557,5.557,0,0,0,4.492,74.28a5.185,5.185,0,0,0,2.819.963q4.019-.254,8.013-.778c4.539-.585,9.3-1.141,13.563-2.9a16.942,16.942,0,0,0,3.964-2.224c.217-.162.53-.431.53-.747" transform="translate(-1.898 -63.627)" fill="#009091"/>
    <path id="패스_50898" data-name="패스 50898" d="M8.274,68.44a2.614,2.614,0,0,0,5.229,0,1.529,1.529,0,0,0-.14-.627c-.221-.477-.479-.707-.453-1.277.035-.764-.952-.778-1.482-.778a3.876,3.876,0,0,0-1.712.341,2.676,2.676,0,0,0-1.028.926,2.6,2.6,0,0,0-.414,1.357Z" transform="translate(4.138 -65.759)" fill="#e60044"/>
    <path id="패스_50899" data-name="패스 50899" d="M22.69,71.234v-2h2.951v2h3.944v1.9H27.518a7.186,7.186,0,0,1,1.539,4.537c-.02,3.564-2.025,6.222-4.892,6.222-2.953.022-4.918-2.658-4.918-6.222a7.075,7.075,0,0,1,1.521-4.537H18.828v-1.9Zm1.476,1.941c-1.16,0-2.088,1.771-2.069,4.494-.02,2.595.889,4.325,2.047,4.325,1.18,0,2.069-1.686,2.069-4.325,0-2.849-.845-4.494-2.047-4.494m10.168,3.755V88.321H31.484V69.23h2.849v5.8h2.742v1.9Z" transform="translate(14.377 -62.391)" fill="#231815"/>
    <path id="패스_50900" data-name="패스 50900" d="M32.295,80.939h4.79a6.518,6.518,0,0,0,3.458-.569V69.23h2.849v5.8h2.742v1.9H43.391V88.321H40.542V82.267a9.045,9.045,0,0,1-3.523.571H30.713a2.429,2.429,0,0,1-2.193-2.616V70.073h2.847V80.159c0,.485.315.78.928.78" transform="translate(23.78 -62.391)" fill="#231815"/>
    <path id="패스_50901" data-name="패스 50901" d="M37.663,77.882H54.748v1.9H49.9a5.333,5.333,0,0,1,1.519,3.757,5.222,5.222,0,1,1-10.442,0,5.442,5.442,0,0,1,1.5-3.757H37.663Zm15-6.647H47.768c.441,2,2.551,3.186,5.083,3.312v1.962c-3.1,0-5.907-1.33-6.73-2.636-.843,1.306-3.607,2.636-6.561,2.636V74.546c2.449-.126,4.6-1.287,5.063-3.312H39.793v-1.9H52.66Zm-6.454,8.819c-1.141,0-2.384,1.352-2.384,3.481-.022,2.151,1.158,3.438,2.364,3.438,1.16,0,2.382-1.287,2.382-3.438,0-2.195-1.18-3.481-2.362-3.481" transform="translate(32.651 -62.287)" fill="#231815"/>
    <path id="패스_50902" data-name="패스 50902" d="M53.977,76.275a9.058,9.058,0,0,0,.382-2.636V71.551H47.605v-1.9h9.6V73.6a10.129,10.129,0,0,1-.422,2.677h2v1.9H53.894v3.292H51.025V78.175H46.764v-1.9Zm-.041,10.359h8.755v1.9H52.269A2.323,2.323,0,0,1,50.243,86V82.206h2.849v3.584a.8.8,0,0,0,.843.845m8.755-17.4V83.26H59.842V80.9H55.73V79h4.112V69.23Z" transform="translate(41.48 -62.391)" fill="#231815"/>
  </g>
</svg>
