<svg xmlns="http://www.w3.org/2000/svg" xmlns:xlink="http://www.w3.org/1999/xlink" width="20.791" height="30" viewBox="0 0 20.791 30">
  <defs>
    <clipPath id="clip-path">
      <rect id="사각형_3037" data-name="사각형 3037" width="20.791" height="30" fill="none"/>
    </clipPath>
  </defs>
  <g id="그룹_10422" data-name="그룹 10422" transform="translate(0 0)">
    <g id="그룹_10340" data-name="그룹 10340" transform="translate(0 0)" clip-path="url(#clip-path)">
      <path id="패스_50680" data-name="패스 50680" d="M15,15.91V3.438a2.415,2.415,0,1,1,4.831,0V15.91h.01v5.217a7.539,7.539,0,0,1-7.54,7.538H7.962a7.539,7.539,0,0,1-7.54-7.538v-6.25" transform="translate(0.267 0.646)" fill="#fff"/>
      <path id="패스_50681" data-name="패스 50681" d="M12.564,29.62H8.228A8.238,8.238,0,0,1,0,21.394v-6.25a.689.689,0,0,1,1.377,0v6.25a6.858,6.858,0,0,0,6.851,6.849h4.336a6.858,6.858,0,0,0,6.851-6.849V16.286a.619.619,0,0,1-.01-.109V3.7a1.727,1.727,0,1,0-3.453,0V16.176a.689.689,0,0,1-1.377,0V3.7a3.1,3.1,0,1,1,6.208,0V16.067a.8.8,0,0,1,.008.109v5.217a8.236,8.236,0,0,1-8.227,8.227" transform="translate(0 0.379)" fill="#31bacd"/>
      <path id="패스_50682" data-name="패스 50682" d="M5.253,12.138a2.415,2.415,0,1,1-4.831,0V9.275a2.415,2.415,0,1,1,4.831,0Z" transform="translate(0.267 4.334)" fill="#fff"/>
      <path id="패스_50683" data-name="패스 50683" d="M3.1,7.814A1.73,1.73,0,0,0,1.377,9.542V12.4a1.727,1.727,0,1,0,3.453,0V9.542A1.729,1.729,0,0,0,3.1,7.814m0,7.695A3.107,3.107,0,0,1,0,12.4V9.542a3.1,3.1,0,1,1,6.208,0V12.4a3.107,3.107,0,0,1-3.1,3.1" transform="translate(0 4.068)" fill="#31bacd"/>
      <path id="패스_50684" data-name="패스 50684" d="M8.255,12.883a2.415,2.415,0,0,1-4.831,0V8.946a2.415,2.415,0,0,1,4.831,0Z" transform="translate(2.164 4.127)" fill="#fff"/>
      <path id="패스_50685" data-name="패스 50685" d="M6.106,7.486A1.727,1.727,0,0,0,4.379,9.213v3.936a1.727,1.727,0,0,0,3.453,0V9.213A1.728,1.728,0,0,0,6.106,7.486m0,8.767a3.107,3.107,0,0,1-3.1-3.1V9.213a3.1,3.1,0,0,1,6.208,0v3.936a3.107,3.107,0,0,1-3.1,3.1" transform="translate(1.897 3.86)" fill="#31bacd"/>
      <path id="패스_50686" data-name="패스 50686" d="M6.388,16.743V2.837a2.415,2.415,0,1,1,4.831,0V16.743" transform="translate(4.037 0.266)" fill="#fff"/>
      <path id="패스_50687" data-name="패스 50687" d="M11.486,17.7a.689.689,0,0,1-.689-.689V3.1a1.727,1.727,0,0,0-3.453,0V17.01a.689.689,0,0,1-1.377,0V3.1a3.1,3.1,0,1,1,6.208,0V17.01a.689.689,0,0,1-.689.689" transform="translate(3.771 -0.001)" fill="#31bacd"/>
      <path id="패스_50688" data-name="패스 50688" d="M15.038,10.758a7.366,7.366,0,0,0-3.713-.984H7.3a2.326,2.326,0,1,0,0,4.651h3.221A10.553,10.553,0,0,0,8.53,19.213" transform="translate(3.142 6.176)" fill="#fff"/>
      <path id="패스_50689" data-name="패스 50689" d="M8.8,20.169a.671.671,0,0,1-.127-.011.69.69,0,0,1-.55-.8A13.094,13.094,0,0,1,9.5,15.382H7.566a3.015,3.015,0,1,1,0-6.03H11.59A7.983,7.983,0,0,1,15.7,10.465a.688.688,0,1,1-.8,1.12A6.5,6.5,0,0,0,11.6,10.73H7.566a1.638,1.638,0,1,0,0,3.275h3.22a.687.687,0,0,1,.516,1.144,10.119,10.119,0,0,0-1.829,4.458.689.689,0,0,1-.676.561" transform="translate(2.875 5.909)" fill="#31bacd"/>
    </g>
  </g>
</svg>
