<svg xmlns="http://www.w3.org/2000/svg" width="115.727" height="82.735" viewBox="0 0 115.727 82.735">
  <g id="그룹_44" data-name="그룹 44" transform="translate(-279.204 -45.96)" opacity="0.236">
    <g id="그룹_35" data-name="그룹 35" transform="translate(330.777 112.491)">
      <g id="그룹_33" data-name="그룹 33" transform="translate(0 3.624)">
        <path id="패스_156" data-name="패스 156" d="M350.437,146.881a6.29,6.29,0,1,1,6.29-6.29A6.3,6.3,0,0,1,350.437,146.881Zm0-10.02a3.731,3.731,0,1,0,3.731,3.731A3.735,3.735,0,0,0,350.437,136.861Z" transform="translate(-344.147 -134.302)" fill="#28aec1"/>
      </g>
      <g id="그룹_34" data-name="그룹 34" transform="translate(0)">
        <rect id="사각형_190" data-name="사각형 190" width="2.558" height="10.02" fill="#28aec1"/>
      </g>
    </g>
    <g id="그룹_43" data-name="그룹 43" transform="translate(279.204 45.96)">
      <g id="그룹_42" data-name="그룹 42">
        <g id="그룹_40" data-name="그룹 40" transform="translate(78.809)">
          <path id="패스_164" data-name="패스 164" d="M383.8,137.741a6.488,6.488,0,0,1,1.734-.984,6.19,6.19,0,0,1,1.823-.343,14.494,14.494,0,0,1,3.971.5c1.322.324,2.579.718,3.522,1.042s1.548.553,1.548.553a15.384,15.384,0,0,1-1.559.759,17.324,17.324,0,0,1-3.745,1.128,10.045,10.045,0,0,1-4.385-.11A3.951,3.951,0,0,1,383.8,137.741Z" transform="translate(-379.545 -64.579)" fill="#28aec1"/>
          <path id="패스_165" data-name="패스 165" d="M387.417,129.474a7.659,7.659,0,0,1-2.243,3.022,3.967,3.967,0,0,1-1.623.751,3.092,3.092,0,0,1-1.82-.173,6.06,6.06,0,0,1,.938-3.434,10.465,10.465,0,0,1,2.306-2.487,25.626,25.626,0,0,1,2.436-1.721c.673-.419,1.129-.666,1.129-.666s0,.151-.029.409-.07.63-.142,1.072A13.384,13.384,0,0,1,387.417,129.474Z" transform="translate(-379.119 -62.183)" fill="#28aec1"/>
          <path id="패스_166" data-name="패스 166" d="M400.014,133.445a4.206,4.206,0,0,1-3.32-1.68,4.63,4.63,0,0,1,2.852-2.182,15.625,15.625,0,0,1,3.957-.508c1.365-.041,2.723-.008,3.74,0l1.7.029s-.127.14-.365.372c-.236.218-.581.542-1.006.892a15.906,15.906,0,0,1-3.425,2.148A9.326,9.326,0,0,1,400.014,133.445Z" transform="translate(-382.199 -63.066)" fill="#28aec1"/>
          <path id="패스_167" data-name="패스 167" d="M396.8,125.88a3.64,3.64,0,0,1-3.108,1.51,5.047,5.047,0,0,1-.079-3.6,11.063,11.063,0,0,1,1.638-3.022c.649-.891,1.306-1.65,1.791-2.2.236-.272.438-.49.585-.638s.215-.232.215-.232.046.137.112.38.137.6.2,1.028a10.967,10.967,0,0,1,.018,3.3A7.453,7.453,0,0,1,396.8,125.88Z" transform="translate(-381.505 -60.73)" fill="#28aec1"/>
          <path id="패스_168" data-name="패스 168" d="M415.82,115.917c.94-.295,1.546-.468,1.546-.468s-.057.155-.175.42-.318.623-.559,1.054-.536.928-.88,1.456c-.173.261-.356.53-.55.8l-.154.206-.19.255c-.135.165-.269.335-.4.5a8.586,8.586,0,0,1-3.784,2.726,3.947,3.947,0,0,1-3.728-.542A5.217,5.217,0,0,1,409,119.314c.245-.2.519-.38.793-.567s.569-.365.867-.542.6-.368.916-.546c.3-.162.588-.306.89-.449A28.145,28.145,0,0,1,415.82,115.917Z" transform="translate(-384.31 -60.265)" fill="#28aec1"/>
          <path id="패스_169" data-name="패스 169" d="M405.591,116.9a3.343,3.343,0,0,1-2.432,2.373,5.637,5.637,0,0,1-1.22-3.343,15.776,15.776,0,0,1,.2-3.028,11.02,11.02,0,0,1,.328-1.489c.142-.508.3-.962.438-1.341s.276-.7.368-.914.127-.342.127-.342.092.125.234.35.331.542.543.939a16.742,16.742,0,0,1,1.262,3.132c.089.309.164.626.227.943a8.237,8.237,0,0,1,.133.91,6.5,6.5,0,0,1-.024.921A5.139,5.139,0,0,1,405.591,116.9Z" transform="translate(-383.276 -58.9)" fill="#28aec1"/>
          <path id="패스_170" data-name="패스 170" d="M418.582,108.451a5.722,5.722,0,0,1-.729.719,7.341,7.341,0,0,1-.794.593,4.284,4.284,0,0,1-3.626.611,3.9,3.9,0,0,1,.113-1.824,3.951,3.951,0,0,1,.353-.8c.142-.262.324-.505.492-.755a11.893,11.893,0,0,1,2.91-2.6,31.744,31.744,0,0,1,3.064-1.905c.882-.475,1.44-.77,1.44-.77s-.026.17-.1.453-.2.685-.36,1.168a15.3,15.3,0,0,1-1.545,3.42A13.932,13.932,0,0,1,418.582,108.451Z" transform="translate(-385.633 -57.438)" fill="#28aec1"/>
          <path id="패스_171" data-name="패스 171" d="M409.946,107.161a3.532,3.532,0,0,1-1.157,1.345,4.887,4.887,0,0,1-2.247-2.829,6.989,6.989,0,0,1-.215-.855c-.026-.144-.048-.291-.066-.431s-.044-.295-.067-.445a11.019,11.019,0,0,1-.075-1.747,29.04,29.04,0,0,1,.285-2.969c.064-.387.138-.7.188-.925s.059-.346.059-.346.113.1.295.287a9.868,9.868,0,0,1,.71.8,15.528,15.528,0,0,1,1.829,2.811,8.474,8.474,0,0,1,.877,3.615,3.322,3.322,0,0,1-.116.877A3.875,3.875,0,0,1,409.946,107.161Z" transform="translate(-384.138 -56.664)" fill="#28aec1"/>
          <path id="패스_172" data-name="패스 172" d="M421.55,94.582a7.61,7.61,0,0,1-.547.87,7.925,7.925,0,0,1-.666.745,4.245,4.245,0,0,1-3.453,1.311,3.872,3.872,0,0,1-.236-1.805,4.532,4.532,0,0,1,.192-.855,6.286,6.286,0,0,1,.311-.836,8.228,8.228,0,0,1,1.009-1.621c.208-.262.416-.523.621-.785s.427-.508.648-.755c.9-.987,1.891-1.89,2.578-2.568.709-.667,1.21-1.1,1.21-1.1s.018.685-.042,1.717a16.4,16.4,0,0,1-.26,1.75c-.057.32-.129.648-.21.983a7.487,7.487,0,0,1-.291,1.006A14.352,14.352,0,0,1,421.55,94.582Z" transform="translate(-386.302 -54.447)" fill="#28aec1"/>
          <path id="패스_173" data-name="패스 173" d="M411.721,96.766a5.006,5.006,0,0,1-2.754-2.314,6.436,6.436,0,0,1-.376-.77,7.856,7.856,0,0,1-.334-.807,9.949,9.949,0,0,1-.42-1.639c-.1-.534-.214-1.058-.268-1.541-.029-.243-.048-.475-.066-.692s-.022-.427-.048-.615a9.995,9.995,0,0,1-.072-1.245,13.783,13.783,0,0,1,1.229.8c.178.129.372.276.577.438s.415.339.609.527a14.191,14.191,0,0,1,1.214,1.3c.2.239.385.494.569.755.087.133.175.269.258.405s.149.273.215.413a7.119,7.119,0,0,1,.6,1.728,4.745,4.745,0,0,1,.083.874,3.927,3.927,0,0,1-.137.847A3.514,3.514,0,0,1,411.721,96.766Z" transform="translate(-384.4 -54.438)" fill="#28aec1"/>
          <path id="패스_174" data-name="패스 174" d="M418.417,77.292c.306-.586.636-1.16.956-1.695s.628-1.02.877-1.433c.516-.825.89-1.364.89-1.364s.2.653.4,1.658c.078.512.149,1.113.2,1.765.028.324.046.659.054,1s-.023.7-.054,1.057a11.948,11.948,0,0,1-.333,2.1,8.09,8.09,0,0,1-.8,1.88,4.135,4.135,0,0,1-3.053,2.085,3.842,3.842,0,0,1-.409-.837,4.389,4.389,0,0,1-.231-.847A4.524,4.524,0,0,1,417,80.9a9.1,9.1,0,0,1,.554-1.805C417.812,78.493,418.128,77.882,418.417,77.292Z" transform="translate(-386.351 -51.485)" fill="#28aec1"/>
          <path id="패스_175" data-name="패스 175" d="M408.659,83.338a6.817,6.817,0,0,1-1.05-1.327,9.969,9.969,0,0,1-.833-1.437c-.122-.239-.21-.479-.324-.711s-.214-.461-.3-.682c-.186-.442-.317-.854-.438-1.2a10.456,10.456,0,0,1-.385-1.171,13.191,13.191,0,0,1,1.393.449,12.406,12.406,0,0,1,2.893,1.547,7.944,7.944,0,0,1,.736.586,8.635,8.635,0,0,1,.65.659,6.453,6.453,0,0,1,1.017,1.507,4.246,4.246,0,0,1,.361,1.669,2.924,2.924,0,0,1-.116.847,3.787,3.787,0,0,1-.393.829A5.223,5.223,0,0,1,408.659,83.338Z" transform="translate(-383.976 -52.31)" fill="#28aec1"/>
          <path id="패스_176" data-name="패스 176" d="M414.355,70.987a3.544,3.544,0,0,1-.442-.751,3.873,3.873,0,0,1-.256-.829c-.057-.284-.079-.582-.113-.877a8.536,8.536,0,0,1,.1-1.883,18.863,18.863,0,0,1,.377-1.946c.332-1.3.695-2.524,1.013-3.456s.543-1.53.543-1.53.089.141.229.4.322.633.527,1.1a15.881,15.881,0,0,1,1.149,3.582,13.143,13.143,0,0,1,.187,2.1,5.5,5.5,0,0,1-.082,1.028,6.651,6.651,0,0,1-.208.973,4.43,4.43,0,0,1-.864,1.657,4.136,4.136,0,0,1-1.551,1.128A3.67,3.67,0,0,1,414.355,70.987Z" transform="translate(-385.665 -48.792)" fill="#28aec1"/>
          <path id="패스_177" data-name="패스 177" d="M400.9,67.607c-.116-.184-.179-.295-.179-.295s.149,0,.4.01.621.037,1.058.093a14.471,14.471,0,0,1,1.5.261c.271.066.564.133.844.221s.564.188.849.3a9.6,9.6,0,0,1,1.664.843,6.838,6.838,0,0,1,1.352,1.194,3.575,3.575,0,0,1,.476.722,4.371,4.371,0,0,1,.3.789,2.852,2.852,0,0,1-.063,1.735,4.9,4.9,0,0,1-1.879-.044,6.116,6.116,0,0,1-1.619-.626,7.173,7.173,0,0,1-.708-.468c-.114-.085-.219-.173-.324-.266s-.222-.176-.328-.268a9.792,9.792,0,0,1-1.153-1.183,12.834,12.834,0,0,1-.966-1.2c-.068-.1-.133-.191-.2-.287s-.133-.185-.2-.269c-.127-.177-.245-.346-.346-.5C401.163,68.06,401.006,67.791,400.9,67.607Z" transform="translate(-383.028 -50.356)" fill="#28aec1"/>
          <path id="패스_178" data-name="패스 178" d="M409.234,60.308a3.7,3.7,0,0,1-1.358-1.149,4.323,4.323,0,0,1-.764-1.555,12.661,12.661,0,0,1-.4-3.81c0-.332.018-.663.036-.984s.032-.63.056-.932c.044-.608.1-1.171.16-1.657.1-.955.2-1.588.2-1.588s.11.125.3.335.453.527.744.932.638.87.958,1.415a15.8,15.8,0,0,1,.912,1.769,11.633,11.633,0,0,1,.648,1.971,7.776,7.776,0,0,1,.184,1.982A4.264,4.264,0,0,1,409.234,60.308Z" transform="translate(-384.262 -46.51)" fill="#28aec1"/>
          <path id="패스_179" data-name="패스 179" d="M397.02,61.677A13.655,13.655,0,0,1,395.8,60.7c-.37-.317-.708-.615-.974-.884s-.5-.487-.652-.649-.234-.251-.234-.251a14.081,14.081,0,0,1,1.46-.214,14.827,14.827,0,0,1,1.519-.063,11.448,11.448,0,0,1,1.778.141,7.6,7.6,0,0,1,3.4,1.293,4.276,4.276,0,0,1,1.114,1.275,3.346,3.346,0,0,1,.352,1.7,5.055,5.055,0,0,1-3.557.184,7.009,7.009,0,0,1-1.574-.66A10.432,10.432,0,0,1,397.02,61.677Z" transform="translate(-381.632 -48.571)" fill="#28aec1"/>
          <path id="패스_180" data-name="패스 180" d="M391.192,113.516a29.527,29.527,0,0,0,7.956-6.392,32.207,32.207,0,0,0,5.167-8.908c2.465-6.018,4.029-12.257,3.638-18.8-.442-7.616-3.434-14.909-7.616-21.249a54.248,54.248,0,0,0-3.5-4.76,3.951,3.951,0,0,1-1.275-.119,5.031,5.031,0,0,1-1.53-.714c-.221-.17-.442-.357-.646-.544-.222-.2-.426-.408-.629-.629a17.154,17.154,0,0,1-1.088-1.411c-.663-.986-1.225-2.006-1.649-2.771-.2-.374-.374-.7-.476-.935-.068-.1-.1-.187-.136-.238a.206.206,0,0,0-.034-.085h.085c.068,0,.17.017.289.017.255.052.629.1,1.054.2a14.7,14.7,0,0,1,3.161,1.207,8.3,8.3,0,0,1,2.873,2.482,4.358,4.358,0,0,1,.68,1.649,3.344,3.344,0,0,1-.051,1.53,53.892,53.892,0,0,1,7.276,11.56,41.4,41.4,0,0,1,3.944,15.911c.237,6.341-1.479,12.41-3.859,18.224a30.415,30.415,0,0,1-8.55,12.172,46.121,46.121,0,0,1-12.325,6.766c-1.647.665-3.522,1.54-5.508,2.494v-.62A118.827,118.827,0,0,0,391.192,113.516Z" transform="translate(-378.442 -45.96)" fill="#28aec1"/>
        </g>
        <g id="그룹_41" data-name="그룹 41">
          <path id="패스_181" data-name="패스 181" d="M317.066,137.741a6.5,6.5,0,0,0-1.734-.984,6.2,6.2,0,0,0-1.823-.343,14.491,14.491,0,0,0-3.971.5c-1.322.324-2.579.718-3.522,1.042s-1.548.553-1.548.553a15.381,15.381,0,0,0,1.559.759,17.324,17.324,0,0,0,3.745,1.128,10.041,10.041,0,0,0,4.384-.11A3.951,3.951,0,0,0,317.066,137.741Z" transform="translate(-284.405 -64.579)" fill="#28aec1"/>
          <path id="패스_182" data-name="패스 182" d="M314.951,129.474a7.658,7.658,0,0,0,2.243,3.022,3.967,3.967,0,0,0,1.623.751,3.092,3.092,0,0,0,1.82-.173,6.06,6.06,0,0,0-.938-3.434,10.465,10.465,0,0,0-2.306-2.487,25.634,25.634,0,0,0-2.436-1.721c-.673-.419-1.129-.666-1.129-.666s0,.151.029.409.07.63.142,1.072A13.382,13.382,0,0,0,314.951,129.474Z" transform="translate(-286.332 -62.183)" fill="#28aec1"/>
          <path id="패스_183" data-name="패스 183" d="M300.944,133.445a4.206,4.206,0,0,0,3.32-1.68,4.632,4.632,0,0,0-2.852-2.182,15.627,15.627,0,0,0-3.958-.508c-1.364-.041-2.722-.008-3.74,0l-1.7.029s.127.14.365.372c.236.218.581.542,1.006.892a15.9,15.9,0,0,0,3.425,2.148A9.325,9.325,0,0,0,300.944,133.445Z" transform="translate(-281.841 -63.066)" fill="#28aec1"/>
          <path id="패스_184" data-name="패스 184" d="M306.044,125.88a3.639,3.639,0,0,0,3.107,1.51,5.043,5.043,0,0,0,.079-3.6,11.082,11.082,0,0,0-1.638-3.022c-.649-.891-1.306-1.65-1.791-2.2-.236-.272-.438-.49-.585-.638S305,117.7,305,117.7s-.046.137-.112.38-.137.6-.2,1.028a10.967,10.967,0,0,0-.018,3.3A7.453,7.453,0,0,0,306.044,125.88Z" transform="translate(-284.422 -60.73)" fill="#28aec1"/>
          <path id="패스_185" data-name="패스 185" d="M285.613,115.917c-.94-.295-1.546-.468-1.546-.468s.057.155.175.42.317.623.558,1.054.537.928.881,1.456c.173.261.356.53.55.8l.154.206.19.255c.135.165.269.335.4.5a8.587,8.587,0,0,0,3.784,2.726,3.947,3.947,0,0,0,3.728-.542,5.217,5.217,0,0,0-2.058-3.011c-.245-.2-.519-.38-.793-.567s-.569-.365-.867-.542-.6-.368-.916-.546c-.3-.162-.588-.306-.89-.449A28.151,28.151,0,0,0,285.613,115.917Z" transform="translate(-280.205 -60.265)" fill="#28aec1"/>
          <path id="패스_186" data-name="패스 186" d="M297.537,116.9a3.343,3.343,0,0,0,2.432,2.373,5.636,5.636,0,0,0,1.22-3.343,15.768,15.768,0,0,0-.2-3.028,11.029,11.029,0,0,0-.328-1.489c-.142-.508-.3-.962-.438-1.341s-.276-.7-.368-.914-.127-.342-.127-.342-.092.125-.234.35a10.623,10.623,0,0,0-.543.939,16.748,16.748,0,0,0-1.262,3.132c-.089.309-.164.626-.227.943a8.251,8.251,0,0,0-.133.91,6.518,6.518,0,0,0,.024.921A5.142,5.142,0,0,0,297.537,116.9Z" transform="translate(-282.934 -58.9)" fill="#28aec1"/>
          <path id="패스_187" data-name="패스 187" d="M283.367,108.451a5.72,5.72,0,0,0,.729.719,7.349,7.349,0,0,0,.794.593,4.284,4.284,0,0,0,3.626.611,3.9,3.9,0,0,0-.113-1.824,3.953,3.953,0,0,0-.353-.8c-.142-.262-.325-.505-.492-.755a11.873,11.873,0,0,0-2.909-2.6,31.755,31.755,0,0,0-3.064-1.905c-.882-.475-1.441-.77-1.441-.77s.026.17.1.453.2.685.36,1.168a15.307,15.307,0,0,0,1.545,3.42A13.925,13.925,0,0,0,283.367,108.451Z" transform="translate(-279.397 -57.438)" fill="#28aec1"/>
          <path id="패스_188" data-name="패스 188" d="M293.086,107.161a3.545,3.545,0,0,0,1.157,1.345,4.886,4.886,0,0,0,2.248-2.829,7.125,7.125,0,0,0,.215-.855c.026-.144.048-.291.066-.431s.044-.295.067-.445a11.019,11.019,0,0,0,.075-1.747,29.049,29.049,0,0,0-.285-2.969c-.064-.387-.138-.7-.188-.925s-.059-.346-.059-.346-.113.1-.295.287a9.868,9.868,0,0,0-.71.8,15.524,15.524,0,0,0-1.829,2.811,8.473,8.473,0,0,0-.877,3.615,3.319,3.319,0,0,0,.116.877A3.916,3.916,0,0,0,293.086,107.161Z" transform="translate(-281.976 -56.664)" fill="#28aec1"/>
          <path id="패스_189" data-name="패스 189" d="M280.873,94.582a7.727,7.727,0,0,0,.548.87,7.908,7.908,0,0,0,.666.745,4.245,4.245,0,0,0,3.453,1.311,3.872,3.872,0,0,0,.236-1.805,4.537,4.537,0,0,0-.192-.855,6.278,6.278,0,0,0-.311-.836,8.228,8.228,0,0,0-1.009-1.621c-.208-.262-.416-.523-.621-.785s-.427-.508-.649-.755c-.9-.987-1.89-1.89-2.577-2.568-.709-.667-1.21-1.1-1.21-1.1s-.018.685.042,1.717a16.173,16.173,0,0,0,.26,1.75c.057.32.129.648.21.983a7.469,7.469,0,0,0,.291,1.006A14.436,14.436,0,0,0,280.873,94.582Z" transform="translate(-279.204 -54.447)" fill="#28aec1"/>
          <path id="패스_190" data-name="패스 190" d="M291.026,96.766a5.006,5.006,0,0,0,2.754-2.314,6.436,6.436,0,0,0,.376-.77,8.023,8.023,0,0,0,.334-.807,9.946,9.946,0,0,0,.42-1.639c.1-.534.214-1.058.268-1.541.029-.243.048-.475.066-.692s.022-.427.048-.615a9.987,9.987,0,0,0,.072-1.245,13.786,13.786,0,0,0-1.229.8c-.178.129-.372.276-.577.438s-.415.339-.61.527a14.3,14.3,0,0,0-1.213,1.3c-.2.239-.385.494-.569.755-.087.133-.176.269-.258.405s-.149.273-.215.413a7.122,7.122,0,0,0-.6,1.728,4.751,4.751,0,0,0-.083.874,3.931,3.931,0,0,0,.137.847A3.514,3.514,0,0,0,291.026,96.766Z" transform="translate(-281.429 -54.438)" fill="#28aec1"/>
          <path id="패스_191" data-name="패스 191" d="M284.439,77.292c-.306-.586-.636-1.16-.956-1.695s-.628-1.02-.877-1.433c-.516-.825-.89-1.364-.89-1.364s-.2.653-.4,1.658c-.078.512-.149,1.113-.2,1.765-.028.324-.046.659-.054,1s.022.7.054,1.057a11.948,11.948,0,0,0,.333,2.1,8.087,8.087,0,0,0,.8,1.88,4.135,4.135,0,0,0,3.053,2.085,3.878,3.878,0,0,0,.409-.837,4.389,4.389,0,0,0,.231-.847,4.524,4.524,0,0,0-.089-1.757A9.1,9.1,0,0,0,285.3,79.1C285.045,78.493,284.728,77.882,284.439,77.292Z" transform="translate(-279.587 -51.485)" fill="#28aec1"/>
          <path id="패스_192" data-name="패스 192" d="M293.647,83.338a6.818,6.818,0,0,0,1.05-1.327,9.981,9.981,0,0,0,.833-1.437c.121-.239.21-.479.324-.711s.214-.461.3-.682c.186-.442.317-.854.438-1.2a10.448,10.448,0,0,0,.385-1.171,13.192,13.192,0,0,0-1.393.449,12.405,12.405,0,0,0-2.893,1.547,7.932,7.932,0,0,0-.736.586,8.623,8.623,0,0,0-.65.659,6.454,6.454,0,0,0-1.017,1.507,4.247,4.247,0,0,0-.361,1.669,2.924,2.924,0,0,0,.116.847,3.818,3.818,0,0,0,.392.829A5.223,5.223,0,0,0,293.647,83.338Z" transform="translate(-281.412 -52.31)" fill="#28aec1"/>
          <path id="패스_193" data-name="패스 193" d="M288.7,70.987a3.543,3.543,0,0,0,.442-.751,3.875,3.875,0,0,0,.256-.829c.057-.284.079-.582.113-.877a8.536,8.536,0,0,0-.1-1.883,18.846,18.846,0,0,0-.377-1.946c-.332-1.3-.695-2.524-1.013-3.456s-.544-1.53-.544-1.53-.088.141-.228.4-.322.633-.527,1.1a15.878,15.878,0,0,0-1.149,3.582,13.146,13.146,0,0,0-.187,2.1,5.56,5.56,0,0,0,.081,1.028,6.761,6.761,0,0,0,.209.973,4.431,4.431,0,0,0,.864,1.657,4.136,4.136,0,0,0,1.551,1.128A3.674,3.674,0,0,0,288.7,70.987Z" transform="translate(-280.477 -48.792)" fill="#28aec1"/>
          <path id="패스_194" data-name="패스 194" d="M301.023,67.607c.116-.184.179-.295.179-.295s-.149,0-.4.01-.621.037-1.058.093a14.471,14.471,0,0,0-1.5.261c-.272.066-.564.133-.844.221s-.564.188-.849.3a9.6,9.6,0,0,0-1.664.843,6.839,6.839,0,0,0-1.352,1.194,3.577,3.577,0,0,0-.476.722,4.373,4.373,0,0,0-.3.789,2.852,2.852,0,0,0,.063,1.735,4.9,4.9,0,0,0,1.879-.044,6.115,6.115,0,0,0,1.619-.626,7.174,7.174,0,0,0,.708-.468c.114-.085.219-.173.324-.266s.222-.176.328-.268a9.787,9.787,0,0,0,1.153-1.183,12.954,12.954,0,0,0,.966-1.2c.068-.1.133-.191.2-.287s.133-.185.2-.269c.127-.177.245-.346.346-.5C300.757,68.06,300.913,67.791,301.023,67.607Z" transform="translate(-281.974 -50.356)" fill="#28aec1"/>
          <path id="패스_195" data-name="패스 195" d="M293.808,60.308a3.687,3.687,0,0,0,1.357-1.149,4.31,4.31,0,0,0,.765-1.555,12.661,12.661,0,0,0,.4-3.81c0-.332-.018-.663-.037-.984s-.032-.63-.056-.932c-.044-.608-.1-1.171-.16-1.657-.1-.955-.2-1.588-.2-1.588s-.11.125-.3.335-.453.527-.744.932-.638.87-.958,1.415a15.811,15.811,0,0,0-.912,1.769,11.633,11.633,0,0,0-.648,1.971,7.775,7.775,0,0,0-.184,1.982A4.264,4.264,0,0,0,293.808,60.308Z" transform="translate(-281.861 -46.51)" fill="#28aec1"/>
          <path id="패스_196" data-name="패스 196" d="M304.618,61.677a13.65,13.65,0,0,0,1.221-.973c.37-.317.708-.615.974-.884s.5-.487.652-.649.234-.251.234-.251a14.081,14.081,0,0,0-1.46-.214,14.829,14.829,0,0,0-1.519-.063,11.449,11.449,0,0,0-1.778.141,7.6,7.6,0,0,0-3.4,1.293,4.275,4.275,0,0,0-1.114,1.275,3.347,3.347,0,0,0-.352,1.7,5.055,5.055,0,0,0,3.557.184,7.007,7.007,0,0,0,1.574-.66A10.431,10.431,0,0,0,304.618,61.677Z" transform="translate(-283.088 -48.571)" fill="#28aec1"/>
          <path id="패스_197" data-name="패스 197" d="M305.1,113.516a29.527,29.527,0,0,1-7.956-6.392,32.209,32.209,0,0,1-5.167-8.908c-2.465-6.018-4.029-12.257-3.638-18.8.442-7.616,3.434-14.909,7.616-21.249a54.242,54.242,0,0,1,3.5-4.76,3.95,3.95,0,0,0,1.275-.119,5.04,5.04,0,0,0,1.53-.714c.221-.17.442-.357.646-.544.222-.2.426-.408.629-.629a17.14,17.14,0,0,0,1.088-1.411c.663-.986,1.224-2.006,1.649-2.771.2-.374.374-.7.476-.935.068-.1.1-.187.136-.238a.207.207,0,0,1,.034-.085h-.085c-.068,0-.17.017-.289.017-.255.052-.629.1-1.054.2a14.719,14.719,0,0,0-3.162,1.207,8.3,8.3,0,0,0-2.872,2.482,4.36,4.36,0,0,0-.681,1.649,3.344,3.344,0,0,0,.052,1.53,53.893,53.893,0,0,0-7.276,11.56A41.4,41.4,0,0,0,287.6,80.52c-.237,6.341,1.479,12.41,3.859,18.224a30.416,30.416,0,0,0,8.55,12.172,46.121,46.121,0,0,0,12.325,6.766c1.647.665,3.522,1.54,5.508,2.494v-.62A118.827,118.827,0,0,1,305.1,113.516Z" transform="translate(-280.928 -45.96)" fill="#28aec1"/>
        </g>
      </g>
    </g>
  </g>
</svg>
