<svg xmlns="http://www.w3.org/2000/svg" width="46" height="46" viewBox="0 0 46 46">
  <g id="그룹_2451" data-name="그룹 2451" transform="translate(-995 -3249)">
    <circle id="타원_107" data-name="타원 107" cx="23" cy="23" r="23" transform="translate(995 3249)" fill="#26c6da"/>
    <g id="Phone" transform="translate(751.917 3110.59)">
      <path id="패스_914" data-name="패스 914" d="M281.829,160.639a19.265,19.265,0,0,0-10.222-10.173.736.736,0,0,0-.969.422.776.776,0,0,0,.409,1,17.765,17.765,0,0,1,9.425,9.38.743.743,0,0,0,.679.453.718.718,0,0,0,.3-.068A.777.777,0,0,0,281.829,160.639Z" transform="translate(-3.811)" fill="#fff"/>
      <path id="패스_915" data-name="패스 915" d="M270.532,157.338a10.762,10.762,0,0,1,5.716,5.676.719.719,0,0,0,.657.437.694.694,0,0,0,.294-.066.749.749,0,0,0,.361-.979,12.217,12.217,0,0,0-6.488-6.442.713.713,0,0,0-.937.408A.749.749,0,0,0,270.532,157.338Z" transform="translate(-3.688 -1.352)" fill="#fff"/>
      <path id="패스_916" data-name="패스 916" d="M274.11,165.062a1.755,1.755,0,0,0-2.651,0c-.62.615-1.24,1.229-1.849,1.854a.421.421,0,0,1-.3.159.433.433,0,0,1-.213-.066c-.4-.219-.829-.4-1.214-.636a19.229,19.229,0,0,1-4.635-4.218,11.006,11.006,0,0,1-1.661-2.661.382.382,0,0,1,.094-.489c.62-.6,1.224-1.213,1.833-1.828a1.76,1.76,0,0,0,0-2.713c-.485-.489-.969-.968-1.453-1.458-.5-.5-.995-1.005-1.5-1.5a1.765,1.765,0,0,0-2.651.006c-.625.615-1.224,1.244-1.86,1.848a3.02,3.02,0,0,0-.948,2.036,8.618,8.618,0,0,0,.667,3.713,22.557,22.557,0,0,0,4,6.671,24.78,24.78,0,0,0,8.208,6.421,11.869,11.869,0,0,0,4.546,1.323c.1.005.2.008.292.008a3.249,3.249,0,0,0,2.568-1.1c.531-.594,1.13-1.136,1.692-1.7a1.772,1.772,0,0,0,.011-2.7Q275.6,166.544,274.11,165.062Zm1.9,4.61c-.185.187-.376.372-.566.556-.391.38-.8.773-1.181,1.2a1.754,1.754,0,0,1-1.443.593c-.068,0-.137,0-.21-.006a10.244,10.244,0,0,1-3.969-1.173,23.387,23.387,0,0,1-7.713-6.036,20.969,20.969,0,0,1-3.746-6.23,7.088,7.088,0,0,1-.575-3.064,1.524,1.524,0,0,1,.483-1.062c.393-.373.771-.755,1.151-1.138.241-.244.482-.487.729-.73a.3.3,0,0,1,.535,0c.333.326.66.655.987.985l.5.5c.247.25.493.5.74.743s.476.475.716.718c.277.279.262.329,0,.588l-.254.256c-.517.521-1.03,1.041-1.575,1.567a1.878,1.878,0,0,0-.418,2.14,12.3,12.3,0,0,0,1.883,3.029,20.636,20.636,0,0,0,5.007,4.547c.3.184.6.331.86.462.144.07.287.14.407.206a1.925,1.925,0,0,0,.955.261,1.889,1.889,0,0,0,1.377-.615c.6-.611,1.2-1.212,1.832-1.837a.29.29,0,0,1,.524,0q1.49,1.482,2.973,2.967C276.248,169.329,276.272,169.4,276.007,169.672Z" transform="translate(0 -0.123)" fill="#fff"/>
    </g>
  </g>
</svg>
