<svg xmlns="http://www.w3.org/2000/svg" width="60" height="60" viewBox="0 0 60 60">
  <g id="그룹_219" data-name="그룹 219" transform="translate(-779.799 -1060.335)">
    <g id="그룹_209" data-name="그룹 209" transform="translate(779.799 1060.335)">
      <circle id="타원_34" data-name="타원 34" cx="30" cy="30" r="30" fill="#3f3d38"/>
    </g>
    <g id="그룹_210" data-name="그룹 210" transform="translate(779.799 1060.335)">
      <path id="패스_558" data-name="패스 558" d="M779.8,1090.335a30.218,30.218,0,0,0,30.432,30,30.85,30.85,0,0,0,8.279-1.133,3.275,3.275,0,0,0,.025-.392v-56.95a3.273,3.273,0,0,0-.025-.392,30.806,30.806,0,0,0-8.279-1.133A30.218,30.218,0,0,0,779.8,1090.335Z" transform="translate(-779.799 -1060.335)" fill="#26c6da"/>
    </g>
    <g id="그룹_211" data-name="그룹 211" transform="translate(779.799 1063.213)">
      <path id="패스_559" data-name="패스 559" d="M812.521,1062.733H797.308a30.424,30.424,0,0,0-8.883,48.771h24.1a2.73,2.73,0,0,0,2.729-2.73v-43.312A2.729,2.729,0,0,0,812.521,1062.733Z" transform="translate(-779.799 -1062.733)" fill="#e5e5e5"/>
    </g>
    <g id="그룹_212" data-name="그룹 212" transform="translate(783.455 1068.013)">
      <path id="패스_560" data-name="패스 560" d="M784.551,1092.925a1.7,1.7,0,0,1-1.206-2.91l22.781-22.781a1.705,1.705,0,0,1,2.412,2.411l-22.781,22.781A1.7,1.7,0,0,1,784.551,1092.925Z" transform="translate(-782.846 -1066.733)" fill="#fff"/>
    </g>
    <g id="그룹_213" data-name="그룹 213" transform="translate(793.107 1093.625)">
      <path id="패스_561" data-name="패스 561" d="M792.8,1101.438a1.705,1.705,0,0,1-1.206-2.911l9.445-9.443a1.705,1.705,0,0,1,2.412,2.411L794,1100.939A1.7,1.7,0,0,1,792.8,1101.438Z" transform="translate(-791.092 -1088.583)" fill="#fff"/>
    </g>
    <g id="그룹_214" data-name="그룹 214" transform="translate(794.042 1113.872)">
      <path id="패스_562" data-name="패스 562" d="M794.508,1105.666a2.785,2.785,0,0,0-2.653,1.939,30.331,30.331,0,0,0,4.926,2.451,2.782,2.782,0,0,0-2.273-4.39Z" transform="translate(-791.855 -1105.666)" fill="#fff"/>
    </g>
  </g>
</svg>
