<svg xmlns="http://www.w3.org/2000/svg" width="226.633" height="168.869" viewBox="0 0 226.633 168.869">
  <g id="Ebook-rafiki" transform="translate(0 -55)" opacity="0.725" style="mix-blend-mode: darken;isolation: isolate">
    <g id="freepik--background-complete--inject-11" transform="translate(0 55)">
      <rect id="사각형_455" data-name="사각형 455" width="226.633" height="0.113" transform="translate(0 148.399)" fill="#ebebeb"/>
      <rect id="사각형_456" data-name="사각형 456" width="15.012" height="0.113" transform="translate(188.912 155.692)" fill="#ebebeb"/>
      <rect id="사각형_457" data-name="사각형 457" width="3.939" height="0.113" transform="translate(146.192 156.925)" fill="#ebebeb"/>
      <rect id="사각형_458" data-name="사각형 458" width="8.698" height="0.113" transform="translate(179.761 151.486)" fill="#ebebeb"/>
      <rect id="사각형_459" data-name="사각형 459" width="19.577" height="0.113" transform="translate(23.778 152.248)" fill="#ebebeb"/>
      <rect id="사각형_460" data-name="사각형 460" width="2.869" height="0.113" transform="translate(47.394 152.248)" fill="#ebebeb"/>
      <rect id="사각형_461" data-name="사각형 461" width="42.462" height="0.113" transform="translate(59.591 154.16)" fill="#ebebeb"/>
      <path id="패스_282" data-name="패스 282" d="M128.315,183.184H40.794A2.588,2.588,0,0,1,38.21,180.6V57.565A2.588,2.588,0,0,1,40.794,55h87.521a2.588,2.588,0,0,1,2.588,2.588V180.6A2.588,2.588,0,0,1,128.315,183.184ZM40.794,55.091a2.475,2.475,0,0,0-2.47,2.475V180.6a2.475,2.475,0,0,0,2.47,2.475h87.521a2.479,2.479,0,0,0,2.475-2.475V57.565a2.479,2.479,0,0,0-2.475-2.475Z" transform="translate(-20.891 -55)" fill="#ebebeb"/>
      <path id="패스_283" data-name="패스 283" d="M344.614,183.184H257.088A2.593,2.593,0,0,1,254.5,180.6V57.565A2.593,2.593,0,0,1,257.088,55h87.526a2.588,2.588,0,0,1,2.579,2.565V180.6A2.588,2.588,0,0,1,344.614,183.184ZM257.088,55.091a2.479,2.479,0,0,0-2.475,2.475V180.6a2.479,2.479,0,0,0,2.475,2.475h87.526a2.479,2.479,0,0,0,2.475-2.475V57.565a2.479,2.479,0,0,0-2.475-2.475Z" transform="translate(-139.144 -55)" fill="#ebebeb"/>
      <path id="패스_284" data-name="패스 284" d="M98.2,123.888a6.84,6.84,0,0,1,2.022-5.747c2.556-2.248,2.33-3.581,1.6-3.753s-1.405,2.071-2.525,2.688c0,0-.036-3.2,1.1-4.379s1.741-4.215.657-4.27-1.2,1.813-1.423,3.118a11.223,11.223,0,0,1-1.432,3.173,12.52,12.52,0,0,0-.975-4.043c-.734-1.178,1.228-3.875.453-5.054s-2.108,1.07-1.994,3.594,1.813,5.222,1.4,7.86c0,0-.739-1.854-1.41-2.022s-1.36-1.392-1.786-1.849-1.011,1.12,0,2.579,3.59,5.362,3.2,8.521Z" transform="translate(-51.024 -82.5)" fill="#e6e6e6"/>
      <path id="패스_285" data-name="패스 285" d="M100.944,142.8l.839,5.249a2.67,2.67,0,0,1-2.638,3.087h-.907a2.67,2.67,0,0,1-2.638-3.087l.839-5.249Z" transform="translate(-52.25 -103.003)" fill="#e6e6e6"/>
      <rect id="사각형_462" data-name="사각형 462" width="2.606" height="11.196" transform="translate(101.513 47.103) rotate(180)" fill="#ebebeb"/>
      <rect id="사각형_463" data-name="사각형 463" width="2.606" height="11.196" transform="translate(88.922 47.103) rotate(180)" fill="#ebebeb"/>
      <rect id="사각형_464" data-name="사각형 464" width="2.606" height="11.196" transform="matrix(-0.985, -0.17, 0.17, -0.985, 72.683, 47.099)" fill="#ebebeb"/>
      <rect id="사각형_465" data-name="사각형 465" width="2.606" height="9.723" transform="translate(98.286 47.103) rotate(180)" fill="#ebebeb"/>
      <rect id="사각형_466" data-name="사각형 466" width="2.606" height="9.723" transform="translate(92.299 47.103) rotate(180)" fill="#ebebeb"/>
      <rect id="사각형_467" data-name="사각형 467" width="2.606" height="9.723" transform="translate(77.187 47.103) rotate(180)" fill="#ebebeb"/>
      <rect id="사각형_468" data-name="사각형 468" width="2.606" height="9.723" transform="translate(83.33 47.099) rotate(-167.47)" fill="#ebebeb"/>
      <rect id="사각형_469" data-name="사각형 469" width="1.301" height="11.753" transform="translate(94.733 47.099) rotate(180)" fill="#ebebeb"/>
      <rect id="사각형_470" data-name="사각형 470" width="1.301" height="11.753" transform="translate(79.24 47.099) rotate(180)" fill="#ebebeb"/>
      <rect id="사각형_471" data-name="사각형 471" width="12.691" height="8.762" transform="translate(55.956 38.215)" fill="#ebebeb"/>
      <rect id="사각형_472" data-name="사각형 472" width="10.634" height="6.541" transform="translate(101.545 41.805)" fill="#ebebeb"/>
      <rect id="사각형_473" data-name="사각형 473" width="5.317" height="6.541" transform="translate(104.378 36.053)" fill="#ebebeb"/>
      <rect id="사각형_474" data-name="사각형 474" width="68.085" height="99.823" transform="translate(46.306 46.374)" fill="#f0f0f0"/>
      <rect id="사각형_475" data-name="사각형 475" width="63.271" height="18.434" transform="translate(48.713 49.519)" fill="#e0e0e0"/>
      <rect id="사각형_476" data-name="사각형 476" width="3.594" height="15.452" transform="translate(48.713 52.502)" fill="#ebebeb"/>
      <rect id="사각형_477" data-name="사각형 477" width="3.594" height="15.452" transform="translate(66.091 52.502)" fill="#ebebeb"/>
      <rect id="사각형_478" data-name="사각형 478" width="3.594" height="15.452" transform="matrix(0.985, -0.17, 0.17, 0.985, 85.872, 52.724)" fill="#ebebeb"/>
      <rect id="사각형_479" data-name="사각형 479" width="3.594" height="13.417" transform="translate(53.164 54.537)" fill="#ebebeb"/>
      <rect id="사각형_480" data-name="사각형 480" width="3.594" height="13.417" transform="translate(61.427 54.537)" fill="#ebebeb"/>
      <rect id="사각형_481" data-name="사각형 481" width="3.594" height="13.417" transform="translate(82.277 54.537)" fill="#ebebeb"/>
      <rect id="사각형_482" data-name="사각형 482" width="3.594" height="13.417" transform="translate(70.899 54.857) rotate(-12.53)" fill="#ebebeb"/>
      <rect id="사각형_483" data-name="사각형 483" width="1.795" height="16.218" transform="translate(58.068 51.736)" fill="#ebebeb"/>
      <rect id="사각형_484" data-name="사각형 484" width="1.795" height="16.218" transform="translate(79.448 51.736)" fill="#ebebeb"/>
      <rect id="사각형_485" data-name="사각형 485" width="63.271" height="18.434" transform="translate(111.979 89.307) rotate(180)" fill="#e0e0e0"/>
      <rect id="사각형_486" data-name="사각형 486" width="3.594" height="15.452" transform="translate(111.979 89.312) rotate(180)" fill="#ebebeb"/>
      <rect id="사각형_487" data-name="사각형 487" width="3.594" height="15.452" transform="translate(94.606 89.312) rotate(180)" fill="#ebebeb"/>
      <rect id="사각형_488" data-name="사각형 488" width="3.594" height="15.452" transform="matrix(-0.985, -0.17, 0.17, -0.985, 72.202, 89.307)" fill="#ebebeb"/>
      <rect id="사각형_489" data-name="사각형 489" width="3.594" height="13.417" transform="translate(107.528 89.307) rotate(180)" fill="#ebebeb"/>
      <rect id="사각형_490" data-name="사각형 490" width="3.594" height="13.417" transform="translate(99.265 89.307) rotate(180)" fill="#ebebeb"/>
      <rect id="사각형_491" data-name="사각형 491" width="3.594" height="13.417" transform="translate(78.415 89.307) rotate(180)" fill="#ebebeb"/>
      <rect id="사각형_492" data-name="사각형 492" width="3.594" height="13.417" transform="translate(86.897 89.304) rotate(-167.47)" fill="#ebebeb"/>
      <rect id="사각형_493" data-name="사각형 493" width="1.795" height="16.218" transform="translate(102.624 89.312) rotate(180)" fill="#ebebeb"/>
      <rect id="사각형_494" data-name="사각형 494" width="1.795" height="16.218" transform="translate(81.243 89.312) rotate(180)" fill="#ebebeb"/>
      <rect id="사각형_495" data-name="사각형 495" width="3.594" height="15.452" transform="translate(48.713 73.855)" fill="#ebebeb"/>
      <rect id="사각형_496" data-name="사각형 496" width="3.594" height="13.417" transform="translate(53.164 75.895)" fill="#ebebeb"/>
      <rect id="사각형_497" data-name="사각형 497" width="3.594" height="13.417" transform="translate(61.427 75.895)" fill="#ebebeb"/>
      <rect id="사각형_498" data-name="사각형 498" width="1.795" height="16.218" transform="translate(58.068 73.089)" fill="#ebebeb"/>
      <rect id="사각형_499" data-name="사각형 499" width="63.271" height="18.434" transform="translate(48.713 92.226)" fill="#e0e0e0"/>
      <rect id="사각형_500" data-name="사각형 500" width="3.594" height="15.452" transform="translate(85.028 95.213)" fill="#ebebeb"/>
      <rect id="사각형_501" data-name="사각형 501" width="3.594" height="15.452" transform="matrix(0.985, -0.17, 0.17, 0.985, 104.814, 95.432)" fill="#ebebeb"/>
      <rect id="사각형_502" data-name="사각형 502" width="3.594" height="13.417" transform="translate(72.101 97.248)" fill="#ebebeb"/>
      <rect id="사각형_503" data-name="사각형 503" width="3.594" height="13.417" transform="translate(80.364 97.248)" fill="#ebebeb"/>
      <rect id="사각형_504" data-name="사각형 504" width="3.594" height="13.417" transform="translate(101.214 97.248)" fill="#ebebeb"/>
      <rect id="사각형_505" data-name="사각형 505" width="3.594" height="13.417" transform="translate(89.839 97.56) rotate(-12.53)" fill="#ebebeb"/>
      <rect id="사각형_506" data-name="사각형 506" width="1.795" height="16.218" transform="translate(77.005 94.447)" fill="#ebebeb"/>
      <rect id="사각형_507" data-name="사각형 507" width="1.795" height="16.218" transform="translate(98.386 94.447)" fill="#ebebeb"/>
      <rect id="사각형_508" data-name="사각형 508" width="3.594" height="15.452" transform="matrix(0.985, -0.17, 0.17, 0.985, 63.461, 95.436)" fill="#ebebeb"/>
      <rect id="사각형_509" data-name="사각형 509" width="3.594" height="13.417" transform="translate(59.863 97.248)" fill="#ebebeb"/>
      <rect id="사각형_510" data-name="사각형 510" width="3.594" height="13.417" transform="translate(48.489 97.561) rotate(-12.53)" fill="#ebebeb"/>
      <rect id="사각형_511" data-name="사각형 511" width="1.795" height="16.218" transform="translate(57.034 94.447)" fill="#ebebeb"/>
      <rect id="사각형_512" data-name="사각형 512" width="11.744" height="100.081" transform="translate(46.306 146.459) rotate(180)" fill="#e0e0e0"/>
      <path id="패스_286" data-name="패스 286" d="M368.787,119.942l-15.062-8.762h-11.6l-15.311,8.349v56.79h41.977Z" transform="translate(-178.678 -85.715)" fill="#e0e0e0"/>
      <path id="패스_287" data-name="패스 287" d="M325.86,119.946l.431-.417a29.825,29.825,0,0,1,20.773-8.349h0a29.825,29.825,0,0,1,20.773,8.349l.431.417v56.373H325.86Zm39.6,1.206a27.2,27.2,0,0,0-36.787,0V173.5h36.787Z" transform="translate(-178.159 -85.715)" fill="#fafafa"/>
      <path id="패스_288" data-name="패스 288" d="M350.87,176.8h-2.112V157.955H330.89v-2.112h17.868V136.57H330.89v-2.112h17.868V116.59h2.112v17.868h17.868v2.112H350.87v19.273h17.868v2.112H350.87Z" transform="translate(-180.909 -88.673)" fill="#f0f0f0"/>
      <path id="패스_289" data-name="패스 289" d="M322.75,117.666l.413-.412a31.429,31.429,0,0,1,44.42,0l.412.412v58.358H322.75Zm42.412,1.174a28.615,28.615,0,0,0-39.6,0V173.2h39.6Z" transform="translate(-176.458 -84.011)" fill="#f0f0f0"/>
    </g>
    <g id="freepik--Shadow--inject-11" transform="translate(25.433 213.607)">
      <ellipse id="freepik--path--inject-11" cx="87.884" cy="5.131" rx="87.884" ry="5.131" transform="translate(0 0)" fill="#f5f5f5"/>
    </g>
    <g id="freepik--Device--inject-11" transform="translate(102.783 91.615)">
      <rect id="사각형_513" data-name="사각형 513" width="1.405" height="7.257" rx="0.69" transform="translate(78.587) rotate(90)" fill="#263238"/>
      <rect id="사각형_514" data-name="사각형 514" width="123.316" height="87.843" rx="6.63" transform="translate(87.843 0.576) rotate(90)" fill="#263238"/>
      <rect id="사각형_515" data-name="사각형 515" width="123.316" height="85.577" rx="6.63" transform="translate(85.577 0.576) rotate(90)" fill="#fff" opacity="0.2"/>
      <circle id="타원_19" data-name="타원 19" cx="0.807" cy="0.807" r="0.807" transform="translate(40.395 2.053)" fill="#fff" opacity="0.6" style="mix-blend-mode: normal;isolation: isolate"/>
      <circle id="타원_20" data-name="타원 20" cx="0.403" cy="0.403" r="0.403" transform="translate(44.37 2.457)" fill="#fff" opacity="0.6" style="mix-blend-mode: normal;isolation: isolate"/>
      <circle id="타원_21" data-name="타원 21" cx="2.475" cy="2.475" r="2.475" transform="translate(40.309 117.006)" fill="#fff"/>
      <rect id="사각형_516" data-name="사각형 516" width="110.071" height="80.636" transform="translate(83.102 5.344) rotate(90)" fill="#90caf9"/>
      <rect id="사각형_517" data-name="사각형 517" width="106.644" height="80.636" transform="translate(83.102 8.766) rotate(90)" fill="#fff" opacity="0.8" style="mix-blend-mode: normal;isolation: isolate"/>
      <circle id="타원_22" data-name="타원 22" cx="0.761" cy="0.761" r="0.761" transform="translate(75.047 6.282)" fill="#fff" opacity="0.6" style="mix-blend-mode: normal;isolation: isolate"/>
      <circle id="타원_23" data-name="타원 23" cx="0.761" cy="0.761" r="0.761" transform="translate(77.676 6.282)" fill="#fff" opacity="0.6" style="mix-blend-mode: normal;isolation: isolate"/>
      <circle id="타원_24" data-name="타원 24" cx="0.761" cy="0.761" r="0.761" transform="translate(80.305 6.282)" fill="#fff" opacity="0.6" style="mix-blend-mode: normal;isolation: isolate"/>
      <rect id="사각형_518" data-name="사각형 518" width="80.636" height="4.877" transform="translate(2.466 8.771)" opacity="0.2" style="mix-blend-mode: normal;isolation: isolate"/>
      <path id="패스_290" data-name="패스 290" d="M373.212,160.27H348.255a1.165,1.165,0,0,1-1.165-1.165h0a1.165,1.165,0,0,1,1.165-1.165h24.957a1.165,1.165,0,0,1,1.165,1.165h0A1.165,1.165,0,0,1,373.212,160.27Z" transform="translate(-292.548 -147.896)" fill="#fff" opacity="0.6" style="mix-blend-mode: normal;isolation: isolate"/>
      <path id="패스_291" data-name="패스 291" d="M296.17,179.444a2.094,2.094,0,0,1,2.194-2.117,2.044,2.044,0,0,1,1.573.648l-.381.372a1.591,1.591,0,1,0,0,2.194l.381.372a2.049,2.049,0,0,1-1.577.653,2.094,2.094,0,0,1-2.189-2.121Z" transform="translate(-264.709 -158.494)" fill="#263238"/>
      <path id="패스_292" data-name="패스 292" d="M309.913,177.48v4.138h-.594v-1.845h-2.375v1.845h-.594V177.48h.594v1.781h2.375V177.48Z" transform="translate(-270.275 -158.579)" fill="#263238"/>
      <path id="패스_293" data-name="패스 293" d="M318.839,180.585h-2.2l-.453,1.033h-.607l1.876-4.138h.58l1.881,4.138H319.3Zm-.2-.476-.907-2.026-.907,2.026Z" transform="translate(-275.321 -158.579)" fill="#263238"/>
      <path id="패스_294" data-name="패스 294" d="M329.851,178.921c0,.907-.653,1.446-1.727,1.446H327.1v1.251h-.589V177.48h1.614C329.2,177.48,329.851,178.024,329.851,178.921Zm-.594,0c0-.589-.394-.907-1.151-.907H327.1v1.858h.993C328.862,179.851,329.257,179.529,329.257,178.921Z" transform="translate(-281.297 -158.579)" fill="#263238"/>
      <path id="패스_295" data-name="패스 295" d="M335.619,177.992H334.2v-.512h3.422v.512H336.2v3.626h-.585Z" transform="translate(-285.501 -158.579)" fill="#263238"/>
      <path id="패스_296" data-name="패스 296" d="M346.181,181.106v.512h-3V177.48H346.1v.512h-2.33v1.274h2.076v.5h-2.076v1.337Z" transform="translate(-290.411 -158.579)" fill="#263238"/>
      <path id="패스_297" data-name="패스 297" d="M354.643,181.607l-.907-1.269h-1.283v1.26h-.594V177.46h1.614c1.079,0,1.727.544,1.727,1.441a1.31,1.31,0,0,1-.907,1.31l.984,1.387Zm0-2.72c0-.589-.4-.907-1.156-.907h-1v1.863h1c.752,0,1.156-.326,1.156-.934Z" transform="translate(-295.156 -158.568)" fill="#263238"/>
      <path id="패스_298" data-name="패스 298" d="M363.12,165.89v21.317l6.536-6.532,6.2,6.2V165.89Z" transform="translate(-301.313 -152.242)" fill="#90caf9"/>
      <path id="패스_299" data-name="패스 299" d="M376.256,181.5c0,1.106-.816,2-2.479,2a3.726,3.726,0,0,1-2.407-.793l.431-.743a2.946,2.946,0,0,0,1.976.7c.984,0,1.546-.453,1.546-1.16s-.5-1.142-1.623-1.142h-.526v-.657l1.65-2.022h-3.173v-.816h4.324v.639l-1.7,2.139C375.59,179.748,376.256,180.487,376.256,181.5Z" transform="translate(-305.823 -158.245)" fill="#fff"/>
      <path id="패스_300" data-name="패스 300" d="M253.516,235.33c0,1.45-1.047,2.325-2.779,2.325h-1.645v2.017h-.952V233h2.6C252.469,233,253.516,233.907,253.516,235.33Zm-.952,0c0-.952-.635-1.491-1.854-1.491h-1.618v2.987h1.618C251.929,236.826,252.564,236.282,252.564,235.33Z" transform="translate(-238.449 -188.933)" fill="#263238"/>
      <path id="패스_301" data-name="패스 301" d="M321.608,233.723H263.137a.227.227,0,0,1,0-.453h58.471a.227.227,0,0,1,0,.453Z" transform="translate(-246.524 -189.081)"/>
      <path id="패스_302" data-name="패스 302" d="M321.608,238.913H263.137a.227.227,0,1,1,0-.453h58.471a.231.231,0,0,1,.227.227A.227.227,0,0,1,321.608,238.913Z" transform="translate(-246.524 -191.919)"/>
      <path id="패스_303" data-name="패스 303" d="M321.608,244.1H263.137a.227.227,0,0,1,0-.453h58.471a.231.231,0,0,1,.227.227A.227.227,0,0,1,321.608,244.1Z" transform="translate(-246.524 -194.756)"/>
      <path id="패스_304" data-name="패스 304" d="M321.608,249.293H263.137a.227.227,0,0,1,0-.453h58.471a.231.231,0,0,1,.227.227A.227.227,0,0,1,321.608,249.293Z" transform="translate(-246.524 -197.594)"/>
      <path id="패스_305" data-name="패스 305" d="M313.407,254.453h-65.27a.227.227,0,0,1,0-.453h65.27a.227.227,0,0,1,.227.227A.231.231,0,0,1,313.407,254.453Z" transform="translate(-238.323 -200.415)"/>
      <path id="패스_306" data-name="패스 306" d="M313.407,259.683h-65.27a.227.227,0,0,1,0-.453h65.27a.227.227,0,0,1,.227.227A.231.231,0,0,1,313.407,259.683Z" transform="translate(-238.323 -203.274)"/>
      <path id="패스_307" data-name="패스 307" d="M313.407,264.873h-65.27a.227.227,0,0,1,0-.453h65.27a.227.227,0,0,1,.227.227A.231.231,0,0,1,313.407,264.873Z" transform="translate(-238.323 -206.112)"/>
      <path id="패스_308" data-name="패스 308" d="M313.407,270.063h-65.27a.227.227,0,0,1,0-.453h65.27a.227.227,0,0,1,0,.453Z" transform="translate(-238.323 -208.949)"/>
      <path id="패스_309" data-name="패스 309" d="M277.163,275.253H248.177a.227.227,0,1,1,0-.453h28.986a.227.227,0,0,1,0,.453Z" transform="translate(-238.345 -211.787)"/>
      <path id="패스_310" data-name="패스 310" d="M322.155,286.723H264.137a.227.227,0,0,1,0-.453h58.018a.231.231,0,0,1,.227.227A.227.227,0,0,1,322.155,286.723Z" transform="translate(-247.071 -218.058)"/>
      <path id="패스_311" data-name="패스 311" d="M313.407,291.913h-65.27a.227.227,0,0,1,0-.453h65.27a.231.231,0,0,1,.227.227A.227.227,0,0,1,313.407,291.913Z" transform="translate(-238.323 -220.896)"/>
      <path id="패스_312" data-name="패스 312" d="M313.407,297.113h-65.27a.227.227,0,0,1,0-.453h65.27a.227.227,0,0,1,.227.227A.231.231,0,0,1,313.407,297.113Z" transform="translate(-238.323 -223.739)"/>
      <path id="패스_313" data-name="패스 313" d="M313.407,302.3h-65.27a.227.227,0,0,1,0-.453h65.27a.227.227,0,0,1,.227.227.231.231,0,0,1-.227.227Z" transform="translate(-238.323 -226.576)"/>
      <path id="패스_314" data-name="패스 314" d="M313.407,307.453h-65.27a.227.227,0,0,1,0-.453h65.27a.227.227,0,0,1,0,.453Z" transform="translate(-238.323 -229.392)"/>
      <path id="패스_315" data-name="패스 315" d="M313.407,312.683h-65.27a.227.227,0,0,1,0-.453h65.27a.227.227,0,0,1,0,.453Z" transform="translate(-238.323 -232.251)"/>
      <path id="패스_316" data-name="패스 316" d="M313.407,317.873h-65.27a.227.227,0,0,1,0-.453h65.27a.227.227,0,0,1,0,.453Z" transform="translate(-238.323 -235.089)"/>
      <path id="패스_317" data-name="패스 317" d="M313.407,323.063h-65.27a.227.227,0,0,1,0-.453h65.27a.231.231,0,0,1,.227.227A.227.227,0,0,1,313.407,323.063Z" transform="translate(-238.323 -237.926)"/>
      <path id="패스_318" data-name="패스 318" d="M299.826,328.253h-51.65a.227.227,0,1,1,0-.453h51.672a.227.227,0,1,1-.023.453Z" transform="translate(-238.345 -240.764)"/>
      <path id="패스_319" data-name="패스 319" d="M322.155,340.733H264.137a.227.227,0,0,1,0-.453h58.018a.227.227,0,0,1,.227.227A.231.231,0,0,1,322.155,340.733Z" transform="translate(-247.071 -247.587)"/>
      <path id="패스_320" data-name="패스 320" d="M313.407,345.923h-65.27a.227.227,0,0,1,0-.453h65.27a.227.227,0,0,1,0,.453Z" transform="translate(-238.323 -250.425)"/>
      <path id="패스_321" data-name="패스 321" d="M313.407,351.113h-65.27a.227.227,0,0,1,0-.453h65.27a.227.227,0,0,1,0,.453Z" transform="translate(-238.323 -253.262)"/>
      <path id="패스_322" data-name="패스 322" d="M295.294,356.3H248.177a.227.227,0,1,1,0-.453h47.14a.227.227,0,1,1,0,.453Z" transform="translate(-238.345 -256.1)"/>
      <path id="패스_323" data-name="패스 323" d="M385.481,372.05v.276l-1.151,2.579h-.453l1.129-2.5H383.7v.53h-.39v-.861Z" transform="translate(-312.351 -264.957)" fill="#263238"/>
      <path id="패스_324" data-name="패스 324" d="M390.56,374.063c0,.485-.354.875-1.079.875a1.631,1.631,0,0,1-1.052-.349l.19-.322a1.274,1.274,0,0,0,.861.308c.426,0,.671-.195.671-.508s-.213-.5-.7-.5h-.231v-.286l.721-.879h-1.36v-.354h1.886v.276l-.748.907C390.27,373.3,390.56,373.623,390.56,374.063Z" transform="translate(-315.15 -264.957)" fill="#263238"/>
      <rect id="사각형_519" data-name="사각형 519" width="2.04" height="101.767" transform="translate(81.067 13.648)" opacity="0.4" style="mix-blend-mode: normal;isolation: isolate"/>
      <rect id="사각형_520" data-name="사각형 520" width="2.04" height="12.193" rx="1.02" transform="translate(81.067 30.89)" fill="#fff" opacity="0.3" style="mix-blend-mode: normal;isolation: isolate"/>
      <rect id="사각형_521" data-name="사각형 521" width="1.555" height="12.075" rx="0.777" transform="translate(86.637 26.43)" fill="#263238"/>
      <rect id="사각형_522" data-name="사각형 522" width="1.555" height="12.075" rx="0.777" transform="translate(86.637 12.832)" fill="#263238"/>
      <rect id="사각형_523" data-name="사각형 523" width="1.555" height="12.075" rx="0.777" transform="translate(86.637 26.43)" fill="#fff" opacity="0.2"/>
      <rect id="사각형_524" data-name="사각형 524" width="1.555" height="12.075" rx="0.777" transform="translate(86.637 12.832)" fill="#fff" opacity="0.2"/>
    </g>
    <g id="freepik--Character--inject-11" transform="translate(38.062 135.635)">
      <path id="패스_325" data-name="패스 325" d="M138.979,305.58H91.346l-7.252-37.485a6.64,6.64,0,0,1,6.518-7.9h34.1a6.64,6.64,0,0,1,6.518,5.38Z" transform="translate(-83.972 -247.819)" fill="#90caf9"/>
      <path id="패스_326" data-name="패스 326" d="M104.876,305.58H91.346l-7.252-37.485a6.64,6.64,0,0,1,6.518-7.9h0a6.645,6.645,0,0,1,6.518,5.38Z" transform="translate(-83.972 -247.819)" fill="#90caf9"/>
      <g id="그룹_72" data-name="그룹 72" transform="translate(0 12.371)" opacity="0.2" style="mix-blend-mode: normal;isolation: isolate">
        <path id="패스_327" data-name="패스 327" d="M138.979,305.58H91.346l-7.252-37.485a6.64,6.64,0,0,1,6.518-7.9h34.1a6.64,6.64,0,0,1,6.518,5.38Z" transform="translate(-83.972 -260.19)" fill="#fff"/>
      </g>
      <path id="패스_328" data-name="패스 328" d="M146.983,305.513h-34.1l-7.746-39.964A6.609,6.609,0,0,0,98.61,260.2h34.1a6.6,6.6,0,0,1,6.518,5.349Z" transform="translate(-91.975 -247.825)" fill="#fff" opacity="0.2" style="mix-blend-mode: normal;isolation: isolate"/>
      <path id="패스_329" data-name="패스 329" d="M150.711,241.044s-1.79,7.017-6.885,5.92-5.262-7.783-5.262-7.783a8.691,8.691,0,0,0-.6,3.209,3.363,3.363,0,0,1-.027-3.209s-1.36.721-1.36,1.863a1.9,1.9,0,0,1,.839-2.312s-3.037.689-1.813-3.5,5.145-1.945,4.732.535a5.625,5.625,0,0,1,3.626-1.55C146.188,234.1,152.9,236.815,150.711,241.044Z" transform="translate(-112.039 -232.898)" fill="#263238"/>
      <path id="패스_330" data-name="패스 330" d="M172.23,271c2.235.721,4.882,10.185,5.571,10.511s3.44-5.92,3.44-5.92l.322-2.643.929-1.65s1.423,1.944,1.428,2.942-1.741,2.316-1.741,2.316-2.72,9.464-4.632,9.1S172.18,278,172.18,278Z" transform="translate(-132.198 -253.73)" fill="#e4897b"/>
      <path id="패스_331" data-name="패스 331" d="M181.354,328.728c-.041.068-.082.1-.131.086-1.36-.245-4.986,1.736-9.364,4.02l-1.233.635c-.141.077-.281.145-.422.213-2.221,1.138-4.578,2.266-6.912,3.218a27.008,27.008,0,0,1-7.832,2.117c-.326.027-.639.036-.952.036-10.7,0-7.211-17.655-7.211-17.655l12.778-.979,1.509,2.6.816,1.405,1.845-.494c.907-.249,2.3-.571,3.889-.907l.367-.082c.53-.113,1.083-.222,1.65-.335a83.137,83.137,0,0,1,10.729-1.673C182.147,320.923,181.925,327.89,181.354,328.728Z" transform="translate(-118.296 -280.749)" fill="#e4897b"/>
      <path id="패스_332" data-name="패스 332" d="M171.831,319.407l2.479,12.288s-8.535,6.935-15.864,4.229-5.036-15.2-5.036-15.2l8.988-5.661,3.585,5.013Z" transform="translate(-121.75 -277.819)" fill="#263238"/>
      <path id="패스_333" data-name="패스 333" d="M193.53,323.818l2.579,13.3,1.55-1.224-2.067-12.333Z" transform="translate(-143.871 -282.466)" fill="#263238"/>
      <path id="패스_334" data-name="패스 334" d="M197.654,335.893l-1.55,1.224-.086-.462-.245-1.256-1.052-5.407-1.02-5.253-.113-.594-.068-.326,2.071-.258.127.762.965,5.784.743,4.447Z" transform="translate(-143.865 -282.466)" fill="#fff" opacity="0.4" style="mix-blend-mode: normal;isolation: isolate"/>
      <path id="패스_335" data-name="패스 335" d="M197.891,334.026c-.041.068-.082.1-.131.086-1.36-.245-4.986,1.736-9.364,4.02l.227,1.36-1.55,1.224-.086-.508a35.45,35.45,0,0,1-5.2,2.96h0l-1.954-1-2.833-1.5,1.16-10.566,1.677,2.325s3.912.947,5.847,1.133l.453.041c.53.045,1.052.073,1.532.077.344,0,.662,0,.97-.027C191.958,333.428,195.552,333.306,197.891,334.026Z" transform="translate(-134.833 -286.047)" opacity="0.2" style="mix-blend-mode: normal;isolation: isolate"/>
      <path id="패스_336" data-name="패스 336" d="M217.228,345.42l-.118,2.556h-.3l-2.067.1c-5.485.249-19.092.73-24.893-.431l-26.661.517,5.861-10.266,36.66,5.725,11.282,1.754Z" transform="translate(-127.283 -290.306)" fill="#e4897b"/>
      <path id="패스_337" data-name="패스 337" d="M286.313,344.641c-.05,1-.086,1.9-.127,2.72-.054,1.142-.1,2.153-.141,3.123-.077,1.686-1.46.567-4.451.358-.073,0-.1-.24-.1-.589,0-.748.109-2.013.168-2.615l.036-.345a13.719,13.719,0,0,0,1.038-1.079,8.776,8.776,0,0,0,1.872-3.1C285.2,341.033,286.417,342.275,286.313,344.641Z" transform="translate(-191.962 -292.578)" fill="#263238"/>
      <path id="패스_338" data-name="패스 338" d="M165.678,326.206l-3,10.484-5.892-.567s-16.966,4.483-12.238-19.839l12.746-1.224,3.717,9.7Z" transform="translate(-116.635 -277.819)" fill="#263238"/>
      <path id="패스_339" data-name="패스 339" d="M186.66,338.39l-3.39,11.223h2l2.969-10.652Z" transform="translate(-138.261 -290.574)" fill="#263238"/>
      <path id="패스_340" data-name="패스 340" d="M186.66,338.39l-3.39,11.223h2l2.969-10.652Z" transform="translate(-138.261 -290.574)" fill="#fff" opacity="0.4" style="mix-blend-mode: normal;isolation: isolate"/>
      <path id="패스_341" data-name="패스 341" d="M272.758,352.008c-.054,1.142-.1,2.153-.141,3.123-.077,1.686-1.46.567-4.451.358-.073,0-.1-.24-.1-.589L266,355c-2.824-1.591-6.8-3.445-9.065-4.474l11.282,1.754.036-.345a13.713,13.713,0,0,0,1.038-1.079Z" transform="translate(-178.534 -297.211)" opacity="0.2" style="mix-blend-mode: normal;isolation: isolate"/>
      <path id="패스_342" data-name="패스 342" d="M221.782,321.55c-.453,0-.15,7.8.34,7.882,2.08.376,30.459,8.753,30.459,8.753l.825-2.488S226.432,321.523,221.782,321.55Z" transform="translate(-159.196 -281.367)" fill="#e4897b"/>
      <path id="패스_343" data-name="패스 343" d="M289.216,350.322c-.272-.1,1.061-3.395,1.061-3.395a11.067,11.067,0,0,0,3.939-3.223c1.142-1.863,1.976-.331,1.228,1.917l-1.849,5.566C293.064,352.783,292.035,351.333,289.216,350.322Z" transform="translate(-196.166 -293.024)" fill="#263238"/>
      <path id="패스_344" data-name="패스 344" d="M144.907,314.006l-.127,1.935,13.19-2.8-.571-2.135Z" transform="translate(-117.218 -275.604)"/>
      <rect id="사각형_525" data-name="사각형 525" width="0.635" height="3.232" transform="translate(31.208 37.175) rotate(-10.51)" fill="#263238"/>
      <rect id="사각형_526" data-name="사각형 526" width="2.806" height="2.126" transform="matrix(0.976, -0.22, 0.22, 0.976, 34.578, 36.865)" fill="#fff"/>
      <rect id="사각형_527" data-name="사각형 527" width="0.635" height="3.232" transform="translate(38.85 35.281) rotate(-10.51)" fill="#263238"/>
      <path id="패스_345" data-name="패스 345" d="M153.241,289.2l-12.605,2.683s.041-6.976-.947-10.829c-.322-1.251-.725-2.652-1.237-4.279-.218-.689-.453-1.414-.712-2.194s-.494-1.5-.78-2.307a37.723,37.723,0,0,1,5.185-1.251,40.067,40.067,0,0,1,5.607-.589c2.43-.023,5.222.254,5.222.254s.394.1.644,2.67C153.849,275.782,153.749,280.41,153.241,289.2Z" transform="translate(-112.942 -253.422)" fill="#263238"/>
      <path id="패스_346" data-name="패스 346" d="M153.258,289.205l-12.605,2.683v-.426c-.023-.621-.041-1.813-.1-3.209a38.586,38.586,0,0,0-.834-7.193c-.227-.907-.5-1.863-.825-2.937l-.168-.553c-.077-.254-.154-.517-.24-.784-.218-.689-.453-1.419-.716-2.2s-.494-1.5-.775-2.3a36.865,36.865,0,0,1,5.181-1.251,40.076,40.076,0,0,1,5.607-.594c2.429,0,5.222.254,5.222.254s.394.1.648,2.67C153.865,275.784,153.765,280.412,153.258,289.205Z" transform="translate(-112.959 -253.423)" fill="#fff" opacity="0.8" style="mix-blend-mode: normal;isolation: isolate"/>
      <path id="패스_347" data-name="패스 347" d="M153.667,268.389c-3.082-.394-4.007-1.713-4.007-1.713a3.885,3.885,0,0,0,.707-4.025,6.227,6.227,0,0,0-.376-1.011l3.7.694a10.964,10.964,0,0,0-.141,1.564,4.487,4.487,0,0,0,.1,1.147c.249,1.106.907,1.12.907,1.12C155.19,267.383,153.667,268.389,153.667,268.389Z" transform="translate(-119.886 -248.612)" fill="#e4897b"/>
      <path id="패스_348" data-name="패스 348" d="M153.953,263.9a4.485,4.485,0,0,0,.1,1.147,5.087,5.087,0,0,1-3.291-2.393,6.227,6.227,0,0,0-.376-1.011l3.7.694A10.959,10.959,0,0,0,153.953,263.9Z" transform="translate(-120.285 -248.612)" opacity="0.2" style="mix-blend-mode: normal;isolation: isolate"/>
      <path id="패스_349" data-name="패스 349" d="M153.545,240.124c3.409.7,4.134,2.747,3.667,6.314-.585,4.456-2.194,7.375-6.269,5.566C145.414,249.538,147.879,238.968,153.545,240.124Z" transform="translate(-118.889 -236.8)" fill="#e4897b"/>
      <path id="패스_350" data-name="패스 350" d="M163.412,252.74a7.362,7.362,0,0,0,.7,1.618.956.956,0,0,1-.975.2Z" transform="translate(-127.256 -243.746)" fill="#de5753"/>
      <path id="패스_351" data-name="패스 351" d="M156.551,246.042a.159.159,0,0,1-.127-.059.163.163,0,0,1,.023-.231,1.967,1.967,0,0,1,1.741-.245.168.168,0,0,1,.1.209.163.163,0,0,1-.208.1,1.641,1.641,0,0,0-1.428.186.181.181,0,0,1-.1.036Z" transform="translate(-123.563 -239.736)" fill="#263238"/>
      <path id="패스_352" data-name="패스 352" d="M166.869,247.3a.163.163,0,0,1-.113-.05,1.491,1.491,0,0,0-1.165-.512.163.163,0,1,1-.05-.322,1.786,1.786,0,0,1,1.446.6.163.163,0,0,1,0,.231.172.172,0,0,1-.118.05Z" transform="translate(-128.487 -240.287)" fill="#263238"/>
      <path id="패스_353" data-name="패스 353" d="M147.83,243.31s2.162-2.475,2.366-4.687c0,0,7.32-1.36,6.255,5.543,0,0,1.9-5.956-3.934-7.284s-7.56,7.252-5.054,10.425C147.462,247.285,146.483,244.865,147.83,243.31Z" transform="translate(-118.073 -235.001)" fill="#263238"/>
      <path id="패스_354" data-name="패스 354" d="M147.577,251.021a1.527,1.527,0,0,0-1.333-1.7c-1.079-.1-2.026,1.967.5,3.028C147.1,252.5,147.391,252.177,147.577,251.021Z" transform="translate(-117.413 -241.878)" fill="#e4897b"/>
      <path id="패스_355" data-name="패스 355" d="M160.249,257.3a9.036,9.036,0,0,0-.8.993l-.2-.1c-.907-.453-1.188-.961-1.215-1.392a1.265,1.265,0,0,1,.118-.607,1.333,1.333,0,0,1,.181-.308,4.732,4.732,0,0,0,1.614,1.251A2.691,2.691,0,0,0,160.249,257.3Z" transform="translate(-124.46 -245.468)" fill="#263238"/>
      <path id="패스_356" data-name="패스 356" d="M160.085,257.151l-.245.29c-.861-.426-1.41-.839-1.55-1.233a1.332,1.332,0,0,1,.181-.308A4.732,4.732,0,0,0,160.085,257.151Z" transform="translate(-124.604 -245.474)" fill="#fff"/>
      <path id="패스_357" data-name="패스 357" d="M159.245,259.322c-.907-.453-1.188-.961-1.215-1.392a3.367,3.367,0,0,1,.907.7A1.21,1.21,0,0,1,159.245,259.322Z" transform="translate(-124.462 -246.584)" fill="#de5753"/>
      <path id="패스_358" data-name="패스 358" d="M151.661,237.886s-2.516,5.33-6.038,4.533,3.386-6.8,3.386-6.8,6.21-1,8.431,2.643-1.931,5.2-1.931,5.2S156.61,239.187,151.661,237.886Z" transform="translate(-117.132 -234.317)" fill="#263238"/>
      <path id="패스_359" data-name="패스 359" d="M152.548,244.537a.113.113,0,0,1-.027-.222c2.955-.748,3.345-4.533,3.35-4.592a.113.113,0,0,1,.122-.1.118.118,0,0,1,.1.127c0,.036-.408,4-3.522,4.787Z" transform="translate(-121.405 -236.573)" fill="#263238"/>
      <path id="패스_360" data-name="패스 360" d="M158.552,251.017c0,.267-.163.48-.344.476s-.317-.236-.308-.5.168-.485.344-.453A.424.424,0,0,1,158.552,251.017Z" transform="translate(-124.39 -242.54)" fill="#263238"/>
      <path id="패스_361" data-name="패스 361" d="M158.5,250.259l.6-.209S158.786,250.535,158.5,250.259Z" transform="translate(-124.719 -242.275)" fill="#263238"/>
      <path id="패스_362" data-name="패스 362" d="M165.982,251.135c0,.272-.168.485-.349.453a.445.445,0,0,1-.3-.5c.014-.272.163-.485.344-.476S165.991,250.863,165.982,251.135Z" transform="translate(-128.452 -242.581)" fill="#263238"/>
      <path id="패스_363" data-name="패스 363" d="M165.92,250.428l.6-.209S166.206,250.7,165.92,250.428Z" transform="translate(-128.776 -242.368)" fill="#263238"/>
      <path id="패스_364" data-name="패스 364" d="M168.427,274.512h9.188a.589.589,0,0,0,.548-.453l3.241-14.346a.344.344,0,0,0-.349-.453h-9.188a.6.6,0,0,0-.548.453l-3.241,14.346a.345.345,0,0,0,.349.453Z" transform="translate(-129.946 -247.31)" fill="#263238"/>
      <path id="패스_365" data-name="패스 365" d="M168.427,274.512h9.188a.589.589,0,0,0,.548-.453l3.241-14.346a.344.344,0,0,0-.349-.453h-9.188a.6.6,0,0,0-.548.453l-3.241,14.346a.345.345,0,0,0,.349.453Z" transform="translate(-129.946 -247.31)" fill="#fff" opacity="0.2" style="mix-blend-mode: normal;isolation: isolate"/>
      <path id="패스_366" data-name="패스 366" d="M183.025,272.44c.567,0,.907.58.73,1.3a1.586,1.586,0,0,1-1.314,1.292c-.562,0-.907-.58-.734-1.292A1.593,1.593,0,0,0,183.025,272.44Z" transform="translate(-137.382 -254.517)" fill="#fff" opacity="0.8" style="mix-blend-mode: normal;isolation: isolate"/>
      <path id="패스_367" data-name="패스 367" d="M177.5,262.6h.975a.222.222,0,0,0,.209-.168l.267-1.178a.136.136,0,0,0-.136-.168h-.975a.227.227,0,0,0-.209.168l-.267,1.178a.131.131,0,0,0,.136.168Z" transform="translate(-135.029 -248.311)" opacity="0.2" style="mix-blend-mode: normal;isolation: isolate"/>
      <path id="패스_368" data-name="패스 368" d="M179.462,261.808c-.027.118.036.218.136.218a.272.272,0,0,0,.231-.218c.027-.118-.032-.218-.131-.218A.272.272,0,0,0,179.462,261.808Z" transform="translate(-136.176 -248.585)" fill="#263238"/>
      <path id="패스_369" data-name="패스 369" d="M178.262,261.808c-.027.118.032.218.136.218a.272.272,0,0,0,.231-.218c.027-.118-.032-.218-.136-.218A.272.272,0,0,0,178.262,261.808Z" transform="translate(-135.52 -248.585)" fill="#263238"/>
      <path id="패스_370" data-name="패스 370" d="M179.152,263.193c-.027.122.032.218.136.218a.267.267,0,0,0,.231-.218c.027-.118-.032-.213-.136-.213A.267.267,0,0,0,179.152,263.193Z" transform="translate(-136.006 -249.345)" fill="#263238"/>
      <path id="패스_371" data-name="패스 371" d="M177.992,263.193c-.027.122.032.218.131.218a.267.267,0,0,0,.236-.218c.027-.118-.036-.213-.136-.213a.267.267,0,0,0-.231.213Z" transform="translate(-135.372 -249.345)" fill="#263238"/>
      <path id="패스_372" data-name="패스 372" d="M171.324,259.733l-3.245,14.346a.344.344,0,0,0,.349.453h.381a.344.344,0,0,1-.344-.453l3.241-14.346a.594.594,0,0,1,.548-.453h-.385A.589.589,0,0,0,171.324,259.733Z" transform="translate(-129.946 -247.322)" opacity="0.2" style="mix-blend-mode: normal;isolation: isolate"/>
      <path id="패스_373" data-name="패스 373" d="M148.046,289.652a20.642,20.642,0,0,1-5.439,5.892,38.589,38.589,0,0,0-.834-7.193c-.227-.907-.5-1.863-.825-2.937l-.168-.553a3.355,3.355,0,0,1,1.514-1.061,22.8,22.8,0,0,1,.73,6.708Z" transform="translate(-115.031 -260.728)" opacity="0.2" style="mix-blend-mode: normal;isolation: isolate"/>
      <path id="패스_374" data-name="패스 374" d="M136.427,274.47c-.929.222-.453,11.522,1.056,14.2s12.111-8.086,12.111-8.086l-.644-1.949s-9.3,6.028-9.5,5.933a57.224,57.224,0,0,1,.2-5.892,8.346,8.346,0,0,0-1.36-3.309C137.3,274.171,136.427,274.47,136.427,274.47Z" transform="translate(-112.391 -255.609)" fill="#e4897b"/>
      <path id="패스_375" data-name="패스 375" d="M164.63,280.727l1.763-2.5,1.36,3.563s-1.958,1.926-2.869.834Z" transform="translate(-128.07 -257.682)" fill="#e4897b"/>
      <path id="패스_376" data-name="패스 376" d="M171.19,276.2l.739,2.824-2.044,1.659-1.364-3.563Z" transform="translate(-130.197 -256.573)" fill="#e4897b"/>
      <path id="패스_377" data-name="패스 377" d="M264.21,406.881H266.5l-.775-7.651H262.66Z" transform="translate(-181.667 -323.837)" fill="#263238"/>
      <path id="패스_378" data-name="패스 378" d="M212.09,406.881h2.294l-.775-7.651H210.54Z" transform="translate(-153.171 -323.837)" fill="#263238"/>
      <path id="패스_379" data-name="패스 379" d="M178.654,406.881H176.36l.775-7.651H180.2Z" transform="translate(-134.484 -323.837)" fill="#263238"/>
      <path id="패스_380" data-name="패스 380" d="M230.779,406.881H228.49l.771-7.651h3.069Z" transform="translate(-162.985 -323.837)" fill="#263238"/>
      <path id="패스_381" data-name="패스 381" d="M105.174,406.881H102.88l.775-7.651h3.069Z" transform="translate(-94.31 -323.837)" fill="#263238"/>
      <path id="패스_382" data-name="패스 382" d="M157.294,406.881H155l.775-7.651h3.069Z" transform="translate(-122.805 -323.837)" fill="#263238"/>
      <path id="패스_383" data-name="패스 383" d="M178.654,406.881H176.36l.775-7.651H180.2Z" transform="translate(-134.484 -323.837)" fill="#fff" opacity="0.1" style="mix-blend-mode: normal;isolation: isolate"/>
      <path id="패스_384" data-name="패스 384" d="M230.779,406.881H228.49l.771-7.651h3.069Z" transform="translate(-162.985 -323.837)" fill="#fff" opacity="0.1" style="mix-blend-mode: normal;isolation: isolate"/>
      <path id="패스_385" data-name="패스 385" d="M105.174,406.881H102.88l.775-7.651h3.069Z" transform="translate(-94.31 -323.837)" fill="#fff" opacity="0.1" style="mix-blend-mode: normal;isolation: isolate"/>
      <path id="패스_386" data-name="패스 386" d="M157.294,406.881H155l.775-7.651h3.069Z" transform="translate(-122.805 -323.837)" fill="#fff" opacity="0.1" style="mix-blend-mode: normal;isolation: isolate"/>
      <path id="패스_387" data-name="패스 387" d="M332.57,406.881h2.289l-.771-7.651H331.02Z" transform="translate(-219.041 -323.837)" fill="#263238"/>
      <path id="패스_388" data-name="패스 388" d="M280.446,406.881h2.293l-.775-7.651H278.9Z" transform="translate(-190.546 -323.837)" fill="#263238"/>
      <rect id="사각형_528" data-name="사각형 528" width="80.944" height="19.753" rx="7.38" transform="translate(5.57 57.298)" fill="#90caf9"/>
      <rect id="사각형_529" data-name="사각형 529" width="80.944" height="19.753" rx="7.38" transform="translate(5.57 57.298)" fill="#fff" opacity="0.2" style="mix-blend-mode: normal;isolation: isolate"/>
      <rect id="사각형_530" data-name="사각형 530" width="49.959" height="19.753" rx="7.38" transform="translate(36.555 57.298)" fill="#fff" opacity="0.2" style="mix-blend-mode: normal;isolation: isolate"/>
      <rect id="사각형_531" data-name="사각형 531" width="80.944" height="19.753" rx="7.38" transform="translate(38.101 57.298)" fill="#90caf9"/>
      <rect id="사각형_532" data-name="사각형 532" width="80.944" height="19.753" rx="7.38" transform="translate(38.101 57.298)" fill="#fff" opacity="0.2" style="mix-blend-mode: normal;isolation: isolate"/>
      <rect id="사각형_533" data-name="사각형 533" width="49.959" height="19.753" rx="7.38" transform="translate(69.086 57.298)" fill="#fff" opacity="0.2" style="mix-blend-mode: normal;isolation: isolate"/>
    </g>
    <g id="freepik--Plant--inject-11" transform="translate(25.917 132.473)">
      <path id="패스_389" data-name="패스 389" d="M77.406,301.012h-.032a.227.227,0,0,1-.195-.254c0-.041.032-.485.068-1.256.059-1.147.154-3.549.122-6.767a1.281,1.281,0,0,0,0-.141c-.041-3.594-.236-7.13-.571-10.52-.313-3.173-.757-6.228-1.324-9.12a71.991,71.991,0,0,0-1.845-7.37h0c-.113-.358-.227-.716-.344-1.07s-.195-.585-.3-.875c-.263-.752-.5-1.478-.712-2.148-.453-1.473-.87-2.946-1.21-4.374-.208-.861-.394-1.7-.548-2.511a54.6,54.6,0,0,1-1.052-9.283c-.032-1.228,0-2.452.054-3.626a36,36,0,0,1,.4-3.721,1.379,1.379,0,0,1,.041-.245v-.118a.258.258,0,0,1,.063-.154.227.227,0,0,1,.322,0,.254.254,0,0,1,.068.227h0v.118a.564.564,0,0,1-.041.254,34.908,34.908,0,0,0-.394,3.671c-.063,1.174-.082,2.389-.05,3.6a54.654,54.654,0,0,0,1.038,9.21c.154.8.34,1.636.548,2.488.335,1.419.743,2.883,1.2,4.347.209.666.453,1.36.707,2.135.1.29.2.585.3.879s.231.716.34,1.074h0a73.969,73.969,0,0,1,1.858,7.424c.567,2.905,1.015,5.988,1.328,9.161.34,3.4.53,6.953.576,10.552v.163c.036,3.214-.059,5.63-.122,6.8-.032.78-.063,1.246-.068,1.287A.231.231,0,0,1,77.406,301.012Z" transform="translate(-63.889 -232.193)" fill="#90caf9"/>
      <path id="패스_390" data-name="패스 390" d="M71.05,236.021h0a6.676,6.676,0,0,1,2.842-1.641" transform="translate(-64.762 -230.546)" fill="#90caf9"/>
      <path id="패스_391" data-name="패스 391" d="M70.777,235.95a.294.294,0,0,1-.091,0,.231.231,0,0,1-.118-.3.245.245,0,0,1,.045-.073.054.054,0,0,0,0-.023h0a7.093,7.093,0,0,1,1.3-.993,6.967,6.967,0,0,1,1.641-.7.235.235,0,0,1,.122.453,6.432,6.432,0,0,0-1.532.657,6.868,6.868,0,0,0-1.215.907h0A.222.222,0,0,1,70.777,235.95Z" transform="translate(-64.489 -230.258)" fill="#90caf9"/>
      <path id="패스_392" data-name="패스 392" d="M67.939,245.266a.231.231,0,0,1-.145-.054l-1.532-1.269a.236.236,0,0,1-.032-.322.231.231,0,0,1,.322-.032l1.532,1.274a.227.227,0,0,1,.032.322A.24.24,0,0,1,67.939,245.266Z" transform="translate(-62.1 -235.553)" fill="#90caf9"/>
      <path id="패스_393" data-name="패스 393" d="M75.851,285.969a.245.245,0,0,1-.231-.236h0a5.661,5.661,0,0,1,.313-1.242,6.075,6.075,0,0,1,.843-1.586,5.934,5.934,0,0,1,.907-.993.228.228,0,0,1,.3.345,5.625,5.625,0,0,0-.852.907,5.521,5.521,0,0,0-.771,1.478,5.789,5.789,0,0,0-.286,1.111.208.208,0,0,1-.218.218Z" transform="translate(-67.261 -256.503)" fill="#90caf9"/>
      <path id="패스_394" data-name="패스 394" d="M75.947,296.763a.231.231,0,0,1-.209-.136,3.848,3.848,0,0,0-2.266-2.053.227.227,0,1,1,.141-.431,4.288,4.288,0,0,1,2.543,2.3.222.222,0,0,1-.113.3A.24.24,0,0,1,75.947,296.763Z" transform="translate(-65.996 -263.213)" fill="#90caf9"/>
      <path id="패스_395" data-name="패스 395" d="M85.091,338.926c-.521-.571-.993-2.824-1.246-4.03-.063-.29-.113-.535-.154-.716" transform="translate(-71.673 -285.11)" fill="#90caf9"/>
      <path id="패스_396" data-name="패스 396" d="M84.815,338.879a.236.236,0,0,1-.172-.077c-.517-.571-.943-2.434-1.3-4.138-.059-.286-.109-.53-.15-.707a.233.233,0,1,1,.453-.1c.045.177.1.426.159.721.231,1.1.712,3.395,1.192,3.925a.231.231,0,0,1-.168.381Z" transform="translate(-71.398 -284.833)" fill="#90caf9"/>
      <path id="패스_397" data-name="패스 397" d="M73.149,265.722a.227.227,0,0,1-.231-.213c-.027-.372-.607-9.147,4.234-12.66a.227.227,0,0,1,.317.054.222.222,0,0,1-.05.317c-4.637,3.359-4.052,12.166-4.043,12.238a.227.227,0,0,1-.213.245Z" transform="translate(-65.764 -240.621)" fill="#90caf9"/>
      <path id="패스_398" data-name="패스 398" d="M74.3,319.033c-.553,2.126,4.138,5.92,4.138,5.92s5.951-1.011,6.5-3.137-1.106-5.494-4.048-6.26S74.853,316.908,74.3,319.033Z" transform="translate(-66.512 -274.841)" fill="#90caf9"/>
      <path id="패스_399" data-name="패스 399" d="M60.539,260.247c.671,2.2,5.018,3.594,5.018,3.594s2.833-3.581,2.162-5.784-3.146-4.533-5.126-3.948S59.868,258.044,60.539,260.247Z" transform="translate(-58.884 -241.283)" fill="#90caf9"/>
      <path id="패스_400" data-name="패스 400" d="M81.307,275.669a5.616,5.616,0,0,1-1.813,1.12,1.945,1.945,0,0,1-1.976-.376,2.373,2.373,0,0,1-.168-2.484c.648-1.614,3.173-4.415,5.244-3.735C85.6,271.178,82.577,274.641,81.307,275.669Z" transform="translate(-68.062 -250.07)" fill="#90caf9"/>
      <path id="패스_401" data-name="패스 401" d="M68.092,289.07c.4.453.839,1.042.653,1.632a1.228,1.228,0,0,1-1.324.721,3.581,3.581,0,0,1-1.482-.648c-1.07-.671-3.259-2.09-1.967-3.563S67.236,288.1,68.092,289.07Z" transform="translate(-60.676 -259.173)" fill="#90caf9"/>
      <path id="패스_402" data-name="패스 402" d="M85.222,246.694a1.056,1.056,0,0,1,1,.743c.113.508-.295.975-.693,1.314-.993.839-3.993,3.114-4.773,1.079C80.018,247.909,83.848,246.6,85.222,246.694Z" transform="translate(-70.018 -237.276)" fill="#90caf9"/>
      <path id="패스_403" data-name="패스 403" d="M75.1,232c.639.032,1.265-.227,1.908-.213s1.36.494,1.26,1.129-.816.807-1.41.87a11.446,11.446,0,0,1-3.023-.091.934.934,0,0,1-.626-.281c-.276-.372.113-.907.548-1.052a5.63,5.63,0,0,0,1.324-.381Z" transform="translate(-65.892 -229.13)" fill="#90caf9"/>
      <path id="패스_404" data-name="패스 404" d="M60.338,242.34c-.639.05-1.274-.2-1.913-.172s-1.36.526-1.233,1.156.829.789,1.423.839a11.464,11.464,0,0,0,3.023-.141.907.907,0,0,0,.616-.295c.267-.376-.131-.907-.567-1.042a5.937,5.937,0,0,1-1.333-.344Z" transform="translate(-57.178 -234.803)" fill="#90caf9"/>
      <g id="그룹_73" data-name="그룹 73" transform="translate(0 2.659)" opacity="0.2">
        <path id="패스_405" data-name="패스 405" d="M74.3,319.033c-.553,2.126,4.138,5.92,4.138,5.92s5.951-1.011,6.5-3.137-1.106-5.494-4.048-6.26S74.853,316.908,74.3,319.033Z" transform="translate(-66.512 -277.5)"/>
        <path id="패스_406" data-name="패스 406" d="M60.539,260.247c.671,2.2,5.018,3.594,5.018,3.594s2.833-3.581,2.162-5.784-3.146-4.533-5.126-3.948S59.868,258.044,60.539,260.247Z" transform="translate(-58.884 -243.943)"/>
        <path id="패스_407" data-name="패스 407" d="M81.307,275.669a5.616,5.616,0,0,1-1.813,1.12,1.945,1.945,0,0,1-1.976-.376,2.373,2.373,0,0,1-.168-2.484c.648-1.614,3.173-4.415,5.244-3.735C85.6,271.178,82.577,274.641,81.307,275.669Z" transform="translate(-68.062 -252.729)"/>
        <path id="패스_408" data-name="패스 408" d="M68.092,289.07c.4.453.839,1.042.653,1.632a1.228,1.228,0,0,1-1.324.721,3.581,3.581,0,0,1-1.482-.648c-1.07-.671-3.259-2.09-1.967-3.563S67.236,288.1,68.092,289.07Z" transform="translate(-60.676 -261.832)"/>
        <path id="패스_409" data-name="패스 409" d="M85.222,246.694a1.056,1.056,0,0,1,1,.743c.113.508-.295.975-.693,1.314-.993.839-3.993,3.114-4.773,1.079C80.018,247.909,83.848,246.6,85.222,246.694Z" transform="translate(-70.018 -239.935)"/>
        <path id="패스_410" data-name="패스 410" d="M75.1,232c.639.032,1.265-.227,1.908-.213s1.36.494,1.26,1.129-.816.807-1.41.87a11.446,11.446,0,0,1-3.023-.091.934.934,0,0,1-.626-.281c-.276-.372.113-.907.548-1.052a5.63,5.63,0,0,0,1.324-.381Z" transform="translate(-65.892 -231.789)"/>
        <path id="패스_411" data-name="패스 411" d="M60.338,242.34c-.639.05-1.274-.2-1.913-.172s-1.36.526-1.233,1.156.829.789,1.423.839a11.464,11.464,0,0,0,3.023-.141.907.907,0,0,0,.616-.295c.267-.376-.131-.907-.567-1.042a5.937,5.937,0,0,1-1.333-.344Z" transform="translate(-57.178 -237.462)"/>
      </g>
      <path id="패스_412" data-name="패스 412" d="M69.869,235.994h0a.227.227,0,0,1-.209-.245c.086-1.246-.05-2.443-.281-2.511a.236.236,0,0,1-.159-.286.231.231,0,0,1,.286-.154c.721.213.666,2.158.607,2.983a.227.227,0,0,1-.245.213Z" transform="translate(-63.758 -229.677)" fill="#90caf9"/>
      <path id="패스_413" data-name="패스 413" d="M67.344,230.078a5.512,5.512,0,0,0-.063-2.824,1.683,1.683,0,1,0-2.878,1.478,5.492,5.492,0,0,0,2.552,1.84l.276-.381Z" transform="translate(-60.956 -225.922)" fill="#90caf9"/>
      <g id="그룹_74" data-name="그룹 74" transform="translate(3.133)" opacity="0.2">
        <path id="패스_414" data-name="패스 414" d="M67.344,230.078a5.512,5.512,0,0,0-.063-2.824,1.683,1.683,0,1,0-2.878,1.478,5.492,5.492,0,0,0,2.552,1.84l.276-.381Z" transform="translate(-64.089 -225.922)"/>
      </g>
      <path id="패스_415" data-name="패스 415" d="M88.128,367.984c0,.036-.168.208.485.254,1.6.1,4.437.072,5.462-1.292,1.464-1.945-2.04-1.849-1.731-2.937s4.079-.1,4.8-1.636-2.044-1.31-1.94-2.108,3.01.313,3.907-1.319-1.586-.811-1.2-1.487,3.495-3.449,2.185-4.12-4.22,2.235-5.2,2.529-1.292-2.633-2.565-1.691-.286,5.385-1.786,5.892c-1.115.381-.548-1.188-1.935-1.16C86.714,358.946,86.275,365.12,88.128,367.984Z" transform="translate(-73.451 -295.531)" fill="#90caf9"/>
      <g id="그룹_75" data-name="그룹 75" transform="translate(13.491 57.708)" opacity="0.3">
        <path id="패스_416" data-name="패스 416" d="M88.128,367.984c0,.036-.168.208.485.254,1.6.1,4.437.072,5.462-1.292,1.464-1.945-2.04-1.849-1.731-2.937s4.079-.1,4.8-1.636-2.044-1.31-1.94-2.108,3.01.313,3.907-1.319-1.586-.811-1.2-1.487,3.495-3.449,2.185-4.12-4.22,2.235-5.2,2.529-1.292-2.633-2.565-1.691-.286,5.385-1.786,5.892c-1.115.381-.548-1.188-1.935-1.16C86.714,358.946,86.275,365.12,88.128,367.984Z" transform="translate(-86.942 -353.239)"/>
      </g>
      <path id="패스_417" data-name="패스 417" d="M95.338,362.79a5.929,5.929,0,0,0-1.654-.063,8.083,8.083,0,0,1,.807-.739.231.231,0,1,0-.276-.367A11.964,11.964,0,0,0,92.9,362.9a.186.186,0,0,0-.082.1c-.19.213-.39.453-.6.712A9.845,9.845,0,0,1,93.7,359a.227.227,0,0,0-.059-.317.231.231,0,0,0-.317.059,9.994,9.994,0,0,0-1.559,5.571,20.3,20.3,0,0,0-1.559,2.547h0a.213.213,0,0,0-.054.1c-.2.4-.4.834-.6,1.283a7.624,7.624,0,0,1-.254-3.087.227.227,0,0,0-.2-.249.222.222,0,0,0-.254.195,7.665,7.665,0,0,0,.453,3.78A24.536,24.536,0,0,0,88,373.351a.231.231,0,0,0,.181.267h.045a.227.227,0,0,0,.222-.186,23.025,23.025,0,0,1,2.112-6.291,2.774,2.774,0,0,1,2.647-.612.237.237,0,0,0,.136-.453,3.051,3.051,0,0,0-2.325.195,17.774,17.774,0,0,1,2.144-3.01,4.81,4.81,0,0,1,2.09-.045.23.23,0,1,0,.077-.453Z" transform="translate(-74.025 -298.486)" opacity="0.2"/>
      <path id="패스_418" data-name="패스 418" d="M76.184,374.065A6.5,6.5,0,0,1,71.9,372c-.879-1.083,1.509-.5,1.228-1.36s-3.173-.1-3.776-1.36,1.528-1.052,1.414-1.7-2.294-.422-3.055-1.75,1.2-.653.87-1.2-2.842-2.815-1.854-3.354,3.354,1.813,4.125,2.076.87-1.473,1.89-.7.453,4.37,1.623,4.791c.879.313.453-1.305,1.45-.934C77.6,367.139,76.7,374.033,76.184,374.065Z" transform="translate(-62.272 -299.88)" fill="#90caf9"/>
      <g id="그룹_76" data-name="그룹 76" transform="translate(4.224 61.314)" opacity="0.2">
        <path id="패스_419" data-name="패스 419" d="M76.184,374.065A6.5,6.5,0,0,1,71.9,372c-.879-1.083,1.509-.5,1.228-1.36s-3.173-.1-3.776-1.36,1.528-1.052,1.414-1.7-2.294-.422-3.055-1.75,1.2-.653.87-1.2-2.842-2.815-1.854-3.354,3.354,1.813,4.125,2.076.87-1.473,1.89-.7.453,4.37,1.623,4.791c.879.313.453-1.305,1.45-.934C77.6,367.139,76.7,374.033,76.184,374.065Z" transform="translate(-66.496 -361.193)"/>
      </g>
      <path id="패스_420" data-name="패스 420" d="M80.1,377.186a23.246,23.246,0,0,0-.907-2.72v-.027a6.677,6.677,0,0,0,.422-3.427.228.228,0,1,0-.453.054,6.613,6.613,0,0,1-.249,2.8q-.453-1.024-.947-1.94a.222.222,0,0,0-.063-.218.491.491,0,0,0-.1-.082c-.258-.453-.517-.907-.78-1.305a8.721,8.721,0,0,0-1.4-4.9.222.222,0,0,0-.313-.054.227.227,0,0,0-.059.317,8.612,8.612,0,0,1,1.305,3.93,22.957,22.957,0,0,0-3.087-3.726.226.226,0,0,0-.322.317A21.66,21.66,0,0,1,75.5,368.9a6.627,6.627,0,0,0-2.266-.272.236.236,0,0,0-.213.24.231.231,0,0,0,.245.213,6.215,6.215,0,0,1,2.484.376h.122a.069.069,0,0,0,.032,0c.363.512.739,1.083,1.111,1.7a2.887,2.887,0,0,0-1.922-.054.228.228,0,1,0,.136.435,2.484,2.484,0,0,1,2.216.363,23.353,23.353,0,0,1,2.185,5.367.227.227,0,0,0,.218.168h.059a.231.231,0,0,0,.19-.249Z" transform="translate(-65.839 -302.14)" opacity="0.2"/>
      <path id="패스_421" data-name="패스 421" d="M86.589,390.028c0,4.709,2.08,8.526-8.526,8.526-9.428,0-8.53-3.816-8.53-8.526S73.358,384,78.063,384,86.589,385.314,86.589,390.028Z" transform="translate(-63.92 -312.349)" fill="#263238"/>
      <rect id="사각형_534" data-name="사각형 534" width="18.883" height="4.673" transform="translate(4.715 71.543)" fill="#263238"/>
      <rect id="사각형_535" data-name="사각형 535" width="18.883" height="4.673" transform="translate(4.715 71.543)" fill="#fff" opacity="0.2" style="mix-blend-mode: normal;isolation: isolate"/>
    </g>
  </g>
</svg>
