<svg xmlns="http://www.w3.org/2000/svg" width="330.407" height="17.771" viewBox="0 0 330.407 17.771">
  <path id="img_underline" d="M211.87,31.967l.327-.22c3.948.095,1.063.286,4.728.323,1.535-.283,6.049.191,7.366.054a10.1,10.1,0,0,1,1.6.179,20.145,20.145,0,0,1,2.994-.005c.425-.037-.279-.06-.566-.12l2.6.008c.991.084,1.2.192.1.181,6.735.232,39.029,1.343,46.37,1.5-.885-.16-3.171-.142-3.944-.374,1.974-.055,2.823.129,3.723.034.617.329,4.2.205,5.537.561l.62-.156.918.135c8.542.085,1.97-.027,9.463.248,4.362.11,6.521-.066,8.9.1-.359-.013-1.274-.149-.131-.158.131.158,3.041-.016,3.531.155,1.11.016,4.674.147,3.549-.1.566.122,3.738.264,1.8.3,1.074.04,2.1.1,2.892.082l-1.357-.1c3.643.084,5.563.307,8,.192l-1.314-.125a26.612,26.612,0,0,1,4.772.328l-2.253-.006c3.6.107,5.777.162,8.825.146l-1.07-.039c3.883-.068,24.029.342,27.679.172l-1.568-.205,3.1-.05c-.363-.012-1.665.478-1.949.417,6.546.149,40.484,1.026,46.522,1.226,2.417.134.363.261.327.287,2.994,0,1.335-.146,3.865-.084.682.042-.181.123-.577.138a19.908,19.908,0,0,0,2.235,0c-1.372-.084-.726-.271-1.274-.412l3.248.08-.181.122a38.918,38.918,0,0,1,5.113-.179c5.374.157,11.241.224,16.652.357a16.9,16.9,0,0,1-2.4.118c.726.019,1.836.02,2.493.087-1.274-.158,2.3-.045,1.288-.121,4.035-.231,9.108.147,12.653.006.385-.271,8.364-4.6,8.4-4.929,1.07.027,2.137.053,2.46.086a28.54,28.54,0,0,0-3.494-.137l-.225.172c-2.591.013-.584-.115-3.106-.151a22.888,22.888,0,0,1,4.26-.108,34.477,34.477,0,0,0-4.423-.049c-1.713-.093.229-.172-1.836-.274-1.491.015-3.465.118-5.145,0l.033-.025c-4.1-.227-6.375.1-10.12-.121l.417-.04c-1.314-.109-3.966-.047-6.354-.182.678.042,1.248.157-.2.146-2.747-.142-4.659-.088-6.655-.239l-1.981.1c-4.819-.127-16.757-.231-28.738-.562l-28.811-.685.388-.012c-14.776-.3-45.241-1.3-60.634-1.577-2.311-.212-5.6-.281-8.056-.4,1.357.1.846.184-.225.145-7.529-.251-.548.08-8.193-.1-8.785-.163-42.429-1.305-50.223-1.622-4.274.088-9.474-.2-13.64-.182l.432-.037c-4.441-.051-29.493-.837-34.711-.851l.689.044c-4.547.036-3.875-.175-7.417-.313.41.239-3.494.3-4.978.29l.065-.049c-2.235,0-7.333.117-11.038.1l.167-.123c-3.1.092-8.923-.023-11.18-.02-2.573-.041-5.827-.124-9.478-.141-1.869,0-3.7,0-6.089.08-.591.021-1.288.053-2.2.113-.573.045-1.016.069-2.134.2l-.359.047-.7.108-.686.127-.327.068-.483.114a11.177,11.177,0,0,0-1.31.418c-.189.076-.366.156-.523.235a3.222,3.222,0,0,0-.519.321.93.93,0,0,0,.044,1.678,4.842,4.842,0,0,0,1.1.571c.269.1.4.141.475.167l.334.1c.41.12,1.081.274,1.379.327.435.085,1.208.206,1.43.229.722.095,1.161.134,1.615.175.78.065,1.43.1,1.988.132l2.54.33c1.183.142,2.362.286,2.362.286l.722-.009a12.571,12.571,0,0,0,3.5-2.176c1.168-1.175.965-2.48-2.558-3.09l.189-.119-1.393-.051c-.762-.072-1.176-.082-1.3-.078l-.018,0h-.007s.018-.016-.08.064c-.269.213-.443.356-.624.5-.29.231-.41.306-.294.227,0,0,.421-.336,1.06-.838-.022,0,.138.015.316.029l.922.063c-1.39-.119-.385-.126.247-.164a6.866,6.866,0,0,1-1.241-.144c-.08.044-.054.05.105.091l-.167.006c-.036,0-.058,0-.054.008l-.25.2A14.9,14.9,0,0,1,139,26.726a8.942,8.942,0,0,1-1.495.852,3.8,3.8,0,0,1-.987.3,1.834,1.834,0,0,1,.475.133,1,1,0,0,1,.25.135l.352.2a6.125,6.125,0,0,1,1.125,1.015l.588.664.239.336.051.078h-.007v0c.279-.006.519.039.519.089.1.05.105.1,1.049.083,5.5-.042,12.174.078,18.462.188l19.485.362c.294.058-.065.049-.457.066,4.006.02,7.555.112,11.209.132a8.851,8.851,0,0,1,1.535.22c-.287-.058,4.75.021,9.9.13l7.159.164C210.433,31.919,211.79,31.958,211.87,31.967Z" transform="translate(-128.107 -17.157) rotate(-1)" fill="#9bd2fc"/>
</svg>
