<svg xmlns="http://www.w3.org/2000/svg" width="730.949" height="24.762" viewBox="0 0 730.949 24.762">
  <path id="img_underline" d="M186.3,6.814l.723-.22c8.737.095,2.353.286,10.463.323,3.4-.283,13.386.191,16.3.054-.072.024,3.871.082,3.541.179,1.349-.158,4.1.008,6.625-.005.939-.037-.618-.06-1.253-.12l5.758.008c2.192.084,2.658.192.217.181,14.9.232,86.373,1.343,102.618,1.5-1.959-.16-7.018-.142-8.729-.374,4.368-.055,6.247.129,8.239.034,1.365.329,9.3.205,12.254.561l1.373-.156,2.032.135c18.9.085,4.36-.027,20.943.248,9.652.11,14.43-.066,19.706.1-.795-.013-2.818-.149-.289-.158.289.158,6.729-.016,7.813.155,2.457.016,10.343.147,7.854-.1,1.253.122,8.271.264,3.991.3,2.377.04,4.65.1,6.4.082l-3-.1c8.062.084,12.31.307,17.715.192L424.683,9.5c4.826.055,8.857.1,10.56.328l-4.987-.006c7.974.107,12.784.162,19.53.146l-2.369-.039c8.592-.068,53.176.342,61.254.172L505.2,9.9l6.85-.05c-.8-.012-3.686.478-4.312.417,14.486.149,89.593,1.026,102.955,1.226,5.348.134.8.261.723.287,6.625,0,2.955-.146,8.552-.084,1.51.042-.4.123-1.277.138,2.465,0,4.706.078,4.947,0-3.035-.084-1.606-.271-2.819-.412l7.187.08-.4.122c1.606.018,4.288-.307,11.315-.179,11.893.157,24.877.224,36.851.357-.233.073-2.77.1-5.316.118,1.606.019,4.063.02,5.517.087-2.819-.158,5.083-.045,2.851-.121,8.93-.231,20.156.147,28,.006.851-.271,18.51-4.6,18.582-4.929,2.369.027,4.73.053,5.445.086-.578-.082-5.228-.159-7.733-.137l-.5.172c-5.734.013-1.293-.115-6.874-.151-.233-.147,4.906-.134,9.427-.108-4.063-.052-8.062-.192-9.789-.049-3.79-.093.506-.172-4.063-.274-3.3.015-7.669.118-11.387,0l.072-.025c-9.082-.227-14.109.1-22.4-.121l.923-.04c-2.907-.109-8.777-.047-14.061-.182,1.5.042,2.762.157-.45.146-6.079-.142-10.311-.088-14.727-.239l-4.385.1c-10.664-.127-37.083-.231-63.6-.562L517.552,4.9l.859-.012c-32.7-.3-100.121-1.3-134.185-1.577-5.115-.212-12.383-.281-17.827-.4,3,.1,1.871.184-.5.145-16.663-.251-1.213.08-18.132-.1-19.441-.163-93.9-1.305-111.146-1.622-9.46.088-20.967-.2-30.186-.182l.956-.037c-9.829-.051-65.269-.837-76.817-.851L132.1.313C122.041.349,123.527.138,115.689,0c.908.239-7.733.3-11.017.29l.145-.049c-4.947,0-16.229.117-24.428.1l.369-.123C73.892.31,61.011.195,56.017.2,50.323.157,43.12.074,35.042.057c-4.136,0-8.2,0-13.475.08C20.258.158,18.716.19,16.7.25c-1.269.045-2.249.069-4.722.2L11.184.5,9.642.609,8.125.736,7.4.8,6.334.918c-1.06.123-2.048.266-2.9.418-.418.076-.811.156-1.156.235a10.915,10.915,0,0,0-1.148.321c-1.9.585-1.076,1.386.1,1.678a17.854,17.854,0,0,0,2.441.571c.594.1.875.141,1.052.167l.739.1c.907.12,2.393.274,3.051.327.964.085,2.674.206,3.164.229,1.6.095,2.57.134,3.573.175,1.726.065,3.164.1,4.4.132l5.621.33c2.618.142,5.228.286,5.228.286l1.6-.009A42.9,42.9,0,0,0,39.844,3.7c2.586-1.175,2.136-2.48-5.661-3.09L34.6.493,31.517.442C29.83.37,28.915.36,28.65.364l-.04,0h-.016a1.3,1.3,0,0,0-.177.064c-.594.213-.98.356-1.381.5-.642.231-.907.306-.65.227,0,0,.931-.336,2.345-.838-.048,0,.305.015.7.029l2.04.063C28.393.3,30.617.288,32.014.25,30.625.2,29.388.152,29.268.106c-.177.044-.12.05.233.091L29.132.2a.435.435,0,0,0-.12.008l-.554.2c-1.285.445-2,.772-3.429,1.161a31.588,31.588,0,0,1-3.308.852,16.987,16.987,0,0,1-2.184.3,8.243,8.243,0,0,1,1.052.133,3.617,3.617,0,0,1,.554.135l.779.2A15.437,15.437,0,0,1,24.41,4.2l1.3.664.53.336.112.078h-.016v0a3.616,3.616,0,0,1,1.148.089,8.856,8.856,0,0,0,2.321.083c12.166-.042,26.941.078,40.858.188L113.786,6c.651.058-.144.049-1.012.066,8.865.02,16.719.112,24.805.132,2.208.079,2.762.162,3.4.22-.634-.058,10.512.021,21.914.13l15.844.164C183.119,6.766,186.122,6.805,186.3,6.814Z" transform="translate(0 12.755) rotate(-1)" fill="#9bd2fc"/>
</svg>
