<svg xmlns="http://www.w3.org/2000/svg" width="151.972" height="57.495" viewBox="0 0 151.972 57.495">
  <g id="그룹_2437" data-name="그룹 2437" transform="translate(-499.831 -90.252)">
    <path id="패스_223" data-name="패스 223" d="M321.68,173.171c-7.884,1.3-15.419,5.289-18.37,11.637-3.227,6.937,1.069,14.072,7.36,18.828,7.623,5.76,18.242,8.937,28.009,11.406a175.282,175.282,0,0,0,34.3,5.034,186.244,186.244,0,0,0,35.211-1.634c10.61-1.507,22.3-3.588,31.689-8.083,17.123-8.191,15.27-25.47,1.221-35.112-17.807-12.222-45.675-12.788-67.734-12.149a219.973,219.973,0,0,0-36.891,3.9c-8.96,1.809-19.825,4.7-25.264,11.274-5.01,6.053-2.666,14.15,1.747,19.966,5.362,7.064,14.117,11.89,23.346,15.075,21.926,7.565,47.986,8.481,71.264,5.589,10.991-1.365,24.2-3.011,31.547-10.588,6.563-6.769,6.516-15.791,1.053-23-13.995-18.473-46.6-17.818-69.551-15.869-1.382.117-1.4,1.894,0,1.781,18.934-1.53,40.488-2.411,57.118,6.527,9.135,4.91,16.3,13.26,13.736,22.564-2.541,9.239-13.119,13.128-23.375,15.092a179.013,179.013,0,0,1-61.157.946c-17.69-2.812-40.5-9.5-45.554-25.533-6.289-19.968,30.294-23.492,46.759-25.02,19.738-1.831,41.2-1.891,60.5,2.361,16.793,3.7,40.81,17.126,28.975,33.744-5.059,7.1-15.4,9.786-24.509,11.954a175.349,175.349,0,0,1-28.9,4.337,176.518,176.518,0,0,1-60.9-6.3c-10.255-3-21.964-7.143-27.37-15.4-6.834-10.438,3.52-20.484,15.916-22.821.407-.077.233-.576-.173-.51Z" transform="translate(199.622 -72.674)" fill="#f6ffc6" opacity="0.458"/>
    <path id="img_hand01" d="M318.092,173.171c-6.431,1.3-12.578,5.289-14.985,11.637-2.632,6.937.872,14.072,6,18.828,6.218,5.76,14.881,8.937,22.848,11.406a118.635,118.635,0,0,0,27.981,5.034,124.272,124.272,0,0,0,28.723-1.634c8.655-1.507,18.187-3.588,25.85-8.083,13.968-8.191,12.456-25.47,1-35.112-14.526-12.222-37.259-12.788-55.253-12.149a147.728,147.728,0,0,0-30.093,3.9c-7.309,1.809-16.172,4.7-20.609,11.274-4.087,6.053-2.175,14.15,1.425,19.966,4.374,7.064,11.516,11.89,19.044,15.075,17.886,7.565,39.144,8.481,58.133,5.589,8.966-1.365,19.74-3.011,25.734-10.588,5.354-6.769,5.315-15.791.859-23-11.416-18.473-38.013-17.818-56.735-15.869-1.127.117-1.144,1.894,0,1.781,15.445-1.53,33.028-2.411,46.593,6.527,7.452,4.91,13.293,13.26,11.205,22.564-2.073,9.239-10.7,13.128-19.068,15.092a119.582,119.582,0,0,1-49.888.946c-14.43-2.812-33.041-9.5-37.16-25.533-5.13-19.968,24.712-23.492,38.143-25.02,16.1-1.831,33.607-1.891,49.348,2.361,13.7,3.7,33.29,17.126,23.636,33.744-4.127,7.1-12.563,9.786-19.993,11.954a120.842,120.842,0,0,1-73.253-1.961c-8.365-3-17.917-7.143-22.327-15.4-5.575-10.438,2.871-20.484,12.983-22.821.332-.077.19-.576-.141-.51Z" transform="translate(197.622 -72.674)" fill="#f6ffc6" opacity="0.458"/>
  </g>
</svg>
