<svg xmlns="http://www.w3.org/2000/svg" width="297.657" height="277.81" viewBox="0 0 297.657 277.81">
  <g id="그룹_10" data-name="그룹 10" transform="translate(0)" opacity="0.14">
    <g id="그룹_7" data-name="그룹 7" transform="translate(0)">
      <g id="그룹_6" data-name="그룹 6">
        <path id="패스_8" data-name="패스 8" d="M996.456,878.724H698.8V621.51a20.619,20.619,0,0,1,20.6-20.6H979.168A17.307,17.307,0,0,1,996.456,618.2Zm-292.975-4.682H991.774V618.2A12.62,12.62,0,0,0,979.168,605.6H719.395a15.932,15.932,0,0,0-15.914,15.914Z" transform="translate(-698.799 -600.914)" fill="#fff"/>
      </g>
      <rect id="사각형_7" data-name="사각형 7" width="292.975" height="5.206" transform="translate(2.341 53.928)" fill="#fff"/>
      <rect id="사각형_8" data-name="사각형 8" width="292.975" height="5.206" transform="translate(2.341 95.853)" fill="#fff"/>
      <rect id="사각형_9" data-name="사각형 9" width="292.975" height="5.206" transform="translate(2.341 137.777)" fill="#fff"/>
      <rect id="사각형_10" data-name="사각형 10" width="292.975" height="5.206" transform="translate(2.341 179.855)" fill="#fff"/>
    </g>
    <g id="그룹_8" data-name="그룹 8" transform="translate(8.991 144.664)">
      <rect id="사각형_11" data-name="사각형 11" width="7.316" height="27.226" transform="translate(64.57 35.191) rotate(180)" fill="#fff"/>
      <rect id="사각형_12" data-name="사각형 12" width="6.34" height="29.591" transform="translate(55.547 35.191) rotate(180)" fill="#fff"/>
      <rect id="사각형_13" data-name="사각형 13" width="6.34" height="29.591" transform="matrix(-0.993, -0.121, 0.121, -0.993, 45.614, 35.466)" fill="#fff"/>
      <rect id="사각형_14" data-name="사각형 14" width="7.316" height="27.226" transform="translate(268.991 35.191) rotate(180)" fill="#fff"/>
      <rect id="사각형_15" data-name="사각형 15" width="6.34" height="29.591" transform="translate(259.967 35.191) rotate(180)" fill="#fff"/>
      <rect id="사각형_16" data-name="사각형 16" width="6.34" height="29.591" transform="translate(250.034 35.466) rotate(-173.025)" fill="#fff"/>
      <rect id="사각형_17" data-name="사각형 17" width="29.915" height="5.324" transform="translate(33.573 35.191) rotate(180)" fill="#fff"/>
      <rect id="사각형_18" data-name="사각형 18" width="29.915" height="3.661" transform="translate(29.915 29.867) rotate(180)" fill="#fff"/>
      <rect id="사각형_19" data-name="사각형 19" width="28.68" height="3.661" transform="translate(31.622 26.205) rotate(180)" fill="#fff"/>
      <rect id="사각형_20" data-name="사각형 20" width="25.902" height="2.796" transform="translate(28.149 22.544) rotate(180)" fill="#fff"/>
      <rect id="사각형_21" data-name="사각형 21" width="29.915" height="5.324" transform="translate(177.163 35.191) rotate(180)" fill="#fff"/>
      <rect id="사각형_22" data-name="사각형 22" width="29.915" height="3.661" transform="translate(173.505 29.867) rotate(180)" fill="#fff"/>
      <rect id="사각형_23" data-name="사각형 23" width="28.68" height="3.661" transform="translate(175.212 26.205) rotate(180)" fill="#fff"/>
      <rect id="사각형_24" data-name="사각형 24" width="25.902" height="2.796" transform="translate(171.738 22.544) rotate(180)" fill="#fff"/>
      <rect id="사각형_25" data-name="사각형 25" width="29.915" height="3.661" transform="translate(172.519 19.747) rotate(180)" fill="#fff"/>
      <rect id="사각형_26" data-name="사각형 26" width="28.68" height="3.661" transform="translate(174.227 16.086) rotate(180)" fill="#fff"/>
      <rect id="사각형_27" data-name="사각형 27" width="25.902" height="2.796" transform="translate(170.753 12.424) rotate(180)" fill="#fff"/>
      <rect id="사각형_28" data-name="사각형 28" width="5.1" height="29.474" transform="translate(129.922 35.073) rotate(180)" fill="#fff"/>
      <rect id="사각형_29" data-name="사각형 29" width="5.099" height="30.824" transform="translate(192.63 35.073) rotate(180)" fill="#fff"/>
      <rect id="사각형_30" data-name="사각형 30" width="5.1" height="29.474" transform="translate(208.078 35.073) rotate(180)" fill="#fff"/>
      <rect id="사각형_31" data-name="사각형 31" width="6.445" height="31.904" transform="translate(124.823 35.073) rotate(180)" fill="#fff"/>
      <rect id="사각형_32" data-name="사각형 32" width="6.445" height="31.904" transform="translate(215.585 35.073) rotate(180)" fill="#fff"/>
      <rect id="사각형_33" data-name="사각형 33" width="6.445" height="30.383" transform="translate(118.378 35.073) rotate(180)" fill="#fff"/>
      <rect id="사각형_34" data-name="사각형 34" width="6.445" height="34.479" transform="translate(184.444 33.965) rotate(170.098)" fill="#fff"/>
      <rect id="사각형_35" data-name="사각형 35" width="6.445" height="25.724" transform="translate(111.933 35.073) rotate(180)" fill="#fff"/>
      <rect id="사각형_36" data-name="사각형 36" width="6.445" height="25.724" transform="translate(224.017 35.073) rotate(180)" fill="#fff"/>
      <rect id="사각형_37" data-name="사각형 37" width="6.445" height="27.108" transform="translate(105.488 35.073) rotate(180)" fill="#fff"/>
      <rect id="사각형_38" data-name="사각형 38" width="6.445" height="27.108" transform="translate(98.013 35.073) rotate(180)" fill="#fff"/>
      <rect id="사각형_39" data-name="사각형 39" width="6.445" height="27.108" transform="translate(231.358 35.073) rotate(180)" fill="#fff"/>
      <rect id="사각형_40" data-name="사각형 40" width="6.445" height="29.474" transform="translate(90.363 35.073) rotate(180)" fill="#fff"/>
      <rect id="사각형_41" data-name="사각형 41" width="6.445" height="29.474" transform="translate(202.323 35.073) rotate(180)" fill="#fff"/>
    </g>
    <g id="그룹_9" data-name="그룹 9" transform="translate(6.905 18.855)">
      <rect id="사각형_42" data-name="사각형 42" width="7.316" height="27.226" transform="translate(206.506 7.965)" fill="#fff"/>
      <rect id="사각형_43" data-name="사각형 43" width="6.34" height="29.591" transform="translate(215.53 5.6)" fill="#fff"/>
      <rect id="사각형_44" data-name="사각형 44" width="6.34" height="29.591" transform="matrix(0.993, -0.121, 0.121, 0.993, 221.869, 6.094)" fill="#fff"/>
      <rect id="사각형_45" data-name="사각형 45" width="7.316" height="27.226" transform="translate(88.771 49.776)" fill="#fff"/>
      <rect id="사각형_46" data-name="사각형 46" width="6.34" height="29.591" transform="translate(97.795 47.41)" fill="#fff"/>
      <rect id="사각형_47" data-name="사각형 47" width="6.34" height="29.591" transform="matrix(0.993, -0.121, 0.121, 0.993, 104.134, 47.905)" fill="#fff"/>
      <rect id="사각형_48" data-name="사각형 48" width="7.316" height="27.226" transform="translate(2.086 7.965)" fill="#fff"/>
      <rect id="사각형_49" data-name="사각형 49" width="6.34" height="29.591" transform="translate(11.109 5.6)" fill="#fff"/>
      <rect id="사각형_50" data-name="사각형 50" width="6.34" height="29.591" transform="matrix(0.993, -0.121, 0.121, 0.993, 17.449, 6.094)" fill="#fff"/>
      <rect id="사각형_51" data-name="사각형 51" width="29.915" height="5.324" transform="translate(237.503 29.867)" fill="#fff"/>
      <rect id="사각형_52" data-name="사각형 52" width="29.915" height="3.661" transform="translate(241.161 26.205)" fill="#fff"/>
      <rect id="사각형_53" data-name="사각형 53" width="28.68" height="3.661" transform="translate(239.454 22.544)" fill="#fff"/>
      <rect id="사각형_54" data-name="사각형 54" width="25.902" height="2.796" transform="translate(242.927 19.747)" fill="#fff"/>
      <rect id="사각형_55" data-name="사각형 55" width="29.915" height="5.324" transform="translate(93.914 29.867)" fill="#fff"/>
      <rect id="사각형_56" data-name="사각형 56" width="29.915" height="3.661" transform="translate(97.572 26.205)" fill="#fff"/>
      <rect id="사각형_57" data-name="사각형 57" width="28.68" height="3.661" transform="translate(95.865 22.544)" fill="#fff"/>
      <rect id="사각형_58" data-name="사각형 58" width="25.902" height="2.796" transform="translate(99.338 19.747)" fill="#fff"/>
      <rect id="사각형_59" data-name="사각형 59" width="29.915" height="3.662" transform="translate(98.557 16.086)" fill="#fff"/>
      <rect id="사각형_60" data-name="사각형 60" width="28.68" height="3.661" transform="translate(96.85 12.424)" fill="#fff"/>
      <rect id="사각형_61" data-name="사각형 61" width="25.902" height="2.796" transform="translate(100.323 9.628)" fill="#fff"/>
      <rect id="사각형_62" data-name="사각형 62" width="5.099" height="29.474" transform="translate(141.154 5.6)" fill="#fff"/>
      <rect id="사각형_63" data-name="사각형 63" width="5.099" height="30.824" transform="translate(78.447 4.249)" fill="#fff"/>
      <rect id="사각형_64" data-name="사각형 64" width="5.099" height="29.474" transform="translate(62.999 5.6)" fill="#fff"/>
      <rect id="사각형_65" data-name="사각형 65" width="6.445" height="31.904" transform="translate(146.254 3.17)" fill="#fff"/>
      <rect id="사각형_66" data-name="사각형 66" width="6.445" height="31.904" transform="translate(55.491 3.17)" fill="#fff"/>
      <rect id="사각형_67" data-name="사각형 67" width="6.445" height="30.383" transform="translate(152.699 4.69)" fill="#fff"/>
      <rect id="사각형_68" data-name="사각형 68" width="6.445" height="34.479" transform="matrix(0.985, 0.172, -0.172, 0.985, 92.562, 0)" fill="#fff"/>
      <rect id="사각형_69" data-name="사각형 69" width="29.915" height="5.324" transform="translate(187.548 71.674)" fill="#fff"/>
      <rect id="사각형_70" data-name="사각형 70" width="29.915" height="3.661" transform="translate(191.206 68.012)" fill="#fff"/>
      <rect id="사각형_71" data-name="사각형 71" width="28.68" height="3.662" transform="translate(189.499 64.351)" fill="#fff"/>
      <rect id="사각형_72" data-name="사각형 72" width="25.902" height="2.796" transform="translate(192.972 61.554)" fill="#fff"/>
      <rect id="사각형_73" data-name="사각형 73" width="29.915" height="3.661" transform="translate(192.191 57.893)" fill="#fff"/>
      <rect id="사각형_74" data-name="사각형 74" width="28.68" height="3.661" transform="translate(190.484 54.232)" fill="#fff"/>
      <rect id="사각형_75" data-name="사각형 75" width="25.902" height="2.796" transform="translate(193.957 51.435)" fill="#fff"/>
      <rect id="사각형_76" data-name="사각형 76" width="6.445" height="34.479" transform="matrix(0.985, 0.172, -0.172, 0.985, 186.196, 41.807)" fill="#fff"/>
      <rect id="사각형_77" data-name="사각형 77" width="6.445" height="25.724" transform="translate(159.143 9.349)" fill="#fff"/>
      <rect id="사각형_78" data-name="사각형 78" width="6.445" height="25.724" transform="translate(47.059 9.349)" fill="#fff"/>
      <rect id="사각형_79" data-name="사각형 79" width="6.445" height="27.108" transform="translate(165.588 7.965)" fill="#fff"/>
      <rect id="사각형_80" data-name="사각형 80" width="6.445" height="27.108" transform="translate(173.064 7.965)" fill="#fff"/>
      <rect id="사각형_81" data-name="사각형 81" width="6.445" height="27.108" transform="translate(39.718 7.965)" fill="#fff"/>
      <rect id="사각형_82" data-name="사각형 82" width="6.445" height="31.904" transform="translate(163.548 45.094)" fill="#fff"/>
      <rect id="사각형_83" data-name="사각형 83" width="6.445" height="25.724" transform="translate(155.115 51.274)" fill="#fff"/>
      <rect id="사각형_84" data-name="사각형 84" width="6.445" height="27.108" transform="translate(147.775 49.89)" fill="#fff"/>
      <rect id="사각형_85" data-name="사각형 85" width="6.445" height="27.108" transform="translate(126.236 49.89)" fill="#fff"/>
      <rect id="사각형_86" data-name="사각형 86" width="6.445" height="27.108" transform="translate(117.241 49.89)" fill="#fff"/>
      <rect id="사각형_87" data-name="사각형 87" width="6.445" height="31.904" transform="translate(15.773 45.094)" fill="#fff"/>
      <rect id="사각형_88" data-name="사각형 88" width="6.445" height="31.904" transform="matrix(0.993, -0.121, 0.121, 0.993, 22.23, 45.604)" fill="#fff"/>
      <rect id="사각형_89" data-name="사각형 89" width="6.445" height="25.724" transform="translate(7.341 51.274)" fill="#fff"/>
      <rect id="사각형_90" data-name="사각형 90" width="6.445" height="27.108" transform="translate(0 49.89)" fill="#fff"/>
      <rect id="사각형_91" data-name="사각형 91" width="6.445" height="29.474" transform="translate(180.713 5.6)" fill="#fff"/>
      <rect id="사각형_92" data-name="사각형 92" width="5.099" height="29.474" transform="translate(112.019 89.449)" fill="#fff"/>
      <rect id="사각형_93" data-name="사각형 93" width="6.445" height="31.904" transform="translate(117.118 87.019)" fill="#fff"/>
      <rect id="사각형_94" data-name="사각형 94" width="6.445" height="30.383" transform="translate(123.563 88.539)" fill="#fff"/>
      <rect id="사각형_95" data-name="사각형 95" width="6.445" height="25.724" transform="translate(130.008 93.198)" fill="#fff"/>
      <rect id="사각형_96" data-name="사각형 96" width="6.445" height="27.108" transform="translate(136.452 91.814)" fill="#fff"/>
      <rect id="사각형_97" data-name="사각형 97" width="6.445" height="27.108" transform="translate(143.928 91.814)" fill="#fff"/>
      <rect id="사각형_98" data-name="사각형 98" width="6.445" height="29.474" transform="translate(151.577 89.449)" fill="#fff"/>
      <rect id="사각형_99" data-name="사각형 99" width="6.445" height="29.474" transform="translate(228.713 47.524)" fill="#fff"/>
      <rect id="사각형_100" data-name="사각형 100" width="6.445" height="29.474" transform="translate(235.733 47.524)" fill="#fff"/>
      <rect id="사각형_101" data-name="사각형 101" width="6.445" height="29.474" transform="translate(68.753 5.6)" fill="#fff"/>
      <rect id="사각형_102" data-name="사각형 102" width="29.915" height="5.324" transform="translate(220.58 113.729)" fill="#fff"/>
      <rect id="사각형_103" data-name="사각형 103" width="29.915" height="3.661" transform="translate(224.238 110.067)" fill="#fff"/>
      <rect id="사각형_104" data-name="사각형 104" width="28.68" height="3.661" transform="translate(222.531 106.406)" fill="#fff"/>
      <rect id="사각형_105" data-name="사각형 105" width="25.902" height="2.796" transform="translate(226.004 103.609)" fill="#fff"/>
      <rect id="사각형_106" data-name="사각형 106" width="29.915" height="3.661" transform="translate(225.223 99.948)" fill="#fff"/>
      <rect id="사각형_107" data-name="사각형 107" width="28.68" height="3.661" transform="translate(223.516 96.286)" fill="#fff"/>
      <rect id="사각형_108" data-name="사각형 108" width="25.902" height="2.796" transform="translate(226.989 93.49)" fill="#fff"/>
      <rect id="사각형_109" data-name="사각형 109" width="5.099" height="30.824" transform="translate(205.113 88.111)" fill="#fff"/>
      <rect id="사각형_110" data-name="사각형 110" width="5.1" height="29.474" transform="translate(189.665 89.462)" fill="#fff"/>
      <rect id="사각형_111" data-name="사각형 111" width="6.445" height="31.904" transform="translate(182.158 87.032)" fill="#fff"/>
      <rect id="사각형_112" data-name="사각형 112" width="6.445" height="34.479" transform="translate(219.228 83.862) rotate(9.902)" fill="#fff"/>
      <rect id="사각형_113" data-name="사각형 113" width="6.445" height="25.724" transform="translate(173.725 93.211)" fill="#fff"/>
      <rect id="사각형_114" data-name="사각형 114" width="6.445" height="27.108" transform="translate(166.384 91.827)" fill="#fff"/>
      <rect id="사각형_115" data-name="사각형 115" width="6.445" height="31.904" transform="translate(98.578 87.032)" fill="#fff"/>
      <rect id="사각형_116" data-name="사각형 116" width="6.445" height="25.724" transform="translate(90.145 93.211)" fill="#fff"/>
      <rect id="사각형_117" data-name="사각형 117" width="6.445" height="27.108" transform="translate(82.805 91.827)" fill="#fff"/>
      <rect id="사각형_118" data-name="사각형 118" width="6.445" height="31.904" transform="translate(72.762 87.032)" fill="#fff"/>
      <rect id="사각형_119" data-name="사각형 119" width="6.445" height="25.724" transform="translate(64.33 93.211)" fill="#fff"/>
      <rect id="사각형_120" data-name="사각형 120" width="6.445" height="27.108" transform="translate(56.989 91.827)" fill="#fff"/>
      <rect id="사각형_121" data-name="사각형 121" width="6.445" height="29.474" transform="translate(195.419 89.462)" fill="#fff"/>
    </g>
  </g>
</svg>
