<svg xmlns="http://www.w3.org/2000/svg" width="45" height="36.816" viewBox="0 0 45 36.816">
  <g id="그룹_49" data-name="그룹 49" transform="translate(-704.41 -676.037)">
    <g id="그룹_45" data-name="그룹 45" transform="translate(704.41 676.037)">
      <path id="패스_198" data-name="패스 198" d="M746.857,692.984h-.743V679.048a3.014,3.014,0,0,0-3.011-3.011H716.684a3.015,3.015,0,0,0-3.013,3.011v9.916h-5.852a3.413,3.413,0,0,0-3.409,3.407v17.073a3.413,3.413,0,0,0,3.409,3.409h10a3.413,3.413,0,0,0,3.409-3.409v-8.082h4.932v3.15H724.1a.681.681,0,1,0,0,1.362h11.591a.681.681,0,1,0,0-1.362h-2.063v-3.15h5.1v5.187a2.554,2.554,0,0,0,2.553,2.551h5.576a2.555,2.555,0,0,0,2.553-2.551V695.537A2.557,2.557,0,0,0,746.857,692.984Zm-31.822-13.935a1.65,1.65,0,0,1,1.649-1.649H743.1a1.65,1.65,0,0,1,1.649,1.649v13.935H741.28a2.556,2.556,0,0,0-2.553,2.553v.243h-17.5v-3.409a3.413,3.413,0,0,0-3.409-3.407h-2.784Zm4.829,30.4a2.048,2.048,0,0,1-2.045,2.045h-10a2.048,2.048,0,0,1-2.045-2.045V692.371a2.048,2.048,0,0,1,2.045-2.043h10a2.048,2.048,0,0,1,2.045,2.043Zm12.4-4.932h-4.739v-3.15h4.739Zm.681-4.514H721.228v-2.857h17.5V700Zm15.1,6.551a1.192,1.192,0,0,1-1.189,1.191H741.28a1.192,1.192,0,0,1-1.189-1.191V695.537a1.189,1.189,0,0,1,1.189-1.187h5.576a1.189,1.189,0,0,1,1.189,1.187Z" transform="translate(-704.41 -676.037)" fill="#26c6da"/>
    </g>
    <g id="그룹_46" data-name="그룹 46" transform="translate(712.039 707.742)">
      <path id="패스_199" data-name="패스 199" d="M709.216,692.557a.96.96,0,1,0,.962.962A.96.96,0,0,0,709.216,692.557Z" transform="translate(-708.257 -692.557)" fill="#26c6da"/>
    </g>
    <g id="그룹_47" data-name="그룹 47" transform="translate(740.93 704.735)">
      <path id="패스_200" data-name="패스 200" d="M724.772,690.551a.96.96,0,1,0,.959.962A.962.962,0,0,0,724.772,690.551Z" transform="translate(-723.813 -690.551)" fill="#26c6da"/>
    </g>
    <g id="그룹_48" data-name="그룹 48" transform="translate(728.895 697.546)">
      <path id="패스_201" data-name="패스 201" d="M717.715,686.915a.96.96,0,1,0,.962.959A.96.96,0,0,0,717.715,686.915Z" transform="translate(-716.756 -686.915)" fill="#26c6da"/>
    </g>
  </g>
</svg>
