<svg xmlns="http://www.w3.org/2000/svg" width="42" height="42" viewBox="0 0 42 42">
    <g data-name="그룹 2453" transform="translate(-631 -1402)">
        <circle data-name="타원 112" cx="21" cy="21" r="21" transform="translate(631 1402)" style="fill:#26c6da"/>
        <g data-name="Mail 2">
            <path data-name="패스 910" d="M184.308 153.91h-17.692a2.952 2.952 0 0 0-2.949 2.949v11.057a2.952 2.952 0 0 0 2.949 2.949h17.692a2.952 2.952 0 0 0 2.949-2.949v-11.057a2.952 2.952 0 0 0-2.949-2.949zm1.474 14.006a1.476 1.476 0 0 1-1.474 1.474h-17.692a1.476 1.476 0 0 1-1.474-1.474v-11.057a1.476 1.476 0 0 1 1.474-1.474h17.692a1.476 1.476 0 0 1 1.474 1.474z" transform="translate(476.538 1260.612)" style="fill:#fff"/>
            <path data-name="패스 911" d="M185.192 159.181a.738.738 0 0 0-1.038-.1l-7.641 6.253-7.642-6.253a.737.737 0 0 0-.934 1.141l8.109 6.634a.738.738 0 0 0 .934 0l8.109-6.634a.738.738 0 0 0 .103-1.041z" transform="translate(475.487 1259.298)" style="fill:#fff"/>
            <path data-name="패스 912" d="M186.925 167.126a.737.737 0 0 0-1.042 1.042l2.949 2.949a.737.737 0 0 0 1.042-1.042z" transform="translate(470.756 1257.195)" style="fill:#fff"/>
            <path data-name="패스 913" d="m170.832 167.126-2.949 2.949a.737.737 0 1 0 1.042 1.042l2.949-2.949a.737.737 0 0 0-1.042-1.042z" transform="translate(475.487 1257.195)" style="fill:#fff"/>
        </g>
    </g>
</svg>
