<svg xmlns="http://www.w3.org/2000/svg" width="42" height="42" viewBox="0 0 42 42">
    <g data-name="그룹 2454" transform="translate(-631 -1331)">
        <circle data-name="타원 114" cx="21" cy="21" r="21" transform="translate(631 1331)" style="fill:#26c6da"/>
        <path d="M366.346 241.258a11.7 11.7 0 1 0-19.54-12.858c-.016.02-.039.031-.053.053a.713.713 0 0 0-.044.107 11.631 11.631 0 0 0 .365 12.7c0 .007 0 .017.009.025s.029.026.041.042a11.679 11.679 0 0 0 19.123.064.733.733 0 0 0 .089-.106c.006-.01.006-.019.01-.027zm-.871-1.358a17.465 17.465 0 0 0-4.556-1.833 32.756 32.756 0 0 0 .182-3.447c0-.917-.042-1.833-.116-2.731a17.423 17.423 0 0 0 4.8-2 10.162 10.162 0 0 1-.313 10.014zm-8.765 4.967c-.865 0-2.011-2.1-2.578-5.641a15.652 15.652 0 0 1 5.155 0c-.566 3.536-1.712 5.641-2.577 5.641zm0-7.319a17.64 17.64 0 0 0-2.77.226 30.972 30.972 0 0 1-.157-3.154c0-.856.035-1.664.094-2.431a17.178 17.178 0 0 0 5.667 0c.059.767.094 1.576.094 2.431a30.744 30.744 0 0 1-.158 3.154 17.63 17.63 0 0 0-2.77-.226zm0-13.174c.922 0 2.163 2.389 2.682 6.356a15.661 15.661 0 0 1-5.363 0c.518-3.967 1.759-6.356 2.681-6.356zm8.306 4.27a15.973 15.973 0 0 1-4.186 1.774 15.842 15.842 0 0 0-1.7-5.742 10.264 10.264 0 0 1 5.886 3.968zm-10.729-3.968a15.828 15.828 0 0 0-1.7 5.742 16 16 0 0 1-4.186-1.773 10.257 10.257 0 0 1 5.886-3.97zm-6.655 5.211a17.412 17.412 0 0 0 4.8 2c-.075.9-.116 1.814-.116 2.731a32.748 32.748 0 0 0 .182 3.447 17.465 17.465 0 0 0-4.556 1.833 10.162 10.162 0 0 1-.313-10.014zm1.152 11.218a16 16 0 0 1 3.913-1.577 14.8 14.8 0 0 0 1.59 5.038 10.257 10.257 0 0 1-5.503-3.466zm10.35 3.461a14.8 14.8 0 0 0 1.59-5.038 16 16 0 0 1 3.913 1.577 10.259 10.259 0 0 1-5.504 3.46z" transform="translate(295.29 1117.38)" style="fill:#fff"/>
    </g>
</svg>
