<svg xmlns="http://www.w3.org/2000/svg" width="42" height="42" viewBox="0 0 42 42">
    <g data-name="그룹 2452" transform="translate(-631 -1469)">
        <circle data-name="타원 113" cx="21" cy="21" r="21" transform="translate(631 1469)" style="fill:#26c6da"/>
        <path data-name="패스 914" d="M280.851 159.75a17.59 17.59 0 0 0-9.333-9.288.672.672 0 0 0-.885.386.708.708 0 0 0 .374.913 16.221 16.221 0 0 1 8.605 8.564.679.679 0 0 0 .62.414.656.656 0 0 0 .277-.062.709.709 0 0 0 .342-.927z" transform="translate(382.045 1329.546)" style="fill:#fff"/>
        <path data-name="패스 915" d="M270.493 157.213a9.826 9.826 0 0 1 5.219 5.183.656.656 0 0 0 .6.4.634.634 0 0 0 .269-.06.684.684 0 0 0 .33-.894 11.154 11.154 0 0 0-5.923-5.882.651.651 0 0 0-.856.372.684.684 0 0 0 .361.881z" transform="translate(382.201 1327.833)" style="fill:#fff"/>
        <path data-name="패스 916" d="M272.455 163.832a1.6 1.6 0 0 0-2.42 0c-.566.561-1.132 1.122-1.688 1.693a.385.385 0 0 1-.271.145.4.4 0 0 1-.194-.06c-.366-.2-.757-.361-1.108-.58a17.556 17.556 0 0 1-4.232-3.851 10.048 10.048 0 0 1-1.517-2.43.348.348 0 0 1 .085-.447c.566-.547 1.118-1.108 1.674-1.669a1.607 1.607 0 0 0 0-2.477c-.443-.447-.885-.884-1.327-1.331s-.908-.918-1.369-1.37a1.611 1.611 0 0 0-2.42.006c-.571.561-1.117 1.136-1.7 1.688a2.758 2.758 0 0 0-.866 1.859 7.869 7.869 0 0 0 .609 3.39 20.6 20.6 0 0 0 3.656 6.091 22.625 22.625 0 0 0 7.494 5.863 10.837 10.837 0 0 0 4.15 1.208c.09 0 .179.008.266.008a2.966 2.966 0 0 0 2.344-1c.485-.543 1.031-1.037 1.545-1.555a1.618 1.618 0 0 0 .01-2.464q-1.356-1.365-2.721-2.717zm1.732 4.209c-.169.171-.343.339-.516.507-.357.347-.726.706-1.078 1.1a1.6 1.6 0 0 1-1.317.541c-.062 0-.125 0-.191-.006a9.353 9.353 0 0 1-3.624-1.071 21.353 21.353 0 0 1-7.042-5.511 19.146 19.146 0 0 1-3.419-5.689 6.471 6.471 0 0 1-.525-2.8 1.392 1.392 0 0 1 .441-.969c.359-.34.7-.689 1.051-1.039.22-.222.44-.445.666-.667a.272.272 0 0 1 .489 0l.9.9.453.455c.225.228.45.453.675.678l.653.655c.253.255.239.3 0 .537l-.232.234c-.472.476-.941.95-1.438 1.431a1.715 1.715 0 0 0-.381 1.954 11.233 11.233 0 0 0 1.719 2.766 18.842 18.842 0 0 0 4.572 4.151c.271.168.545.3.786.421.132.064.262.128.372.188a1.758 1.758 0 0 0 .872.238 1.724 1.724 0 0 0 1.257-.561c.544-.558 1.1-1.106 1.672-1.677a.264.264 0 0 1 .479 0q1.36 1.353 2.714 2.709c.212.211.234.284-.007.525z" transform="translate(386.873 1329.39)" style="fill:#fff"/>
    </g>
</svg>
