<svg xmlns="http://www.w3.org/2000/svg" width="95" height="18.021" viewBox="0 0 95 18.021">
    <g data-name="그룹 2">
        <path data-name="패스 9" d="M1240.934 115.5a7.036 7.036 0 1 1 7.036-7.036 7.045 7.045 0 0 1-7.036 7.036zm0-11.208a4.172 4.172 0 1 0 4.176 4.172 4.178 4.178 0 0 0-4.176-4.164z" transform="translate(-1218.422 -97.595)" style="fill:#fff"/>
    </g>
    <g data-name="그룹 3">
        <path data-name="패스 10" d="M1295.364 115.507a7.035 7.035 0 1 1 7.036-7.035 7.045 7.045 0 0 1-7.036 7.035zm0-11.208a4.172 4.172 0 1 0 4.174 4.172 4.178 4.178 0 0 0-4.174-4.171z" transform="translate(-1257.537 -97.597)" style="fill:#fff"/>
    </g>
    <g data-name="그룹 4">
        <path data-name="패스 11" d="M1444.1 115.512h-2.862v-7.034a7.042 7.042 0 0 1 7.035-7.035v2.857a4.177 4.177 0 0 0-4.173 4.173z" transform="translate(-1367.441 -97.602)" style="fill:#fff"/>
    </g>
    <path data-name="패스 12" d="M1484.188 110.3a4.136 4.136 0 0 0-4.2-4.3l-4.242-.08a1.4 1.4 0 0 1 0-2.8h4.745a1.371 1.371 0 0 1 1.12.614l2.343-1.529a4.13 4.13 0 0 0-3.464-1.776h-4.745a4.3 4.3 0 0 0-4.2 4.485h-.008s0-.027 0 0h.008a4.446 4.446 0 0 0 4.2 3.919l4.243-.109a1.24 1.24 0 1 1 0 2.469h-4.745a1.3 1.3 0 0 1-1.121-.541l-2.342 1.942a4.56 4.56 0 0 0 3.463 2.187h4.745a4.3 4.3 0 0 0 4.2-4.485z" transform="translate(-1389.193 -96.879)" style="fill:#fff"/>
    <path data-name="패스 13" d="M1186.036 93.679a6.063 6.063 0 0 0-4.093 1.418v-4.21h-3.043l-.011 10.74a6.933 6.933 0 0 0 7.018 6.384 7.218 7.218 0 0 0 7.1-7.166 7.107 7.107 0 0 0-6.971-7.166zm-.129 11.186a4.164 4.164 0 1 1 4.174-4.164 4.173 4.173 0 0 1-4.174 4.165z" transform="translate(-1178.889 -89.99)" style="fill:#fff"/>
    <path data-name="패스 14" d="M1399.729 108.466a7.033 7.033 0 1 0-1.6 4.468l-2.211-1.819a4.173 4.173 0 0 1-7.183-1.333l10.855-.005a8.313 8.313 0 0 0 .139-1.311zm-7.034-3.713a3.874 3.874 0 0 1 3.891 2.675h-7.786a3.875 3.875 0 0 1 3.9-2.674z" transform="translate(-1327.483 -97.593)" style="fill:#fff"/>
    <path data-name="패스 15" d="M1357.013 92.182h-3.406l-5.24 6.782V87.7h-2.691v17.91h2.691v-2.035l2.59-3.362 2.765 5.4h3.078l-4.137-7.6z" transform="translate(-1298.747 -87.705)" style="fill:#fff"/>
</svg>
