<svg xmlns="http://www.w3.org/2000/svg" width="756" height="1495" viewBox="0 0 756 1495">
    <defs>
        <linearGradient id="e0b48k1b0b" x1="16.701" y1="200.761" x2=".856" y2="-1.138" gradientUnits="objectBoundingBox">
            <stop offset="0" stop-color="#292929"/>
            <stop offset=".162" stop-color="#656565"/>
            <stop offset=".309" stop-color="#696969"/>
            <stop offset=".449" stop-color="#9d9d9d"/>
            <stop offset=".586" stop-color="#c4c4c4"/>
            <stop offset=".72" stop-color="#dbdbdb"/>
            <stop offset=".852" stop-color="#dedede"/>
            <stop offset=".979" stop-color="#e8e8e8"/>
            <stop offset="1" stop-color="#f0f0f0"/>
        </linearGradient>
        <clipPath id="q3abxpszea">
            <path data-name="사각형 1319" transform="translate(0 696)" style="stroke:#707070;fill:#fff" d="M0 0h756v1495H0z"/>
        </clipPath>
    </defs>
    <g data-name="마스크 그룹 57" transform="translate(0 -696)" style="clip-path:url(#q3abxpszea)">
        <g data-name="그룹 2493">
            <g data-name="그룹 2351" style="opacity:.461;isolation:isolate">
                <g data-name="그룹 2350">
                    <path data-name="패스 5162" d="M243.476 92.1c-.348.166-.52.35-.475.549s.307.41.832.631a14.177 14.177 0 0 0 2.405.687c1.094.235 2.5.475 4.25.714.655.089 1.7.183 2.9.271s2.553.175 3.825.25 2.467.137 3.341.181l1.43.071 7.5-2.4s-.259-.052-.693-.135-1.041-.2-1.737-.323-1.483-.264-2.273-.393-1.588-.252-2.306-.347c-.943-.125-2.275-.279-3.815-.414s-3.283-.254-5.058-.31-3.578-.048-5.237.065a19.894 19.894 0 0 0-4.38.708l-.141.046c-.046.015-.089.031-.132.048s-.082.031-.12.048l-.111.05z" transform="rotate(-7 5521.933 -376.306)" style="fill:url(#e0b48k1b0b)"/>
                    <path data-name="패스 5163" d="M256.172 94.735s.189.037.518.094.794.142 1.349.237 1.2.2 1.881.308 1.4.214 2.107.31a19.521 19.521 0 0 0 2.308.158 29.353 29.353 0 0 0 4.866-.344 12.461 12.461 0 0 0 1.852-.425c.07-.023.139-.046.2-.069s.123-.046.18-.069.112-.044.161-.067.1-.044.139-.067c.284-.148.422-.291.43-.427s-.108-.269-.331-.395a4.548 4.548 0 0 0-.962-.354c-.41-.112-.9-.216-1.461-.314q-.54-.092-1.185-.194t-1.4-.214a221.323 221.323 0 0 0-3.463-.485l-7.192 2.32z" transform="rotate(-7 5527.134 -453.87)" style="fill:url(#e0b48k1b0b)"/>
                    <path data-name="패스 5164" d="M223.713 92.947c-.892.4-.994.78-.581 1.12a7.094 7.094 0 0 0 2.522.912c1.178.268 2.6.495 3.986.678a86.503 86.503 0 0 0 6.489.604 342.615 342.615 0 0 0 5.175.276l.933.04 5.935-2.632-1.054-.2c-.65-.121-1.546-.285-2.529-.456s-2.052-.348-3.053-.5-1.932-.271-2.644-.329c-2.11-.177-4-.283-5.673-.331s-3.132-.038-4.382.015a29 29 0 0 0-3.122.281 8.345 8.345 0 0 0-1.886.47l-.031.013-.029.012-.027.013-.029.012z" transform="rotate(-7 5536.632 -259.406)" style="fill:url(#e0b48k1b0b)"/>
                    <path data-name="패스 5165" d="M236.615 95.77q1.077.092 2.05.169t1.85.142q.874.064 1.649.114t1.447.087c.813.046 1.618.071 2.4.071s1.531-.025 2.234-.079a16.226 16.226 0 0 0 1.941-.26 7.319 7.319 0 0 0 1.522-.468l.022-.012.022-.01.022-.012.022-.01a1.147 1.147 0 0 0 .627-.547c.062-.185-.021-.368-.24-.535a3.057 3.057 0 0 0-1.063-.45 11.032 11.032 0 0 0-1.843-.293c-.766-.064-1.586-.123-2.385-.177s-1.576-.1-2.258-.142-1.265-.073-1.682-.094-.658-.035-.658-.035l-5.678 2.539z" transform="rotate(-7 5540.292 -340.028)" style="fill:url(#e0b48k1b0b)"/>
                    <path data-name="패스 5166" d="M271.207 94.909c-.32.171-.465.362-.389.57s.37.431.928.666a15.513 15.513 0 0 0 2.5.737c1.128.254 2.563.514 4.348.778.677.1 1.757.208 3 .314s2.645.21 3.964.3 2.556.169 3.463.225 1.485.089 1.485.089l7.7-2.468-.72-.148c-.451-.09-1.082-.218-1.807-.356s-1.538-.293-2.359-.437-1.642-.281-2.386-.387c-.981-.142-2.364-.318-3.96-.475s-3.4-.3-5.232-.375a53.738 53.738 0 0 0-5.407.019 19.813 19.813 0 0 0-4.518.708q-.093.029-.175.058t-.16.058l-.144.062a2.585 2.585 0 0 0-.129.064z" transform="rotate(-7 5533.011 -539.97)" style="fill:url(#e0b48k1b0b)"/>
                    <path data-name="패스 5167" d="m284.471 97.762.535.1a139.87 139.87 0 0 0 3.353.609c.708.12 1.456.241 2.191.35a20.012 20.012 0 0 0 2.4.187c.852.021 1.737 0 2.6-.054s1.689-.144 2.433-.262a12.633 12.633 0 0 0 1.91-.431 6.613 6.613 0 0 0 .453-.168 3.211 3.211 0 0 0 .335-.164c.255-.15.367-.295.357-.437s-.147-.275-.384-.4a4.852 4.852 0 0 0-1-.373 17.132 17.132 0 0 0-1.5-.337 115.47 115.47 0 0 0-2.68-.459c-.52-.085-1.077-.173-1.675-.264s-1.233-.187-1.911-.287l-7.408 2.389z" transform="rotate(-7 5539.393 -620.503)" style="fill:url(#e0b48k1b0b)"/>
                    <path data-name="패스 5168" d="M250.768 95.655c-.819.41-.861.8-.394 1.153a8.143 8.143 0 0 0 2.661.968c1.217.287 2.671.535 4.084.737s2.788.358 3.838.46c.821.081 1.8.16 2.808.235s2.043.142 2.978.2 1.768.106 2.366.141l.964.052 6.083-2.722s-.418-.087-1.092-.221-1.6-.316-2.62-.506-2.122-.387-3.16-.556-2-.306-2.734-.375q-3.261-.309-5.846-.4a62.493 62.493 0 0 0-4.519-.027 29.315 29.315 0 0 0-3.221.268 8.369 8.369 0 0 0-1.939.477l-.069.031-.065.029-.062.029-.06.031z" transform="rotate(-7 5547.06 -419.346)" style="fill:url(#e0b48k1b0b)"/>
                    <path data-name="패스 5169" d="M264.268 98.688q1.106.11 2.11.2t1.911.167c.6.052 1.171.1 1.708.137s1.036.077 1.5.11c.838.056 1.672.09 2.475.1s1.583-.013 2.308-.064a16.047 16.047 0 0 0 2-.256 7.036 7.036 0 0 0 1.558-.479l.053-.025.049-.025.048-.025.048-.023c.331-.183.513-.373.552-.564s-.062-.377-.3-.552a3.464 3.464 0 0 0-1.113-.468 11.68 11.68 0 0 0-1.889-.314c-.792-.077-1.641-.148-2.467-.214s-1.629-.123-2.333-.171-1.31-.087-1.738-.114l-.682-.042-5.8 2.624z" transform="rotate(-7 5551.833 -502.834)" style="fill:url(#e0b48k1b0b)"/>
                    <path data-name="패스 5170" d="M299.8 98.261c-.293.177-.413.375-.322.595s.4.456.95.71a15.5 15.5 0 0 0 2.469.807c1.106.283 2.507.578 4.243.882.681.119 1.78.256 3.047.391s2.705.275 4.058.4a369.23 369.23 0 0 0 5.085.431l8.407-2.477s-.269-.065-.722-.171a169.181 169.181 0 0 0-4.196-.926 71.546 71.546 0 0 0-2.427-.46c-.993-.171-2.395-.385-4.024-.583s-3.475-.383-5.364-.5a54.385 54.385 0 0 0-5.609-.083 21.421 21.421 0 0 0-4.8.666c-.084.025-.165.05-.24.075a3.693 3.693 0 0 0-.402.16 1.556 1.556 0 0 0-.159.087z" transform="rotate(-7 5548.12 -708.827)" style="fill:url(#e0b48k1b0b)"/>
                    <path data-name="패스 5171" d="m313.257 101.454.54.121c.343.075.83.183 1.411.306s1.255.264 1.968.4 1.471.285 2.213.416a19.549 19.549 0 0 0 2.464.248c.883.038 1.807.035 2.709-.008s1.778-.121 2.572-.231a13.9 13.9 0 0 0 2.057-.422c.12-.037.233-.073.336-.11s.2-.071.284-.108.163-.073.233-.108.13-.073.183-.108c.216-.146.3-.291.274-.431s-.168-.281-.4-.416a5.057 5.057 0 0 0-.974-.393c-.406-.127-.891-.25-1.435-.366-.375-.083-.789-.167-1.241-.258s-.941-.185-1.469-.285-1.094-.2-1.7-.314-1.25-.223-1.934-.341l-8.088 2.4z" transform="rotate(-7 5556.946 -790.314)" style="fill:url(#e0b48k1b0b)"/>
                    <path data-name="패스 5172" d="M278.459 98.763c-.723.4-.711.8-.221 1.17a8.557 8.557 0 0 0 2.657 1.04c1.2.316 2.618.6 4 .83s2.729.42 3.772.545c.832.1 1.828.2 2.853.3s2.086.191 3.041.271 1.807.148 2.421.2.987.075.987.075l6.729-2.772s-.417-.1-1.09-.258-1.6-.366-2.616-.589-2.124-.452-3.166-.653-2.009-.364-2.758-.452c-2.21-.262-4.2-.435-5.971-.539s-3.319-.137-4.654-.114a30.179 30.179 0 0 0-3.362.221 9.169 9.169 0 0 0-2.071.472 3.357 3.357 0 0 0-.156.064l-.144.064a2.627 2.627 0 0 0-.13.064l-.118.064z" transform="rotate(-7 5560.17 -583.2)" style="fill:url(#e0b48k1b0b)"/>
                    <path data-name="패스 5173" d="M292.171 102.1q1.134.136 2.16.256t1.951.216q.923.1 1.744.179t1.54.141c.857.077 1.714.129 2.544.154s1.639.019 2.4-.021a16.891 16.891 0 0 0 2.114-.231 8.071 8.071 0 0 0 1.692-.479c.043-.017.082-.035.122-.054s.075-.035.111-.054a3.94 3.94 0 0 0 .194-.11.87.87 0 0 0 .472-.564.631.631 0 0 0-.319-.558 3.469 3.469 0 0 0-1.083-.485 11.1 11.1 0 0 0-1.819-.347c-.8-.1-1.668-.189-2.51-.275s-1.663-.164-2.383-.229l-1.776-.158-.7-.058-6.455 2.678z" transform="rotate(-7 5567.24 -667.345)" style="fill:url(#e0b48k1b0b)"/>
                    <path data-name="패스 5174" d="M328.816 102.468c-.262.181-.365.389-.278.618a1.821 1.821 0 0 0 .881.758 13.532 13.532 0 0 0 2.254.889c1.006.316 2.28.653 3.856 1.007.662.15 1.752.331 3.019.518s2.714.379 4.077.554 2.65.331 3.6.445 1.546.181 1.546.181l9.728-2.379s-.257-.079-.688-.206-1.035-.306-1.732-.5-1.483-.414-2.28-.622-1.6-.406-2.338-.568c-.972-.212-2.357-.485-3.979-.749s-3.473-.52-5.4-.7a54.012 54.012 0 0 0-5.8-.268 24.711 24.711 0 0 0-5.243.558c-.135.033-.262.067-.382.1s-.23.073-.332.112a2.818 2.818 0 0 0-.28.121 1.658 1.658 0 0 0-.225.133z" transform="rotate(-7 5569.524 -880.491)" style="fill:url(#e0b48k1b0b)"/>
                    <path data-name="패스 5175" d="M341.9 106.091s.189.056.516.148.794.225 1.351.375 1.205.323 1.895.5 1.423.352 2.145.514a17.989 17.989 0 0 0 2.488.345c.91.071 1.881.1 2.841.083s1.912-.069 2.788-.162a17.759 17.759 0 0 0 2.33-.383c.189-.048.358-.1.513-.144s.293-.1.417-.144a3.47 3.47 0 0 0 .322-.146 1.7 1.7 0 0 0 .231-.148c.175-.139.24-.277.209-.418a.784.784 0 0 0-.367-.42 4.521 4.521 0 0 0-.859-.414 12.625 12.625 0 0 0-1.265-.4q-.54-.147-1.193-.314t-1.426-.352q-.769-.185-1.658-.389t-1.893-.427l-9.383 2.3z" transform="rotate(-7 5582.522 -959.764)" style="fill:url(#e0b48k1b0b)"/>
                    <path data-name="패스 5176" d="M306.4 102.467c-.619.393-.583.793-.117 1.184a8.025 8.025 0 0 0 2.46 1.122c1.1.352 2.405.676 3.677.951s2.52.5 3.5.664c.816.133 1.8.273 2.824.41s2.08.27 3.034.387 1.81.216 2.426.287.993.112.993.112l8.061-2.733s-.394-.121-1.03-.308-1.514-.441-2.482-.71-2.025-.551-3.026-.793-1.939-.45-2.68-.568c-2.179-.348-4.162-.6-5.947-.762s-3.369-.25-4.754-.268a31.173 31.173 0 0 0-3.549.129 11.413 11.413 0 0 0-2.323.431q-.175.058-.329.115a5.18 5.18 0 0 0-.531.232 1.734 1.734 0 0 0-.2.117z" transform="rotate(-7 5577.578 -748.678)" style="fill:url(#e0b48k1b0b)"/>
                    <path data-name="패스 5177" d="M319.75 106.191q1.111.182 2.126.339c.677.106 1.322.2 1.934.293s1.19.171 1.737.246 1.058.142 1.538.2c.859.108 1.726.193 2.578.244s1.694.075 2.5.056a18.913 18.913 0 0 0 2.292-.179 10.633 10.633 0 0 0 1.96-.456c.094-.033.185-.067.269-.1s.165-.069.238-.1.142-.073.206-.11.123-.075.177-.114a.836.836 0 0 0 .4-.543.636.636 0 0 0-.274-.545 2.975 2.975 0 0 0-.95-.489 9.688 9.688 0 0 0-1.623-.383c-.8-.129-1.658-.256-2.5-.373s-1.663-.227-2.385-.32-1.344-.169-1.785-.223l-.7-.083-7.735 2.641z" transform="rotate(-7 5588.626 -830.317)" style="fill:url(#e0b48k1b0b)"/>
                    <path data-name="패스 5178" d="M357.37 107.964a.633.633 0 0 0-.278.639 1.547 1.547 0 0 0 .638.8 8.9 8.9 0 0 0 1.713.964 30.53 30.53 0 0 0 2.961 1.13c.586.194 1.593.445 2.777.708s2.549.549 3.842.807a317.4 317.4 0 0 0 4.897.937l12.043-2s-.213-.1-.573-.258-.866-.379-1.454-.626-1.257-.52-1.942-.783-1.389-.518-2.045-.728c-.855-.279-2.1-.641-3.6-1.007s-3.247-.735-5.122-1.032a48.927 48.927 0 0 0-5.865-.585 30.314 30.314 0 0 0-5.884.316c-.245.04-.477.085-.689.135s-.41.1-.588.164a3.706 3.706 0 0 0-.477.193 1.87 1.87 0 0 0-.353.221z" transform="rotate(-7 5600.709 -1049.873)" style="fill:url(#e0b48k1b0b)"/>
                    <path data-name="패스 5179" d="M368.81 112.065s.156.069.43.185.667.281 1.14.472 1.027.408 1.623.631 1.238.452 1.881.666a13.633 13.633 0 0 0 2.338.5 33.588 33.588 0 0 0 5.991.222 24.318 24.318 0 0 0 2.747-.281c.331-.056.627-.115.892-.179s.492-.125.691-.192a3.615 3.615 0 0 0 .5-.208 1.345 1.345 0 0 0 .322-.217.456.456 0 0 0 .173-.385.693.693 0 0 0-.238-.4 2.885 2.885 0 0 0-.6-.416 7.917 7.917 0 0 0-.909-.42c-.3-.125-.643-.258-1.018-.4s-.785-.293-1.234-.452-.934-.329-1.457-.506-1.083-.364-1.685-.558l-11.588 1.944z" transform="rotate(-7 5620.79 -1119.871)" style="fill:url(#e0b48k1b0b)"/>
                    <path data-name="패스 5180" d="M334.057 107a.709.709 0 0 0-.153 1.178 5.878 5.878 0 0 0 1.908 1.207 27.4 27.4 0 0 0 2.919 1.08c1.024.323 2.037.6 2.858.8.749.183 1.666.385 2.621.581a230.997 230.997 0 0 0 6.09 1.168l10.384-2.456s-.321-.148-.842-.379-1.245-.545-2.05-.878-1.692-.685-2.548-1a22.785 22.785 0 0 0-2.354-.737c-2-.481-3.864-.847-5.584-1.115s-3.288-.437-4.7-.527a33.258 33.258 0 0 0-3.748-.046 15.63 15.63 0 0 0-2.705.335 9.961 9.961 0 0 0-1.294.374 4.81 4.81 0 0 0-.46.2 2.736 2.736 0 0 0-.343.208z" transform="rotate(-7 5601.056 -912.591)" style="fill:url(#e0b48k1b0b)"/>
                    <path data-name="패스 5181" d="M345.771 111.143q1.026.254 1.963.474t1.786.416c.567.127 1.1.246 1.612.354s.987.206 1.44.3c.814.16 1.653.295 2.5.4s1.706.169 2.558.192a21.841 21.841 0 0 0 2.518-.065 16.308 16.308 0 0 0 2.388-.375c.223-.054.432-.112.624-.173s.367-.125.525-.191a4.421 4.421 0 0 0 .423-.206 2.139 2.139 0 0 0 .321-.219.838.838 0 0 0 .324-.481.578.578 0 0 0-.168-.485 2.05 2.05 0 0 0-.681-.458 6.716 6.716 0 0 0-1.214-.4c-.741-.179-1.545-.36-2.333-.529a188.857 188.857 0 0 0-3.921-.795l-.663-.127-10 2.375z" transform="rotate(-7 5618.792 -984.695)" style="fill:url(#e0b48k1b0b)"/>
                    <path data-name="패스 5182" d="M382.548 115.575a1.177 1.177 0 0 0-.36.633 1.289 1.289 0 0 0 .127.78 3.414 3.414 0 0 0 .682.932 9.671 9.671 0 0 0 1.313 1.09 12.185 12.185 0 0 0 1.953.97c.888.375 1.942.785 2.954 1.165s1.989.728 2.71.982 1.188.414 1.188.414l15.207-.976-.264-.316c-.164-.197-.411-.466-.7-.772s-.636-.647-1.008-.978a11.224 11.224 0 0 0-1.18-.932 18.562 18.562 0 0 0-2.463-1.351 29.56 29.56 0 0 0-4.015-1.507 33.354 33.354 0 0 0-5.362-1.117 35.3 35.3 0 0 0-6.549-.192c-.49.033-.957.079-1.39.142a10.763 10.763 0 0 0-1.2.241 5.6 5.6 0 0 0-.962.343 2.577 2.577 0 0 0-.677.45z" transform="rotate(-7 5647.834 -1199.847)" style="fill:url(#e0b48k1b0b)"/>
                    <path data-name="패스 5183" d="M389.707 119.777s.074.085.209.227.333.347.578.585.542.512.874.793.7.577 1.094.855a6 6 0 0 0 1.8.728 21.457 21.457 0 0 0 2.753.514 35.928 35.928 0 0 0 6.504.22c.641-.042 1.207-.1 1.7-.167a11.109 11.109 0 0 0 1.275-.241 4.835 4.835 0 0 0 .88-.308 1.7 1.7 0 0 0 .519-.364.772.772 0 0 0 .172-.3.675.675 0 0 0 0-.325 1.117 1.117 0 0 0-.158-.343 2.173 2.173 0 0 0-.3-.354c-.163-.158-.35-.327-.564-.51s-.451-.373-.715-.579-.556-.422-.874-.651-.663-.47-1.035-.724l-14.713.949z" transform="rotate(-7 5679.166 -1245.934)" style="fill:url(#e0b48k1b0b)"/>
                    <path data-name="패스 5184" d="M359.98 112.839a1.08 1.08 0 0 0-.425 1.126 2.653 2.653 0 0 0 .808 1.2 9.43 9.43 0 0 0 1.49 1.118 16.942 16.942 0 0 0 1.617.882c.519.25 1.19.531 1.906.814s1.48.568 2.179.82 1.335.475 1.795.633.747.254.747.254l13.773-1.6s-.137-.177-.374-.458-.573-.662-.967-1.072a15.6 15.6 0 0 0-1.325-1.232 7.154 7.154 0 0 0-1.457-.953 31.494 31.494 0 0 0-4.288-1.609 32.776 32.776 0 0 0-4.133-.936 30.372 30.372 0 0 0-3.772-.366 22.69 22.69 0 0 0-3.2.112c-.6.067-1.135.146-1.608.237a11.983 11.983 0 0 0-1.243.294 5.949 5.949 0 0 0-.912.345 2.747 2.747 0 0 0-.612.387z" transform="rotate(-7 5634.17 -1066.254)" style="fill:url(#e0b48k1b0b)"/>
                    <path data-name="패스 5185" d="M367.536 117.092c.478.229.943.447 1.39.651s.881.4 1.3.576.818.348 1.2.5.751.3 1.1.431a17.95 17.95 0 0 0 2.057.626 20.754 20.754 0 0 0 2.38.422 23.162 23.162 0 0 0 2.674.156 25.328 25.328 0 0 0 2.94-.175c.518-.062 1-.137 1.445-.225a11.539 11.539 0 0 0 1.2-.3 6.088 6.088 0 0 0 .917-.358 2.418 2.418 0 0 0 .6-.4.862.862 0 0 0 .228-.339.494.494 0 0 0-.017-.347.929.929 0 0 0-.278-.345 2.622 2.622 0 0 0-.557-.333c-.53-.246-1.125-.5-1.718-.741a75.564 75.564 0 0 0-3.017-1.153l-.521-.187-13.323 1.54z" transform="rotate(-7 5662.315 -1114.944)" style="fill:url(#e0b48k1b0b)"/>
                    <path data-name="패스 5186" d="M398.288 126.913a4.295 4.295 0 0 0-.708 1.088 4.162 4.162 0 0 0-.156.412 1.8 1.8 0 0 0 .256 1.178 10.485 10.485 0 0 0 .914 1.492 24.384 24.384 0 0 0 1.452 1.837l17.422 1.022.063-.069c.043-.044.1-.112.177-.194s.163-.183.259-.3.2-.239.314-.375c.141-.175.288-.366.434-.562s.29-.4.42-.612a6.108 6.108 0 0 0 .345-.612 2.938 2.938 0 0 0 .216-.572 2.986 2.986 0 0 0-.084-1.623 4.357 4.357 0 0 0-1.409-1.969 9.881 9.881 0 0 0-3.511-1.758 27.379 27.379 0 0 0-6.4-1 24.062 24.062 0 0 0-2.959.013 17.893 17.893 0 0 0-2.8.406 10.839 10.839 0 0 0-2.424.849 6.019 6.019 0 0 0-1.817 1.351z" transform="rotate(-7 5717.45 -1293.348)" style="fill:url(#e0b48k1b0b)"/>
                    <path data-name="패스 5187" d="M399.341 129.586s-.077.09-.2.244-.29.373-.47.633a10.2 10.2 0 0 0-.542.87 5.2 5.2 0 0 0-.417.957c-.1.312.091.628.511.93a6.973 6.973 0 0 0 1.877.851 21.329 21.329 0 0 0 2.849.672 31.685 31.685 0 0 0 3.42.389 29.536 29.536 0 0 0 3.319.037 15.151 15.151 0 0 0 2.476-.308 7 7 0 0 0 1.711-.587 3.166 3.166 0 0 0 1.025-.8l.024-.029.022-.029.021-.031.022-.029a5.757 5.757 0 0 0 .351-.558 6.914 6.914 0 0 0 .321-.649c.1-.231.2-.477.281-.741s.166-.539.237-.834l-16.84-.99z" transform="rotate(-7 5757.673 -1297.515)" style="fill:url(#e0b48k1b0b)"/>
                    <path data-name="패스 5188" d="M377.417 121.383a3.74 3.74 0 0 0-.619.778 3.106 3.106 0 0 0-.327.768 2.81 2.81 0 0 0-.1.708 2.45 2.45 0 0 0 .067.6 4.024 4.024 0 0 0 .444 1.009 11.512 11.512 0 0 0 .694 1.045 18.956 18.956 0 0 0 .926 1.155l16.659.177.007-.008.021-.021.033-.033.045-.046c.128-.137.369-.395.65-.716s.6-.71.895-1.113a7.282 7.282 0 0 0 .732-1.186 1.383 1.383 0 0 0 .171-.947 4.47 4.47 0 0 0-1.414-2.066 8.347 8.347 0 0 0-2.46-1.4 15.862 15.862 0 0 0-3.115-.8 22.805 22.805 0 0 0-3.391-.275 32.452 32.452 0 0 0-3.8.166 18.227 18.227 0 0 0-2.825.514 9.969 9.969 0 0 0-2 .766 5.6 5.6 0 0 0-1.3.926z" transform="rotate(-7 5685.302 -1168.151)" style="fill:url(#e0b48k1b0b)"/>
                    <path data-name="패스 5189" d="M378.208 124.184c.072.277.149.541.233.791s.171.485.266.708.2.429.3.624a5.381 5.381 0 0 0 .336.545 2.961 2.961 0 0 0 .916.851 6.536 6.536 0 0 0 1.606.7 14.355 14.355 0 0 0 2.386.483 29.323 29.323 0 0 0 3.254.2c.95.012 1.884-.021 2.764-.089a24.22 24.22 0 0 0 2.44-.308 11.8 11.8 0 0 0 1.884-.487 2.9 2.9 0 0 0 1.1-.628.834.834 0 0 0 .106-.137.542.542 0 0 0 .065-.141.461.461 0 0 0 .022-.144.551.551 0 0 0-.021-.146 5.531 5.531 0 0 0-.4-.922c-.163-.306-.345-.6-.516-.855s-.327-.474-.442-.628-.189-.243-.189-.243l-16.11-.175z" transform="rotate(-7 5723.78 -1181.262)" style="fill:url(#e0b48k1b0b)"/>
                    <path data-name="패스 5190" d="m385.181 142.567 15.2 3.573s.375-.1.984-.258 1.449-.389 2.383-.651 1.956-.558 2.932-.859 1.9-.6 2.635-.88c.473-.181 1-.4 1.55-.645s1.106-.524 1.644-.822a13.521 13.521 0 0 0 1.5-.949 6.052 6.052 0 0 0 1.114-1.03 2.076 2.076 0 0 0 .5-1.084 1.4 1.4 0 0 0-.388-1.068 4.3 4.3 0 0 0-1.517-1 15.954 15.954 0 0 0-2.885-.893 21.833 21.833 0 0 0-3.682-.474 32.944 32.944 0 0 0-4.557.1 40.567 40.567 0 0 0-5.224.814 44.267 44.267 0 0 0-5.7 1.677 11.6 11.6 0 0 0-2.128 1.1c-.732.46-1.457.986-2.1 1.48s-1.21.964-1.613 1.309-.645.564-.645.564z" transform="rotate(-7 5806.742 -1227.208)" style="fill:url(#e0b48k1b0b)"/>
                    <path data-name="패스 5191" d="M378.355 142.751a.844.844 0 0 0-.23.82 1.752 1.752 0 0 0 .657.851 6.264 6.264 0 0 0 1.447.807 14.445 14.445 0 0 0 2.139.683 23.763 23.763 0 0 0 9.357.333 22.894 22.894 0 0 0 2.664-.6q.7-.2 1.471-.447t1.625-.531q.851-.289 1.778-.62t1.93-.712l-14.646-3.465s-.255.069-.684.189-1.03.293-1.723.5-1.478.443-2.27.7-1.6.525-2.323.793a4.337 4.337 0 0 0-.394.164 3.549 3.549 0 0 0-.329.171 2.343 2.343 0 0 0-.266.183 1.555 1.555 0 0 0-.2.189z" transform="rotate(-7 5842.414 -1187.854)" style="fill:url(#e0b48k1b0b)"/>
                    <path data-name="패스 5192" d="m377 135.122 15.939 2.574s.555-.144 1.418-.375 2.03-.551 3.254-.9 2.5-.735 3.593-1.1a17.135 17.135 0 0 0 2.458-.959q.473-.269.869-.522c.266-.169.506-.335.723-.495s.41-.32.581-.472a5.126 5.126 0 0 0 .448-.448 2.007 2.007 0 0 0 .61-1.332 1.441 1.441 0 0 0-.586-1.063 4.876 4.876 0 0 0-1.54-.8 13.752 13.752 0 0 0-2.258-.529 35.1 35.1 0 0 0-7.135-.366 37.192 37.192 0 0 0-6.134.826 36.639 36.639 0 0 0-4.8 1.4 24.852 24.852 0 0 0-3.082 1.355 16.337 16.337 0 0 0-1.572.974c-.507.352-.984.718-1.4 1.045s-.758.626-1 .837-.384.343-.384.343z" transform="rotate(-7 5755.318 -1176.102)" style="fill:url(#e0b48k1b0b)"/>
                    <path data-name="패스 5193" d="M373.3 135.582a1.242 1.242 0 0 0-.411.8.955.955 0 0 0 .418.758 4.385 4.385 0 0 0 1.4.687 17.331 17.331 0 0 0 2.527.585 31.264 31.264 0 0 0 3.454.364c1.2.062 2.405.065 3.542.012a23.61 23.61 0 0 0 3.108-.339 7.4 7.4 0 0 0 2.153-.681c.514-.287 1.008-.595 1.459-.9s.861-.595 1.205-.851.626-.477.82-.635.3-.248.3-.248l-15.375-2.495q-.72.39-1.339.745c-.413.237-.79.462-1.137.676s-.658.416-.94.606-.53.37-.747.537l-.122.094-.115.094-.1.094c-.033.033-.065.063-.1.1z" transform="rotate(-7 5789.618 -1154.084)" style="fill:url(#e0b48k1b0b)"/>
                    <path data-name="패스 5194" d="m345.569 146.414 5.882 5.477s.543-.012 1.438-.035 2.141-.06 3.547-.106 2.968-.108 4.5-.179 3.022-.154 4.288-.248c1.32-.1 2.986-.254 4.776-.466s3.7-.476 5.512-.8a40.154 40.154 0 0 0 4.907-1.145 7.343 7.343 0 0 0 2.973-1.5 1.415 1.415 0 0 0 .293-.443.928.928 0 0 0 .057-.468 1.184 1.184 0 0 0-.2-.491 2.512 2.512 0 0 0-.477-.514 6.24 6.24 0 0 0-2.338-1.02 27.2 27.2 0 0 0-4.392-.7c-1.815-.164-3.989-.248-6.54-.231s-5.481.139-8.808.389c-1.123.085-2.642.281-4.293.527s-3.436.547-5.081.835-3.156.57-4.253.776-1.785.343-1.785.343z" transform="rotate(-7 5881.819 -999.6)" style="fill:url(#e0b48k1b0b)"/>
                    <path data-name="패스 5195" d="M332.683 147.5a1.881 1.881 0 0 0-.37.451 1.105 1.105 0 0 0-.146.47 1 1 0 0 0 .087.475 1.585 1.585 0 0 0 .336.47 4.561 4.561 0 0 0 1.689.993 13.179 13.179 0 0 0 2.554.608 28.525 28.525 0 0 0 3.2.27c1.149.038 2.364.029 3.612-.019.693-.029 1.437-.062 2.237-.1s1.654-.089 2.563-.142 1.874-.117 2.894-.189 2.093-.148 3.223-.233l-5.555-5.278-1.007.034c-.633.025-1.527.06-2.572.106s-2.239.1-3.47.173-2.5.148-3.7.239a18.485 18.485 0 0 0-1.9.233 12.776 12.776 0 0 0-1.581.375 7.792 7.792 0 0 0-1.234.489 3.831 3.831 0 0 0-.861.576z" transform="rotate(-7 5899.695 -922.118)" style="fill:url(#e0b48k1b0b)"/>
                    <path data-name="패스 5196" d="m358.068 139.957 8.882 4.8s.825-.025 2.124-.069 3.076-.112 4.979-.2 3.931-.183 5.74-.3 3.391-.243 4.4-.381c1.917-.262 3.583-.531 5.02-.807s2.638-.552 3.634-.832a16.227 16.227 0 0 0 2.375-.834 3.91 3.91 0 0 0 1.243-.81 1 1 0 0 0 .249-.445.64.64 0 0 0-.055-.423 1.257 1.257 0 0 0-.336-.4 3.151 3.151 0 0 0-.593-.371 18.415 18.415 0 0 0-5.87-1.509 58.978 58.978 0 0 0-7.538-.335c-2.6.031-5.208.179-7.523.37s-4.346.42-5.8.614c-1.113.148-2.35.345-3.581.552s-2.46.431-3.55.635-2.04.391-2.719.524-1.087.219-1.087.219z" transform="rotate(-7 5828.166 -1069.586)" style="fill:url(#e0b48k1b0b)"/>
                    <path data-name="패스 5197" d="M347.139 141.939a.928.928 0 0 0-.259.385.6.6 0 0 0 .022.412 1.281 1.281 0 0 0 .331.441 3.722 3.722 0 0 0 .667.466 10.375 10.375 0 0 0 2.311.872 24.356 24.356 0 0 0 3.146.606 30.646 30.646 0 0 0 3.525.252 23.519 23.519 0 0 0 3.432-.191c1.078-.148 2.186-.318 3.242-.487a203.771 203.771 0 0 0 5.853-1.024l-8.505-4.637q-1.5.2-2.82.387t-2.482.364q-1.157.176-2.15.341t-1.831.314c-.547.1-1.061.206-1.533.318s-.905.229-1.289.354a7.589 7.589 0 0 0-1 .395 2.762 2.762 0 0 0-.662.433z" transform="rotate(-7 5847.271 -1005.012)" style="fill:url(#e0b48k1b0b)"/>
                    <path data-name="패스 5198" d="m298.06 145.791-1.02 5.6 1.39.1c.867.062 2.081.139 3.459.223s2.921.169 4.447.243 3.038.133 4.349.16c1.555.029 3.607.035 5.863-.013s4.716-.152 7.079-.343a52.812 52.812 0 0 0 6.487-.868 9.8 9.8 0 0 0 4.085-1.577 2.251 2.251 0 0 0 .233-.235 1.616 1.616 0 0 0 .177-.244 1.307 1.307 0 0 0 .117-.256 1.123 1.123 0 0 0 .055-.27c.029-.393-.292-.789-1-1.167a13.331 13.331 0 0 0-3.36-1.051 53.044 53.044 0 0 0-5.968-.8c-2.452-.212-5.382-.362-8.841-.427-1.174-.021-2.856.027-4.72.11s-3.911.2-5.81.323-3.655.244-4.934.339-2.085.158-2.085.158z" transform="rotate(-7 5909.094 -716.792)" style="fill:url(#e0b48k1b0b)"/>
                    <path data-name="패스 5199" d="M282.888 146.931a2.919 2.919 0 0 0-.252.212 1.914 1.914 0 0 0-.2.216 1.492 1.492 0 0 0-.146.221.976.976 0 0 0-.089.223 1.018 1.018 0 0 0 .4 1.07 4.557 4.557 0 0 0 1.653.787 17.8 17.8 0 0 0 2.652.535c1.022.141 2.165.243 3.388.312q1.013.055 2.2.108t2.563.1q1.373.046 2.928.089t3.3.075l1.087-5.378s-.365-.023-.987-.058-1.505-.081-2.539-.133-2.218-.1-3.451-.148-2.51-.087-3.73-.11a24.331 24.331 0 0 0-2.789.11 20.672 20.672 0 0 0-2.5.393 13.71 13.71 0 0 0-2.049.61 6.166 6.166 0 0 0-1.445.768z" transform="rotate(-7 5915.844 -630.038)" style="fill:url(#e0b48k1b0b)"/>
                    <path data-name="패스 5200" d="m318.269 140.73 2.692 5.294s.819.05 2.124.123 3.091.167 5.025.258 4.017.175 5.9.229 3.581.073 4.735.033c2.68-.09 5.013-.229 7.022-.4s3.693-.383 5.083-.618a22.44 22.44 0 0 0 3.305-.768 4.809 4.809 0 0 0 1.7-.855 1.334 1.334 0 0 0 .209-.246.742.742 0 0 0 .1-.244.588.588 0 0 0 0-.245.758.758 0 0 0-.1-.244c-.519-.841-1.934-1.473-3.862-1.942a45.253 45.253 0 0 0-6.935-.98c-2.57-.2-5.282-.289-7.761-.314s-4.722.013-6.36.071c-1.241.042-2.668.117-4.106.206s-2.894.189-4.192.285a443.488 443.488 0 0 0-4.579.36z" transform="rotate(-7 5863.277 -838.434)" style="fill:url(#e0b48k1b0b)"/>
                    <path data-name="패스 5201" d="M304.675 142.518a1.517 1.517 0 0 0-.254.254.891.891 0 0 0-.146.277.756.756 0 0 0-.034.3.979.979 0 0 0 .087.32 2.419 2.419 0 0 0 1.121 1.013 10.236 10.236 0 0 0 2.248.841 20.3 20.3 0 0 0 3.035.545 24.5 24.5 0 0 0 3.477.125c1.209-.04 2.47-.1 3.684-.162s2.378-.135 3.391-.2 1.874-.125 2.482-.169l.965-.069-2.481-5.094q-1.674.058-3.166.119t-2.808.125q-1.314.063-2.453.129c-.761.046-1.462.09-2.107.137-.837.058-1.632.131-2.371.219s-1.418.194-2.025.318a11.364 11.364 0 0 0-1.588.427 3.8 3.8 0 0 0-1.058.545z" transform="rotate(-7 5873.578 -756.82)" style="fill:url(#e0b48k1b0b)"/>
                    <path data-name="패스 5202" d="m252.741 145.484-2.239 5.532 1.346.094c.84.058 2.014.135 3.348.216s2.832.166 4.315.235 2.957.125 4.24.15c1.514.031 3.521.038 5.742-.01s4.653-.152 7.01-.341a56.29 56.29 0 0 0 6.547-.859 11.914 11.914 0 0 0 4.349-1.557 3.2 3.2 0 0 0 .283-.231 2.434 2.434 0 0 0 .228-.243 1.76 1.76 0 0 0 .17-.256 1.236 1.236 0 0 0 .112-.268c.117-.387-.11-.778-.727-1.151a10.591 10.591 0 0 0-3.065-1.036 47.441 47.441 0 0 0-5.687-.793c-2.362-.208-5.212-.354-8.6-.418-1.14-.019-2.794.029-4.634.112s-3.869.2-5.757.325-3.631.246-4.9.341l-2.076.156z" transform="rotate(-7 5923.37 -444.865)" style="fill:url(#e0b48k1b0b)"/>
                    <path data-name="패스 5203" d="M237.278 146.6c-.106.069-.2.139-.295.21a3.1 3.1 0 0 0-.243.216 1.851 1.851 0 0 0-.192.221 1.506 1.506 0 0 0-.134.221.877.877 0 0 0 .161 1.057 3.437 3.437 0 0 0 1.456.78 15.443 15.443 0 0 0 2.488.525c.972.135 2.071.235 3.251.3q.982.055 2.138.106t2.493.1q1.335.043 2.853.085t3.218.075l2.212-5.307-.957-.056a312.007 312.007 0 0 0-5.802-.277 192.265 192.265 0 0 0-3.619-.106 24.044 24.044 0 0 0-2.759.11 22.078 22.078 0 0 0-2.534.385 16.163 16.163 0 0 0-2.146.6 7.839 7.839 0 0 0-1.588.757z" transform="rotate(-7 5929.954 -362.055)" style="fill:url(#e0b48k1b0b)"/>
                    <path data-name="패스 5204" d="m273.263 140.475 1.5 5.225s.792.048 2.052.119 2.992.164 4.867.25 3.9.171 5.733.221 3.492.071 4.632.031c2.649-.092 4.965-.229 6.972-.4s3.7-.379 5.116-.612a25.769 25.769 0 0 0 3.407-.758 6.1 6.1 0 0 0 1.852-.847 1.726 1.726 0 0 0 .26-.243 1.023 1.023 0 0 0 .156-.244.655.655 0 0 0 .053-.243.626.626 0 0 0-.045-.241c-.329-.832-1.579-1.457-3.367-1.921a40.221 40.221 0 0 0-6.587-.962c-2.477-.2-5.116-.281-7.542-.3s-4.637.017-6.261.075c-1.227.042-2.64.117-4.07.206s-2.877.191-4.169.285-2.434.187-3.252.254-1.312.11-1.312.11z" transform="rotate(-7 5877.375 -575.473)" style="fill:url(#e0b48k1b0b)"/>
                    <path data-name="패스 5205" d="M259.694 142.246a2.127 2.127 0 0 0-.3.25 1.2 1.2 0 0 0-.206.271.906.906 0 0 0-.1.291.851.851 0 0 0 .012.314 1.758 1.758 0 0 0 .886 1 8.046 8.046 0 0 0 2.026.832 17.725 17.725 0 0 0 2.861.535 23.591 23.591 0 0 0 3.384.123c1.2-.042 2.45-.1 3.657-.166s2.364-.135 3.372-.2 1.869-.123 2.475-.166l.96-.071-1.342-5.026q-1.653.058-3.13.117t-2.782.123q-1.3.063-2.436.129t-2.1.137c-.831.056-1.625.129-2.368.218s-1.433.194-2.056.318a13.367 13.367 0 0 0-1.654.425 4.87 4.87 0 0 0-1.161.541z" transform="rotate(-7 5887.73 -492.952)" style="fill:url(#e0b48k1b0b)"/>
                    <path data-name="패스 5206" d="m209.045 150.242 4.133 5.348s.533-.029 1.409-.083 2.1-.133 3.477-.229 2.913-.21 4.416-.333 2.978-.26 4.233-.4a120.944 120.944 0 0 0 9.755-1.503c1.77-.356 3.475-.762 4.953-1.215a14.849 14.849 0 0 0 3.542-1.48 3.772 3.772 0 0 0 .672-.535 1.62 1.62 0 0 0 .368-.56.967.967 0 0 0 .029-.583 1.457 1.457 0 0 0-.345-.6 4.073 4.073 0 0 0-1.972-.957 21.877 21.877 0 0 0-4.051-.564 62.424 62.424 0 0 0-6.269-.019c-2.479.1-5.356.322-8.66.683-1.113.123-2.645.373-4.318.681s-3.5.67-5.177 1.018-3.233.681-4.361.928-1.834.408-1.834.408z" transform="rotate(-7 5952.616 -203.64)" style="fill:url(#e0b48k1b0b)"/>
                    <path data-name="패스 5207" d="M196.655 151.235a4.551 4.551 0 0 0-.749.545 2.239 2.239 0 0 0-.459.568 1.148 1.148 0 0 0-.149.574 1.045 1.045 0 0 0 .189.56 2.929 2.929 0 0 0 1.377.951 10.012 10.012 0 0 0 2.33.531 25.437 25.437 0 0 0 3.053.164c1.114 0 2.309-.054 3.549-.148q1.026-.075 2.213-.177t2.542-.233q1.353-.13 2.877-.289t3.215-.346l-3.914-5.159-.991.069c-.624.046-1.507.112-2.539.192s-2.213.181-3.436.291-2.486.233-3.682.364c-.59.065-1.149.152-1.675.254s-1.022.221-1.478.354a11.926 11.926 0 0 0-1.257.437 7.733 7.733 0 0 0-1.015.5z" transform="rotate(-7 5975.07 -124.418)" style="fill:url(#e0b48k1b0b)"/>
                    <path data-name="패스 5208" d="m223.281 143.323 7.247 4.557s.8-.052 2.073-.141 3-.214 4.865-.358 3.851-.314 5.628-.489 3.346-.352 4.367-.524c1.735-.294 3.274-.589 4.632-.882s2.532-.581 3.539-.866a26.211 26.211 0 0 0 2.53-.837 9.468 9.468 0 0 0 1.61-.793 2.782 2.782 0 0 0 .65-.553.9.9 0 0 0 .226-.514.7.7 0 0 0-.161-.47 1.737 1.737 0 0 0-.514-.424 13.417 13.417 0 0 0-5.219-1.33 52.538 52.538 0 0 0-7.173-.1c-2.522.116-5.078.346-7.368.612s-4.32.562-5.776.807c-1.111.187-2.362.424-3.614.672s-2.506.516-3.623.757-2.1.46-2.8.618-1.121.256-1.121.256z" transform="rotate(-7 5895.146 -283.574)" style="fill:url(#e0b48k1b0b)"/>
                    <path data-name="패스 5209" d="M212.44 145.233a2.47 2.47 0 0 0-.567.447.85.85 0 0 0-.228.47.729.729 0 0 0 .149.493 2.073 2.073 0 0 0 .566.516 6.942 6.942 0 0 0 1.992.81 18.9 18.9 0 0 0 2.885.51 26.815 26.815 0 0 0 3.35.137 23.487 23.487 0 0 0 3.374-.3c1.092-.187 2.22-.395 3.3-.6s2.1-.414 2.986-.6 1.636-.341 2.164-.454.835-.183.835-.183l-6.926-4.408q-1.51.254-2.849.487t-2.512.45q-1.173.217-2.181.412t-1.852.375a29.322 29.322 0 0 0-2.647.673 11.99 11.99 0 0 0-1.034.372 6.3 6.3 0 0 0-.8.395z" transform="rotate(-7 5918.514 -216.775)" style="fill:url(#e0b48k1b0b)"/>
                    <path data-name="패스 5210" d="m174.987 161.552 12.325 3.985s.473-.117 1.246-.316 1.843-.475 3.04-.8 2.512-.68 3.782-1.043 2.486-.733 3.485-1.066c.588-.2 1.25-.431 1.953-.695s1.442-.556 2.186-.872 1.49-.651 2.2-1 1.394-.714 2.008-1.088a11.078 11.078 0 0 0 1.894-1.394 2.79 2.79 0 0 0 .888-1.378 1.327 1.327 0 0 0-.5-1.28 5.93 5.93 0 0 0-2.256-1.109 13.565 13.565 0 0 0-3.316-.506 31.563 31.563 0 0 0-4.744.175 54.05 54.05 0 0 0-6.083 1.022c-2.246.5-4.7 1.172-7.362 2.041a29.287 29.287 0 0 0-3.2 1.322c-1.174.551-2.4 1.178-3.52 1.769s-2.129 1.151-2.858 1.559-1.18.674-1.18.674z" transform="rotate(-7 6013.994 -7.745)" style="fill:url(#e0b48k1b0b)"/>
                    <path data-name="패스 5211" d="M166.32 161.646a3.308 3.308 0 0 0-1.152.993 1.263 1.263 0 0 0-.2 1.032 1.86 1.86 0 0 0 .715.968 5.536 5.536 0 0 0 1.6.8 13.233 13.233 0 0 0 2.865.6 19.682 19.682 0 0 0 3.154.058 28.047 28.047 0 0 0 3.293-.395c1.1-.2 2.208-.45 3.288-.751.6-.164 1.236-.343 1.915-.543s1.4-.414 2.157-.649 1.56-.485 2.4-.757 1.721-.558 2.642-.864l-11.843-3.867-.876.231c-.55.146-1.327.358-2.227.61s-1.925.541-2.971.851-2.119.637-3.108.961a10.824 10.824 0 0 0-.909.342 7.622 7.622 0 0 0-.742.37z" transform="rotate(-7 7291.87 -26.938)" style="fill:url(#e0b48k1b0b)"/>
                    <path data-name="패스 5212" d="m178.446 152.367-.593.335-.453.262c-.125.073-.225.129-.29.169l-.1.06L191.02 156s.7-.175 1.79-.458 2.572-.672 4.14-1.1 3.218-.9 4.655-1.332a34 34 0 0 0 3.364-1.161c.369-.162.718-.32 1.053-.475s.651-.31.952-.46.585-.3.852-.441.519-.287.756-.423a10.472 10.472 0 0 0 2.374-1.765 1.833 1.833 0 0 0 .629-1.384 1.408 1.408 0 0 0-.8-1.009 6.337 6.337 0 0 0-1.942-.639 27.543 27.543 0 0 0-6.952-.341 47.249 47.249 0 0 0-7 1.041c-2.249.5-4.358 1.1-6.167 1.7s-3.326 1.18-4.37 1.627c-.5.214-1.029.456-1.558.71s-1.065.522-1.582.789-1.02.533-1.486.787-.9.491-1.27.7z" transform="rotate(-7 5952.582 -15.838)" style="fill:url(#e0b48k1b0b)"/>
                    <path data-name="패스 5213" d="M171.73 153.413a6.531 6.531 0 0 0-1.431 1.02 1.254 1.254 0 0 0-.463.964c.033.306.266.595.735.859a7.859 7.859 0 0 0 2.164.7 20.97 20.97 0 0 0 3.213.381 32.3 32.3 0 0 0 3.631-.033 28.263 28.263 0 0 0 3.509-.439 14.044 14.044 0 0 0 2.853-.832c.778-.343 1.558-.71 2.29-1.07s1.413-.708 2-1.014 1.07-.568 1.409-.755l.535-.295-13.5-2.734q-1.106.468-2.064.9t-1.783.81q-.823.384-1.516.726t-1.262.641l-.081.042-.079.042-.077.042-.077.042z" transform="rotate(-7 5994.72 23.655)" style="fill:url(#e0b48k1b0b)"/>
                    <path data-name="패스 5214" d="M159.86 169.05c-.154.09-.31.181-.466.275s-.31.189-.465.285-.31.194-.466.295-.31.2-.466.306a9.994 9.994 0 0 0-1.894 1.734 25.872 25.872 0 0 0-1.735 2.225c-.519.739-.96 1.428-1.272 1.933s-.5.826-.5.826l17.581 2.243s.259-.129.694-.35 1.046-.533 1.747-.9 1.49-.789 2.285-1.228 1.6-.9 2.321-1.336c.137-.083.271-.166.4-.248s.259-.162.382-.243.245-.158.36-.235.228-.152.334-.227a20.953 20.953 0 0 0 2.878-2.393 8.212 8.212 0 0 0 2.026-2.951 2.36 2.36 0 0 0-.711-2.714c-.895-.78-2.553-1.4-5.284-1.725a20.307 20.307 0 0 0-3.682-.075 27.67 27.67 0 0 0-4.32.631 32.784 32.784 0 0 0-4.757 1.457 35.666 35.666 0 0 0-5 2.416z" transform="rotate(-7 7471.487 34.342)" style="fill:url(#e0b48k1b0b)"/>
                    <path data-name="패스 5215" d="m149.425 174.627-.609.362c-.2.121-.4.245-.6.368s-.394.246-.588.37-.381.246-.562.368a2.359 2.359 0 0 0-1.142 1.4 1.478 1.478 0 0 0 .525 1.342 5.475 5.475 0 0 0 1.937 1.118 14.417 14.417 0 0 0 3.094.728 22.94 22.94 0 0 0 3.763.189 21.2 21.2 0 0 0 3.442-.389 20.546 20.546 0 0 0 3.077-.855 19.3 19.3 0 0 0 2.669-1.211c.156-.087.314-.177.477-.27l.5-.285c.173-.098.341-.2.514-.3s.353-.21.533-.32q.5-.3 1.029-.635t1.083-.693q.555-.361 1.137-.751c.387-.26.782-.531 1.185-.81l-16.99-2.181s-.139.069-.379.2-.586.308-1 .533-.9.489-1.428.783-1.089.614-1.658.947z" transform="rotate(-7 7660.678 62.05)" style="fill:url(#e0b48k1b0b)"/>
                    <path data-name="패스 5216" d="M152.574 160.235a27.972 27.972 0 0 0-2.875 1.807c-.397.289-.756.562-1.07.818s-.585.495-.809.7a14.16 14.16 0 0 0-1.336 1.48c-.42.527-.8 1.064-1.128 1.548s-.595.912-.78 1.222-.291.5-.291.5l18.154.916.636-.316a159.45 159.45 0 0 0 3.807-1.967c.773-.413 1.567-.847 2.316-1.272a49.174 49.174 0 0 0 2.081-1.253c.296-.192.564-.377.789-.547a5.074 5.074 0 0 0 .547-.456 8.507 8.507 0 0 0 2.134-3.053 2.242 2.242 0 0 0-.226-2.119 3.909 3.909 0 0 0-2.011-1.28 12.569 12.569 0 0 0-3.254-.526 32.581 32.581 0 0 0-5.071.15 31.374 31.374 0 0 0-8.371 2.106 30.674 30.674 0 0 0-3.242 1.54z" transform="rotate(-7 6988.728 112.61)" style="fill:url(#e0b48k1b0b)"/>
                    <path data-name="패스 5217" d="M145.041 163.767q-.645.612-1.186 1.165t-.987 1.045q-.447.494-.8.924t-.624.8a2.386 2.386 0 0 0-.531 1.282 1.335 1.335 0 0 0 .516 1.09 4.348 4.348 0 0 0 1.771.809 16.877 16.877 0 0 0 3.233.433 29.409 29.409 0 0 0 3.391-.027 33.674 33.674 0 0 0 3.417-.395 24.905 24.905 0 0 0 3.064-.7 11.433 11.433 0 0 0 2.335-.955c.087-.05.171-.1.252-.152s.156-.1.228-.156.141-.108.2-.162.123-.108.18-.164a18.335 18.335 0 0 0 1.243-1.371 24.679 24.679 0 0 0 1.605-2.205c.148-.234.226-.364.226-.364l-17.533-.9z" transform="rotate(-7 7442.162 104.668)" style="fill:url(#e0b48k1b0b)"/>
                    <path data-name="패스 5218" d="M145.367 181.317a12.919 12.919 0 0 0-1.613 1.134 11.413 11.413 0 0 0-1.4 1.374 10.461 10.461 0 0 0-1.149 1.63 10.583 10.583 0 0 0-.845 1.9 3.959 3.959 0 0 0 .111 2 16.921 16.921 0 0 0 .866 2.458 33.77 33.77 0 0 0 1.472 2.989l21.531-.687s.168-.237.43-.626.614-.928.984-1.538.756-1.284 1.085-1.95a9.956 9.956 0 0 0 .742-1.869 7.015 7.015 0 0 0 .149-2.762 6.238 6.238 0 0 0-1.43-3.17 8.634 8.634 0 0 0-4.034-2.514 22.756 22.756 0 0 0-7.7-.847 22.443 22.443 0 0 0-2.392.2 20.851 20.851 0 0 0-2.378.47 18.243 18.243 0 0 0-2.294.753 15.43 15.43 0 0 0-2.134 1.059z" transform="rotate(-7 7853.213 83.268)" style="fill:url(#e0b48k1b0b)"/>
                    <path data-name="패스 5219" d="M142.315 188.909s-.113.167-.3.456-.435.7-.71 1.176-.573 1.03-.845 1.6a13.571 13.571 0 0 0-.7 1.734 1.474 1.474 0 0 0 .483 1.559 5.99 5.99 0 0 0 2.217 1.224 17.42 17.42 0 0 0 3.466.766 26.638 26.638 0 0 0 4.212.189 29.806 29.806 0 0 0 2.9-.225 20.891 20.891 0 0 0 2.438-.456 14.6 14.6 0 0 0 2-.654 10.115 10.115 0 0 0 1.586-.822 7.579 7.579 0 0 0 .7-.5 6.785 6.785 0 0 0 .593-.539 6.055 6.055 0 0 0 .49-.568 5.348 5.348 0 0 0 .393-.591q.26-.476.514-1.024c.17-.368.338-.758.5-1.174s.321-.859.475-1.324.3-.959.439-1.477l-20.859.653z" transform="rotate(-7 8082.301 72.646)" style="fill:url(#e0b48k1b0b)"/>
                    <path data-name="패스 5220" d="M125.1 174.627a11.92 11.92 0 0 0-2.686 1.992 8.974 8.974 0 0 0-1.591 2.133 7.658 7.658 0 0 0-.737 2.013 5.926 5.926 0 0 0-.125 1.625 7.2 7.2 0 0 0 .379 1.665 17.123 17.123 0 0 0 .686 1.7c.243.527.482.993.66 1.326s.3.535.3.535l20.888-1.956s.261-.346.648-.891.9-1.288 1.4-2.087a21.708 21.708 0 0 0 1.332-2.406 3.858 3.858 0 0 0 .48-1.885 6.378 6.378 0 0 0-1.418-3.309 7.533 7.533 0 0 0-2.822-2.037 13.138 13.138 0 0 0-3.732-.949 20.61 20.61 0 0 0-4.166-.027q-1.6.147-2.973.395t-2.549.576a20.809 20.809 0 0 0-2.162.732 16.149 16.149 0 0 0-1.805.855z" transform="rotate(-7 7680.803 212.933)" style="fill:url(#e0b48k1b0b)"/>
                    <path data-name="패스 5221" d="M121.691 182.315c.033.474.079.918.137 1.338s.129.818.207 1.188.17.72.266 1.043.2.622.309.9a3.385 3.385 0 0 0 1.017 1.348 5.712 5.712 0 0 0 1.918.986 12.322 12.322 0 0 0 2.945.5 26.283 26.283 0 0 0 4.084-.108c.907-.085 1.805-.212 2.674-.372s1.706-.354 2.493-.574a21.532 21.532 0 0 0 2.189-.735 12.946 12.946 0 0 0 1.762-.851 7.116 7.116 0 0 0 .787-.539 3.858 3.858 0 0 0 .574-.556 2.013 2.013 0 0 0 .336-.564 1.24 1.24 0 0 0 .074-.564 9.406 9.406 0 0 0-.351-1.536 17.194 17.194 0 0 0-.972-2.416c-.122-.248-.2-.393-.2-.393l-20.249 1.9z" transform="rotate(-7 7884.685 190.255)" style="fill:url(#e0b48k1b0b)"/>
                    <path data-name="패스 5222" d="M148.02 197.126a5.7 5.7 0 0 0-1.673 1.577 3.787 3.787 0 0 0-.655 2.021 5.341 5.341 0 0 0 .6 2.477 12.526 12.526 0 0 0 2.1 2.951 13.034 13.034 0 0 0 2.686 1.9c1.229.722 2.7 1.49 4.108 2.2s2.776 1.355 3.784 1.825 1.663.762 1.663.762l21.87-4.583s-.125-.256-.35-.674-.543-1-.933-1.642-.847-1.359-1.346-2.052a16.073 16.073 0 0 0-1.593-1.912 21.1 21.1 0 0 0-3.381-2.658 28.46 28.46 0 0 0-5.555-2.766 29.23 29.23 0 0 0-7.488-1.684 31.923 31.923 0 0 0-9.278.556q-.669.136-1.3.308c-.417.117-.819.244-1.2.387a11.722 11.722 0 0 0-1.094.464 8.738 8.738 0 0 0-.967.541z" transform="rotate(-7 8274.346 25.74)" style="fill:url(#e0b48k1b0b)"/>
                    <path data-name="패스 5223" d="M155.981 207.8s.094.183.269.491.432.747.754 1.257.715 1.092 1.159 1.688a20.327 20.327 0 0 0 1.481 1.788 6 6 0 0 0 2.522 1.4 18.818 18.818 0 0 0 3.923.755 31.49 31.49 0 0 0 4.653.083 30.692 30.692 0 0 0 4.706-.61c.615-.133 1.183-.275 1.7-.424s1-.308 1.43-.473a11.724 11.724 0 0 0 1.167-.518 7.432 7.432 0 0 0 .917-.554 4.152 4.152 0 0 0 1-.986 2.483 2.483 0 0 0 .432-1.051 2.573 2.573 0 0 0-.082-1.1 4.045 4.045 0 0 0-.53-1.115q-.324-.5-.754-1.068t-.974-1.209q-.543-.638-1.2-1.346t-1.425-1.484l-21.148 4.476z" transform="rotate(-7 8476.22 -46.935)" style="fill:url(#e0b48k1b0b)"/>
                    <path data-name="패스 5224" d="M116.357 193.932a5.563 5.563 0 0 0-2.673 2.893 4.14 4.14 0 0 0 .261 3.047 9.951 9.951 0 0 0 2 2.793 17.426 17.426 0 0 0 2.51 2.108 29.478 29.478 0 0 0 2.614 1.565c.987.535 2.04 1.066 3.007 1.536s1.846.88 2.484 1.172 1.035.466 1.035.466L148 203.769s-.17-.381-.463-.978-.711-1.407-1.212-2.27a23.476 23.476 0 0 0-1.7-2.566 8.4 8.4 0 0 0-1.932-1.908 29.385 29.385 0 0 0-5.87-2.957 28.722 28.722 0 0 0-5.771-1.476 26.97 26.97 0 0 0-5.359-.258 22.082 22.082 0 0 0-4.629.718q-.761.208-1.43.427c-.449.146-.868.3-1.258.452s-.754.316-1.092.477-.65.331-.936.5z" transform="rotate(-7 8196.222 219.203)" style="fill:url(#e0b48k1b0b)"/>
                    <path data-name="패스 5225" d="M124.276 204.621q.98.679 1.9 1.276t1.79 1.118q.867.52 1.668.964t1.538.818a15.644 15.644 0 0 0 2.873 1.116 17.9 17.9 0 0 0 3.4.6 20.92 20.92 0 0 0 3.878-.064 25.07 25.07 0 0 0 4.307-.866 20.509 20.509 0 0 0 2.501-.896c.377-.166.735-.337 1.07-.516s.645-.36.931-.549a7.343 7.343 0 0 0 1.45-1.2 3.167 3.167 0 0 0 .732-1.228 1.683 1.683 0 0 0-.074-1.176 2.6 2.6 0 0 0-.969-1.049c-.741-.479-1.567-.964-2.392-1.423s-1.644-.889-2.371-1.261-1.36-.68-1.812-.9-.722-.343-.722-.343l-19.7 5.575z" transform="rotate(-7 8374.584 145.136)" style="fill:url(#e0b48k1b0b)"/>
                    <path data-name="패스 5226" d="M175.981 212.667a3.649 3.649 0 0 0-1.467 1.931 3.118 3.118 0 0 0 .434 2.418 10.285 10.285 0 0 0 2.772 2.876 34.977 34.977 0 0 0 5.575 3.307 34.515 34.515 0 0 0 4.588 1.646c1.963.595 4.219 1.213 6.36 1.771a325.79 325.79 0 0 0 8.119 2.002l19.259-7.529s-.357-.248-.96-.651-1.452-.961-2.434-1.58-2.095-1.3-3.235-1.95-2.3-1.272-3.383-1.777a56.212 56.212 0 0 0-5.94-2.341 63.426 63.426 0 0 0-8.375-2.187 46.037 46.037 0 0 0-9.517-.835 29.2 29.2 0 0 0-9.5 1.713 10.872 10.872 0 0 0-1.255.549c-.19.098-.375.2-.55.308s-.338.216-.49.329z" transform="rotate(-7 8660.231 -166.297)" style="fill:url(#e0b48k1b0b)"/>
                    <path data-name="패스 5227" d="M193.9 224.458s.264.177.729.474 1.131.718 1.932 1.2 1.744 1.041 2.755 1.605 2.1 1.143 3.185 1.677a13.812 13.812 0 0 0 3.905 1.122 27.513 27.513 0 0 0 4.824.271 32.773 32.773 0 0 0 5-.516 23.423 23.423 0 0 0 4.433-1.232q.476-.193.893-.393a11.192 11.192 0 0 0 1.423-.8c.199-.132.377-.271.538-.406a3.137 3.137 0 0 0 1.037-1.415 2.014 2.014 0 0 0-.087-1.423 4.275 4.275 0 0 0-1.047-1.4 11.057 11.057 0 0 0-1.843-1.357c-.525-.316-1.1-.651-1.744-1.007s-1.335-.73-2.093-1.124a142.012 142.012 0 0 0-5.27-2.597l-18.57 7.321z" transform="rotate(-7 8828.408 -290.722)" style="fill:url(#e0b48k1b0b)"/>
                    <path data-name="패스 5228" d="M138.332 212.527c-1.857 1.245-2.518 2.526-2.371 3.777a6.093 6.093 0 0 0 2.5 3.635 26.227 26.227 0 0 0 5.075 3.1 49.123 49.123 0 0 0 5.253 2.171c1.221.425 2.724.878 4.295 1.317s3.209.864 4.7 1.238 2.827.693 3.792.92 1.56.36 1.56.36l17.283-8.661s-.523-.377-1.378-.968-2.032-1.386-3.348-2.227-2.757-1.723-4.151-2.485a25.04 25.04 0 0 0-3.835-1.775 68.231 68.231 0 0 0-9.1-2.372 49.318 49.318 0 0 0-7.686-.837 32.225 32.225 0 0 0-6.17.393 17.39 17.39 0 0 0-4.507 1.342 19.347 19.347 0 0 0-1.038.532c-.162.089-.31.179-.458.268s-.286.179-.42.269z" transform="rotate(-7 8674.402 58.414)" style="fill:url(#e0b48k1b0b)"/>
                    <path data-name="패스 5229" d="M155.825 224.727q1.687.592 3.235 1.1t2.961.945q1.414.436 2.688.8c.85.243 1.654.458 2.412.653a31.509 31.509 0 0 0 4.164.8 26.463 26.463 0 0 0 4.257.187 21.169 21.169 0 0 0 4.176-.576 17.275 17.275 0 0 0 3.919-1.473c.147-.077.29-.156.429-.235s.273-.16.4-.241.256-.165.377-.248.238-.168.35-.254a5.987 5.987 0 0 0 1.665-1.825 2.847 2.847 0 0 0 .372-1.852 2.9 2.9 0 0 0-.988-1.681 6.822 6.822 0 0 0-2.415-1.305c-1.222-.408-2.548-.81-3.847-1.188s-2.572-.724-3.691-1.02-2.083-.543-2.767-.716-1.092-.269-1.092-.269l-16.607 8.395z" transform="rotate(-7 8818.185 -66.931)" style="fill:url(#e0b48k1b0b)"/>
                    <path data-name="패스 5230" d="M221.124 227.1a3.01 3.01 0 0 0-1.168 2.231 4.149 4.149 0 0 0 1.3 2.743 17.449 17.449 0 0 0 4.307 3.188 57.668 57.668 0 0 0 7.895 3.565 50.515 50.515 0 0 0 5.681 1.577c2.383.556 5.09 1.117 7.645 1.621s4.968.949 6.736 1.267 2.9.514 2.9.514l17.039-9.311s-.5-.254-1.334-.666-2-.98-3.345-1.611-2.849-1.322-4.373-1.981-3.05-1.286-4.44-1.79a86.882 86.882 0 0 0-7.442-2.266 85.7 85.7 0 0 0-9.973-1.979 52.249 52.249 0 0 0-10.581-.431 24.6 24.6 0 0 0-9.405 2.379 7.49 7.49 0 0 0-1.126.697 5.732 5.732 0 0 0-.312.254z" transform="rotate(-7 9013.695 -454.817)" style="fill:url(#e0b48k1b0b)"/>
                    <path data-name="패스 5231" d="M245.353 239.84s.367.183 1 .487a160.596 160.596 0 0 0 6.323 2.861c1.342.57 2.77 1.153 4.176 1.681a19.053 19.053 0 0 0 4.708 1.03 29.622 29.622 0 0 0 5.279.04 29.3 29.3 0 0 0 5.085-.839 17.465 17.465 0 0 0 4.135-1.6c.2-.116.381-.229.555-.343s.336-.229.489-.343a6.794 6.794 0 0 0 .779-.684 2.837 2.837 0 0 0 .888-1.758 2.577 2.577 0 0 0-.576-1.7 7.255 7.255 0 0 0-1.8-1.625 19.325 19.325 0 0 0-2.786-1.521q-1.057-.479-2.327-1.018t-2.752-1.13q-1.484-.592-3.189-1.24t-3.635-1.344l-16.359 9.048z" transform="rotate(-7 9172.487 -613.41)" style="fill:url(#e0b48k1b0b)"/>
                    <path data-name="패스 5232" d="M180.555 228.435c-1.958 1.546-2.414 3.076-1.872 4.535s2.1 2.863 4.154 4.129A42.556 42.556 0 0 0 190 240.47a75.265 75.265 0 0 0 7.015 2.243c1.524.412 3.369.835 5.279 1.24s3.892.789 5.68 1.122 3.394.616 4.548.814 1.862.314 1.862.314l14.668-10.526s-.742-.393-1.939-1-2.839-1.432-4.651-2.3-3.777-1.765-5.635-2.541a39.367 39.367 0 0 0-4.961-1.765 92.846 92.846 0 0 0-10.97-2.156 58.085 58.085 0 0 0-8.736-.525 31.7 31.7 0 0 0-6.528.76 13.467 13.467 0 0 0-4.289 1.721l-.209.14c-.068.046-.134.094-.2.142l-.192.141a8.943 8.943 0 0 0-.184.142z" transform="rotate(-7 9076.27 -215.474)" style="fill:url(#e0b48k1b0b)"/>
                    <path data-name="패스 5233" d="M204.266 241.952q2.1.56 4.013 1.043t3.652.893q1.736.407 3.285.741t2.911.595a39.953 39.953 0 0 0 4.859.666 28.416 28.416 0 0 0 4.673-.025 18.753 18.753 0 0 0 4.238-.861 12.426 12.426 0 0 0 3.552-1.833l.147-.116c.048-.038.1-.077.142-.117s.093-.077.137-.117l.132-.117a5.008 5.008 0 0 0 1.493-2.266 3.287 3.287 0 0 0-.173-2.289 4.982 4.982 0 0 0-1.814-2.017 10.9 10.9 0 0 0-3.436-1.459c-1.507-.391-3.125-.77-4.7-1.118s-3.112-.664-4.459-.932-2.5-.487-3.326-.639l-1.3-.239-14.02 10.206z" transform="rotate(-7 9208.05 -374.736)" style="fill:url(#e0b48k1b0b)"/>
                    <path data-name="패스 5234" d="M276.109 242.82a2.977 2.977 0 0 0-.828 2.5 5.864 5.864 0 0 0 1.833 3.105 23.428 23.428 0 0 0 5.049 3.642 71.076 71.076 0 0 0 8.856 4.118 59.2 59.2 0 0 0 6.336 1.89c2.642.672 5.633 1.359 8.455 1.977s5.481 1.169 7.43 1.565 3.194.635 3.194.635L333.557 252s-.571-.3-1.526-.782-2.289-1.149-3.82-1.892-3.247-1.553-4.977-2.331-3.463-1.515-5.032-2.114c-2.061-.778-4.961-1.76-8.315-2.7a95.734 95.734 0 0 0-10.986-2.412 54.289 54.289 0 0 0-11.43-.67 23.09 23.09 0 0 0-9.8 2.528c-.158.089-.31.181-.456.275s-.283.191-.413.289-.254.2-.369.306-.223.212-.322.319z" transform="rotate(-7 9411.046 -803.245)" style="fill:url(#e0b48k1b0b)"/>
                    <path data-name="패스 5235" d="M303.949 257.553s.418.214 1.145.57 1.767.864 3.005 1.448 2.683 1.245 4.212 1.919 3.16 1.361 4.759 1.987a21.606 21.606 0 0 0 5.244 1.272 30.558 30.558 0 0 0 5.726.148 27.768 27.768 0 0 0 5.381-.866 15.306 15.306 0 0 0 4.223-1.761c.223-.143.43-.283.622-.425s.369-.285.53-.427a5.509 5.509 0 0 0 .441-.427 4.861 4.861 0 0 0 .353-.427 2.735 2.735 0 0 0 .574-1.94 3.642 3.642 0 0 0-.915-1.908 10.156 10.156 0 0 0-2.16-1.838 24.49 24.49 0 0 0-3.16-1.738q-1.214-.563-2.662-1.2t-3.141-1.334q-1.687-.7-3.622-1.471t-4.115-1.6l-16.441 10.02z" transform="rotate(-7 9598.922 -982.974)" style="fill:url(#e0b48k1b0b)"/>
                    <path data-name="패스 5236" d="M232.651 243.761c-1.764 1.7-1.978 3.4-1.171 5.044s2.662 3.236 5.006 4.689a52.41 52.41 0 0 0 8.02 3.9 87.392 87.392 0 0 0 7.718 2.647c1.689.489 3.718 1 5.819 1.492s4.277.966 6.242 1.378 3.724.764 4.989 1.014 2.04.393 2.04.393l14.451-11.708s-.849-.458-2.213-1.168-3.233-1.671-5.291-2.682-4.279-2.062-6.37-2.968a46 46 0 0 0-5.536-2.075 102.268 102.268 0 0 0-12.021-2.641 60.306 60.306 0 0 0-9.414-.751 30.551 30.551 0 0 0-6.89.739 12.2 12.2 0 0 0-4.38 1.859l-.274.21a10.938 10.938 0 0 0-.723.628z" transform="rotate(-7 9464.33 -547.3)" style="fill:url(#e0b48k1b0b)"/>
                    <path data-name="패스 5237" d="M259.838 259.276q2.337.676 4.466 1.261t4.051 1.086q1.923.5 3.631.913t3.208.739a43.719 43.719 0 0 0 5.33.837 29.333 29.333 0 0 0 5.04.054 17.831 17.831 0 0 0 4.464-.907 11.165 11.165 0 0 0 3.6-2.029c.067-.06.134-.117.2-.177s.127-.119.187-.181.118-.121.175-.183.111-.123.165-.185A4.61 4.61 0 0 0 295.5 258a4.178 4.178 0 0 0-.576-2.545 7.007 7.007 0 0 0-2.229-2.266 13.414 13.414 0 0 0-3.816-1.679c-1.67-.466-3.461-.922-5.207-1.344s-3.439-.809-4.927-1.138-2.762-.6-3.667-.789-1.44-.295-1.44-.295l-13.8 11.335z" transform="rotate(-7 9620.36 -725.713)" style="fill:url(#e0b48k1b0b)"/>
                    <path data-name="패스 5238" d="M334.893 265.142a3.767 3.767 0 0 0-.588 2.8 8.187 8.187 0 0 0 1.773 3.594 25.9 25.9 0 0 0 4.6 4.385 68.565 68.565 0 0 0 7.936 5.19 56.751 56.751 0 0 0 6.5 2.913c2.743 1.082 5.873 2.223 8.836 3.265a508.355 508.355 0 0 0 11.22 3.791l21.845-9.86s-.562-.408-1.5-1.078-2.258-1.592-3.773-2.624-3.215-2.162-4.941-3.253-3.456-2.135-5.044-3c-2.08-1.134-5.04-2.595-8.514-4.052a93.938 93.938 0 0 0-11.526-4.012 56.107 56.107 0 0 0-12.426-2.054 26.906 26.906 0 0 0-11.43 1.788 9.848 9.848 0 0 0-.941.454 7.322 7.322 0 0 0-.814.52 5.938 5.938 0 0 0-.679.585 4.448 4.448 0 0 0-.533.649z" transform="rotate(-7 10006.15 -1185.49)" style="fill:url(#e0b48k1b0b)"/>
                    <path data-name="패스 5239" d="M362.831 283.705s.411.3 1.13.8 1.749 1.211 2.98 2.035 2.671 1.769 4.207 2.737 3.178 1.963 4.805 2.89a21.59 21.59 0 0 0 5.553 2.111 33.584 33.584 0 0 0 12.714.516 19.729 19.729 0 0 0 5.266-1.528 13.312 13.312 0 0 0 1.253-.683 8.6 8.6 0 0 0 .991-.714 5.829 5.829 0 0 0 .739-.741 3.993 3.993 0 0 0 .5-.766 3.148 3.148 0 0 0 .288-1.971 5.14 5.14 0 0 0-.91-2.052 12.038 12.038 0 0 0-1.929-2.092 25.235 25.235 0 0 0-2.771-2.083q-1.209-.8-2.668-1.711t-3.173-1.921q-1.71-1.011-3.679-2.129t-4.186-2.333l-21.109 9.64z" transform="rotate(-7 10292.395 -1370.545)" style="fill:url(#e0b48k1b0b)"/>
                    <path data-name="패스 5240" d="M287.18 262.358a4.8 4.8 0 0 0-.658 5.3 16.012 16.012 0 0 0 4.564 5.411 50.977 50.977 0 0 0 7.158 4.84 77.84 77.84 0 0 0 6.986 3.532c1.677.751 3.717 1.561 5.839 2.358s4.339 1.584 6.343 2.277 3.808 1.292 5.105 1.719 2.1.679 2.1.679l18.848-11.623s-.8-.616-2.088-1.58-3.057-2.264-5.013-3.642-4.075-2.82-6.093-4.083a42.073 42.073 0 0 0-5.419-2.974 96.252 96.252 0 0 0-12.227-4.306 58.978 58.978 0 0 0-9.88-1.879 32.306 32.306 0 0 0-7.554.079 14.7 14.7 0 0 0-5.169 1.615q-.473.271-.886.549c-.274.187-.53.373-.765.564s-.453.381-.652.574a7.652 7.652 0 0 0-.538.587z" transform="rotate(-7 9947.629 -899.173)" style="fill:url(#e0b48k1b0b)"/>
                    <path data-name="패스 5241" d="M313.959 281.124q2.363 1.042 4.519 1.96t4.116 1.711q1.96.794 3.71 1.461t3.3 1.211a42 42 0 0 0 5.589 1.611 29.811 29.811 0 0 0 5.5.67 20.043 20.043 0 0 0 5.141-.508 14.185 14.185 0 0 0 4.493-1.908q.383-.257.722-.528t.629-.56a7.893 7.893 0 0 0 .537-.589 6.8 6.8 0 0 0 .444-.612 5.215 5.215 0 0 0 .84-2.5 5.081 5.081 0 0 0-.538-2.551 7.5 7.5 0 0 0-1.92-2.375 12.972 12.972 0 0 0-3.31-1.975c-1.711-.733-3.552-1.469-5.349-2.156s-3.538-1.322-5.071-1.869-2.846-1-3.779-1.319-1.484-.5-1.484-.5l-18.092 11.321z" transform="rotate(-7 10191.773 -1077.912)" style="fill:url(#e0b48k1b0b)"/>
                    <path data-name="패스 5242" d="M382.574 314.625q-.291.621-.557 1.278t-.508 1.357q-.242.7-.458 1.44t-.4 1.525a15.841 15.841 0 0 0 .069 5.25c.291 2.142.794 4.541 1.339 6.8s1.138 4.389 1.593 5.948.775 2.56.775 2.56l37.173 6.936s.108-.214.295-.6.453-.934.766-1.609.675-1.471 1.056-2.347.778-1.825 1.166-2.811c.243-.624.485-1.261.713-1.9s.446-1.278.643-1.911.377-1.255.53-1.858.278-1.188.37-1.742a27.227 27.227 0 0 0 .209-7.277 25.706 25.706 0 0 0-2.525-8.9 21.993 21.993 0 0 0-6.952-8.1 31.325 31.325 0 0 0-13.084-5.107 24.086 24.086 0 0 0-6.343-.262 20.123 20.123 0 0 0-6.139 1.548 18.1 18.1 0 0 0-5.453 3.662 20.851 20.851 0 0 0-4.274 6.123z" transform="rotate(-7 11201.306 -1529.477)" style="fill:url(#e0b48k1b0b)"/>
                    <path data-name="패스 5243" d="M383 328.112a77.514 77.514 0 0 0-1.926 4.693c-.352.942-.7 1.944-1.017 2.961s-.61 2.054-.844 3.066a6.26 6.26 0 0 0 .728 4.453 14.485 14.485 0 0 0 3.755 4.293 27.642 27.642 0 0 0 5.976 3.59 33.93 33.93 0 0 0 7.346 2.331 29.7 29.7 0 0 0 7.48.61 16.568 16.568 0 0 0 5.649-1.261 11.678 11.678 0 0 0 3.946-2.759 12.134 12.134 0 0 0 2.4-3.869c.31-.795.615-1.665.912-2.6s.585-1.948.866-3.03.554-2.225.819-3.444.525-2.5.777-3.854l-36.112-6.809-.053.114c-.036.073-.087.181-.153.321s-.148.312-.238.512-.2.431-.31.685z" transform="rotate(-7 11710.636 -1552.456)" style="fill:url(#e0b48k1b0b)"/>
                    <path data-name="패스 5244" d="M342.416 289.9a21.122 21.122 0 0 0-1.5 2.959 23.714 23.714 0 0 0-.993 2.932 24.557 24.557 0 0 0-.564 2.724 21.876 21.876 0 0 0-.219 2.331 26.992 26.992 0 0 0 .288 4.252c.2 1.519.492 3.074.787 4.474s.595 2.655.823 3.556.381 1.45.381 1.45l34.075 2.672.187-.316c.12-.204.295-.5.511-.876s.472-.824.756-1.332.595-1.076.922-1.684c.538-1 1.118-2.123 1.682-3.278s1.109-2.339 1.582-3.492a29 29 0 0 0 1.15-3.261 8.954 8.954 0 0 0 .391-2.6 23.253 23.253 0 0 0-1.891-8.668 17.708 17.708 0 0 0-4.3-5.964 18.9 18.9 0 0 0-5.863-3.584 22.812 22.812 0 0 0-6.643-1.463 33.041 33.041 0 0 0-7.95.312 21.879 21.879 0 0 0-6.067 1.925 18.147 18.147 0 0 0-4.457 3.1 18.8 18.8 0 0 0-3.091 3.839z" transform="rotate(-7 10560.356 -1248.023)" style="fill:url(#e0b48k1b0b)"/>
                    <path data-name="패스 5245" d="M341.136 301.7q-.041 1.8-.014 3.425t.118 3.088q.087 1.461.233 2.747t.336 2.4a11.211 11.211 0 0 0 4.353 7.107 16.163 16.163 0 0 0 4.711 2.425 28.212 28.212 0 0 0 6.695 1.29 31.444 31.444 0 0 0 5.937-.062 26.566 26.566 0 0 0 5.347-1.1 16.457 16.457 0 0 0 4.216-1.989 7.691 7.691 0 0 0 2.561-2.712 5.17 5.17 0 0 0 .243-.541 4.743 4.743 0 0 0 .171-.56 4.322 4.322 0 0 0 .1-.576 4.463 4.463 0 0 0 .024-.589 38.915 38.915 0 0 0-.367-4.1c-.185-1.351-.418-2.651-.645-3.781s-.446-2.089-.609-2.766-.271-1.072-.271-1.072l-33.139-2.634z" transform="rotate(-7 11036.158 -1288.719)" style="fill:url(#e0b48k1b0b)"/>
                    <path data-name="패스 5246" d="m339.6 389.065 32.5 21.479s.933-.456 2.446-1.228 3.6-1.852 5.918-3.105 4.847-2.668 7.262-4.116 4.694-2.912 6.521-4.273a59.654 59.654 0 0 0 4.108-3.336 59.2 59.2 0 0 0 4.392-4.31 45.3 45.3 0 0 0 4.015-5.022 29.394 29.394 0 0 0 3-5.475 18.253 18.253 0 0 0 1.327-5.313 13.287 13.287 0 0 0-.6-5.3 14.572 14.572 0 0 0-3-5.1 24.724 24.724 0 0 0-5.861-4.726 23.93 23.93 0 0 0-8.022-2.918 33.817 33.817 0 0 0-10.264-.189 48.46 48.46 0 0 0-12.17 3.292 72.368 72.368 0 0 0-13.842 7.621 33.529 33.529 0 0 0-5.5 5.311c-1.96 2.26-3.96 4.851-5.764 7.313s-3.429 4.818-4.593 6.547-1.877 2.845-1.877 2.845z" transform="rotate(-7 12723.128 -1383.053)" style="fill:url(#e0b48k1b0b)"/>
                    <path data-name="패스 5247" d="M322.167 390.869a9.892 9.892 0 0 0-1.073 4.339 12.432 12.432 0 0 0 .85 4.651 16.865 16.865 0 0 0 2.659 4.562 21.658 21.658 0 0 0 4.344 4.048 25.145 25.145 0 0 0 7.169 3.6 23.019 23.019 0 0 0 7.269 1.026 26.234 26.234 0 0 0 7.108-1.143 33.356 33.356 0 0 0 6.7-2.88q1.777-1.008 3.765-2.229t4.181-2.66q2.188-1.435 4.586-3.1t4.982-3.542l-31.248-21.029s-.639.327-1.714.9-2.594 1.384-4.344 2.362-3.746 2.125-5.772 3.35-4.1 2.541-5.985 3.852a12.52 12.52 0 0 0-1.1.872 11.591 11.591 0 0 0-.945.945 10.792 10.792 0 0 0-.79 1.013 10.039 10.039 0 0 0-.636 1.072z" transform="rotate(-7 13966.77 -1350.608)" style="fill:url(#e0b48k1b0b)"/>
                    <path data-name="패스 5248" d="m334.039 351.29 33.1 14.671s1.306-.62 3.338-1.625 4.771-2.389 7.655-3.919 5.882-3.2 8.461-4.784a33.6 33.6 0 0 0 5.87-4.266c.864-.893 1.653-1.765 2.374-2.618s1.37-1.679 1.954-2.489 1.1-1.6 1.558-2.362a24.571 24.571 0 0 0 1.185-2.239 15.351 15.351 0 0 0 1.532-5.835 9.977 9.977 0 0 0-.957-4.764 11.047 11.047 0 0 0-2.947-3.69 16.862 16.862 0 0 0-4.468-2.612 35.111 35.111 0 0 0-15.049-2.626 42.793 42.793 0 0 0-13.532 2.968 58.32 58.32 0 0 0-11.1 5.812 57.28 57.28 0 0 0-7.47 5.869 53.014 53.014 0 0 0-4.012 4.37c-1.325 1.59-2.6 3.242-3.7 4.741s-2.059 2.851-2.729 3.825-1.063 1.573-1.063 1.573z" transform="rotate(-7 11723.751 -1289.32)" style="fill:url(#e0b48k1b0b)"/>
                    <path data-name="패스 5249" d="M324.085 354.974a10.653 10.653 0 0 0-1.317 3.775 7.265 7.265 0 0 0 .458 3.706 9.592 9.592 0 0 0 2.584 3.517 20.651 20.651 0 0 0 5.064 3.211 31.165 31.165 0 0 0 7.408 2.339 35.351 35.351 0 0 0 7.878.587 26.016 26.016 0 0 0 7.168-1.23 13.247 13.247 0 0 0 5.28-3.086c1.327-1.359 2.621-2.824 3.814-4.256s2.278-2.818 3.2-4.039 1.675-2.266 2.2-3.007.818-1.18.818-1.18l-32.045-14.4q-1.862 1.79-3.475 3.426t-2.993 3.124q-1.378 1.487-2.522 2.814t-2.064 2.5a22.45 22.45 0 0 0-.785 1.094c-.122.183-.238.366-.35.551s-.22.366-.321.551z" transform="rotate(-7 12139.547 -1248.294)" style="fill:url(#e0b48k1b0b)"/>
                    <path data-name="패스 5250" d="m243.929 411.086 11.282 32.177s1.306-.081 3.458-.239 5.147-.395 8.522-.707 7.134-.695 10.807-1.151 7.26-.98 10.305-1.573c3.064-.61 6.9-1.521 11.034-2.737a113.638 113.638 0 0 0 12.784-4.566 62.882 62.882 0 0 0 11.67-6.4 25.462 25.462 0 0 0 7.758-8.206 14.394 14.394 0 0 0 1.19-2.9 12.759 12.759 0 0 0 .484-3.065 13.3 13.3 0 0 0-.3-3.23 16.393 16.393 0 0 0-1.145-3.39 14.008 14.008 0 0 0-5.284-5.764 29.923 29.923 0 0 0-10.06-3.9 64.956 64.956 0 0 0-15.087-1.2 127.1 127.1 0 0 0-20.5 2.36 69.763 69.763 0 0 0-10.139 3.065c-3.933 1.44-8.205 3.18-12.16 4.866s-7.619 3.326-10.281 4.539-4.343 2.012-4.343 2.012z" transform="rotate(-7 14128.253 -908.164)" style="fill:url(#e0b48k1b0b)"/>
                    <path data-name="패스 5251" d="M213.892 416.209a17.667 17.667 0 0 0-1.666 2.968 15.912 15.912 0 0 0-1.013 3.151 14.339 14.339 0 0 0-.3 3.238 13.262 13.262 0 0 0 .473 3.226 13.524 13.524 0 0 0 3.319 5.941 15.533 15.533 0 0 0 5.688 3.634 26.958 26.958 0 0 0 7.5 1.582 47.886 47.886 0 0 0 8.736-.183q2.507-.26 5.424-.653t6.235-.926q3.317-.531 7.041-1.2t7.845-1.482l-10.274-31.08s-.885.073-2.39.218-3.633.36-6.115.641-5.325.631-8.256 1.043-5.963.889-8.817 1.426a22.656 22.656 0 0 0-4.185 1.221 21.557 21.557 0 0 0-3.674 1.892 20.453 20.453 0 0 0-3.1 2.451 19.1 19.1 0 0 0-2.472 2.891z" transform="rotate(-7 14217.243 -720.063)" style="fill:url(#e0b48k1b0b)"/>
                    <path data-name="패스 5252" d="m275.194 374.617 18.934 25.476s1.87-.15 4.823-.422 6.981-.666 11.3-1.157 8.91-1.076 13-1.731a70.243 70.243 0 0 0 9.961-2.142 111.677 111.677 0 0 0 10.624-4.073 62.647 62.647 0 0 0 7.871-4.158 32.743 32.743 0 0 0 5.366-4.143 16.3 16.3 0 0 0 3.108-4.027 9.745 9.745 0 0 0 .96-2.68 7.738 7.738 0 0 0 .07-2.547 7.977 7.977 0 0 0-.741-2.387 10.179 10.179 0 0 0-1.474-2.2 25.576 25.576 0 0 0-13.007-7.671 56.38 56.38 0 0 0-16.592-1.586 107.293 107.293 0 0 0-16.605 2.019 121.393 121.393 0 0 0-12.887 3.259c-2.476.78-5.246 1.8-8.015 2.9s-5.551 2.268-8.02 3.342-4.642 2.06-6.192 2.772-2.484 1.157-2.484 1.157z" transform="rotate(-7 12720.13 -1005.318)" style="fill:url(#e0b48k1b0b)"/>
                    <path data-name="패스 5253" d="M250.545 384.551a8.774 8.774 0 0 0-1.1 2.258 7.5 7.5 0 0 0-.346 2.437 8.534 8.534 0 0 0 .5 2.618 12.591 12.591 0 0 0 1.42 2.8 17.549 17.549 0 0 0 4.876 4.759 26.671 26.671 0 0 0 6.942 3.286 28.967 28.967 0 0 0 7.962 1.322 23.453 23.453 0 0 0 7.891-1.12c2.534-.832 5.136-1.777 7.61-2.728s4.812-1.9 6.835-2.753 3.725-1.59 4.924-2.121 1.889-.851 1.889-.851l-17.878-24.73q-3.4 1.08-6.419 2.1t-5.675 1.973q-2.656.956-4.951 1.844t-4.245 1.71c-1.159.483-2.258 1-3.285 1.538a28.191 28.191 0 0 0-2.849 1.713 18.859 18.859 0 0 0-2.343 1.885 12.633 12.633 0 0 0-1.757 2.062z" transform="rotate(-7 13941.221 -927.011)" style="fill:url(#e0b48k1b0b)"/>
                    <path data-name="패스 5254" d="m61.566 415.7 22.753 26.444s2.057-.333 5.3-.9 7.667-1.367 12.4-2.3 9.772-1.994 14.25-3.09a78.483 78.483 0 0 0 10.855-3.269 125.533 125.533 0 0 0 11.45-5.461 71.008 71.008 0 0 0 8.4-5.307 37.144 37.144 0 0 0 5.633-5.063 18.465 18.465 0 0 0 3.146-4.732 10.885 10.885 0 0 0 .869-3.049 8.553 8.553 0 0 0-.1-2.822 8.668 8.668 0 0 0-.989-2.57 11.029 11.029 0 0 0-1.786-2.295c-3.95-3.962-9.146-6.222-14.929-7.305a62.382 62.382 0 0 0-18.45-.252 119.7 119.7 0 0 0-18.21 3.733 136.347 136.347 0 0 0-14.01 4.766c-2.68 1.088-5.669 2.466-8.651 3.925s-5.973 3.007-8.625 4.42-4.984 2.7-6.645 3.623-2.662 1.5-2.662 1.5z" transform="rotate(-7 14185.495 157.324)" style="fill:url(#e0b48k1b0b)"/>
                    <path data-name="패스 5255" d="M35.02 427.487a9.91 9.91 0 0 0-1.056 2.595 8.3 8.3 0 0 0-.207 2.726 9.381 9.381 0 0 0 .734 2.849 13.661 13.661 0 0 0 1.771 2.966 18.9 18.9 0 0 0 5.729 4.818 29.066 29.066 0 0 0 7.907 3.007 31.966 31.966 0 0 0 8.894.741 26.235 26.235 0 0 0 8.644-1.952c2.741-1.147 5.548-2.429 8.215-3.7s5.181-2.537 7.358-3.659 4-2.094 5.287-2.789 2.028-1.111 2.028-1.111L68.8 408.254q-3.683 1.5-6.945 2.9t-6.131 2.7q-2.867 1.3-5.339 2.485t-4.567 2.261a45.05 45.05 0 0 0-3.52 2 31.7 31.7 0 0 0-3.029 2.15 21.284 21.284 0 0 0-2.453 2.3 14.211 14.211 0 0 0-1.795 2.437z" transform="rotate(-7 14309.48 312.949)" style="fill:url(#e0b48k1b0b)"/>
                    <path data-name="패스 5256" d="M132.645 425.652 131.3 460.84s1.33.039 3.532.075 5.279.073 8.769.067 7.392-.056 11.248-.187 7.663-.346 10.958-.685c3.48-.366 7.955-1.009 12.875-1.991a135.473 135.473 0 0 0 15.5-4.018 79.405 79.405 0 0 0 14.74-6.364 33.943 33.943 0 0 0 10.653-8.98 19.754 19.754 0 0 0 1.6-2.585 17.165 17.165 0 0 0 1.133-2.755 16.086 16.086 0 0 0 .624-2.92 16.815 16.815 0 0 0 .074-3.092 10.49 10.49 0 0 0-3.067-6.672 21.509 21.509 0 0 0-8.627-5.092 56.406 56.406 0 0 0-14.728-2.653 130.467 130.467 0 0 0-21.5.641 84.152 84.152 0 0 0-11.337 2.356c-4.488 1.176-9.424 2.637-14.018 4.064s-8.872 2.83-11.989 3.871-5.09 1.731-5.09 1.731z" transform="rotate(-7 14308.955 -258.976)" style="fill:url(#e0b48k1b0b)"/>
                    <path data-name="패스 5257" d="M99.031 431.149a26.05 26.05 0 0 0-2.038 2.6 22.246 22.246 0 0 0-1.61 2.741 18.641 18.641 0 0 0-1.125 2.826 15.2 15.2 0 0 0-.583 2.851 11.7 11.7 0 0 0 .91 6.609 10.388 10.388 0 0 0 4.173 4.372 20.5 20.5 0 0 0 6.763 2.368 43.989 43.989 0 0 0 8.642.618q2.592-.015 5.621-.139t6.516-.358q3.487-.234 7.439-.585t8.385-.818l1.913-33.938s-.9 0-2.448.017-3.73.054-6.3.129-5.5.191-8.562.362-6.234.4-9.265.714a26.328 26.328 0 0 0-5.292 1.1 29.256 29.256 0 0 0-4.946 2.094 30.6 30.6 0 0 0-4.437 2.9 29.261 29.261 0 0 0-3.763 3.529z" transform="rotate(-7 14379.183 -42.084)" style="fill:url(#e0b48k1b0b)"/>
                    <path data-name="패스 5258" d="m179.029 389.682 9.076 28.75s1.944.008 5.028-.019 7.308-.089 11.87-.229 9.458-.354 13.88-.691a80.954 80.954 0 0 0 11.025-1.411 139.905 139.905 0 0 0 13.515-3.81 80.988 80.988 0 0 0 10.19-4.2 42.874 42.874 0 0 0 7.137-4.42 21.062 21.062 0 0 0 4.368-4.46 12.372 12.372 0 0 0 1.3-2.35 9.3 9.3 0 0 0 .628-2.291 8.061 8.061 0 0 0 0-2.206 8.27 8.27 0 0 0-.585-2.1c-1.9-4.42-5.6-7.4-10.312-9.338a49.493 49.493 0 0 0-16.3-3.113 112.627 112.627 0 0 0-17.653.745 140.778 140.778 0 0 0-14.317 2.385c-2.794.628-5.985 1.486-9.2 2.422s-6.477 1.952-9.383 2.89-5.479 1.8-7.317 2.429-2.952 1.02-2.952 1.02z" transform="rotate(-7 14026.555 -521.512)" style="fill:url(#e0b48k1b0b)"/>
                    <path data-name="패스 5259" d="M149.683 400.337a12.326 12.326 0 0 0-1.443 2.089 10.1 10.1 0 0 0-.909 2.285 9.843 9.843 0 0 0-.319 2.489 11.545 11.545 0 0 0 .327 2.7 12.548 12.548 0 0 0 3.016 5.475 18.36 18.36 0 0 0 5.644 4.1 23.38 23.38 0 0 0 7.449 2.116 24.782 24.782 0 0 0 8.37-.483c2.865-.662 5.839-1.442 8.688-2.239s5.561-1.6 7.919-2.331 4.351-1.367 5.759-1.827 2.224-.741 2.224-.741l-8.325-27.861q-3.834.866-7.26 1.692t-6.453 1.6q-3.027.78-5.651 1.517t-4.852 1.434c-1.531.477-3 1-4.384 1.565a38.473 38.473 0 0 0-3.9 1.842 25.577 25.577 0 0 0-3.3 2.133 17.11 17.11 0 0 0-2.6 2.437z" transform="rotate(-7 14101.584 -338.416)" style="fill:url(#e0b48k1b0b)"/>
                </g>
            </g>
            <g data-name="그룹 2492" style="opacity:.594">
                <path data-name="패스 4097" d="m1954.389 726.311 1.309.4.879-2.034 1.985.351.906-1.415.717.459-1.213 1.892-1.882-.333-.914 2.116-1.969-.6z" transform="translate(-1652.871 1169.735)" style="fill:#64c0bf"/>
                <g data-name="그룹 588">
                    <g data-name="그룹 587">
                        <path data-name="패스 4099" d="M1879.35 1194.992s6.983-23.668 7.543-28.888-3.344-3.6-3.344-3.6 3.285-9.948.909-12.309-4.518 2.04-4.518 2.04-.719-12.076-3.251-12.081c-4.717-.008-4.624 13.17-4.624 13.17s-1.2-5.16-3.729-3.745c-3.809 2.133 1.653 12.473 1.653 12.473s-4.854 0-6.558 2.451c-3.06 4.387 15.919 30.489 15.919 30.489z" transform="translate(-1569.769 798.301)" style="fill:#ecf5df"/>
                    </g>
                </g>
                <g data-name="그룹 590">
                    <g data-name="그룹 589">
                        <path data-name="패스 4100" d="M1619.834 1330.908s20.13-3.366 24.509-6.933.045-5.175.045-5.175 10.113-5.184 10-8.709-5.141-1.733-5.141-1.733 8.521-9.716 6.5-11.561c-3.757-3.437-13.608 6.663-13.608 6.663s2.925-4.8-.155-5.563c-4.645-1.146-8.074 10.7-8.074 10.7s.871-4.677-2.332-4.054c-5.749 1.115-11.744 26.365-11.744 26.365z" transform="translate(-1312.536 659.251)" style="fill:#ecf5df"/>
                    </g>
                    <path data-name="패스 4101" d="M1634.362 1304.54c3.211-.581 2.333 4.054 2.333 4.054s3.428-11.844 8.074-10.7c3.08.76.156 5.563.156 5.563s9.85-10.1 13.608-6.663l-35.844 34.117c.636-3.255 6.289-25.397 11.673-26.371z" transform="translate(-1315.321 659.251)" style="fill:#dff2c3"/>
                </g>
                <g data-name="그룹 591">
                    <path data-name="패스 4102" d="M1606.156 1506.666s10.6-10.781 15.94-11.9 4.379 2.676 4.379 2.676 10.592-9.263 13.046-7.018-.2 4.411-.2 4.411 8.823-1.563 10.086 1.332c1.941 4.449-12.57 6.87-12.57 6.87s6.081.421 4.67 3.211c-2.127 4.202-35.351.418-35.351.418z" transform="translate(-1304.585 486.271)" style="fill:#ecf5df"/>
                    <path data-name="패스 4103" d="M1651.056 1495.781c-1.263-2.9-10.086-1.332-10.086-1.332s2.655-2.167.2-4.411-12.717 5.759-12.717 5.759 2.419-4.625-2.919-3.5-17.729 13.99-17.729 13.99z" transform="translate(-1306.235 486.652)" style="fill:#dff2c3"/>
                </g>
                <g data-name="그룹 599">
                    <path data-name="패스 4104" d="M4.724.057a4.091 4.091 0 0 1 1.661 7.365A2.723 2.723 0 0 0 5.327 9l-.54 2.179a1.186 1.186 0 0 1-1.344.885l-1.352-.222A1.186 1.186 0 0 1 1.1 10.57c.189-2.25.421-3.07-.31-4.07A4.091 4.091 0 0 1 4.724.057z" transform="rotate(-12.04 9071.778 -337.845)" style="fill:#f7ab08"/>
                    <g data-name="그룹 592">
                        <path data-name="패스 4105" d="M2.587 6.868c.233-1.927.559-3.961.67-4.538 2.043.112 1.267-2.044.324-1.167a1.786 1.786 0 0 0-.48.96 5.29 5.29 0 0 1-1.949-.568A2.506 2.506 0 0 0 1.1.415C.9-.044.316-.169.08.279A.715.715 0 0 0 .039.84a1.819 1.819 0 0 0 .91.828A82.862 82.862 0 0 1 .5 6.263l.2.024c.185-1.5.332-3.014.439-4.522a5.48 5.48 0 0 0 1.924.549c-.14.738-.449 2.721-.667 4.53zm1.641-4.993a1.145 1.145 0 0 1-.931.262 1.583 1.583 0 0 1 .416-.831c.508-.473.82.24.515.569zM.92.493a2.166 2.166 0 0 1 .044.96A1.537 1.537 0 0 1 .222.774.441.441 0 0 1 .449.2C.473.2.842.314.92.493z" transform="rotate(-12.04 9083.786 -347.622)" style="fill:#e4f1f7"/>
                    </g>
                    <path data-name="패스 4106" d="M4.246.667c0 .018-.011.036-.016.054L3.69 2.9a1.187 1.187 0 0 1-1.344.885L.994 3.562A1.186 1.186 0 0 1 0 2.293C.088 1.292.18.576.192 0z" transform="rotate(-12.04 9110.585 -347.175)" style="fill:#26c6da"/>
                    <g data-name="그룹 593">
                        <path data-name="패스 4107" d="M.73 2.524 1.8.576A.389.389 0 0 0 1.115.2L.048 2.15a.389.389 0 0 0 .683.374z" transform="rotate(-12.04 9049.012 -367.375)" style="fill:#f7ab08"/>
                    </g>
                    <g data-name="그룹 594">
                        <path data-name="패스 4108" d="m.423.98 2.326-.2A.389.389 0 0 0 2.681 0L.356.2a.389.389 0 1 0 .067.78z" transform="rotate(-12.04 9077.44 -383.036)" style="fill:#f7ab08"/>
                    </g>
                    <g data-name="그룹 595">
                        <path data-name="패스 4109" d="M2.478 2.14a.389.389 0 0 0 0-.55A12.719 12.719 0 0 0 .605.066a.389.389 0 1 0-.432.647 11.955 11.955 0 0 1 1.754 1.431.389.389 0 0 0 .551-.004z" transform="rotate(-12.04 9105.704 -387.198)" style="fill:#f7ab08"/>
                    </g>
                    <g data-name="그룹 596">
                        <path data-name="패스 4110" d="M.982 3.867a.389.389 0 0 0 .276-.476A14.791 14.791 0 0 1 .778.368.389.389 0 1 0 0 .41a15.573 15.573 0 0 0 .5 3.181.389.389 0 0 0 .482.276z" transform="rotate(-12.04 9045.11 -338.137)" style="fill:#f7ab08"/>
                    </g>
                    <g data-name="그룹 597">
                        <path data-name="패스 4111" d="M3.18 1.23a.389.389 0 0 0-.26-.485L.5.017a.389.389 0 1 0-.223.745l2.423.729a.389.389 0 0 0 .48-.261z" transform="rotate(-12.04 9074.142 -319.092)" style="fill:#f7ab08"/>
                    </g>
                    <g data-name="그룹 598">
                        <path data-name="패스 4112" d="M.389 1.718A.388.388 0 0 0 .495 1.7 12.224 12.224 0 0 0 2.916.733a.389.389 0 0 0-.365-.687A11.424 11.424 0 0 1 .284.954a.389.389 0 0 0 .105.764z" transform="rotate(-12.04 9103.004 -316.433)" style="fill:#f7ab08"/>
                    </g>
                </g>
                <path data-name="패스 4113" d="m2540.729 764.816 1.219-2.885 3.068-.63a.43.43 0 0 0 .195-.747l-2.366-2.052.349-3.113a.431.431 0 0 0-.65-.417l-2.682 1.617-2.853-1.293a.43.43 0 0 0-.6.49l.709 3.051-2.112 2.313a.43.43 0 0 0 .281.719l3.12.269 1.548 2.723a.431.431 0 0 0 .774-.045z" transform="translate(-2300.922 1141.829)" style="fill:#f7ab08"/>
                <path data-name="패스 4114" d="m2689.082 754.978.5 2.02 3.338-.448 1.1 2.862 2.553.073-.037 1.292-3.415-.1-1.041-2.713-3.473.466-.754-3.039z" transform="translate(-2468.696 1141.769)" style="fill:#cfd0d1"/>
                <path data-name="패스 4115" d="M1902.821 1559.132h58.687a4.136 4.136 0 0 0 4.059-4.21v-2.5a4.136 4.136 0 0 0-4.059-4.21h-58.687a8.314 8.314 0 0 1 .108 10.8z" transform="translate(-1652.69 434.425)" style="fill:#1eb2c4"/>
                <path data-name="패스 4116" d="M2135.84 1559.768h32.55a4.137 4.137 0 0 1 4.059 4.21 4.137 4.137 0 0 1-4.059 4.209h-32.554a8.354 8.354 0 0 0 .004-8.419z" transform="translate(-1884.802 424.118)" style="fill:#e4f1f7"/>
                <path data-name="패스 4117" d="M1962.2 1475.306a.244.244 0 0 1 .242-.345h31.058a4.2 4.2 0 0 1 4.407 3.966 4.2 4.2 0 0 1-4.407 3.966h-31.062a.244.244 0 0 1-.242-.347 7.6 7.6 0 0 0 .004-7.24z" transform="translate(-1691.455 499.742)" style="fill:#badef8"/>
                <path data-name="패스 4118" d="M2100.287 1481.778h15.39c2.857 0 5.172 1.488 5.172 3.324s-2.315 3.324-5.172 3.324h-15.491a7.587 7.587 0 0 0 .101-6.648z" transform="translate(-1829.342 493.664)" style="fill:#e4f1f7"/>
                <g data-name="그룹 600">
                    <path data-name="패스 4119" d="M2227.665 1496.329h2c.431 0 .78.145.78.323v.029h-2.785z" transform="translate(-1952.745 480.688)" style="fill:#e09613"/>
                    <path data-name="패스 4120" d="M2234.624 1497.14c0-.448.523-.811 1.169-.811h2.572c-.49 0-.887.275-.887.615l.012 8.69-1.421-1.118-1.449 1.118z" transform="translate(-1961.414 480.688)" style="fill:#f79b08"/>
                </g>
                <g data-name="그룹 602">
                    <path data-name="패스 4121" d="M2045.505 1415.6h18.068a3.208 3.208 0 0 0 2.9-3.443 3.208 3.208 0 0 0-2.9-3.443h-18.068a6.059 6.059 0 0 1 .129 6.691z" transform="translate(-1769.047 558.815)" style="fill:#e4f1f7"/>
                    <path data-name="패스 4122" d="M1964.811 1409.22a3.233 3.233 0 0 0-2.97-3.443H1943.5a.168.168 0 0 1-.154-.18.167.167 0 0 1 .154-.176h29.1a3.568 3.568 0 0 1 3.277 3.8 3.568 3.568 0 0 1-3.277 3.8h-29.1a.168.168 0 0 1-.154-.177.168.168 0 0 1 .154-.18h18.343a3.233 3.233 0 0 0 2.968-3.444z" transform="translate(-1667.385 561.754)" style="fill:#f2d38d"/>
                    <g data-name="그룹 601">
                        <path data-name="패스 4123" d="M2184.315 1424.344h2c.431 0 .781.142.781.317v.028h-2.785z" transform="translate(-1904.702 544.879)" style="fill:#64c0bf"/>
                        <path data-name="패스 4124" d="M2191.273 1425.139c0-.439.523-.795 1.17-.795h2.571c-.489 0-.886.27-.886.6l.012 8.522-1.421-1.1-1.449 1.1z" transform="translate(-1913.37 544.879)" style="fill:#a1d9d8"/>
                    </g>
                </g>
                <g data-name="그룹 605">
                    <g data-name="그룹 604">
                        <path data-name="패스 4125" d="m2486.1 932.394-2.667-.7 1.808 24.114 3.2.107-1.614-22.642a.978.978 0 0 0-.727-.879z" transform="translate(-2238.433 984.189)" style="fill:#e4f1f7"/>
                        <g data-name="그룹 603">
                            <path data-name="패스 4126" d="M2508.03 956.422a.879.879 0 0 0 .183 0 1.07 1.07 0 0 0 .876-1.177l-1.775-22.673a.973.973 0 0 0-1.042-.951 1.07 1.07 0 0 0-.876 1.177l1.775 22.674a1 1 0 0 0 .859.95z" transform="translate(-2261.459 984.26)" style="fill:#626262"/>
                            <path data-name="패스 4127" d="M2313.9 1152.623v.05a1.579 1.579 0 0 1-1.6 1.541l-22.526-2.016a1.574 1.574 0 0 1-1.294-1.8c0-.039.009-.078.014-.116z" transform="translate(-2042.78 789.266)" style="fill:#626262"/>
                        </g>
                    </g>
                    <path data-name="패스 4128" d="M2331.452 1390.683c1.474.818 5.984-.616 5.984-.746.065 1.233 5.049 13.293 5.049 13.293v3.711s-10.27.49-10.122-.417.7-.318 2.749-2.031c.182-.152 3.058-.82 2.28-2.523-1.572-3.43-4.903-9.146-5.94-11.287z" transform="translate(-2076.018 575.561)" style="fill:#f2e1d3"/>
                    <path data-name="패스 4129" d="M2337.095 1516.473h-11.242c-.406-.041-.5-.371-.357-.572a19.054 19.054 0 0 1 3.9-2.034c2.522.295 6.957-.675 7.362-1.25a4.168 4.168 0 0 1 .337 3.856z" transform="translate(-2070.294 466.161)" style="fill:#9d9d9d"/>
                    <path data-name="패스 4130" d="M2324.031 1214.279c.152-.456-9.679-4.628-10.118-4.152-.779.843 5.319 16.671 5.319 16.671l-7.005 2.14s-7.283-18.285-6.979-21.63 3.953-7.145 11.857-4.713 6.926 11.684 6.926 11.684z" transform="translate(-2054.765 743.306)" style="fill:#d3af61"/>
                    <path data-name="패스 4131" d="M2431.468 1412.6a37.167 37.167 0 0 1 5.533-.418c-.2 1.533-1.188 9.395-1.008 9.878a5.9 5.9 0 0 0 2.349 2.873s-7.634 6.888-8.095 6.092.341-.689.839-3.313a34.8 34.8 0 0 0 1.217-5.872c.129-3.77-.778-7.15-.835-9.24z" transform="translate(-2182.557 555.726)" style="fill:#f2e1d3"/>
                    <path data-name="패스 4132" d="M2098.243 1174.355c1.065-.568 3.829-.588 6.869-.391a69.745 69.745 0 0 1 17.415 3.418l3.773 1.25-.012-3.868s12-2.008 12.42.967c.628 4.479-.152 13.573-4.151 15.6-12.42 6.3-29.826-10.044-29.889-7.905-.085 2.872-2.507 13.562-3.125 18.242a34.485 34.485 0 0 1-5.963-.266c-.251-9.166-.369-25.43 2.663-27.047z" transform="translate(-1846.882 768.25)" style="fill:#edc56f"/>
                    <path data-name="패스 4133" d="m2437.106 1506.287-8.581 6.855c-.34.225-.623.03-.639-.216a19.034 19.034 0 0 1 1.726-4.044c2.138-1.371 4.958-4.946 4.907-5.648.905.766 2.732 2.873 2.587 3.053z" transform="translate(-2181.089 474.531)" style="fill:#9d9d9d"/>
                    <path data-name="패스 4134" d="M1982.813 761.812c.288-2.635.592-5.28 2.776-7.211a5.905 5.905 0 0 1 6.237-.992c6.3 2.369 3.053 7.962 11.082 13.6 2.495 1.752 5.245 2.951 7.123 5.31 2.629 3.3 1.636 7.274-.76 9.926-11.465 12.689-24.266-4.448-25.184-8.561a67.692 67.692 0 0 1-1.274-12.072z" transform="translate(-1707.373 1143.405)" style="fill:#26c6da"/>
                    <path data-name="패스 4135" d="M2095.106 923.136a35.06 35.06 0 0 1 1.9-3.1 7.258 7.258 0 0 1 3.481-2.6s.84.017 1.8.065a.765.765 0 0 0 .181.32c.362.272 2.439-.079 3.78.831 4.495 3.853 3.252 22.528 2.9 28.427l-13.688.13s1.726-12.692-1.056-15.952c-1.933-2.269-.687-5.557.702-8.121z" transform="translate(-1817.338 996.898)" style="fill:#badef8"/>
                    <path data-name="패스 4136" d="M2163.312 853.653a55.6 55.6 0 0 0 1.278 6.68c.526 1.306-2.89 4.1-5.731 4.946s.868-2.884.751-4.28-.634-8.005-.634-8.005z" transform="translate(-1879.373 1054.366)" style="fill:#f2e1d3"/>
                    <path data-name="패스 4137" d="m2168.1 854.888-.143-1.9 4.336.66s.11.631.23 1.524a3.564 3.564 0 0 1-4.423-.284z" transform="translate(-1888.358 1054.366)" style="fill:#ead2be"/>
                    <path data-name="패스 4138" d="M2154.221 768.04a4.927 4.927 0 0 1 2.765 2c1.055 1.611 1.78 6.353-1.7 8.566s-6.18-.917-6.224-3.971.613-7.135 5.159-6.595z" transform="translate(-1871.643 1130.164)" style="fill:#f2e1d3"/>
                    <path data-name="패스 4139" d="M2221.882 806.615c.3.737.885 1.194 1.314 1.022s.537-.91.241-1.647-.885-1.194-1.314-1.021-.537.909-.241 1.646z" transform="translate(-1945.256 1097.224)" style="fill:#f2e1d3"/>
                    <path data-name="패스 4140" d="M2132.146 767.51s2.179 4.888 4.094 5.325 1.887 2.9 1.887 2.9-.043-5.68-1.837-6.983a7.548 7.548 0 0 0-4.144-1.242z" transform="translate(-1850.08 1130.594)" style="fill:#26c6da"/>
                    <path data-name="패스 4141" d="M2137.811 816.505c-.252.794-.021 1.576.515 1.746s1.176-.335 1.428-1.129.021-1.575-.516-1.746-1.175.335-1.427 1.129z" transform="translate(-1852.412 1087.94)" style="fill:#f2e1d3"/>
                    <path data-name="패스 4142" d="M2124.685 1027.712c.822-.3 2.044-.334 2.024-.442-.083-.439-3.711.969-3.22.328.273-.357 2.988-1.62 3.648-1.411.641.2 4.846 1.383 4.846 1.383l11.493-2.694s2.9-6.592 3.184-12.255a15.79 15.79 0 0 1 6.115 2.073c-1 5.416-3.448 14.195-6.148 15.842-1.136.693-14.7-.829-14.7-.829a30.8 30.8 0 0 1-3.478-.4c-.37-.143-1.324-.68-1.844-.827-1.179-.334-3.28.5-3.287.274a2.27 2.27 0 0 1 1.367-1.042z" transform="translate(-1863.771 912.022)" style="fill:#f2e1d3"/>
                    <path data-name="패스 4143" d="M2112.657 922.971c.111-1.743.771-3.425 2.625-3.967a3.754 3.754 0 0 1 3.357.736 4.555 4.555 0 0 1 1.392 3.679 52.563 52.563 0 0 1-.783 9.295 19.881 19.881 0 0 0-6.914-2.176c.001-.02.177-5.264.323-7.567z" transform="translate(-1829.84 995.622)" style="fill:#abd3ec"/>
                </g>
                <g data-name="그룹 606">
                    <path data-name="패스 4144" d="m1685.059 850.3 17.817-3.318a.659.659 0 0 0 .527-.769l-2.232-11.986a.659.659 0 0 0-.769-.527l-17.817 3.318a.659.659 0 0 0-.527.769l2.232 11.986a.659.659 0 0 0 .769.527z" transform="translate(-1366.633 1071.58)" style="fill:#abd3ec"/>
                    <path data-name="패스 4145" d="m1719.3 826.449 5.423-1.01a.659.659 0 0 0 .528-.769l-.34-1.824a.659.659 0 0 0-.768-.527l-5.424 1.01a.659.659 0 0 0-.527.769l.339 1.824a.659.659 0 0 0 .769.527z" transform="translate(-1392.395 1081.729)" style="fill:#abd3ec"/>
                    <path data-name="패스 4146" d="M1684.447 859.979a.659.659 0 0 0 .755.469l17.934-3.339a.659.659 0 0 0 .536-.705l-.939-10.744a.659.659 0 0 0-.777-.591l-19.923 3.71a.659.659 0 0 0-.513.827z" transform="translate(-1366.831 1061.443)" style="fill:#badef8"/>
                </g>
                <g data-name="그룹 607">
                    <path data-name="패스 4147" d="m2579.578 595.241 3.051.833.658-3.7-1-.177-.462 2.6-1.98-.541z" transform="translate(-2343.686 1286.922)" style="fill:#64c0bf"/>
                </g>
                <g data-name="그룹 608">
                    <path data-name="패스 4148" d="M1719.871 1089.195a4.719 4.719 0 0 0-2.463.631 3.555 3.555 0 0 0-1.312 1.357l.141.1a3.2 3.2 0 0 1 1.641-1.01 3.951 3.951 0 0 1 1.832-.018z" transform="translate(-1386.775 843.746)" style="fill:#e09613"/>
                    <path data-name="패스 4149" d="M1720.12 1085.373s4.656.777 4.221 4.414-5.345 6.466-9.729 4.217c-5.9-3.026-3.567-10.718.629-11.314s4.879 2.683 4.879 2.683z" transform="translate(-1390.729 849.605)" style="fill:rgba(76,219,103,.74)"/>
                    <path data-name="패스 4150" d="M1769.891 1088.422s-1.214-1.246-3.876-.112-2.854 6.424-.48 6.117 6.254-5.242 4.356-6.005z" transform="translate(-1442.475 844.954)" style="fill:#4cdb67"/>
                </g>
                <g data-name="그룹 611">
                    <path data-name="패스 4151" d="m1841 546.483 19.147 6.83a1.186 1.186 0 0 0 1.516-.719l3.534-9.907a1.186 1.186 0 0 0-.719-1.516l-19.147-6.83a1.186 1.186 0 0 0-1.516.719l-3.534 9.907a1.187 1.187 0 0 0 .719 1.516z" transform="translate(-1539.865 1337.232)" style="fill:#cfd0d1"/>
                    <path data-name="패스 4152" d="M1879.284 602.774a3.795 3.795 0 1 0 4.849-2.3 3.795 3.795 0 0 0-4.849 2.3z" transform="translate(-1565.454 1278.394)" style="fill:#fff"/>
                    <path data-name="패스 4153" d="M1899.134 612.506a1.119 1.119 0 1 0 1.43-.678 1.12 1.12 0 0 0-1.43.678z" transform="translate(-1582.274 1268.131)" style="fill:#cfd0d1"/>
                    <path data-name="사각형 694" d="M0 0h3.576a1.727 1.727 0 0 1-1.727 1.727h-.122A1.727 1.727 0 0 1 0 0z" transform="rotate(-160.368 322.268 914.934)" style="fill:#cfd0d1"/>
                    <g data-name="그룹 609">
                        <path data-name="패스 4154" d="M1955.866 571.842a.484.484 0 0 0 .162-.94l-8.37-2.986a.484.484 0 1 0-.325.911l8.37 2.986a.479.479 0 0 0 .163.029z" transform="translate(-1642.507 1307.254)" style="fill:#fff"/>
                    </g>
                    <g data-name="그룹 610">
                        <path data-name="패스 4155" d="M1974.9 596.5a.484.484 0 0 0 .162-.94l-6.537-2.332a.48.48 0 0 0-.162-.028.484.484 0 0 0-.163.94l6.537 2.332a.485.485 0 0 0 .163.028z" transform="translate(-1663.801 1284.685)" style="fill:#fff"/>
                    </g>
                </g>
                <path data-name="패스 4156" d="M1888.1 1337.219h46.233a2.6 2.6 0 0 1 2.6 2.6v2.186a2.6 2.6 0 0 1-2.6 2.6H1888.1l.024-.025a5.293 5.293 0 0 0-.024-7.361z" transform="translate(-1622.457 622.57)" style="fill:#26c6da"/>
                <path data-name="패스 4157" d="M2079.266 1347.315h24.715a2.6 2.6 0 0 1 2.6 2.6 2.6 2.6 0 0 1-2.6 2.6h-24.714a5.3 5.3 0 0 0-.001-5.2z" transform="translate(-1812.808 613.568)" style="fill:#e4f1f7"/>
                <g data-name="그룹 615">
                    <g data-name="그룹 613">
                        <path data-name="패스 4158" d="m2669.9 1215.645 3.5-8.793a.862.862 0 0 0-.481-1.12l-12.611-5.026a.863.863 0 0 0-1.121.481l-3.5 8.792a.862.862 0 0 0 .482 1.12l12.61 5.026a.861.861 0 0 0 1.121-.48z" transform="translate(-2442.097 744.358)" style="fill:#badef8"/>
                        <path data-name="패스 4159" d="m2769.657 1224.367 3.149-7.9a.246.246 0 0 0-.137-.321.247.247 0 0 0-.322.138l-3.149 7.9a.247.247 0 0 0 .138.322.247.247 0 0 0 .321-.139z" transform="translate(-2553.753 730.551)" style="fill:#fff"/>
                        <path data-name="패스 4160" d="m2761.005 1226.4 2.586-6.487a.248.248 0 0 0-.139-.321.247.247 0 0 0-.321.138l-2.585 6.487a.247.247 0 0 0 .138.321.247.247 0 0 0 .321-.138z" transform="translate(-2543.6 727.476)" style="fill:#fff"/>
                        <path data-name="패스 4161" d="m2752.353 1231.265 3.149-7.9a.247.247 0 0 0-.138-.321.248.248 0 0 0-.322.139l-3.149 7.9a.247.247 0 0 0 .138.321.247.247 0 0 0 .322-.139z" transform="translate(-2534.575 724.401)" style="fill:#fff"/>
                        <path data-name="패스 4162" d="m2743.7 1232.911 2.431-6.1a.248.248 0 0 0-.138-.321.247.247 0 0 0-.321.138l-2.431 6.1a.247.247 0 0 0 .139.321.246.246 0 0 0 .32-.138z" transform="translate(-2524.268 721.325)" style="fill:#fff"/>
                        <g data-name="그룹 612">
                            <path data-name="패스 4163" d="m2784.092 1209.562.064-.159a.111.111 0 0 1 .142-.067l1.2.477a.111.111 0 0 1 .057.146l-.063.159a.11.11 0 0 1-.142.066l-1.2-.477a.111.111 0 0 1-.058-.145z" transform="translate(-2568.103 736.613)" style="fill:#e3e3e3"/>
                            <path data-name="패스 4164" d="m2786.6 1215.847.063-.159a.11.11 0 0 1 .142-.067l1.2.477a.111.111 0 0 1 .058.146l-.063.159a.111.111 0 0 1-.142.066l-1.2-.477a.111.111 0 0 1-.058-.145z" transform="translate(-2570.879 731.008)" style="fill:#e3e3e3"/>
                            <path data-name="패스 4165" d="m2789.1 1222.132.064-.159a.111.111 0 0 1 .142-.066l1.2.477a.11.11 0 0 1 .058.146l-.063.159a.111.111 0 0 1-.142.067l-1.2-.477a.111.111 0 0 1-.059-.147z" transform="translate(-2573.656 725.404)" style="fill:#e3e3e3"/>
                            <path data-name="패스 4166" d="m2791.608 1228.417.064-.159a.111.111 0 0 1 .142-.066l1.2.477a.111.111 0 0 1 .057.146l-.063.159a.112.112 0 0 1-.143.066l-1.2-.477a.111.111 0 0 1-.057-.146z" transform="translate(-2576.433 719.799)" style="fill:#e3e3e3"/>
                            <path data-name="패스 4167" d="m2794.112 1234.7.063-.159a.111.111 0 0 1 .142-.066l1.2.477a.111.111 0 0 1 .058.146l-.063.159a.111.111 0 0 1-.142.066l-1.2-.477a.111.111 0 0 1-.058-.146z" transform="translate(-2579.208 714.195)" style="fill:#e3e3e3"/>
                            <path data-name="패스 4168" d="m2796.617 1240.986.063-.159a.111.111 0 0 1 .142-.067l1.2.477a.111.111 0 0 1 .058.146l-.064.159a.11.11 0 0 1-.142.066l-1.2-.477a.111.111 0 0 1-.057-.145z" transform="translate(-2581.984 708.591)" style="fill:#e3e3e3"/>
                            <path data-name="패스 4169" d="m2799.124 1247.271.063-.159a.11.11 0 0 1 .142-.066l1.2.477a.112.112 0 0 1 .058.146l-.064.159a.111.111 0 0 1-.142.066l-1.2-.477a.111.111 0 0 1-.057-.146z" transform="translate(-2584.762 702.987)" style="fill:#e3e3e3"/>
                            <path data-name="패스 4170" d="m2801.628 1253.556.064-.159a.11.11 0 0 1 .142-.066l1.2.477a.11.11 0 0 1 .058.146l-.063.159a.111.111 0 0 1-.142.066l-1.2-.477a.111.111 0 0 1-.059-.146z" transform="translate(-2587.537 697.382)" style="fill:#e3e3e3"/>
                            <path data-name="패스 4171" d="m2804.134 1259.841.063-.159a.111.111 0 0 1 .142-.066l1.2.477a.11.11 0 0 1 .057.146l-.064.159a.111.111 0 0 1-.142.066l-1.2-.477a.11.11 0 0 1-.056-.146z" transform="translate(-2590.314 691.777)" style="fill:#e3e3e3"/>
                            <path data-name="패스 4172" d="m2806.638 1266.126.063-.159a.111.111 0 0 1 .142-.066l1.2.477a.112.112 0 0 1 .058.146l-.063.159a.112.112 0 0 1-.143.066l-1.2-.477a.111.111 0 0 1-.057-.146z" transform="translate(-2593.09 686.173)" style="fill:#e3e3e3"/>
                            <path data-name="패스 4173" d="m2809.143 1272.411.063-.159a.111.111 0 0 1 .142-.066l1.2.477a.111.111 0 0 1 .058.146l-.063.159a.11.11 0 0 1-.142.066l-1.2-.477a.111.111 0 0 1-.058-.146z" transform="translate(-2595.866 680.569)" style="fill:#e3e3e3"/>
                            <path data-name="패스 4174" d="m2811.649 1278.7.063-.159a.111.111 0 0 1 .142-.066l1.2.477a.111.111 0 0 1 .058.146l-.063.159a.111.111 0 0 1-.142.066l-1.2-.477a.11.11 0 0 1-.058-.146z" transform="translate(-2598.643 674.964)" style="fill:#e3e3e3"/>
                        </g>
                    </g>
                    <g data-name="그룹 614">
                        <path data-name="패스 4175" d="m2805.668 1273.456 3.278 4.667 1.728 2.46a.178.178 0 0 1 .026.052l.51 1.566a.2.2 0 0 1-.3.217l-1.339-1.009a.187.187 0 0 1-.043-.044l-5.018-7.145a.2.2 0 0 1 .054-.278l.843-.538a.2.2 0 0 1 .261.052z" transform="translate(-2595.969 679.504)" style="fill:#939596"/>
                        <path data-name="패스 4176" d="m2804.781 1341.256.012.018 1.292.974.353-.236-.484-1.484a6.027 6.027 0 0 0-1.173.728z" transform="translate(-2591.222 619.621)" style="fill:#f5ede2"/>
                    </g>
                </g>
                <g data-name="그룹 620">
                    <path data-name="패스 4186" d="m2671.905 872.8 8.4-7.5a1.241 1.241 0 0 0-.435-1.916l-6.706-3.8a1.047 1.047 0 0 0-1.224.057l-8.4 7.5a1.24 1.24 0 0 0 .435 1.916l6.706 3.8a1.048 1.048 0 0 0 1.224-.057z" transform="translate(-2450.066 1048.632)" style="fill:#badef8"/>
                    <g data-name="그룹 619">
                        <path data-name="패스 4187" d="m2740.824 875.958.7-5.76a.516.516 0 0 0-.358-.526.333.333 0 0 0-.456.273l-.645 5.3-6.371 1.54a.351.351 0 0 0-.214.5.494.494 0 0 0 .54.318z" transform="translate(-2518.586 1039.511)" style="fill:#fff"/>
                    </g>
                </g>
                <path data-name="패스 4189" d="m1718.793 684.216-.869 1.718-1.962-.063-.837 1.995-2.069-.712-1.046 2.214-1.986-.421-1.355 1.966.744.513 1.013-1.47 2.1.444 1.006-2.128 2.1.724.924-2.2 1.916.062.8-1.592 1.25.3.214-.878z" transform="translate(-1386.839 1204.869)" style="fill:#f7ab08"/>
                <path data-name="패스 4190" d="m2698.429 1072.043-1.783.725-1.437-1.337-1.942.954-1.093-1.9-2.243.982-1.221-1.622-2.313.592.224.875 1.729-.442 1.288 1.711 2.157-.944 1.11 1.928 2.142-1.053 1.4 1.306 1.653-.672.743 1.05.737-.522z" transform="translate(-2471.551 860.991)" style="fill:#64c0bf"/>
            </g>
        </g>
    </g>
</svg>
