<svg xmlns="http://www.w3.org/2000/svg" width="273.239" height="173.08" viewBox="0 0 273.239 173.08">
    <defs>
        <clipPath id="w71brhsjia">
            <path data-name="패스 5353" d="M578.467 192.657a37.37 37.37 0 0 1 4.118 10.4c1.305 5.1 9.26 48.278 9.876 57.563a40.376 40.376 0 0 1-7.139.275c-3.233-9.266-10.342-39.873-11.728-45.71a.756.756 0 0 0-1.491.216c.787 6.666-3.194 35.257-1.082 45.511-.843.429-5.94.334-6.915.212-1.06-11.433-6.682-54.716 1.806-68.746 3.883-.537 8.619.162 12.555.279z" transform="translate(-561.301 -192.176)" style="fill:none"/>
        </clipPath>
    </defs>
    <g data-name="그룹 2418" style="isolation:isolate;opacity:.798;mix-blend-mode:hard-light">
        <g data-name="그룹 2368">
            <g data-name="그룹 2363">
                <g data-name="그룹 2362">
                    <path data-name="패스 5261" d="M534.213 191.852a74.137 74.137 0 0 0 10.681-3.157 80.671 80.671 0 0 1-3.959-3.27l-5.852 3.111c-.312.136-.193.619-3.6 1.838z" transform="translate(-338.689 -125.721)" style="fill:#d4603f"/>
                    <path data-name="패스 5262" d="M534.118 192.774s-4.034.986-4.292 1.322 2.44-.018 2.329.34a15.254 15.254 0 0 0 1.963-1.662z" transform="translate(-337.732 -129.911)" style="fill:#d4603f"/>
                </g>
                <path data-name="패스 5263" d="M559.891 152.079c-1.036 2.117-4.831 10.977-4.831 10.977l-4.468 2.5 2.957 4.6s4.206-.986 6.308-2.891c2.027-1.837 4.63-13.942 4.6-16.829 0-.004-3.53-.474-4.566 1.643z" transform="translate(-349.581 -105.745)" style="fill:#fff"/>
            </g>
            <g data-name="그룹 2364">
                <path data-name="패스 5264" d="M246.548 252.274c2.381-2.069 7.381-5.718 7.381-5.718s6.781-6.326 6.569-6.762-2.829 1.119-2.829 1.119c.162-.45 2.5-2.288 2.361-2.549s-3.122 1.92-3.282 1.8 2.956-2.363 2.713-2.7-3.359 1.911-3.557 1.849 2.888-2.493 2.423-2.747-4.641 3.86-5.069 3.836.757-2.287.562-3.2-2.894 4.188-2.894 4.188c-.773.872-7.618 5.736-7.618 5.736z" transform="translate(-174.393 -155.095)" style="fill:#e37059"/>
                <path data-name="패스 5265" d="m266.23 244.835-.925 2.409a12.251 12.251 0 0 0 .1-2.523z" transform="translate(-186.934 -159.748)" style="fill:#a83b5a"/>
                <path data-name="패스 5266" d="M216.758 239.618s-10.872-17.642-16.829-11.049c-3.33 3.685 12.026 22.748 15.118 24.312l13.987-10.017-4.374-7.483z" transform="translate(-149.394 -149.697)" style="fill:#1b314f"/>
                <path data-name="선 1" transform="translate(72.802 87.136)" style="stroke-width:.369px;stroke-miterlimit:10;stroke:#38578c;fill:none" d="m0 0 4.469 7.74"/>
                <path data-name="패스 5267" d="M199.929 228.962c1.639-1.814 3.529-1.235 5.583-.253 1.79 2.241 3.865 3.776 5.506 6.139 1.715 2.47 3.265 5.052 4.925 7.558.424.641.867 1.263 1.327 1.878.32.427.558.909 1.088 1.108.873.329 1.323-.056 2.1-.448 1.026-.517 2.528-1.24 3.485-1.869a3.944 3.944 0 0 0 .879-.726s.614 1.143.863 1.69l-10.637 9.234c-3.093-1.563-18.448-20.626-15.119-24.311z" transform="translate(-149.394 -150.091)" style="stroke-width:.49px;stroke:#c8d5e8;mix-blend-mode:multiply;fill:#5f94c4;stroke-miterlimit:10;isolation:isolate"/>
            </g>
            <g data-name="그룹 2367">
                <g data-name="그룹 2366">
                    <path data-name="패스 5268" d="M379.47 108.72a62.934 62.934 0 0 0-125.867-.135c-.037 34.587 64.072 88.958 64.072 88.958s61.757-54.236 61.795-88.823z" transform="translate(-180.263 -45.966)" style="fill:#4475ab"/>
                    <path data-name="패스 5269" d="M350.227 266.247s4.173-57.118-6.61-61.087c-8.385-3.086-14.44 11.887-4.292 13.931 7.45 1.5 31.315.828 43.478.363 5.645-.215 9.667-5.953 7.528-11.189a5.514 5.514 0 0 0-3.283-3.353c-14.291-4.936-10.188 34.548-12.248 61.988" transform="translate(-226.106 -136.892)" style="stroke-width:3.089px;stroke-linecap:round;stroke:#fff;stroke-miterlimit:10;fill:none"/>
                    <g data-name="그룹 2365">
                        <path data-name="패스 5270" d="M360.725 400.769a29.457 29.457 0 0 1-29.405-29.509l.009-8.009 58.873.063-.009 8.01a29.457 29.457 0 0 1-29.468 29.445z" transform="translate(-224.571 -227.776)" style="fill:#1b314f"/>
                    </g>
                    <path data-name="사각형 1130" transform="rotate(.062 -114615.98 98378.818)" style="fill:#fff" d="M0 0h59.635v12.422H0z"/>
                </g>
            </g>
        </g>
        <g data-name="그룹 2369" transform="translate(.563 6.382)">
            <circle data-name="타원 227" cx="3.421" cy="3.421" r="3.421" transform="translate(0 94.044)" style="stroke-width:1.125px;stroke:#4475ab;stroke-miterlimit:10;fill:none"/>
            <circle data-name="타원 228" cx="3.421" cy="3.421" r="3.421" transform="rotate(-45 23.09 -39.227)" style="stroke-width:1.125px;stroke:#4475ab;stroke-miterlimit:10;fill:none"/>
            <circle data-name="타원 229" cx="3.421" cy="3.421" r="3.421" transform="rotate(-13.24 555.56 -1087.356)" style="stroke-width:1.125px;stroke:#4475ab;stroke-miterlimit:10;fill:none"/>
            <circle data-name="타원 230" cx="3.421" cy="3.421" r="3.421" transform="translate(175.58 117.305)" style="stroke-width:1.125px;stroke:#fff;stroke-miterlimit:10;fill:none"/>
            <circle data-name="타원 231" cx="3.421" cy="3.421" r="3.421" transform="translate(212.227 2.551)" style="stroke-width:1.125px;stroke:#fff;stroke-miterlimit:10;fill:none"/>
            <path data-name="패스 5271" d="M212.129 90.926a2.251 2.251 0 1 0-2.251 2.251 2.251 2.251 0 0 0 2.251-2.251z" transform="translate(-154.22 -76.663)" style="fill:#fff"/>
            <path data-name="패스 5272" d="M705.622 150.192a2.251 2.251 0 1 0-2.251 2.251 2.252 2.252 0 0 0 2.251-2.251z" transform="translate(-436.77 -110.687)" style="fill:#fff"/>
            <path data-name="패스 5273" d="M536.459 303.515a1.72 1.72 0 1 0-1.72 1.72 1.72 1.72 0 0 0 1.72-1.72z" transform="translate(-340.509 -198.812)" style="fill:#fff"/>
            <path data-name="패스 5274" d="M286.846 351.134a1.72 1.72 0 1 0-1.72 1.72 1.72 1.72 0 0 0 1.72-1.72z" transform="translate(-197.604 -226.088)" style="fill:#4475ab"/>
            <circle data-name="타원 232" cx="1.72" cy="1.72" r="1.72" transform="translate(10.867 103.733)" style="fill:#4475ab"/>
            <path data-name="패스 5275" d="M593.951 419.1a1.72 1.72 0 1 0-1.72 1.72 1.72 1.72 0 0 0 1.72-1.72z" transform="translate(-373.423 -265.018)" style="stroke-width:1.125px;stroke:#4475ab;stroke-miterlimit:10;fill:none"/>
        </g>
        <g data-name="그룹 2384">
            <g data-name="그룹 2370">
                <path data-name="패스 5276" d="m211.835 437.73-.727-1.437-4.333.157-.1 1.281 2.036 3.532 3.664-2.826z" transform="translate(-152.817 -269.419)" style="fill:#e37059"/>
                <path data-name="패스 5277" d="M211.2 439.522a4.845 4.845 0 0 0-2.754 1.1c-.882.668-2.213-.711-2.622-1.067-.083-.073-.2-.008-.21.121l-.512 4.664h12.893a.32.32 0 0 0 .271-.353V443a.358.358 0 0 0-.186-.335z" transform="translate(-151.917 -271.26)" style="fill:#4475ab"/>
                <path data-name="선 2" transform="translate(57.928 168.507)" style="stroke-width:.426px;stroke:#1c2b4f;stroke-miterlimit:10;fill:none" d="M2.076 0 0 1.201"/>
                <path data-name="선 3" transform="translate(58.833 168.97)" style="stroke-width:.426px;stroke:#1c2b4f;stroke-miterlimit:10;fill:none" d="M2.076 0 0 1.201"/>
            </g>
            <g data-name="그룹 2371">
                <path data-name="패스 5278" d="m162.967 436.939-.727-1.437-3.976-.6-.454 2.034 2.036 3.532 3.664-2.826z" transform="translate(-124.956 -268.627)" style="fill:#e37059"/>
                <path data-name="패스 5279" d="M162.329 439.522a4.844 4.844 0 0 0-2.754 1.1c-.882.668-2.214-.711-2.622-1.067-.083-.073-.2-.008-.21.121l-.512 4.664h12.893a.321.321 0 0 0 .272-.353V443a.358.358 0 0 0-.186-.335z" transform="translate(-124.056 -271.259)" style="fill:#4475ab"/>
                <path data-name="선 4" transform="translate(37.213 168.6)" style="stroke-width:.426px;stroke:#1c2b4f;stroke-miterlimit:10;fill:none" d="M2.076 0 0 1.201"/>
                <path data-name="선 5" transform="translate(38.118 169.063)" style="stroke-width:.426px;stroke:#1c2b4f;stroke-miterlimit:10;fill:none" d="M2.076 0 0 1.201"/>
            </g>
            <g data-name="그룹 2372">
                <path data-name="패스 5280" d="M193.531 308.307s1.658 19.835 1.814 25.315-.944 29.912-.944 29.912l-6.9.122s-4.819-40.987-11.519-54.2z" transform="translate(-135.318 -196.452)" style="fill:#d4603f"/>
                <path data-name="패스 5281" d="M197.341 310.743s4.718 22.914 4.718 26.432.7 27.695.7 27.695" transform="translate(-147.493 -197.841)" style="stroke-width:.426px;stroke:#fff;stroke-miterlimit:10;fill:none"/>
                <path data-name="선 6" transform="translate(51.833 164.535)" style="stroke-width:.426px;stroke:#fff;stroke-miterlimit:10;fill:none" d="M0 0h7.31"/>
            </g>
            <g data-name="그룹 2374">
                <path data-name="패스 5282" d="M182.91 308.307s-3.834 16.534-7.728 28.231c-3.147 9.453-10.117 27.555-10.117 27.555l-7.735-.193 6.718-27.08a23.545 23.545 0 0 0 .674-4.308c.346-5.493-.783-16.592-1.256-23.7z" transform="translate(-124.683 -196.452)" style="fill:#ffb264"/>
                <g data-name="그룹 2373">
                    <path data-name="패스 5283" d="M173.138 309.023s1.812 21.431.183 24.764-9.569 30.472-9.569 30.472" transform="translate(-128.345 -196.861)" style="stroke-width:.426px;stroke:#fff;stroke-miterlimit:10;fill:none"/>
                    <path data-name="선 7" transform="translate(33.422 164.997)" style="stroke-width:.426px;stroke:#fff;stroke-miterlimit:10;fill:none" d="M0 0h7.761"/>
                    <path data-name="선 8" transform="translate(45.515 111.978)" style="stroke:#020f2b;stroke-width:.426px;stroke-miterlimit:10;fill:none" d="M5.776 0 0 7.574"/>
                </g>
            </g>
            <g data-name="그룹 2377">
                <path data-name="패스 5284" d="M162.511 233.354c.186-4.671 7.642-8.872 7.642-8.872l2.625-1.853-.021.146 5.65 3.575.446-.963-.077-.8 1.408.476c.6.075 3.384 3.13 4.289 4.544a10.444 10.444 0 0 1 1.632 5.131l2.632 26.4-21.537 1.584s-4.974-22.181-4.689-29.368z" transform="translate(-127.63 -147.604)" style="fill:#fff"/>
                <path data-name="선 9" transform="translate(37.56 111.352)" style="stroke-width:.185px;stroke:#fff;stroke-miterlimit:10;fill:none" d="M23.335 0 0 1.689"/>
                <g data-name="그룹 2375">
                    <path data-name="패스 5285" d="M168.352 227.389s5.245 3.414 8.271 13.8c2.694 9.241 3.95 31.486 3.95 31.486l-17.95 1.478s1.064-15.679 1.387-17.88-7.9-23.654 2.077-27.316z" transform="translate(-126.85 -150.318)" style="fill:#1b314f"/>
                </g>
                <g data-name="그룹 2376">
                    <path data-name="패스 5286" d="m202.534 232.3.059.589 3.06 40.462 7.339-.951-2.412-18.171s-1.021-17.467-1.733-18.892c-1.1-2.2-3.7-6.8-6.928-7.3z" transform="translate(-150.103 -150.692)" style="fill:#1b314f"/>
                    <path data-name="패스 5287" d="m204.251 229.15 4.593 8.606-.686 2.165 1.161 1.267-2.9 12.583z" transform="translate(-151.433 -151.322)" style="stroke:#c8d5e8;mix-blend-mode:multiply;fill:#5f94c4;stroke-width:.369px;stroke-miterlimit:10;isolation:isolate"/>
                    <path data-name="패스 5288" d="m204.1 250.8 1.419-11.683-2.136-2.071 1.812-2.589-3.236-7.379-2.018-1.038z" transform="translate(-148.975 -149.548)" style="fill:#5f94c4"/>
                </g>
            </g>
            <path data-name="패스 5289" d="M203.861 285.388c.049.378-.011.7-.135.714s-.262-.276-.311-.654.011-.7.134-.715.263.278.312.655z" transform="translate(-150.947 -183.012)" style="fill:#fff"/>
            <g data-name="그룹 2380">
                <path data-name="패스 5290" d="m174.505 230.354-4.21 3.194 7.1 7.8-.475 1.9 5.438 9.556 1.742-1-3.96-12.988z" transform="translate(-132.074 -152.009)" style="stroke-width:.49px;stroke:#c8d5e8;mix-blend-mode:multiply;fill:#5f94c4;stroke-miterlimit:10;isolation:isolate"/>
                <path data-name="패스 5291" d="M186.668 217.519a4.4 4.4 0 0 0-1.149.089 11.95 11.95 0 0 0 .713 1.653z" transform="translate(-140.752 -144.691)" style="fill:#020f2b"/>
                <g data-name="그룹 2379">
                    <path data-name="패스 5292" d="M187.738 196.767c-2.823.742-4.452-9.533-1.807-10.114a2.151 2.151 0 0 1 1.585-1.77 1.926 1.926 0 0 1 2.064.536s.268-.67.67-.643a1.426 1.426 0 0 1 .751.349 2.848 2.848 0 0 1 1.849-.777 1.761 1.761 0 0 1 1.688 1.045s1.582-.831 1.8 1.072a1.373 1.373 0 0 1-.455 1.26s.161 1.554-.644 1.876c0 0 .241 1.018-.189 1.021" transform="translate(-140.225 -125.778)" style="fill:#151f36"/>
                    <path data-name="패스 5293" d="M191.726 201.867c-1.914-2.178-4.565-3.157-6.905-1.692.335 2.778 1.514 5.623 3.047 5.22l4.009-3.372c-.051-.05-.101-.1-.151-.156z" transform="translate(-140.356 -134.406)" style="opacity:.32;fill:#e37059"/>
                    <path data-name="패스 5294" d="M195.852 194.967s1.021 7.011-1.029 9.822c-.554.466-2.154.1-2.662.032a10.524 10.524 0 0 0 .291 4.549c.718 2.237-2.308 2.266-3.755.337l-2.19-2.631s.522-3.929.621-5.255a9.208 9.208 0 0 0 .008-1.775c-.835-.073-1.08-1.618-.765-2.456.3-.8 1.891.34 2.178 1.055.091.227.355.466.641.125.175-.209.215-2.126.463-3.318.276.721 1.4.293 1.4.293.4-.015.723-.7.69-.709.5.59 2.068.591 2.552.548.437-.039.724-.607.858-.751.742-.795.699.134.699.134z" transform="translate(-141.164 -131.575)" style="fill:#e37059"/>
                    <path data-name="패스 5295" d="M187.121 203.622c.349-2.33 1.42-.322 1.42-.322z" transform="translate(-141.667 -136.127)" style="fill:#822e4b"/>
                    <path data-name="패스 5296" d="m198.509 218.261-1.984-.29 1.694 5.081z" transform="translate(-147.028 -144.949)" style="fill:#822e4b"/>
                    <g data-name="그룹 2378">
                        <path data-name="패스 5297" d="M206.175 202.946s.563 2.6.557 2.615a8.99 8.99 0 0 1-.92-.025z" transform="translate(-152.323 -136.383)" style="fill:#a83b5a"/>
                        <path data-name="패스 5298" d="M207.814 205.088c0 .224.093.405.2.4s.194-.185.19-.41-.093-.405-.2-.4-.193.185-.19.41z" transform="translate(-153.464 -137.371)" style="fill:#020f2b"/>
                        <path data-name="패스 5299" d="M204.362 205.013c0 .224.093.405.2.4s.194-.185.191-.41-.093-.405-.2-.4-.195.185-.191.41z" transform="translate(-151.496 -137.328)" style="fill:#020f2b"/>
                        <path data-name="패스 5300" d="M201.709 201.458c-.258.036-.156-.426.883-.632.366-.072.823.193.659.478-.106.186-.606.025-1.542.154z" transform="translate(-149.916 -135.168)" style="fill:#020f2b"/>
                        <path data-name="패스 5301" d="M208.528 201.566c.25.075.616-.329-.126-.555-.517-.158-.785.049-.591.371.1.166.323.065.717.184z" transform="translate(-153.427 -135.25)" style="fill:#020f2b"/>
                        <path data-name="패스 5302" d="m205.4 210.016-1.984-.073a1.527 1.527 0 0 0 1.161.871c.623.026.823-.798.823-.798z" transform="translate(-150.957 -140.373)" style="fill:#fff"/>
                    </g>
                </g>
                <path data-name="패스 5303" d="m177.682 222.3 3.948 9.644 3.091.282-1.373 1.8 5.851 13.515s-2.3-12.248-4.527-19.153c-1.756-5.435-3.7-10.043-3.7-10.043z" transform="translate(-136.286 -145.161)" style="fill:#5f94c4"/>
            </g>
            <g data-name="그룹 2382">
                <g data-name="그룹 2381">
                    <path data-name="패스 5304" d="m215.7 259.175 3.822-12.983a2.037 2.037 0 0 1 1.162-1.282l13.281-4.075c.933-.394 1.629.573 1.29 1.527l-3.475 10.428a2.612 2.612 0 0 1-1.367 1.558l-13.76 5.152c-.253.117-1.039-.051-.953-.325z" transform="translate(-157.957 -157.932)" style="fill:#fff"/>
                    <path data-name="패스 5305" d="m217.36 260.1 4.048-13.184a1.6 1.6 0 0 1 .891-.985l14.2-4.339c.566-.231 1 .4.826.99l-3.63 10.818a2.056 2.056 0 0 1-1.162 1.419c-2.443 1.211-15.242 5.494-15.173 5.281z" transform="translate(-158.907 -158.387)" style="fill:#4475ab"/>
                    <path data-name="패스 5306" d="m220.563 263.226.484 2.226-1.373.174z" transform="translate(-160.226 -170.749)" style="fill:#020f2b"/>
                </g>
                <path data-name="패스 5307" d="M205.606 273.187A100.968 100.968 0 0 0 217.251 264c.427-.378 1.594-1.651 1.5-1.866-.217-.491-2.594 2.02-2.534 1.854s3.059-2.759 2.893-3.16c-.248-.6-3.54 2.348-3.6 2.4-.875.713 3.259-2.7 3.189-3.156s-2.064.972-2.136 1.021c0 0-1.634 1.323-1.756 1.224s2.677-3.863 2.188-3.94-2.37 2.128-2.937 2.662a22.335 22.335 0 0 1-2.3 1.311c-.648.495-.654-1.21-.382-1.815a10.434 10.434 0 0 0-1.646 2.656 10.662 10.662 0 0 0-.356 1.456l-5.874 3.882z" transform="translate(-151.008 -167.983)" style="fill:#e37059"/>
                <path data-name="패스 5308" d="m162.527 252.306 4.048 19.135c.638 5.2 5.461 8.486 9.1 4.716l3.5-3.624z" transform="translate(-127.645 -164.524)" style="stroke-width:.49px;stroke:#c8d5e8;mix-blend-mode:multiply;fill:#5f94c4;stroke-miterlimit:10;isolation:isolate"/>
                <path data-name="패스 5309" d="M169.514 237.5s-2.842-4.471-5.455-2.874c-4.422 2.7-5.154 13.306 3.906 26.645 2.056 3.027 7.807 3.532 10.381.931l9.437-5.829-4.024-6.318-6.138 4.117z" transform="translate(-126.71 -154.247)" style="fill:#1b314f"/>
                <path data-name="패스 5310" d="M182.6 292.4a6.4 6.4 0 0 0-4.785-1.77 9.77 9.77 0 0 0-3.669.628c.434.7.889 1.416 1.379 2.137 1.729 2.545 6.062 3.3 8.931 1.931a8.773 8.773 0 0 0-1.856-2.926z" transform="translate(-134.27 -186.374)" style="fill:#4475ab"/>
                <path data-name="선 10" transform="translate(54.877 97.362)" style="stroke-width:.369px;stroke-miterlimit:10;stroke:#38578c;fill:none" d="m0 0 3.696 6.283"/>
            </g>
            <g data-name="그룹 2383" transform="translate(47.444 65.762)">
                <path data-name="패스 5311" d="M211.628 203.9h-.228a.186.186 0 0 1-.186-.186.186.186 0 0 1 .186-.186h.232z" transform="translate(-202.845 -202.478)" style="stroke-width:.214px;stroke:#004c69;fill:#004c69;stroke-miterlimit:10"/>
                <path data-name="패스 5312" d="M202.544 202.459a1.36 1.36 0 1 1-1.36-1.376 1.368 1.368 0 0 1 1.36 1.376z" transform="translate(-196.353 -201.083)" style="opacity:.27;fill:#fff"/>
                <path data-name="패스 5313" d="M202.544 202.459a1.36 1.36 0 1 1-1.36-1.376 1.368 1.368 0 0 1 1.36 1.376z" transform="translate(-196.353 -201.083)" style="stroke-width:.243px;stroke:#020f2b;stroke-miterlimit:10;fill:none"/>
                <ellipse data-name="타원 233" cx="1.085" cy="1.341" rx="1.085" ry="1.341" transform="translate(6.68 .004)" style="stroke-width:.214px;stroke:#004c69;stroke-miterlimit:10;fill:none"/>
                <ellipse data-name="타원 234" cx="1.085" cy="1.341" rx="1.085" ry="1.341" transform="translate(6.68 .004)" style="stroke-width:.214px;stroke:#004c69;stroke-miterlimit:10;fill:none"/>
                <ellipse data-name="타원 235" cx="1.085" cy="1.341" rx="1.085" ry="1.341" transform="translate(6.68 .004)" style="opacity:.27;fill:#fff"/>
                <path data-name="패스 5314" d="M201.517 201.094a1.331 1.331 0 0 0-.172-.011 1.359 1.359 0 0 0-1.238.808c.483-.25.95-.52 1.41-.797z" transform="translate(-196.515 -201.083)" style="opacity:.27;fill:#fff"/>
                <path data-name="패스 5315" d="M202.164 201.868a1.332 1.332 0 0 0-.153-.138 24.113 24.113 0 0 1-2.175 1.213 1.371 1.371 0 0 0 .035.208q1.155-.631 2.293-1.283z" transform="translate(-196.36 -201.452)" style="opacity:.27;fill:#fff"/>
                <path data-name="패스 5316" d="M201.063 205.123a1.343 1.343 0 0 0 .828.285 1.375 1.375 0 0 0 1.347-1.566c-.713.441-1.438.871-2.175 1.281z" transform="translate(-197.06 -202.656)" style="opacity:.27;fill:#fff"/>
                <path data-name="패스 5317" d="M207.978 204.481c.49-.267 1-.515 1.506-.756a1.632 1.632 0 0 0 .061-.445 1.568 1.568 0 0 0-.163-.7 12.316 12.316 0 0 1-1.942 1.162 1.289 1.289 0 0 0 .538.739z" transform="translate(-200.695 -201.934)" style="opacity:.27;fill:#fff"/>
                <path data-name="패스 5318" d="M208.741 201.135a.893.893 0 0 0-.271-.042 1.119 1.119 0 0 0-1.013.858q.643-.411 1.284-.816z" transform="translate(-200.705 -201.089)" style="opacity:.27;fill:#fff"/>
                <ellipse data-name="타원 236" cx="1.085" cy="1.341" rx="1.085" ry="1.341" transform="translate(6.68 .004)" style="stroke-width:.214px;stroke:#020f2b;stroke-miterlimit:10;fill:none"/>
                <path data-name="패스 5319" d="M206.119 204.269s.258-.6.5 0" transform="translate(-199.942 -202.748)" style="stroke-width:.243px;stroke:#020f2b;stroke-miterlimit:10;fill:none"/>
                <path data-name="패스 5320" d="M199.224 203.9h-.232a.186.186 0 0 1-.186-.186.186.186 0 0 1 .186-.186h.232z" transform="translate(-195.773 -202.478)" style="stroke-width:.214px;fill:#020f2b;stroke:#020f2b;stroke-miterlimit:10"/>
                <path data-name="선 11" transform="translate(0 1.007)" style="stroke-width:.214px;stroke:#020f2b;stroke-miterlimit:10;fill:none" d="M3.446.23 0 0"/>
            </g>
        </g>
        <g data-name="그룹 2385">
            <path data-name="사각형 1131" transform="translate(192.873 137.79)" style="fill:#1b314f" d="M0 0h46.311v2.573H0z"/>
            <path data-name="선 12" transform="translate(238.54 140.363)" style="stroke:#1b314f;stroke-width:1.125px;stroke-miterlimit:10;fill:none" d="m0 0 8.683 28.944"/>
            <path data-name="선 13" transform="translate(193.837 140.363)" style="stroke:#1b314f;stroke-width:1.125px;stroke-miterlimit:10;fill:none" d="m0 0 8.683 28.944"/>
            <path data-name="선 14" transform="translate(184.511 140.363)" style="stroke-width:1.125px;stroke:#fff;stroke-miterlimit:10;fill:none" d="M8.683 0 0 28.944"/>
            <path data-name="선 15" transform="translate(228.249 140.363)" style="stroke-width:1.125px;stroke:#fff;stroke-miterlimit:10;fill:none" d="M8.683 0 0 28.944"/>
            <path data-name="선 16" transform="translate(198.018 152.584)" style="stroke:#1b314f;stroke-width:1.125px;stroke-miterlimit:10;fill:none" d="M0 0h44.381"/>
        </g>
        <g data-name="그룹 2395" transform="translate(191.699 25.434)">
            <circle data-name="타원 237" cx="2.144" cy="2.144" r="2.144" transform="translate(17.468 12.434)" style="stroke-width:.46px;stroke:#fff;stroke-miterlimit:10;fill:none"/>
            <g data-name="그룹 2387" transform="translate(18.121)">
                <path data-name="패스 5321" d="M573.7 118.116c-.169-.782 1.1-2.8 1.754-3.262a7.854 7.854 0 0 1 2.649-1.168 5.517 5.517 0 0 1 5.313 1.612c4.669 4.59-3.161 9.8-3.161 9.8" transform="translate(-573.376 -109.884)" style="fill:#ffce7e"/>
                <circle data-name="타원 238" cx="2.168" cy="2.168" r="2.168" transform="translate(4.056)" style="fill:#ffce7e"/>
                <path data-name="패스 5322" d="M597.03 116.974a2.168 2.168 0 1 1 2.168 2.168 2.168 2.168 0 0 1-2.168-2.168z" transform="translate(-586.684 -110.613)" style="fill:#ffce7e"/>
                <path data-name="패스 5323" d="M581.123 121.773a.186.186 0 0 0 .2.175c.441-.041 1.45-.224 1.7.916a1.756 1.756 0 0 1-1.469 2 5.52 5.52 0 0 0-1.232.938c-.363.473.526 5.125.723 6.571.368 2.7-3.614 4.008-3.614 4.008s-2.282-.607-2.518-4.008c0 0 .105-6.576.07-6.605-.585-.49-2.694-.537-1.775-5.1.852-4.232 3.9-4.206 4.685-4.137.658.054 2.924-.004 3.23 5.242z" transform="translate(-572.972 -111.585)" style="fill:#d4603f"/>
                <path data-name="패스 5324" d="M579.375 115.718s.922 5.194 5.81 4.118c0 0 1.969-5.58-5.81-4.118z" transform="translate(-576.619 -110.993)" style="fill:#ffce7e"/>
                <g data-name="그룹 2386">
                    <path data-name="패스 5325" d="M593.218 131.546s-.822-1.4-1.528.635" transform="translate(-583.64 -119.889)" style="fill:#ad4021"/>
                    <path data-name="패스 5326" d="M581.73 129.546a1.039 1.039 0 1 0 1.105.969 1.039 1.039 0 0 0-1.105-.969z" transform="translate(-577.408 -119.015)" style="fill:#ad4021"/>
                    <path data-name="패스 5327" d="M573.007 128.764a1.039 1.039 0 0 0 .178-1.937 5.066 5.066 0 0 0-.178 1.937z" transform="translate(-572.963 -117.466)" style="fill:#ad4021"/>
                    <path data-name="패스 5328" d="m574.982 129.914 1.647.647s-.722.63-1.167.359a1.4 1.4 0 0 1-.48-1.006z" transform="translate(-574.114 -119.226)" style="fill:#fff"/>
                    <path data-name="패스 5329" d="m576.471 127-.15 1.148-.57-.194a.146.146 0 0 1-.052-.246z" transform="translate(-574.496 -117.565)" style="fill:#ad4021"/>
                    <path data-name="패스 5330" d="M3.963 8.835c.154.179.015-.481-.223-.615a.464.464 0 0 0-.641.131 1.453 1.453 0 0 1 .864.484z"/>
                    <path data-name="패스 5331" d="M.887 7.971c-.22.083.217-.43.491-.433a.465.465 0 0 1 .5.422 1.453 1.453 0 0 0-.991.011z"/>
                    <path data-name="패스 5332" d="M3.125 9.743c-.059.2-.184.33-.279.3s-.123-.211-.064-.406.185-.331.279-.3.127.211.064.406z"/>
                    <path data-name="패스 5333" d="M1.603 9.176c-.057.187-.176.316-.267.288s-.118-.2-.061-.388.176-.316.267-.288.117.201.061.388z"/>
                    <path data-name="패스 5334" d="M577.635 138.047a16.626 16.626 0 0 0 2.987.05c.987-.151-3.122 3.073-2.987-.05z" transform="translate(-575.624 -123.863)" style="fill:#ad4021"/>
                </g>
            </g>
            <g data-name="그룹 2388">
                <path data-name="패스 5335" d="m573.855 349.929-.718 5.1s-1.152 3.382-2.222 2.073a10.548 10.548 0 0 0-2.128-2l-.351-5.3z" transform="translate(-552.261 -244.586)" style="fill:#d4603f"/>
                <path data-name="패스 5336" d="m620.694 349.19 1.587 5.088s1.208 1.059 1.644 1.032c.793-.05 1.209-1.418 1.209-1.418l.131-4.7z" transform="translate(-582.054 -244.239)" style="fill:#d4603f"/>
                <path data-name="패스 5337" d="m562.632 360.947-4.271 3.462c-.219.162-.062.435.25.438l6.305.051a.367.367 0 0 0 .338-.172l.475-.975c.138-.282.411-.3.386-.006l.233.941c-.012.148 1.495.108 1.508-.027a26.581 26.581 0 0 0-.242-4.336.314.314 0 0 0-.282-.218.43.43 0 0 0-.353.1c-.426.412-1.786 1.651-2.511 1.4a5.317 5.317 0 0 1-1.312-.643.448.448 0 0 0-.524-.015z" transform="translate(-546.459 -250.459)" style="fill:#ffce7e"/>
                <path data-name="패스 5338" d="m626.327 359.673 2.425 4.062a.792.792 0 0 1-.353 1.145c-.758.451-1.378 1.352-1.855 1.365-.862.024-2.2-.884-2.984-1.225-.525-.228-.935-.564-.87-1l.6-4.075c.007-.051.1-.069.14-.029l.929.842a1.09 1.09 0 0 0 1.335-.092c.146-.236.489-1 .489-1a.1.1 0 0 1 .144.007z" transform="translate(-583.189 -250.197)" style="fill:#ffce7e"/>
            </g>
            <g data-name="그룹 2389">
                <path data-name="패스 5339" d="M578.467 192.657a37.37 37.37 0 0 1 4.118 10.4c1.305 5.1 9.26 48.278 9.876 57.563a40.376 40.376 0 0 1-7.139.275c-3.233-9.266-10.342-39.873-11.728-45.71a.756.756 0 0 0-1.491.216c.787 6.666-3.194 35.257-1.082 45.511-.843.429-5.94.334-6.915.212-1.06-11.433-6.682-54.716 1.806-68.746 3.883-.537 8.619.162 12.555.279z" transform="translate(-548.194 -154.722)" style="fill:#1b314f"/>
            </g>
            <g data-name="그룹 2390">
                <path data-name="패스 5340" d="M570.955 148.519c.114.274-3.885 8.795-3.75 11.482.135 2.708 1.985 7.264 1.841 7.671 0 0 5.864 1.272 17.454-.553-.739-6.6-3.331-13.326-4.527-16.681 0 0-3.7-2.915-4.682-2.987-.001 0-1.765 2.425-6.336 1.068z" transform="translate(-551.557 -129.224)" style="fill:#ffb264"/>
            </g>
            <g data-name="그룹 2392">
                <g data-name="그룹 2391">
                    <path data-name="패스 5341" d="m547.563 172.292-2.761-9.1a2.144 2.144 0 0 0-1.616-1.477l-11.18-1.606a.992.992 0 0 0-1.153 1.255l2.333 7.828a.993.993 0 0 0 .727.683z" transform="translate(-530.81 -136.428)" style="fill:#1b314f"/>
                    <path data-name="패스 5342" d="m564.981 174.642-.468 1.136 1.284 1.185z" transform="translate(-550.025 -144.727)" style="fill:#020f2b"/>
                </g>
                <path data-name="패스 5343" d="M562.709 181.366a69.125 69.125 0 0 1-7.976-6.29c-.293-.259-1.092-1.131-1.027-1.278.149-.337 1.777 1.384 1.735 1.27s-2.095-1.89-1.982-2.164c.17-.413 2.424 1.609 2.464 1.641.6.488-2.232-1.85-2.184-2.162s1.414.666 1.463.7c0 0 1.119.906 1.2.839s-1.833-2.646-1.5-2.7 1.909 1.668 2.3 2.035a2.568 2.568 0 0 0 1.287.687c.187-.029.342-.838.156-1.252a6.543 6.543 0 0 1 1.234 1.828 7.329 7.329 0 0 1 .244 1l4.023 2.659z" transform="translate(-543.72 -142.775)" style="fill:#d4603f"/>
                <path data-name="패스 5344" d="M577.3 156.645s1.041-4.279 2.964-3.1c3.254 1.988 4.551 11.667-1.329 21.593-1.91 3.223-14.421-5.852-14.421-5.852l2.961-4.649 6.756 4.2z" transform="translate(-550.028 -132.58)" style="fill:#fff"/>
            </g>
            <circle data-name="타원 239" cx="2.144" cy="2.144" r="2.144" transform="translate(24.49 12.434)" style="stroke-width:.46px;stroke:#fff;stroke-miterlimit:10;fill:none"/>
            <g data-name="그룹 2394">
                <g data-name="그룹 2393" style="clip-path:url(#w71brhsjia)" transform="translate(13.107 37.454)">
                    <path data-name="패스 5345" d="M554.975 200.355c2.541.224 5-.957 7.108-2.395a28.488 28.488 0 0 0 9.577-11.16" transform="translate(-557.694 -189.11)" style="stroke-width:.281px;stroke-linecap:round;stroke:#fff;stroke-miterlimit:10;fill:none"/>
                    <path data-name="패스 5346" d="M605.3 200.4a18.836 18.836 0 0 0-8.127 8.825 8.642 8.642 0 0 0 .122 8.256c2.836 5.944 8.563 9.91 14.194 13.325" transform="translate(-581.187 -196.868)" style="stroke-width:.281px;stroke-linecap:round;stroke:#fff;stroke-miterlimit:10;fill:none"/>
                    <path data-name="패스 5347" d="M557.2 225.767a10.073 10.073 0 0 1 4.821 5.043 19.651 19.651 0 0 1 1.572 6.911 23.837 23.837 0 0 1-1.4 10.7 13.761 13.761 0 0 1-7.3 7.685" transform="translate(-557.646 -211.327)" style="stroke-width:.281px;stroke-linecap:round;stroke:#fff;stroke-miterlimit:10;fill:none"/>
                    <path data-name="패스 5348" d="M597.459 298.256a29.215 29.215 0 0 1 15-13.991" transform="translate(-581.915 -244.678)" style="stroke-width:.281px;stroke-linecap:round;stroke:#fff;stroke-miterlimit:10;fill:none"/>
                    <path data-name="패스 5349" d="M605.267 309.093a69.654 69.654 0 0 1 12.5-11.936" transform="translate(-586.367 -252.028)" style="stroke-width:.281px;stroke-linecap:round;stroke:#fff;stroke-miterlimit:10;fill:none"/>
                    <path data-name="패스 5350" d="M555.732 320.2c3.868 4.106 9.385 6.146 14.693 8.054" transform="translate(-558.126 -265.167)" style="stroke-width:.281px;stroke-linecap:round;stroke:#fff;stroke-miterlimit:10;fill:none"/>
                    <path data-name="패스 5351" d="M630.778 334.272a14.435 14.435 0 0 0-11.33 9.751" transform="translate(-594.452 -273.188)" style="stroke-width:.281px;stroke-linecap:round;stroke:#fff;stroke-miterlimit:10;fill:none"/>
                    <path data-name="패스 5352" d="M552.993 200.554c3.8 3.061 9.169 3.7 13.889 2.469s8.856-4.126 12.381-7.5" transform="translate(-556.564 -194.085)" style="stroke-width:.281px;stroke-linecap:round;stroke:#fff;stroke-miterlimit:10;fill:none"/>
                </g>
            </g>
        </g>
        <g data-name="그룹 2417">
            <g data-name="그룹 2400">
                <g data-name="그룹 2397" transform="translate(61.867 10.597)">
                    <path data-name="패스 5354" d="M237.283 161.11v-58.976a7.06 7.06 0 0 1 7.06-7.06H265.8" transform="translate(-232.843 -84.526)" style="stroke-width:1.125px;stroke:#fff;stroke-miterlimit:10;fill:none"/>
                    <g data-name="그룹 2396" transform="translate(22.864)">
                        <circle data-name="타원 240" cx="7.718" cy="7.718" r="7.718" transform="rotate(-13.179 15.236 1.76)" style="fill:#1b314f"/>
                        <path data-name="패스 5355" d="m293.3 88.779 2.573 2.573 4.663-4.663" transform="translate(-287.642 -79.746)" style="stroke-width:2.25px;stroke:#fff;stroke-miterlimit:10;fill:none"/>
                    </g>
                    <circle data-name="타원 241" cx="2.573" cy="2.573" r="2.573" transform="translate(1.653 65.006)" style="fill:#fff"/>
                    <circle data-name="타원 242" cx="4.226" cy="4.226" r="4.226" transform="translate(0 63.353)" style="stroke-width:1.125px;stroke:#fff;stroke-miterlimit:10;fill:none"/>
                </g>
                <g data-name="그룹 2399">
                    <path data-name="패스 5356" d="M449.251 114.516v-62.14a5.182 5.182 0 0 1 5.182-5.182h34.446a5.182 5.182 0 0 1 5.182 5.182v44.988" transform="translate(-291.822 -46.632)" style="stroke-width:1.125px;stroke:#fff;stroke-miterlimit:10;fill:none"/>
                    <g data-name="그룹 2398" transform="translate(153.417 43.076)">
                        <path data-name="패스 5357" d="M448.911 152.509a2.573 2.573 0 1 0-2.573 2.573 2.573 2.573 0 0 0 2.573-2.573z" transform="translate(-442.112 -148.283)" style="fill:#fff"/>
                        <circle data-name="타원 243" cx="4.226" cy="4.226" r="4.226" style="stroke-width:1.125px;stroke:#fff;stroke-miterlimit:10;fill:none"/>
                    </g>
                </g>
            </g>
            <g data-name="그룹 2416">
                <g data-name="그룹 2403">
                    <g data-name="그룹 2401" transform="translate(3.195 55.95)">
                        <circle data-name="타원 244" cx="8.941" cy="8.941" r="8.941" transform="rotate(-36.58 16.117 5.327)" style="fill:#fff"/>
                    </g>
                    <g data-name="그룹 2402">
                        <path data-name="패스 5358" d="M115.111 193.627a5.332 5.332 0 1 0 1.315 7.425 5.332 5.332 0 0 0-1.315-7.425z" transform="translate(-95.83 -129.948)" style="fill:#ffb264"/>
                        <path data-name="패스 5359" d="m117.765 197.262 3.061-4.672a5.316 5.316 0 0 0-4.053-.929z" transform="translate(-101.56 -129.329)" style="fill:#d4603f"/>
                        <path data-name="패스 5360" d="M111.125 192.856a5.332 5.332 0 0 0-4.321 6.18l5.23-1.046z" transform="translate(-95.83 -130.057)" style="fill:#1d2b4a"/>
                    </g>
                    <path data-name="패스 5361" d="M135.428 218.261v3.217a.32.32 0 0 1-.579.189l-4.151-5.66a.321.321 0 0 1 .256-.51l7.081-.053a.32.32 0 0 1 .193.577L135.557 218a.32.32 0 0 0-.129.261z" transform="translate(-109.463 -142.935)" style="fill:#1b314f"/>
                </g>
                <g data-name="그룹 2404">
                    <path data-name="사각형 1132" transform="translate(36.144 32.615)" style="fill:#fff" d="M0 0h26.372v.965H0z"/>
                    <path data-name="사각형 1133" transform="translate(36.144 45.261)" style="fill:#fff" d="M0 0h26.372v.965H0z"/>
                    <path data-name="패스 5362" d="M151.263 120.267a2.251 2.251 0 1 0-2.251 2.251 2.251 2.251 0 0 0 2.251-2.251z" transform="translate(-118.657 -87.009)" style="fill:#1b314f"/>
                    <path data-name="패스 5363" d="M151.263 148.7a2.251 2.251 0 1 0-2.251 2.251 2.251 2.251 0 0 0 2.251-2.251z" transform="translate(-118.657 -103.217)" style="fill:#4475ab"/>
                </g>
                <g data-name="그룹 2406">
                    <path data-name="사각형 1134" transform="rotate(90 -48.545 76.877)" style="stroke-width:.585px;stroke:#fff;stroke-miterlimit:10;fill:none" d="M0 0h20.581v27.355H0z"/>
                    <path data-name="사각형 1135" transform="translate(2.236 126.68)" style="fill:#fff" d="M0 0h24.84v18.065H0z"/>
                    <g data-name="그룹 2405">
                        <path data-name="사각형 1136" style="fill:#ffb264" d="M0 0h12.545v1.255H0z" transform="translate(5.748 132.701)"/>
                        <path data-name="사각형 1137" transform="translate(5.748 136.214)" style="fill:#ffb264" d="M0 0h18.818v1.255H0z"/>
                    </g>
                </g>
                <g data-name="그룹 2408">
                    <path data-name="사각형 1138" transform="rotate(90 122.608 134.493)" style="stroke-width:.585px;stroke:#fff;stroke-miterlimit:10;fill:none" d="M0 0h20.581v27.355H0z"/>
                    <path data-name="사각형 1139" transform="translate(231.004 13.143)" style="fill:#fff" d="M0 0h24.84v18.065H0z"/>
                    <g data-name="그룹 2407">
                        <path data-name="사각형 1140" style="fill:#d4603f" d="M0 0h12.545v1.255H0z" transform="translate(234.516 19.164)"/>
                        <path data-name="사각형 1141" transform="translate(234.516 22.677)" style="fill:#d4603f" d="M0 0h18.818v1.255H0z"/>
                    </g>
                </g>
                <g data-name="그룹 2413">
                    <g data-name="그룹 2412">
                        <g data-name="그룹 2411">
                            <g data-name="그룹 2410">
                                <g data-name="그룹 2409">
                                    <path data-name="패스 5364" d="m631.234 179.169-.739.834a.251.251 0 0 0 0 .328 12.837 12.837 0 0 0 4.251 3.261.25.25 0 0 0 .315-.088l.656-.982a2.325 2.325 0 0 1 2.458-.95l.164.035a2.361 2.361 0 0 1 1.814 1.669l.39 1.392a.25.25 0 0 0 .248.183 13.021 13.021 0 0 0 5.23-1.3.25.25 0 0 0 .13-.291l-.335-1.214a2.366 2.366 0 0 1 .8-2.463l.068-.055.032-.027a2.381 2.381 0 0 1 2.514-.371l1.234.559a.251.251 0 0 0 .3-.078 13.026 13.026 0 0 0 2.239-4.9.25.25 0 0 0-.144-.282l-1.183-.524a2.333 2.333 0 0 1-1.408-2.095c0-.111 0-.221-.007-.332a2.334 2.334 0 0 1 1.458-2.245l1.01-.412a.25.25 0 0 0 .148-.295 12.854 12.854 0 0 0-2.437-4.793.251.251 0 0 0-.294-.072l-1.415.615a2.355 2.355 0 0 1-2.37-.3l-.164-.123a2.313 2.313 0 0 1-.829-2.485l.3-1.091a.25.25 0 0 0-.14-.3 13.1 13.1 0 0 0-5.261-1.082.252.252 0 0 0-.242.2l-.31 1.371a2.371 2.371 0 0 1-1.763 1.767l-.11.028a2.387 2.387 0 0 1-2.511-.826l-.742-.966a.251.251 0 0 0-.315-.07 13.074 13.074 0 0 0-4.122 3.429.251.251 0 0 0 .012.323l.808.886a2.319 2.319 0 0 1 .4 2.55c-.052.108-.1.218-.149.328a2.325 2.325 0 0 1-2.207 1.381l-1.183-.034a.251.251 0 0 0-.254.2 13.1 13.1 0 0 0 .112 5.361.25.25 0 0 0 .26.192l1.2-.076a2.32 2.32 0 0 1 2.241 1.278q.078.161.162.32a2.324 2.324 0 0 1-.32 2.632zm3.157-9.892a6.517 6.517 0 0 1 12.279 1.146 5.761 5.761 0 0 1-.38 4.065 6.517 6.517 0 0 1-12.277-1.146 5.762 5.762 0 0 1 .378-4.065z" transform="translate(-394.158 -110.669)" style="fill:#fff"/>
                                </g>
                            </g>
                        </g>
                    </g>
                    <path data-name="패스 5365" d="m670.99 219.221-.437.493a.148.148 0 0 0 0 .194 7.593 7.593 0 0 0 2.513 1.928.148.148 0 0 0 .186-.052l.387-.58a1.374 1.374 0 0 1 1.453-.561l.1.021a1.4 1.4 0 0 1 1.073.987l.23.823a.149.149 0 0 0 .147.108 7.7 7.7 0 0 0 3.091-.767.148.148 0 0 0 .077-.172l-.2-.718a1.4 1.4 0 0 1 .475-1.456l.04-.033.019-.016a1.407 1.407 0 0 1 1.486-.219l.73.33a.148.148 0 0 0 .18-.046 7.706 7.706 0 0 0 1.324-2.9.149.149 0 0 0-.085-.167l-.7-.31a1.378 1.378 0 0 1-.833-1.238v-.2a1.379 1.379 0 0 1 .862-1.327l.6-.244a.149.149 0 0 0 .087-.175 7.6 7.6 0 0 0-1.441-2.833.148.148 0 0 0-.173-.042l-.836.363a1.394 1.394 0 0 1-1.4-.177l-.1-.072a1.367 1.367 0 0 1-.49-1.469l.178-.645a.148.148 0 0 0-.083-.175 7.744 7.744 0 0 0-3.11-.639.148.148 0 0 0-.143.116l-.184.81a1.4 1.4 0 0 1-1.042 1.045l-.065.017a1.412 1.412 0 0 1-1.484-.488l-.439-.571a.148.148 0 0 0-.186-.041 7.723 7.723 0 0 0-2.437 2.027.148.148 0 0 0 .007.191l.478.524a1.371 1.371 0 0 1 .239 1.508c-.031.064-.06.129-.089.194a1.374 1.374 0 0 1-1.3.816l-.7-.02a.148.148 0 0 0-.15.12 7.741 7.741 0 0 0 .066 3.169.148.148 0 0 0 .153.113l.712-.045a1.372 1.372 0 0 1 1.324.756c.031.064.063.126.1.189a1.373 1.373 0 0 1-.21 1.556zm1.866-5.848a3.852 3.852 0 0 1 7.258.677 3.406 3.406 0 0 1-.224 2.4 3.852 3.852 0 0 1-7.257-.677 3.407 3.407 0 0 1 .223-2.4z" transform="translate(-417.725 -138.227)" style="fill:#4475ab"/>
                    <path data-name="패스 5366" d="m688.754 185.245-.319.36a.108.108 0 0 0 0 .142 5.552 5.552 0 0 0 1.836 1.408.108.108 0 0 0 .136-.038l.283-.424a1 1 0 0 1 1.062-.411l.071.015a1.021 1.021 0 0 1 .784.721l.168.6a.108.108 0 0 0 .107.079 5.624 5.624 0 0 0 2.259-.56.108.108 0 0 0 .056-.126l-.144-.524a1.022 1.022 0 0 1 .347-1.064l.029-.024.014-.012a1.029 1.029 0 0 1 1.085-.16l.533.241a.108.108 0 0 0 .131-.033 5.631 5.631 0 0 0 .967-2.116.109.109 0 0 0-.062-.122l-.511-.226a1.006 1.006 0 0 1-.608-.9v-.143a1.009 1.009 0 0 1 .63-.97l.436-.178a.108.108 0 0 0 .064-.127 5.55 5.55 0 0 0-1.052-2.07.108.108 0 0 0-.127-.031l-.611.265a1.016 1.016 0 0 1-1.023-.129l-.071-.053a1 1 0 0 1-.358-1.073l.13-.471a.108.108 0 0 0-.06-.128 5.661 5.661 0 0 0-2.272-.467.108.108 0 0 0-.1.085l-.134.592a1.025 1.025 0 0 1-.761.763l-.048.012a1.03 1.03 0 0 1-1.084-.357l-.321-.417a.108.108 0 0 0-.136-.03 5.647 5.647 0 0 0-1.78 1.481.108.108 0 0 0 .006.14l.349.383a1 1 0 0 1 .174 1.1 2.957 2.957 0 0 0-.064.142 1 1 0 0 1-.953.6l-.511-.015a.108.108 0 0 0-.109.088 5.652 5.652 0 0 0 .048 2.315.109.109 0 0 0 .112.083l.52-.033a1 1 0 0 1 .968.552l.07.138a1 1 0 0 1-.156 1.127zm1.364-4.273a2.815 2.815 0 0 1 5.3.495 2.489 2.489 0 0 1-.164 1.756 2.815 2.815 0 0 1-5.3-.495 2.49 2.49 0 0 1 .164-1.755z" transform="translate(-428.205 -120.697)" style="fill:#d4603f"/>
                </g>
                <g data-name="그룹 2415">
                    <path data-name="패스 5367" d="M275.761 370.6h-9.449a2 2 0 0 1-2-2 2 2 0 0 1 2-2h9.449a2 2 0 0 1 2 2 2 2 0 0 1-2 2z" transform="translate(-186.129 -229.687)" style="fill:#fff"/>
                    <g data-name="그룹 2414">
                        <path data-name="사각형 1142" transform="rotate(180 42.115 72.441)" style="fill:#e37059" d="M0 0h1.762v1.762H0z"/>
                        <path data-name="사각형 1143" transform="rotate(180 40.713 72.441)" style="fill:#e37059" d="M0 0h1.762v1.762H0z"/>
                        <path data-name="사각형 1144" transform="rotate(180 40.713 73.748)" style="fill:#e37059" d="M0 0h1.762v1.762H0z"/>
                    </g>
                </g>
            </g>
        </g>
    </g>
</svg>
