<svg xmlns="http://www.w3.org/2000/svg" width="110.727" height="21.004" viewBox="0 0 110.727 21.004">
    <g data-name="그룹 2">
        <path data-name="패스 9" d="M1242.1 117.834a8.2 8.2 0 1 1 8.2-8.2 8.211 8.211 0 0 1-8.2 8.2zm0-13.064a4.863 4.863 0 1 0 4.867 4.863 4.87 4.87 0 0 0-4.867-4.863z" transform="translate(-1215.859 -96.96)" style="fill:#fff"/>
    </g>
    <g data-name="그룹 3">
        <path data-name="패스 10" d="M1296.529 117.836a8.2 8.2 0 1 1 8.2-8.2 8.211 8.211 0 0 1-8.2 8.2zm0-13.063a4.863 4.863 0 1 0 4.865 4.863 4.87 4.87 0 0 0-4.865-4.863z" transform="translate(-1252.439 -96.962)" style="fill:#fff"/>
    </g>
    <g data-name="그룹 4">
        <path data-name="패스 11" d="M1444.579 117.841h-3.336v-8.2a8.208 8.208 0 0 1 8.2-8.2v3.336a4.868 4.868 0 0 0-4.864 4.863z" transform="translate(-1355.223 -96.966)" style="fill:#fff"/>
    </g>
    <path data-name="패스 12" d="M1486.283 111.937h-.005a4.82 4.82 0 0 0-4.9-5.007l-4.944-.093a1.633 1.633 0 0 1 0-3.264h5.53a1.6 1.6 0 0 1 1.306.716l2.731-1.783a4.814 4.814 0 0 0-4.037-2.07h-5.53c-2.641 0-4.794 2.091-4.893 5.228h-.009s0-.032.005 0-.005 0-.005 0h.009a5.182 5.182 0 0 0 4.9 4.568l4.945-.126a1.446 1.446 0 1 1 0 2.877h-5.53a1.52 1.52 0 0 1-1.307-.631l-2.729 2.263a5.315 5.315 0 0 0 4.036 2.55h5.53c2.64 0 4.795-2.091 4.893-5.228h.005z" transform="translate(-1375.561 -96.29)" style="fill:#fff"/>
    <path data-name="패스 13" d="M1187.219 94.142a7.067 7.067 0 0 0-4.77 1.653v-4.908h-3.549l-.013 12.518a8.081 8.081 0 0 0 8.18 7.441 8.413 8.413 0 0 0 8.276-8.352 8.283 8.283 0 0 0-8.124-8.352zm-.15 13.038a4.854 4.854 0 1 1 4.865-4.853 4.864 4.864 0 0 1-4.865 4.853z" transform="translate(-1178.889 -89.842)" style="fill:#fff"/>
    <path data-name="패스 14" d="M1402.059 109.631a8.2 8.2 0 1 0-1.863 5.207l-2.577-2.12a4.863 4.863 0 0 1-8.373-1.554l12.652-.006a9.688 9.688 0 0 0 .161-1.527zm-8.2-4.327a4.515 4.515 0 0 1 4.535 3.118h-9.072a4.516 4.516 0 0 1 4.539-3.122z" transform="translate(-1317.852 -96.958)" style="fill:#fff"/>
    <path data-name="패스 15" d="M1358.89 92.923h-3.97l-6.108 7.9V87.7h-3.137v20.875h3.137v-2.372l3.019-3.919 3.222 6.291h3.587l-4.821-8.859z" transform="translate(-1290.977 -87.705)" style="fill:#fff"/>
</svg>
