<svg xmlns="http://www.w3.org/2000/svg" width="239.569" height="31.174" viewBox="0 0 239.569 31.174">
    <g data-name="그룹 1745">
        <g data-name="그룹 1">
            <path data-name="패스 1" d="M81.088 461.037a8.507 8.507 0 1 1 8.512-8.507 8.518 8.518 0 0 1-8.512 8.507zm0-13.552a5.045 5.045 0 1 0 5.049 5.044 5.051 5.051 0 0 0-5.049-5.043z" transform="translate(-53.836 -435.959)" style="fill:#fff"/>
        </g>
        <g data-name="그룹 2">
            <path data-name="패스 2" d="M98.191 461.037a8.506 8.506 0 1 1 8.506-8.506 8.518 8.518 0 0 1-8.506 8.506zm0-13.551a5.044 5.044 0 1 0 5.047 5.044 5.052 5.052 0 0 0-5.047-5.043z" transform="translate(-52.39 -435.959)" style="fill:#fff"/>
        </g>
        <g data-name="그룹 3">
            <path data-name="패스 3" d="M141.19 461.037h-3.46v-8.505a8.514 8.514 0 0 1 8.506-8.505v3.461a5.05 5.05 0 0 0-5.047 5.044z" transform="translate(-48.327 -435.959)" style="fill:#fff"/>
        </g>
        <path data-name="패스 4" d="M162.549 455.641h-.005a5 5 0 0 0-5.084-5.194l-5.128-.1a1.694 1.694 0 0 1 0-3.386h5.736a1.658 1.658 0 0 1 1.355.743l2.833-1.85a4.994 4.994 0 0 0-4.188-2.146h-5.736c-2.74 0-4.974 2.169-5.076 5.423h-.009s0-.032 0 0h.009a5.376 5.376 0 0 0 5.083 4.738l5.129-.131a1.5 1.5 0 1 1 0 2.985h-5.736a1.578 1.578 0 0 1-1.356-.655l-2.831 2.348a5.512 5.512 0 0 0 4.186 2.645h5.736c2.74 0 4.974-2.169 5.076-5.423h.005z" transform="translate(-47.522 -435.986)" style="fill:#fff"/>
        <path data-name="패스 5" d="M63.939 444.093a7.322 7.322 0 0 0-4.948 1.718v-5.1h-3.68l-.011 13.008a8.389 8.389 0 0 0 8.486 7.733 8.735 8.735 0 0 0 8.584-8.68 8.6 8.6 0 0 0-8.431-8.679zm-.155 13.549a5.044 5.044 0 1 1 5.046-5.042 5.05 5.05 0 0 1-5.046 5.042z" transform="translate(-55.298 -436.239)" style="fill:#fff"/>
        <path data-name="패스 6" d="M137.279 452.53a8.5 8.5 0 1 0-1.934 5.4l-2.672-2.2a5.044 5.044 0 0 1-8.685-1.612l13.123-.007a10.07 10.07 0 0 0 .168-1.581zm-8.5-4.489a4.685 4.685 0 0 1 4.7 3.235h-9.411a4.685 4.685 0 0 1 4.706-3.235z" transform="translate(-49.804 -435.959)" style="fill:#fff"/>
        <path data-name="패스 7" d="M121.41 445.134h-4.118l-6.336 8.214v-13.637H107.7V461.4h3.254v-2.465l3.132-4.072 3.343 6.537h3.721l-5-9.206z" transform="translate(-50.866 -436.324)" style="fill:#fff"/>
        <g data-name="그룹 1711">
            <g data-name="그룹 1706">
                <path data-name="패스 4666" d="M296.764 528.9a.079.079 0 1 1 .018-.156l7.533.953a11.233 11.233 0 0 0-2.817-3.568 1.872 1.872 0 0 0-1.148-.281c-1.761.074-5.866.082-7.332.236-.426.053-.791.184-.887.508-.1.351.444 1 .517 1.086l.848.971c4.33 4.969 8.532 2.976 10.5 2.354a.58.58 0 0 0 .359-.248z" transform="translate(-155.92 -513.999)" style="fill:#fff"/>
                <path data-name="패스 4667" d="M362.3 526.59c-.1-.324-.461-.455-.885-.508-1.466-.155-5.572-.162-7.331-.236a1.879 1.879 0 0 0-1.149.281 11.222 11.222 0 0 0-2.818 3.568l7.533-.953a.079.079 0 0 1 .09.068.079.079 0 0 1-.068.089l-7.595 1.854a.573.573 0 0 0 .356.248c1.977.622 6.177 2.615 10.506-2.354l.856-.979c.088-.116.605-.737.505-1.078z" transform="translate(-190.288 -513.999)" style="fill:#fff"/>
                <g data-name="그룹 1705">
                    <g data-name="그룹 1703">
                        <path data-name="패스 4668" d="M315.8 509.292a34.8 34.8 0 0 0-5.43-3.453c-.813-.411-1.583-.531-1.883-.289s-.415.51-.038 1.777c1.764 5.93 2.333 6.09 2.662 6.372.559.479 3.593 2.754 5.045 2.508l-3.214-4.861a.078.078 0 0 1 .014-.111.079.079 0 0 1 .111.013l3.852 4.294c.654-1.622-.319-5.654-1.119-6.25z" transform="translate(-165.462 -501.89)" style="fill:#fff"/>
                        <path data-name="패스 4669" d="M334.7 503.839a34.931 34.931 0 0 0-1.967-5.808 2.806 2.806 0 0 0-.893-1.233.4.4 0 0 0-.379-.025 2.587 2.587 0 0 0-.942 1.258 34.431 34.431 0 0 0-1.966 5.808c-.223.857 1.272 4.716 2.6 5.514l.395-7.131a.083.083 0 0 1 .083-.082.082.082 0 0 1 .081.082l.4 7.131c1.312-.798 2.809-4.653 2.588-5.514z" transform="translate(-177.514 -496.737)" style="fill:#fff"/>
                        <path data-name="패스 4670" d="M350.777 505.55c-.3-.242-1.07-.122-1.882.289a34.625 34.625 0 0 0-5.43 3.453c-.809.6-1.783 4.628-1.12 6.249l3.851-4.294a.081.081 0 0 1 .113-.013.079.079 0 0 1 .013.111l-3.217 4.861c1.454.246 4.488-2.029 5.05-2.508.328-.282.9-.442 2.661-6.372.376-1.266.258-1.534-.039-1.776z" transform="translate(-185.578 -501.89)" style="fill:#fff"/>
                    </g>
                    <g data-name="그룹 1704">
                        <path data-name="패스 4671" d="M349.369 548.411c-1.035-1.242-3.279-4.443-6.366-6.058a5.7 5.7 0 0 0-3.393-.321c-.234.031-.708.122-.716.124-7.791 1.759-15.486 8.512-17.613 11.832 0 0-.333.52-.166.7.131.143.849-.341.849-.341a38.18 38.18 0 0 1 27.109-5.6s.3.054.371-.042-.027-.239-.075-.294z" transform="translate(-173.089 -523.538)" style="fill:#fff"/>
                        <path data-name="패스 4672" d="M303.1 546.883c-1.021-1-5.341-3.776-11.894-4.788a5.97 5.97 0 0 0-4.4.724 23.046 23.046 0 0 0-5.344 5.508s-.093.168-.012.267c.1.118.3.075.3.075 8.277-2.61 16.879.254 18.394 1.21a.315.315 0 0 0 .437-.085c.489-.508 2.013-1.919 2.555-2.4.239-.209-.019-.494-.036-.511z" transform="translate(-149.571 -523.571)" style="fill:#fff"/>
                    </g>
                </g>
            </g>
            <g data-name="그룹 1710">
                <g data-name="그룹 1708">
                    <g data-name="그룹 1707">
                        <path data-name="패스 4673" d="M407.69 554.653h1.117v1.789a2.1 2.1 0 0 1-.931.176 1.759 1.759 0 0 1 0-3.516 2.286 2.286 0 0 1 .837.146l-.036.567a1.522 1.522 0 0 0-.791-.212c-.673 0-1.027.544-1.027 1.257 0 .772.344 1.263.992 1.263a.993.993 0 0 0 .367-.066v-.923h-.528z" transform="translate(-223.571 -530.166)" style="fill:#fff"/>
                        <path data-name="패스 4674" d="M415.245 553.219h1.845v.5h-1.218v.908h1.154v.5h-1.154v1.012h1.266v.5h-1.893z" transform="translate(-228.942 -530.235)" style="fill:#fff"/>
                        <path data-name="패스 4675" d="M422.859 553.219v2.217c0 .57.175.756.525.756s.539-.186.539-.756v-2.217h.631v2.217a1.164 1.164 0 1 1-2.322 0v-2.217z" transform="translate(-233.086 -530.235)" style="fill:#fff"/>
                        <path data-name="패스 4676" d="M433.3 553.79h-.011l-.847 2.849H432l-.823-2.849h-.009v2.849h-.6v-3.419h.976l.708 2.555h.011l.706-2.555h.91v3.419h-.579z" transform="translate(-238.026 -530.235)" style="fill:#fff"/>
                        <path data-name="패스 4677" d="M443.42 556.492a1.936 1.936 0 0 1-.78.125 1.769 1.769 0 0 1-.02-3.516 2.244 2.244 0 0 1 .8.142l-.036.566a1.329 1.329 0 0 0-.669-.188c-.538 0-.986.356-.986 1.239s.448 1.243.986 1.243a1.109 1.109 0 0 0 .669-.175z" transform="translate(-244.253 -530.166)" style="fill:#fff"/>
                        <path data-name="패스 4678" d="M449.1 553.219h.627v1.39h1.017v-1.39h.631v3.419h-.631v-1.507h-1.017v1.507h-.627z" transform="translate(-249.02 -530.235)" style="fill:#fff"/>
                        <path data-name="패스 4679" d="M457.4 553.219h1.828v.5h-1.162v.908h1.1v.5h-1.1v1.012h1.211v.5H457.4z" transform="translate(-253.945 -530.235)" style="fill:#fff"/>
                        <path data-name="패스 4680" d="M465.45 553.1c.715 0 1.369.529 1.369 1.758s-.654 1.757-1.369 1.757-1.365-.524-1.365-1.757.652-1.758 1.365-1.758zm0 3.04c.4 0 .719-.339.719-1.281s-.319-1.277-.719-1.277-.715.339-.715 1.277.318 1.283.715 1.283z" transform="translate(-257.908 -530.166)" style="fill:#fff"/>
                        <path data-name="패스 4681" d="M473.223 553.219h.747l1.139 2.689h.012v-2.689h.567v3.419h-.75l-1.137-2.661h-.011v2.661h-.567z" transform="translate(-263.328 -530.235)" style="fill:#fff"/>
                        <path data-name="패스 4682" d="M481.6 557.591h1.123v.5H481.6z" transform="translate(-268.293 -532.828)" style="fill:#fff"/>
                        <path data-name="패스 4683" d="M487.932 554.653h1.113v1.789a2.071 2.071 0 0 1-.928.176 1.759 1.759 0 0 1 0-3.516 2.264 2.264 0 0 1 .835.146l-.036.567a1.516 1.516 0 0 0-.789-.212c-.669 0-1.028.544-1.028 1.257 0 .772.35 1.263.994 1.263a.967.967 0 0 0 .364-.066v-.923h-.525z" transform="translate(-271.16 -530.166)" style="fill:#fff"/>
                        <path data-name="패스 4684" d="M496.041 553.219v2.217c0 .57.173.756.544.756s.551-.186.551-.756v-2.217h.651v2.217a1.189 1.189 0 1 1-2.374 0v-2.217z" transform="translate(-276.488 -530.235)" style="fill:#fff"/>
                        <path data-name="패스 4685" d="M508.742 553.1c.713 0 1.4.529 1.4 1.758s-.692 1.757-1.4 1.757-1.366-.524-1.366-1.757.653-1.758 1.366-1.758zm0 3.04c.4 0 .717-.339.717-1.281s-.318-1.277-.717-1.277-.719.339-.719 1.277.322 1.283.719 1.283z" transform="translate(-283.583 -530.166)" style="fill:#fff"/>
                        <path data-name="패스 4686" d="M516.557 553.219h1.72v.5h-1.106v.927h1.058v.5h-1.058v1.489h-.614z" transform="translate(-289.028 -530.235)" style="fill:#fff"/>
                        <path data-name="패스 4687" d="M523.039 553.219h1.772v.5h-1.141v.927h1.089v.5h-1.089v1.489h-.632z" transform="translate(-292.872 -530.235)" style="fill:#fff"/>
                        <path data-name="패스 4688" d="M529.719 553.219h.631v3.419h-.631z" transform="translate(-296.834 -530.235)" style="fill:#fff"/>
                        <path data-name="패스 4689" d="M535.878 556.492a1.841 1.841 0 0 1-.742.125 1.77 1.77 0 0 1-.022-3.516 2.155 2.155 0 0 1 .763.142l-.035.566a1.292 1.292 0 0 0-.647-.188c-.52 0-.968.356-.968 1.239s.448 1.243.968 1.243a1.065 1.065 0 0 0 .647-.175z" transform="translate(-299.111 -530.166)" style="fill:#fff"/>
                        <path data-name="패스 4690" d="M541.59 553.219h1.81v.5h-1.175v.908h1.111v.5h-1.111v1.012h1.222v.5h-1.857z" transform="translate(-303.875 -530.235)" style="fill:#fff"/>
                    </g>
                </g>
                <g data-name="그룹 1709">
                    <path data-name="패스 4691" d="M415.914 531.9a1.151 1.151 0 0 0-.772-.227h-8.637l-.4-.015a.338.338 0 0 0-.227.064.239.239 0 0 0-.074.191c0 .127.081.219.225.295a.674.674 0 0 1 .44.619v3.587a1.116 1.116 0 0 0 .283.824 1.132 1.132 0 0 0 .835.279h8.591v-4.939a.841.841 0 0 0-.264-.678zm-1.87 4.263h-5.124c-.228 0-.318-.091-.318-.308v-2.839h5.188c.177 0 .254.083.254.263z" transform="translate(-223.342 -517.449)" style="fill:#fff"/>
                    <path data-name="패스 4692" d="M449.2 510.5h-3.959v1.438h3.959z" transform="translate(-246.73 -504.9)" style="fill:#fff"/>
                    <path data-name="패스 4693" d="M462.451 521.39a.5.5 0 0 0 .158.391.68.68 0 0 0 .44.132 1.838 1.838 0 0 0 1.078-.387 1.181 1.181 0 0 0 .549-.95v-8.8c0-.453-.234-.729-.645-.731l-2.007-.077h-.039a.306.306 0 0 0-.346.3.385.385 0 0 0 .241.33 3.6 3.6 0 0 1 .425.242.507.507 0 0 1 .145.378v3h-2.17v1.408h2.171z" transform="translate(-255.652 -505.176)" style="fill:#fff"/>
                    <path data-name="패스 4694" d="M488 518.971a1.8 1.8 0 0 0 .509-1.119v-4.68a.914.914 0 0 0-.28-.716 1.168 1.168 0 0 0-.8-.245h-8.679v1.367h7.1a.505.505 0 0 1 .326.1.453.453 0 0 1 .1.327v4.016a3.2 3.2 0 0 1-.047.518 1.012 1.012 0 0 1-.111.308.237.237 0 0 1-.2.125H476.8v1.357h5.72v5.526a.5.5 0 0 0 .161.387.659.659 0 0 0 .439.134 1.905 1.905 0 0 0 1.1-.392 1.128 1.128 0 0 0 .582-.9v-4.753h5.915v-1.357z" transform="translate(-265.447 -505.915)" style="fill:#fff"/>
                    <path data-name="패스 4695" d="M448.926 536.62v-2.871a.629.629 0 0 0-.643-.719l-1.911-.065a.376.376 0 0 0-.25.083.272.272 0 0 0-.1.223.386.386 0 0 0 .247.339.686.686 0 0 1 .456.628v2.882a1.031 1.031 0 0 0 1.148 1.169h8.446v-1.353h-7.089a.306.306 0 0 1-.304-.316z" transform="translate(-247.198 -518.222)" style="fill:#fff"/>
                    <path data-name="패스 4696" d="m448.072 522.39.707-1.227a9.866 9.866 0 0 1-2.53-1.784 5.7 5.7 0 0 0 .549-.555 3.891 3.891 0 0 0 .972-2.272.747.747 0 0 0-.308-.623 1.307 1.307 0 0 0-.8-.212h-5.98v1.376h4.285a.178.178 0 0 1 .193.222c-.138 1.193-2.966 3-5.021 3.888l.607 1.287a20.351 20.351 0 0 0 3.907-1.9 11.909 11.909 0 0 0 3.419 1.8z" transform="translate(-243.708 -507.994)" style="fill:#fff"/>
                    <path data-name="패스 4697" d="M413.561 516.243v-3.069a.921.921 0 0 0-.275-.716 1.186 1.186 0 0 0-.8-.245h-8.641v1.367h7.116a.4.4 0 0 1 .283.1.455.455 0 0 1 .1.327v2.443a3.214 3.214 0 0 1-.044.521 1.038 1.038 0 0 1-.1.307c-.046.084-.1.132-.17.132h-9.344v1.347h13.969v-1.347h-2.594a1.788 1.788 0 0 0 .5-1.167z" transform="translate(-220.896 -505.915)" style="fill:#fff"/>
                </g>
                <path data-name="패스 4698" d="M524.257 510.5h-3.967v1.444h3.967z" transform="translate(-291.242 -504.9)" style="fill:#fff"/>
                <path data-name="패스 4699" d="M537.5 519.275a.506.506 0 0 0 .156.392.611.611 0 0 0 .434.129 1.853 1.853 0 0 0 1.08-.383 1.124 1.124 0 0 0 .552-.917v-6.713c0-.455-.235-.731-.649-.734l-2-.078h-.037a.308.308 0 0 0-.349.3.392.392 0 0 0 .242.333 3.19 3.19 0 0 1 .426.242.507.507 0 0 1 .145.38v2.7h-2.177v1.37h2.177z" transform="translate(-300.159 -505.178)" style="fill:#fff"/>
                <path data-name="패스 4700" d="m523.163 522.132.715-1.233a9.529 9.529 0 0 1-2.519-1.795 5.651 5.651 0 0 0 .551-.555 3.019 3.019 0 0 0 .952-1.964.748.748 0 0 0-.286-.632 1.307 1.307 0 0 0-.8-.213h-5.953v1.383h4.267a.178.178 0 0 1 .19.224c-.249 1.14-2.976 2.7-5 3.591l.607 1.295a20.944 20.944 0 0 0 3.888-1.914 12.179 12.179 0 0 0 3.388 1.813z" transform="translate(-288.269 -508.008)" style="fill:#fff"/>
                <path data-name="패스 4701" d="M528.061 530.979c-2.639 0-4.478 1.541-4.478 3.441s1.839 3.438 4.478 3.438 4.479-1.536 4.479-3.438-1.831-3.441-4.479-3.441zm0 5.569a2.138 2.138 0 1 1 2.326-2.128 2.219 2.219 0 0 1-2.326 2.128z" transform="translate(-293.195 -517.045)" style="fill:#fff"/>
            </g>
        </g>
    </g>
</svg>
