<svg xmlns="http://www.w3.org/2000/svg" width="183" height="89" viewBox="0 0 183 89">
    <g data-name="그룹 1665">
        <g data-name="그룹 1664">
            <path data-name="패스 4442" d="M205.935 242.134h137.21c-11.147-6.222-2.86-20.245.652-23.75 11.7-11.673 16.449-36.376-4.986-49.708-17.9-11.134-32.218 1.207-52.248-.99-14-1.536-33.994-14.947-47.455-7.1-13.864 8.084-9.622 30.59-20.894 41.6-11.483 11.217-27.715 12.557-19.738 29.557a41.3 41.3 0 0 0 7.459 10.391z" transform="translate(-185.592 -155.621)" style="fill:#eff6f8"/>
            <g data-name="그룹 1663">
                <g data-name="그룹 1595">
                    <g data-name="그룹 1587">
                        <path data-name="패스 4443" d="M793.582 150.923c-.014.509-.711.975-.763 1.471-.055.529.53 1.115.437 1.59-.1.519-.874.878-1.026 1.353-.171.535.252 1.248.026 1.68-.266.512-1.122.592-1.487.934-.428.4-.6 1.217-1.146 1.311s-1.062-.637-1.615-.926c-.476-.248-1.322-.094-1.762-.589-.376-.425-.187-1.317-.481-1.889-.262-.509-1.1-.823-1.289-1.446-.171-.574.348-1.321.271-1.945-.073-.587-.769-1.171-.751-1.811s.745-1.185.851-1.766c.113-.619-.364-1.394-.162-1.958.221-.611 1.078-.878 1.368-1.371.326-.555.188-1.456.586-1.859.467-.47 1.3-.269 1.792-.49.569-.258 1.118-.959 1.665-.834s.666.95 1.071 1.373c.346.363 1.2.49 1.432 1.016.2.444-.261 1.132-.12 1.675.125.482.877.885.949 1.408.065.479-.552 1.031-.525 1.563.023.497.697 1.001.679 1.51z" transform="translate(-666.612 -142.182)" style="fill:#0b0a46"/>
                    </g>
                    <g data-name="그룹 1593">
                        <path data-name="패스 4444" d="M827.228 165.156c1.524 1.981.48 2.353.48 2.353 2.908 1.422 3.882-1.987 3.438-2.136a3.566 3.566 0 0 1-1.442-1.227c-.837-2.001-2.476 1.01-2.476 1.01z" transform="translate(-703.433 -160.151)" style="fill:#ff9a83"/>
                        <g data-name="그룹 1592">
                            <g data-name="그룹 1591">
                                <g data-name="그룹 1590">
                                    <g data-name="그룹 1588">
                                        <path data-name="패스 4445" d="M817.811 150.516a5.73 5.73 0 0 0-1.036-2 1.528 1.528 0 0 0-1.556-.015c-.485.189-1.032.454-1.136 1.064a4.488 4.488 0 0 0 .605 2.024 2.6 2.6 0 0 0 1.6 1.7c.227.087.6.42 1.244-.656a2.156 2.156 0 0 0 .279-2.117z" transform="translate(-692.227 -147.23)" style="fill:#ffaa90"/>
                                        <path data-name="패스 4446" d="M837.975 160.444c.369-.7.572.35.54.657a.691.691 0 0 1-.2.426z" transform="translate(-712.586 -157.38)" style="fill:#fc8b59"/>
                                    </g>
                                    <g data-name="그룹 1589">
                                        <path data-name="패스 4447" d="M816.5 144.193c.1-.11.014 1.242 1.063 1.2a2.75 2.75 0 0 0 .305-1.765 4.27 4.27 0 0 0-1.465-2.269 2.053 2.053 0 0 0-1.85-.021 3.7 3.7 0 0 0-1.7 1.454c-.214.487-.191 1.206.125 1.3.036-.217.49-.87.77-.747 1.152-1.045 1.461 1.044 2.752.848z" transform="translate(-691.073 -141.145)" style="fill:#0b0a46"/>
                                    </g>
                                </g>
                            </g>
                        </g>
                    </g>
                    <g data-name="그룹 1594">
                        <path data-name="패스 4448" d="m821.675 172.075-.627.426c.013.011-.691 1.652-1.16 1.905a8.558 8.558 0 0 1-2.187.227c-.216.131-1.539.536-1.755.667-1.022.993.184 3.5.117 6.011.032 2.546 3.934 3.716 1.772 5.642-.364.324 1 .659 2.632 1.128 1.635.45 3.167.936 3.167.928a30.486 30.486 0 0 0 3.327-.915c1.7-.571 3.462-1.414 3.764-2.051.724-1.226.245-6.157-1.944-9.439-2.073-3.393-5.855-5.136-7.106-4.529z" transform="translate(-693.473 -167.386)" style="fill:#7eb3c3"/>
                    </g>
                </g>
                <g data-name="그룹 1600">
                    <g data-name="그룹 1597">
                        <g data-name="그룹 1596">
                            <path data-name="패스 4449" d="M495.939 294.055a4.406 4.406 0 0 1-4.394 4.416H399.2a4.4 4.4 0 0 1-4.392-4.416v-57.346a4.4 4.4 0 0 1 4.392-4.414h92.344a4.4 4.4 0 0 1 4.394 4.414z" transform="translate(-354.687 -219.068)" style="fill:#eff6f8"/>
                            <path data-name="패스 4450" d="M491.545 232.295H399.2a4.4 4.4 0 0 0-4.392 4.414v57.346a4.4 4.4 0 0 0 4.392 4.416h92.344a4.406 4.406 0 0 0 4.394-4.416v-57.346a4.4 4.4 0 0 0-4.393-4.414zm3.2 58.487H396v-52.565h98.75z" transform="translate(-354.687 -219.068)" style="fill:#8dc8c1"/>
                        </g>
                    </g>
                    <g data-name="그룹 1599">
                        <path data-name="사각형 876" transform="translate(75.317 19.119)" style="fill:#dfecf0" d="M0 0h33.342v52.634H0z"/>
                        <path data-name="패스 4451" d="m458.594 309.775 22.866-3.875v-52.6l-22.866-3.281z" transform="translate(-409.011 -234.166)" style="fill:#dfecf0"/>
                        <path data-name="패스 4452" d="m589.832 309.775 6.27-3.878V253.3l-6.27-3.281z" transform="translate(-520.785 -234.166)" style="fill:#eff6f8"/>
                        <g data-name="그룹 1598">
                            <path data-name="사각형 877" transform="translate(75.317 26.266)" style="fill:#eff6f8" d="M0 0h27.912v1.505H0z"/>
                            <path data-name="패스 4453" d="m602.064 309.982-5.232-1.735v-1.814l5.232 2.043z" transform="translate(-526.747 -282.211)" style="fill:#dfecf0"/>
                            <path data-name="사각형 878" transform="translate(75.317 32.57)" style="fill:#eff6f8" d="M0 0h27.912v1.505H0z"/>
                            <path data-name="패스 4454" d="m602.064 353.736-5.232-1.438v-1.814l5.232 1.746z" transform="translate(-526.747 -319.673)" style="fill:#dfecf0"/>
                            <path data-name="사각형 879" transform="translate(75.317 38.858)" style="fill:#eff6f8" d="M0 0h27.912v1.505H0z"/>
                            <path data-name="패스 4455" d="m602.064 396.638-5.232-1.29v-1.814l5.232 1.6z" transform="translate(-526.747 -356.284)" style="fill:#dfecf0"/>
                            <path data-name="사각형 880" transform="translate(75.317 45.145)" style="fill:#eff6f8" d="M0 0h27.912v1.505H0z"/>
                            <path data-name="패스 4456" d="m602.064 441.243-5.232-.845v-1.814l5.232 1.153z" transform="translate(-526.747 -394.598)" style="fill:#dfecf0"/>
                            <path data-name="사각형 881" transform="translate(75.317 51.433)" style="fill:#eff6f8" d="M0 0h27.912v1.506H0z"/>
                            <path data-name="패스 4457" d="m602.064 485.848-5.232-.4v-1.814l5.232.708z" transform="translate(-526.747 -432.912)" style="fill:#dfecf0"/>
                            <path data-name="사각형 882" transform="translate(75.317 57.72)" style="fill:#eff6f8" d="M0 0h27.912v1.506H0z"/>
                            <path data-name="패스 4458" d="m602.064 531.965-5.232.49v-1.814l5.232-.182z" transform="translate(-526.747 -472.736)" style="fill:#dfecf0"/>
                            <path data-name="사각형 883" transform="translate(75.317 64.023)" style="fill:#eff6f8" d="M0 0h27.912v1.506H0z"/>
                            <path data-name="패스 4459" d="m602.064 574.016-5.232 1.825v-1.814l5.232-1.517z" transform="translate(-526.747 -508.487)" style="fill:#dfecf0"/>
                        </g>
                    </g>
                </g>
                <g data-name="그룹 1615">
                    <g data-name="그룹 1609">
                        <g data-name="그룹 1601">
                            <path data-name="사각형 884" style="fill:#dfecf0" d="M0 0h36.851v5.174H0z" transform="translate(137.123 66.399)"/>
                        </g>
                        <g data-name="그룹 1602">
                            <path data-name="사각형 885" style="fill:#7eb3c3" d="M0 0h41.051v5.671H0z" transform="translate(129.94 60.728)"/>
                        </g>
                        <g data-name="그룹 1605">
                            <g data-name="그룹 1604">
                                <path data-name="사각형 886" transform="translate(135.335 81.774)" style="fill:#fff" d="M0 0h42.642v4.74H0z"/>
                                <g data-name="그룹 1603">
                                    <path data-name="사각형 887" style="fill:#ef5835" d="M0 0h43.768v.575H0z" transform="translate(134.772 81.792)"/>
                                    <path data-name="사각형 888" transform="translate(134.772 85.94)" style="fill:#ef5835" d="M0 0h43.768v.574H0z"/>
                                </g>
                            </g>
                            <path data-name="사각형 889" transform="translate(135.335 82.367)" style="fill:#dfecf0" d="M0 0h42.642v.444H0z"/>
                            <path data-name="사각형 890" transform="translate(135.335 85.496)" style="fill:#dfecf0" d="M0 0h42.642v.444H0z"/>
                            <path data-name="패스 4460" d="M879.391 701.878h14.422l-3.008-2.685h-11.414z" transform="translate(-744.056 -616.383)" style="fill:#dfecf0"/>
                        </g>
                        <g data-name="그룹 1606">
                            <path data-name="사각형 891" style="fill:#f8ce77" d="M0 0h37.494v4.019H0z" transform="translate(133.776 71.555)"/>
                            <path data-name="사각형 892" transform="translate(133.776 71.65)" style="fill:#fed57c" d="M0 0h37.494v.175H0z"/>
                        </g>
                        <g data-name="그룹 1608">
                            <path data-name="사각형 893" transform="translate(137.992 75.574)" style="fill:#fff" d="M0 0h44.454v6.223H0z"/>
                            <g data-name="그룹 1607">
                                <path data-name="사각형 894" style="fill:#ffabb4" d="M0 0h45.564v.65H0z" transform="translate(137.437 75.574)"/>
                                <path data-name="사각형 895" transform="translate(137.437 81.147)" style="fill:#ffabb4" d="M0 0h45.564v.65H0z"/>
                            </g>
                            <path data-name="사각형 896" transform="translate(137.992 76.224)" style="fill:#dfecf0" d="M0 0h44.454v.589H0z"/>
                            <path data-name="사각형 897" transform="translate(137.992 80.769)" style="fill:#dfecf0" d="M0 0h44.454v.373H0z"/>
                            <path data-name="패스 4461" d="M897.31 662.709H913l-5.918-3.955h-9.772z" transform="translate(-759.317 -581.94)" style="fill:#dfecf0"/>
                            <path data-name="사각형 898" transform="translate(137.992 77.729)" style="fill:#dfecf0" d="M0 0h44.454v.099H0z"/>
                            <path data-name="사각형 899" transform="translate(137.992 79.009)" style="fill:#dfecf0" d="M0 0h44.454v.098H0z"/>
                            <path data-name="사각형 900" transform="translate(137.992 79.304)" style="fill:#dfecf0" d="M0 0h44.454v.098H0z"/>
                        </g>
                    </g>
                    <g data-name="그룹 1612">
                        <g data-name="그룹 1611">
                            <path data-name="사각형 901" transform="translate(131.617 55.915)" style="fill:#fff" d="M0 0h42.642v4.74H0z"/>
                            <g data-name="그룹 1610">
                                <path data-name="사각형 902" style="fill:#3f4662" d="M0 0h43.769v.574H0z" transform="translate(131.054 55.933)"/>
                                <path data-name="사각형 903" transform="translate(131.054 60.08)" style="fill:#3f4662" d="M0 0h43.769v.575H0z"/>
                            </g>
                        </g>
                        <path data-name="사각형 904" transform="translate(131.617 56.507)" style="fill:#dfecf0" d="M0 0h42.642v.445H0z"/>
                        <path data-name="사각형 905" transform="translate(131.617 59.636)" style="fill:#dfecf0" d="M0 0h42.642v.444H0z"/>
                        <path data-name="패스 4462" d="M854.331 527.521h14.423l-3.008-2.685h-11.415z" transform="translate(-722.714 -467.885)" style="fill:#dfecf0"/>
                    </g>
                    <g data-name="그룹 1614">
                        <path data-name="사각형 906" transform="translate(134.276 49.714)" style="fill:#fff" d="M0 0h44.452v6.224H0z"/>
                        <g data-name="그룹 1613">
                            <path data-name="사각형 907" style="fill:#dfecf0" d="M0 0h45.564v.65H0z" transform="translate(133.72 49.714)"/>
                            <path data-name="사각형 908" transform="translate(133.72 55.287)" style="fill:#dfecf0" d="M0 0h45.564v.651H0z"/>
                        </g>
                        <path data-name="사각형 909" transform="translate(134.276 50.364)" style="fill:#dfecf0" d="M0 0h44.452v.589H0z"/>
                        <path data-name="사각형 910" transform="translate(134.276 54.909)" style="fill:#dfecf0" d="M0 0h44.452v.373H0z"/>
                        <path data-name="패스 4463" d="M872.253 488.346h15.693l-5.918-3.955h-9.775z" transform="translate(-737.977 -433.437)" style="fill:#dfecf0"/>
                        <path data-name="사각형 911" transform="translate(134.276 51.868)" style="fill:#dfecf0" d="M0 0h44.452v.099H0z"/>
                        <path data-name="사각형 912" transform="translate(134.276 53.149)" style="fill:#dfecf0" d="M0 0h44.452v.098H0z"/>
                        <path data-name="사각형 913" transform="translate(134.276 53.445)" style="fill:#dfecf0" d="M0 0h44.452v.098H0z"/>
                    </g>
                </g>
                <g data-name="그룹 1636">
                    <g data-name="그룹 1623">
                        <path data-name="패스 4469" d="M973.658 415.788c-1.542-.444-4.417.382-6.867 1.3a7.914 7.914 0 0 0-4.368-1.088 7.8 7.8 0 0 0-4.423 1.124c-2.682-.976-5.782-1.873-6.89-1.3-.418.218 11.42 6.584 11.42 6.584s11.58-6.49 11.128-6.62z" transform="translate(-805.133 -374.917)" style="fill:#e84125"/>
                        <g data-name="그룹 1621">
                            <path data-name="패스 4470" d="m1051.565 463.683.452.239s3.242.106 2.684-1.583c-.122-.37-2.125-.164-2.252.038a3.245 3.245 0 0 0-.155 1.208z" transform="translate(-890.695 -414.511)" style="fill:#fff"/>
                            <path data-name="패스 4471" d="M949.172 421.273a42.3 42.3 0 0 0 9.225 4.014 27.426 27.426 0 0 0 1.321-3.093c-1.017-.5-10.257-6.224-12.029-5.6-.473.164-1.631 2.351 1.483 4.679z" transform="translate(-801.709 -375.684)" style="fill:#ef5835"/>
                            <path data-name="패스 4472" d="M1026.228 462.589a12.859 12.859 0 0 0 2.156-.339l-.153 1.218s-1.413 1.016-4.91.53c-.116.116.892-2 .892-2a12.379 12.379 0 0 0 2.015.591z" transform="translate(-866.633 -414.396)" style="fill:#f6693b"/>
                        </g>
                        <g data-name="그룹 1622">
                            <path data-name="패스 4473" d="m985.549 463.683-.452.239s-3.242.106-2.683-1.583c.122-.37 2.125-.164 2.252.038a3.25 3.25 0 0 1 .154 1.208z" transform="translate(-831.745 -414.511)" style="fill:#fff"/>
                            <path data-name="패스 4474" d="M1033.758 421.273a42.3 42.3 0 0 1-9.225 4.014 27.422 27.422 0 0 1-1.32-3.093c1.016-.5 10.257-6.224 12.028-5.6.473.164 1.631 2.351-1.483 4.679z" transform="translate(-866.548 -375.684)" style="fill:#ef5835"/>
                            <path data-name="패스 4475" d="M1000.138 462.589a12.863 12.863 0 0 1-2.156-.339l.153 1.218s1.413 1.016 4.91.53c.116.116-.892-2-.892-2a12.369 12.369 0 0 1-2.015.591z" transform="translate(-845.059 -414.396)" style="fill:#fc8b59"/>
                        </g>
                    </g>
                    <g data-name="그룹 1630">
                        <path data-name="패스 4476" d="M994.09 325.564c1.413 1.837.445 2.182.445 2.182 2.7 1.318 3.6-1.843 3.187-1.98a3.312 3.312 0 0 1-1.337-1.137c-.775-1.856-2.295.935-2.295.935z" transform="translate(-841.745 -296.857)" style="fill:#f6693b"/>
                        <g data-name="그룹 1629">
                            <path data-name="패스 4477" d="M1001.26 296.52a1.643 1.643 0 1 0 2.489-.45 1.8 1.8 0 0 0-2.489.45z" transform="translate(-847.404 -272.797)" style="fill:#0b0a46"/>
                            <g data-name="그룹 1624">
                                <path data-name="패스 4478" d="M1006.793 308.857a1.549 1.549 0 0 0 .342-.69 1.452 1.452 0 0 0-.127-.839.048.048 0 0 0-.062-.027.048.048 0 0 0-.027.062 1.363 1.363 0 0 1 .122.786 1.467 1.467 0 0 1-.321.648 1.9 1.9 0 0 1-1.062.624 1.314 1.314 0 0 1-1.124-.248 1.255 1.255 0 0 1-.25-.287.047.047 0 0 0-.066-.015.048.048 0 0 0-.015.066 1.331 1.331 0 0 0 .268.309 1.722 1.722 0 0 0 2.322-.388z" transform="translate(-850.351 -282.638)" style="fill:#0b0a46"/>
                            </g>
                            <g data-name="그룹 1628">
                                <g data-name="그룹 1627">
                                    <g data-name="그룹 1625">
                                        <path data-name="패스 4479" d="M985.358 311.989a5.3 5.3 0 0 0-.96-1.855 1.416 1.416 0 0 0-1.443-.014c-.45.175-.957.421-1.053.987a4.155 4.155 0 0 0 .561 1.876 2.4 2.4 0 0 0 1.485 1.572c.21.081.557.389 1.153-.608a2 2 0 0 0 .257-1.958z" transform="translate(-831.354 -284.877)" style="fill:#fc8b59"/>
                                        <path data-name="패스 4480" d="M1004.053 321.194c.342-.651.53.324.5.609a.644.644 0 0 1-.187.395z" transform="translate(-850.23 -294.287)" style="fill:#fc8b59"/>
                                    </g>
                                    <g data-name="그룹 1626">
                                        <path data-name="패스 4481" d="M984.146 306.126c.091-.1.014 1.152.985 1.115a2.545 2.545 0 0 0 .283-1.637 3.956 3.956 0 0 0-1.358-2.1 1.9 1.9 0 0 0-1.716-.02 3.431 3.431 0 0 0-1.577 1.349c-.2.452-.177 1.118.116 1.2.033-.2.454-.807.714-.692 1.066-.967 1.352.967 2.553.785z" transform="translate(-830.284 -279.234)" style="fill:#0b0a46"/>
                                    </g>
                                </g>
                            </g>
                        </g>
                    </g>
                    <g data-name="그룹 1632">
                        <path data-name="패스 4482" d="M952.3 362.1c1.055-.094 4.891 2.723 5.837-.3 1.651-1.344 2.245-9.726.16-10.745-4.381 2.954-3.109 8.157-5.997 11.045z" transform="translate(-806.151 -319.905)" style="fill:#fff"/>
                        <g data-name="그룹 1631">
                            <path data-name="패스 4483" d="m991.762 331.977-.581.395c.012.01-.641 1.532-1.075 1.767a7.928 7.928 0 0 1-2.028.21l-.6.364c-.947.92-.854 3.5-.917 5.828.029 2.36 3.647 3.446 1.643 5.231-.337.3.925.611 2.44 1.046 1.516.418 2.936.868 2.936.861a28.32 28.32 0 0 0 3.085-.849c1.575-.53 3.21-1.311 3.49-1.9.672-1.137.227-5.708-1.8-8.751-1.926-3.148-5.433-4.765-6.593-4.202z" transform="translate(-835.331 -303.564)" style="fill:#fff"/>
                        </g>
                    </g>
                    <g data-name="그룹 1633">
                        <path data-name="패스 4484" d="m913.511 349.171-4.8 6.573-12.556-11.926 5.111-5.381z" transform="translate(-758.335 -309.16)" style="fill:#fff"/>
                        <path data-name="패스 4485" d="m922.34 356.982-13.628 3.88-12.556-11.926 12.523-4.49z" transform="translate(-758.335 -314.278)" style="fill:#ffcaba"/>
                    </g>
                    <g data-name="그룹 1635">
                        <g data-name="그룹 1634">
                            <path data-name="패스 4486" d="M1000.113 368.559a6.04 6.04 0 0 0-1.651-.837c-.177.012-.589.394-.589.394l-1.5.656a.291.291 0 0 0-.036.4.3.3 0 0 0 .338.146.327.327 0 0 0 .022.406.386.386 0 0 1 .347.593.329.329 0 0 0 .439.127l.065-.051a.3.3 0 0 0 .061.261.287.287 0 0 0 .266.121l1.211.008.874-.37z" transform="translate(-843.604 -334.102)" style="fill:#fc8b59"/>
                            <path data-name="패스 4487" d="m1021.135 375.225.152-1.859a22.981 22.981 0 0 0 4.227 2.23c.992.3 4.021.582 1.778 3.742-.392.262-5.501-2.929-6.157-4.113z" transform="translate(-864.778 -338.909)" style="fill:#fc8b59"/>
                        </g>
                    </g>
                </g>
                <g data-name="그룹 1644">
                    <g data-name="그룹 1638">
                        <path data-name="패스 4488" d="M633.184 424.561c-1.547 1.927-3.524 4.328-3.524 4.328s1.407 2.577 2.191 2.429c.749-.142 3.059.425 4.9-1.632 2.189-2.437-2.987-5.848-3.567-5.125z" transform="translate(-554.46 -382.397)" style="fill:#fff"/>
                        <g data-name="그룹 1637">
                            <path data-name="패스 4489" d="M584.137 397.389a4.975 4.975 0 0 0 .229-1.853c-.087-.2-.708-.476-.708-.476l-1.394-1.386a.379.379 0 0 0-.488.161.388.388 0 0 0-.03.462.486.486 0 0 0-.5.671.457.457 0 0 0-.516.253c-.138.225-.123.478.036.568l.085.049a.41.41 0 0 0-.279.2.365.365 0 0 0-.032.366l.5 1.39.888.9.225.189c1.689 1.105 1.984-1.494 1.984-1.494z" transform="translate(-512.593 -356.14)" style="fill:#ffaa90"/>
                            <path data-name="패스 4490" d="M591.595 420.458c1.136 2.267 7.065 6.764 7.836 6.171 2.055-.777 2.194-2.446 1.121-3.488l-6.966-4.183z" transform="translate(-522.041 -377.708)" style="fill:#fff"/>
                        </g>
                    </g>
                    <g data-name="그룹 1639">
                        <path data-name="패스 4491" d="m794.068 691.821 1.061 3.5.294 1.189 1.211-.045a16.713 16.713 0 0 0-.509-4.609c-.579-2.363-2.057-.035-2.057-.035z" transform="translate(-694.485 -609.231)" style="fill:#ffaa90"/>
                        <path data-name="패스 4492" d="m727.765 697.886.419 4.6.471.3 1.25-.5.061-3.182z" transform="translate(-638.015 -615.269)" style="fill:#ffaa90"/>
                        <path data-name="패스 4493" d="M745.338 519.668c1.357 1.732 3.268 10.18 2.42 12.788-.485 1.488-2.521.709-2.669.1-.652-2.685-5.973-14.24-5.973-14.24l-2.489-9.686-.109-4.784 7.115-1.049s1.743 15.784 1.705 16.871z" transform="translate(-645.472 -449.112)" style="fill:#3f4662"/>
                        <path data-name="패스 4494" d="M710.129 513.17c1.358 1.732.805 9.268-.043 11.876-.485 1.488-2.52.709-2.668.1-.652-2.685-2.142-14.24-2.142-14.24s-1.822-9.915-1.351-13.193c.139-.961.873-3.618.873-3.618l6.285 3.848s-.916 14.139-.954 15.227z" transform="translate(-617.646 -441.701)" style="fill:#3f4662"/>
                    </g>
                    <g data-name="그룹 1640">
                        <path data-name="패스 4495" d="M720.082 729.389v-.064a1.594 1.594 0 0 0-3.127 0v.064z" transform="translate(-628.81 -640.951)" style="fill:#141c22"/>
                        <path data-name="패스 4496" d="m731.089 728.287-.289.713-2.155-.033.288-1.22 1.721-.2z" transform="translate(-638.766 -640.531)" style="fill:#2e424f"/>
                    </g>
                    <g data-name="그룹 1641">
                        <path data-name="패스 4497" d="M804.526 728.953v-.064a1.456 1.456 0 0 1 2.892 0v.064z" transform="translate(-703.391 -640.58)" style="fill:#141c22"/>
                        <path data-name="패스 4498" d="m803.123 729.247.209.681h1.968l-.326-1.179-1.839.082z" transform="translate(-702.197 -641.555)" style="fill:#2e424f"/>
                    </g>
                    <g data-name="그룹 1642">
                        <path data-name="패스 4499" d="M661.549 369.128c-.317-.7-.575-1.9-1.046-2.27a1.807 1.807 0 0 0-1.792-.031c-.566.207-1.207.5-1.351 1.179-.124.585.455 1.672.663 2.41a2.013 2.013 0 0 0 1.257 1.47 1.081 1.081 0 0 0 .762-.027 3.722 3.722 0 0 0 1.268-1.012c.463-.814.643-.827.239-1.719z" transform="translate(-578.037 -333.117)" style="fill:#ff9a83"/>
                        <path data-name="패스 4500" d="m676.068 386.981-3.078 1.54a5.167 5.167 0 0 0-.515-1.759c-.158-.162-.673-.181-.673-.181l-.049-1.581 2.975-.235z" transform="translate(-590.31 -348.585)" style="fill:#ffaa90"/>
                        <path data-name="패스 4501" d="M656.767 359.593c-.734-1.059-3.2-.538-4.174.692a.871.871 0 0 0-.367 1.188c.172.369.982-.028 1.01-.025h.011a2.018 2.018 0 0 0 .261.343 3.286 3.286 0 0 0 .868 1.913c.219-.843.447-.08.708-.17.68.748.878 1.1 1.287 1.283s1.993-.8 2-.8c.252-.229.1-1.321.085-1.919-.029-1.012-.444-.939-.436-1.848.002-.55-.91-.9-1.253-.657z" transform="translate(-573.573 -326.662)" style="fill:#232c4c"/>
                        <path data-name="패스 4502" d="M667.852 387.555c.455-.882.824.424.789.778a.863.863 0 0 1-.326.456z" transform="translate(-586.988 -350.707)" style="fill:#ff9a83"/>
                    </g>
                    <g data-name="그룹 1643">
                        <path data-name="패스 4503" d="m652.632 396.593 1.25-1.134 1.721-1.57 3.721-2.154 1.222.249 3.04-.36c7.622.863 8.313 9.629 6.569 9.89 2.036 3.069 1.916 3.637 1.916 6.2 0 1.384-10.023 3.121-12.3.84-1.379-1.379-.35-4.154-3.565-6.84-1.606.093-4.359-5.014-3.574-5.121z" transform="translate(-573.908 -354.429)" style="fill:#fff"/>
                    </g>
                </g>
                <g data-name="그룹 1657">
                    <g data-name="그룹 1646">
                        <path data-name="패스 4504" d="M393.19 589.04c-2.985-1.356-9.02-2.486-9.816-1.729-1.471 2.3-10.485 9.038 12.489 7.275q.178.071.367.136c4.819 1.14 8.159.844 11.944 1.037a25.637 25.637 0 0 0 .259-3.621c-1.417-.207-13.933-2.907-15.243-3.098z" transform="translate(-360.062 -520.887)" style="fill:#64a6b5"/>
                        <g data-name="그룹 1645">
                            <path data-name="패스 4505" d="M604.034 617.5c.566-.272.632-.721.981-.64.541.126.106 1.355-2.807 4.172-.354-.033-.844-1-.844-1l.956-.531-.333-.772s1.391-.916 2.047-1.229z" transform="translate(-548.251 -546.251)" style="fill:#232c4c"/>
                        </g>
                        <path data-name="패스 4506" d="m574.2 622.471.332.772-.955.531-4.839-.1.1-2.432z" transform="translate(-520.463 -549.997)" style="fill:#fc8b59"/>
                    </g>
                    <g data-name="그룹 1648">
                        <g data-name="그룹 1647">
                            <path data-name="패스 4507" d="M255.287 523.843a2.3 2.3 0 0 1-1.116-2 2.293 2.293 0 0 1-1.789-1.012c-1.141-1.7-2.511-4.057-3.87-6.5a2.293 2.293 0 0 1-.2-1.746 2.29 2.29 0 0 1-1.36-1.11 401.639 401.639 0 0 1-3.451-6.572 2.3 2.3 0 0 1 1-3.093 2.3 2.3 0 0 1 3.093 1c.625 1.22 1.925 3.737 3.407 6.488a2.29 2.29 0 0 1 .187 1.72 2.291 2.291 0 0 1 1.346 1.084c1.323 2.384 2.669 4.69 3.664 6.165a2.286 2.286 0 0 1 .392 1.316 2.285 2.285 0 0 1 1.065.325 6.4 6.4 0 0 0 3.305.912h2.64a2.29 2.29 0 0 1 1.609.657 2.29 2.29 0 0 1 1.609-.657h7.354a2.291 2.291 0 0 1 1.609.657 2.291 2.291 0 0 1 1.609-.657h7.354a2.29 2.29 0 0 1 1.608.657 2.291 2.291 0 0 1 1.609-.657h7.354a2.3 2.3 0 0 1 2.3 2.3 2.3 2.3 0 0 1-2.3 2.3h-7.354a2.291 2.291 0 0 1-1.609-.657 2.29 2.29 0 0 1-1.608.657h-7.354a2.289 2.289 0 0 1-1.609-.657 2.289 2.289 0 0 1-1.609.657h-7.354a2.29 2.29 0 0 1-1.609-.657 2.29 2.29 0 0 1-1.609.657h-2.645a11 11 0 0 1-5.666-1.567z" transform="translate(-243.247 -448.055)" style="fill:#e4ebf0"/>
                        </g>
                        <path data-name="패스 4508" d="M345.859 668.151c-.109.417-.431.694-.718.619-.287-.075-.43-.474-.321-.891l2.74-10.435c.109-.417.431-.694.717-.619.287.075.431.474.321.891z" transform="translate(-329.725 -580.287)" style="fill:#e4ebf0"/>
                        <path data-name="패스 4509" d="M569.536 668.151c.11.417.431.694.718.619.287-.075.43-.474.321-.891l-2.74-10.435c-.109-.417-.431-.694-.717-.619-.287.075-.431.474-.321.891z" transform="translate(-518.779 -580.287)" style="fill:#e4ebf0"/>
                    </g>
                    <g data-name="그룹 1656">
                        <g data-name="그룹 1650">
                            <path data-name="패스 4510" d="M344.473 579.756a9.02 9.02 0 0 0-4.187-.628c-3.027-1.042-6.25 3.509-4.134 6.3 1.249 3.369 7.685 2.947 14.177-.246 3.547-1.777 6.053-1.543 6.227-2.752-.548-1.62-10.079-3.336-12.083-2.674z" transform="translate(-321.794 -513.995)" style="fill:#7eb3c3"/>
                            <path data-name="패스 4511" d="M411.327 600.136a52.823 52.823 0 0 0-4.738 11.635 34.31 34.31 0 0 0 3.9 1.557c.591-1.283 7.465-12.988 6.637-15.181-.226-.587-2.986-1.968-5.799 1.989z" transform="translate(-382.363 -529.712)" style="fill:#7eb3c3"/>
                            <path data-name="패스 4512" d="m393.637 699.188-.406.768-1.387-.456 2.187-5.376 2.231.952z" transform="translate(-369.805 -612.065)" style="fill:#fc8b59"/>
                            <g data-name="그룹 1649">
                                <path data-name="패스 4513" d="M395.773 729.133c.566.273.957.046 1.112.37.237.5-.995.926-5.013.4a3.434 3.434 0 0 1-.116-1.323l1.387.456.407-.768s1.569.549 2.223.865z" transform="translate(-369.717 -641.145)" style="fill:#232c4c"/>
                            </g>
                        </g>
                        <g data-name="그룹 1655">
                            <g data-name="그룹 1651">
                                <path data-name="패스 4514" d="m322.163 491.687 3.063 1.422.624-1.894-1.818-2.114z" transform="translate(-310.459 -437.45)" style="fill:#f6693b"/>
                            </g>
                            <path data-name="패스 4515" d="M304.4 505.335c1.5 1.416 1 7.261 5.862 9.285-4.451 1.855-3.844 7.79-7.932 6.385-4.843-1.664-9.754-9.212-5.624-16.738 1.738-3.168 3.283-1.265 5.222-.472a8.454 8.454 0 0 1 2.472 1.54z" transform="translate(-287.458 -448.862)" style="fill:#f8ce77"/>
                            <g data-name="그룹 1652">
                                <path data-name="패스 4516" d="m381.187 499.066 3.561 4.878 9.318-8.851-3.793-3.993z" transform="translate(-360.729 -439.152)" style="fill:#fff"/>
                                <path data-name="패스 4517" d="m387.986 504.862 2.553 2.879 9.318-8.851-1.733-3.332z" transform="translate(-366.52 -442.949)" style="fill:#ef5835"/>
                            </g>
                            <g data-name="그룹 1653">
                                <path data-name="패스 4518" d="M318.021 544.116c.139 2.313.35 5.223.35 5.223s-2.359 1.991-2.878 1.452c-.5-.515-1.25-3.03-1.547-5.605-.346-3.05 4.023-1.938 4.075-1.07z" transform="translate(-303.443 -483.51)" style="fill:#fc8b59"/>
                                <path data-name="패스 4519" d="m322.287 564.252 7.85.6s.484-1.37.857-1.594c.179-.107.826.021.826.021l1.879-.315c.162 0 .294.184.3.4a.375.375 0 0 1-.235.382.472.472 0 0 1 .02.812c.163.031.28.245.266.489s-.171.447-.346.429l-.1-.009a.4.4 0 0 1 .109.315.353.353 0 0 1-.18.307l-1.171.821-1.209.218-.284.023c-2.168 1.156-9.374 1.388-9.651.487-1.189-1.766-.363-3.164 1.069-3.386z" transform="translate(-309.169 -500.355)" style="fill:#fc8b59"/>
                            </g>
                            <g data-name="그룹 1654">
                                <path data-name="패스 4520" d="M338.683 476.94a1.741 1.741 0 0 0-1.667-.216 3.322 3.322 0 0 0-.89 1.306c-.407-.721-.827.481-.837.8a1.037 1.037 0 0 0 .064.321c-.284.265-.46.4-.228.942.1.236 1.569 1.9 1.82 1.848.459-.093.5-1.133 1.127-1.153.075-.053.01-.317.125-.3.22.026.43.021.449-.084.034-.2-.213-.488-.076-.943a1.567 1.567 0 0 0 .583-1.284c.102-.63.034-.977-.47-1.237z" transform="translate(-321.407 -426.788)" style="fill:#fc8b59"/>
                                <path data-name="패스 4521" d="M335.067 467.237c-.893-.393-.871.029-1.518-.577a2.561 2.561 0 0 0-2.408-.886 2.283 2.283 0 0 0-2.1 2.484 19.126 19.126 0 0 1 .033 2.037l.133-.045c.587-.281.661-.328 1-.515-.011-.3.308-1.5.819-.962.216-.054 1.061.218 1.237-.124.07-.137.043-.683.372-.787.531-.167 1.148.651 1.429.981.666.782 2.174-1.091 1.003-1.606z" transform="translate(-316.307 -417.531)" style="fill:#ef5835"/>
                            </g>
                        </g>
                    </g>
                </g>
                <g data-name="그룹 1662">
                    <g data-name="그룹 1659">
                        <g data-name="그룹 1658">
                            <path data-name="패스 4522" d="M829.733 225.669a6.5 6.5 0 0 0-1.923.538 2 2 0 0 0-.181.743l-.714 1.615a.314.314 0 0 0 .266.347.329.329 0 0 0 .376-.131.351.351 0 0 0 .313.307.372.372 0 0 0 .362-.121c-.013.153.137.3.346.339s.415-.06.442-.219l.015-.088a.326.326 0 0 0 .239.163.308.308 0 0 0 .3-.1l.969-.877.425-.932z" transform="translate(-703.164 -213.134)" style="fill:#ffaa90"/>
                            <path data-name="패스 4523" d="m847.185 214.576-1.235-1.589a24.771 24.771 0 0 0 4.986-1.308c1.005-.487 3.621-2.468 4.141 1.679-.119.495-6.507 1.68-7.892 1.218z" transform="translate(-719.382 -200.451)" style="fill:#ffaa90"/>
                        </g>
                    </g>
                    <g data-name="그룹 1661">
                        <path data-name="패스 4524" d="M748.539 197.761c.962-1.135 7.661-3.16 10.163-3.256 1.5.706 2.689 5.311.688 4.808-2.19-.191-9.378.393-9.378.393s-2.776-.744-1.473-1.945z" transform="translate(-636.121 -186.591)" style="fill:#ffcaba"/>
                        <path data-name="패스 4525" d="M716 214.942c-.67.613-5.009 3.323-5.685 4.158l-2.418-.553c1.187-2.106 6.005-6.259 7.542-5.805a1.407 1.407 0 0 1 .561 2.2z" transform="translate(-601.801 -202.094)" style="fill:#ffaa90"/>
                        <g data-name="그룹 1660">
                            <path data-name="패스 4526" d="m712.856 201.887 5.939 4.239-1.786-15.413-5.424-3.476z" transform="translate(-604.943 -180.4)" style="fill:#f8ce77"/>
                            <path data-name="패스 4527" d="M749.945 210.971 762 208.482l-1.045-15.557-12.8 2.632z" transform="translate(-636.094 -185.246)" style="fill:#f8ce77"/>
                            <path data-name="패스 4528" d="M750.164 195.245a21.411 21.411 0 0 0-2 1.321l11.946-2.456s-8.515.466-9.946 1.135z" transform="translate(-636.094 -186.254)" style="fill:#eff6f8"/>
                            <path data-name="패스 4529" d="m715.559 189.854 4.835 3.088a7.525 7.525 0 0 0-1.119-2.207c-.608-.551-3.716-.881-3.716-.881z" transform="translate(-608.328 -182.63)" style="fill:#fff"/>
                        </g>
                        <path data-name="패스 4530" d="M704.051 248.068a4.662 4.662 0 0 1 1.707-.54c.208.047.625.583.625.583l1.659 1.069a.351.351 0 0 1-.035.488.368.368 0 0 1-.431.109.393.393 0 0 1-.1.48.465.465 0 0 0-.527.639.4.4 0 0 1-.548.067l-.068-.072a.367.367 0 0 1-.123.3.345.345 0 0 1-.34.094l-1.444-.223-1.314-.855a1.344 1.344 0 0 1 .939-2.139z" transform="translate(-597.512 -231.741)" style="fill:#ffaa90"/>
                    </g>
                </g>
            </g>
        </g>
    </g>
</svg>
