<svg xmlns="http://www.w3.org/2000/svg" width="42" height="42" viewBox="0 0 42 42">
    <rect data-name="사각형 2611" width="42" height="42" rx="21" style="fill:#f60"/>
    <path data-name="패스 15966" d="M260.863 67.569a6.309 6.309 0 0 0-1.563-.969v-1.3a.434.434 0 0 0-.17-.345c-.051-.039-1.279-.951-4.516-.951a8.85 8.85 0 0 0-5.111 1.615A8.85 8.85 0 0 0 244.389 64c-3.237 0-4.465.912-4.516.951a.434.434 0 0 0-.169.345v1.3a6.309 6.309 0 0 0-1.567.969.433.433 0 0 0-.137.317v14.686a.432.432 0 0 0 .256.4.421.421 0 0 0 .46-.079 8 8 0 0 1 5.247-1.612 8.078 8.078 0 0 1 5.247 1.612.421.421 0 0 0 .579 0 8 8 0 0 1 5.247-1.612 8.078 8.078 0 0 1 5.247 1.612.422.422 0 0 0 .46.079.432.432 0 0 0 .256-.4V67.886a.433.433 0 0 0-.136-.317zm-2.419-2.027V79.28a10.364 10.364 0 0 0-3.833-.6 8.9 8.9 0 0 0-4.685 1.33V66.371a8.06 8.06 0 0 1 4.685-1.507 8.519 8.519 0 0 1 3.833.678zm-17.889 0a8.515 8.515 0 0 1 3.833-.679 8.058 8.058 0 0 1 4.685 1.507v13.642a8.9 8.9 0 0 0-4.685-1.33 10.364 10.364 0 0 0-3.833.6zm19.593 16.186a9.647 9.647 0 0 0-5.111-1.32 9.261 9.261 0 0 0-5.537 1.607 9.261 9.261 0 0 0-5.537-1.607 9.647 9.647 0 0 0-5.111 1.32V68.091a5.865 5.865 0 0 1 .852-.535v12.421a.433.433 0 0 0 .234.383.424.424 0 0 0 .445-.035c.01-.008 1.1-.779 4.006-.779a7.959 7.959 0 0 1 4.834 1.624.419.419 0 0 0 .276.1.424.424 0 0 0 .277-.1 7.958 7.958 0 0 1 4.834-1.624c2.9 0 4 .772 4 .776a.42.42 0 0 0 .447.042.433.433 0 0 0 .236-.386V67.556a5.855 5.855 0 0 1 .852.535z" transform="translate(-228.5 -52.5)" style="fill:#fff"/>
</svg>
