<svg xmlns="http://www.w3.org/2000/svg" width="106.769" height="40.932" viewBox="0 0 106.769 40.932">
  <g id="그룹_2454" data-name="그룹 2454" transform="translate(-127.935 -104.972)">
    <path id="패스_223" data-name="패스 223" d="M316.071,170.22c-5.613.924-10.977,3.765-13.078,8.285-2.3,4.939.761,10.018,5.24,13.4,5.427,4.1,12.987,6.362,19.94,8.12a124.789,124.789,0,0,0,24.42,3.584,132.592,132.592,0,0,0,25.068-1.163c7.554-1.073,15.872-2.554,22.56-5.755,12.19-5.831,10.871-18.133.869-25-12.677-8.7-32.517-9.1-48.221-8.649a156.6,156.6,0,0,0-26.263,2.778c-6.379,1.288-14.114,3.348-17.986,8.026-3.567,4.309-1.9,10.074,1.244,14.214,3.817,5.029,10.05,8.465,16.62,10.732,15.61,5.386,34.163,6.038,50.735,3.979,7.825-.972,17.228-2.144,22.459-7.538,4.673-4.819,4.639-11.242.75-16.376-9.963-13.151-33.175-12.685-49.515-11.3-.984.083-1,1.348,0,1.268,13.479-1.089,28.825-1.716,40.664,4.647,6.5,3.5,11.6,9.44,9.779,16.064-1.809,6.577-9.34,9.346-16.641,10.744a127.443,127.443,0,0,1-43.539.673c-12.594-2-28.836-6.765-32.431-18.178-4.477-14.216,21.567-16.725,33.289-17.812,14.052-1.3,29.33-1.346,43.068,1.681,11.956,2.634,29.053,12.192,20.628,24.023-3.6,5.056-10.964,6.967-17.449,8.51a124.835,124.835,0,0,1-20.572,3.088,125.668,125.668,0,0,1-43.359-4.484c-7.3-2.139-15.637-5.085-19.486-10.962-4.866-7.431,2.506-14.583,11.331-16.247.29-.055.166-.41-.123-.363Z" transform="translate(-174.275 -57.954)" fill="#f6ffc6" opacity="0.458"/>
    <path id="img_hand01" d="M313.517,170.22c-4.578.924-8.955,3.765-10.668,8.285-1.874,4.939.621,10.018,4.274,13.4,4.427,4.1,10.594,6.362,16.266,8.12a84.46,84.46,0,0,0,19.92,3.584,88.472,88.472,0,0,0,20.449-1.163c6.162-1.073,12.948-2.554,18.4-5.755,9.944-5.831,8.868-18.133.709-25-10.341-8.7-26.526-9.1-39.336-8.649a105.171,105.171,0,0,0-21.424,2.778c-5.2,1.288-11.513,3.348-14.672,8.026-2.91,4.309-1.548,10.074,1.015,14.214,3.114,5.029,8.2,8.465,13.558,10.732,12.734,5.386,27.868,6.038,41.386,3.979,6.383-.972,14.053-2.144,18.321-7.538a14.115,14.115,0,0,0,.612-16.376c-8.127-13.151-27.062-12.685-40.391-11.3-.8.083-.814,1.348,0,1.268,11-1.089,23.513-1.716,33.171,4.647,5.305,3.5,9.464,9.44,7.977,16.064-1.476,6.577-7.619,9.346-13.575,10.744a85.133,85.133,0,0,1-35.517.673c-10.273-2-23.523-6.765-26.455-18.178-3.652-14.216,17.593-16.725,27.155-17.812,11.463-1.3,23.926-1.346,35.132,1.681,9.753,2.634,23.7,12.192,16.827,24.023-2.938,5.056-8.944,6.967-14.234,8.51a86.031,86.031,0,0,1-52.151-1.4c-5.955-2.139-12.756-5.085-15.9-10.962-3.969-7.431,2.044-14.583,9.243-16.247.236-.055.135-.41-.1-.363Z" transform="translate(-170.552 -57.954)" fill="#f6ffc6" opacity="0.458"/>
  </g>
</svg>
