<svg xmlns="http://www.w3.org/2000/svg" width="297.657" height="277.81" viewBox="0 0 297.657 277.81">
  <g id="그룹_2452" data-name="그룹 2452" transform="translate(-143.131 -168.387)">
    <g id="그룹_10" data-name="그룹 10" transform="translate(143.131 168.387)" opacity="0.14">
      <g id="그룹_7" data-name="그룹 7" transform="translate(0)">
        <g id="그룹_6" data-name="그룹 6">
          <path id="패스_8" data-name="패스 8" d="M996.456,878.724H698.8V621.51a20.619,20.619,0,0,1,20.6-20.6H979.168A17.307,17.307,0,0,1,996.456,618.2Zm-292.975-4.682H991.774V618.2A12.62,12.62,0,0,0,979.168,605.6H719.395a15.932,15.932,0,0,0-15.914,15.914Z" transform="translate(-698.799 -600.914)" fill="#fff"/>
        </g>
        <rect id="사각형_7" data-name="사각형 7" width="292.975" height="5.206" transform="translate(2.341 53.928)" fill="#fff"/>
        <rect id="사각형_8" data-name="사각형 8" width="292.975" height="5.206" transform="translate(2.341 95.853)" fill="#fff"/>
        <rect id="사각형_9" data-name="사각형 9" width="292.975" height="5.206" transform="translate(2.341 137.777)" fill="#fff"/>
        <rect id="사각형_10" data-name="사각형 10" width="292.975" height="5.206" transform="translate(2.341 179.855)" fill="#fff"/>
      </g>
      <g id="그룹_8" data-name="그룹 8" transform="translate(8.991 144.664)">
        <rect id="사각형_11" data-name="사각형 11" width="7.316" height="27.226" transform="translate(64.57 35.191) rotate(180)" fill="#fff"/>
        <rect id="사각형_12" data-name="사각형 12" width="6.34" height="29.591" transform="translate(55.547 35.191) rotate(180)" fill="#fff"/>
        <rect id="사각형_13" data-name="사각형 13" width="6.34" height="29.591" transform="matrix(-0.993, -0.121, 0.121, -0.993, 45.614, 35.466)" fill="#fff"/>
        <rect id="사각형_14" data-name="사각형 14" width="7.316" height="27.226" transform="translate(268.991 35.191) rotate(180)" fill="#fff"/>
        <rect id="사각형_15" data-name="사각형 15" width="6.34" height="29.591" transform="translate(259.967 35.191) rotate(180)" fill="#fff"/>
        <rect id="사각형_16" data-name="사각형 16" width="6.34" height="29.591" transform="translate(250.034 35.466) rotate(-173.025)" fill="#fff"/>
        <rect id="사각형_17" data-name="사각형 17" width="29.915" height="5.324" transform="translate(33.573 35.191) rotate(180)" fill="#fff"/>
        <rect id="사각형_18" data-name="사각형 18" width="29.915" height="3.661" transform="translate(29.915 29.867) rotate(180)" fill="#fff"/>
        <rect id="사각형_19" data-name="사각형 19" width="28.68" height="3.661" transform="translate(31.622 26.205) rotate(180)" fill="#fff"/>
        <rect id="사각형_20" data-name="사각형 20" width="25.902" height="2.796" transform="translate(28.149 22.544) rotate(180)" fill="#fff"/>
        <rect id="사각형_21" data-name="사각형 21" width="29.915" height="5.324" transform="translate(177.163 35.191) rotate(180)" fill="#fff"/>
        <rect id="사각형_22" data-name="사각형 22" width="29.915" height="3.661" transform="translate(173.505 29.867) rotate(180)" fill="#fff"/>
        <rect id="사각형_23" data-name="사각형 23" width="28.68" height="3.661" transform="translate(175.212 26.205) rotate(180)" fill="#fff"/>
        <rect id="사각형_24" data-name="사각형 24" width="25.902" height="2.796" transform="translate(171.738 22.544) rotate(180)" fill="#fff"/>
        <rect id="사각형_25" data-name="사각형 25" width="29.915" height="3.661" transform="translate(172.519 19.747) rotate(180)" fill="#fff"/>
        <rect id="사각형_26" data-name="사각형 26" width="28.68" height="3.661" transform="translate(174.227 16.086) rotate(180)" fill="#fff"/>
        <rect id="사각형_27" data-name="사각형 27" width="25.902" height="2.796" transform="translate(170.753 12.424) rotate(180)" fill="#fff"/>
        <rect id="사각형_28" data-name="사각형 28" width="5.1" height="29.474" transform="translate(129.922 35.073) rotate(180)" fill="#fff"/>
        <rect id="사각형_29" data-name="사각형 29" width="5.099" height="30.824" transform="translate(192.63 35.073) rotate(180)" fill="#fff"/>
        <rect id="사각형_30" data-name="사각형 30" width="5.1" height="29.474" transform="translate(208.078 35.073) rotate(180)" fill="#fff"/>
        <rect id="사각형_31" data-name="사각형 31" width="6.445" height="31.904" transform="translate(124.823 35.073) rotate(180)" fill="#fff"/>
        <rect id="사각형_32" data-name="사각형 32" width="6.445" height="31.904" transform="translate(215.585 35.073) rotate(180)" fill="#fff"/>
        <rect id="사각형_33" data-name="사각형 33" width="6.445" height="30.383" transform="translate(118.378 35.073) rotate(180)" fill="#fff"/>
        <rect id="사각형_34" data-name="사각형 34" width="6.445" height="34.479" transform="translate(184.444 33.965) rotate(170.098)" fill="#fff"/>
        <rect id="사각형_35" data-name="사각형 35" width="6.445" height="25.724" transform="translate(111.933 35.073) rotate(180)" fill="#fff"/>
        <rect id="사각형_36" data-name="사각형 36" width="6.445" height="25.724" transform="translate(224.017 35.073) rotate(180)" fill="#fff"/>
        <rect id="사각형_37" data-name="사각형 37" width="6.445" height="27.108" transform="translate(105.488 35.073) rotate(180)" fill="#fff"/>
        <rect id="사각형_38" data-name="사각형 38" width="6.445" height="27.108" transform="translate(98.013 35.073) rotate(180)" fill="#fff"/>
        <rect id="사각형_39" data-name="사각형 39" width="6.445" height="27.108" transform="translate(231.358 35.073) rotate(180)" fill="#fff"/>
        <rect id="사각형_40" data-name="사각형 40" width="6.445" height="29.474" transform="translate(90.363 35.073) rotate(180)" fill="#fff"/>
        <rect id="사각형_41" data-name="사각형 41" width="6.445" height="29.474" transform="translate(202.323 35.073) rotate(180)" fill="#fff"/>
      </g>
      <g id="그룹_9" data-name="그룹 9" transform="translate(6.905 18.855)">
        <rect id="사각형_42" data-name="사각형 42" width="7.316" height="27.226" transform="translate(206.506 7.965)" fill="#fff"/>
        <rect id="사각형_43" data-name="사각형 43" width="6.34" height="29.591" transform="translate(215.53 5.6)" fill="#fff"/>
        <rect id="사각형_44" data-name="사각형 44" width="6.34" height="29.591" transform="matrix(0.993, -0.121, 0.121, 0.993, 221.869, 6.094)" fill="#fff"/>
        <rect id="사각형_45" data-name="사각형 45" width="7.316" height="27.226" transform="translate(88.771 49.776)" fill="#fff"/>
        <rect id="사각형_46" data-name="사각형 46" width="6.34" height="29.591" transform="translate(97.795 47.41)" fill="#fff"/>
        <rect id="사각형_47" data-name="사각형 47" width="6.34" height="29.591" transform="matrix(0.993, -0.121, 0.121, 0.993, 104.134, 47.905)" fill="#fff"/>
        <rect id="사각형_48" data-name="사각형 48" width="7.316" height="27.226" transform="translate(2.086 7.965)" fill="#fff"/>
        <rect id="사각형_49" data-name="사각형 49" width="6.34" height="29.591" transform="translate(11.109 5.6)" fill="#fff"/>
        <rect id="사각형_50" data-name="사각형 50" width="6.34" height="29.591" transform="matrix(0.993, -0.121, 0.121, 0.993, 17.449, 6.094)" fill="#fff"/>
        <rect id="사각형_51" data-name="사각형 51" width="29.915" height="5.324" transform="translate(237.503 29.867)" fill="#fff"/>
        <rect id="사각형_52" data-name="사각형 52" width="29.915" height="3.661" transform="translate(241.161 26.205)" fill="#fff"/>
        <rect id="사각형_53" data-name="사각형 53" width="28.68" height="3.661" transform="translate(239.454 22.544)" fill="#fff"/>
        <rect id="사각형_54" data-name="사각형 54" width="25.902" height="2.796" transform="translate(242.927 19.747)" fill="#fff"/>
        <rect id="사각형_55" data-name="사각형 55" width="29.915" height="5.324" transform="translate(93.914 29.867)" fill="#fff"/>
        <rect id="사각형_56" data-name="사각형 56" width="29.915" height="3.661" transform="translate(97.572 26.205)" fill="#fff"/>
        <rect id="사각형_57" data-name="사각형 57" width="28.68" height="3.661" transform="translate(95.865 22.544)" fill="#fff"/>
        <rect id="사각형_58" data-name="사각형 58" width="25.902" height="2.796" transform="translate(99.338 19.747)" fill="#fff"/>
        <rect id="사각형_59" data-name="사각형 59" width="29.915" height="3.662" transform="translate(98.557 16.086)" fill="#fff"/>
        <rect id="사각형_60" data-name="사각형 60" width="28.68" height="3.661" transform="translate(96.85 12.424)" fill="#fff"/>
        <rect id="사각형_61" data-name="사각형 61" width="25.902" height="2.796" transform="translate(100.323 9.628)" fill="#fff"/>
        <rect id="사각형_62" data-name="사각형 62" width="5.099" height="29.474" transform="translate(141.154 5.6)" fill="#fff"/>
        <rect id="사각형_63" data-name="사각형 63" width="5.099" height="30.824" transform="translate(78.447 4.249)" fill="#fff"/>
        <rect id="사각형_64" data-name="사각형 64" width="5.099" height="29.474" transform="translate(62.999 5.6)" fill="#fff"/>
        <rect id="사각형_65" data-name="사각형 65" width="6.445" height="31.904" transform="translate(146.254 3.17)" fill="#fff"/>
        <rect id="사각형_66" data-name="사각형 66" width="6.445" height="31.904" transform="translate(55.491 3.17)" fill="#fff"/>
        <rect id="사각형_67" data-name="사각형 67" width="6.445" height="30.383" transform="translate(152.699 4.69)" fill="#fff"/>
        <rect id="사각형_68" data-name="사각형 68" width="6.445" height="34.479" transform="matrix(0.985, 0.172, -0.172, 0.985, 92.562, 0)" fill="#fff"/>
        <rect id="사각형_69" data-name="사각형 69" width="29.915" height="5.324" transform="translate(187.548 71.674)" fill="#fff"/>
        <rect id="사각형_70" data-name="사각형 70" width="29.915" height="3.661" transform="translate(191.206 68.012)" fill="#fff"/>
        <rect id="사각형_71" data-name="사각형 71" width="28.68" height="3.662" transform="translate(189.499 64.351)" fill="#fff"/>
        <rect id="사각형_72" data-name="사각형 72" width="25.902" height="2.796" transform="translate(192.972 61.554)" fill="#fff"/>
        <rect id="사각형_73" data-name="사각형 73" width="29.915" height="3.661" transform="translate(192.191 57.893)" fill="#fff"/>
        <rect id="사각형_74" data-name="사각형 74" width="28.68" height="3.661" transform="translate(190.484 54.232)" fill="#fff"/>
        <rect id="사각형_75" data-name="사각형 75" width="25.902" height="2.796" transform="translate(193.957 51.435)" fill="#fff"/>
        <rect id="사각형_76" data-name="사각형 76" width="6.445" height="34.479" transform="matrix(0.985, 0.172, -0.172, 0.985, 186.196, 41.807)" fill="#fff"/>
        <rect id="사각형_77" data-name="사각형 77" width="6.445" height="25.724" transform="translate(159.143 9.349)" fill="#fff"/>
        <rect id="사각형_78" data-name="사각형 78" width="6.445" height="25.724" transform="translate(47.059 9.349)" fill="#fff"/>
        <rect id="사각형_79" data-name="사각형 79" width="6.445" height="27.108" transform="translate(165.588 7.965)" fill="#fff"/>
        <rect id="사각형_80" data-name="사각형 80" width="6.445" height="27.108" transform="translate(173.064 7.965)" fill="#fff"/>
        <rect id="사각형_81" data-name="사각형 81" width="6.445" height="27.108" transform="translate(39.718 7.965)" fill="#fff"/>
        <rect id="사각형_82" data-name="사각형 82" width="6.445" height="31.904" transform="translate(163.548 45.094)" fill="#fff"/>
        <rect id="사각형_83" data-name="사각형 83" width="6.445" height="25.724" transform="translate(155.115 51.274)" fill="#fff"/>
        <rect id="사각형_84" data-name="사각형 84" width="6.445" height="27.108" transform="translate(147.775 49.89)" fill="#fff"/>
        <rect id="사각형_85" data-name="사각형 85" width="6.445" height="27.108" transform="translate(126.236 49.89)" fill="#fff"/>
        <rect id="사각형_86" data-name="사각형 86" width="6.445" height="27.108" transform="translate(117.241 49.89)" fill="#fff"/>
        <rect id="사각형_87" data-name="사각형 87" width="6.445" height="31.904" transform="translate(15.773 45.094)" fill="#fff"/>
        <rect id="사각형_88" data-name="사각형 88" width="6.445" height="31.904" transform="matrix(0.993, -0.121, 0.121, 0.993, 22.23, 45.604)" fill="#fff"/>
        <rect id="사각형_89" data-name="사각형 89" width="6.445" height="25.724" transform="translate(7.341 51.274)" fill="#fff"/>
        <rect id="사각형_90" data-name="사각형 90" width="6.445" height="27.108" transform="translate(0 49.89)" fill="#fff"/>
        <rect id="사각형_91" data-name="사각형 91" width="6.445" height="29.474" transform="translate(180.713 5.6)" fill="#fff"/>
        <rect id="사각형_92" data-name="사각형 92" width="5.099" height="29.474" transform="translate(112.019 89.449)" fill="#fff"/>
        <rect id="사각형_93" data-name="사각형 93" width="6.445" height="31.904" transform="translate(117.118 87.019)" fill="#fff"/>
        <rect id="사각형_94" data-name="사각형 94" width="6.445" height="30.383" transform="translate(123.563 88.539)" fill="#fff"/>
        <rect id="사각형_95" data-name="사각형 95" width="6.445" height="25.724" transform="translate(130.008 93.198)" fill="#fff"/>
        <rect id="사각형_96" data-name="사각형 96" width="6.445" height="27.108" transform="translate(136.452 91.814)" fill="#fff"/>
        <rect id="사각형_97" data-name="사각형 97" width="6.445" height="27.108" transform="translate(143.928 91.814)" fill="#fff"/>
        <rect id="사각형_98" data-name="사각형 98" width="6.445" height="29.474" transform="translate(151.577 89.449)" fill="#fff"/>
        <rect id="사각형_99" data-name="사각형 99" width="6.445" height="29.474" transform="translate(228.713 47.524)" fill="#fff"/>
        <rect id="사각형_100" data-name="사각형 100" width="6.445" height="29.474" transform="translate(235.733 47.524)" fill="#fff"/>
        <rect id="사각형_101" data-name="사각형 101" width="6.445" height="29.474" transform="translate(68.753 5.6)" fill="#fff"/>
        <rect id="사각형_102" data-name="사각형 102" width="29.915" height="5.324" transform="translate(220.58 113.729)" fill="#fff"/>
        <rect id="사각형_103" data-name="사각형 103" width="29.915" height="3.661" transform="translate(224.238 110.067)" fill="#fff"/>
        <rect id="사각형_104" data-name="사각형 104" width="28.68" height="3.661" transform="translate(222.531 106.406)" fill="#fff"/>
        <rect id="사각형_105" data-name="사각형 105" width="25.902" height="2.796" transform="translate(226.004 103.609)" fill="#fff"/>
        <rect id="사각형_106" data-name="사각형 106" width="29.915" height="3.661" transform="translate(225.223 99.948)" fill="#fff"/>
        <rect id="사각형_107" data-name="사각형 107" width="28.68" height="3.661" transform="translate(223.516 96.286)" fill="#fff"/>
        <rect id="사각형_108" data-name="사각형 108" width="25.902" height="2.796" transform="translate(226.989 93.49)" fill="#fff"/>
        <rect id="사각형_109" data-name="사각형 109" width="5.099" height="30.824" transform="translate(205.113 88.111)" fill="#fff"/>
        <rect id="사각형_110" data-name="사각형 110" width="5.1" height="29.474" transform="translate(189.665 89.462)" fill="#fff"/>
        <rect id="사각형_111" data-name="사각형 111" width="6.445" height="31.904" transform="translate(182.158 87.032)" fill="#fff"/>
        <rect id="사각형_112" data-name="사각형 112" width="6.445" height="34.479" transform="translate(219.228 83.862) rotate(9.902)" fill="#fff"/>
        <rect id="사각형_113" data-name="사각형 113" width="6.445" height="25.724" transform="translate(173.725 93.211)" fill="#fff"/>
        <rect id="사각형_114" data-name="사각형 114" width="6.445" height="27.108" transform="translate(166.384 91.827)" fill="#fff"/>
        <rect id="사각형_115" data-name="사각형 115" width="6.445" height="31.904" transform="translate(98.578 87.032)" fill="#fff"/>
        <rect id="사각형_116" data-name="사각형 116" width="6.445" height="25.724" transform="translate(90.145 93.211)" fill="#fff"/>
        <rect id="사각형_117" data-name="사각형 117" width="6.445" height="27.108" transform="translate(82.805 91.827)" fill="#fff"/>
        <rect id="사각형_118" data-name="사각형 118" width="6.445" height="31.904" transform="translate(72.762 87.032)" fill="#fff"/>
        <rect id="사각형_119" data-name="사각형 119" width="6.445" height="25.724" transform="translate(64.33 93.211)" fill="#fff"/>
        <rect id="사각형_120" data-name="사각형 120" width="6.445" height="27.108" transform="translate(56.989 91.827)" fill="#fff"/>
        <rect id="사각형_121" data-name="사각형 121" width="6.445" height="29.474" transform="translate(195.419 89.462)" fill="#fff"/>
      </g>
    </g>
    <g id="그룹_18" data-name="그룹 18" transform="translate(329.36 300.979)">
      <path id="패스_12" data-name="패스 12" d="M891.1,1167.319s.611,2.653,2.393,2.653c1.527,0,3.623-3.453,3.623-3.453Z" transform="translate(-888.99 -1145.305)" fill="#f8ecc1"/>
      <path id="패스_13" data-name="패스 13" d="M998.276,1289.35l-1.022.543s-5.529-5.862-6.858-11.488a8.746,8.746,0,0,1-.231-2.935s-.08-.255-.221-.705l-.019-.06c-.062-.2-.135-.43-.217-.693-.267-.85-.634-2.013-1.051-3.338-.962-3.048-3.163-9.921-4.1-12.781l6.76-2.446a42.679,42.679,0,0,1,1.871,6.51c.17.621.34,1.308.5,2.057.18.848.348,1.774.489,2.776a42.6,42.6,0,0,1,.405,5.7q.006,1.277-.068,2.646a11.672,11.672,0,0,0,.248,2.571A86.448,86.448,0,0,0,998.276,1289.35Z" transform="translate(-975.808 -1227.919)" fill="#2b478b"/>
      <path id="패스_14" data-name="패스 14" d="M1157.731,1732.384h-5.465a2.272,2.272,0,0,1,.154-1.465,1.053,1.053,0,0,0-.039-1.258,2.125,2.125,0,0,0,.92.173,1.925,1.925,0,0,0,.813-.286,19.648,19.648,0,0,0,1.557,1.636C1156.028,1731.441,1157.621,1731.35,1157.731,1732.384Z" transform="translate(-1131.562 -1668.363)" fill="#233862"/>
      <path id="패스_15" data-name="패스 15" d="M994.17,1266.789l-4.246,7.916c-.062-.2-.135-.43-.217-.693-.267-.85-.634-2.013-1.051-3.338-.962-3.048-3.163-9.921-4.1-12.781l6.76-2.446a42.679,42.679,0,0,1,1.871,6.51c.17.621.34,1.308.5,2.057C993.862,1264.861,994.03,1265.787,994.17,1266.789Z" transform="translate(-975.808 -1227.919)" fill="#233862"/>
      <path id="패스_16" data-name="패스 16" d="M980.714,1743.463a2.441,2.441,0,0,0-.022,1.711h2.973s.062-.706-1.017-1.524A2.2,2.2,0,0,0,980.714,1743.463Z" transform="translate(-972.08 -1681.153)" fill="#233862"/>
      <path id="패스_17" data-name="패스 17" d="M978.119,869.58c0-.148.078-1.744,2.5-1.885,0,0-1.19.171-1.383.7,0,0,.8-.668,1.463-.475s1.083,1.342,1.1,1.723-.325,1.619-.742,1.734a1.284,1.284,0,0,1-.509.013,5.745,5.745,0,0,1,.34.574c1.016,1.964.139,4.277-.685,4.083-.529-.125-.851.792-.851.792l-5.087-4.375S976.046,868.537,978.119,869.58Z" transform="translate(-966.25 -867.695)" fill="#2c3a64"/>
      <path id="패스_18" data-name="패스 18" d="M983.526,993.342a6.175,6.175,0,0,0,2.159.919c3.328.769,4.6-2.044,5.082-3.975a2.859,2.859,0,0,0-1.128-.346c-.24-.028-.493-.047-.7-.058a5.232,5.232,0,0,1-1.054-3.277l-.156.042-2.623.718s.12.834.179,1.622a3.121,3.121,0,0,1-.064,1.35c-.2.044-.327.073-.327.073v0A16.893,16.893,0,0,0,983.526,993.342Z" transform="translate(-974.855 -978.164)" fill="#f4e0d3"/>
      <path id="패스_19" data-name="패스 19" d="M1005.748,987.924s.121.833.179,1.622a3.165,3.165,0,0,0,2.444-2.339Z" transform="translate(-995.499 -978.722)" fill="#ebd4c4"/>
      <path id="패스_20" data-name="패스 20" d="M975.384,932.764s3.421-.879,2.841-3-.53-3.665-2.738-3.193-2.41,1.4-2.389,2.152S974.479,932.938,975.384,932.764Z" transform="translate(-965.166 -922.31)" fill="#f4e0d3"/>
      <path id="패스_21" data-name="패스 21" d="M968.193,922.571c.351-.783.788-.752,1.063-.621a2.469,2.469,0,0,1,3.2-.351,4.2,4.2,0,0,0,1.983,2.03,2.922,2.922,0,0,1-2.048.579,2.521,2.521,0,0,1-1.379-.482,8.241,8.241,0,0,0,1.826,1.295c-1.926-.321-3.266-2.51-3.4-2.742a2.768,2.768,0,0,0-.471,1.194c-.021.587.208,1.72-.127,1.771C968.833,925.244,967.666,923.745,968.193,922.571Z" transform="translate(-960.483 -917.367)" fill="#2c3a64"/>
      <path id="패스_22" data-name="패스 22" d="M935.953,1031.681s5.746-1.4,8.244.666l-1.249,17.413-11.237-2.715a16.407,16.407,0,0,1,2.471-4.032C936.337,1040.083,935.4,1035.785,935.953,1031.681Z" transform="translate(-926.718 -1019.61)" fill="#f4e0d3"/>
      <path id="패스_23" data-name="패스 23" d="M931.238,1246.407s-.006.059-.018.172c-.005.048-.012.107-.019.175-.048.451-.14,1.317-.258,2.443-.308,2.953-.792,7.7-1.122,11.44a47.91,47.91,0,0,0-.333,5.616c.266,1.119,0,14.5,0,14.5a3.931,3.931,0,0,1-2.4,0s-2.544-12.059-2.188-13.735a5.772,5.772,0,0,0-.238-3.107c-1.975-9.2-1.759-14.3-1.367-16.739a10.3,10.3,0,0,1,.338-1.49,3.119,3.119,0,0,1,.135-.366A9.3,9.3,0,0,1,931.238,1246.407Z" transform="translate(-918.654 -1218.196)" fill="#2b478b"/>
      <path id="패스_24" data-name="패스 24" d="M930.7,1039.051a41.521,41.521,0,0,1-1.784,6.038s.662,4.791.03,6.106a.584.584,0,0,1-.27.3c-2.343,1.021-11.469.029-11.854-2.914-.14-1.07,3.476-4.832,3.686-5.288a3.259,3.259,0,0,0-.243-2.069c-.6,1.853-3.917,1.32-3.917,1.32.389-.666,1.359-5.274,2.442-7.354a4.135,4.135,0,0,1,2.988-1.79,3.251,3.251,0,0,0,3.093,1.231c2.188-.2,2.588-1.543,2.588-1.543a7.624,7.624,0,0,1,2.538.74A9.987,9.987,0,0,1,930.7,1039.051Z" transform="translate(-912.451 -1021.348)" fill="#f8ecc1"/>
      <path id="패스_25" data-name="패스 25" d="M1049.546,1123.093s.662,4.791.03,6.106c-1.707-.857-3.932-2.706-3.255-5.6.984-4.2,5.008-6.548,5.008-6.548A41.537,41.537,0,0,1,1049.546,1123.093Z" transform="translate(-1033.076 -1099.352)" fill="#e8dfbe"/>
      <path id="패스_30" data-name="패스 30" d="M1035.208,1161.311c-.377.172-1.344,1.312-1.689,1.427-1.552.519-8.159-.863-8.159-.863l.2-1.157s6.485.172,7.2-.019c.134-.036.835-1.132,1.1-1.289Z" transform="translate(-1013.718 -1138.7)" fill="#f4e0d3"/>
      <path id="패스_35" data-name="패스 35" d="M420.487,207.037l-5.123-.093a1.2,1.2,0,0,1-1.109-.821l-3-9.076c-.225-.683.279-1.238,1.088-1.283l6.271-.354c1.007,0,1.544.315,1.714.9l1.957,7.149C422.8,205.106,421.967,206.977,420.487,207.037Z" transform="translate(-411.204 -182.882)" fill="#263238"/>
      <path id="패스_31" data-name="패스 31" d="M979.952,1171.11s-.782-.636-1.31-.493a8.478,8.478,0,0,0-1.595.97c-.289.158-1.073.724-.675,1.067s1.635.048,2.125-.214a2.534,2.534,0,0,1,1.25-.173Z" transform="translate(-968.106 -1149.093)" fill="#f4e0d3"/>
      <path id="패스_32" data-name="패스 32" d="M993.785,1169.186s-.95-.113-1.21-.108-.189.062-.046.264.638.278.661.349S993.785,1169.186,993.785,1169.186Z" transform="translate(-983.1 -1147.681)" fill="#f4e0d3"/>
      <path id="패스_33" data-name="패스 33" d="M1061.974,1033.09s2.818.334,3.594,1.543c.981,1.528,3.3,7.614,3.222,9.147,0,0-1.693,2.881-7.5,2.42,0,0-.6-2.133.617-2.838a18.546,18.546,0,0,0,3.325-.833l-1-4.14Z" transform="translate(-1046.961 -1021.348)" fill="#f8ecc1"/>
      <path id="패스_34" data-name="패스 34" d="M891.95,1154.091c-.087-.355-.862-.133-1.123.071a1.059,1.059,0,0,0-.2.233c-.008-.06-.015-.116-.019-.161-.015-.167-.209-.466-.257-.242s-.128,1.163-.128,1.163c-.009.757.477,1.069.79.823A3.711,3.711,0,0,0,891.95,1154.091Z" transform="translate(-888.178 -1133.585)" fill="#f4e0d3"/>
    </g>
  </g>
</svg>
