<svg xmlns="http://www.w3.org/2000/svg" width="83.181" height="59.467" viewBox="0 0 83.181 59.467">
  <g id="그룹_44" data-name="그룹 44" opacity="0.236">
    <g id="그룹_35" data-name="그룹 35" transform="translate(37.07 47.821)">
      <g id="그룹_33" data-name="그룹 33" transform="translate(0 2.605)">
        <path id="패스_156" data-name="패스 156" d="M348.668,143.344a4.521,4.521,0,1,1,4.521-4.521A4.526,4.526,0,0,1,348.668,143.344Zm0-7.2a2.682,2.682,0,1,0,2.682,2.682A2.685,2.685,0,0,0,348.668,136.141Z" transform="translate(-344.147 -134.302)" fill="#28aec1"/>
      </g>
      <g id="그룹_34" data-name="그룹 34" transform="translate(0)">
        <rect id="사각형_190" data-name="사각형 190" width="1.839" height="7.202" fill="#28aec1"/>
      </g>
    </g>
    <g id="그룹_43" data-name="그룹 43" transform="translate(0 0)">
      <g id="그룹_42" data-name="그룹 42">
        <g id="그룹_40" data-name="그룹 40" transform="translate(56.645)">
          <path id="패스_164" data-name="패스 164" d="M383.8,137.365a4.664,4.664,0,0,1,1.247-.707,4.449,4.449,0,0,1,1.311-.247,10.418,10.418,0,0,1,2.854.358c.95.233,1.854.516,2.531.749s1.113.4,1.113.4a11.056,11.056,0,0,1-1.121.546,12.452,12.452,0,0,1-2.692.811,7.22,7.22,0,0,1-3.152-.079A2.84,2.84,0,0,1,383.8,137.365Z" transform="translate(-380.743 -84.779)" fill="#28aec1"/>
          <path id="패스_165" data-name="패스 165" d="M385.818,128.15a5.5,5.5,0,0,1-1.613,2.172,2.851,2.851,0,0,1-1.167.54,2.223,2.223,0,0,1-1.308-.124,4.356,4.356,0,0,1,.674-2.468,7.521,7.521,0,0,1,1.658-1.788,18.416,18.416,0,0,1,1.751-1.237c.483-.3.812-.479.812-.479s0,.108-.021.294-.05.453-.1.771A9.62,9.62,0,0,1,385.818,128.15Z" transform="translate(-379.853 -79.783)" fill="#28aec1"/>
          <path id="패스_166" data-name="패스 166" d="M399.081,132.211A3.023,3.023,0,0,1,396.694,131a3.328,3.328,0,0,1,2.05-1.568,11.231,11.231,0,0,1,2.844-.365c.981-.029,1.957-.006,2.688,0l1.222.021s-.091.1-.262.268-.417.389-.723.641a11.433,11.433,0,0,1-2.462,1.544A6.7,6.7,0,0,1,399.081,132.211Z" transform="translate(-386.276 -81.624)" fill="#28aec1"/>
          <path id="패스_167" data-name="패스 167" d="M395.822,123.581a2.616,2.616,0,0,1-2.234,1.086,3.628,3.628,0,0,1-.057-2.587,7.951,7.951,0,0,1,1.177-2.172c.466-.64.939-1.186,1.287-1.578.17-.2.315-.352.42-.458s.155-.167.155-.167.033.1.08.273.1.429.147.739a7.882,7.882,0,0,1,.013,2.373A5.357,5.357,0,0,1,395.822,123.581Z" transform="translate(-384.828 -76.752)" fill="#28aec1"/>
          <path id="패스_168" data-name="패스 168" d="M413.324,115.785c.676-.212,1.111-.336,1.111-.336s-.041.111-.126.3-.228.448-.4.757-.385.667-.632,1.046c-.124.188-.256.381-.395.574l-.111.148-.136.183c-.1.119-.194.241-.288.36a6.172,6.172,0,0,1-2.72,1.96,2.837,2.837,0,0,1-2.68-.389,3.75,3.75,0,0,1,1.479-2.164c.176-.143.373-.273.57-.408s.409-.263.623-.389.433-.265.658-.392.422-.22.64-.323A20.229,20.229,0,0,1,413.324,115.785Z" transform="translate(-390.676 -75.785)" fill="#28aec1"/>
          <path id="패스_169" data-name="패스 169" d="M404.56,114.63a2.4,2.4,0,0,1-1.748,1.706,4.052,4.052,0,0,1-.877-2.4,11.34,11.34,0,0,1,.142-2.176,7.921,7.921,0,0,1,.236-1.07c.1-.365.215-.691.315-.964s.2-.5.265-.657.091-.246.091-.246.066.09.168.252.238.389.39.675A12.034,12.034,0,0,1,404.45,112c.064.222.118.45.163.678a5.915,5.915,0,0,1,.1.654,4.664,4.664,0,0,1-.017.662A3.691,3.691,0,0,1,404.56,114.63Z" transform="translate(-388.521 -72.939)" fill="#28aec1"/>
          <path id="패스_170" data-name="패스 170" d="M417.117,106.557a4.112,4.112,0,0,1-.524.517,5.271,5.271,0,0,1-.571.426,3.079,3.079,0,0,1-2.606.44,2.8,2.8,0,0,1,.081-1.311,2.84,2.84,0,0,1,.254-.577c.1-.188.233-.363.353-.543a8.548,8.548,0,0,1,2.091-1.87,22.815,22.815,0,0,1,2.2-1.369c.634-.341,1.035-.554,1.035-.554s-.019.122-.071.326-.14.493-.259.84a11,11,0,0,1-1.111,2.458A10.017,10.017,0,0,1,417.117,106.557Z" transform="translate(-393.435 -69.89)" fill="#28aec1"/>
          <path id="패스_171" data-name="패스 171" d="M408.868,104.573a2.538,2.538,0,0,1-.832.967,3.513,3.513,0,0,1-1.615-2.034,5.028,5.028,0,0,1-.155-.615c-.019-.1-.034-.209-.047-.31s-.032-.212-.048-.32a7.923,7.923,0,0,1-.054-1.256,20.867,20.867,0,0,1,.2-2.134c.046-.278.1-.506.135-.665s.042-.249.042-.249.081.071.212.207a7.092,7.092,0,0,1,.51.575,11.159,11.159,0,0,1,1.315,2.021,6.091,6.091,0,0,1,.63,2.6,2.387,2.387,0,0,1-.083.63A2.784,2.784,0,0,1,408.868,104.573Z" transform="translate(-390.318 -68.277)" fill="#28aec1"/>
          <path id="패스_172" data-name="패스 172" d="M420.165,92.5a5.47,5.47,0,0,1-.393.625,5.7,5.7,0,0,1-.479.535,3.051,3.051,0,0,1-2.482.942,2.783,2.783,0,0,1-.17-1.3,3.257,3.257,0,0,1,.138-.615,4.517,4.517,0,0,1,.224-.6,5.915,5.915,0,0,1,.726-1.165c.15-.188.3-.376.446-.565s.307-.365.466-.543c.645-.71,1.359-1.359,1.853-1.846.51-.479.87-.789.87-.789s.013.493-.03,1.234a11.783,11.783,0,0,1-.187,1.258c-.041.23-.093.466-.151.707a5.382,5.382,0,0,1-.209.723A10.315,10.315,0,0,1,420.165,92.5Z" transform="translate(-394.83 -63.653)" fill="#28aec1"/>
          <path id="패스_173" data-name="패스 173" d="M410.5,94.06a3.6,3.6,0,0,1-1.98-1.663,4.628,4.628,0,0,1-.27-.554,5.651,5.651,0,0,1-.24-.58,7.152,7.152,0,0,1-.3-1.178c-.074-.384-.154-.76-.192-1.107-.021-.175-.034-.341-.047-.5s-.016-.307-.034-.442a7.187,7.187,0,0,1-.052-.9,9.9,9.9,0,0,1,.884.575c.128.092.267.2.414.315s.3.244.438.378a10.2,10.2,0,0,1,.873.938c.142.172.277.355.409.543.062.1.126.193.185.291s.107.2.155.3a5.116,5.116,0,0,1,.428,1.242,3.408,3.408,0,0,1,.059.628,2.822,2.822,0,0,1-.1.609A2.526,2.526,0,0,1,410.5,94.06Z" transform="translate(-390.863 -63.635)" fill="#28aec1"/>
          <path id="패스_174" data-name="패스 174" d="M417.98,76.028c.22-.421.457-.834.687-1.218s.452-.733.63-1.03c.371-.593.64-.98.64-.98s.14.469.287,1.192c.056.368.107.8.14,1.269.02.233.033.474.039.72s-.017.5-.039.76a8.589,8.589,0,0,1-.24,1.507,5.815,5.815,0,0,1-.574,1.351,2.972,2.972,0,0,1-2.194,1.5,2.76,2.76,0,0,1-.294-.6,3.155,3.155,0,0,1-.166-.609,3.251,3.251,0,0,1,.064-1.263,6.541,6.541,0,0,1,.4-1.3C417.544,76.892,417.772,76.453,417.98,76.028Z" transform="translate(-394.931 -57.48)" fill="#28aec1"/>
          <path id="패스_175" data-name="패스 175" d="M407.722,81.5a4.9,4.9,0,0,1-.755-.954,7.165,7.165,0,0,1-.6-1.033c-.087-.172-.151-.344-.233-.511s-.154-.331-.217-.49c-.134-.318-.228-.614-.315-.866a7.516,7.516,0,0,1-.277-.842,9.481,9.481,0,0,1,1,.323,8.917,8.917,0,0,1,2.079,1.112,5.706,5.706,0,0,1,.529.421,6.2,6.2,0,0,1,.468.474,4.638,4.638,0,0,1,.731,1.083,3.051,3.051,0,0,1,.26,1.2,2.1,2.1,0,0,1-.083.609,2.721,2.721,0,0,1-.283.6A3.754,3.754,0,0,1,407.722,81.5Z" transform="translate(-389.981 -59.199)" fill="#28aec1"/>
          <path id="패스_176" data-name="패스 176" d="M414.122,67.817a2.547,2.547,0,0,1-.318-.54,2.783,2.783,0,0,1-.184-.6c-.041-.2-.057-.418-.081-.63a6.135,6.135,0,0,1,.073-1.353,13.554,13.554,0,0,1,.271-1.4c.239-.935.5-1.814.728-2.484s.39-1.1.39-1.1.064.1.164.287.232.455.379.789a11.416,11.416,0,0,1,.826,2.574,9.446,9.446,0,0,1,.134,1.512,3.951,3.951,0,0,1-.059.739,4.777,4.777,0,0,1-.15.7,3.184,3.184,0,0,1-.621,1.191,2.973,2.973,0,0,1-1.115.811A2.637,2.637,0,0,1,414.122,67.817Z" transform="translate(-393.501 -51.864)" fill="#28aec1"/>
          <path id="패스_177" data-name="패스 177" d="M400.845,67.524c-.083-.132-.128-.212-.128-.212s.107,0,.291.007.446.027.76.067a10.4,10.4,0,0,1,1.075.188c.195.047.405.1.607.159s.405.135.61.217a6.9,6.9,0,0,1,1.2.606,4.915,4.915,0,0,1,.972.858,2.569,2.569,0,0,1,.342.519,3.141,3.141,0,0,1,.213.567,2.05,2.05,0,0,1-.045,1.247,3.523,3.523,0,0,1-1.351-.032,4.4,4.4,0,0,1-1.164-.45,5.159,5.159,0,0,1-.509-.336c-.082-.061-.158-.124-.233-.191s-.159-.127-.236-.193a7.038,7.038,0,0,1-.829-.85,9.223,9.223,0,0,1-.694-.861c-.049-.068-.1-.138-.143-.206s-.1-.133-.144-.193c-.091-.127-.176-.249-.249-.36C401.037,67.85,400.925,67.656,400.845,67.524Z" transform="translate(-388.002 -55.124)" fill="#28aec1"/>
          <path id="패스_178" data-name="패스 178" d="M408.525,57.025a2.657,2.657,0,0,1-.976-.826A3.107,3.107,0,0,1,407,55.081a9.1,9.1,0,0,1-.285-2.739c0-.239.013-.477.026-.707s.023-.453.04-.67c.032-.437.075-.842.115-1.191.07-.686.147-1.142.147-1.142s.079.09.217.241.325.379.535.67.458.625.688,1.017a11.357,11.357,0,0,1,.656,1.271,8.362,8.362,0,0,1,.466,1.417,5.589,5.589,0,0,1,.132,1.425A3.065,3.065,0,0,1,408.525,57.025Z" transform="translate(-390.576 -47.107)" fill="#28aec1"/>
          <path id="패스_179" data-name="패스 179" d="M396.153,60.824a9.817,9.817,0,0,1-.878-.7c-.266-.228-.509-.442-.7-.635s-.359-.35-.469-.466-.168-.18-.168-.18a10.12,10.12,0,0,1,1.049-.154,10.658,10.658,0,0,1,1.092-.045,8.228,8.228,0,0,1,1.278.1,5.46,5.46,0,0,1,2.445.929,3.073,3.073,0,0,1,.8.917,2.4,2.4,0,0,1,.253,1.221,3.633,3.633,0,0,1-2.557.132,5.037,5.037,0,0,1-1.131-.474A7.5,7.5,0,0,1,396.153,60.824Z" transform="translate(-385.093 -51.404)" fill="#28aec1"/>
          <path id="패스_180" data-name="패스 180" d="M387.606,94.518a21.223,21.223,0,0,0,5.719-4.594,23.149,23.149,0,0,0,3.714-6.4,30.649,30.649,0,0,0,2.615-13.514,31.434,31.434,0,0,0-5.474-15.274,38.995,38.995,0,0,0-2.517-3.421,2.84,2.84,0,0,1-.916-.086,3.616,3.616,0,0,1-1.1-.513c-.159-.122-.318-.256-.464-.391s-.306-.293-.452-.452a12.324,12.324,0,0,1-.782-1.014c-.477-.708-.88-1.442-1.186-1.992-.147-.269-.269-.5-.342-.672-.049-.074-.074-.135-.1-.171a.148.148,0,0,0-.025-.061h.061c.049,0,.122.012.208.012.183.037.452.074.757.147a10.566,10.566,0,0,1,2.272.868,5.966,5.966,0,0,1,2.065,1.784,3.132,3.132,0,0,1,.489,1.186,2.4,2.4,0,0,1-.037,1.1,38.735,38.735,0,0,1,5.23,8.309A29.756,29.756,0,0,1,400.18,70.8a31.5,31.5,0,0,1-2.774,13.1,21.862,21.862,0,0,1-6.146,8.749,33.151,33.151,0,0,1-8.859,4.863c-1.184.478-2.532,1.107-3.959,1.792v-.446A85.409,85.409,0,0,0,387.606,94.518Z" transform="translate(-378.442 -45.96)" fill="#28aec1"/>
        </g>
        <g id="그룹_41" data-name="그룹 41">
          <path id="패스_181" data-name="패스 181" d="M313.523,137.365a4.671,4.671,0,0,0-1.247-.707,4.453,4.453,0,0,0-1.311-.247,10.416,10.416,0,0,0-2.854.358c-.95.233-1.854.516-2.531.749s-1.112.4-1.112.4a11.058,11.058,0,0,0,1.12.546,12.452,12.452,0,0,0,2.692.811,7.217,7.217,0,0,0,3.151-.079A2.84,2.84,0,0,0,313.523,137.365Z" transform="translate(-290.047 -84.779)" fill="#28aec1"/>
          <path id="패스_182" data-name="패스 182" d="M314.636,128.15a5.5,5.5,0,0,0,1.612,2.172,2.851,2.851,0,0,0,1.167.54,2.223,2.223,0,0,0,1.308-.124,4.356,4.356,0,0,0-.674-2.468,7.523,7.523,0,0,0-1.658-1.788,18.428,18.428,0,0,0-1.751-1.237c-.483-.3-.812-.479-.812-.479s0,.108.021.294.05.453.1.771A9.618,9.618,0,0,0,314.636,128.15Z" transform="translate(-294.065 -79.783)" fill="#28aec1"/>
          <path id="패스_183" data-name="패스 183" d="M298.433,132.211A3.023,3.023,0,0,0,300.82,131a3.33,3.33,0,0,0-2.05-1.568,11.233,11.233,0,0,0-2.845-.365c-.981-.029-1.957-.006-2.688,0l-1.222.021s.091.1.262.268.417.389.723.641a11.43,11.43,0,0,0,2.462,1.544A6.7,6.7,0,0,0,298.433,132.211Z" transform="translate(-284.702 -81.624)" fill="#28aec1"/>
          <path id="패스_184" data-name="패스 184" d="M305.625,123.581a2.616,2.616,0,0,0,2.234,1.086,3.625,3.625,0,0,0,.057-2.587,7.965,7.965,0,0,0-1.177-2.172c-.466-.64-.939-1.186-1.287-1.578-.17-.2-.315-.352-.42-.458s-.155-.167-.155-.167-.033.1-.08.273-.1.429-.147.739a7.882,7.882,0,0,0-.013,2.373A5.357,5.357,0,0,0,305.625,123.581Z" transform="translate(-290.083 -76.752)" fill="#28aec1"/>
          <path id="패스_185" data-name="패스 185" d="M285.178,115.785c-.676-.212-1.111-.336-1.111-.336s.041.111.126.3.228.448.4.757.386.667.633,1.046c.124.188.256.381.395.574l.111.148.136.183c.1.119.193.241.288.36a6.172,6.172,0,0,0,2.72,1.96,2.837,2.837,0,0,0,2.68-.389,3.75,3.75,0,0,0-1.479-2.164c-.176-.143-.373-.273-.57-.408s-.409-.263-.623-.389-.433-.265-.658-.392-.422-.22-.64-.323A20.233,20.233,0,0,0,285.178,115.785Z" transform="translate(-281.291 -75.785)" fill="#28aec1"/>
          <path id="패스_186" data-name="패스 186" d="M297.477,114.63a2.4,2.4,0,0,0,1.748,1.706,4.051,4.051,0,0,0,.877-2.4,11.335,11.335,0,0,0-.142-2.176,7.93,7.93,0,0,0-.236-1.07c-.1-.365-.215-.691-.315-.964s-.2-.5-.265-.657-.091-.246-.091-.246-.066.09-.168.252a7.642,7.642,0,0,0-.39.675,12.036,12.036,0,0,0-.907,2.251c-.064.222-.118.45-.163.678a5.929,5.929,0,0,0-.1.654,4.687,4.687,0,0,0,.017.662A3.694,3.694,0,0,0,297.477,114.63Z" transform="translate(-286.98 -72.939)" fill="#28aec1"/>
          <path id="패스_187" data-name="패스 187" d="M282.46,106.557a4.112,4.112,0,0,0,.524.517,5.283,5.283,0,0,0,.571.426,3.079,3.079,0,0,0,2.606.44,2.8,2.8,0,0,0-.081-1.311,2.84,2.84,0,0,0-.254-.577c-.1-.188-.233-.363-.354-.543a8.533,8.533,0,0,0-2.091-1.87,22.822,22.822,0,0,0-2.2-1.369c-.634-.341-1.035-.554-1.035-.554s.019.122.071.326.14.493.259.84a11,11,0,0,0,1.111,2.458A10.01,10.01,0,0,0,282.46,106.557Z" transform="translate(-279.607 -69.89)" fill="#28aec1"/>
          <path id="패스_188" data-name="패스 188" d="M292.969,104.573a2.548,2.548,0,0,0,.832.967,3.512,3.512,0,0,0,1.616-2.034,5.13,5.13,0,0,0,.155-.615c.019-.1.034-.209.047-.31s.032-.212.048-.32a7.919,7.919,0,0,0,.054-1.256,20.884,20.884,0,0,0-.2-2.134c-.046-.278-.1-.506-.135-.665s-.042-.249-.042-.249-.081.071-.212.207a7.1,7.1,0,0,0-.51.575,11.158,11.158,0,0,0-1.315,2.021,6.09,6.09,0,0,0-.63,2.6,2.384,2.384,0,0,0,.083.63A2.815,2.815,0,0,0,292.969,104.573Z" transform="translate(-284.984 -68.277)" fill="#28aec1"/>
          <path id="패스_189" data-name="패스 189" d="M280.4,92.5a5.551,5.551,0,0,0,.394.625,5.69,5.69,0,0,0,.479.535,3.051,3.051,0,0,0,2.482.942,2.784,2.784,0,0,0,.169-1.3,3.262,3.262,0,0,0-.138-.615,4.514,4.514,0,0,0-.224-.6,5.914,5.914,0,0,0-.726-1.165c-.15-.188-.3-.376-.446-.565s-.307-.365-.466-.543c-.644-.71-1.358-1.359-1.852-1.846-.51-.479-.87-.789-.87-.789s-.013.493.03,1.234a11.621,11.621,0,0,0,.187,1.258c.041.23.093.466.151.707a5.369,5.369,0,0,0,.209.723A10.373,10.373,0,0,0,280.4,92.5Z" transform="translate(-279.204 -63.653)" fill="#28aec1"/>
          <path id="패스_190" data-name="패스 190" d="M290.741,94.06A3.6,3.6,0,0,0,292.72,92.4a4.628,4.628,0,0,0,.27-.554,5.777,5.777,0,0,0,.24-.58,7.149,7.149,0,0,0,.3-1.178c.074-.384.154-.76.192-1.107.021-.175.034-.341.047-.5s.016-.307.034-.442a7.18,7.18,0,0,0,.052-.9,9.909,9.909,0,0,0-.884.575c-.128.092-.267.2-.414.315s-.3.244-.438.378a10.276,10.276,0,0,0-.872.938c-.142.172-.277.355-.409.543-.062.1-.126.193-.186.291s-.107.2-.155.3a5.119,5.119,0,0,0-.428,1.242,3.416,3.416,0,0,0-.059.628,2.824,2.824,0,0,0,.1.609A2.526,2.526,0,0,0,290.741,94.06Z" transform="translate(-283.843 -63.635)" fill="#28aec1"/>
          <path id="패스_191" data-name="패스 191" d="M283.491,76.028c-.22-.421-.457-.834-.687-1.218s-.451-.733-.63-1.03c-.371-.593-.64-.98-.64-.98s-.14.469-.287,1.192c-.056.368-.107.8-.14,1.269-.02.233-.033.474-.039.72s.016.5.039.76a8.589,8.589,0,0,0,.24,1.507,5.812,5.812,0,0,0,.574,1.351,2.972,2.972,0,0,0,2.194,1.5,2.786,2.786,0,0,0,.294-.6,3.153,3.153,0,0,0,.166-.609,3.252,3.252,0,0,0-.064-1.263,6.539,6.539,0,0,0-.4-1.3C283.926,76.892,283.7,76.453,283.491,76.028Z" transform="translate(-280.003 -57.48)" fill="#28aec1"/>
          <path id="패스_192" data-name="패스 192" d="M292.6,81.5a4.9,4.9,0,0,0,.755-.954,7.171,7.171,0,0,0,.6-1.033c.087-.172.151-.344.233-.511s.154-.331.217-.49c.134-.318.228-.614.315-.866a7.511,7.511,0,0,0,.277-.842,9.481,9.481,0,0,0-1,.323,8.917,8.917,0,0,0-2.079,1.112,5.7,5.7,0,0,0-.529.421,6.2,6.2,0,0,0-.467.474,4.639,4.639,0,0,0-.731,1.083,3.053,3.053,0,0,0-.26,1.2,2.1,2.1,0,0,0,.083.609,2.743,2.743,0,0,0,.282.6A3.754,3.754,0,0,0,292.6,81.5Z" transform="translate(-283.807 -59.199)" fill="#28aec1"/>
          <path id="패스_193" data-name="패스 193" d="M287.772,67.817a2.547,2.547,0,0,0,.318-.54,2.784,2.784,0,0,0,.184-.6c.041-.2.057-.418.081-.63a6.135,6.135,0,0,0-.073-1.353,13.538,13.538,0,0,0-.271-1.4c-.239-.935-.5-1.814-.728-2.484s-.391-1.1-.391-1.1-.063.1-.164.287-.232.455-.379.789a11.414,11.414,0,0,0-.826,2.574,9.45,9.45,0,0,0-.134,1.512,4,4,0,0,0,.058.739,4.858,4.858,0,0,0,.15.7,3.185,3.185,0,0,0,.621,1.191,2.973,2.973,0,0,0,1.115.811A2.642,2.642,0,0,0,287.772,67.817Z" transform="translate(-281.858 -51.864)" fill="#28aec1"/>
          <path id="패스_194" data-name="패스 194" d="M298.671,67.524c.083-.132.128-.212.128-.212s-.107,0-.291.007-.446.027-.76.067a10.4,10.4,0,0,0-1.075.188c-.2.047-.405.1-.607.159s-.405.135-.61.217a6.9,6.9,0,0,0-1.2.606,4.916,4.916,0,0,0-.972.858,2.571,2.571,0,0,0-.342.519,3.144,3.144,0,0,0-.213.567,2.05,2.05,0,0,0,.045,1.247,3.524,3.524,0,0,0,1.351-.032,4.4,4.4,0,0,0,1.164-.45,5.156,5.156,0,0,0,.509-.336c.082-.061.158-.124.233-.191s.159-.127.236-.193a7.034,7.034,0,0,0,.829-.85,9.313,9.313,0,0,0,.694-.861c.049-.068.1-.138.143-.206s.1-.133.144-.193c.091-.127.176-.249.249-.36C298.479,67.85,298.591,67.656,298.671,67.524Z" transform="translate(-284.978 -55.124)" fill="#28aec1"/>
          <path id="패스_195" data-name="패스 195" d="M293.331,57.025a2.65,2.65,0,0,0,.976-.826,3.1,3.1,0,0,0,.55-1.118,9.1,9.1,0,0,0,.285-2.739c0-.239-.013-.477-.026-.707s-.023-.453-.04-.67c-.032-.437-.075-.842-.115-1.191-.07-.686-.147-1.142-.147-1.142s-.079.09-.217.241-.325.379-.535.67-.458.625-.688,1.017a11.357,11.357,0,0,0-.656,1.271,8.362,8.362,0,0,0-.466,1.417,5.589,5.589,0,0,0-.132,1.425A3.065,3.065,0,0,0,293.331,57.025Z" transform="translate(-284.745 -47.107)" fill="#28aec1"/>
          <path id="패스_196" data-name="패스 196" d="M302.777,60.824a9.808,9.808,0,0,0,.878-.7c.266-.228.509-.442.7-.635s.359-.35.469-.466.168-.18.168-.18a10.12,10.12,0,0,0-1.049-.154,10.659,10.659,0,0,0-1.092-.045,8.229,8.229,0,0,0-1.278.1,5.46,5.46,0,0,0-2.445.929,3.073,3.073,0,0,0-.8.917,2.406,2.406,0,0,0-.253,1.221,3.633,3.633,0,0,0,2.557.132,5.036,5.036,0,0,0,1.131-.474A7.5,7.5,0,0,0,302.777,60.824Z" transform="translate(-287.302 -51.404)" fill="#28aec1"/>
          <path id="패스_197" data-name="패스 197" d="M300.171,94.518a21.224,21.224,0,0,1-5.719-4.594,23.151,23.151,0,0,1-3.714-6.4,30.641,30.641,0,0,1-2.615-13.514A31.429,31.429,0,0,1,293.6,54.733a38.983,38.983,0,0,1,2.517-3.421,2.839,2.839,0,0,0,.916-.086,3.623,3.623,0,0,0,1.1-.513c.159-.122.317-.256.464-.391s.306-.293.452-.452a12.317,12.317,0,0,0,.782-1.014c.477-.708.88-1.442,1.186-1.992.147-.269.269-.5.342-.672.049-.074.074-.135.1-.171a.148.148,0,0,1,.025-.061h-.061c-.049,0-.122.012-.208.012-.183.037-.452.074-.757.147a10.58,10.58,0,0,0-2.273.868,5.969,5.969,0,0,0-2.065,1.784,3.133,3.133,0,0,0-.489,1.186,2.4,2.4,0,0,0,.037,1.1,38.736,38.736,0,0,0-5.23,8.309A29.756,29.756,0,0,0,287.6,70.8a31.5,31.5,0,0,0,2.774,13.1,21.863,21.863,0,0,0,6.146,8.749,33.15,33.15,0,0,0,8.859,4.863c1.184.478,2.531,1.107,3.959,1.792v-.446A85.414,85.414,0,0,1,300.171,94.518Z" transform="translate(-282.799 -45.96)" fill="#28aec1"/>
        </g>
      </g>
    </g>
  </g>
</svg>
