<svg xmlns="http://www.w3.org/2000/svg" width="142.999" height="47.951" viewBox="0 0 142.999 47.951">
  <g id="logo_coupang_fs" transform="translate(-192.636 -201.752)">
    <g id="그룹_5246" data-name="그룹 5246" transform="translate(192.636 201.752)">
      <path id="패스_15121" data-name="패스 15121" d="M209.208,206.9l-2.855,2.427a4.78,4.78,0,0,0-4.309-2.836c-3.157,0-5.036,1.2-5.036,4.736v4.937c0,1.329.547,4.835,4.128,4.835a6.073,6.073,0,0,0,5.16-2.792l3.034,2.307a9.333,9.333,0,0,1-8.072,4.371c-5.69,0-8.62-4.116-8.62-8.221,0-3.6.123-2.925.123-6.423s2.784-6.976,7.343-7.452S207.981,204.513,209.208,206.9Z" transform="translate(-192.636 -202.417)" fill="#4b1f1e" fill-rule="evenodd"/>
      <path id="패스_15122" data-name="패스 15122" d="M317.629,204.08h4.309s-.062,9.761-.062,12.2.954,5.77,4.249,5.77,4.616-1.516,4.616-5.648V204.2h4.306v21.491h-3.7v-1.947a10.463,10.463,0,0,1-6.314,2.187,7.676,7.676,0,0,1-7.405-7.772C317.629,213.667,317.568,204.08,317.629,204.08Z" transform="translate(-277.931 -203.341)" fill="#4b1f1e" fill-rule="evenodd"/>
      <path id="패스_15123" data-name="패스 15123" d="M534.094,225.918h-4.309s.061-9.762.061-12.2-.952-5.767-4.249-5.767-4.613,2.276-4.613,6.18V225.8h-4.309v-21.49h3.7v1.944s1.178-2.336,5.855-2.185,7.861,3.274,7.861,7.77S534.155,225.918,534.094,225.918Z" transform="translate(-413.808 -203.326)" fill="#c3c700" fill-rule="evenodd"/>
      <path id="패스_15124" data-name="패스 15124" d="M258.973,202.746h2.22a7.481,7.481,0,0,1,7.448,7.475V217.3a7.482,7.482,0,0,1-7.448,7.474h-2.22a7.486,7.486,0,0,1-7.45-7.474v-7.082a7.485,7.485,0,0,1,7.45-7.475Zm.307,3.761c-2.062,0-3.75,2.07-3.75,4.6v5.317c0,2.526,1.688,4.595,3.75,4.595h1.728c2.064,0,3.75-2.068,3.75-4.595V211.1c0-2.526-1.686-4.6-3.75-4.6Z" transform="translate(-232.829 -202.43)" fill="#4b1f1e" fill-rule="evenodd"/>
      <path id="패스_15125" data-name="패스 15125" d="M385.755,203.745v30.108h4.676V223.838s.964,1.517,5.22,1.517a7.84,7.84,0,0,0,7.77-7.407v-7.223c0-2.125-1.814-7.046-6.618-7.285s-6.256,1.029-6.916,2.309v-2.065l-4.131.062Zm8.054,3.216h2.13c2.06,0,3.749,2.07,3.749,4.6v5.317c0,2.526-1.689,4.595-3.749,4.595h-2.13c-2.062,0-3.751-2.068-3.751-4.595v-5.317C390.058,209.031,391.747,206.961,393.809,206.961Z" transform="translate(-324.449 -202.885)" fill="#dd0321" fill-rule="evenodd"/>
      <path id="패스_15126" data-name="패스 15126" d="M452.07,204.07l1.759,2.914a7.885,7.885,0,0,1,5.281-1.152c3.4.3,4.189,2.609,4.129,4.611a8.468,8.468,0,0,0-4.919-1.214c-3.336,0-6.555,2.184-7.222,4.856s-.607,8.922,4.735,9.954,7.832-1.882,7.832-1.882v2h3.642v-15.3c0-7.639-10.616-8.933-15.236-4.793Zm6.493,8.638h.55a3.646,3.646,0,0,1,3.634,3.636v.729a3.647,3.647,0,0,1-3.634,3.638h-.55a3.647,3.647,0,0,1-3.636-3.638v-.729A3.646,3.646,0,0,1,458.563,212.708Z" transform="translate(-368.849 -201.752)" fill="#feb127" fill-rule="evenodd"/>
      <path id="패스_15127" data-name="패스 15127" d="M596.043,205.232a4.776,4.776,0,0,1,5.489-1.327l.058,3.216a3.678,3.678,0,0,0-3.541.682,7.8,7.8,0,0,1,.761,3.376h0a7.346,7.346,0,0,1-7.11,7.52c-2.5,0-3.316.167-5.554,3.334-.349.672.274.4.274.4,1.374-.8,5.9-1.119,8.826-.545a7.19,7.19,0,0,1,5.906,6.633c.1,3.537-5.32,6.78-5.32,6.78l-1.855-3.1c1.784-1.786,4.154-2.989,1.889-5.469s-7.83-1.128-10.44-.545-3.187-2.255-2.954-4.4,2.309-3.686,3.123-4.264a7.64,7.64,0,0,1-3.308-6.346h0a7.344,7.344,0,0,1,7.11-7.52h2.3a6.842,6.842,0,0,1,4.341,1.574Zm-5.8,1.864A4.061,4.061,0,0,0,586,210.921v.769a4.059,4.059,0,0,0,4.241,3.823h.643a4.059,4.059,0,0,0,4.243-3.823v-.769a4.06,4.06,0,0,0-4.243-3.824Z" transform="translate(-458.592 -202.983)" fill="#41b1e1" fill-rule="evenodd"/>
    </g>
    <text id="Fulfillment_Services" data-name="Fulfillment Services" transform="translate(194.969 247.703)" fill="#1a1311" font-size="11" font-family="ArialNarrow-Bold, Arial Narrow" font-weight="700" letter-spacing="0.18em"><tspan x="0" y="0">Fulfillment Services</tspan></text>
  </g>
</svg>
