<svg xmlns="http://www.w3.org/2000/svg" width="97.466" height="33.743" viewBox="0 0 97.466 33.743">
    <path data-name="사각형 2304" d="M1.954 0a1.954 1.954 0 0 1 1.954 1.954v4.208a1.956 1.956 0 0 1-1.956 1.956H.835A.835.835 0 0 1 0 7.283V1.954A1.954 1.954 0 0 1 1.954 0z" transform="translate(85.667 .058)" style="fill:#ed1c24"/>
    <path data-name="패스 6964" d="M448.209 200.765h-3.7a2.313 2.313 0 0 1-2.312-2.312v-11.418h6a1.932 1.932 0 1 0 0-3.864h-8.97a.9.9 0 0 0-.9.9v14.262a8.266 8.266 0 0 0 .063.888 6.162 6.162 0 0 0 6.115 5.4h3.7a1.925 1.925 0 1 0 0-3.85z" transform="translate(-352.668 -171.915)" style="fill:#ed1c24"/>
    <path data-name="패스 6965" d="M410.989 183.751a8.113 8.113 0 0 0-6.589-2.756 8 8 0 0 0-6.364 2.679 10.625 10.625 0 0 0-2.371 7.317v2.571a10.34 10.34 0 0 0 2.432 7.305 8.374 8.374 0 0 0 6.642 2.614 12.379 12.379 0 0 0 4.614-.778 19.216 19.216 0 0 0 2.336-1.129 2.616 2.616 0 0 0 .364-.293c.023-.022.14-.16.14-.16a1.785 1.785 0 0 0 .4-1.122 1.818 1.818 0 0 0-1.815-1.816 1.793 1.793 0 0 0-.768.176l-.188.1a15.8 15.8 0 0 1-1.719.816 8.987 8.987 0 0 1-3.325.566 4.487 4.487 0 0 1-3.762-1.552 6.6 6.6 0 0 1-1.448-4.4h11.224a2.437 2.437 0 0 0 2.441-2.658v-.161a11.153 11.153 0 0 0-2.244-7.319zm-10.089 2.464a4.1 4.1 0 0 1 3.5-1.577 4.457 4.457 0 0 1 3.627 1.489 6.7 6.7 0 0 1 1.475 4.232h-9.934a6.7 6.7 0 0 1 1.332-4.144z" transform="translate(-330.439 -170.781)" style="fill:#ed1c24"/>
    <path data-name="패스 6966" d="M268.944 169.83a9.393 9.393 0 0 0-5.526 1.786v-9.987a1.954 1.954 0 0 0-1.954-1.954 1.954 1.954 0 0 0-1.955 1.954v28.733a1.954 1.954 0 0 0 1.955 1.954 1.954 1.954 0 0 0 1.954-1.954v-11.1a5.525 5.525 0 1 1 11.051 0v11.1a1.954 1.954 0 0 0 1.955 1.954 1.954 1.954 0 0 0 1.954-1.954v-11.1a9.434 9.434 0 0 0-9.434-9.432z" style="fill:#ed1c24" transform="translate(-259.51 -159.675)"/>
    <path data-name="패스 6967" d="M352.233 203.482a1.955 1.955 0 0 0 1.955-1.954v-11.1a5.525 5.525 0 1 1 11.051 0v11.1a1.954 1.954 0 0 0 1.954 1.954 1.954 1.954 0 0 0 1.955-1.954v-11.1a9.434 9.434 0 0 0-18.868 0v11.1a1.954 1.954 0 0 0 1.954 1.954z" transform="translate(-306.795 -170.782)" style="fill:#ed1c24"/>
    <path data-name="패스 6968" d="M321.809 183.171a1.954 1.954 0 0 0-1.954 1.955v11.1a5.526 5.526 0 0 1-11.052 0v-11.1a1.954 1.954 0 0 0-1.954-1.955 1.955 1.955 0 0 0-1.955 1.955v11.1a9.434 9.434 0 0 0 18.868 0v-11.1a1.955 1.955 0 0 0-1.955-1.955z" transform="translate(-283.153 -171.915)" style="fill:#ed1c24"/>
</svg>
