<svg xmlns="http://www.w3.org/2000/svg" width="170.611" height="25.454" viewBox="0 0 170.611 25.454">
  <g id="그룹_322" data-name="그룹 322" transform="translate(-53.551 -67.825)">
    <g id="그룹_319" data-name="그룹 319" transform="translate(130.769 71.867)">
      <path id="패스_993" data-name="패스 993" d="M334.216,69.586h0V73.5c0,1.276-.038,2.328-.123,3.154a4.547,4.547,0,0,1-.713,2.123h2.7a6.238,6.238,0,0,0,.848-2.085,12.716,12.716,0,0,0,.31-2.986V67.269H323.692v1.589h9.951c.116.007.573.08.573.728M332.723,80v-6.87h-3.582a1.08,1.08,0,0,1,.62,1.02l.015-.005V80H328.25v-6.87h-3.57a1.08,1.08,0,0,1,.618,1.02l.008-.005V80h-3v1.567h16.751V80Z" transform="translate(-245.664 -66.725)" fill="#12100f"/>
      <path id="패스_994" data-name="패스 994" d="M292.9,76.51a5.049,5.049,0,0,0,3.326-1.134,3.4,3.4,0,0,0,1.369-2.7,3.047,3.047,0,0,0-.408-1.547,3.718,3.718,0,0,0-1.133-1.237h2.251V68.366h-3.884V66.323h-2.616v-.005h-1.1a.832.832,0,0,1,.65.755v1.293h-3.878v1.529h2.248a3.87,3.87,0,0,0-1.115,1.237,3.072,3.072,0,0,0-.41,1.547,3.372,3.372,0,0,0,1.391,2.7A5.028,5.028,0,0,0,292.9,76.51m-1.25-5.494a1.484,1.484,0,0,1,2.509,0,2.656,2.656,0,0,1,.531,1.661,2.713,2.713,0,0,1-.531,1.67,1.477,1.477,0,0,1-2.509,0,2.631,2.631,0,0,1-.542-1.67,2.576,2.576,0,0,1,.542-1.661m-2.158,8.2h10.418v4.456h3.062V77.648h-13.48Zm13.48-9.12v-3.5h-3.706a.831.831,0,0,1,.644.742V76.51h3.062V72.217a.47.47,0,0,1,.41-.531h2.652V70.1Z" transform="translate(-230.774 -66.318)" fill="#12100f"/>
      <path id="패스_995" data-name="패스 995" d="M267.723,66.82h-.651a.832.832,0,0,1,.648.753h0v3.885h-1.338a.448.448,0,0,1-.481-.408V66.82h-3.545a.838.838,0,0,1,.647.728v8.267a5.272,5.272,0,0,1-.933.256,6.93,6.93,0,0,1-1.363.113h-3.065V69.053h3.819V67.464h-6.833v8.5a1.656,1.656,0,0,0,.566,1.317,2.277,2.277,0,0,0,1.547.492h3.85a5.264,5.264,0,0,0,1.435-.171,4.17,4.17,0,0,0,.977-.423V83.9h2.9V73.033h1.819V83.9h2.905V66.82Z" transform="translate(-216.733 -66.533)" fill="#12100f"/>
      <path id="패스_996" data-name="패스 996" d="M227.673,82.315a.464.464,0,0,1-.472-.339V78.188H224.14v3.858a1.661,1.661,0,0,0,.6,1.362,2.281,2.281,0,0,0,1.511.493h11.07V82.315Zm-1.63-8.708a6.831,6.831,0,0,0,4.589,3.427l1.1-1.612a6.151,6.151,0,0,1-2.687-1.692,5.388,5.388,0,0,1-1.439-3.878V67.088H224.5v2.766a5.427,5.427,0,0,1-1.425,3.858,5.993,5.993,0,0,1-2.692,1.7l1.089,1.621a7.6,7.6,0,0,0,4.57-3.427m7.535-6.118V79.447h3.066V66.82h-3.7a.855.855,0,0,1,.635.668" transform="translate(-202.092 -66.533)" fill="#12100f"/>
      <path id="패스_997" data-name="패스 997" d="M197.721,68.661a6.012,6.012,0,0,0-7.692,0,4.381,4.381,0,0,0,0,6.765,6.006,6.006,0,0,0,7.692,0,4.37,4.37,0,0,0,0-6.765m-2.165,5.661a2.057,2.057,0,0,1-1.654.932,2.094,2.094,0,0,1-1.695-.924,3.546,3.546,0,0,1-.714-2.255,3.693,3.693,0,0,1,.7-2.309,1.981,1.981,0,0,1,3.358,0,3.643,3.643,0,0,1,.7,2.267,3.68,3.68,0,0,1-.7,2.289m8.487-3.28V66.817h-3.066v0h-.653a.83.83,0,0,1,.649.752h0V83.9h3.066V73.124a.459.459,0,0,1,.449-.5H207.1V71.041Z" transform="translate(-188.432 -66.531)" fill="#12100f"/>
    </g>
    <path id="패스_998" data-name="패스 998" d="M86.8,68.95c-18.363,0-33.251,5.7-33.251,12.726S68.439,94.4,86.8,94.4s33.254-5.7,33.254-12.728S105.167,68.95,86.8,68.95" transform="translate(0 -1.125)" fill="#00565d"/>
    <path id="패스_999" data-name="패스 999" d="M85.922,88.392c-.5-.468-.653-1.5-.436-2.9a3.832,3.832,0,0,1,.921-2.181,4.04,4.04,0,0,1,2.481-.631l4.363,0,.461-2.609H89.056a6.859,6.859,0,0,0-2.856.422,4.887,4.887,0,0,0-2.039,1.563,7.9,7.9,0,0,0-1.444,3.726,7.351,7.351,0,0,0,.094,3.178,3.317,3.317,0,0,0,2.66,2.439,9.031,9.031,0,0,0,1.687.128l4.531.015.463-2.624-4.432-.033a2.828,2.828,0,0,1-1.8-.491m8.709-5.711h4.2c-.159.9-1.561,8.854-1.561,8.854h2.9s1.381-7.88,1.538-8.777h3.5l.477-2.694H97.868a3.508,3.508,0,0,0-3.238,2.617m14.837.562c.208-.678,1.6-.53,2.429-.534h4.151l.476-2.688h-5.212l-1.43.042a3.682,3.682,0,0,0-2.433,1.116,4.269,4.269,0,0,0-1.079,2.127,3.053,3.053,0,0,0,.059,1.4,2.339,2.339,0,0,0,.659,1.1,3.907,3.907,0,0,0,2.628.688h1.942c1.831,0,1.579.946,1.558,1.212-.216,1.146-1.46,1.139-1.75,1.139l-6.04.013-.468,2.68h6.03c4.739,0,5.028-3.6,5.112-4.085a3.743,3.743,0,0,0-.068-1.7,2.114,2.114,0,0,0-1.461-1.443,6.251,6.251,0,0,0-1.98-.226h-1.683a2.93,2.93,0,0,1-1.162-.149.517.517,0,0,1-.279-.691m-27.709,8.3L79.592,81.4c.813-.673,1.907-1.7,1.907-1.7a10.073,10.073,0,0,1-2.707.339h-.9a3.32,3.32,0,0,0-2.676,1.844L69.6,91.535h2.921s3.768-6.577,4.726-8.254c.14.712.406,2.111.689,3.553h-1.5L75.4,88.871h2.92c.289,1.491.517,2.668.517,2.668Z" transform="translate(-6.859 -5.724)" fill="#fff"/>
  </g>
</svg>
