<svg xmlns="http://www.w3.org/2000/svg" width="136" height="40.944" viewBox="0 0 136 40.944">
  <g id="logo_sw" transform="translate(-446.559 -171.967)">
    <g id="그룹_4550" data-name="그룹 4550" transform="translate(446.559 171.967)">
      <g id="그룹_4545" data-name="그룹 4545" transform="translate(31.042 8.494)">
        <g id="그룹_4544" data-name="그룹 4544">
          <path id="패스_10412" data-name="패스 10412" d="M520.095,199.166l-.827-.3c-2.552-.906-3.779-1.389-3.779-2.463,0-.994,1.666-1.717,3.962-1.717a7.485,7.485,0,0,1,6.282,3.009l1.463,1.8v-7.409l-.241-.241c-1.628-1.627-4.389-2.561-7.577-2.561-5.511,0-9.512,3.01-9.512,7.156,0,5.089,3.367,6.193,7.265,7.472.37.121.749.246,1.132.375,3.472,1.195,4.571,1.659,4.6,3.455a1.41,1.41,0,0,1-.4,1.074c-.4.392-1.355.852-3.689.827-2.272.036-5.557-1-7.193-2.977l-1.458-1.767v7.5l.349.246a16.665,16.665,0,0,0,8.249,2.471h.134c3.224.024,5.849-.86,7.547-2.547a6.654,6.654,0,0,0,1.97-4.829C528.374,202.062,523.785,200.455,520.095,199.166Z" transform="translate(-509.866 -189.289)" fill="#302d2c"/>
          <path id="패스_10413" data-name="패스 10413" d="M566.565,192.51a6.277,6.277,0,0,1,.879,3.376v.969l-1.13,10.773-2.738-15.119h-4.894l-2.737,15.119-1.586-15.119h-6.471a10.482,10.482,0,0,1,1.377,3.064l2.4,20.548.008.073h7.011l2.443-12.139,2.43,12.073.014.066h7.011l2.767-23.685Z" transform="translate(-529.244 -190.931)" fill="#302d2c"/>
        </g>
      </g>
      <g id="그룹_4549" data-name="그룹 4549">
        <g id="그룹_4548" data-name="그룹 4548">
          <g id="그룹_4546" data-name="그룹 4546" transform="translate(14.083 27.296)">
            <path id="패스_10414" data-name="패스 10414" d="M475.281,234.457v-6.824l5.91,3.412,5.91,3.412-5.91,3.412-5.91,3.412Z" transform="translate(-475.281 -227.633)" fill="#5e0000"/>
          </g>
          <g id="그룹_4547" data-name="그룹 4547" transform="translate(2.263)">
            <path id="패스_10415" data-name="패스 10415" d="M462.993,178.79v-6.824l-5.91,3.412-5.91,3.412,5.91,3.412,5.91,3.412Z" transform="translate(-451.173 -171.967)" fill="#5e0000"/>
          </g>
          <path id="패스_10416" data-name="패스 10416" d="M458.378,234.459v-6.824l-5.91,3.412-5.91,3.412,5.91,3.412,5.91,3.412Z" transform="translate(-446.559 -200.338)" fill="#5e0000"/>
          <path id="패스_10417" data-name="패스 10417" d="M479.743,178.843v-6.824l5.91,3.412,5.91,3.412-5.91,3.412-5.91,3.412Z" transform="translate(-463.472 -171.993)" fill="#5e0000"/>
        </g>
        <path id="패스_10418" data-name="패스 10418" d="M474.815,199.534l-5.909-3.412L463,192.711h0l-5.909-3.412-5.91-3.412v13.647h0l5.909,3.412L463,206.357h0l5.909,3.412,5.91,3.412V199.534h0Z" transform="translate(-448.913 -179.061)" fill="#cb000b"/>
      </g>
    </g>
    <g id="그룹_4556" data-name="그룹 4556" transform="translate(526.382 195.7)">
      <g id="그룹_4551" data-name="그룹 4551" transform="translate(0)">
        <path id="패스_10419" data-name="패스 10419" d="M611.071,229.592a6.65,6.65,0,0,1-1.721-4.515v-.214a6.613,6.613,0,0,1,1.721-4.494h1.007a7.433,7.433,0,0,0-1.488,4.413v.316a7.745,7.745,0,0,0,1.488,4.494Z" transform="translate(-609.35 -220.369)" fill="#302d2c"/>
        <path id="패스_10420" data-name="패스 10420" d="M618.707,229.892v-3.258h-3.055V225.48h7.365v1.154h-3.105v3.258Zm-2.753-6.128c1.316-.144,2.53-.889,2.658-2.044h-2.339V220.6h6.118v1.123h-2.359c.138,1.145,1.386,1.88,2.694,2.024l-.473,1.123a3.86,3.86,0,0,1-2.926-1.828,3.85,3.85,0,0,1-2.9,1.838C616.272,224.5,616.108,224.142,615.954,223.765Z" transform="translate(-612.562 -220.486)" fill="#302d2c"/>
        <path id="패스_10421" data-name="패스 10421" d="M631.4,229.592a7.478,7.478,0,0,0,1.506-4.413v-.327a7.78,7.78,0,0,0-1.506-4.484h1.016a6.719,6.719,0,0,1,1.7,4.5v.214a6.7,6.7,0,0,1-1.7,4.505Z" transform="translate(-620.589 -220.369)" fill="#302d2c"/>
      </g>
      <g id="그룹_4555" data-name="그룹 4555" transform="translate(14.998 0.188)">
        <g id="그룹_4554" data-name="그룹 4554">
          <g id="그룹_4552" data-name="그룹 4552">
            <path id="패스_10422" data-name="패스 10422" d="M642.858,224.013a5.327,5.327,0,0,0,2.259,1.953l.117.059.566-1.462-.139-.028a2.759,2.759,0,0,1-2.17-2.888v-.538h-1.729l.124.186a1.427,1.427,0,0,1,.194.76l0,.068a2.517,2.517,0,0,1-2,2.452l-.143.028.6,1.452.111-.046A4.354,4.354,0,0,0,642.858,224.013Z" transform="translate(-639.937 -220.934)" fill="#302d2c"/>
            <path id="패스_10423" data-name="패스 10423" d="M652.022,227.08h1.4v-6.328h-1.9l.172.2a1.721,1.721,0,0,1,.349,1.2v.3h-1.6v1.143h1.576Z" transform="translate(-645.293 -220.752)" fill="#302d2c"/>
            <path id="패스_10424" data-name="패스 10424" d="M644.828,231.921h-1.771l.135.189a2.114,2.114,0,0,1,.258,1.254v.875c0,.623.437.995,1.17.995h5.217v-1.173h-5.01Z" transform="translate(-641.527 -226.444)" fill="#302d2c"/>
            <path id="패스_10425" data-name="패스 10425" d="M663.628,225.194c1.826,0,2.917-.819,2.917-2.191s-1.091-2.192-2.917-2.192-2.917.819-2.917,2.192S661.8,225.194,663.628,225.194Zm0-3.18c1,0,1.6.37,1.6.989s-.611.989-1.6.989-1.6-.379-1.6-.989S662.644,222.014,663.628,222.014Z" transform="translate(-650.525 -220.782)" fill="#302d2c"/>
            <path id="패스_10426" data-name="패스 10426" d="M659.685,230.778a1.873,1.873,0,0,1-1.248-.334l-.194-.154v1.642H661.7V234.5h1.377v-2.568H666.4v-1.153Z" transform="translate(-649.266 -225.613)" fill="#302d2c"/>
          </g>
          <g id="그룹_4553" data-name="그룹 4553" transform="translate(17.705 0.068)">
            <path id="패스_10427" data-name="패스 10427" d="M678.745,224.916a1.2,1.2,0,0,1-.761-.14l-.194-.152v1.468h6.175V224.9h-.881v-2.549h.9v-1.137h-5.05a1.709,1.709,0,0,1-1-.158l-.2-.163v1.475h1.011Zm1.243,0v-2.55h1.854v2.55Z" transform="translate(-676.906 -220.891)" fill="#302d2c"/>
            <path id="패스_10428" data-name="패스 10428" d="M677.53,234.565c-.6.013-1,.022-1.269-.337l-.216-.29v1.826h7.762v-1.2H677.9C677.77,234.56,677.647,234.562,677.53,234.565Z" transform="translate(-676.045 -227.54)" fill="#302d2c"/>
            <path id="패스_10429" data-name="패스 10429" d="M705.062,221.245a2.063,2.063,0,0,1,.243,1.015v7.391h1.288v-8.586h-1.637Z" transform="translate(-690.78 -220.98)" fill="#302d2c"/>
            <path id="패스_10430" data-name="패스 10430" d="M700.784,221.245a2.067,2.067,0,0,1,.243,1.015v1.9H699.97v1.121h1.057v4.368h1.287v-8.586h-1.636Z" transform="translate(-688.239 -220.98)" fill="#302d2c"/>
            <path id="패스_10431" data-name="패스 10431" d="M696.826,227.075a15.03,15.03,0,0,1-2.711.279v-1.464h1.927v-3.849h-2.393a1.422,1.422,0,0,1-.77-.2l-.189-.134v1.56h2.076v1.4H692.81V228.6l.117,0q.189,0,.375,0a16.372,16.372,0,0,0,3.694-.412l.107-.024-.154-1.116Z" transform="translate(-684.528 -221.306)" fill="#302d2c"/>
            <path id="패스_10432" data-name="패스 10432" d="M720.1,221.084l.158.195a1.967,1.967,0,0,1,.39,1.254v7.119h1.324v-8.568Z" transform="translate(-698.498 -220.989)" fill="#302d2c"/>
            <path id="패스_10433" data-name="패스 10433" d="M712.3,224.083V222.2h-1.671a2.044,2.044,0,0,1,.286,1.1v.835a4.33,4.33,0,0,1-2.187,4.118l.829,1.027a4.62,4.62,0,0,0,2.064-2.479,4.736,4.736,0,0,0,2.045,2.262l.773-1.065A4.1,4.1,0,0,1,712.3,224.083Z" transform="translate(-692.703 -221.558)" fill="#302d2c"/>
          </g>
        </g>
      </g>
    </g>
  </g>
</svg>
