<svg id="그룹_220" data-name="그룹 220" xmlns="http://www.w3.org/2000/svg" width="133.424" height="45.393" viewBox="0 0 133.424 45.393">
  <path id="패스_563" data-name="패스 563" d="M226.96,363.167c-10.394-6.314-22.214-2.851-23.776,7.129,0,0-1.495,6.178,5.3,9.913l.815.339s5.571,2.784,13.587-3.191c0,0,10.6-6.111,9.239,10.727l-.2,1.086c0,.068-.068.2.068.271s.2-.135.272-.135l1.223-2.241A17.86,17.86,0,0,0,226.96,363.167Z" transform="translate(-203.045 -357.843)" fill="#00529c"/>
  <path id="패스_564" data-name="패스 564" d="M276.9,356.228a10.229,10.229,0,0,0-2.038.068,15.061,15.061,0,0,0-13.926,12.968c-.544,7.74-.34,11.814-4.756,18.264,0,0-.068.2-.136.2-.068.136,0,.272.136.2.068,0,.2-.136.2-.136C266.232,379.992,273.976,368.721,276.9,356.228Z" transform="translate(-226.012 -356.2)" fill="#009b7c"/>
  <path id="패스_565" data-name="패스 565" d="M259.462,410.954l-.408-.339s-2.378-2.444-8.22-.272c0,0-6.726,2.037-3.6-7.536a.685.685,0,0,0,.068-.2c.068-.2-.068-.2-.2-.2-.068,0-.2.136-.2.136l-.612.679a10.539,10.539,0,0,0,0,14.53c5.027,5.3,12.228,5.16,14.606-.339C260.888,417.4,262.723,414.146,259.462,410.954Z" transform="translate(-220.533 -376.232)" fill="#009b7c"/>
  <path id="패스_566" data-name="패스 566" d="M294.052,356.73c-7.133,0-14.334,5.228-17.73,11.134-6.794,10.32-9.715,15.277-17.866,20.3l-.136.068a.13.13,0,0,0,.068.2l.136-.067a92.939,92.939,0,0,0,41.507-30.757A19.3,19.3,0,0,0,294.052,356.73Z" transform="translate(-226.999 -356.43)" fill="#fac81b"/>
  <path id="패스_567" data-name="패스 567" d="M331.981,402.5v-1.426H338.1v-4.142a3.4,3.4,0,0,0-.272-1.358h3.125v5.5h9.375V402.5Zm15.828-3.056h-2.581a9.665,9.665,0,0,0,.543-3.191v-4.414h-12.5v-1.426h15.285v5.7A7.757,7.757,0,0,1,347.809,399.443Z" transform="translate(-258.95 -371.035)" fill="#696a6d"/>
  <path id="패스_568" data-name="패스 568" d="M417.686,400.448a11.793,11.793,0,0,1-6.046-3.395,11.423,11.423,0,0,1-5.775,3.327l-1.562-1.222c3.532-.747,5.842-3.4,5.842-5.839v-1.969a4.151,4.151,0,0,0-.272-1.63h3.261v3.6c0,2.444,2.582,5.16,6.046,5.907Zm5.91,1.358h-2.581V390.536a2.954,2.954,0,0,0-.34-1.562h3.057v11.2A10.45,10.45,0,0,1,423.6,401.807Z" transform="translate(-290.308 -370.411)" fill="#696a6d"/>
  <path id="패스_569" data-name="패스 569" d="M373.381,396.834c-2.921,0-5.3-1.7-5.3-3.734s2.378-3.666,5.3-3.666c2.989,0,5.367,1.63,5.367,3.666S376.37,396.834,373.381,396.834Zm0-6.178a2.5,2.5,0,1,0,0,4.957,2.5,2.5,0,1,0,0-4.957Zm8.56,0a2.786,2.786,0,0,0-.34-1.562h3.125v1.969h2.854v1.426h-2.854v1.358h2.854v1.426h-2.854v.543a5.779,5.779,0,0,1-.2,1.7H381.94Z" transform="translate(-274.603 -370.463)" fill="#696a6d"/>
  <path id="패스_570" data-name="패스 570" d="M381.616,403.958c-2.853,0-5.978,1.018-5.978,2.987s3.125,2.988,5.978,2.988S388,408.914,388,406.945,384.47,403.958,381.616,403.958Zm0,4.685c-1.494,0-3.532-.407-3.532-1.7s2.038-1.7,3.532-1.7c1.563,0,3.873.407,3.873,1.7S383.179,408.643,381.616,408.643Z" transform="translate(-277.879 -376.908)" fill="#696a6d"/>
</svg>
