<svg xmlns="http://www.w3.org/2000/svg" width="190" height="34.922" viewBox="0 0 190 34.922">
    <g data-name="그룹 3731">
        <path data-name="패스 6863" d="m117.211 188.165.024-.035-.024.028z" transform="translate(-94.562 -153.943)" style="fill:#1a1311"/>
        <path data-name="패스 6864" d="M129.121 155.317a23.028 23.028 0 0 0-5.765.9c-.561 5.334-1.639 15.613-1.639 15.776a1.372 1.372 0 0 1-.165.659l-4.191 6.152c.436-.493 2.026-1.726 7.477-2.813a.3.3 0 0 0 .231-.221l4.215-20.3s.029-.151-.164-.151" transform="translate(-94.605 -144.57)" style="fill:#ffaf00"/>
        <path data-name="패스 6865" d="M123.651 152.025c.04-.269-.193-.165-.193-.165-3.421 1.4-6.321 5.754-6.321 5.754l.028-.014a31.4 31.4 0 0 1 6.129-2.38c.2-1.875.309-2.868.357-3.195" transform="translate(-94.541 -143.473)" style="fill:#ffcf00"/>
        <path data-name="패스 6866" d="M117.071 158.95a.11.11 0 0 0-.025.014l-.239 20.669s0 .062.05.056c.069-.011.124-.214.344-.531l4.193-6.158a1.349 1.349 0 0 0 .164-.656c0-.163 1.08-10.442 1.642-15.776a31.481 31.481 0 0 0-6.129 2.379" transform="translate(-94.447 -144.929)" style="fill:#f38200"/>
        <path data-name="패스 6867" d="M93.7 140.08s-.444-.079-.37.169l1.114 4.62a90.593 90.593 0 0 1 13.911 3.742s-5.961-7.185-14.655-8.53" transform="translate(-87.738 -140.068)" style="fill:#d4d5d5"/>
        <path data-name="패스 6868" d="m97.3 167.638-5.095-21.072a33.907 33.907 0 0 0-6.131-.542s-.613 0-.571.447l7.1 25.755a.7.7 0 0 0 .651.487s10.711.893 12.769 3.509c-2.184-3.643-8.727-8.585-8.727-8.585" transform="translate(-85.505 -141.768)" style="fill:#e0d800"/>
        <path data-name="패스 6869" d="M108.8 150.512a90.927 90.927 0 0 0-13.913-3.724l5.095 21.07s6.543 4.943 8.727 8.586a2.275 2.275 0 0 1 .134.2c.049.083.086.169.126.253.014.028.037.006.036-.031l-.205-26.355" transform="translate(-88.186 -141.988)" style="fill:#81aa06"/>
    </g>
    <g data-name="그룹 3732">
        <path data-name="패스 6870" d="M307.147 158.872h-8.135v-1.9h8.764z" transform="translate(-147.289 -145.042)" style="fill:#5f5e5e"/>
        <path data-name="패스 6871" d="M346.9 177.272h-10.075v-1.711h10.639z" transform="translate(-158.09 -150.353)" style="fill:#5f5e5e"/>
        <path data-name="사각형 2230" transform="translate(178.735 22.385)" style="fill:#5f5e5e" d="M0 0h1.711v4.534H0z"/>
        <path data-name="사각형 2231" transform="translate(160.977 11.923)" style="fill:#5f5e5e" d="M0 0h1.878v8.865H0z"/>
        <path data-name="패스 6872" d="M258.543 165.832h2.39l4.945-8.862h-2.391z" transform="translate(-135.729 -145.043)" style="fill:#5f5e5e"/>
        <path data-name="패스 6873" d="M269.667 166.581h-2.377l-3.4-6.617 2.195-.372z" transform="translate(-137.255 -145.791)" style="fill:#5f5e5e"/>
        <path data-name="사각형 2232" transform="translate(133.164 11.921)" style="fill:#5f5e5e" d="M0 0h1.879v8.863H0z"/>
        <path data-name="패스 6874" d="M277.458 158.853h-3.519v-1.893h4.161z" transform="translate(-140.127 -145.039)" style="fill:#5f5e5e"/>
        <path data-name="패스 6875" d="M272.148 177.272h-10.072v-1.711h10.638z" transform="translate(-136.738 -150.353)" style="fill:#5f5e5e"/>
        <path data-name="사각형 2233" transform="translate(125.338 22.385)" style="fill:#5f5e5e" d="M0 0h1.71v4.534H0z"/>
        <path data-name="패스 6876" d="M311.483 177.272H301.41v-1.711h10.639z" transform="translate(-147.974 -150.353)" style="fill:#5f5e5e"/>
        <path data-name="사각형 2234" transform="translate(153.436 22.385)" style="fill:#5f5e5e" d="M0 0h1.711v4.534H0z"/>
        <path data-name="패스 6877" d="M257.162 159.692h-3.9v-1.871h4.613z" transform="translate(-134.221 -145.285)" style="fill:#5f5e5e"/>
        <path data-name="사각형 2235" transform="translate(118.878 12.536)" style="fill:#5f5e5e" d="M0 0h1.872v14.319H0z"/>
        <path data-name="사각형 2236" transform="translate(96.313 11.926)" style="fill:#5f5e5e" d="M0 0h1.889v6.358H0z"/>
        <path data-name="사각형 2237" transform="translate(105.494 11.926)" style="fill:#5f5e5e" d="M0 0h1.889v6.358H0z"/>
        <path data-name="사각형 2238" transform="translate(96.313 11.926)" style="fill:#5f5e5e" d="M0 0h11.07v1.889H0z"/>
        <path data-name="사각형 2239" transform="translate(96.313 16.419)" style="fill:#5f5e5e" d="M0 0h11.07v1.889H0z"/>
        <path data-name="패스 6878" d="M232.518 169.85h-11.073v-1.907h11.693z" transform="translate(-125.132 -148.177)" style="fill:#5f5e5e"/>
        <path data-name="사각형 2240" transform="translate(100.886 19.84)" style="fill:#5f5e5e" d="M0 0h1.89v5.007H0z"/>
        <path data-name="패스 6879" d="M231.519 181.574h-10.074v-1.907h10.64z" transform="translate(-125.132 -151.526)" style="fill:#5f5e5e"/>
        <path data-name="사각형 2241" transform="translate(96.313 22.357)" style="fill:#5f5e5e" d="M0 0h1.711v7.691H0z"/>
        <path data-name="패스 6880" d="M208.208 158.861h-7.828v-1.893h8.469z" transform="translate(-119.115 -145.042)" style="fill:#5f5e5e"/>
        <path data-name="패스 6881" d="M208.208 168.61h-7.828v-1.893h8.469z" transform="translate(-119.115 -147.827)" style="fill:#5f5e5e"/>
        <path data-name="사각형 2242" transform="translate(82.435 12.947)" style="fill:#5f5e5e" d="M0 0h1.667v6.129H0z"/>
        <path data-name="사각형 2243" transform="translate(86.219 12.947)" style="fill:#5f5e5e" d="M0 0h1.667v6.129H0z"/>
        <path data-name="사각형 2244" transform="translate(90.661 11.921)" style="fill:#5f5e5e" d="M0 0h1.879v8.863H0z"/>
        <path data-name="패스 6882" d="M217.916 158.853H214.4v-1.893h4.16z" transform="translate(-123.119 -145.039)" style="fill:#5f5e5e"/>
        <path data-name="패스 6883" d="M212.087 177.231h-10.073v-1.711h10.64z" transform="translate(-119.581 -150.341)" style="fill:#5f5e5e"/>
        <path data-name="사각형 2245" transform="translate(82.432 22.355)" style="fill:#5f5e5e" d="M0 0h1.71v4.535H0z"/>
        <path data-name="패스 6884" d="M192.933 169.443h-11.521v-1.687h12.169z" transform="translate(-113.696 -148.123)" style="fill:#5f5e5e"/>
        <path data-name="사각형 2246" transform="translate(72.512 19.7)" style="fill:#5f5e5e" d="M0 0h1.969v4.031H0z"/>
        <path data-name="사각형 2247" transform="translate(67.698 22.886)" style="fill:#5f5e5e" d="M0 0h11.575v1.445H0z"/>
        <path data-name="패스 6885" d="M192.963 181.8h-11.575v-1.479H193.6z" transform="translate(-113.69 -151.713)" style="fill:#5f5e5e"/>
        <path data-name="사각형 2248" transform="translate(67.698 25.855)" style="fill:#5f5e5e" d="M0 0h11.575v1.256H0z"/>
        <path data-name="사각형 2249" transform="translate(77.293 23.401)" style="fill:#5f5e5e" d="M0 0h1.981v3.55H0z"/>
        <path data-name="사각형 2250" transform="translate(67.698 26.203)" style="fill:#5f5e5e" d="M0 0h1.981v3.549H0z"/>
        <path data-name="패스 6886" d="M192.979 159.715h-11.614v-1.9h12.224z" transform="translate(-113.683 -145.283)" style="fill:#5f5e5e"/>
        <path data-name="패스 6887" d="M189.837 158.1h-2.066v-1.9h3.069z" transform="translate(-115.513 -144.821)" style="fill:#5f5e5e"/>
        <path data-name="패스 6888" d="M181.252 163.882h2.887l3.126-2.5V158.7z" transform="translate(-113.651 -145.535)" style="fill:#5f5e5e"/>
        <path data-name="패스 6889" d="M195.578 163.882h-2.887l-3.127-2.5V158.7z" transform="translate(-116.025 -145.535)" style="fill:#5f5e5e"/>
        <path data-name="패스 6890" d="M173.761 174.8h-10.38v-1.9h10.964z" transform="translate(-108.546 -149.591)" style="fill:#5f5e5e"/>
        <path data-name="사각형 2251" transform="translate(63.932 23.308)" style="fill:#5f5e5e" d="M0 0h1.867v6.81H0z"/>
        <path data-name="사각형 2252" transform="translate(54.746 11.926)" style="fill:#5f5e5e" d="M0 0h11.063v1.904H0z"/>
        <path data-name="사각형 2253" transform="translate(63.904 12.749)" style="fill:#5f5e5e" d="M0 0h1.905v5.598H0z"/>
        <path data-name="패스 6891" d="M151.665 177.246h-10.073v-1.71h10.639z" transform="translate(-102.322 -150.346)" style="fill:#5f5e5e"/>
        <path data-name="패스 6892" d="M174.312 169.843h-11.056v-1.9h11.678z" transform="translate(-108.51 -148.177)" style="fill:#5f5e5e"/>
        <path data-name="사각형 2254" transform="translate(39.27 22.366)" style="fill:#5f5e5e" d="M0 0h1.711v4.534H0z"/>
        <path data-name="패스 6893" d="M159.036 159.942h-3.9v-1.871h4.614z" transform="translate(-106.191 -145.357)" style="fill:#5f5e5e"/>
        <path data-name="사각형 2255" transform="translate(48.783 12.714)" style="fill:#5f5e5e" d="M0 0h1.871v8.872H0z"/>
        <path data-name="패스 6894" d="M317.65 170.337h11.063l.627-1.734h-11.69z" transform="translate(-152.613 -148.365)" style="fill:#5f5e5e"/>
        <path data-name="패스 6895" d="M323.921 171.858a4.09 4.09 0 0 0-2.825 1.025 3.338 3.338 0 0 0-1.156 2.619 3.786 3.786 0 0 0 1.136 2.779 3.737 3.737 0 0 0 2.752 1.142 4 4 0 0 0 2.836-1.093 3.6 3.6 0 0 0 1.164-2.73 3.516 3.516 0 0 0-1.127-2.687 3.913 3.913 0 0 0-2.78-1.055zm1.414 5.093a2.012 2.012 0 0 1-1.452.561 2.151 2.151 0 0 1-1.491-.542 1.781 1.781 0 0 1-.607-1.389 1.9 1.9 0 0 1 .6-1.437 2.009 2.009 0 0 1 1.446-.571 2.1 2.1 0 0 1 1.488.561 1.837 1.837 0 0 1 .609 1.407 1.869 1.869 0 0 1-.593 1.41z" transform="translate(-153.267 -149.295)" style="fill:#5f5e5e"/>
        <path data-name="패스 6896" d="M145.918 159.446a3.941 3.941 0 1 0 3.895 3.942 3.919 3.919 0 0 0-3.895-3.942zm.01 6.007a2.072 2.072 0 1 1 2.02-2.072 2.047 2.047 0 0 1-2.02 2.072z" transform="translate(-102.445 -145.75)" style="fill:#5f5e5e"/>
        <path data-name="패스 6897" d="M149.724 160h-8.132v-1.9h8.753z" transform="translate(-102.322 -145.365)" style="fill:#5f5e5e"/>
        <path data-name="패스 6898" d="M147.629 158.409h-1.685v-1.9h2.712z" transform="translate(-103.565 -144.909)" style="fill:#5f5e5e"/>
        <path data-name="사각형 2256" transform="translate(59.327 19.843)" style="fill:#5f5e5e" d="M0 0h1.901v4.535H0z"/>
        <path data-name="패스 6899" d="M247.633 159.729h-7.791v-1.9h8.385z" transform="translate(-130.387 -145.289)" style="fill:#5f5e5e"/>
        <path data-name="패스 6900" d="M245.478 157.939h-1.565v-1.718h2.52z" transform="translate(-131.55 -144.829)" style="fill:#5f5e5e"/>
        <path data-name="패스 6901" d="M247.605 172.7h-7.788v-1.9h8.412z" transform="translate(-130.38 -148.993)" style="fill:#5f5e5e"/>
        <path data-name="사각형 2257" transform="translate(112.456 19.095)" style="fill:#5f5e5e" d="M0 0h1.856v4.534H0z"/>
        <path data-name="패스 6902" d="M243.91 159.218a3.459 3.459 0 1 0 3.46 3.459 3.458 3.458 0 0 0-3.46-3.459zm-.008 5.044a1.606 1.606 0 1 1 1.605-1.605 1.607 1.607 0 0 1-1.607 1.605z" transform="translate(-130.561 -145.684)" style="fill:#5f5e5e"/>
        <path data-name="사각형 2258" transform="translate(138.597 22.373)" style="fill:#5f5e5e" d="M0 0h1.878v7.67H0z"/>
        <path data-name="사각형 2259" transform="translate(147.751 11.923)" style="fill:#5f5e5e" d="M0 0h1.879v8.865H0z"/>
        <path data-name="사각형 2260" transform="translate(145.128 14.245)" style="fill:#5f5e5e" d="M0 0h3.06v1.911H0z"/>
        <path data-name="패스 6903" d="M283.347 156.693a4.2 4.2 0 1 0 4.15 4.2 4.177 4.177 0 0 0-4.15-4.2zm0 6.481a2.285 2.285 0 1 1 2.254-2.286 2.271 2.271 0 0 1-2.254 2.286z" transform="translate(-141.628 -144.963)" style="fill:#5f5e5e"/>
        <path data-name="사각형 2261" transform="translate(147.751 22.373)" style="fill:#5f5e5e" d="M0 0h1.879v7.67H0z"/>
        <path data-name="사각형 2262" transform="translate(138.993 28.143)" style="fill:#5f5e5e" d="M0 0h9.714v1.9H0z"/>
        <path data-name="사각형 2263" transform="translate(138.993 24.182)" style="fill:#5f5e5e" d="M0 0h9.714v1.699H0z"/>
        <path data-name="패스 6904" d="M344.2 168.868h-7.463v-1.677h8.163z" transform="translate(-158.066 -147.962)" style="fill:#5f5e5e"/>
        <path data-name="사각형 2264" transform="translate(181.49 19.298)" style="fill:#5f5e5e" d="M0 0h1.889v4.597H0z"/>
        <path data-name="사각형 2265" transform="translate(188.122 12.354)" style="fill:#5f5e5e" d="M0 0h1.879v11.664H0z"/>
        <path data-name="사각형 2266" transform="translate(185.61 20.627)" style="fill:#5f5e5e" d="M0 0h2.973v1.445H0z"/>
        <path data-name="패스 6905" d="M323.96 157.6a3.639 3.639 0 1 0 3.595 3.638 3.616 3.616 0 0 0-3.595-3.638zm.011 5.335a1.73 1.73 0 1 1 1.711-1.73 1.719 1.719 0 0 1-1.71 1.732z" transform="translate(-153.389 -145.223)" style="fill:#5f5e5e"/>
        <path data-name="패스 6906" d="M328.711 159.534h-11.057v-1.717h11.711z" transform="translate(-152.614 -145.284)" style="fill:#5f5e5e"/>
        <path data-name="패스 6907" d="m325.714 158.051-1.93-.112v-1.718h2.925z" transform="translate(-154.365 -144.829)" style="fill:#5f5e5e"/>
        <path data-name="패스 6908" d="M340.311 156.675a3.96 3.96 0 1 0 3.885 3.96 3.922 3.922 0 0 0-3.885-3.96zm-.06 6.206a2.127 2.127 0 1 1 2.112-2.128 2.118 2.118 0 0 1-2.112 2.128z" transform="translate(-157.977 -144.958)" style="fill:#5f5e5e"/>
        <path data-name="패스 6909" d="M258.543 165.832h2.39l4.945-8.862h-2.391z" transform="translate(-135.729 -145.043)" style="fill:#5f5e5e"/>
        <path data-name="패스 6910" d="M303.17 156.968h-.77l-4.154 8.9h2.19l2.347-4.664 2.345 4.664h2.194z" transform="translate(-147.071 -145.042)" style="fill:#4d4d4d"/>
    </g>
</svg>
