<svg xmlns="http://www.w3.org/2000/svg" width="46" height="46" viewBox="0 0 46 46">
  <g id="그룹_2450" data-name="그룹 2450" transform="translate(-607 -3249)">
    <circle id="타원_106" data-name="타원 106" cx="23" cy="23" r="23" transform="translate(607 3249)" fill="#26c6da"/>
    <g id="Mail_2" data-name="Mail 2" transform="translate(453.415 3108.805)">
      <path id="패스_910" data-name="패스 910" d="M186.273,153.91H166.9a3.233,3.233,0,0,0-3.229,3.229V169.25a3.233,3.233,0,0,0,3.229,3.229h19.377a3.233,3.233,0,0,0,3.229-3.229V157.139A3.233,3.233,0,0,0,186.273,153.91Zm1.615,15.34a1.616,1.616,0,0,1-1.615,1.615H166.9a1.616,1.616,0,0,1-1.615-1.615V157.139a1.616,1.616,0,0,1,1.615-1.615h19.377a1.616,1.616,0,0,1,1.615,1.615Z" fill="#fff"/>
      <path id="패스_911" data-name="패스 911" d="M186.861,159.206a.808.808,0,0,0-1.137-.114l-8.369,6.848-8.37-6.848a.808.808,0,0,0-1.023,1.25l8.881,7.266a.808.808,0,0,0,1.023,0l8.881-7.266A.808.808,0,0,0,186.861,159.206Z" transform="translate(-0.77 -0.963)" fill="#fff"/>
      <path id="패스_912" data-name="패스 912" d="M187.045,167.147a.807.807,0,0,0-1.142,1.142l3.229,3.229a.807.807,0,1,0,1.142-1.142Z" transform="translate(-4.238 -2.504)" fill="#fff"/>
      <path id="패스_913" data-name="패스 913" d="M171.133,167.147l-3.229,3.229a.807.807,0,1,0,1.142,1.142l3.229-3.229a.807.807,0,0,0-1.142-1.142Z" transform="translate(-0.77 -2.504)" fill="#fff"/>
    </g>
  </g>
</svg>
