<svg id="그룹_220" data-name="그룹 220" xmlns="http://www.w3.org/2000/svg" width="124.606" height="42.393" viewBox="0 0 124.606 42.393">
  <path id="패스_563" data-name="패스 563" d="M225.38,362.957c-9.707-5.9-20.746-2.663-22.2,6.658,0,0-1.4,5.77,4.949,9.258l.761.317s5.2,2.6,12.689-2.98c0,0,9.9-5.707,8.628,10.018l-.19,1.015c0,.063-.063.19.063.253s.19-.126.254-.126l1.142-2.093A16.679,16.679,0,0,0,225.38,362.957Z" transform="translate(-203.045 -357.985)" fill="#00529c"/>
  <path id="패스_564" data-name="패스 564" d="M275.517,356.227a9.552,9.552,0,0,0-1.9.063A14.065,14.065,0,0,0,260.608,368.4c-.508,7.228-.317,11.033-4.441,17.057,0,0-.064.19-.127.19-.063.127,0,.254.127.19.063,0,.19-.127.19-.127C265.557,378.419,272.789,367.894,275.517,356.227Z" transform="translate(-227.995 -356.2)" fill="#009b7c"/>
  <path id="패스_565" data-name="패스 565" d="M258.4,410.389l-.381-.317s-2.221-2.283-7.677-.254c0,0-6.281,1.9-3.363-7.038a.639.639,0,0,0,.063-.19c.063-.19-.063-.19-.19-.19-.063,0-.19.127-.19.127l-.571.634a9.842,9.842,0,0,0,0,13.569c4.7,4.946,11.42,4.819,13.64-.317A5.039,5.039,0,0,0,258.4,410.389Z" transform="translate(-222.043 -377.961)" fill="#009b7c"/>
  <path id="패스_566" data-name="패스 566" d="M291.689,356.73c-6.661,0-13.386,4.882-16.559,10.4-6.345,9.638-9.073,14.267-16.686,18.959l-.127.064a.121.121,0,0,0,.064.19l.127-.063a86.8,86.8,0,0,0,38.764-28.724A18.027,18.027,0,0,0,291.689,356.73Z" transform="translate(-229.067 -356.45)" fill="#fac81b"/>
  <path id="패스_567" data-name="패스 567" d="M331.981,401.7v-1.332h5.71V396.5a3.177,3.177,0,0,0-.254-1.268h2.918v5.136h8.755V401.7Zm14.782-2.854h-2.411a9.026,9.026,0,0,0,.507-2.98v-4.122H333.187v-1.331h14.275v5.326A7.244,7.244,0,0,1,346.763,398.846Z" transform="translate(-263.776 -372.315)" fill="#696a6d"/>
  <path id="패스_568" data-name="패스 568" d="M416.8,399.69a11.013,11.013,0,0,1-5.646-3.17,10.668,10.668,0,0,1-5.393,3.107l-1.459-1.141c3.3-.7,5.456-3.171,5.456-5.453v-1.839a3.878,3.878,0,0,0-.254-1.522h3.045v3.361c0,2.283,2.411,4.819,5.646,5.517Zm5.519,1.268H419.91V390.432a2.759,2.759,0,0,0-.317-1.458h2.855v10.463A9.765,9.765,0,0,1,422.321,400.959Z" transform="translate(-297.842 -371.637)" fill="#696a6d"/>
  <path id="패스_569" data-name="패스 569" d="M373.031,396.322c-2.728,0-4.949-1.585-4.949-3.487s2.221-3.424,4.949-3.424c2.791,0,5.012,1.522,5.012,3.424S375.822,396.322,373.031,396.322Zm0-5.77a2.33,2.33,0,1,0,0,4.629,2.338,2.338,0,1,0,0-4.629Zm7.994,0a2.6,2.6,0,0,0-.317-1.458h2.918v1.839h2.665v1.331h-2.665v1.268h2.665v1.331h-2.665v.507a5.4,5.4,0,0,1-.19,1.585h-2.411Z" transform="translate(-280.781 -371.694)" fill="#696a6d"/>
  <path id="패스_570" data-name="패스 570" d="M381.221,403.958c-2.664,0-5.583.951-5.583,2.79s2.918,2.79,5.583,2.79,5.964-.952,5.964-2.79S383.886,403.958,381.221,403.958Zm0,4.375c-1.4,0-3.3-.38-3.3-1.585s1.9-1.585,3.3-1.585c1.459,0,3.617.38,3.617,1.585S382.68,408.333,381.221,408.333Z" transform="translate(-284.34 -378.695)" fill="#696a6d"/>
</svg>
