<svg xmlns="http://www.w3.org/2000/svg" width="153.302" height="33.979" viewBox="0 0 153.302 33.979">
  <g id="그룹_231" data-name="그룹 231" transform="translate(0)">
    <g id="그룹_221" data-name="그룹 221" transform="translate(34.933)">
      <path id="패스_571" data-name="패스 571" d="M179.978,222.4a4.336,4.336,0,0,1-.125,1.313.688.688,0,0,1-.709.4.632.632,0,0,1-.511-.188,1.21,1.21,0,0,1-.219-.656h-1.428a2.222,2.222,0,0,0,.594,1.631,2.072,2.072,0,0,0,1.544.58,2.4,2.4,0,0,0,1.137-.269,2.068,2.068,0,0,0,.819-.726,2.425,2.425,0,0,0,.3-.883,6.636,6.636,0,0,0,.063-1.042v-5.16h-1.468Z" transform="translate(-176.985 -191.922)" fill="#002460"/>
      <path id="패스_572" data-name="패스 572" d="M195.772,222.386a2.655,2.655,0,0,1-.218,1.282.955.955,0,0,1-.882.386,1.053,1.053,0,0,1-.956-.386,2.611,2.611,0,0,1-.217-1.282v-4.993H192.03v4.982a9.043,9.043,0,0,0,.042,1.043,2.255,2.255,0,0,0,.366.96,2.428,2.428,0,0,0,.95.834,2.953,2.953,0,0,0,1.306.271,2.65,2.65,0,0,0,1.232-.281,2.474,2.474,0,0,0,.909-.823,2.251,2.251,0,0,0,.333-.907,6.39,6.39,0,0,0,.073-1.1v-4.982h-1.468Z" transform="translate(-185.876 -191.922)" fill="#002460"/>
      <path id="패스_573" data-name="패스 573" d="M213.682,222.626l-3.41-5.232h-1.4v7.942h1.468v-5.377l3.439,5.377h1.329v-7.942h-1.428Z" transform="translate(-195.83 -191.922)" fill="#002460"/>
      <path id="패스_574" data-name="패스 574" d="M231.5,222.352h2.482a2.5,2.5,0,0,1-.918,1.1,2.445,2.445,0,0,1-1.324.351,2.3,2.3,0,0,1-.969-.209,2.516,2.516,0,0,1-.845-.593,2.469,2.469,0,0,1-.542-.854,3.062,3.062,0,0,1-.178-1.052,2.693,2.693,0,0,1,.2-1.019,2.629,2.629,0,0,1,.585-.876,2.414,2.414,0,0,1,.8-.552,2.687,2.687,0,0,1,2.043.053,2.454,2.454,0,0,1,.875.741h1.72a4.166,4.166,0,0,0-1.469-1.83,3.761,3.761,0,0,0-2.127-.609,4.341,4.341,0,0,0-1.595.281,3.892,3.892,0,0,0-1.292.866,4.059,4.059,0,0,0-1.228,2.93,4.483,4.483,0,0,0,.261,1.523A3.975,3.975,0,0,0,230.1,224.9a3.912,3.912,0,0,0,1.647.353,3.765,3.765,0,0,0,2.825-1.164,4.717,4.717,0,0,0,1.24-3.16H231.5Z" transform="translate(-206.969 -191.69)" fill="#002460"/>
      <path id="패스_575" data-name="패스 575" d="M255.923,222.72l-1.3-5.326h-1.1l-1.323,5.337-1.491-5.337h-1.48l2.366,7.942h1.261l1.219-5.1,1.188,5.1h1.272l2.366-7.942h-1.48Z" transform="translate(-219.674 -191.922)" fill="#002460"/>
      <path id="패스_576" data-name="패스 576" d="M281.589,218.159a3.984,3.984,0,0,0-1.3-.866,4,4,0,0,0-4.356.855,3.916,3.916,0,0,0-.906,1.345,4.076,4.076,0,0,0-.313,1.585,4.482,4.482,0,0,0,.261,1.523,3.981,3.981,0,0,0,2.116,2.295,3.9,3.9,0,0,0,1.646.353,4.009,4.009,0,0,0,1.647-.343,4.378,4.378,0,0,0,1.376-.992,4,4,0,0,0,.782-1.283,4.314,4.314,0,0,0,.281-1.554,3.977,3.977,0,0,0-.324-1.585A4.162,4.162,0,0,0,281.589,218.159Zm-1,4.862a2.454,2.454,0,0,1-1.857.78,2.305,2.305,0,0,1-.97-.209,2.529,2.529,0,0,1-.845-.593,2.475,2.475,0,0,1-.542-.854,3.043,3.043,0,0,1-.178-1.052,2.692,2.692,0,0,1,.2-1.019,2.611,2.611,0,0,1,.585-.876,2.3,2.3,0,0,1,.791-.552,2.747,2.747,0,0,1,1.992.022,2.623,2.623,0,0,1,.845.645,2.589,2.589,0,0,1,.532.822,2.344,2.344,0,0,1,.187.937A2.7,2.7,0,0,1,280.59,223.021Z" transform="translate(-234.738 -191.69)" fill="#002460"/>
      <path id="패스_577" data-name="패스 577" d="M302.918,222.626l-3.411-5.232h-1.4v7.942h1.469v-5.377l3.438,5.377h1.33v-7.942h-1.428Z" transform="translate(-248.565 -191.922)" fill="#002460"/>
      <path id="패스_578" data-name="패스 578" d="M329.932,222.386a2.651,2.651,0,0,1-.217,1.282.956.956,0,0,1-.883.386,1.054,1.054,0,0,1-.956-.386,2.614,2.614,0,0,1-.218-1.282v-4.993h-1.468v4.982a9.4,9.4,0,0,0,.041,1.043,2.266,2.266,0,0,0,.366.96,2.43,2.43,0,0,0,.95.834,2.958,2.958,0,0,0,1.306.271,2.648,2.648,0,0,0,1.232-.281,2.466,2.466,0,0,0,.908-.823,2.246,2.246,0,0,0,.334-.907,6.3,6.3,0,0,0,.074-1.1v-4.982h-1.469Z" transform="translate(-265.16 -191.922)" fill="#002460"/>
      <path id="패스_579" data-name="패스 579" d="M347.841,222.626l-3.411-5.232h-1.4v7.942h1.47v-5.377l3.438,5.377h1.33v-7.942h-1.428Z" transform="translate(-275.113 -191.922)" fill="#002460"/>
      <rect id="사각형_538" data-name="사각형 538" width="1.469" height="7.942" transform="translate(75.85 25.471)" fill="#002460"/>
      <path id="패스_580" data-name="패스 580" d="M371.887,222.7l-1.887-5.3h-1.552l2.981,7.942h.908l2.959-7.942h-1.532Z" transform="translate(-290.132 -191.922)" fill="#002460"/>
      <path id="패스_581" data-name="패스 581" d="M387.7,225.341h4.335v-1.408H389.17v-1.912h2.866v-1.349H389.17v-1.91h2.866v-1.368H387.7Z" transform="translate(-301.511 -191.922)" fill="#002460"/>
      <path id="패스_582" data-name="패스 582" d="M405.933,221.229a2.316,2.316,0,0,0,.47-1.449,2.4,2.4,0,0,0-.312-1.2,2.022,2.022,0,0,0-.814-.855,2.265,2.265,0,0,0-.868-.292,9.178,9.178,0,0,0-1.033-.042h-1.943v7.943h1.429v-3.055h.084l2.2,3.055h1.829l-2.373-3.2A2.7,2.7,0,0,0,405.933,221.229Zm-2.442-.315h-.629v-2.152h.659A1.86,1.86,0,0,1,404.6,219a1,1,0,0,1,.335.852.928.928,0,0,1-.345.821A1.891,1.891,0,0,1,403.492,220.914Z" transform="translate(-309.626 -191.922)" fill="#002460"/>
      <path id="패스_583" data-name="패스 583" d="M419.558,220.385l-.52-.166c-.244-.07-.418-.126-.521-.166a1.206,1.206,0,0,1-.387-.241.524.524,0,0,1-.124-.2,1.453,1.453,0,0,1-.02-.27.978.978,0,0,1,.22-.687.807.807,0,0,1,.627-.24.724.724,0,0,1,.575.24,1.26,1.26,0,0,1,.252.771h1.388a2.7,2.7,0,0,0-.669-1.774,2,2,0,0,0-1.51-.605,2.181,2.181,0,0,0-1.637.656,2.337,2.337,0,0,0-.635,1.7,2.364,2.364,0,0,0,.094.677,1.688,1.688,0,0,0,.334.594,2.635,2.635,0,0,0,.75.594,4.255,4.255,0,0,0,.854.344,2.593,2.593,0,0,1,.886.4.944.944,0,0,1,.281.76,1.124,1.124,0,0,1-.281.814,1.037,1.037,0,0,1-.781.291.9.9,0,0,1-.73-.313,1.561,1.561,0,0,1-.292-.969h-1.333a2.789,2.789,0,0,0,.677,1.961,2.177,2.177,0,0,0,1.7.729,2.279,2.279,0,0,0,1.767-.749,2.616,2.616,0,0,0,.684-1.864,2.262,2.262,0,0,0-.437-1.4A2.542,2.542,0,0,0,419.558,220.385Z" transform="translate(-318.458 -191.719)" fill="#002460"/>
      <rect id="사각형_539" data-name="사각형 539" width="1.468" height="7.942" transform="translate(104.202 25.471)" fill="#002460"/>
      <path id="패스_584" data-name="패스 584" d="M438.3,218.762h1.543v6.566h1.449v-6.566h1.552v-1.368H438.3Z" transform="translate(-331.411 -191.922)" fill="#002460"/>
      <path id="패스_585" data-name="패스 585" d="M455.558,217.394l-1.536,3.4-1.557-3.4h-1.637l2.438,5.013v2.929h1.47V222.47l2.449-5.076Z" transform="translate(-338.817 -191.922)" fill="#002460"/>
      <path id="패스_586" data-name="패스 586" d="M188.539,163.174a7.227,7.227,0,0,0,3.869-1.344,6.991,6.991,0,0,0,3.8,1.344q1.644.208,5.027.278l.347.023v-2.549a40.468,40.468,0,0,1-4.657-.324q-1.9-.3-2.27-.973h6.927v-2.416H183.233v2.416h6.927q-.371.718-2.247,1.019a42.488,42.488,0,0,1-4.68.278v2.549l.3-.023Q186.893,163.382,188.539,163.174Z" transform="translate(-180.677 -156.16)" fill="#002460"/>
      <path id="패스_587" data-name="패스 587" d="M197.717,182.817a4.408,4.408,0,0,0-1.989-3.668,6.887,6.887,0,0,0-2.611-1.165v-1.1H201.3v-2.544H181.6v2.544h8.155v1.1a7.011,7.011,0,0,0-2.711,1.173,4.386,4.386,0,0,0,0,7.315,7.28,7.28,0,0,0,4.4,1.362,7.032,7.032,0,0,0,4.283-1.362A4.39,4.39,0,0,0,197.717,182.817Zm-4.279,1.8a3.2,3.2,0,0,1-2.061.713,3.267,3.267,0,0,1-2.107-.713,2.253,2.253,0,0,1,0-3.622,3.331,3.331,0,0,1,2.107-.692,3.264,3.264,0,0,1,2.061.692,2.22,2.22,0,0,1,0,3.622Z" transform="translate(-179.712 -166.358)" fill="#002460"/>
      <path id="패스_588" data-name="패스 588" d="M268.748,170.958h3.8v1.552h3.285V157.219h-3.26v11.144h-3.825Z" transform="translate(-231.214 -156.164)" fill="#002460"/>
      <path id="패스_589" data-name="패스 589" d="M246.129,170.2h3.247V165.84h4.216v-2.8h-2.581a4.044,4.044,0,0,0,1.151-2.874,4.645,4.645,0,0,0-1.81-3.752,5.916,5.916,0,0,0-3.9-1.389,6.135,6.135,0,0,0-4.014,1.389,4.623,4.623,0,0,0-1.833,3.752,4.043,4.043,0,0,0,1.152,2.874H239.6v2.8h6.533ZM244.5,158.4a2.541,2.541,0,0,1,1.836-.718,2.485,2.485,0,0,1,1.79.718,2.364,2.364,0,0,1,.767,1.759,2.242,2.242,0,0,1-.767,1.69,2.444,2.444,0,0,1-1.79.741,2.5,2.5,0,0,1-1.836-.741,2.259,2.259,0,0,1-.72-1.69A2.438,2.438,0,0,1,244.5,158.4Z" transform="translate(-213.986 -154.868)" fill="#002460"/>
      <path id="패스_590" data-name="패스 590" d="M261.3,191.11H247.1v-4.981h-3.221v6.142a1.922,1.922,0,0,0,.417,1.392,1.683,1.683,0,0,0,1.182.349H261.3Z" transform="translate(-216.518 -173.347)" fill="#002460"/>
      <path id="패스_591" data-name="패스 591" d="M313.106,177V166.276h1.342V177h3.132V157.22h-3.132v6.116h-1.342V157.22h-3.055v12.559H302.51v-9.663h5.954v-2.9h-9.239v13.728a2,2,0,0,0,.393,1.391,1.681,1.681,0,0,0,1.18.348h9.254V177Z" transform="translate(-249.225 -156.16)" fill="#002460"/>
      <path id="패스_592" data-name="패스 592" d="M397.372,163.223h2.641v-2.9h-2.641v-3.1H394.1V167h3.272Z" transform="translate(-305.292 -156.163)" fill="#002460"/>
      <path id="패스_593" data-name="패스 593" d="M357.785,161.219a4.431,4.431,0,0,0,1.691,3.545,5.625,5.625,0,0,0,3.731,1.321,5.5,5.5,0,0,0,3.684-1.321,4.452,4.452,0,0,0,1.669-3.545,3.147,3.147,0,0,0-.209-1.112,3.708,3.708,0,0,0-.488-.95h1.368v-2.711h-4.289v-1.807h-3.477v1.807h-4.353v2.711h1.343a4.206,4.206,0,0,0-.509.973A3.711,3.711,0,0,0,357.785,161.219Zm3.871-1.466a2.2,2.2,0,0,1,1.554-.579,2.228,2.228,0,0,1,1.531.579,1.944,1.944,0,0,1,.65,1.483,1.9,1.9,0,0,1-.65,1.437,2.136,2.136,0,0,1-1.531.625,2.111,2.111,0,0,1-1.554-.625,1.893,1.893,0,0,1-.65-1.437A1.942,1.942,0,0,1,361.656,159.753Z" transform="translate(-283.434 -154.639)" fill="#002460"/>
      <path id="패스_594" data-name="패스 594" d="M433.3,173.054h-1.576V158.939a1.926,1.926,0,0,0-.417-1.393,1.685,1.685,0,0,0-1.182-.348H414.763v2.9H428.44v12.955h-2.925v-8.132h-3.247v8.132h-2.314v-8.132h-3.247v8.132h-3.1v2.9h19.7Z" transform="translate(-316.818 -156.151)" fill="#002460"/>
      <path id="패스_595" data-name="패스 595" d="M373.909,193.433h3.221v-6.694a1.923,1.923,0,0,0-.417-1.392A1.687,1.687,0,0,0,375.53,185H359.877v2.9h14.032Z" transform="translate(-285.068 -172.677)" fill="#002460"/>
    </g>
    <g id="그룹_230" data-name="그룹 230" transform="translate(0 0.475)">
      <path id="패스_596" data-name="패스 596" d="M91.269,172.552a16.851,16.851,0,1,0,16.85-16.751A16.82,16.82,0,0,0,91.269,172.552Zm1.007,0A15.843,15.843,0,1,1,108.119,188.3,15.813,15.813,0,0,1,92.276,172.552Z" transform="translate(-91.269 -155.801)" fill="#002460"/>
      <path id="패스_597" data-name="패스 597" d="M163.565,194a.463.463,0,1,1-.463-.464A.463.463,0,0,1,163.565,194Z" transform="translate(-133.446 -178.192)" fill="#002460"/>
      <path id="패스_598" data-name="패스 598" d="M100.065,194a.463.463,0,1,1-.463-.464A.463.463,0,0,1,100.065,194Z" transform="translate(-95.92 -178.192)" fill="#002460"/>
      <g id="그룹_227" data-name="그룹 227" transform="translate(2.777 1.973)">
        <g id="그룹_222" data-name="그룹 222" transform="translate(0 6.847)">
          <path id="패스_599" data-name="패스 599" d="M98.4,180.516l-.342-.172,1.5-2.98.342.172-.6,1.19a.711.711,0,0,0,.728-.276,4.08,4.08,0,0,0,.594-.8c.009-.018.016-.024.024-.02a.044.044,0,0,1,.02.026l.145.385a3.2,3.2,0,0,1-.536.741,1.328,1.328,0,0,1-.675.436c-.007,0-.013.007-.02.02a.047.047,0,0,0-.007.032,1.234,1.234,0,0,1,.056.781,3.162,3.162,0,0,1-.278.893l-.4.115c-.018,0-.03.005-.036,0s0-.016,0-.034a4.012,4.012,0,0,0,.287-.955.709.709,0,0,0-.214-.746Zm2.1-.439-.82,1.632-.343-.173,1.934-3.85.343.172-.82,1.632.209.1a1.163,1.163,0,0,1,.522-.365.7.7,0,0,1,.557.03.734.734,0,0,1,.389.56,1.362,1.362,0,0,1-.705,1.4.736.736,0,0,1-.681.023.7.7,0,0,1-.357-.429,1.163,1.163,0,0,1-.018-.637Zm.958-.291a.539.539,0,0,0-.286.261.548.548,0,0,0-.038.384.4.4,0,0,0,.574.288.54.54,0,0,0,.324-.645.4.4,0,0,0-.575-.288Z" transform="translate(-98.057 -177.364)" fill="#002460"/>
        </g>
        <g id="그룹_223" data-name="그룹 223" transform="translate(5.092 1.273)">
          <path id="패스_600" data-name="패스 600" d="M111.16,166.57a.713.713,0,0,1-.6-.978,1.1,1.1,0,0,1,.483-.573,1.113,1.113,0,0,1,.731-.176.71.71,0,0,1,.6.978,1.111,1.111,0,0,1-.486.575A1.1,1.1,0,0,1,111.16,166.57Zm1.509.585-.525.324-.29-.47-.95.585-.2-.326,2.584-1.594.2.326-1.108.684ZM111.04,165.6a.45.45,0,0,0,.327.529.433.433,0,0,0,.522-.324.433.433,0,0,0-.056-.334.418.418,0,0,0-.27-.2.422.422,0,0,0-.328.054A.414.414,0,0,0,111.04,165.6Zm2,2.247a.06.06,0,0,0,.041.031.083.083,0,0,0,.055-.015l1.921-1.185.2.326L113.1,168.34a.456.456,0,0,1-.3.086.324.324,0,0,1-.221-.172l-.172-.279a.17.17,0,0,0-.106-.079.192.192,0,0,0-.152.034l-.083.051-.112-.182.762-.47Zm-.15-3.469a.19.19,0,0,0-.106-.079.177.177,0,0,0-.156.027l-.083.051-.112-.181.75-.463,1.531,2.482-.5.308-.143-.232-.834.513-.181-.293.833-.515Z" transform="translate(-110.505 -163.737)" fill="#002460"/>
        </g>
        <g id="그룹_224" data-name="그룹 224" transform="translate(11.92)">
          <path id="패스_601" data-name="패스 601" d="M130.639,161.861v-.848a.193.193,0,0,0-.041-.124.19.19,0,0,0-.154-.051h-.054v-.214h.808l0,3.917h-.558l0-2.3h-.372l0,2.3h-.558V163.29a1.388,1.388,0,0,1-.321.064c-.122.011-.28.017-.472.017h-.837a.653.653,0,0,1-.441-.128.5.5,0,0,1-.147-.4v-1.529a.17.17,0,0,0-.049-.123.193.193,0,0,0-.147-.051h-.1v-.213l2.037,0v.383h-1.151V162.9a.073.073,0,0,0,.027.063.1.1,0,0,0,.066.023h.935a2.485,2.485,0,0,0,.355-.021,1.148,1.148,0,0,0,.243-.06v-1.894a.164.164,0,0,0-.2-.175h-.054v-.213h.808v1.235Z" transform="translate(-127.198 -160.625)" fill="#002460"/>
        </g>
        <g id="그룹_225" data-name="그룹 225" transform="translate(19.12 1.363)">
          <path id="패스_602" data-name="패스 602" d="M147.581,167.709a.109.109,0,0,1,.048.058.079.079,0,0,1-.01.067l-.719,1.157-.52-.323.539-.868a.04.04,0,0,0,.007-.034.058.058,0,0,0-.026-.029l-2.1-1.3.2-.326Zm-2.154-3.023a.8.8,0,0,1,.246-.122l-.457-.284.2-.322.936.582.094-.152a.116.116,0,0,0,.013-.1.124.124,0,0,0-.05-.074l-.066-.041.1-.155.7.437-.259.416.944.587-.2.322-.465-.289a.829.829,0,0,1,0,.275.715.715,0,0,1-.1.255.777.777,0,0,1-.6.36,1.242,1.242,0,0,1-1.285-.8.775.775,0,0,1,.059-.693A.717.717,0,0,1,145.428,164.686Zm.636.308a.477.477,0,0,0-.3.216.508.508,0,0,0-.071.364.427.427,0,0,0,.2.3.432.432,0,0,0,.36.051.5.5,0,0,0,.293-.221.516.516,0,0,0,.074-.365.417.417,0,0,0-.2-.3A.446.446,0,0,0,146.064,164.993Zm3.018,1.693-.225.362-.541-.336-.562.9-.5-.31,1-1.617a.192.192,0,0,0,.023-.131.178.178,0,0,0-.093-.128l-.083-.051.112-.181.749.466-.427.687Z" transform="translate(-144.801 -163.957)" fill="#002460"/>
        </g>
        <g id="그룹_226" data-name="그룹 226" transform="translate(23.236 6.76)">
          <path id="패스_603" data-name="패스 603" d="M157.125,181.843l-.347.173-1.916-3.854.347-.172.49.987,1.075-.535a.156.156,0,0,0,.084-.093.172.172,0,0,0-.016-.132l-.034-.07.187-.092.366.737-1.407.7.207.417,1.075-.534a.152.152,0,0,0,.084-.094.171.171,0,0,0-.015-.132l-.035-.07.187-.094.366.737-1.407.7Zm1.652-2.034a.08.08,0,0,0,.048-.046.125.125,0,0,0-.019-.078l-1.175-2.363.344-.171,1.464,2.946a.066.066,0,0,1,.01.039.043.043,0,0,1-.026.024l-1.11.551a3.217,3.217,0,0,1-.64.252,1.275,1.275,0,0,1-.5.025l-.257-.517a1.22,1.22,0,0,0,.515-.045,4.467,4.467,0,0,0,.658-.275Z" transform="translate(-154.863 -177.151)" fill="#002460"/>
        </g>
      </g>
      <g id="그룹_228" data-name="그룹 228" transform="translate(2.216 17.909)">
        <path id="패스_604" data-name="패스 604" d="M98.023,202.2l2.12-.357-.076-.45-2.06.347a1.806,1.806,0,0,1-.583.038.3.3,0,0,1-.246-.277.3.3,0,0,1,.052-.245.474.474,0,0,1,.251-.142l-.074-.442a.879.879,0,0,0-.574.308.725.725,0,0,0-.131.592.793.793,0,0,0,.177.389.847.847,0,0,0,.338.239,1.029,1.029,0,0,0,.372.049A3.072,3.072,0,0,0,98.023,202.2Z" transform="translate(-96.687 -200.424)" fill="#002460"/>
        <path id="패스_605" data-name="패스 605" d="M99.109,206.488a2.905,2.905,0,0,0,.446-.11l1.981-.62-.137-.439-1.99.623a1.184,1.184,0,0,1-.576.076.394.394,0,0,1-.292-.3.435.435,0,0,1,.058-.443,1.206,1.206,0,0,1,.517-.265l1.99-.623-.137-.438-1.981.621a4.311,4.311,0,0,0-.412.146,1,1,0,0,0-.331.243.9.9,0,0,0-.214.443,1.04,1.04,0,0,0,.043.5.8.8,0,0,0,.238.38,1.03,1.03,0,0,0,.412.2A1.111,1.111,0,0,0,99.109,206.488Z" transform="translate(-97.473 -202.359)" fill="#002460"/>
        <path id="패스_606" data-name="패스 606" d="M103.272,210.175l-2.09,1.125,1.433-2.345-.218-.4L99.5,210.109l.218.4,2.144-1.154-1.478,2.392.2.378,2.894-1.558Z" transform="translate(-98.351 -205.082)" fill="#002460"/>
        <path id="패스_607" data-name="패스 607" d="M106.061,215.911l-.363.347.679.712a1.311,1.311,0,0,1-.679.092.887.887,0,0,1-.7-.62,1.139,1.139,0,0,1-.047-.428,1.113,1.113,0,0,1,.129-.422,1.5,1.5,0,0,1,.289-.374,1.276,1.276,0,0,1,.38-.253,1.146,1.146,0,0,1,.447-.1.98.98,0,0,1,.4.063.958.958,0,0,1,.323.225.915.915,0,0,1,.243.85l.388.407a1.562,1.562,0,0,0,.14-.861,1.332,1.332,0,0,0-.369-.731,1.481,1.481,0,0,0-.489-.349,1.4,1.4,0,0,0-.6-.1,1.711,1.711,0,0,0-.638.134,1.886,1.886,0,0,0-.553.37,2.087,2.087,0,0,0-.393.506,1.751,1.751,0,0,0-.187.569,1.589,1.589,0,0,0,.044.654,1.3,1.3,0,0,0,.316.547,1.334,1.334,0,0,0,1.069.432,1.981,1.981,0,0,0,1.235-.546Z" transform="translate(-101.276 -208.519)" fill="#002460"/>
        <path id="패스_608" data-name="패스 608" d="M113.922,219.322l-1.891,1.673.933-2.327-.28-.191-1.835,1.716.874-2.373-.383-.262-1.127,3.211.338.231,1.758-1.674-.926,2.242.338.231,2.582-2.217Z" transform="translate(-104.68 -210.404)" fill="#002460"/>
        <path id="패스_609" data-name="패스 609" d="M120.593,224.68a1.675,1.675,0,0,0-.1-.637,1.529,1.529,0,0,0-.31-.52,1.416,1.416,0,0,0-.486-.328,1.368,1.368,0,0,0-.569-.107,1.492,1.492,0,0,0-.573.151,1.687,1.687,0,0,0-.532.382,1.864,1.864,0,0,0-.355.562,2.077,2.077,0,0,0-.153.621,1.738,1.738,0,0,0,.061.6,1.585,1.585,0,0,0,.306.58,1.3,1.3,0,0,0,.511.371,1.356,1.356,0,0,0,.622.1,1.65,1.65,0,0,0,.63-.184,1.667,1.667,0,0,0,.47-.378,1.979,1.979,0,0,0,.341-.558A1.807,1.807,0,0,0,120.593,224.68Zm-.573.469a1.276,1.276,0,0,1-.611.688.949.949,0,0,1-.824.038.868.868,0,0,1-.327-.238,1.155,1.155,0,0,1-.217-.372,1.112,1.112,0,0,1-.054-.438,1.492,1.492,0,0,1,.112-.459,1.307,1.307,0,0,1,.244-.386,1.1,1.1,0,0,1,.364-.275.9.9,0,0,1,.4-.105.942.942,0,0,1,.386.073.966.966,0,0,1,.349.238,1.07,1.07,0,0,1,.21.4,1.153,1.153,0,0,1,.061.421A1.208,1.208,0,0,1,120.019,225.149Z" transform="translate(-108.991 -213.672)" fill="#002460"/>
        <path id="패스_610" data-name="패스 610" d="M126.489,227.321l-.944-2.58-.452-.081-.581,3.236.452.081.43-2.4.954,2.645.422.076.581-3.236-.443-.08Z" transform="translate(-113.131 -214.601)" fill="#002460"/>
        <path id="패스_611" data-name="패스 611" d="M135.718,225.1l-.456.058.264,2.068a1.192,1.192,0,0,1-.025.58.4.4,0,0,1-.352.235.438.438,0,0,1-.426-.135,1.2,1.2,0,0,1-.17-.556l-.264-2.068-.456.058.263,2.06a4.292,4.292,0,0,0,.071.431,1,1,0,0,0,.182.369.9.9,0,0,0,.4.288,1.047,1.047,0,0,0,.5.045.793.793,0,0,0,.415-.167,1.039,1.039,0,0,0,.274-.37,1.12,1.12,0,0,0,.075-.38,3.065,3.065,0,0,0-.031-.459Z" transform="translate(-118.639 -214.861)" fill="#002460"/>
        <path id="패스_612" data-name="패스 612" d="M140.264,223.51l.77,2.245-2.08-1.8-.435.149,1.067,3.109.435-.149-.79-2.3,2.12,1.847.406-.139-1.067-3.109Z" transform="translate(-121.408 -213.836)" fill="#002460"/>
        <rect id="사각형_540" data-name="사각형 540" width="0.46" height="3.287" transform="matrix(0.893, -0.451, 0.451, 0.893, 19.402, 9.401)" fill="#002460"/>
        <path id="패스_613" data-name="패스 613" d="M149.425,219.7l-.6-.7.836-.717-.308-.359-.836.717-.6-.7.836-.717-.31-.361-1.185,1.016,0,0-.325.213.672,2.413-1.946-1.579-.4.265,2.728,2.143.23-.151-.826-3.154,2,2.338,1.185-1.016-.322-.375Z" transform="translate(-125.393 -209.999)" fill="#002460"/>
        <path id="패스_614" data-name="패스 614" d="M155.432,215.118a.986.986,0,0,0-.324-.531,1.051,1.051,0,0,0-.442-.24.8.8,0,0,0-.754.15,2.908,2.908,0,0,0-.267.272l-.463.52,2.454,2.188.3-.339-.973-.866.074-.082,1.529.241.384-.432-1.592-.224A1.127,1.127,0,0,0,155.432,215.118Zm-.633.616-.194.217-.767-.683.2-.229a.667.667,0,0,1,.384-.247.5.5,0,0,1,.4.159.461.461,0,0,1,.187.368A.7.7,0,0,1,154.8,215.734Z" transform="translate(-130.074 -208.484)" fill="#002460"/>
        <path id="패스_615" data-name="패스 615" d="M159.251,211.737a1,1,0,0,0-.564-.175.906.906,0,0,0-.534.176l-.175.136a1.7,1.7,0,0,1-.178.129.451.451,0,0,1-.173.076.276.276,0,0,1-.124-.01.615.615,0,0,1-.117-.061.5.5,0,0,1-.223-.26.351.351,0,0,1,.047-.3.32.32,0,0,1,.232-.151.512.512,0,0,1,.331.077l.229-.357a1.087,1.087,0,0,0-.692-.169.7.7,0,0,0-.5.336.742.742,0,0,0-.1.641,1.14,1.14,0,0,0,.708.684.684.684,0,0,0,.263.029,1.084,1.084,0,0,0,.355-.1,1.413,1.413,0,0,0,.29-.192,1.158,1.158,0,0,1,.346-.208.483.483,0,0,1,.377.093.551.551,0,0,1,.252.311.423.423,0,0,1-.061.362.385.385,0,0,1-.291.188.656.656,0,0,1-.406-.112l-.223.348a1.129,1.129,0,0,0,.768.2.769.769,0,0,0,.574-.366.8.8,0,0,0,.1-.707A1.174,1.174,0,0,0,159.251,211.737Z" transform="translate(-132.143 -206.433)" fill="#002460"/>
        <rect id="사각형_541" data-name="사각형 541" width="0.46" height="3.287" transform="translate(25.211 3.955) rotate(-64.122)" fill="#002460"/>
        <path id="패스_616" data-name="패스 616" d="M161.666,201.782l1.192.214.081-.452-1.162-.208-1.913-1.267-.09.5,1.4.884-1.626.351-.04.22-.031-.011-.545,1.556.455.159.2-.571,2.649.928.15-.427-2.649-.928.187-.533Z" transform="translate(-133.474 -200.069)" fill="#002460"/>
      </g>
      <path id="패스_617" data-name="패스 617" d="M125.162,179.875a.118.118,0,1,0-.118.118A.119.119,0,0,0,125.162,179.875Zm-12.482,0a.119.119,0,1,0-.119.118A.12.12,0,0,0,112.68,179.875Zm-1.56,0a.119.119,0,1,0-.119.118A.12.12,0,0,0,111.119,179.875Zm13.653,0a.119.119,0,1,0-.118.118A.119.119,0,0,0,124.772,179.875Zm-13.263,0a.119.119,0,1,0-.118.118A.119.119,0,0,0,111.509,179.875Zm.39,0a.119.119,0,1,0-.119.118A.119.119,0,0,0,111.9,179.875Zm.391,0a.119.119,0,1,0-.119.118A.12.12,0,0,0,112.29,179.875Zm-2.85-.119a.118.118,0,1,0,.119.119A.12.12,0,0,0,109.44,179.756Zm1.29.119a.119.119,0,1,0-.119.118A.12.12,0,0,0,110.729,179.875Zm-.391,0a.118.118,0,1,0-.118.118A.119.119,0,0,0,110.339,179.875Zm15.484.118a.118.118,0,1,0-.118-.118A.119.119,0,0,0,125.823,179.993Zm-.271-.118a.119.119,0,1,0-.118.118A.119.119,0,0,0,125.552,179.875Zm-15.6,0a.119.119,0,1,0-.119.118A.119.119,0,0,0,109.949,179.875Zm3.9,0a.119.119,0,1,0-.119.118A.119.119,0,0,0,113.85,179.875Zm4.291,0a.119.119,0,1,0-.119.118A.119.119,0,0,0,118.141,179.875Zm3.511,0a.119.119,0,1,0-.119.118A.119.119,0,0,0,121.651,179.875Zm-3.9,0a.119.119,0,1,0-.119.118A.119.119,0,0,0,117.75,179.875Zm-.39,0a.118.118,0,1,0-.119.118A.119.119,0,0,0,117.36,179.875Zm-.39,0a.119.119,0,1,0-.118.118A.119.119,0,0,0,116.97,179.875Zm1.561,0a.119.119,0,1,0-.119.118A.12.12,0,0,0,118.531,179.875Zm3.51,0a.119.119,0,1,0-.119.118A.119.119,0,0,0,122.041,179.875Zm-1.17,0a.119.119,0,1,0-.119.118A.12.12,0,0,0,120.871,179.875Zm1.56,0a.119.119,0,1,0-.118.118A.119.119,0,0,0,122.431,179.875Zm-3.51,0a.119.119,0,1,0-.119.118A.12.12,0,0,0,118.921,179.875Zm.78,0a.118.118,0,1,0-.119.118A.119.119,0,0,0,119.7,179.875Zm.391,0a.119.119,0,1,0-.119.118A.12.12,0,0,0,120.091,179.875Zm1.17,0a.119.119,0,1,0-.119.118A.119.119,0,0,0,121.261,179.875Zm-1.95,0a.119.119,0,1,0-.119.118A.12.12,0,0,0,119.311,179.875Zm3.9,0a.119.119,0,1,0-.119.118A.119.119,0,0,0,123.211,179.875Zm-8.972,0a.119.119,0,1,0-.119.118A.119.119,0,0,0,114.24,179.875Zm9.362,0a.119.119,0,1,0-.119.118A.119.119,0,0,0,123.6,179.875Zm-8.971,0a.119.119,0,1,0-.119.118A.119.119,0,0,0,114.63,179.875Zm5.851,0a.118.118,0,1,0-.119.118A.119.119,0,0,0,120.481,179.875Zm-7.411,0a.119.119,0,1,0-.119.118A.119.119,0,0,0,113.07,179.875Zm.39,0a.119.119,0,1,0-.119.118A.12.12,0,0,0,113.46,179.875Zm10.532,0a.119.119,0,1,0-.119.118A.119.119,0,0,0,123.991,179.875Zm.39,0a.118.118,0,1,0-.119.118A.119.119,0,0,0,124.382,179.875Zm-9.362,0a.118.118,0,1,0-.119.118A.119.119,0,0,0,115.02,179.875Zm7.8,0a.119.119,0,1,0-.119.118A.119.119,0,0,0,122.822,179.875Zm-6.631,0a.119.119,0,1,0-.119.118A.12.12,0,0,0,116.191,179.875Zm-.391,0a.118.118,0,1,0-.118.118A.119.119,0,0,0,115.8,179.875Zm.78,0a.119.119,0,1,0-.119.118A.119.119,0,0,0,116.58,179.875Zm-1.17,0a.119.119,0,1,0-.119.118A.12.12,0,0,0,115.41,179.875Zm12.048,1.726.055-.023.065-.021.067-.032a.45.45,0,0,0,.233-.339c0-.029.008-.062.008-.062l0-.056-.009-.077-.008-.079a10.138,10.138,0,0,0-2.264-5.428l-.1-.13a.484.484,0,0,0-.558-.184l-.077.036h0l-.133.052a1.6,1.6,0,0,1-.466-.48.839.839,0,0,0,.066-.129.434.434,0,0,0,.059-.215.46.46,0,0,0-.157-.334c-.022-.015-.16-.135-.16-.135a10.417,10.417,0,0,0-5.336-2.2l-.2-.026-.049,0a.579.579,0,0,0-.459.19l-.056.073-.124.234a1.817,1.817,0,0,1-.56,0l-.127-.217-.034-.071a.424.424,0,0,0-.442-.214h-.01l-.079.012a10.337,10.337,0,0,0-5.446,2.182l-.15.114-.043.035a.584.584,0,0,0-.181.4c0,.016,0,.031,0,.046l.011.082.045.217a1.444,1.444,0,0,1-.471.468.283.283,0,0,0-.056-.015l-.11-.051-.09-.023a.5.5,0,0,0-.41.134l-.072.063-.115.143a10.162,10.162,0,0,0-2.22,5.384l-.018.145.006.115a.44.44,0,0,0,.265.348l.1.031.093.031c0,.066.007.276.007.276v.41l-.153.052a.433.433,0,0,0-.306.392l-.008.092.016.175a10.144,10.144,0,0,0,2.265,5.4l.1.128a.476.476,0,0,0,.546.164l.08-.039.148-.058a1.25,1.25,0,0,1,.421.471l-.086.148-.022.047a.464.464,0,0,0,.11.446l.068.078.137.107a10.339,10.339,0,0,0,5.394,2.234l.174.022.1,0a.563.563,0,0,0,.436-.246c.017-.033.126-.207.126-.207a2.892,2.892,0,0,1,.554.015l.113.183a.575.575,0,0,0,.036.05.565.565,0,0,0,.41.2l.09.006.2-.019a10.37,10.37,0,0,0,5.356-2.2l.12-.092.083-.079a.5.5,0,0,0,.141-.34.418.418,0,0,0-.027-.15c-.006-.016-.054-.166-.054-.166a1.632,1.632,0,0,1,.47-.475l.057.02.094.038a.984.984,0,0,0,.1.027.5.5,0,0,0,.467-.179l.1-.122a10.141,10.141,0,0,0,2.262-5.352l.018-.136.005-.125a.513.513,0,0,0-.26-.415l-.167-.074v-.315S127.456,181.7,127.458,181.6Zm-9.755-7a7.436,7.436,0,0,1,6.254,3.484l.212-.13a7.684,7.684,0,0,0-6.466-3.6v-1.469l.076,0c.311-.036.486-.107.568-.229l.063-.119h0s.082-.156.118-.222a9.724,9.724,0,0,1,5.216,2.137.85.85,0,0,0-.109.36.527.527,0,0,0,.011.107,1.715,1.715,0,0,0,1.062.992.8.8,0,0,0,.4-.116,9.58,9.58,0,0,1,1.857,3.527l-2.229-.647h-2.112s-.088.135-.361.081a.33.33,0,0,1-.267-.2.3.3,0,0,0-.1-.107.975.975,0,0,0-.16-.049H117.7Zm-7.676,1.222a.768.768,0,0,0,.549.061,1.607,1.607,0,0,0,.9-1.056l-.069-.371a9.73,9.73,0,0,1,5.206-2.14,1,1,0,0,0,.364.478,1.561,1.561,0,0,0,.481.093v1.467a7.68,7.68,0,0,0-6.466,3.61l.212.129a7.435,7.435,0,0,1,6.254-3.492V178.4h-3.982a.972.972,0,0,0-.159.049.3.3,0,0,0-.1.107.332.332,0,0,1-.266.2c-.274.054-.362-.081-.362-.081h-2.111l-2.284.662A9.556,9.556,0,0,1,110.027,175.826Zm7.426,13.207a7.485,7.485,0,0,1-5.717-2.735l-.193.156a7.735,7.735,0,0,0,5.911,2.826v1.782l-.373.038a.8.8,0,0,0-.44.443,9.724,9.724,0,0,1-5.258-2.162.673.673,0,0,0,.107-.324.519.519,0,0,0-.01-.1,1.557,1.557,0,0,0-.977-.991.824.824,0,0,0-.445.105A9.646,9.646,0,0,1,108.744,186h8.71Zm7.651-.969a.64.64,0,0,0-.522-.06c-.256.114-.856.622-.9,1.036a.537.537,0,0,0,0,.058.943.943,0,0,0,.068.3,9.734,9.734,0,0,1-5.26,2.143c-.115-.218-.224-.391-.411-.438l-.347-.043H117.7V189.28a7.739,7.739,0,0,0,5.911-2.833l-.195-.154a7.485,7.485,0,0,1-5.716,2.74V186h8.71A9.611,9.611,0,0,1,125.1,188.064Zm1.4-2.257-.346-.3H109.069l-.391.358a9.491,9.491,0,0,1-.8-2.968.6.6,0,0,0,.492-.551l-.006.006c.006-.039.008-.107.011-.215h2.066v2.01h1.018V180.7h.276v3.439h2.845V180.7h.275v3.439h1.285V180.7h.275v3.439h.525l.619-.293.623.293h.686V180.7h.281v3.439h1.281V180.7h.275v3.439h2.85V180.7h.272v3.439h1.039v-2.01h1.955v.3c0,.3.273.42.457.488A9.507,9.507,0,0,1,126.5,185.808Zm-.8-5.726a.939.939,0,0,1-.089.126H109.629c-.031-.043-.059-.085-.083-.126Zm-16.265-.046a.161.161,0,1,1,.162-.161A.161.161,0,0,1,109.44,180.035Zm.228-.161a.163.163,0,1,1,.163.161A.162.162,0,0,1,109.667,179.875Zm.391,0a.162.162,0,1,1,.162.161A.161.161,0,0,1,110.058,179.875Zm.39,0a.162.162,0,1,1,.162.161A.161.161,0,0,1,110.448,179.875Zm.39,0a.162.162,0,1,1,.162.161A.162.162,0,0,1,110.838,179.875Zm.39,0a.163.163,0,1,1,.163.161A.162.162,0,0,1,111.228,179.875Zm.39,0a.162.162,0,1,1,.162.161A.162.162,0,0,1,111.618,179.875Zm.39,0a.162.162,0,1,1,.162.161A.161.161,0,0,1,112.008,179.875Zm.39,0a.162.162,0,1,1,.162.161A.161.161,0,0,1,112.4,179.875Zm.39,0a.162.162,0,1,1,.162.161A.161.161,0,0,1,112.789,179.875Zm.389,0a.163.163,0,1,1,.162.161A.162.162,0,0,1,113.178,179.875Zm.39,0a.162.162,0,1,1,.162.161A.162.162,0,0,1,113.568,179.875Zm.39,0a.162.162,0,1,1,.162.161A.162.162,0,0,1,113.959,179.875Zm.39,0a.162.162,0,1,1,.162.161A.162.162,0,0,1,114.349,179.875Zm.39,0a.163.163,0,1,1,.162.161A.162.162,0,0,1,114.739,179.875Zm.39,0a.162.162,0,1,1,.162.161A.162.162,0,0,1,115.129,179.875Zm.391,0a.162.162,0,1,1,.162.161A.161.161,0,0,1,115.52,179.875Zm.39,0a.162.162,0,1,1,.162.161A.162.162,0,0,1,115.909,179.875Zm.39,0a.162.162,0,1,1,.162.161A.162.162,0,0,1,116.3,179.875Zm.39,0a.162.162,0,1,1,.162.161A.162.162,0,0,1,116.689,179.875Zm.39,0a.162.162,0,1,1,.162.161A.162.162,0,0,1,117.079,179.875Zm.39,0a.163.163,0,1,1,.163.161A.162.162,0,0,1,117.469,179.875Zm.391,0a.162.162,0,1,1,.162.161A.162.162,0,0,1,117.86,179.875Zm.39,0a.162.162,0,1,1,.163.161A.162.162,0,0,1,118.249,179.875Zm.39,0a.162.162,0,1,1,.162.161A.162.162,0,0,1,118.64,179.875Zm.39,0a.162.162,0,1,1,.162.161A.161.161,0,0,1,119.03,179.875Zm.39,0a.162.162,0,1,1,.162.161A.161.161,0,0,1,119.42,179.875Zm.39,0a.162.162,0,1,1,.162.161A.162.162,0,0,1,119.81,179.875Zm.39,0a.162.162,0,1,1,.162.161A.161.161,0,0,1,120.2,179.875Zm.39,0a.162.162,0,1,1,.162.161A.161.161,0,0,1,120.59,179.875Zm.39,0a.162.162,0,1,1,.162.161A.162.162,0,0,1,120.98,179.875Zm.39,0a.163.163,0,1,1,.163.161A.162.162,0,0,1,121.37,179.875Zm.391,0a.162.162,0,1,1,.162.161A.161.161,0,0,1,121.761,179.875Zm.389,0a.162.162,0,1,1,.163.161A.162.162,0,0,1,122.15,179.875Zm.391,0a.162.162,0,1,1,.162.161A.161.161,0,0,1,122.541,179.875Zm.39,0a.162.162,0,1,1,.162.161A.162.162,0,0,1,122.93,179.875Zm.39,0a.162.162,0,1,1,.162.161A.161.161,0,0,1,123.321,179.875Zm.39,0a.162.162,0,1,1,.162.161A.162.162,0,0,1,123.71,179.875Zm.391,0a.162.162,0,1,1,.162.161A.161.161,0,0,1,124.1,179.875Zm.389,0a.163.163,0,1,1,.163.161A.162.162,0,0,1,124.49,179.875Zm.391,0a.162.162,0,1,1,.162.161A.161.161,0,0,1,124.881,179.875Zm.389,0a.163.163,0,1,1,.163.161A.162.162,0,0,1,125.271,179.875Zm.391,0a.162.162,0,0,1,.324,0,.162.162,0,0,1-.324,0Zm-.151.453a1.976,1.976,0,0,1-.324.26H110.022a1.691,1.691,0,0,1-.3-.26Zm-3.4.434,0,2.382h-.549v-2.382Zm-3.918-.061v.626l-.591-.245-.632.239v-.62Zm-4.5,0v2.4h-.5v-2.4Zm13.136.746-.015.395v.045h-1.955v-.967l.038-.047a1.971,1.971,0,0,0,.971-.824,1.645,1.645,0,0,0,.427-.359H108.952a1.472,1.472,0,0,0,.434.368,1.825,1.825,0,0,0,1.054.877v.954h-2.062c0-.014,0-.025,0-.041s-.031-.46-.031-.46c-.04-.273-.3-.359-.474-.4a9.609,9.609,0,0,1,.293-1.569H126.99a9.557,9.557,0,0,1,.3,1.586C127.122,181.056,126.849,181.168,126.835,181.448Z" transform="translate(-100.728 -165.209)" fill="#002460"/>
      <g id="그룹_229" data-name="그룹 229" transform="translate(8.633 19.139)">
        <path id="패스_618" data-name="패스 618" d="M128.566,203.363h-.506v-.488l-.02,0H113.486v.495h-.753l-.358.361h16.531Zm-.767.033H113.708v-.275H127.8Z" transform="translate(-112.375 -202.875)" fill="#002460"/>
      </g>
    </g>
  </g>
</svg>
