<svg xmlns="http://www.w3.org/2000/svg" width="233.273" height="32.386" viewBox="0 0 233.273 32.386">
  <g id="그룹_322" data-name="그룹 322" transform="translate(-53.551 -66.318)">
    <g id="그룹_319" data-name="그룹 319" transform="translate(130.769 66.318)">
      <path id="패스_993" data-name="패스 993" d="M334.216,69.586h0V73.5c0,1.276-.038,2.328-.123,3.154a4.547,4.547,0,0,1-.713,2.123h2.7a6.238,6.238,0,0,0,.848-2.085,12.716,12.716,0,0,0,.31-2.986V67.269H323.692v1.589h9.951c.116.007.573.08.573.728M332.723,80v-6.87h-3.582a1.08,1.08,0,0,1,.62,1.02l.015-.005V80H328.25v-6.87h-3.57a1.08,1.08,0,0,1,.618,1.02l.008-.005V80h-3v1.567h16.751V80Z" transform="translate(-245.664 -66.725)" fill="#12100f"/>
      <path id="패스_994" data-name="패스 994" d="M292.9,76.51a5.049,5.049,0,0,0,3.326-1.134,3.4,3.4,0,0,0,1.369-2.7,3.047,3.047,0,0,0-.408-1.547,3.718,3.718,0,0,0-1.133-1.237h2.251V68.366h-3.884V66.323h-2.616v-.005h-1.1a.832.832,0,0,1,.65.755v1.293h-3.878v1.529h2.248a3.87,3.87,0,0,0-1.115,1.237,3.072,3.072,0,0,0-.41,1.547,3.372,3.372,0,0,0,1.391,2.7A5.028,5.028,0,0,0,292.9,76.51m-1.25-5.494a1.484,1.484,0,0,1,2.509,0,2.656,2.656,0,0,1,.531,1.661,2.713,2.713,0,0,1-.531,1.67,1.477,1.477,0,0,1-2.509,0,2.631,2.631,0,0,1-.542-1.67,2.576,2.576,0,0,1,.542-1.661m-2.158,8.2h10.418v4.456h3.062V77.648h-13.48Zm13.48-9.12v-3.5h-3.706a.831.831,0,0,1,.644.742V76.51h3.062V72.217a.47.47,0,0,1,.41-.531h2.652V70.1Z" transform="translate(-230.774 -66.318)" fill="#12100f"/>
      <path id="패스_995" data-name="패스 995" d="M267.723,66.82h-.651a.832.832,0,0,1,.648.753h0v3.885h-1.338a.448.448,0,0,1-.481-.408V66.82h-3.545a.838.838,0,0,1,.647.728v8.267a5.272,5.272,0,0,1-.933.256,6.93,6.93,0,0,1-1.363.113h-3.065V69.053h3.819V67.464h-6.833v8.5a1.656,1.656,0,0,0,.566,1.317,2.277,2.277,0,0,0,1.547.492h3.85a5.264,5.264,0,0,0,1.435-.171,4.17,4.17,0,0,0,.977-.423V83.9h2.9V73.033h1.819V83.9h2.905V66.82Z" transform="translate(-216.733 -66.533)" fill="#12100f"/>
      <path id="패스_996" data-name="패스 996" d="M227.673,82.315a.464.464,0,0,1-.472-.339V78.188H224.14v3.858a1.661,1.661,0,0,0,.6,1.362,2.281,2.281,0,0,0,1.511.493h11.07V82.315Zm-1.63-8.708a6.831,6.831,0,0,0,4.589,3.427l1.1-1.612a6.151,6.151,0,0,1-2.687-1.692,5.388,5.388,0,0,1-1.439-3.878V67.088H224.5v2.766a5.427,5.427,0,0,1-1.425,3.858,5.993,5.993,0,0,1-2.692,1.7l1.089,1.621a7.6,7.6,0,0,0,4.57-3.427m7.535-6.118V79.447h3.066V66.82h-3.7a.855.855,0,0,1,.635.668" transform="translate(-202.092 -66.533)" fill="#12100f"/>
      <path id="패스_997" data-name="패스 997" d="M197.721,68.661a6.012,6.012,0,0,0-7.692,0,4.381,4.381,0,0,0,0,6.765,6.006,6.006,0,0,0,7.692,0,4.37,4.37,0,0,0,0-6.765m-2.165,5.661a2.057,2.057,0,0,1-1.654.932,2.094,2.094,0,0,1-1.695-.924,3.546,3.546,0,0,1-.714-2.255,3.693,3.693,0,0,1,.7-2.309,1.981,1.981,0,0,1,3.358,0,3.643,3.643,0,0,1,.7,2.267,3.68,3.68,0,0,1-.7,2.289m8.487-3.28V66.817h-3.066v0h-.653a.83.83,0,0,1,.649.752h0V83.9h3.066V73.124a.459.459,0,0,1,.449-.5H207.1V71.041Z" transform="translate(-188.432 -66.531)" fill="#12100f"/>
    </g>
    <path id="패스_998" data-name="패스 998" d="M86.8,68.95c-18.363,0-33.251,5.7-33.251,12.726S68.439,94.4,86.8,94.4s33.254-5.7,33.254-12.728S105.167,68.95,86.8,68.95" transform="translate(0 -1.125)" fill="#00565d"/>
    <path id="패스_999" data-name="패스 999" d="M85.922,88.392c-.5-.468-.653-1.5-.436-2.9a3.832,3.832,0,0,1,.921-2.181,4.04,4.04,0,0,1,2.481-.631l4.363,0,.461-2.609H89.056a6.859,6.859,0,0,0-2.856.422,4.887,4.887,0,0,0-2.039,1.563,7.9,7.9,0,0,0-1.444,3.726,7.351,7.351,0,0,0,.094,3.178,3.317,3.317,0,0,0,2.66,2.439,9.031,9.031,0,0,0,1.687.128l4.531.015.463-2.624-4.432-.033a2.828,2.828,0,0,1-1.8-.491m8.709-5.711h4.2c-.159.9-1.561,8.854-1.561,8.854h2.9s1.381-7.88,1.538-8.777h3.5l.477-2.694H97.868a3.508,3.508,0,0,0-3.238,2.617m14.837.562c.208-.678,1.6-.53,2.429-.534h4.151l.476-2.688h-5.212l-1.43.042a3.682,3.682,0,0,0-2.433,1.116,4.269,4.269,0,0,0-1.079,2.127,3.053,3.053,0,0,0,.059,1.4,2.339,2.339,0,0,0,.659,1.1,3.907,3.907,0,0,0,2.628.688h1.942c1.831,0,1.579.946,1.558,1.212-.216,1.146-1.46,1.139-1.75,1.139l-6.04.013-.468,2.68h6.03c4.739,0,5.028-3.6,5.112-4.085a3.743,3.743,0,0,0-.068-1.7,2.114,2.114,0,0,0-1.461-1.443,6.251,6.251,0,0,0-1.98-.226h-1.683a2.93,2.93,0,0,1-1.162-.149.517.517,0,0,1-.279-.691m-27.709,8.3L79.592,81.4c.813-.673,1.907-1.7,1.907-1.7a10.073,10.073,0,0,1-2.707.339h-.9a3.32,3.32,0,0,0-2.676,1.844L69.6,91.535h2.921s3.768-6.577,4.726-8.254c.14.712.406,2.111.689,3.553h-1.5L75.4,88.871h2.92c.289,1.491.517,2.668.517,2.668Z" transform="translate(-6.859 -5.724)" fill="#fff"/>
    <g id="그룹_320" data-name="그룹 320" transform="translate(232.249 66.442)">
      <path id="패스_1000" data-name="패스 1000" d="M372.356,76.777h-2.8a2.049,2.049,0,0,1-1.485-.5,1.7,1.7,0,0,1-.573-1.354V67.523h12.816V69.14h-3.1c-.594.02-1.209.02-1.825.02h-4.923v6h10.1v1.616h-5.219V80.7h6.641v1.575h-16.3V80.7h6.663Z" transform="translate(-365.693 -66.957)" fill="#161615"/>
      <path id="패스_1001" data-name="패스 1001" d="M404.28,70.232a6.513,6.513,0,0,0,.4,2.344A6.75,6.75,0,0,0,405.7,74.5a5.779,5.779,0,0,0,1.464,1.375,4.412,4.412,0,0,0,1.7.707l-1.443,1.233a4.4,4.4,0,0,1-1.443-.384,5.937,5.937,0,0,1-1.4-.808,5.666,5.666,0,0,1-1.146-1.071,3.258,3.258,0,0,1-.7-1.172,2.8,2.8,0,0,1-.615,1.192,7.011,7.011,0,0,1-1.146,1.071,7.584,7.584,0,0,1-1.421.788,4.732,4.732,0,0,1-1.422.384l-1.485-1.233a4.494,4.494,0,0,0,1.719-.707,6.342,6.342,0,0,0,1.485-1.395,6.994,6.994,0,0,0,1.4-4.243V66.878h3.034a7.072,7.072,0,0,0-.021.768v2.162A2.583,2.583,0,0,0,404.28,70.232Zm5.708,1.657h-3.65v-1.6h3.65a8.032,8.032,0,0,1,0-1.01c0-.3.021-.586.021-.869V66.535h2.971V81.184c0,.808,0,1.475.021,1.98v.748H410.01V77.87c0-.868-.021-1.8-.021-2.808C409.967,74.092,409.967,73.021,409.988,71.889Z" transform="translate(-378.924 -66.535)" fill="#161615"/>
      <path id="패스_1002" data-name="패스 1002" d="M441.56,74.7V66.535h2.971v3.758h2.186a5.723,5.723,0,0,0,.573.021h.17a.079.079,0,0,0,.064-.021v1.6H444.53v7.5H441.56V76.092a8.231,8.231,0,0,1-3.437.666h-8.679V75.182H432.2V71.142h2.843a.647.647,0,0,0-.022.181v2.769c0,.343,0,.707.022,1.091h3.2a9.447,9.447,0,0,0,1.889-.121A5.953,5.953,0,0,0,441.56,74.7Zm-4.5-6.021H430.1v-1.6h7.872a2.3,2.3,0,0,1,1.528.5,1.858,1.858,0,0,1,.551,1.374v2.222a5.349,5.349,0,0,1-.064.788q-.094.454-.191.848a7.711,7.711,0,0,1-.275.748,1.753,1.753,0,0,1-.277.465h-2.588A3.546,3.546,0,0,0,437,72.738c.042-.5.064-1.01.064-1.5Zm-4.477,9.6h2.991v4.041h9.633v1.6H434.664a2.244,2.244,0,0,1-1.485-.485,1.742,1.742,0,0,1-.594-1.414V78.274Z" transform="translate(-392.947 -66.535)" fill="#161615"/>
    </g>
    <g id="그룹_321" data-name="그룹 321" transform="translate(131.497 87.241)">
      <path id="패스_1003" data-name="패스 1003" d="M196.549,109.607l.2.043-.7,2.263H189.7v-.227h.309a.818.818,0,0,0,.743-.345,2.022,2.022,0,0,0,.127-.91V105.05a1.75,1.75,0,0,0-.169-.978.88.88,0,0,0-.7-.27H189.7v-.228h3.71v.228a2.239,2.239,0,0,0-.916.123.744.744,0,0,0-.359.326,2.72,2.72,0,0,0-.1.941v5.24a1.724,1.724,0,0,0,.1.7.429.429,0,0,0,.223.191,3.837,3.837,0,0,0,.943.062h.6a4.259,4.259,0,0,0,1.323-.141,1.722,1.722,0,0,0,.694-.5A4.13,4.13,0,0,0,196.549,109.607Z" transform="translate(-189.703 -103.168)" fill="#161615"/>
      <path id="패스_1004" data-name="패스 1004" d="M205.148,105.811v4.526a2.107,2.107,0,0,0,.076.7.534.534,0,0,0,.224.261,1.17,1.17,0,0,0,.54.086v.221H203.3v-.221a1.23,1.23,0,0,0,.543-.08.545.545,0,0,0,.221-.264,2.035,2.035,0,0,0,.081-.707v-2.171a7.757,7.757,0,0,0-.054-1.187.482.482,0,0,0-.133-.274.37.37,0,0,0-.248-.077,1.194,1.194,0,0,0-.41.092l-.085-.221,1.668-.689Zm-.5-2.946a.584.584,0,0,1,.432.181.6.6,0,0,1,.178.44.614.614,0,0,1-.178.443.579.579,0,0,1-.432.185.588.588,0,0,1-.435-.185.632.632,0,0,1,0-.882A.591.591,0,0,1,204.647,102.865Z" transform="translate(-195.48 -102.865)" fill="#161615"/>
      <path id="패스_1005" data-name="패스 1005" d="M210.576,106.949a2.2,2.2,0,0,1,1.734-1.138,1.908,1.908,0,0,1,1.487.741,3.017,3.017,0,0,1,.634,2.027,3.153,3.153,0,0,1-.979,2.416,2.674,2.674,0,0,1-1.873.787,2.909,2.909,0,0,1-.982-.178,4.479,4.479,0,0,1-1.018-.535v-5.836a8.573,8.573,0,0,0-.045-1.181.521.521,0,0,0-.142-.3.366.366,0,0,0-.242-.08,1.226,1.226,0,0,0-.423.1l-.085-.215,1.661-.689h.272Zm0,.393v3.37a2.315,2.315,0,0,0,.637.464,1.55,1.55,0,0,0,.674.157,1.319,1.319,0,0,0,1.024-.615,2.889,2.889,0,0,0,.475-1.79,2.572,2.572,0,0,0-.475-1.664,1.3,1.3,0,0,0-1.719-.415A2.809,2.809,0,0,0,210.576,107.342Z" transform="translate(-197.8 -102.865)" fill="#161615"/>
      <path id="패스_1006" data-name="패스 1006" d="M221.676,108.011v1.266q.695-1.267,1.425-1.266a.769.769,0,0,1,.55.206.641.641,0,0,1,.218.477.569.569,0,0,1-.157.406.5.5,0,0,1-.374.166.791.791,0,0,1-.474-.212.777.777,0,0,0-.39-.212.358.358,0,0,0-.236.123,2.976,2.976,0,0,0-.562.83v2.7a1.7,1.7,0,0,0,.115.707.635.635,0,0,0,.278.277,1.2,1.2,0,0,0,.574.111v.221h-2.834v-.221a1.156,1.156,0,0,0,.628-.136.524.524,0,0,0,.212-.313,3.226,3.226,0,0,0,.03-.6V110.36a9.177,9.177,0,0,0-.04-1.171.461.461,0,0,0-.145-.274.4.4,0,0,0-.263-.086,1.179,1.179,0,0,0-.422.092l-.061-.221,1.673-.689Z" transform="translate(-202.548 -105.065)" fill="#161615"/>
      <path id="패스_1007" data-name="패스 1007" d="M230.769,113a9.141,9.141,0,0,1-1.069.775,1.612,1.612,0,0,1-.7.154,1.234,1.234,0,0,1-.946-.4,1.481,1.481,0,0,1-.372-1.052,1.359,1.359,0,0,1,.181-.713,2.421,2.421,0,0,1,.861-.787,13.348,13.348,0,0,1,2.04-.9v-.222a1.857,1.857,0,0,0-.263-1.156.939.939,0,0,0-.764-.314.85.85,0,0,0-.6.209.635.635,0,0,0-.23.48l.012.357a.621.621,0,0,1-.142.437.482.482,0,0,1-.372.153.466.466,0,0,1-.366-.16.635.635,0,0,1-.142-.437,1.266,1.266,0,0,1,.532-.972,2.266,2.266,0,0,1,1.492-.443,2.554,2.554,0,0,1,1.208.252,1.144,1.144,0,0,1,.526.6,3.4,3.4,0,0,1,.11,1.083v1.912a9,9,0,0,0,.03.988.412.412,0,0,0,.1.243.232.232,0,0,0,.16.061.322.322,0,0,0,.169-.043,3.708,3.708,0,0,0,.49-.449V113q-.676.923-1.293.923a.585.585,0,0,1-.472-.209A1.15,1.15,0,0,1,230.769,113Zm0-.4v-2.146a11.948,11.948,0,0,0-1.178.523,2.047,2.047,0,0,0-.683.566,1.106,1.106,0,0,0-.206.646,1.063,1.063,0,0,0,.26.735.779.779,0,0,0,.6.292A2.175,2.175,0,0,0,230.769,112.6Z" transform="translate(-205.942 -105.065)" fill="#161615"/>
      <path id="패스_1008" data-name="패스 1008" d="M238.683,108.011v1.266q.7-1.267,1.426-1.266a.769.769,0,0,1,.55.206.639.639,0,0,1,.218.477.571.571,0,0,1-.157.406.5.5,0,0,1-.375.166.791.791,0,0,1-.474-.212.778.778,0,0,0-.389-.212.357.357,0,0,0-.236.123,2.963,2.963,0,0,0-.562.83v2.7a1.694,1.694,0,0,0,.115.707.634.634,0,0,0,.279.277,1.2,1.2,0,0,0,.574.111v.221h-2.834v-.221a1.157,1.157,0,0,0,.629-.136.521.521,0,0,0,.211-.313,3.223,3.223,0,0,0,.03-.6V110.36a9.3,9.3,0,0,0-.04-1.171.458.458,0,0,0-.145-.274.4.4,0,0,0-.263-.086,1.184,1.184,0,0,0-.423.092l-.061-.221,1.674-.689Z" transform="translate(-209.818 -105.065)" fill="#161615"/>
      <path id="패스_1009" data-name="패스 1009" d="M244.052,108.3h2.58v.227h-.127a.6.6,0,0,0-.408.12.381.381,0,0,0-.136.3,1.713,1.713,0,0,0,.2.664l1.348,2.841,1.238-3.112a1.307,1.307,0,0,0,.1-.5.268.268,0,0,0-.043-.166.323.323,0,0,0-.151-.108,1.135,1.135,0,0,0-.362-.04V108.3h1.8v.227a.852.852,0,0,0-.344.1,1.011,1.011,0,0,0-.266.277,3.829,3.829,0,0,0-.206.474L247.024,115a2.908,2.908,0,0,1-.855,1.236,1.665,1.665,0,0,1-1.018.418.84.84,0,0,1-.587-.21.633.633,0,0,1-.229-.48.546.546,0,0,1,.166-.415.639.639,0,0,1,.456-.157,1.6,1.6,0,0,1,.543.136,1.3,1.3,0,0,0,.3.092.628.628,0,0,0,.4-.191,2.021,2.021,0,0,0,.432-.738l.393-.978-1.988-4.25a3.415,3.415,0,0,0-.289-.473,1.39,1.39,0,0,0-.248-.289,1.352,1.352,0,0,0-.447-.172Z" transform="translate(-212.938 -105.189)" fill="#161615"/>
      <path id="패스_1010" data-name="패스 1010" d="M254.6,119.319v-.271a1.986,1.986,0,0,0,.964-.649,1.5,1.5,0,0,0,.341-.932.339.339,0,0,0-.054-.2.114.114,0,0,0-.084-.055.861.861,0,0,0-.29.123.5.5,0,0,1-.23.055.633.633,0,0,1-.472-.178.672.672,0,0,1-.175-.492.687.687,0,0,1,.226-.516.775.775,0,0,1,.553-.215.926.926,0,0,1,.71.354,1.369,1.369,0,0,1,.311.938,1.857,1.857,0,0,1-.432,1.178A2.852,2.852,0,0,1,254.6,119.319Z" transform="translate(-217.447 -108.477)" fill="#161615"/>
      <path id="패스_1011" data-name="패스 1011" d="M269,108.979h-3.172l-.556,1.316a2.105,2.105,0,0,0-.206.726.423.423,0,0,0,.179.335,1.529,1.529,0,0,0,.77.188v.227h-2.58v-.227a1.375,1.375,0,0,0,.665-.24,3.791,3.791,0,0,0,.682-1.2l2.882-6.863h.211l2.853,6.937a3.155,3.155,0,0,0,.625,1.085,1.262,1.262,0,0,0,.783.28v.227H268.9v-.227a1.193,1.193,0,0,0,.662-.166.431.431,0,0,0,.172-.345,2.579,2.579,0,0,0-.242-.855Zm-.169-.455-1.389-3.37-1.426,3.37Z" transform="translate(-221.225 -103.026)" fill="#161615"/>
      <path id="패스_1012" data-name="패스 1012" d="M286.769,103.241l.187,2.835h-.187a3.584,3.584,0,0,0-1.069-1.833,2.579,2.579,0,0,0-1.668-.56,2.679,2.679,0,0,0-1.474.421,2.778,2.778,0,0,0-1.037,1.344,6.093,6.093,0,0,0-.377,2.294,4.939,4.939,0,0,0,.357,1.962,2.705,2.705,0,0,0,1.072,1.273,3.046,3.046,0,0,0,1.634.443,2.791,2.791,0,0,0,1.408-.348,4.672,4.672,0,0,0,1.342-1.38l.187.123a4.347,4.347,0,0,1-1.438,1.63,3.59,3.59,0,0,1-1.952.516,3.671,3.671,0,0,1-3.154-1.537,4.448,4.448,0,0,1-.834-2.694,4.855,4.855,0,0,1,.55-2.294,4.029,4.029,0,0,1,3.619-2.2,3.806,3.806,0,0,1,1.752.443.94.94,0,0,0,.363.136.4.4,0,0,0,.284-.117.964.964,0,0,0,.223-.461Z" transform="translate(-228.206 -103.026)" fill="#161615"/>
      <path id="패스_1013" data-name="패스 1013" d="M300.949,103.574l.09,1.956h-.23a2.388,2.388,0,0,0-.181-.738,1.227,1.227,0,0,0-.5-.526,1.711,1.711,0,0,0-.819-.169h-1.154v6.371a1.726,1.726,0,0,0,.163.959.9.9,0,0,0,.706.258h.284v.227h-3.474v-.227h.29a.825.825,0,0,0,.737-.32,1.9,1.9,0,0,0,.133-.9V104.1h-.985a2.685,2.685,0,0,0-.816.086,1.125,1.125,0,0,0-.538.449,1.845,1.845,0,0,0-.266.9h-.23l.1-1.956Z" transform="translate(-234.361 -103.168)" fill="#161615"/>
      <path id="패스_1014" data-name="패스 1014" d="M313.071,103.241v2.884h-.223a3.632,3.632,0,0,0-.39-1.322,2.045,2.045,0,0,0-.8-.781,2.189,2.189,0,0,0-1.075-.289,1.448,1.448,0,0,0-1.04.391,1.2,1.2,0,0,0-.41.889,1.066,1.066,0,0,0,.259.7,6.676,6.676,0,0,0,1.783,1.23,12.316,12.316,0,0,1,1.568.962,2.338,2.338,0,0,1,.647.791,2.111,2.111,0,0,1,.227.953,2.176,2.176,0,0,1-.722,1.633,2.586,2.586,0,0,1-1.858.685,3.9,3.9,0,0,1-.671-.055,6.852,6.852,0,0,1-.776-.224,3.432,3.432,0,0,0-.746-.194.314.314,0,0,0-.239.092.744.744,0,0,0-.13.381h-.223V109.1h.223a4.107,4.107,0,0,0,.422,1.344,2.052,2.052,0,0,0,.813.741,2.483,2.483,0,0,0,1.2.3,1.69,1.69,0,0,0,1.194-.406,1.268,1.268,0,0,0,.438-.959,1.322,1.322,0,0,0-.166-.621,1.847,1.847,0,0,0-.517-.585,14.783,14.783,0,0,0-1.287-.784,12.509,12.509,0,0,1-1.5-.957,2.566,2.566,0,0,1-.674-.787,1.981,1.981,0,0,1-.23-.947,2.069,2.069,0,0,1,.677-1.547,2.387,2.387,0,0,1,1.721-.649,3.408,3.408,0,0,1,1.384.326,1.394,1.394,0,0,0,.477.154.355.355,0,0,0,.257-.1.762.762,0,0,0,.16-.384Z" transform="translate(-240.349 -103.026)" fill="#161615"/>
      <path id="패스_1015" data-name="패스 1015" d="M330.414,103.8v-.228h2.9v.228h-.309a.829.829,0,0,0-.743.412,1.909,1.909,0,0,0-.127.886v3.382a6.077,6.077,0,0,1-.244,1.946,2.432,2.432,0,0,1-.961,1.187,3.376,3.376,0,0,1-1.949.5,3.621,3.621,0,0,1-2.036-.473,2.556,2.556,0,0,1-.985-1.273,7.186,7.186,0,0,1-.193-2.054v-3.26a1.657,1.657,0,0,0-.208-1.009.849.849,0,0,0-.674-.239h-.308v-.228h3.541v.228H327.8a.807.807,0,0,0-.725.326,1.857,1.857,0,0,0-.151.922v3.635a8.054,8.054,0,0,0,.088,1.113,2.382,2.382,0,0,0,.317.978,1.731,1.731,0,0,0,.662.578,2.252,2.252,0,0,0,1.06.227,2.878,2.878,0,0,0,1.438-.357,1.894,1.894,0,0,0,.867-.913,5.375,5.375,0,0,0,.232-1.885V105.05a1.755,1.755,0,0,0-.169-.978.879.879,0,0,0-.7-.27Z" transform="translate(-247.363 -103.168)" fill="#161615"/>
      <path id="패스_1016" data-name="패스 1016" d="M342.233,109.2a2.6,2.6,0,0,1,1.855-1.193,1.315,1.315,0,0,1,.779.23,1.55,1.55,0,0,1,.52.76,3.589,3.589,0,0,1,.133,1.132v2.4a2.047,2.047,0,0,0,.085.725.5.5,0,0,0,.215.24,1.186,1.186,0,0,0,.547.086v.221h-2.738v-.221h.115a.905.905,0,0,0,.54-.12.626.626,0,0,0,.215-.353,3.68,3.68,0,0,0,.024-.578v-2.306a2.376,2.376,0,0,0-.2-1.116.7.7,0,0,0-.661-.348,1.983,1.983,0,0,0-1.432.8v2.971a2.164,2.164,0,0,0,.066.707.569.569,0,0,0,.232.262,1.427,1.427,0,0,0,.6.083v.221H340.4v-.221h.121a.643.643,0,0,0,.571-.219,1.611,1.611,0,0,0,.148-.833v-2.091a9.339,9.339,0,0,0-.045-1.236.53.53,0,0,0-.14-.3.371.371,0,0,0-.25-.08,1.148,1.148,0,0,0-.4.092l-.09-.221,1.668-.689h.259Z" transform="translate(-254.087 -105.065)" fill="#161615"/>
      <path id="패스_1017" data-name="패스 1017" d="M353.661,105.811v4.526a2.106,2.106,0,0,0,.076.7.534.534,0,0,0,.224.261,1.17,1.17,0,0,0,.54.086v.221h-2.688v-.221a1.229,1.229,0,0,0,.543-.08.545.545,0,0,0,.221-.264,2.017,2.017,0,0,0,.082-.707v-2.171a7.917,7.917,0,0,0-.054-1.187.486.486,0,0,0-.133-.274.369.369,0,0,0-.247-.077,1.194,1.194,0,0,0-.411.092l-.085-.221,1.668-.689Zm-.5-2.946a.585.585,0,0,1,.432.181.6.6,0,0,1,.178.44.614.614,0,0,1-.178.443.58.58,0,0,1-.432.185.587.587,0,0,1-.435-.185.63.63,0,0,1,0-.882A.591.591,0,0,1,353.16,102.865Z" transform="translate(-258.97 -102.865)" fill="#161615"/>
      <path id="패스_1018" data-name="패스 1018" d="M357.387,108.3h2.6v.227h-.169a.5.5,0,0,0-.36.117.409.409,0,0,0-.124.314,1.319,1.319,0,0,0,.127.511l1.287,3.111,1.292-3.228a1.546,1.546,0,0,0,.14-.523.209.209,0,0,0-.049-.141.339.339,0,0,0-.169-.126,1.639,1.639,0,0,0-.417-.034V108.3h1.807v.227a.774.774,0,0,0-.435.129,1.572,1.572,0,0,0-.38.615l-1.964,4.834h-.248l-1.976-4.753a1.858,1.858,0,0,0-.254-.477,1,1,0,0,0-.308-.243,1.5,1.5,0,0,0-.4-.1Z" transform="translate(-261.39 -105.189)" fill="#161615"/>
      <path id="패스_1019" data-name="패스 1019" d="M369.783,110.294a2.925,2.925,0,0,0,.6,1.968,1.811,1.811,0,0,0,1.42.713,1.524,1.524,0,0,0,.946-.3,2.254,2.254,0,0,0,.673-1.043l.187.123a2.953,2.953,0,0,1-.737,1.534,1.955,1.955,0,0,1-1.529.692,2.216,2.216,0,0,1-1.707-.79,3.062,3.062,0,0,1-.71-2.125,3.25,3.25,0,0,1,.728-2.254,2.357,2.357,0,0,1,1.828-.808,2.027,2.027,0,0,1,1.529.624,2.311,2.311,0,0,1,.6,1.67Zm0-.357h2.561a2.438,2.438,0,0,0-.127-.763,1.221,1.221,0,0,0-.45-.542,1.12,1.12,0,0,0-.625-.2,1.236,1.236,0,0,0-.9.4A1.738,1.738,0,0,0,369.783,109.937Z" transform="translate(-266.322 -105.06)" fill="#161615"/>
      <path id="패스_1020" data-name="패스 1020" d="M379.89,108.011v1.266q.7-1.267,1.426-1.266a.769.769,0,0,1,.55.206.639.639,0,0,1,.218.477.571.571,0,0,1-.157.406.5.5,0,0,1-.375.166.791.791,0,0,1-.474-.212.778.778,0,0,0-.389-.212.357.357,0,0,0-.236.123,2.962,2.962,0,0,0-.562.83v2.7a1.7,1.7,0,0,0,.114.707.634.634,0,0,0,.279.277,1.2,1.2,0,0,0,.574.111v.221h-2.834v-.221a1.157,1.157,0,0,0,.629-.136.521.521,0,0,0,.211-.313,3.222,3.222,0,0,0,.03-.6V110.36a9.479,9.479,0,0,0-.039-1.171.461.461,0,0,0-.145-.274.4.4,0,0,0-.263-.086,1.184,1.184,0,0,0-.423.092l-.061-.221,1.674-.689Z" transform="translate(-270.186 -105.065)" fill="#161615"/>
      <path id="패스_1021" data-name="패스 1021" d="M389.546,108.011v1.918h-.2a2.51,2.51,0,0,0-.589-1.23,1.309,1.309,0,0,0-.915-.326,1,1,0,0,0-.682.228.663.663,0,0,0-.26.5.923.923,0,0,0,.194.59,2.144,2.144,0,0,0,.761.535l.882.436a1.822,1.822,0,0,1,1.226,1.605,1.525,1.525,0,0,1-.571,1.239,1.959,1.959,0,0,1-1.278.471,4.323,4.323,0,0,1-1.16-.184,1.167,1.167,0,0,0-.326-.061.24.24,0,0,0-.218.16h-.2v-2.011h.2a2.3,2.3,0,0,0,.646,1.3,1.544,1.544,0,0,0,1.069.436.949.949,0,0,0,.68-.249.8.8,0,0,0,.263-.6.964.964,0,0,0-.293-.713,5.118,5.118,0,0,0-1.169-.732,3.462,3.462,0,0,1-1.148-.8,1.4,1.4,0,0,1-.271-.886,1.576,1.576,0,0,1,.468-1.162,1.642,1.642,0,0,1,1.211-.467,2.8,2.8,0,0,1,.792.141,1.847,1.847,0,0,0,.411.092.237.237,0,0,0,.151-.043.585.585,0,0,0,.127-.191Z" transform="translate(-273.702 -105.065)" fill="#161615"/>
      <path id="패스_1022" data-name="패스 1022" d="M396.218,105.811v4.526a2.106,2.106,0,0,0,.076.7.534.534,0,0,0,.224.261,1.168,1.168,0,0,0,.54.086v.221h-2.688v-.221a1.23,1.23,0,0,0,.543-.08.545.545,0,0,0,.221-.264,2.035,2.035,0,0,0,.081-.707v-2.171a7.835,7.835,0,0,0-.054-1.187.486.486,0,0,0-.133-.274.369.369,0,0,0-.248-.077,1.194,1.194,0,0,0-.41.092l-.085-.221,1.668-.689Zm-.5-2.946a.585.585,0,0,1,.432.181.6.6,0,0,1,.178.44.614.614,0,0,1-.178.443.58.58,0,0,1-.432.185.588.588,0,0,1-.435-.185.63.63,0,0,1,0-.882A.591.591,0,0,1,395.716,102.865Z" transform="translate(-277.163 -102.865)" fill="#161615"/>
      <path id="패스_1023" data-name="패스 1023" d="M401.849,105.067v1.851h1.293v.431h-1.293V111a1.239,1.239,0,0,0,.155.738.485.485,0,0,0,.4.191.686.686,0,0,0,.387-.127.8.8,0,0,0,.29-.372h.236a1.931,1.931,0,0,1-.6.907,1.279,1.279,0,0,1-.8.3,1.062,1.062,0,0,1-.543-.157.942.942,0,0,1-.393-.449,2.387,2.387,0,0,1-.127-.9v-3.788h-.876v-.2a2.286,2.286,0,0,0,.68-.458,3.626,3.626,0,0,0,.619-.766,6.95,6.95,0,0,0,.386-.855Z" transform="translate(-279.597 -103.806)" fill="#161615"/>
      <path id="패스_1024" data-name="패스 1024" d="M406,108.3h2.58v.227h-.127a.6.6,0,0,0-.408.12.381.381,0,0,0-.136.3,1.713,1.713,0,0,0,.2.664l1.348,2.841,1.238-3.112a1.307,1.307,0,0,0,.1-.5.271.271,0,0,0-.042-.166.328.328,0,0,0-.151-.108,1.135,1.135,0,0,0-.362-.04V108.3h1.8v.227a.853.853,0,0,0-.345.1,1.011,1.011,0,0,0-.266.277,3.921,3.921,0,0,0-.206.474L408.976,115a2.908,2.908,0,0,1-.855,1.236,1.665,1.665,0,0,1-1.018.418.84.84,0,0,1-.587-.21.633.633,0,0,1-.229-.48.546.546,0,0,1,.166-.415.639.639,0,0,1,.456-.157,1.6,1.6,0,0,1,.543.136,1.3,1.3,0,0,0,.3.092.628.628,0,0,0,.4-.191,2.021,2.021,0,0,0,.432-.738l.393-.978-1.988-4.25a3.484,3.484,0,0,0-.29-.473,1.39,1.39,0,0,0-.248-.289,1.352,1.352,0,0,0-.447-.172Z" transform="translate(-282.174 -105.189)" fill="#161615"/>
    </g>
  </g>
</svg>
