<svg xmlns="http://www.w3.org/2000/svg" width="150.371" height="40.754" viewBox="0 0 150.371 40.754">
  <g id="그룹_236" data-name="그룹 236" transform="translate(0)">
    <g id="그룹_234" data-name="그룹 234" transform="translate(0 0)">
      <g id="그룹_232" data-name="그룹 232" transform="translate(2.741 13.394)">
        <path id="패스_619" data-name="패스 619" d="M233.839,294.846v5.632a36.191,36.191,0,0,1,8.533,1.131v-5.784A40.611,40.611,0,0,0,233.839,294.846Z" transform="translate(-213.761 -294.846)" fill="#003760"/>
        <path id="패스_620" data-name="패스 620" d="M233.839,315.81v5.12a28.454,28.454,0,0,1,8.533,1.537v-5.354A32.461,32.461,0,0,0,233.839,315.81Z" transform="translate(-213.761 -305.275)" fill="#003760"/>
        <path id="패스_621" data-name="패스 621" d="M194,341.584s-.189.162-.09.306c.065.1.248.037.248.037a40.944,40.944,0,0,1,28.334-.769v-5.53A32.677,32.677,0,0,0,194,341.584Z" transform="translate(-193.884 -314.588)" fill="#003760"/>
      </g>
      <g id="그룹_233" data-name="그룹 233" transform="translate(1.208 3.396)">
        <path id="패스_622" data-name="패스 622" d="M226.24,280.177v-5.161a23,23,0,0,0-4.94.07v5.177A17.83,17.83,0,0,1,226.24,280.177Z" transform="translate(-205.99 -274.915)" fill="#0070a4"/>
        <path id="패스_623" data-name="패스 623" d="M206.143,288.246v17.172a24.735,24.735,0,0,0-15.274,13.108s-.09.151.011.234.274-.109.274-.109a29.041,29.041,0,0,1,19.928-9.585V288.145A15.666,15.666,0,0,0,206.143,288.246Z" transform="translate(-190.833 -281.423)" fill="#0070a4"/>
      </g>
      <path id="패스_624" data-name="패스 624" d="M203.586,278.683V268.157a27.74,27.74,0,0,0-15.157,9.825v30.591s.013.3.177.3.223-.289.223-.289a23.6,23.6,0,0,1,14.757-15.377v-5.376a24.112,24.112,0,0,0-10.282,5.785V279.842a22.066,22.066,0,0,1,5.412-4.464v5.588A15.841,15.841,0,0,1,203.586,278.683Z" transform="translate(-188.429 -268.157)" fill="#a9c300"/>
    </g>
    <g id="그룹_235" data-name="그룹 235" transform="translate(39.125 18.239)">
      <path id="패스_625" data-name="패스 625" d="M415.559,310.98h-1.317v-5.033h-1.981v16.192h1.981v-9.453h1.317v9.453h1.98V305.947h-1.98Z" transform="translate(-338.97 -305.214)" fill="#003760"/>
      <path id="패스_626" data-name="패스 626" d="M398.01,316.988h6v-1.706h-4.018v-6.324h4.018v-1.706h-6Z" transform="translate(-331.881 -305.863)" fill="#003760"/>
      <path id="패스_627" data-name="패스 627" d="M339.632,319.445H337.74v5.622h-1.629v-5.622H334.22v5.622h-3.389v1.706h13.576v-1.706h-4.776Z" transform="translate(-298.461 -311.929)" fill="#003760"/>
      <path id="패스_628" data-name="패스 628" d="M342.46,316.014h1.981v-8.639H334.3V309.2h8.164Z" transform="translate(-300.184 -305.924)" fill="#003760"/>
      <path id="패스_629" data-name="패스 629" d="M472.4,316.014h1.981v-8.639H464.24V309.2H472.4Z" transform="translate(-364.829 -305.924)" fill="#003760"/>
      <path id="패스_630" data-name="패스 630" d="M469.575,325.067v-5.622h-1.891v5.622h-1.629v-5.622h-1.892v5.622h-3.39v1.706h13.577v-1.706Z" transform="translate(-363.104 -311.929)" fill="#003760"/>
      <path id="패스_631" data-name="패스 631" d="M285.193,309.78h-2.58v1.705h2.58v3.688h1.983v-9.226h-1.983Z" transform="translate(-274.473 -305.214)" fill="#003760"/>
      <path id="패스_632" data-name="패스 632" d="M274.748,313.885l1.215-1.354a6.1,6.1,0,0,1-3.645-4.116h2.871v-1.7h-2.953v-1.7h-2.1v1.7h-2.953v1.7h2.874a6.1,6.1,0,0,1-3.645,4.116l1.215,1.354a7.3,7.3,0,0,0,3.559-3.128A7.306,7.306,0,0,0,274.748,313.885Z" transform="translate(-266.415 -304.749)" fill="#003760"/>
      <path id="패스_633" data-name="패스 633" d="M279.6,323.986a3.736,3.736,0,1,0,3.953,3.728A3.845,3.845,0,0,0,279.6,323.986Zm0,5.75a2.021,2.021,0,1,1,1.97-2.021A2,2,0,0,1,279.6,329.736Z" transform="translate(-271.007 -314.188)" fill="#003760"/>
      <path id="패스_634" data-name="패스 634" d="M363.432,321.789h4.27v1.447h-2.261v1.707h7.985V329.2h1.982v-5.966h-1.991v-1.447h4.063v-1.707H363.432Zm8.029,1.447h-1.8v-1.447h1.8Z" transform="translate(-314.679 -312.246)" fill="#003760"/>
      <path id="패스_635" data-name="패스 635" d="M373.5,311.947a3.736,3.736,0,1,0-3.953-3.729A3.844,3.844,0,0,0,373.5,311.947Zm0-5.75a2.022,2.022,0,1,1-1.971,2.021A2,2,0,0,1,373.5,306.2Z" transform="translate(-317.719 -304.488)" fill="#003760"/>
      <path id="패스_636" data-name="패스 636" d="M451.145,305.947h-1.983v9.464h1.983v-3.949h2.145v-1.707h-2.145Z" transform="translate(-357.328 -305.214)" fill="#003760"/>
      <path id="패스_637" data-name="패스 637" d="M433.115,328.088h8.064V332.3h1.983v-5.917H433.115Z" transform="translate(-349.345 -315.381)" fill="#003760"/>
      <path id="패스_638" data-name="패스 638" d="M437.307,310.538a3.365,3.365,0,0,0-.729-2.082h1.536V306.75h-3.489v-1.693h-2.1v1.693h-3.487v1.706h1.534a3.37,3.37,0,0,0-.728,2.082,3.737,3.737,0,0,0,7.462,0Zm-5.537,0a1.807,1.807,0,1,1,1.807,1.855A1.83,1.83,0,0,1,431.77,310.538Z" transform="translate(-347.317 -304.771)" fill="#003760"/>
      <path id="패스_639" data-name="패스 639" d="M299.253,323.558h5.784v6.477h2.115v-6.477h5.785v-1.707H299.253Z" transform="translate(-282.751 -313.126)" fill="#003760"/>
      <path id="패스_640" data-name="패스 640" d="M302.009,312.11l1.1,1.5a9.848,9.848,0,0,0,4.359-2.738,9.845,9.845,0,0,0,4.359,2.738l1.1-1.5c-3.369-1.209-4.186-2.739-4.345-3.673h3.754v-1.706H302.6v1.706h3.751C306.2,309.371,305.377,310.9,302.009,312.11Z" transform="translate(-284.122 -305.604)" fill="#003760"/>
    </g>
  </g>
</svg>
