<svg xmlns="http://www.w3.org/2000/svg" width="60" height="60" viewBox="0 0 60 60">
  <g id="그룹_163" data-name="그룹 163" transform="translate(-389.148 -1060.335)">
    <circle id="타원_26" data-name="타원 26" cx="30" cy="30" r="30" transform="translate(389.148 1060.335)" fill="#d5d5d5"/>
    <path id="패스_503" data-name="패스 503" d="M391.949,1075.365v27.3a30.024,30.024,0,0,0,6.349,8.259h6.385a3.372,3.372,0,0,0,3.4-3.35v-37.118a3.374,3.374,0,0,0-3.4-3.351H398.3A30.057,30.057,0,0,0,391.949,1075.365Z" transform="translate(0.546 1.319)" fill="#26c6da"/>
    <rect id="사각형_536" data-name="사각형 536" width="16.129" height="43.819" rx="2.842" transform="translate(410.329 1068.425)" fill="#3f3d38"/>
    <path id="사각형_537" data-name="사각형 537" d="M1.995,0h7.33a1.994,1.994,0,0,1,1.994,1.994V16.441a1.994,1.994,0,0,1-1.994,1.994H1.994A1.994,1.994,0,0,1,0,16.441V1.995A1.995,1.995,0,0,1,1.995,0Z" transform="translate(412.734 1091.462)" fill="#fff"/>
    <path id="패스_504" data-name="패스 504" d="M418.065,1073.632h-6.553a2.383,2.383,0,0,1-2.382-2.384v.331a2.383,2.383,0,0,1,2.382-2.383h6.553a2.383,2.383,0,0,1,2.382,2.383v-.331A2.383,2.383,0,0,1,418.065,1073.632Z" transform="translate(3.604 1.614)" fill="#fff"/>
    <path id="패스_505" data-name="패스 505" d="M443.287,1089.348a30.214,30.214,0,0,0-9.926-22.425,3.339,3.339,0,0,0-.354.123l-8.627,3.573a3.4,3.4,0,0,0-1.837,4.436l13.876,33.5A30.168,30.168,0,0,0,443.287,1089.348Z" transform="translate(5.86 1.283)" fill="#26c6da"/>
    <path id="패스_506" data-name="패스 506" d="M433.907,1073.53l-6.055,2.508a2.382,2.382,0,0,1-3.113-1.289l.127.3a2.384,2.384,0,0,1,1.29-3.114l6.054-2.508a2.384,2.384,0,0,1,3.113,1.29l-.127-.306A2.383,2.383,0,0,1,433.907,1073.53Z" transform="translate(6.328 1.618)" fill="#fff"/>
    <g id="그룹_162" data-name="그룹 162" transform="translate(394.9 1070.81)">
      <path id="패스_507" data-name="패스 507" d="M393.962,1071.245c0-.056,0-.111.008-.166s-.008-.109-.008-.165Z" transform="translate(-393.962 -1068.861)" fill="#fff"/>
      <path id="패스_508" data-name="패스 508" d="M403.437,1071.245v-.331c0,.056,0,.11-.008.165S403.437,1071.189,403.437,1071.245Z" transform="translate(-392.118 -1068.861)" fill="#fff"/>
      <path id="패스_509" data-name="패스 509" d="M402.9,1069.2h-6.553a2.368,2.368,0,0,0-1.05.247q-.667.794-1.278,1.636a2.118,2.118,0,0,0,2.329,2.553H402.9a2.223,2.223,0,1,0,0-4.436Z" transform="translate(-393.961 -1069.196)" fill="#fff"/>
    </g>
    <path id="패스_510" data-name="패스 510" d="M402.9,1086.76h-6.553a2.383,2.383,0,0,0-2.382,2.382v13.67a2.439,2.439,0,0,0,.053.5q.615.842,1.282,1.639a2.373,2.373,0,0,0,1.048.246H402.9a2.383,2.383,0,0,0,2.383-2.383v-13.67A2.383,2.383,0,0,0,402.9,1086.76Z" transform="translate(0.938 4.702)" fill="#fff"/>
    <path id="패스_511" data-name="패스 511" d="M441.5,1086.148a2.382,2.382,0,0,0-2.57-.49l-6.054,2.508a2.382,2.382,0,0,0-1.289,3.113l4.73,11.42A30.147,30.147,0,0,0,441.5,1086.148Z" transform="translate(7.637 4.486)" fill="#fff"/>
  </g>
</svg>
