<svg xmlns="http://www.w3.org/2000/svg" width="45" height="45.004" viewBox="0 0 45 45.004">
  <g id="그룹_58" data-name="그룹 58" transform="translate(-87.199 -431.697)">
    <path id="패스_209" data-name="패스 209" d="M131.52,431.7H87.882a.684.684,0,0,0-.683.683v40.912a.682.682,0,0,0,.683.681h3.476a3.41,3.41,0,0,0,6.682,0H121.36a3.407,3.407,0,0,0,6.678,0h3.482a.68.68,0,0,0,.679-.681V432.38A.682.682,0,0,0,131.52,431.7Zm-4.434,27.275h-2.8v-7.783h2.8Zm.681-9.145H123.6a.68.68,0,0,0-.681.681v8.464h-1.461V452.04a.683.683,0,0,0-.681-.681h-2.636v-1.933a.679.679,0,0,0-.679-.681h-3.506a.683.683,0,0,0-.683.681v9.545h-2.895V446.7h20.454v12.273H128.45v-8.464A.681.681,0,0,0,127.767,449.826Zm-13.125,9.145v-8.864h2.144v8.864Zm3.5-6.248H120.1v6.248h-1.955Zm-21.828,6.248v-8.864h1.9v8.864Zm-3.662,0V453.29h2.3v5.681Zm-4.09,0V446.7h20.452v9.434l-1.947-7.383a.681.681,0,0,0-.315-.418.693.693,0,0,0-.516-.068l-3.162.834a.679.679,0,0,0-.482.834l.157.607a.641.641,0,0,0-.153-.03H99.587v-1.081a.682.682,0,0,0-.681-.681H95.635a.682.682,0,0,0-.681.681v2.5H91.974a.684.684,0,0,0-.687.681v6.363Zm6.674-18.921v-1.816h2.385v7.1H95.239Zm-1.366,5.284H91.942v-4.6h1.931Zm10.843-6.079v-.169h1.575v6.248h-1.575Zm-1.364,6.079h-1.577v-5.4h1.577Zm2.991,13.479-2.26-8.57,1.844-.486,2.258,8.572Zm-6.756-6.943h2.33v7.1h-2.33Zm3.693.667,1.7,6.435h-1.7Zm16.99-14.3h2.33v7.1h-2.33Zm5.39,7.1h-1.7V438.9Zm1.368-.159-2.258-8.57,1.84-.486,2.26,8.572Zm-8.122.159H117v-7.1h1.9Zm-3.267-7.783v7.783h-2.3v-8.948h2.3Zm15.2,7.783h-.482a.637.637,0,0,0,.006-.331l-2.608-9.89a.681.681,0,0,0-.832-.486l-3.16.834a.685.685,0,0,0-.486.834l.161.607a.647.647,0,0,0-.153-.032H117V435.7a.679.679,0,0,0-.681-.681h-3.666a.679.679,0,0,0-.679.681v9.631h-1.591V433.063h20.454Zm-21.82-12.271v12.271h-1.362V438.4a.68.68,0,0,0-.679-.681h-2.943a.68.68,0,0,0-.681.681v.171h-2.258a.682.682,0,0,0-.683.681v6.079H98.99v-7.783a.685.685,0,0,0-.681-.683H94.556a.686.686,0,0,0-.683.683v1.82h-2.61a.679.679,0,0,0-.681.679v5.284H88.565V433.063ZM97.539,472.609h-1.9v-5.681h1.9Zm-3.267-6.363v6.363h-2.3V464.37h2.3Zm.424,9.091a2.041,2.041,0,0,1-1.919-1.364h3.841A2.039,2.039,0,0,1,94.7,475.337Zm4.209-2.728v-7.1h3.012v7.1Zm10.111,0h-1.931v-4.6h1.931Zm1.366,0v-7.1h2.385v7.1Zm3.807,0v-5.965h2.387v5.965Zm10.776-6.646v-1.151h2.461v7.8h-2.461Zm-1.362,6.646h-2.142v-5.965H123.6Zm1.095,2.728a2.041,2.041,0,0,1-1.919-1.364h3.841A2.047,2.047,0,0,1,124.7,475.337Zm4.092-2.728v-8.478a.681.681,0,0,0-.683-.683h-3.823a.68.68,0,0,0-.681.683v1.149h-2.823a.68.68,0,0,0-.681.683v6.646h-2.162v-6.646a.682.682,0,0,0-.681-.683h-3.124v-.456a.682.682,0,0,0-.685-.679H109.7a.681.681,0,0,0-.681.679v1.82h-2.61a.681.681,0,0,0-.681.683v5.282h-2.447v-7.785a.679.679,0,0,0-.681-.679H98.222a.683.683,0,0,0-.683.679v.741h-1.9v-1.876a.682.682,0,0,0-.681-.683H91.287a.686.686,0,0,0-.681.683v8.92H88.565V460.335h42.272v12.273Z" transform="translate(0 0)" fill="#26c6da"/>
  </g>
</svg>
