<svg xmlns="http://www.w3.org/2000/svg" width="45" height="44.998" viewBox="0 0 45 44.998">
  <g id="그룹_57" data-name="그룹 57" transform="translate(-760.543 -770.912)">
    <g id="그룹_50" data-name="그룹 50" transform="translate(760.543 770.912)">
      <path id="패스_202" data-name="패스 202" d="M804.858,770.912H761.226a.682.682,0,0,0-.683.683v43.634a.681.681,0,0,0,.683.681h43.632a.682.682,0,0,0,.685-.681V771.6A.684.684,0,0,0,804.858,770.912Zm-42.951,1.364h42.272V776.8H761.907Zm0,42.27V778.16h42.272v36.386Z" transform="translate(-760.543 -770.912)" fill="#26c6da"/>
    </g>
    <g id="그룹_51" data-name="그룹 51" transform="translate(800.137 774.024)">
      <path id="패스_203" data-name="패스 203" d="M780.6,772.583a.717.717,0,1,0,1.02,0A.75.75,0,0,0,780.6,772.583Z" transform="translate(-780.389 -772.383)" fill="#26c6da"/>
    </g>
    <g id="그룹_52" data-name="그룹 52" transform="translate(796.225 774.014)">
      <path id="패스_204" data-name="패스 204" d="M779.052,772.378a.718.718,0,0,0,0,1.437.718.718,0,1,0,0-1.437Z" transform="translate(-778.335 -772.378)" fill="#26c6da"/>
    </g>
    <g id="그룹_53" data-name="그룹 53" transform="translate(792.107 774.024)">
      <path id="패스_205" data-name="패스 205" d="M776.489,772.583a.711.711,0,0,0-.207.51.711.711,0,0,0,1.221.5.7.7,0,0,0,0-1.011A.742.742,0,0,0,776.489,772.583Z" transform="translate(-776.282 -772.383)" fill="#26c6da"/>
    </g>
    <g id="그룹_54" data-name="그룹 54" transform="translate(767.484 787.645)">
      <path id="패스_206" data-name="패스 206" d="M772.969,779.716a.717.717,0,0,0-1.018,0l-7.918,7.9a.723.723,0,0,0,0,1.018l7.918,7.9a.72.72,0,0,0,1.018,0,.722.722,0,0,0,0-1.016l-7.408-7.389,7.408-7.391A.722.722,0,0,0,772.969,779.716Z" transform="translate(-763.823 -779.504)" fill="#26c6da"/>
    </g>
    <g id="그룹_55" data-name="그룹 55" transform="translate(790.2 787.646)">
      <path id="패스_207" data-name="패스 207" d="M776.918,779.715a.717.717,0,1,0-1.013,1.016l7.408,7.391-7.408,7.389a.718.718,0,0,0,.508,1.227.71.71,0,0,0,.506-.209l7.918-7.9a.717.717,0,0,0,0-1.018Z" transform="translate(-775.693 -779.504)" fill="#26c6da"/>
    </g>
    <g id="그룹_56" data-name="그룹 56" transform="translate(778.509 787.645)">
      <path id="패스_208" data-name="패스 208" d="M779.2,779.589a.722.722,0,0,0-.975.292l-8.521,15.8a.718.718,0,0,0,.292.973.7.7,0,0,0,.341.085.716.716,0,0,0,.63-.377l8.521-15.8A.717.717,0,0,0,779.2,779.589Z" transform="translate(-769.615 -779.504)" fill="#26c6da"/>
    </g>
  </g>
</svg>
