<svg xmlns="http://www.w3.org/2000/svg" width="44.45" height="44.45" viewBox="0 0 44.45 44.45">
  <g id="그룹_71" data-name="그룹 71" transform="translate(-686.013 -778.893)">
    <g id="그룹_68" data-name="그룹 68" transform="translate(686.013 778.893)">
      <path id="패스_218" data-name="패스 218" d="M702.1,786.939a8.046,8.046,0,1,0-8.046,8.044A8.056,8.056,0,0,0,702.1,786.939Zm-14.729,0a6.684,6.684,0,1,1,6.683,6.683A6.691,6.691,0,0,1,687.376,786.939Z" transform="translate(-686.013 -778.893)" fill="#26c6da"/>
    </g>
    <g id="그룹_69" data-name="그룹 69" transform="translate(691.503 781.908)">
      <path id="패스_219" data-name="패스 219" d="M691.987,789.776v-.355a2.41,2.41,0,0,0,1.876-2.289,2.318,2.318,0,0,0-2.556-2.385c-.816,0-1.2-.325-1.2-1.024a1.211,1.211,0,0,1,2.393,0,.68.68,0,0,0,1.359,0,2.418,2.418,0,0,0-1.876-2.291v-.353a.681.681,0,1,0-1.361,0v.353a2.42,2.42,0,0,0-1.874,2.291,2.318,2.318,0,0,0,2.556,2.385c.816,0,1.2.327,1.2,1.024a1.211,1.211,0,0,1-2.393,0,.68.68,0,0,0-1.359,0,2.413,2.413,0,0,0,1.874,2.289v.355a.681.681,0,1,0,1.361,0Z" transform="translate(-688.752 -780.397)" fill="#26c6da"/>
    </g>
    <g id="그룹_70" data-name="그룹 70" transform="translate(692.35 785.978)">
      <path id="패스_220" data-name="패스 220" d="M723.034,800.3h-1.373V787.924a5.272,5.272,0,0,0-10.544,0v13.045a2.793,2.793,0,0,1-5.586,0l0-5.388a3.457,3.457,0,0,0-6.913,0v13.49a3.639,3.639,0,0,1-7.278,0V795.545l.581.246-1.261-2.984-1.259,2.984.577-.246v13.526a5,5,0,1,0,10,0v-13.49a2.1,2.1,0,0,1,4.193,0l0,5.388a4.152,4.152,0,1,0,8.3,0V787.924a3.912,3.912,0,0,1,7.823,0V800.3h-1.371a4.483,4.483,0,0,0-4.48,4.478v10.762a4.483,4.483,0,0,0,4.48,4.478h4.105a4.483,4.483,0,0,0,4.478-4.478V804.777A4.483,4.483,0,0,0,723.034,800.3Zm3.119,4.478v1.3a7.563,7.563,0,0,1-4.492,2.009v-6.424h1.373A3.124,3.124,0,0,1,726.153,804.777Zm-7.224-3.119H720.3v6.424a7.568,7.568,0,0,1-4.492-2.009v-1.3A3.126,3.126,0,0,1,718.929,801.658Zm4.105,17h-4.105a3.122,3.122,0,0,1-3.121-3.117v-7.717a8.949,8.949,0,0,0,5.129,1.65c.014,0,.028.008.044.008s.028-.008.042-.008a8.954,8.954,0,0,0,5.129-1.65v7.717A3.121,3.121,0,0,1,723.034,818.656Z" transform="translate(-689.399 -782.652)" fill="#26c6da"/>
    </g>
  </g>
</svg>
