<svg xmlns="http://www.w3.org/2000/svg" width="232.273" height="173.072" viewBox="0 0 232.273 173.072">
  <g id="Kids_Studying_from_Home-rafiki" data-name="Kids Studying from Home-rafiki" transform="translate(0 -55)" opacity="0.8">
    <g id="freepik--background-complete--inject-27" transform="translate(0 55)">
      <rect id="사각형_567" data-name="사각형 567" width="232.273" height="0.116" transform="translate(0 152.093)" fill="#ebebeb"/>
      <rect id="사각형_568" data-name="사각형 568" width="15.386" height="0.116" transform="translate(193.614 159.567)" fill="#ebebeb"/>
      <rect id="사각형_569" data-name="사각형 569" width="4.037" height="0.116" transform="translate(149.83 160.831)" fill="#ebebeb"/>
      <rect id="사각형_570" data-name="사각형 570" width="8.915" height="0.116" transform="translate(184.235 155.256)" fill="#ebebeb"/>
      <rect id="사각형_571" data-name="사각형 571" width="20.064" height="0.116" transform="translate(24.37 156.037)" fill="#ebebeb"/>
      <rect id="사각형_572" data-name="사각형 572" width="2.941" height="0.116" transform="translate(48.573 156.037)" fill="#ebebeb"/>
      <rect id="사각형_573" data-name="사각형 573" width="43.519" height="0.116" transform="translate(61.074 157.997)" fill="#ebebeb"/>
      <path id="패스_917" data-name="패스 917" d="M130.557,186.374h-89.7a2.653,2.653,0,0,1-2.648-2.653V57.629A2.653,2.653,0,0,1,40.858,55h89.7a2.653,2.653,0,0,1,2.653,2.653V183.721A2.653,2.653,0,0,1,130.557,186.374ZM40.858,55.093a2.536,2.536,0,0,0-2.532,2.536V183.721a2.536,2.536,0,0,0,2.532,2.536h89.7a2.541,2.541,0,0,0,2.536-2.536V57.629a2.541,2.541,0,0,0-2.536-2.536Z" transform="translate(-20.46 -55)" fill="#ebebeb"/>
      <path id="패스_918" data-name="패스 918" d="M346.857,186.374h-89.7a2.657,2.657,0,0,1-2.653-2.653V57.629A2.657,2.657,0,0,1,257.153,55h89.7a2.653,2.653,0,0,1,2.643,2.629V183.721A2.653,2.653,0,0,1,346.857,186.374Zm-89.7-131.281a2.541,2.541,0,0,0-2.536,2.536V183.721a2.541,2.541,0,0,0,2.536,2.536h89.7a2.541,2.541,0,0,0,2.536-2.536V57.629a2.541,2.541,0,0,0-2.536-2.536Z" transform="translate(-136.273 -55)" fill="#ebebeb"/>
      <rect id="사각형_574" data-name="사각형 574" width="34.061" height="56.317" transform="translate(62.333 65.915) rotate(180)" fill="#f5f5f5"/>
      <rect id="사각형_575" data-name="사각형 575" width="0.674" height="56.317" transform="translate(27.594 9.593)" fill="#e0e0e0"/>
      <rect id="사각형_576" data-name="사각형 576" width="27.153" height="51.36" transform="translate(58.881 63.434) rotate(180)" fill="#fafafa"/>
      <rect id="사각형_577" data-name="사각형 577" width="34.061" height="56.317" transform="translate(104.43 85.681) rotate(180)" fill="#f5f5f5"/>
      <rect id="사각형_578" data-name="사각형 578" width="0.674" height="56.317" transform="translate(69.696 29.369)" fill="#e0e0e0"/>
      <rect id="사각형_579" data-name="사각형 579" width="27.153" height="51.36" transform="translate(100.979 83.205) rotate(180)" fill="#fafafa"/>
      <path id="패스_919" data-name="패스 919" d="M95.928,292.088c.845-15.33-1.394-39.951-3.814-48.494-.321-1.129-.683-2.439-1.236-2.611h0c-1.579-.5-2.29,1.974-2.1,2.829.929,4.116,1.8,14.331,2.648,32.1.423,8.826,0,14.9,1.133,16.18Z" transform="translate(-47.523 -154.55)" fill="#e6e6e6"/>
      <path id="패스_920" data-name="패스 920" d="M97.97,265.861c2.221-7.177,30.66-14.55,22.461-6.829-2.039,1.923-11.535,6.991-15.432,12.32a47.852,47.852,0,0,0-6.9,14.963C97.747,278.194,96.492,270.646,97.97,265.861Z" transform="translate(-52.082 -162.49)" fill="#e6e6e6"/>
      <path id="패스_921" data-name="패스 921" d="M103.227,285.259c4.952-10.922,20.788-12.882,16.533-7.117-1.672,2.262-7.8,4.845-11.707,10.174a47.682,47.682,0,0,0-6.894,14.963C100.8,295.153,101.16,289.82,103.227,285.259Z" transform="translate(-54.101 -172.787)" fill="#e6e6e6"/>
      <path id="패스_922" data-name="패스 922" d="M66.588,280.726c-5.863-14.048-27.041-15.167-21.406-8.641,2.142,2.485,9.625,7.033,15.279,12.9,4.395,4.553,9.347,12.078,11.033,16.259C70.4,292.623,68.952,286.394,66.588,280.726Z" transform="translate(-23.687 -169.184)" fill="#e6e6e6"/>
      <path id="패스_923" data-name="패스 923" d="M95.152,251.428c5.249-9.621,21.137-10.652,16.6-5.389-1.779,2.072-7.567,4.7-11.349,9.867-2.941,4.014-6.471,9.254-7.256,13.007C92.8,261.026,92.825,255.7,95.152,251.428Z" transform="translate(-49.789 -155.606)" fill="#e6e6e6"/>
      <path id="패스_924" data-name="패스 924" d="M66.309,251.124c-4.139-5.983-22.675-12.561-17.862-7.145,5.068,5.681,8.668,4.706,13.472,9.667A54.7,54.7,0,0,1,71.257,267.4C70.323,260.1,69.273,255.4,66.309,251.124Z" transform="translate(-25.518 -155.111)" fill="#e6e6e6"/>
      <path id="패스_925" data-name="패스 925" d="M96.741,239.834c2.629-4.729,13.472-8.209,10.643-4.58-1.974,2.518-4.344,4.246-6.857,7.674-1.946,2.667-4.594,6.016-5.11,8.5C95.185,246.2,95.161,242.654,96.741,239.834Z" transform="translate(-51.03 -150.711)" fill="#e6e6e6"/>
      <path id="패스_926" data-name="패스 926" d="M73,241.988c-2.648-2.936-16.812-9.9-13.56-5.431,1.268,1.761,6.671,6.039,10.308,9.821,2.829,2.927,5.932,5.314,7.015,7.976C76.052,248.822,75.657,244.92,73,241.988Z" transform="translate(-31.571 -151.434)" fill="#e6e6e6"/>
      <path id="패스_927" data-name="패스 927" d="M67.013,264.17c-3.87-4.283-32.082-9.8-24.83-5.073,2.481,1.617,13.388,4.395,18.707,9.909,4.13,4.279,5.616,11.377,7.2,15.265C72.262,277.438,70.887,268.458,67.013,264.17Z" transform="translate(-21.952 -163.312)" fill="#e6e6e6"/>
      <path id="패스_928" data-name="패스 928" d="M86.6,344.124l.362,12.817c.037,2.434.6,2.36,1.291,2.36H97.37c.683,0,1.25.074,1.291-2.36l.362-12.817c.042-2.639-.548-4.864-1.291-4.864H87.889C87.146,339.26,86.556,341.485,86.6,344.124Z" transform="translate(-46.368 -207.208)" fill="#f5f5f5"/>
      <path id="패스_929" data-name="패스 929" d="M84.611,340.7H98.124a.372.372,0,0,0,.386-.293l.321-2.453a.353.353,0,0,0-.386-.367H84.285a.358.358,0,0,0-.386.367l.321,2.453A.376.376,0,0,0,84.611,340.7Z" transform="translate(-44.924 -206.312)" fill="#f5f5f5"/>
      <rect id="사각형_580" data-name="사각형 580" width="10.229" height="68.827" transform="translate(124.893 80.162)" fill="#f0f0f0"/>
      <rect id="사각형_581" data-name="사각형 581" width="77.542" height="3.103" transform="translate(126.858 148.99)" fill="#f0f0f0"/>
      <rect id="사각형_582" data-name="사각형 582" width="71.243" height="68.827" transform="translate(206.366 148.99) rotate(180)" fill="#f5f5f5"/>
      <rect id="사각형_583" data-name="사각형 583" width="10.457" height="2.708" transform="translate(123.607 77.454)" fill="#f0f0f0"/>
      <rect id="사각형_584" data-name="사각형 584" width="73.589" height="2.708" transform="translate(207.653 80.162) rotate(180)" fill="#fafafa"/>
      <path id="패스_930" data-name="패스 930" d="M362.682,266.663H298.9V239.9h63.782Zm-63.178-.585H362.1V240.485H299.485Z" transform="translate(-160.047 -154.005)" fill="#e0e0e0"/>
      <path id="패스_931" data-name="패스 931" d="M362.682,332.961H298.9V306.57h63.782Zm-63.178-.585H362.1v-25.22H299.485Z" transform="translate(-160.047 -189.704)" fill="#e0e0e0"/>
      <path id="패스_932" data-name="패스 932" d="M364.386,248.692H339.551a1.106,1.106,0,0,1-1.1-1.1h0a1.106,1.106,0,0,1,1.1-1.1h24.835a1.106,1.106,0,0,1,1.1,1.1h0A1.106,1.106,0,0,1,364.386,248.692Z" transform="translate(-181.224 -157.534)" fill="#e0e0e0"/>
      <rect id="사각형_585" data-name="사각형 585" width="27.041" height="2.202" rx="1.101" transform="translate(157.226 119.927)" fill="#e0e0e0"/>
      <path id="패스_933" data-name="패스 933" d="M360.41,191.3h29.545l2.4-26.344H362.807Z" transform="translate(-192.983 -113.878)" fill="#e6e6e6"/>
      <path id="패스_934" data-name="패스 934" d="M358.25,191.3H387.8l2.4-26.344H360.647Z" transform="translate(-191.826 -113.878)" fill="#f0f0f0"/>
      <path id="패스_935" data-name="패스 935" d="M388.81,191.75l1.867-20.51h-23.71L365.1,191.75Z" transform="translate(-195.494 -117.241)" fill="#fff"/>
      <path id="패스_936" data-name="패스 936" d="M343.661,180.26,341.91,199.5h14.159l1.751-19.237Z" transform="translate(-183.077 -122.071)" fill="#e6e6e6"/>
      <path id="패스_937" data-name="패스 937" d="M342.081,180.26,340.33,199.5h14.159l1.751-19.237Z" transform="translate(-182.231 -122.071)" fill="#f0f0f0"/>
      <path id="패스_938" data-name="패스 938" d="M346.7,184.84l-1.366,14.982h9.9L356.6,184.84Z" transform="translate(-184.908 -124.523)" fill="#fff"/>
    </g>
    <g id="freepik--Shadow--inject-27" transform="translate(26.066 217.554)">
      <ellipse id="freepik--path--inject-27" cx="90.071" cy="5.259" rx="90.071" ry="5.259" fill="#f5f5f5"/>
    </g>
    <g id="freepik--Bubble--inject-27" transform="translate(116.875 76.81)">
      <path id="패스_939" data-name="패스 939" d="M277.16,107.417a8.641,8.641,0,0,0-11.535-4.729,8.975,8.975,0,0,0-4.613,10.88,8.6,8.6,0,0,0,4.181,4.724,4.854,4.854,0,0,1,1.979,1.742l1.226,1.96a3.252,3.252,0,0,0,3.939,1.3l3.094-1.222a3.252,3.252,0,0,0,1.988-3.642l-.465-2.351a4.563,4.563,0,0,1,.246-2.476A8.594,8.594,0,0,0,277.16,107.417Z" transform="translate(-256.38 -101.948)" fill="#90caf9"/>
      <path id="패스_940" data-name="패스 940" d="M285.157,151.143a1.454,1.454,0,0,1-.576-.121,1.422,1.422,0,0,1-.771-.794,1.445,1.445,0,0,1,.813-1.858l4.1-1.621a1.446,1.446,0,0,1,1.064,2.69l-4.083,1.6a1.393,1.393,0,0,1-.548.1Zm4.1-4.046a.93.93,0,0,0-.358.07l-4.121,1.621a.976.976,0,0,0-.033,1.807.961.961,0,0,0,.753,0l4.1-1.617a.971.971,0,0,0,.534-.525.929.929,0,0,0,0-.748.989.989,0,0,0-.929-.622Z" transform="translate(-268.791 -125.884)" fill="#263238"/>
      <path id="패스_941" data-name="패스 941" d="M290.214,158.257a.972.972,0,0,1-.362-.074.929.929,0,0,1-.465-.5l-.07-.181a.9.9,0,0,1,.506-1.166l2.56-1.013a.929.929,0,0,1,1.171.506l.07.181a.906.906,0,0,1-.506,1.166l-2.588,1.013a.882.882,0,0,1-.316.065Zm2.485-2.532a.465.465,0,0,0-.158.033l-2.56,1.013a.432.432,0,0,0-.246.562l.07.181a.437.437,0,0,0,.567.246l2.56-1.013a.437.437,0,0,0,.242-.232.427.427,0,0,0,0-.33L293.1,156A.465.465,0,0,0,292.7,155.725Z" transform="translate(-271.757 -130.499)" fill="#263238"/>
      <path id="패스_942" data-name="패스 942" d="M272.9,127.444a1.742,1.742,0,1,1,1.617-2.383l.641,1.621-1.621.636A1.7,1.7,0,0,1,272.9,127.444Zm0-3.02a1.278,1.278,0,1,0,.465,2.462l1.189-.465-.465-1.185a1.273,1.273,0,0,0-1.194-.794Z" transform="translate(-262.065 -113.734)" fill="#fff"/>
      <path id="패스_943" data-name="패스 943" d="M281.959,136.615l-3.479-8.822,3.2-1.264,3.479,8.822-.432.172-3.312-8.39-2.337.924,3.312,8.385Z" transform="translate(-265.988 -115.111)" fill="#fff"/>
      <path id="패스_944" data-name="패스 944" d="M283.925,123.214l-.636-1.621a1.742,1.742,0,1,1,2.258.98Zm.98-3.54a1.3,1.3,0,0,0-.465.093,1.273,1.273,0,0,0-.715,1.658l.465,1.185,1.185-.465a1.278,1.278,0,0,0-.465-2.467Z" transform="translate(-268.497 -111.191)" fill="#fff"/>
      <path id="패스_945" data-name="패스 945" d="M294.328,174.467a31.762,31.762,0,0,1-5.208-.423l.079-.465a31.313,31.313,0,0,0,5.11.418Z" transform="translate(-271.686 -140.304)" fill="#90caf9"/>
      <path id="패스_946" data-name="패스 946" d="M283.834,143.565l.246-.5a9.082,9.082,0,0,0,.488-6.072,29.016,29.016,0,0,1-5.575,1.394l-.07-.465a28.545,28.545,0,0,0,5.7-1.468l.232-.084.07.232a9.756,9.756,0,0,1-.218,6.137c5.709-2.272,11.669-10.336,11.669-19.943,0-8.529-9.946-15.469-22.173-15.469s-22.168,6.94-22.168,15.469c0,6.2,5.282,11.79,13.472,14.234l-.135.465c-8.362-2.5-13.788-8.264-13.788-14.68,0-8.785,10.155-15.934,22.633-15.934s22.637,7.149,22.637,15.934c0,10.1-6.5,18.54-12.5,20.57Z" transform="translate(-251.59 -104.589)" fill="#90caf9"/>
      <rect id="사각형_586" data-name="사각형 586" width="19.808" height="13.453" rx="4.4" transform="matrix(0.984, -0.176, 0.176, 0.984, 27.653, 9.338)" fill="#90caf9"/>
      <path id="패스_947" data-name="패스 947" d="M334.442,129.209l-5.482-1.979,1.027,5.732Z" transform="translate(-293.018 -115.485)" fill="#fff"/>
    </g>
    <g id="freepik--Character--inject-27" transform="translate(58.511 97.735)">
      <rect id="사각형_587" data-name="사각형 587" width="42.432" height="5.068" rx="2.534" transform="translate(0.537 69.532)" fill="#90caf9"/>
      <path id="패스_948" data-name="패스 948" d="M212.217,355.27h1.175l-1.352-47.69H210.41Z" transform="translate(-171.176 -232.98)" fill="#90caf9"/>
      <path id="패스_949" data-name="패스 949" d="M212.217,355.27h1.175l-1.352-47.69H210.41Z" transform="translate(-171.176 -232.98)" fill="#fff" opacity="0.3"/>
      <path id="패스_950" data-name="패스 950" d="M189.615,355.27H188.44l1.356-47.69h1.626Z" transform="translate(-159.412 -232.98)" fill="#90caf9"/>
      <path id="패스_951" data-name="패스 951" d="M189.615,355.27H188.44l1.356-47.69h1.626Z" transform="translate(-159.412 -232.98)" fill="#fff" opacity="0.3"/>
      <path id="패스_952" data-name="패스 952" d="M152.507,355.27h1.18l-1.356-47.69H150.7Z" transform="translate(-139.204 -232.98)" fill="#90caf9"/>
      <path id="패스_953" data-name="패스 953" d="M152.507,355.27h1.18l-1.356-47.69H150.7Z" transform="translate(-139.204 -232.98)" fill="#fff" opacity="0.3"/>
      <path id="패스_954" data-name="패스 954" d="M129.91,355.27h-1.18l1.356-47.69h1.626Z" transform="translate(-127.44 -232.98)" fill="#90caf9"/>
      <path id="패스_955" data-name="패스 955" d="M129.91,355.27h-1.18l1.356-47.69h1.626Z" transform="translate(-127.44 -232.98)" fill="#fff" opacity="0.3"/>
      <path id="패스_956" data-name="패스 956" d="M237.342,371.24l4.19-1.417-3.447-9.783-4.186,1.417Z" transform="translate(-183.754 -261.07)" fill="#ffc3bd"/>
      <path id="패스_957" data-name="패스 957" d="M244.155,377.165l-4.59,2.035a.279.279,0,0,0-.153.395l1.742,3.54a.9.9,0,0,0,1.11.376c1.584-.729,2.295-1.152,4.316-2.039a40.873,40.873,0,0,0,5.3-2.513c1.552-1,.335-2.439-.427-2.151a13.686,13.686,0,0,1-6.457.307A1.394,1.394,0,0,0,244.155,377.165Z" transform="translate(-186.687 -270.027)" fill="#263238"/>
      <path id="패스_958" data-name="패스 958" d="M233.9,361.461l4.19-1.421,1.965,5.6-4.26,1.217Z" transform="translate(-183.754 -261.07)" opacity="0.2"/>
      <path id="패스_959" data-name="패스 959" d="M158.51,268.19s20.9,3.772,22.591,10.638c3.312,13.574,10.782,34.8,10.782,34.8l-7.953,2.323s-11.372-24.347-12.8-32.542c-11.73,0-26.015.929-27.873-4.032-1.631-4.4-1.05-11.172-1.05-11.172Z" transform="translate(-134.601 -211.888)" fill="#263238"/>
      <path id="패스_960" data-name="패스 960" d="M229.315,365.631l9.291-3.066-.794-4.195-10.132,3.568Z" transform="translate(-180.423 -260.175)" fill="#90caf9"/>
      <path id="패스_961" data-name="패스 961" d="M199.336,374.6l4.627.353-2.718-11.419-4.316.976Z" transform="translate(-163.958 -262.938)" fill="#ffc3bd"/>
      <path id="패스_962" data-name="패스 962" d="M205.389,385.067l-4.985-.553a.283.283,0,0,0-.335.269l-.26,3.939a.929.929,0,0,0,.776.878c1.733.163,2.564.149,4.757.39a40.2,40.2,0,0,0,5.849.465c1.844-.1,1.51-1.951.7-2.077a13.708,13.708,0,0,1-5.742-2.964,1.361,1.361,0,0,0-.762-.348Z" transform="translate(-165.5 -274.172)" fill="#263238"/>
      <path id="패스_963" data-name="패스 963" d="M196.93,364.516l4.316-.976,1.37,5.77-4.362.766Z" transform="translate(-163.958 -262.944)" opacity="0.2"/>
      <path id="패스_964" data-name="패스 964" d="M138.982,268.19s25.415,3.8,24.249,13.425c-1.677,13.871,2.629,33.935,2.629,33.935l-8.153,1.459s-5.993-24.937-6.039-33.257c-8.269,0-22.716.59-24.565-4.39-1.631-4.4-1.05-11.172-1.05-11.172Z" transform="translate(-125.954 -211.888)" fill="#263238"/>
      <path id="패스_965" data-name="패스 965" d="M191.67,368.9l9.565-2.081-.353-4.251-10.452,2.485Z" transform="translate(-160.478 -262.424)" fill="#90caf9"/>
      <path id="패스_966" data-name="패스 966" d="M176.076,210.64c.678,2.657,1.343,5.338,1.993,8.009s1.287,5.347,1.96,7.986l.506,1.965.26.966.135.465v.088a.088.088,0,0,0-.023-.06,1.7,1.7,0,0,0-.13-.274l-.07-.107-.051-.07-.093-.1c-.1-.093-.111-.079-.088-.056a.877.877,0,0,0,.167.135,5.057,5.057,0,0,0,.641.367c.5.246,1.087.465,1.686.706,2.416.9,5.082,1.658,7.674,2.481l-.409,2.964a42.19,42.19,0,0,1-4.274-.167,38.067,38.067,0,0,1-4.306-.6,18.847,18.847,0,0,1-2.258-.585,10.19,10.19,0,0,1-1.25-.492,5.808,5.808,0,0,1-.72-.4,4.763,4.763,0,0,1-.878-.72c-.084-.093-.163-.181-.256-.3l-.13-.177-.13-.218a3.507,3.507,0,0,1-.246-.511l-.074-.214-.181-.511-.348-1.013c-.228-.674-.465-1.347-.655-2.016-.841-2.685-1.607-5.356-2.323-8.046s-1.394-5.375-2.016-8.1Z" transform="translate(-149.64 -181.073)" fill="#ffc3bd"/>
      <path id="패스_967" data-name="패스 967" d="M166.464,202.26c2.55-2.843,6.592-.855,8.3,5.51a12.588,12.588,0,0,1,.567,4.71l-8.8,2.713C164.638,211.012,162.994,206.134,166.464,202.26Z" transform="translate(-146.56 -175.908)" fill="#90caf9"/>
      <g id="그룹_310" data-name="그룹 310" transform="translate(17.877 25.086)" opacity="0.2">
        <path id="패스_968" data-name="패스 968" d="M166.464,202.26c2.55-2.843,6.592-.855,8.3,5.51a12.588,12.588,0,0,1,.567,4.71l-8.8,2.713C164.638,211.012,162.994,206.134,166.464,202.26Z" transform="translate(-164.437 -200.993)"/>
      </g>
      <path id="패스_969" data-name="패스 969" d="M215.936,256.04l-.79-.242a3.684,3.684,0,0,0-1.477-.135l-1.7.2a3.991,3.991,0,0,0-2.588,1.984l-.576,1.124c.288,2.072,4.488,1.394,4.488,1.394h3.963l-.13-2.815A1.677,1.677,0,0,0,215.936,256.04Z" transform="translate(-170.319 -205.169)" fill="#ffc3bd"/>
      <path id="패스_970" data-name="패스 970" d="M223.674,246.372a4.181,4.181,0,0,1-.929,2.072c-.423.618-.859,1.231-1.3,1.858-.887,1.212-1.793,2.406-2.787,3.544a.269.269,0,0,1-.441-.3c.688-1.347,1.463-2.629,2.258-3.9q.6-.952,1.226-1.891a4.232,4.232,0,0,1,1.566-1.654.307.307,0,0,1,.465.3Z" transform="translate(-175.339 -200.035)" fill="#263238"/>
      <path id="패스_971" data-name="패스 971" d="M146.574,195.835l-4.957-1.394-6.378-.3a4.418,4.418,0,0,0-4.409,3.047,112.43,112.43,0,0,0-3.15,13.7,107.68,107.68,0,0,0-1.491,17.653h23.8a128.553,128.553,0,0,1,2.964-24.352,6.374,6.374,0,0,0-3.507-6.968Z" transform="translate(-126.08 -172.238)" fill="#90caf9"/>
      <path id="패스_972" data-name="패스 972" d="M155.76,199.79a13.656,13.656,0,0,0,5.658,6.165c1.51-1.092,1.835-3.475,2.063-4.59Z" transform="translate(-141.914 -175.263)" fill="#fff"/>
      <path id="패스_973" data-name="패스 973" d="M163.2,189.376a2.416,2.416,0,0,0-.2-1.83,1.9,1.9,0,0,1,.1-2.007,6.926,6.926,0,0,1,1.138-1.547l-3.117-3.647-2.541-2.945c-.218,2.755-.432,6.169-2.606,8.306-.767.757-.929.985-.488,2.1.6,1.552,2.787,3.716,5.482,5.012A5.282,5.282,0,0,0,163.2,189.376Z" transform="translate(-141.635 -163.274)" fill="#ffc3bd"/>
      <path id="패스_974" data-name="패스 974" d="M169.872,186.947l-1.761-2.857c-.033.074-.074.153-.116.237a6.687,6.687,0,0,0-.381,1.1c-.321,1.268.757,3.08,1.937,3.944.051-.079.093-.163.139-.246a8.677,8.677,0,0,1,1.064-1.5.463.463,0,0,1,.074-.046Z" transform="translate(-148.23 -166.857)" opacity="0.2"/>
      <path id="패스_975" data-name="패스 975" d="M185.343,168.357c.409,2.634,4.181-4.144,2.072-5.63C184.841,160.906,184.571,163.345,185.343,168.357Z" transform="translate(-157.55 -155.096)" fill="#263238"/>
      <path id="패스_976" data-name="패스 976" d="M162.445,161.791c-.242,4.278-.609,6.764,1.356,9.235a5.961,5.961,0,0,0,10.192-1.6c1.394-3.689,1.566-10.062-2.546-12.32A5.949,5.949,0,0,0,162.445,161.791Z" transform="translate(-145.389 -151.967)" fill="#ffc3bd"/>
      <path id="패스_977" data-name="패스 977" d="M165.694,154.248s2.736,2.685,4.687,1.575,2.346-3.986,0-6.5c-1.129-1.212-2.838-2.4-6.192-2.323a2.583,2.583,0,0,0,.929.581s-4.255-.711-7.219.511a2.722,2.722,0,0,0,.929.864c-2.885-.218-5.691.929-3.716,3.637-2.615.256-3.2,3.6-1.807,5.807s1.64,3.86,3.5,4.864c0-3.006.692-3.716.692-3.716,1.342-.571,2.889-3.433,2.578-4.878C162.948,155.823,166.009,156.2,165.694,154.248Z" transform="translate(-140.206 -146.993)" fill="#263238"/>
      <path id="패스_978" data-name="패스 978" d="M157.115,155.858a5.9,5.9,0,0,1-2.039-2.578c-.334,1.5,1.212,3.2,1.212,3.2Z" transform="translate(-141.522 -150.359)" fill="#263238"/>
      <path id="패스_979" data-name="패스 979" d="M158.069,171.153a4.069,4.069,0,0,0,1.082,2.634c.887.929,2.1.139,2.323-1.055a3.09,3.09,0,0,0-1.394-3.2C158.956,169.054,158.036,169.955,158.069,171.153Z" transform="translate(-143.149 -158.993)" fill="#ffc3bd"/>
      <path id="패스_980" data-name="패스 980" d="M177.728,172.26c-.07.353.056.683.283.739s.465-.186.544-.539-.056-.683-.283-.739S177.8,171.911,177.728,172.26Z" transform="translate(-153.666 -160.229)" fill="#263238"/>
      <path id="패스_981" data-name="패스 981" d="M186.226,174.291c-.074.353.056.678.283.734s.465-.186.544-.539-.06-.683-.288-.734S186.3,173.938,186.226,174.291Z" transform="translate(-158.215 -161.317)" fill="#263238"/>
      <path id="패스_982" data-name="패스 982" d="M182.542,174.86a11.414,11.414,0,0,0,.706,2.955,1.73,1.73,0,0,1-1.468-.167Z" transform="translate(-155.846 -161.914)" fill="#ed847e"/>
      <path id="패스_983" data-name="패스 983" d="M177.89,183.308a3.094,3.094,0,0,1-1.993-1.394.107.107,0,1,1,.186-.1,2.959,2.959,0,0,0,2.239,1.338.1.1,0,0,1,.093.111.1.1,0,0,1-.112.1A3.509,3.509,0,0,1,177.89,183.308Z" transform="translate(-152.685 -165.601)" fill="#263238"/>
      <path id="패스_984" data-name="패스 984" d="M176.479,168.852a.21.21,0,0,1-.056-.358,2.021,2.021,0,0,1,1.858-.418.211.211,0,0,1-.135.4,1.617,1.617,0,0,0-1.454.344A.209.209,0,0,1,176.479,168.852Z" transform="translate(-152.937 -158.243)" fill="#263238"/>
      <path id="패스_985" data-name="패스 985" d="M187.294,169.7a.255.255,0,0,1,0-.1.218.218,0,0,1,.26-.149,2.03,2.03,0,0,1,1.394,1.291.21.21,0,1,1-.4.116,1.593,1.593,0,0,0-1.11-1,.223.223,0,0,1-.139-.158Z" transform="translate(-158.796 -159.016)" fill="#263238"/>
      <path id="패스_986" data-name="패스 986" d="M136.362,205.438c-.892,2.546-1.784,5.2-2.578,7.8-.4,1.3-.771,2.606-1.1,3.893a33.218,33.218,0,0,0-.743,3.754c0,.139-.037.293-.042.427v.334c0-.033-.037.028,0,.125a2.653,2.653,0,0,0,.562.957,14.3,14.3,0,0,0,2.694,2.323,60.319,60.319,0,0,0,6.991,4.06l-.994,2.862a36.832,36.832,0,0,1-4.251-1.2,34.074,34.074,0,0,1-4.144-1.733,17.156,17.156,0,0,1-4.042-2.745,7.841,7.841,0,0,1-1.821-2.513,5.518,5.518,0,0,1-.465-1.933V220.5a31.459,31.459,0,0,1,.581-4.6c.279-1.468.627-2.889,1-4.3a82.718,82.718,0,0,1,2.7-8.278Z" transform="translate(-126.209 -177.153)" fill="#ffc3bd"/>
      <path id="패스_987" data-name="패스 987" d="M135.747,194.09c4.543-.042,5.4,3.493,2.931,9.1a31.97,31.97,0,0,1-3.447,5.728l-7.512-3.99C128.723,200.449,130.558,194.136,135.747,194.09Z" transform="translate(-126.899 -172.211)" fill="#90caf9"/>
      <path id="패스_988" data-name="패스 988" d="M162.254,256.6l-1.663-.929a1.458,1.458,0,0,0-.892-.167l-2,.279a4.852,4.852,0,0,0-3.052,2.058l-.85,1.041c-.042,2.1,5.263,1.607,5.263,1.607l4.646-.06-.144-1.83a2.527,2.527,0,0,0-1.31-2Z" transform="translate(-140.864 -205.09)" fill="#ffc3bd"/>
    </g>
    <g id="freepik--Desk--inject-27" transform="translate(53.26 126.024)">
      <rect id="사각형_588" data-name="사각형 588" width="125.748" height="5.886" transform="translate(0 26.016)" fill="#90caf9"/>
      <rect id="사각형_589" data-name="사각형 589" width="40.787" height="5.886" transform="translate(0 26.016)" fill="#fff" opacity="0.3"/>
      <rect id="사각형_590" data-name="사각형 590" width="1.923" height="64.888" transform="translate(1.445 31.901)" fill="#90caf9"/>
      <rect id="사각형_591" data-name="사각형 591" width="1.923" height="64.888" transform="translate(1.445 31.901)" fill="#fff" opacity="0.7"/>
      <rect id="사각형_592" data-name="사각형 592" width="1.923" height="64.888" transform="translate(37.424 31.901)" fill="#90caf9"/>
      <rect id="사각형_593" data-name="사각형 593" width="1.923" height="64.888" transform="translate(37.424 31.901)" fill="#fff" opacity="0.7"/>
      <rect id="사각형_594" data-name="사각형 594" width="1.923" height="64.888" transform="translate(86.406 31.901)" fill="#90caf9"/>
      <rect id="사각형_595" data-name="사각형 595" width="1.923" height="64.888" transform="translate(86.406 31.901)" fill="#fff" opacity="0.7"/>
      <rect id="사각형_596" data-name="사각형 596" width="1.923" height="64.888" transform="translate(122.385 31.901)" fill="#90caf9"/>
      <rect id="사각형_597" data-name="사각형 597" width="1.923" height="64.888" transform="translate(122.385 31.901)" fill="#fff" opacity="0.7"/>
      <path id="패스_989" data-name="패스 989" d="M309.361,207.889H274.985A2.6,2.6,0,0,0,272.523,210l-3.586,21.783A1.756,1.756,0,0,0,270.7,233.9h34.376a2.6,2.6,0,0,0,2.467-2.118L311.131,210a1.751,1.751,0,0,0-1.77-2.114Z" transform="translate(-197.243 -207.888)" fill="#263238"/>
      <rect id="사각형_598" data-name="사각형 598" width="33.136" height="1.422" rx="0.711" transform="translate(57.539 24.594)" fill="#263238"/>
      <path id="패스_990" data-name="패스 990" d="M310.227,207.89H276.6A2.6,2.6,0,0,0,274.141,210l-3.586,21.783a1.751,1.751,0,0,0,1.765,2.118h33.6a2.6,2.6,0,0,0,2.467-2.118L311.974,210a1.751,1.751,0,0,0-1.747-2.114Z" transform="translate(-198.109 -207.889)" fill="#fff" opacity="0.2"/>
      <path id="패스_991" data-name="패스 991" d="M164.46,260.22s11.07,1.649,16.412-.53c2.5,1.2,11.4,1.8,14.5.53a6.149,6.149,0,0,1-3.205,1.422H168.813A6.753,6.753,0,0,1,164.46,260.22Z" transform="translate(-141.321 -235.626)" fill="#90caf9"/>
      <path id="패스_992" data-name="패스 992" d="M164.46,260.22s11.07,1.649,16.412-.53c2.5,1.2,11.4,1.8,14.5.53a6.149,6.149,0,0,1-3.205,1.422H168.813A6.753,6.753,0,0,1,164.46,260.22Z" transform="translate(-141.321 -235.626)" fill="#fff" opacity="0.7"/>
    </g>
  </g>
</svg>
