<svg xmlns="http://www.w3.org/2000/svg" width="60" height="60" viewBox="0 0 60 60">
  <g id="그룹_2453" data-name="그룹 2453" transform="translate(-682.136 -1459.135)">
    <circle id="타원_28" data-name="타원 28" cx="30" cy="30" r="30" transform="translate(682.136 1459.135)" fill="#d5d5d5"/>
    <path id="패스_520" data-name="패스 520" d="M710.81,1459.136a30.247,30.247,0,0,0-20.936,8.353v38.292a1.257,1.257,0,0,0,1.267,1.247h37.228a3.353,3.353,0,0,0,3.377-3.329v-36.211A30.245,30.245,0,0,0,710.81,1459.136Z" transform="translate(1.326 0)" fill="#fff"/>
    <path id="패스_521" data-name="패스 521" d="M733.867,1493.628H696.981a3.329,3.329,0,0,0-2.354.974l-4.385,4.385a1.249,1.249,0,0,0,.883,2.132h36.887a3.33,3.33,0,0,0,2.354-.976l4.384-4.384A1.248,1.248,0,0,0,733.867,1493.628Z" transform="translate(1.919 6.372)" fill="#3f3d38"/>
    <path id="패스_522" data-name="패스 522" d="M710.268,1459.136a30.439,30.439,0,0,0-17.234,5.307H727.5A30.436,30.436,0,0,0,710.268,1459.136Z" transform="translate(1.868 0)" fill="#3f3d38"/>
    <g id="그룹_178" data-name="그룹 178" transform="translate(696.947 1474.28)">
      <g id="그룹_175" data-name="그룹 175">
        <path id="패스_523" data-name="패스 523" d="M723.241,1475.211H696.192a1.665,1.665,0,0,1,0-3.329h27.049a1.665,1.665,0,0,1,0,3.329Z" transform="translate(-694.527 -1471.882)" fill="#26c6da"/>
      </g>
      <g id="그룹_176" data-name="그룹 176" transform="translate(0 7.352)">
        <path id="패스_524" data-name="패스 524" d="M723.241,1481.487H696.192a1.665,1.665,0,0,1,0-3.329h27.049a1.665,1.665,0,0,1,0,3.329Z" transform="translate(-694.527 -1478.158)" fill="#26c6da"/>
      </g>
      <g id="그룹_177" data-name="그룹 177" transform="translate(0 14.703)">
        <path id="패스_525" data-name="패스 525" d="M723.241,1487.764H696.192a1.665,1.665,0,0,1,0-3.33h27.049a1.665,1.665,0,0,1,0,3.33Z" transform="translate(-694.527 -1484.434)" fill="#26c6da"/>
      </g>
    </g>
  </g>
</svg>
