<svg xmlns="http://www.w3.org/2000/svg" width="518.958" height="21.062" viewBox="0 0 518.958 21.062">
  <path id="img_underline" d="M259.94,31.967l.513-.22c6.2.095,1.67.286,7.428.323,2.411-.283,9.5.191,11.572.054a24.634,24.634,0,0,1,2.514.179c.958-.158,2.913.008,4.7-.005.667-.037-.439-.06-.889-.12l4.087.008c1.556.084,1.887.192.154.181,10.58.232,61.315,1.343,72.848,1.5-1.391-.16-4.982-.142-6.2-.374,3.1-.055,4.435.129,5.849.034.969.329,6.6.205,8.7.561l.975-.156,1.442.135c13.419.085,3.1-.027,14.867.248,6.852.11,10.244-.066,13.989.1-.564-.013-2-.149-.205-.158.205.158,4.777-.016,5.547.155,1.744.016,7.342.147,5.575-.1.889.122,5.872.264,2.833.3,1.687.04,3.3.1,4.543.082l-2.132-.1c5.723.084,8.739.307,12.576.192l-2.064-.125a65.271,65.271,0,0,1,7.5.328l-3.54-.006c5.661.107,9.075.162,13.864.146l-1.682-.039c6.1-.068,37.749.342,43.484.172l-2.463-.205L491.19,35c-.57-.012-2.617.478-3.061.417,10.284.149,63.6,1.026,73.087,1.226,3.8.134.57.261.513.287,4.7,0,2.1-.146,6.071-.084,1.072.042-.285.123-.906.138,1.75,0,3.341.078,3.512,0-2.155-.084-1.14-.271-2-.412l5.1.08-.285.122c1.14.018,3.044-.307,8.032-.179,8.442.157,17.66.224,26.16.357-.165.073-1.967.1-3.774.118,1.14.019,2.884.02,3.916.087-2-.158,3.609-.045,2.024-.121,6.339-.231,14.309.147,19.878.006.6-.271,13.14-4.6,13.191-4.929,1.682.027,3.358.053,3.865.086-.41-.082-3.711-.159-5.49-.137l-.354.172c-4.07.013-.918-.115-4.88-.151a56.345,56.345,0,0,1,6.692-.108c-2.884-.052-5.723-.192-6.949-.049-2.691-.093.359-.172-2.884-.274-2.343.015-5.444.118-8.083,0l.051-.025c-6.447-.227-10.016.1-15.9-.121l.655-.04c-2.064-.109-6.231-.047-9.982-.182,1.066.042,1.961.157-.319.146-4.315-.142-7.32-.088-10.455-.239l-3.113.1c-7.57-.127-26.325-.231-45.149-.562l-45.263-.685.61-.012c-23.213-.3-71.075-1.3-95.257-1.577-3.631-.212-8.79-.281-12.655-.4,2.132.1,1.328.184-.353.145-11.829-.251-.861.08-12.872-.1-13.8-.163-66.657-1.305-78.9-1.622-6.715.088-14.884-.2-21.429-.182l.678-.037c-6.978-.051-46.334-.837-54.532-.851l1.083.044c-7.143.036-6.088-.175-11.652-.313.644.239-5.49.3-7.821.29l.1-.049c-3.512,0-11.521.117-17.341.1l.262-.123c-4.874.092-14.018-.023-17.564-.02-4.042-.041-9.155-.124-14.89-.141-2.936,0-5.82,0-9.566.08-.929.021-2.024.053-3.455.113-.9.045-1.6.069-3.352.2l-.564.047-1.095.108-1.077.127-.513.068-.758.114c-.753.123-1.454.266-2.058.418-.3.076-.576.156-.821.235a6.093,6.093,0,0,0-.815.321c-1.351.585-.764,1.386.068,1.678a9.72,9.72,0,0,0,1.733.571c.422.1.621.141.747.167l.525.1c.644.12,1.7.274,2.166.327.684.085,1.9.206,2.246.229,1.134.095,1.824.134,2.537.175,1.226.065,2.246.1,3.124.132l3.99.33c1.858.142,3.711.286,3.711.286l1.134-.009a23.9,23.9,0,0,0,5.5-2.176c1.836-1.175,1.516-2.48-4.019-3.09l.3-.119-2.189-.051c-1.2-.072-1.847-.082-2.035-.078l-.028,0h-.011s.029-.016-.125.064c-.422.213-.7.356-.98.5-.456.231-.644.306-.462.227,0,0,.661-.336,1.665-.838-.034,0,.217.015.5.029l1.448.063c-2.183-.119-.6-.126.388-.164a16.687,16.687,0,0,1-1.95-.144c-.125.044-.085.05.165.091l-.262.006c-.057,0-.091,0-.086.008l-.393.2a25.61,25.61,0,0,1-2.434,1.161,17.412,17.412,0,0,1-2.349.852,8.768,8.768,0,0,1-1.551.3,4.247,4.247,0,0,1,.747.133,1.982,1.982,0,0,1,.393.135l.553.2a9.485,9.485,0,0,1,1.767,1.015l.923.664.376.336.08.078h-.011v0a1.86,1.86,0,0,1,.815.089c.16.05.165.1,1.647.083,8.636-.042,19.125.078,29,.188l30.612.362c.462.058-.1.049-.718.066,6.293.02,11.869.112,17.609.132a21.372,21.372,0,0,1,2.411.22c-.45-.058,7.462.021,15.557.13l11.247.164C257.682,31.919,259.814,31.958,259.94,31.967Z" transform="translate(-128.107 -13.866) rotate(-1)" fill="#9bd2fc"/>
</svg>
