<svg xmlns="http://www.w3.org/2000/svg" width="417.496" height="14.931" viewBox="0 0 417.496 14.931">
  <path id="img_underline" d="M106.4,4.339l.413-.14c4.99.06,1.344.182,5.976.206,1.94-.18,7.646.122,9.311.034-.041.015,2.211.052,2.023.114.771-.1,2.344.005,3.784,0,.537-.024-.353-.038-.716-.076l3.289.005c1.252.053,1.518.122.124.115,8.512.148,49.332.855,58.61.956-1.119-.1-4.009-.09-4.985-.238,2.495-.035,3.568.082,4.706.022.78.21,5.311.131,7,.357l.784-.1,1.16.086c10.8.054,2.49-.017,11.962.158,5.513.07,8.242-.042,11.255.062-.454-.008-1.61-.095-.165-.1.165.1,3.843-.01,4.463.1,1.4.01,5.907.094,4.486-.063.715.078,4.724.168,2.279.188,1.358.025,2.656.066,3.655.052L234.1,6.008c4.6.053,7.031.2,10.118.122l-1.66-.08c2.756.035,5.059.061,6.031.209l-2.848,0c4.554.068,7.3.1,11.154.093l-1.353-.025c4.907-.043,30.372.218,34.986.11L288.547,6.3l3.912-.032c-.459-.008-2.105.3-2.463.266,8.274.095,51.171.653,58.8.781,3.055.085.459.166.413.183,3.784,0,1.688-.093,4.885-.053.862.027-.229.078-.729.088,1.408,0,2.688.05,2.825,0-1.734-.053-.917-.173-1.61-.262l4.1.051-.229.078c.917.011,2.449-.2,6.462-.114,6.792.1,14.209.143,21.047.227-.133.046-1.582.061-3.036.075.917.012,2.321.013,3.151.055-1.61-.1,2.9-.029,1.628-.077,5.1-.147,11.512.094,15.993,0,.486-.173,10.572-2.929,10.613-3.139,1.353.017,2.7.034,3.11.055-.33-.052-2.986-.1-4.417-.087l-.284.11c-3.275.008-.739-.073-3.926-.1-.133-.094,2.8-.085,5.384-.069-2.321-.033-4.6-.122-5.591-.031-2.165-.059.289-.11-2.321-.174-1.885.01-4.38.075-6.5,0l.041-.016c-5.187-.145-8.058.062-12.792-.077l.527-.025c-1.66-.069-5.013-.03-8.031-.116.858.027,1.578.1-.257.093-3.472-.09-5.889-.056-8.412-.152l-2.5.067c-6.091-.081-21.18-.147-36.325-.358L295.6,3.122l.491-.008c-18.676-.193-57.184-.828-76.64-1-2.922-.135-7.072-.179-10.182-.253,1.715.064,1.069.117-.284.092-9.517-.16-.693.051-10.356-.063-11.1-.1-53.629-.831-63.481-1.033-5.4.056-11.975-.13-17.241-.116l.546-.024C112.839.681,81.175.18,74.579.171L75.451.2C69.7.222,70.552.088,66.076,0c.518.152-4.417.189-6.293.185l.083-.031c-2.825,0-9.269.075-13.952.064l.211-.078C42.2.2,34.847.124,31.994.126,28.742.1,24.628.047,20.014.036c-2.362,0-4.683,0-7.7.051C11.571.1,10.69.121,9.539.159c-.725.029-1.284.044-2.7.13l-.454.03L5.507.388,4.64.469,4.228.512l-.61.073c-.605.078-1.17.169-1.656.266C1.723.9,1.5.95,1.3,1a5.738,5.738,0,0,0-.656.2C-.441,1.577.031,2.087.7,2.273a9.326,9.326,0,0,0,1.394.364c.339.065.5.09.6.106l.422.064c.518.076,1.367.174,1.743.208.55.054,1.527.131,1.807.146.913.06,1.468.085,2.041.111.986.041,1.807.066,2.513.084l3.211.21,2.986.182.913-.006a22.544,22.544,0,0,0,4.426-1.386C24.234,1.609,23.977.778,19.523.39l.238-.076L18,.281c-.963-.046-1.486-.052-1.637-.05l-.023,0h-.009l-.1.041c-.339.136-.559.227-.789.32-.367.147-.518.195-.371.145,0,0,.532-.214,1.339-.534-.028,0,.174.01.4.018l1.165.04c-1.757-.076-.486-.08.312-.1C17.492.131,16.785.1,16.716.068c-.1.028-.069.032.133.058l-.211,0c-.046,0-.073,0-.069.005l-.316.128c-.734.283-1.142.492-1.958.739a16.553,16.553,0,0,1-1.89.543,8.754,8.754,0,0,1-1.248.189,4.246,4.246,0,0,1,.6.085,1.893,1.893,0,0,1,.317.086l.445.125a8.326,8.326,0,0,1,1.422.646l.743.423.3.214.064.05h-.009a1.862,1.862,0,0,1,.656.057,4.548,4.548,0,0,0,1.325.053c6.948-.027,15.388.05,23.336.12l24.629.231c.372.037-.082.031-.578.042,5.063.013,9.549.071,14.168.084,1.261.05,1.578.1,1.94.14-.362-.037,6,.013,12.516.083l9.049.1C104.588,4.309,106.3,4.334,106.4,4.339Z" transform="translate(0 7.285) rotate(-1)" fill="#9bd2fc"/>
</svg>
