<svg xmlns="http://www.w3.org/2000/svg" width="310.546" height="13.064" viewBox="0 0 310.546 13.064">
  <path id="img_underline" d="M79.138,4.339l.307-.14c3.711.06,1,.182,4.445.206,1.443-.18,5.686.122,6.925.034a13.866,13.866,0,0,1,1.5.114,27.935,27.935,0,0,1,2.814,0c.4-.024-.263-.038-.532-.076l2.446.005c.931.053,1.129.122.092.115,6.331.148,36.69.855,43.591.956-.832-.1-2.981-.09-3.708-.238,1.856-.035,2.654.082,3.5.022.58.21,3.95.131,5.205.357l.583-.1.863.086c8.03.054,1.852-.017,8.9.158,4.1.07,6.13-.042,8.371.062-.338-.008-1.2-.095-.123-.1.123.1,2.859-.01,3.319.1,1.044.01,4.394.094,3.336-.063.532.078,3.514.168,1.7.188,1.01.025,1.975.066,2.719.052l-1.276-.065c3.425.053,5.229.2,7.525.122l-1.235-.08a36.722,36.722,0,0,1,4.486.209l-2.118,0c3.387.068,5.431.1,8.3.093l-1.006-.025c3.65-.043,22.589.218,26.02.11L214.606,6.3l2.91-.032c-.341-.008-1.566.3-1.832.266,6.154.095,38.058.653,43.735.781,2.272.085.341.166.307.183,2.814,0,1.255-.093,3.633-.053.641.027-.171.078-.542.088,1.047,0,2,.05,2.1,0-1.289-.053-.682-.173-1.2-.262l3.053.051L266.6,7.4c.682.011,1.822-.2,4.806-.114,5.052.1,10.568.143,15.654.227-.1.046-1.177.061-2.258.075.682.012,1.726.013,2.343.055-1.2-.1,2.159-.029,1.211-.077,3.793-.147,8.562.094,11.895,0,.362-.173,7.863-2.929,7.893-3.139,1.006.017,2.009.034,2.313.055-.246-.052-2.221-.1-3.285-.087l-.212.11c-2.436.008-.549-.073-2.92-.1a31.689,31.689,0,0,1,4-.069c-1.726-.033-3.425-.122-4.158-.031-1.61-.059.215-.11-1.726-.174-1.4.01-3.258.075-4.837,0l.031-.016c-3.858-.145-5.993.062-9.514-.077l.392-.025c-1.235-.069-3.728-.03-5.973-.116.638.027,1.173.1-.191.093-2.582-.09-4.38-.056-6.256-.152l-1.863.067c-4.53-.081-15.753-.147-27.016-.358l-27.085-.436.365-.008c-13.89-.193-42.53-.828-57-1-2.173-.135-5.26-.179-7.573-.253,1.276.064.795.117-.211.092-7.078-.16-.515.051-7.7-.063-8.258-.1-39.887-.831-47.214-1.033C96.5.909,91.609.723,87.693.737L88.1.713C83.924.681,60.373.18,55.468.171L56.116.2C51.842.222,52.473.088,49.144,0c.386.152-3.285.189-4.68.185l.061-.031c-2.1,0-6.894.075-10.377.064l.157-.078C31.389.2,25.917.124,23.8.126,21.377.1,18.317.047,14.885.036c-1.757,0-3.483,0-5.724.051C8.606.1,7.951.121,7.094.159,6.555.188,6.139.2,5.089.289l-.338.03L4.1.388,3.451.469,3.144.512,2.691.585c-.45.078-.87.169-1.231.266C1.282.9,1.115.95.968,1a3.517,3.517,0,0,0-.488.2c-.808.373-.457.883.041,1.069a5.575,5.575,0,0,0,1.037.364c.252.065.372.09.447.106l.314.064c.385.076,1.016.174,1.3.208.409.054,1.136.131,1.344.146.679.06,1.092.085,1.518.111.733.041,1.344.066,1.869.084l2.388.21,2.221.182.679-.006a13.789,13.789,0,0,0,3.292-1.386c1.1-.748.907-1.579-2.4-1.968L14.7.314,13.388.281C12.672.236,12.283.229,12.17.232l-.017,0h-.007l-.075.041c-.252.136-.416.227-.587.32-.273.147-.385.195-.276.145,0,0,.4-.214,1-.534-.02,0,.13.01.3.018l.866.04c-1.306-.076-.362-.08.232-.1A9.4,9.4,0,0,1,12.433.068c-.075.028-.051.032.1.058l-.157,0c-.034,0-.055,0-.051.005l-.235.128A14.935,14.935,0,0,1,10.632,1a10.019,10.019,0,0,1-1.405.543,4.962,4.962,0,0,1-.928.189,2.4,2.4,0,0,1,.447.085,1.139,1.139,0,0,1,.235.086l.331.125a5.6,5.6,0,0,1,1.057.646l.553.423.225.214.048.05h-.007a1.051,1.051,0,0,1,.488.057c.1.032.1.062.986.053,5.168-.027,11.444.05,17.356.12l18.318.231c.276.037-.061.031-.43.042,3.766.013,7.1.071,10.537.084a12.041,12.041,0,0,1,1.443.14c-.269-.037,4.465.013,9.309.083l6.73.1C77.787,4.309,79.063,4.334,79.138,4.339Z" transform="translate(0 5.418) rotate(-1)" fill="#9bd2fc"/>
</svg>
