<svg xmlns="http://www.w3.org/2000/svg" width="283.555" height="16.953" viewBox="0 0 283.555 16.953">
  <path id="img_underline" d="M72.238,6.814l.28-.22c3.388.095.912.286,4.057.323,1.317-.283,5.191.191,6.321.054-.028.024,1.5.082,1.373.179a14.841,14.841,0,0,1,2.569-.005c.364-.037-.24-.06-.486-.12l2.233.008c.85.084,1.031.192.084.181,5.779.232,33.491,1.343,39.79,1.5-.76-.16-2.721-.142-3.385-.374,1.694-.055,2.422.129,3.195.034.529.329,3.606.205,4.752.561l.532-.156.788.135c7.33.085,1.691-.027,8.121.248,3.743.11,5.6-.066,7.641.1-.308-.013-1.093-.149-.112-.158.112.158,2.609-.016,3.03.155.953.016,4.01.147,3.045-.1.486.122,3.207.264,1.548.3.922.04,1.8.1,2.482.082l-1.165-.1c3.126.084,4.773.307,6.869.192L164.672,9.5a19.669,19.669,0,0,1,4.095.328l-1.934-.006c3.092.107,4.957.162,7.573.146l-.919-.039c3.332-.068,20.619.342,23.752.172L195.893,9.9l2.656-.05c-.311-.012-1.429.478-1.672.417,5.617.149,34.74,1.026,39.921,1.226,2.074.134.311.261.28.287,2.569,0,1.146-.146,3.316-.084.585.042-.156.123-.5.138a14.664,14.664,0,0,0,1.918,0c-1.177-.084-.623-.271-1.093-.412l2.787.08-.156.122a28.7,28.7,0,0,1,4.387-.179c4.611.157,9.646.224,14.289.357a12.471,12.471,0,0,1-2.061.118c.623.019,1.576.02,2.139.087-1.093-.158,1.971-.045,1.105-.121,3.462-.231,7.815.147,10.858.006.33-.271,7.177-4.6,7.205-4.929.919.027,1.834.053,2.111.086a21.044,21.044,0,0,0-3-.137l-.193.172c-2.223.013-.5-.115-2.665-.151a16.88,16.88,0,0,1,3.655-.108,25.4,25.4,0,0,0-3.8-.049c-1.47-.093.2-.172-1.576-.274-1.28.015-2.974.118-4.415,0l.028-.025c-3.522-.227-5.471.1-8.684-.121l.358-.04c-1.127-.109-3.4-.047-5.452-.182.582.042,1.071.157-.174.146-2.357-.142-4-.088-5.711-.239l-1.7.1c-4.135-.127-14.379-.231-24.661-.562L200.682,4.9l.333-.012c-12.679-.3-38.822-1.3-52.03-1.577-1.984-.212-4.8-.281-6.913-.4,1.165.1.726.184-.193.145-6.461-.251-.47.08-7.031-.1C127.31,2.8,98.44,1.656,91.751,1.339c-3.668.088-8.13-.2-11.7-.182l.371-.037C76.606,1.069,55.109.283,50.632.269l.592.044A62.027,62.027,0,0,1,44.859,0c.352.239-3,.3-4.272.29l.056-.049c-1.918,0-6.293.117-9.472.1l.143-.123C28.652.31,23.657.195,21.721.2c-2.208-.041-5-.124-8.133-.141-1.6,0-3.179,0-5.225.08C7.855.158,7.257.19,6.476.25,5.984.3,5.6.319,4.645.454L4.337.5l-.6.108L3.15.736,2.87.8,2.456.918a8.646,8.646,0,0,0-1.124.418c-.162.076-.314.156-.448.235a2.729,2.729,0,0,0-.445.321A1,1,0,0,0,.476,3.57a3.986,3.986,0,0,0,.947.571c.23.1.339.141.408.167l.287.1c.352.12.928.274,1.183.327.374.085,1.037.206,1.227.229.62.095,1,.134,1.386.175.669.065,1.227.1,1.706.132L9.8,5.6c1.015.142,2.027.286,2.027.286l.62-.009a10.613,10.613,0,0,0,3-2.176c1-1.175.828-2.48-2.2-3.09l.162-.119-1.2-.051A9.575,9.575,0,0,0,11.109.364l-.016,0h-.006s.016-.016-.069.064c-.23.213-.38.356-.536.5-.249.231-.352.306-.252.227,0,0,.361-.336.909-.838-.019,0,.118.015.271.029L12.2.414C11.009.3,11.872.288,12.414.25A5.1,5.1,0,0,1,11.349.106c-.069.044-.047.05.09.091L11.3.2c-.031,0-.05,0-.047.008l-.215.2A13.157,13.157,0,0,1,9.7,1.573a7.471,7.471,0,0,1-1.283.852,2.915,2.915,0,0,1-.847.3,1.4,1.4,0,0,1,.408.133A.832.832,0,0,1,8.2,2.99l.3.2A5.637,5.637,0,0,1,9.465,4.2l.5.664.205.336.044.078h-.006v0c.24-.006.445.039.445.089.087.05.09.1.9.083C16.275,5.412,22,5.532,27.4,5.642L44.121,6c.252.058-.056.049-.392.066,3.438.02,6.483.112,9.618.132a6.6,6.6,0,0,1,1.317.22c-.246-.058,4.076.021,8.5.13l6.143.164C71,6.766,72.169,6.805,72.238,6.814Z" transform="translate(0 4.946) rotate(-1)" fill="#9bd2fc"/>
</svg>
