<svg width="126" height="23" viewBox="0 0 126 23" fill="none" xmlns="http://www.w3.org/2000/svg">
<g clip-path="url(#clip0_4993_152)">
<path d="M121.12 4.59961C122.656 4.59961 124.058 5.21111 125.066 6.19531L123.959 7.24805L122.811 8.34277L122.334 8.79395C122.035 8.53187 121.643 8.36125 121.214 8.34277C121.181 8.33817 121.153 8.33789 121.12 8.33789C121.087 8.33789 121.059 8.33817 121.026 8.34277H113.863C113.831 8.33823 113.803 8.33789 113.771 8.33789C113.738 8.33789 113.709 8.33817 113.677 8.34277C113.247 8.36117 112.855 8.5318 112.556 8.79395C112.35 8.97779 112.187 9.20267 112.084 9.45996C111.995 9.66692 111.949 9.89268 111.949 10.1318C111.949 10.371 111.995 10.5968 112.084 10.8037C112.252 11.2266 112.584 11.5712 113.004 11.7598C113.237 11.8701 113.5 11.9297 113.771 11.9297H120.378C120.919 11.9297 121.447 12.0033 121.946 12.1504C122.035 12.1733 122.119 12.1964 122.203 12.2285C123.132 12.5412 123.955 13.0887 124.59 13.7969C125.075 14.3349 125.453 14.9699 125.696 15.6689C125.72 15.7333 125.743 15.7979 125.762 15.8623C125.916 16.3682 126 16.9064 126 17.4629C126 19.0035 125.36 20.4017 124.323 21.4043C123.315 22.3883 121.914 22.9999 120.378 23H113.027C111.487 22.9999 110.095 22.3883 109.082 21.4043L110.534 20.0244L111.342 19.252H111.347L111.818 18.8008C112.117 19.0629 112.51 19.2336 112.935 19.252C112.967 19.2565 112.995 19.2568 113.027 19.2568C113.06 19.2568 113.088 19.2566 113.121 19.252H120.284C120.317 19.2566 120.345 19.2568 120.378 19.2568C120.41 19.2568 120.438 19.2565 120.471 19.252C120.9 19.2336 121.288 19.0629 121.587 18.8008C121.96 18.4743 122.199 17.9963 122.199 17.4629C122.199 16.9616 121.988 16.5062 121.647 16.1797C121.321 15.8625 120.873 15.669 120.378 15.6689H113.771C113.481 15.6689 113.196 15.6459 112.916 15.6045C112.631 15.5631 112.355 15.4988 112.084 15.416C111.099 15.1124 110.226 14.5464 109.559 13.7969C109.292 13.4979 109.054 13.1718 108.857 12.8223C108.694 12.5372 108.559 12.2424 108.451 11.9297C108.255 11.3687 108.148 10.7617 108.148 10.1318C108.148 8.59125 108.788 7.1979 109.824 6.19531C110.838 5.21111 112.23 4.59961 113.771 4.59961H121.12ZM3.80078 6.41113C5.351 5.27522 7.26569 4.59871 9.33887 4.59863C14.4893 4.59863 18.6785 8.72886 18.6787 13.7969C18.6787 18.8651 14.4894 22.9951 9.33887 22.9951C4.18845 22.9949 0 18.8649 0 13.7969V0H3.80078V6.41113ZM29.918 4.59961C35.0684 4.59961 39.2576 8.72428 39.2578 13.7969C39.2578 18.8697 35.0685 22.9951 29.918 22.9951C24.7676 22.9949 20.5791 18.8649 20.5791 13.7969C20.5793 8.72899 24.7677 4.59979 29.918 4.59961ZM50.4922 4.59961C55.6426 4.59961 59.8318 8.72428 59.832 13.7969C59.832 18.8697 55.6428 22.9951 50.4922 22.9951C45.3418 22.9949 41.1533 18.8649 41.1533 13.7969C41.1535 8.72899 45.3419 4.59979 50.4922 4.59961ZM65.5332 11.9756L71.4824 4.59863H76.334L69.1475 13.5078L76.8008 22.9951H71.9492L66.7197 16.5156L65.5332 17.9912V22.9951H61.7324V0H65.5332V11.9756ZM85.6738 4.59961C90.8242 4.59969 95.0125 8.72432 95.0127 13.7969C95.0127 14.2659 94.9755 14.7261 94.9102 15.1768H80.3125C80.9336 17.5177 83.1009 19.252 85.6738 19.252C87.4949 19.2519 89.1154 18.3871 90.124 17.0488H94.4102C93.0746 20.521 89.6616 22.9951 85.6738 22.9951C80.5233 22.9951 76.335 18.8697 76.335 13.7969C76.3352 8.72428 80.5234 4.59961 85.6738 4.59961ZM106.243 8.34277C103.194 8.34277 100.705 10.7893 100.705 13.7969V22.9951H96.9082V13.7969H96.9043C96.9045 8.72428 101.093 4.59961 106.243 4.59961V8.34277ZM9.33887 8.34277C6.2899 8.34296 3.80098 10.7894 3.80078 13.7969C3.80078 16.8046 6.2851 19.2518 9.33887 19.252C12.3975 19.252 14.8818 16.8047 14.8818 13.7969C14.8816 10.7892 12.388 8.34277 9.33887 8.34277ZM29.918 8.34277C26.8643 8.34296 24.3801 10.7894 24.3799 13.7969C24.3799 16.8046 26.8689 19.2518 29.918 19.252C32.9672 19.252 35.4609 16.8047 35.4609 13.7969C35.4607 10.7893 32.9764 8.34277 29.918 8.34277ZM50.4922 8.34277C47.4386 8.34296 44.9543 10.7894 44.9541 13.7969C44.9541 16.8046 47.4431 19.2518 50.4922 19.252C53.5414 19.252 56.0352 16.8047 56.0352 13.7969C56.0349 10.7893 53.5506 8.34277 50.4922 8.34277ZM85.6738 8.34277C83.4792 8.34277 81.5736 9.60721 80.6816 11.4375H90.6699C89.7779 9.60736 87.8683 8.34283 85.6738 8.34277Z" fill="#38BBCD"/>
</g>
<defs>
<clipPath id="clip0_4993_152">
<rect width="126" height="23" fill="white"/>
</clipPath>
</defs>
</svg>
