<svg width="19" height="15" viewBox="0 0 19 15" fill="none" xmlns="http://www.w3.org/2000/svg">
<g clip-path="url(#clip0_179_4516)">
<mask id="mask0_179_4516" style="mask-type:luminance" maskUnits="userSpaceOnUse" x="0" y="0" width="19" height="15">
<path d="M19 0H0V15H19V0Z" fill="white"/>
</mask>
<g mask="url(#mask0_179_4516)">
<path d="M19.143 13.932C19.143 14.1627 19.0513 14.384 18.8882 14.5472C18.725 14.7103 18.5037 14.802 18.273 14.802H7.83099C7.60026 14.802 7.37898 14.7103 7.21582 14.5472C7.05266 14.384 6.961 14.1627 6.961 13.932C6.961 12.5473 7.51105 11.2193 8.49017 10.2402C9.4693 9.26108 10.7973 8.711 12.182 8.711H13.922C15.3067 8.711 16.6347 9.26108 17.6138 10.2402C18.593 11.2193 19.143 12.5473 19.143 13.932ZM13.052 0.880005C12.3635 0.880005 11.6905 1.08415 11.118 1.46664C10.5456 1.84914 10.0995 2.3928 9.836 3.02887C9.57253 3.66494 9.50356 4.36485 9.63788 5.0401C9.77219 5.71535 10.1037 6.33562 10.5906 6.82245C11.0774 7.30928 11.6976 7.6408 12.3729 7.77512C13.0481 7.90943 13.748 7.8405 14.3841 7.57703C15.0202 7.31356 15.5639 6.8674 15.9464 6.29495C16.3288 5.72251 16.533 5.04947 16.533 4.36099C16.533 3.43777 16.1662 2.55238 15.5134 1.89957C14.8606 1.24675 13.9752 0.880005 13.052 0.880005ZM5.22101 0.880005C4.53253 0.880005 3.8595 1.08415 3.28705 1.46664C2.7146 1.84914 2.26847 2.3928 2.005 3.02887C1.74154 3.66494 1.67257 4.36485 1.80688 5.0401C1.9412 5.71535 2.27276 6.33562 2.75958 6.82245C3.24641 7.30928 3.86662 7.6408 4.54187 7.77512C5.21712 7.90943 5.91703 7.8405 6.5531 7.57703C7.18917 7.31356 7.73286 6.8674 8.11536 6.29495C8.49785 5.72251 8.70203 5.04947 8.70203 4.36099C8.70203 3.43777 8.33525 2.55238 7.68243 1.89957C7.02962 1.24675 6.14423 0.880005 5.22101 0.880005ZM5.22101 13.932C5.21978 13.0181 5.39988 12.113 5.75092 11.2691C6.10195 10.4253 6.61691 9.65942 7.26599 9.01599C6.73449 8.81703 6.17152 8.71542 5.604 8.716H4.83801C3.55649 8.71838 2.32803 9.22817 1.42139 10.1339C0.514744 11.0396 0.00369934 12.2675 0 13.549V13.932C0 14.1627 0.0916651 14.384 0.254822 14.5472C0.417978 14.7103 0.639257 14.802 0.869995 14.802H5.37701C5.27557 14.523 5.22243 14.2288 5.21997 13.932H5.22101Z" fill="#121212"/>
</g>
</g>
<defs>
<clipPath id="clip0_179_4516">
<rect width="19" height="15" fill="white"/>
</clipPath>
</defs>
</svg>
