<svg width="40" height="40" viewBox="0 0 40 40" fill="none" xmlns="http://www.w3.org/2000/svg">
<path d="M9.8 37.2C12.8 39 16.4 40 20 40C31 40 40 31 40 20C40 9 31 0 20 0C9 0 0 9 0 20C0 23.6 1 27 2.6 30L0.440443 38.306C0.24572 39.0549 0.938924 39.7317 1.68299 39.5191L9.8 37.2Z" fill="url(#paint0_linear_2050_3483)"/>
<path d="M28.1843 22.3281H29.8718L30.9656 23.7344C31.7078 23.0312 32.1687 21.8906 32.1687 20.3438C32.1687 17.5938 30.7156 16.1094 28.7781 16.1094C26.825 16.1094 25.3718 17.5938 25.3718 20.3438C25.3718 23.0938 26.825 24.5781 28.7781 24.5781C29.1375 24.5781 29.4734 24.5312 29.7937 24.4219L28.1843 22.3281ZM33.8718 20.3438C33.8718 22.4219 33.1531 24.0391 31.9812 25.0312L33.5125 27.0156H31.7468L30.7937 25.7656C30.1843 26.0234 29.5046 26.1562 28.7781 26.1562C25.825 26.1562 23.6687 23.9531 23.6687 20.3438C23.6687 16.7188 25.825 14.5312 28.7781 14.5312C31.7 14.5312 33.8718 16.7188 33.8718 20.3438Z" fill="white"/>
<path d="M15.2407 26H13.4126L17.4751 14.6875H19.4595L23.5376 26H21.7095L20.6782 23.0156H16.272L15.2407 26ZM16.772 21.5781H20.1782L18.5063 16.75H18.4282L16.772 21.5781Z" fill="white"/>
<path d="M7.15625 26V14.6875H14.1719V16.1719H8.875V19.5938H13.6719V21.0625H8.875V26H7.15625Z" fill="white"/>
<defs>
<linearGradient id="paint0_linear_2050_3483" x1="18" y1="7.5" x2="34.5" y2="41" gradientUnits="userSpaceOnUse">
<stop stop-color="#38BBCD"/>
<stop offset="1" stop-color="#0082CA"/>
</linearGradient>
</defs>
</svg>
