<svg xmlns="http://www.w3.org/2000/svg" width="100" height="100.015" viewBox="0 0 100 100.015">
  <g id="_002-empty_box" data-name="002-empty box" transform="translate(-0.038 0.001)">
    <path id="패스_2295" data-name="패스 2295" d="M99.815,242.893a2.93,2.93,0,0,0-2.707-1.819H65.728a2.921,2.921,0,0,0-2.071.863l-13.618,13.7-13.618-13.7a2.921,2.921,0,0,0-2.071-.863H2.968a2.929,2.929,0,0,0-2.707,1.819A2.959,2.959,0,0,0,.9,246.1l14.832,14.918v30.341a2.938,2.938,0,0,0,2.93,2.947H81.418a2.938,2.938,0,0,0,2.93-2.947V261.022L99.18,246.1a2.959,2.959,0,0,0,.635-3.211Zm-89.775,4.074H33.134l9.831,9.888H19.871Zm37.068,41.45H21.587V262.748H47.108Zm31.38,0H52.968V262.748H78.489v25.669ZM80.2,256.855H57.111l9.831-9.888H90.035Z" transform="translate(0 -194.296)" fill="#121212"/>
    <path id="패스_2296" data-name="패스 2296" d="M108.3,76.26a2.947,2.947,0,0,0,0-5.893c-9.97,0-14.511-4.918-14.511-9.487,0-3.341,2.535-6.713,8.2-6.713,6.339,0,10.948,5.078,13.7,15.092a72.359,72.359,0,0,1,2.29,16.681,2.947,2.947,0,0,0,5.893,0A77.222,77.222,0,0,0,121.4,67.8c-4.4-16.142-12.987-19.53-19.413-19.53C92.74,48.274,87.9,54.616,87.9,60.88c0,8.145,7.445,15.381,20.4,15.381Z" transform="translate(-70.756 -38.792)" fill="#121212"/>
    <path id="패스_2297" data-name="패스 2297" d="M292.184,44.546a2.947,2.947,0,1,0,0,5.893c15.876,0,25.114-8.6,25.114-18.485,0-6.884-5.4-15.814-18.8-15.814a2.947,2.947,0,0,0,0,5.893C318.476,22.713,314.551,45.168,292.184,44.546Z" transform="translate(-232.841 -12.97)" fill="#121212"/>
    <path id="패스_2298" data-name="패스 2298" d="M245,8.2a2.964,2.964,0,0,0,4.167,0l3.156-3.156A2.947,2.947,0,0,0,248.153.877L247.08,1.949,246.008.877a2.947,2.947,0,0,0-4.167,4.167Z" transform="translate(-193.907 0)" fill="#121212"/>
  </g>
</svg>
