<svg xmlns="http://www.w3.org/2000/svg" width="24" height="15.646" viewBox="0 0 24 15.646">
  <g id="그룹_2905" data-name="그룹 2905" transform="translate(-20.143 -97.484)" opacity="0.7">
    <path id="패스_2141" data-name="패스 2141" d="M46.41,113.13a.378.378,0,0,1-.379-.377V99.665a2.187,2.187,0,0,1,2.189-2.181h8.686a.378.378,0,0,1,.379.377v13.088a.378.378,0,0,1-.379.377H48.22a1.431,1.431,0,0,0-1.432,1.426A.378.378,0,0,1,46.41,113.13ZM48.22,98.239a1.431,1.431,0,0,0-1.432,1.426V111.1a2.185,2.185,0,0,1,1.432-.532h8.307V98.239Z" transform="translate(-14.314 0)"/>
    <path id="패스_2142" data-name="패스 2142" d="M58.078,115.466H46.41a.377.377,0,1,1,0-.754H57.7v-12.22h-.793a.377.377,0,1,1,0-.754h1.172a.378.378,0,0,1,.379.377v12.974A.378.378,0,0,1,58.078,115.466Z" transform="translate(-14.314 -2.336)"/>
    <path id="패스_2143" data-name="패스 2143" d="M33.618,113.13a.378.378,0,0,1-.379-.377,1.431,1.431,0,0,0-1.432-1.426H23.121a.378.378,0,0,1-.379-.377V97.861a.378.378,0,0,1,.379-.377h8.686A2.187,2.187,0,0,1,34,99.665v13.088A.378.378,0,0,1,33.618,113.13ZM23.5,110.571h8.307a2.184,2.184,0,0,1,1.432.532V99.665a1.431,1.431,0,0,0-1.432-1.426H23.5Z" transform="translate(-1.428 0)"/>
    <path id="패스_2144" data-name="패스 2144" d="M32.19,115.466H20.522a.378.378,0,0,1-.379-.377V102.114a.378.378,0,0,1,.379-.377h1.172a.377.377,0,1,1,0,.754H20.9v12.22H32.19a.377.377,0,1,1,0,.754Z" transform="translate(0 -2.336)"/>
    <path id="패스_2146" data-name="패스 2146" d="M58.1,106.438H52.665a.379.379,0,0,1,0-.758H58.1a.379.379,0,0,1,0,.758Z" transform="translate(-17.752 -3.374)"/>
    <path id="패스_2151" data-name="패스 2151" d="M58.1,106.438H52.665a.379.379,0,0,1,0-.758H58.1a.379.379,0,0,1,0,.758Z" transform="translate(-28.485 -3.374)"/>
    <path id="패스_2147" data-name="패스 2147" d="M58,115.47H52.556a.379.379,0,0,1,0-.758H58a.379.379,0,0,1,0,.758Z" transform="translate(-17.695 -8.352)"/>
    <path id="패스_2149" data-name="패스 2149" d="M58,115.47H52.556a.379.379,0,0,1,0-.758H58a.379.379,0,0,1,0,.758Z" transform="translate(-28.427 -8.352)"/>
    <path id="패스_2148" data-name="패스 2148" d="M58,110.75H52.556a.379.379,0,0,1,0-.758H58a.379.379,0,0,1,0,.758Z" transform="translate(-17.695 -5.751)"/>
    <path id="패스_2150" data-name="패스 2150" d="M58,110.75H52.556a.379.379,0,0,1,0-.758H58a.379.379,0,0,1,0,.758Z" transform="translate(-28.427 -5.751)"/>
  </g>
</svg>
