<svg xmlns="http://www.w3.org/2000/svg" width="24" height="15.646" viewBox="0 0 24 15.646">
  <g id="ic_read-re" transform="translate(-569.734 -677.177)">
    <rect id="사각형_2381" data-name="사각형 2381" width="11" height="13" transform="translate(582 679.5)" fill="#f23e4f"/>
    <rect id="사각형_2382" data-name="사각형 2382" width="11" height="13" transform="translate(570.308 679.5)" fill="#f23e4f"/>
    <path id="패스_2155" data-name="패스 2155" d="M9.5,0H1A1,1,0,0,0,0,1L.168,13.344,9.5,13.1a1,1,0,0,0,1-1V1A1,1,0,0,0,9.5,0Z" transform="translate(581.686 677.5)" fill="#fff"/>
    <path id="패스_2156" data-name="패스 2156" d="M46.41,113.13a.378.378,0,0,1-.379-.377V99.665a2.187,2.187,0,0,1,2.189-2.181h8.686a.378.378,0,0,1,.379.377v13.088a.378.378,0,0,1-.379.377H48.22a1.431,1.431,0,0,0-1.432,1.426A.378.378,0,0,1,46.41,113.13ZM48.22,98.239a1.431,1.431,0,0,0-1.432,1.426V111.1a2.185,2.185,0,0,1,1.432-.532h8.307V98.239Z" transform="translate(535.277 579.693)" fill="#f23e4f"/>
    <path id="패스_2157" data-name="패스 2157" d="M1,0H9.5a1,1,0,0,1,1,1l-.168,12.344L1,13.1a1,1,0,0,1-1-1V1A1,1,0,0,1,1,0Z" transform="translate(571 677.5)" fill="#fff"/>
    <path id="패스_2158" data-name="패스 2158" d="M58.078,115.466H46.41a.377.377,0,1,1,0-.754H57.7v-12.22h-.793a.377.377,0,1,1,0-.754h1.172a.378.378,0,0,1,.379.377v12.974A.378.378,0,0,1,58.078,115.466Z" transform="translate(535.277 577.357)" fill="#f23e4f"/>
    <path id="패스_2159" data-name="패스 2159" d="M33.618,113.13a.378.378,0,0,1-.379-.377,1.431,1.431,0,0,0-1.432-1.426H23.121a.378.378,0,0,1-.379-.377V97.861a.378.378,0,0,1,.379-.377h8.686A2.187,2.187,0,0,1,34,99.665v13.088A.378.378,0,0,1,33.618,113.13ZM23.5,110.571h8.307a2.184,2.184,0,0,1,1.432.532V99.665a1.431,1.431,0,0,0-1.432-1.426H23.5Z" transform="translate(548.163 579.693)" fill="#f23e4f"/>
    <path id="패스_2160" data-name="패스 2160" d="M32.19,115.466H20.522a.378.378,0,0,1-.379-.377V102.114a.378.378,0,0,1,.379-.377h1.172a.377.377,0,1,1,0,.754H20.9v12.22H32.19a.377.377,0,1,1,0,.754Z" transform="translate(549.591 577.357)" fill="#f23e4f"/>
    <path id="패스_2161" data-name="패스 2161" d="M58.1,106.438H52.665a.379.379,0,0,1,0-.758H58.1a.379.379,0,0,1,0,.758Z" transform="translate(531.839 576.319)" fill="#f23e4f"/>
    <path id="패스_2162" data-name="패스 2162" d="M58.1,106.438H52.665a.379.379,0,0,1,0-.758H58.1a.379.379,0,0,1,0,.758Z" transform="translate(521.106 576.319)" fill="#f23e4f"/>
    <path id="패스_2163" data-name="패스 2163" d="M58,115.47H52.556a.379.379,0,0,1,0-.758H58a.379.379,0,0,1,0,.758Z" transform="translate(531.896 571.341)" fill="#f23e4f"/>
    <path id="패스_2164" data-name="패스 2164" d="M58,115.47H52.556a.379.379,0,0,1,0-.758H58a.379.379,0,0,1,0,.758Z" transform="translate(521.164 571.341)" fill="#f23e4f"/>
    <path id="패스_2165" data-name="패스 2165" d="M58,110.75H52.556a.379.379,0,0,1,0-.758H58a.379.379,0,0,1,0,.758Z" transform="translate(531.896 573.943)" fill="#f23e4f"/>
    <path id="패스_2166" data-name="패스 2166" d="M58,110.75H52.556a.379.379,0,0,1,0-.758H58a.379.379,0,0,1,0,.758Z" transform="translate(521.164 573.943)" fill="#f23e4f"/>
  </g>
</svg>
