<svg xmlns="http://www.w3.org/2000/svg" width="18" height="15" viewBox="0 0 18 15">
  <g id="img_limited" transform="translate(-93.991 -203.126)">
    <g id="그룹_2946" data-name="그룹 2946" transform="translate(93.991 203.126)">
      <g id="그룹_2942" data-name="그룹 2942" transform="translate(14.792 7.123)">
        <path id="패스_2167" data-name="패스 2167" d="M198.576,252.522a.313.313,0,0,0-.442.443l1.434,1.434a.313.313,0,0,0,.443-.442Z" transform="translate(-198.043 -252.43)" fill="#fff"/>
      </g>
      <g id="그룹_2943" data-name="그룹 2943" transform="translate(15.346 5.424)">
        <path id="패스_2168" data-name="패스 2168" d="M202.057,241.177a.313.313,0,0,1,0-.626l2.029-.01a.313.313,0,0,1,0,.626Z" transform="translate(-201.743 -240.541)" fill="#fff"/>
      </g>
      <g id="그룹_2944" data-name="그룹 2944" transform="translate(14.809 2.287)">
        <path id="패스_2169" data-name="패스 2169" d="M198.691,220.929a.313.313,0,0,1-.443-.442l1.435-1.434a.313.313,0,0,1,.442.442Z" transform="translate(-198.156 -218.96)" fill="#fff"/>
      </g>
      <path id="패스_2170" data-name="패스 2170" d="M181.256,231.2a1.46,1.46,0,0,1-1.46,1.46h-.522v-4.379h.522a1.46,1.46,0,0,1,1.46,1.46Z" transform="translate(-167.103 -224.672)" fill="#fff"/>
      <g id="그룹_2945" data-name="그룹 2945" transform="translate(0 0)">
        <path id="패스_2171" data-name="패스 2171" d="M108.507,206.6l-5,2.612a1.59,1.59,0,0,1-.737.183H99.1a1.21,1.21,0,0,0-1.164,1.251v2.764a1.207,1.207,0,0,0,1.164,1.248l3.67-.012a1.584,1.584,0,0,1,.737.181l5,2.611Z" transform="translate(-97.343 -206.081)" fill="#fff"/>
        <path id="사각형_2384" data-name="사각형 2384" d="M.8,0h0a.8.8,0,0,1,.8.8V11.106a.8.8,0,0,1-.8.8h0a.8.8,0,0,1-.8-.8V.8A.8.8,0,0,1,.8,0Z" transform="translate(11.146)" fill="#fff"/>
        <path id="패스_2172" data-name="패스 2172" d="M124.843,258.036h-.652v2.112h0a.653.653,0,0,0,.652-.652Z" transform="translate(-119.946 -250.105)" fill="#fff"/>
        <path id="패스_2173" data-name="패스 2173" d="M93.991,235.928a.6.6,0,0,0,.6.6h0v-2.277h0a.6.6,0,0,0-.6.6Z" transform="translate(-93.991 -229.757)" fill="#fff"/>
        <path id="패스_2174" data-name="패스 2174" d="M111.172,250.654a.816.816,0,0,1-.82.814l-.658,0a.818.818,0,0,1-.814-.821l.024-8.864,2.292.009Z" transform="translate(-106.808 -236.468)" fill="#fff"/>
        <path id="패스_2175" data-name="패스 2175" d="M103.1,225.26H99.186a1.251,1.251,0,0,0-1.252,1.251v2.764a1.249,1.249,0,0,0,1.252,1.248l3.919-.012Z" transform="translate(-97.343 -222.099)" fill="#fff"/>
      </g>
    </g>
  </g>
</svg>
