<svg xmlns="http://www.w3.org/2000/svg" width="164.197" height="41.815" viewBox="0 0 164.197 41.815">
  <g id="logo_bookerxaladin" transform="translate(-420 -118.382)">
    <g id="그룹_1866" data-name="그룹 1866" transform="translate(505.385 121.763)">
      <path id="패스_1515" data-name="패스 1515" d="M651.508,535.812c-3.222-1.768-7.634-1.986-10.483,1.243a6.566,6.566,0,0,0-.81,7.883,6.08,6.08,0,0,0,6.99,2.579c2.506-.686,3.888-3.782,2.275-5.875a2.984,2.984,0,0,0-3.894-.756,1.441,1.441,0,0,0-.568,1.807,1.154,1.154,0,0,0,1.031.635,1.686,1.686,0,0,0,.606-.164c1.053-.375,1.527,1.249.659,1.73a2.018,2.018,0,0,1-.557.232,3.992,3.992,0,0,1-4.495-1.582,4.182,4.182,0,0,1,.594-4.791c1.754-1.982,4.961-1.878,7.125-.554s3.884,4.09,2.246,7.89c-1.313,3.056-5.226,3.939-9.082,3.945a18.164,18.164,0,0,1-2.006-.119c-6.261-.692-15.036-4.254-19.531-6.123-.8.293-1.914.7-3.129,1.125a67.992,67.992,0,0,1-6.976,2.162l-.586.119c-4.453.908-6.46,1.078-10.284.5a18.153,18.153,0,0,1-2.285-.277c.2.277.378.559.571.838.012.018.023.036.034.053-.2-.3-.4-.6-.6-.891-5.56-.88-17.983-3.259-21.19,2.33,9.873-1.43,18.956,1.736,25.63,5.065-.186-.375-.387-.743-.581-1.113l.008.013c.193.366.391.73.574,1.1,3.05,1.518,5.6,3.073,7.49,4.234a48.555,48.555,0,0,0,6.544,3.71,19.816,19.816,0,0,0-3.927,4.855.7.7,0,0,0-.142.392c0,1.26,4.628,2.333,9.042,2.333.547,0,1.1-.018,1.646-.047,3.847-.224,7.4-1.184,7.4-2.286a.677.677,0,0,0-.143-.392,19.739,19.739,0,0,0-4.113-5.02,38.392,38.392,0,0,0,3.642-1.995c.6-.354,2.533-1.394,4.67-2.495,2.407-1.246,5.066-2.578,6.365-3.125a35.551,35.551,0,0,1,5-1.535,29.559,29.559,0,0,0,3.894-1.228,9.518,9.518,0,0,0,4.991-4.822A9.049,9.049,0,0,0,651.508,535.812Z" transform="translate(-577.155 -534.54)" fill="#fff"/>
      <path id="패스_1516" data-name="패스 1516" d="M624.292,537.983a1.89,1.89,0,0,0-1.891,1.89A6.391,6.391,0,0,0,624.292,544a6.394,6.394,0,0,0,1.891-4.125A1.891,1.891,0,0,0,624.292,537.983Z" transform="translate(-579.842 -534.737)" fill="#fff"/>
    </g>
    <path id="패스_1020" data-name="패스 1020" d="M78.421,400.367A16.2,16.2,0,0,0,68.372,403.7V391.711H62.125L62.1,418h0a16.505,16.505,0,1,0,16.321-17.632Zm.143,26.291a9.787,9.787,0,1,1,9.792-9.786,9.787,9.787,0,0,1-9.792,9.786Z" transform="translate(357.9 -273.329)" fill="#fff"/>
    <g id="그룹_2942" data-name="그룹 2942" transform="translate(480.996 115) rotate(45)" opacity="0.977">
      <rect id="사각형_2435" data-name="사각형 2435" width="35.184" height="0.699" rx="0.35" transform="translate(0 16.999)" fill="#fff"/>
      <rect id="사각형_2436" data-name="사각형 2436" width="35.184" height="0.699" rx="0.35" transform="translate(18.186 0) rotate(90)" fill="#fff"/>
    </g>
  </g>
</svg>
