<svg xmlns="http://www.w3.org/2000/svg" xmlns:xlink="http://www.w3.org/1999/xlink" width="90" height="24.013" viewBox="0 0 90 24.013">
  <defs>
    <linearGradient id="linear-gradient" x1="0.655" y1="0.038" x2="0.464" y2="0.63" gradientUnits="objectBoundingBox">
      <stop offset="0" stop-color="#617aba"/>
      <stop offset="0.119" stop-color="#4c6db1"/>
      <stop offset="0.306" stop-color="#315da7"/>
      <stop offset="0.473" stop-color="#2054a1"/>
      <stop offset="0.6" stop-color="#1b519f"/>
    </linearGradient>
    <linearGradient id="linear-gradient-2" x1="0.138" y1="0.132" x2="0.748" y2="0.904" gradientUnits="objectBoundingBox">
      <stop offset="0" stop-color="#e680af"/>
      <stop offset="0.061" stop-color="#e36ba4"/>
      <stop offset="0.191" stop-color="#de4691"/>
      <stop offset="0.312" stop-color="#db2b84"/>
      <stop offset="0.419" stop-color="#d91a7b"/>
      <stop offset="0.5" stop-color="#d91579"/>
    </linearGradient>
    <linearGradient id="linear-gradient-3" x1="0.926" y1="0.241" x2="0.193" y2="0.608" gradientUnits="objectBoundingBox">
      <stop offset="0" stop-color="#617aba"/>
      <stop offset="0.069" stop-color="#4c6db1"/>
      <stop offset="0.179" stop-color="#315da7"/>
      <stop offset="0.276" stop-color="#2054a1"/>
      <stop offset="0.35" stop-color="#1b519f"/>
    </linearGradient>
    <linearGradient id="linear-gradient-4" x1="0.136" y1="-0.265" x2="0.697" y2="0.686" gradientUnits="objectBoundingBox">
      <stop offset="0" stop-color="#ffd078"/>
      <stop offset="0.092" stop-color="#fec356"/>
      <stop offset="0.212" stop-color="#fdb631"/>
      <stop offset="0.325" stop-color="#fcac16"/>
      <stop offset="0.424" stop-color="#fca605"/>
      <stop offset="0.5" stop-color="#fca400"/>
    </linearGradient>
  </defs>
  <g id="logo_bookersxAladin" transform="translate(-28 -67.987)">
    <rect id="사각형_2437" data-name="사각형 2437" width="90" height="24" transform="translate(28 68)" fill="none"/>
    <path id="패스_1020" data-name="패스 1020" d="M71.107,396.488a8.94,8.94,0,0,0-5.546,1.839v-6.616H62.114L62.1,406.219h0a9.109,9.109,0,1,0,9.007-9.731ZM71.186,411a5.4,5.4,0,1,1,5.4-5.4,5.4,5.4,0,0,1-5.4,5.4Z" transform="translate(-34.1 -323.724)" fill="#26c6da"/>
    <g id="그룹_2942" data-name="그룹 2942" transform="translate(59.084 68.482) rotate(45)" opacity="0.6">
      <rect id="사각형_2435" data-name="사각형 2435" width="16.611" height="0.68" rx="0.34" transform="translate(0 7.966)"/>
      <rect id="사각형_2436" data-name="사각형 2436" width="16.611" height="0.681" rx="0.34" transform="translate(8.646 0) rotate(90)"/>
    </g>
    <g id="그룹_1749" data-name="그룹 1749" transform="translate(70.815 69.518)">
      <path id="패스_1297" data-name="패스 1297" d="M136.818,291.578c5.633-.815,10.814.989,14.624,2.886a32.32,32.32,0,0,0-2.53-4.214C145.737,289.749,138.648,288.393,136.818,291.578Z" transform="translate(-136.818 -282.915)" fill="#fca400"/>
      <path id="패스_1298" data-name="패스 1298" d="M176.54,306.08c-.062-.192-.12-.384-.184-.575-.049-.147-.1-.294-.149-.44-.058-.172-.118-.346-.18-.519-.051-.141-.1-.281-.156-.422-.078-.218-.158-.436-.24-.653-.026-.068-.055-.134-.084-.2a6.456,6.456,0,0,1-1.469-.264,15.352,15.352,0,0,1-3.664-1.883l-.759-.471c-1.259-.773-2.628-1.595-4.306-2.431-.17-.085-.342-.166-.514-.248.111.209.222.415.327.627,1.738.865,3.194,1.751,4.273,2.413a27.435,27.435,0,0,0,3.734,2.114,11.36,11.36,0,0,0-2.241,2.766.4.4,0,0,0-.082.224c0,.718,2.64,1.329,5.159,1.329.312,0,.628-.009.938-.027-.091-.319-.185-.637-.284-.956C176.622,306.333,176.58,306.205,176.54,306.08Z" transform="translate(-150.557 -287.06)" fill="#1b519f"/>
      <path id="패스_1299" data-name="패스 1299" d="M167.77,291.037l.37-.077-.036.008c.069-.013.15-.032.23-.052-.1-.12-.2-.244-.313-.362,0,0-.335.067-.335.067a14.032,14.032,0,0,1-5.868.287,10.082,10.082,0,0,1-1.3-.157c.109.157.214.318.324.477a8.279,8.279,0,0,0,.935.1A14.561,14.561,0,0,0,167.77,291.037Z" transform="translate(-148.438 -283.415)" fill="#1b519f"/>
      <path id="패스_1300" data-name="패스 1300" d="M190.88,303.638c-1.551.925-3.018,1.8-4.862,1.747-.06,0-.12-.009-.182-.012l.08.2c.028.077.062.153.091.231H186c.055.14.1.282.154.423s.1.281.156.422c.061.173.121.347.18.519q.076.22.149.44c.064.19.122.383.184.575.04.127.082.254.121.381.1.319.192.637.284.956,2.2-.127,4.221-.674,4.221-1.3a.4.4,0,0,0-.081-.225,11.35,11.35,0,0,0-2.346-2.86A21.642,21.642,0,0,0,191.1,304c.34-.2,1.443-.793,2.663-1.422-.107-.1-.216-.2-.324-.307C192.267,302.877,191.226,303.432,190.88,303.638Z" transform="translate(-160.851 -289.165)" fill="#d91579"/>
      <path id="패스_1301" data-name="패스 1301" d="M179.343,288.536l.313-.112c-.152-.094-.3-.193-.455-.285a38.44,38.44,0,0,1-3.979,1.232c.108.118.208.242.313.362C176.326,289.551,177.6,289.149,179.343,288.536Z" transform="translate(-155.646 -282.231)" fill="#d91579"/>
      <path id="패스_1302" data-name="패스 1302" d="M213.243,277.273a4.774,4.774,0,0,0-5.982.71,3.737,3.737,0,0,0-.46,4.491,3.465,3.465,0,0,0,3.987,1.468,2.193,2.193,0,0,0,1.3-3.345,1.7,1.7,0,0,0-2.222-.432.82.82,0,0,0-.324,1.03.663.663,0,0,0,.59.361.976.976,0,0,0,.344-.093c.6-.214.872.712.375.986a1.211,1.211,0,0,1-.316.132,2.28,2.28,0,0,1-2.566-.9,2.379,2.379,0,0,1,.34-2.73,3.276,3.276,0,0,1,4.064-.315,3.379,3.379,0,0,1,1.283,4.5c-.751,1.742-2.983,2.245-5.181,2.249a10.2,10.2,0,0,1-1.146-.068c.24.156.479.319.716.479.15.007.293.013.43.013,2.938-.006,4.864-.872,5.568-2.5a3.784,3.784,0,0,0-1.449-5.026,3.68,3.68,0,0,0-4.6.4,2.8,2.8,0,0,0-.379,3.238,2.716,2.716,0,0,0,3.032,1.082,1.667,1.667,0,0,0,.416-.176.925.925,0,0,0,.472-.827,1.086,1.086,0,0,0-.095-.445.861.861,0,0,0-1.1-.476l-.083.029a.509.509,0,0,1-.119.038.238.238,0,0,1-.214-.132c-.106-.2.081-.412.2-.494a1.292,1.292,0,0,1,1.641.348,1.525,1.525,0,0,1,.216,1.445,1.922,1.922,0,0,1-1.289,1.235,3.052,3.052,0,0,1-3.523-1.29,3.334,3.334,0,0,1,.422-3.983,4.383,4.383,0,0,1,5.464-.618,4.712,4.712,0,0,1,1.891,6.068,5,5,0,0,1-2.621,2.522,16.489,16.489,0,0,1-2.168.681l-.287.076-.056.015c.149.107.3.21.449.319a16.862,16.862,0,0,0,2.221-.7,5.427,5.427,0,0,0,2.847-2.747A5.156,5.156,0,0,0,213.243,277.273Z" transform="translate(-170.863 -276.549)" fill="#1b519f"/>
      <path id="패스_1303" data-name="패스 1303" d="M206.66,297.159a15.768,15.768,0,0,0-2.131.689c-.924.389-2.868,1.384-3.662,1.8l-.13.067c.108.1.217.2.324.307,1.374-.709,2.891-1.468,3.632-1.78a20.369,20.369,0,0,1,2.855-.875c-.15-.109-.3-.212-.449-.319C206.954,297.081,206.808,297.118,206.66,297.159Z" transform="translate(-168.163 -286.597)" fill="#fca400"/>
      <path id="패스_1304" data-name="패스 1304" d="M184.8,287.336c2.143.886,7.4,3.047,11.108,3.455.178.021.349.034.516.048.083,0,.165.007.246.012-.237-.16-.476-.323-.716-.479-3.573-.4-8.581-2.425-11.143-3.489-.456.167-1.092.4-1.786.641.155.092.3.191.455.285Z" transform="translate(-159.476 -281.616)" fill="#fca400"/>
      <path id="패스_1305" data-name="패스 1305" d="M167.853,297.365l.759.471a15.353,15.353,0,0,0,3.664,1.883,6.451,6.451,0,0,0,1.469.264c-.057-.152-.121-.3-.182-.453q-.176-.44-.362-.876c-.055-.119-.109-.239-.161-.358-.128-.281-.254-.562-.386-.84-.062-.132-.128-.261-.193-.392-.131-.262-.261-.525-.4-.783-.077-.148-.161-.291-.241-.437-.13-.238-.26-.477-.4-.711-.1-.166-.2-.328-.3-.492-.129-.209-.256-.421-.39-.626-.12-.187-.25-.369-.378-.553s-.24-.356-.366-.529c-.161-.22-.329-.434-.5-.649-.1-.129-.2-.263-.3-.39-.176-.216-.362-.423-.546-.631-.081.019-.161.038-.23.052l.036-.008-.37.077a14.56,14.56,0,0,1-5.994.293,8.29,8.29,0,0,1-.935-.1,33.139,33.139,0,0,1,1.879,3.111c.172.082.344.163.514.248C165.225,295.771,166.594,296.592,167.853,297.365Z" transform="translate(-148.751 -283.768)" fill="url(#linear-gradient)"/>
      <path id="패스_1306" data-name="패스 1306" d="M179.644,288.81c-1.743.613-3.017,1.014-3.808,1.2.185.208.372.415.546.631.1.127.2.261.3.39.169.215.337.429.5.649.126.173.245.352.366.529s.257.366.378.553c.137.206.262.417.39.626.1.164.2.326.3.492.137.234.267.473.4.711.08.146.164.289.241.437.136.259.266.521.4.783.065.131.131.26.193.392.132.278.258.559.386.84.052.119.106.239.161.358.126.291.245.582.362.876l.1.228h.007c.03.075.058.15.084.225.062,0,.122.01.182.012,1.844.051,3.311-.823,4.862-1.747.345-.207,1.387-.762,2.56-1.368a53.93,53.93,0,0,0-8.586-6.925Z" transform="translate(-155.952 -282.511)" fill="url(#linear-gradient-2)"/>
      <path id="패스_1307" data-name="패스 1307" d="M210.265,287.4l.287-.076a16.485,16.485,0,0,0,2.168-.681,5,5,0,0,0,2.621-2.522,4.713,4.713,0,0,0-1.891-6.068,4.383,4.383,0,0,0-5.464.618,3.334,3.334,0,0,0-.422,3.983,3.052,3.052,0,0,0,3.523,1.29,1.922,1.922,0,0,0,1.289-1.235,1.525,1.525,0,0,0-.216-1.445,1.292,1.292,0,0,0-1.641-.348c-.115.082-.3.292-.2.494a.238.238,0,0,0,.214.132.51.51,0,0,0,.119-.038l.083-.029a.861.861,0,0,1,1.1.476,1.086,1.086,0,0,1,.095.445.925.925,0,0,1-.472.827,1.666,1.666,0,0,1-.416.176,2.716,2.716,0,0,1-3.032-1.082,2.8,2.8,0,0,1,.379-3.238,3.68,3.68,0,0,1,4.6-.4,3.784,3.784,0,0,1,1.449,5.026c-.7,1.632-2.63,2.5-5.568,2.5-.137,0-.28-.006-.43-.013q.89.592,1.757,1.216Z" transform="translate(-171.272 -276.961)" fill="url(#linear-gradient-3)"/>
      <path id="패스_1308" data-name="패스 1308" d="M210.843,295.979c.147-.04.294-.078.439-.116q-.869-.625-1.757-1.216c-.081-.005-.163-.008-.246-.012Q210.052,295.314,210.843,295.979Z" transform="translate(-172.346 -285.416)" fill="#fca400"/>
      <path id="패스_1309" data-name="패스 1309" d="M197.1,291.286c-.081-.005-.163-.008-.246-.012-.167-.014-.338-.027-.516-.048-3.707-.408-8.965-2.568-11.108-3.454l-1.321.473a53.929,53.929,0,0,1,8.586,6.925l.13-.067c.793-.411,2.738-1.406,3.662-1.8a15.761,15.761,0,0,1,2.131-.689c.147-.04.294-.078.439-.116Q197.991,291.877,197.1,291.286Z" transform="translate(-159.923 -282.054)" fill="url(#linear-gradient-4)"/>
      <path id="패스_1310" data-name="패스 1310" d="M185.487,280.17a1.077,1.077,0,0,0-1.077,1.076,3.635,3.635,0,0,0,1.077,2.349,3.645,3.645,0,0,0,1.076-2.349A1.078,1.078,0,0,0,185.487,280.17Z" transform="translate(-160.148 -278.322)" fill="#fca400"/>
    </g>
  </g>
</svg>
